G04 start of page 9 for group -4062 idx -4062 *
G04 Title: 26.003.00.01.01.pcb, soldermask *
G04 Creator: pcb 4.1.2 *
G04 CreationDate: Sun Jul 29 08:17:15 2018 UTC *
G04 For: bert *
G04 Format: Gerber/RS-274X *
G04 PCB-Dimensions (mil): 6496.06 4133.86 *
G04 PCB-Coordinate-Origin: lower left *
%MOIN*%
%FSLAX25Y25*%
%LNGBS*%
%ADD86C,0.2760*%
%ADD85C,0.0710*%
%ADD84C,0.1100*%
%ADD83C,0.0720*%
%ADD82C,0.0600*%
%ADD81C,0.1460*%
%ADD80C,0.0780*%
%ADD79C,0.0580*%
%ADD78C,0.0660*%
%ADD77C,0.0540*%
G54D77*X545000Y69449D03*
Y77323D03*
G54D78*X550000Y128386D03*
Y138386D03*
Y148386D03*
G54D77*X567500Y91949D03*
Y99823D03*
G54D79*X554921Y180886D03*
X545079D03*
X527421D03*
X517579D03*
G54D78*X520000Y158386D03*
X550000D03*
X520000Y148386D03*
Y138386D03*
Y128386D03*
X557500Y208386D03*
X577500Y205886D03*
X520000Y208386D03*
X570000Y320886D03*
G54D80*X422185Y388228D03*
X402500Y378386D03*
X382815Y388228D03*
G54D78*X465000Y325886D03*
X515000D03*
G54D81*X315000Y383386D03*
G54D78*X542500Y270886D03*
Y320886D03*
G54D82*X542106Y356044D03*
Y375729D03*
G54D78*X570000Y280886D03*
G54D83*X602360Y364174D03*
Y344489D03*
Y324804D03*
X592518Y354332D03*
Y334647D03*
Y314961D03*
Y295276D03*
Y275591D03*
Y255906D03*
G54D84*X612203Y383859D03*
G54D78*X577500Y255886D03*
G54D83*X602360Y305119D03*
Y285434D03*
Y265749D03*
X592518Y236221D03*
Y216537D03*
Y196852D03*
X602360Y246064D03*
Y226379D03*
Y206694D03*
Y187009D03*
X592518Y177167D03*
X602360Y167324D03*
Y147639D03*
Y127954D03*
X592518Y157481D03*
Y137796D03*
Y118111D03*
Y98426D03*
Y78741D03*
X602360Y108269D03*
Y88584D03*
Y68899D03*
G54D84*X612203Y49213D03*
G54D78*X470000Y260886D03*
X467500Y235886D03*
Y283386D03*
X510000Y260886D03*
X517500Y235886D03*
X507500Y283386D03*
X557500Y258386D03*
X470000Y208386D03*
X465000Y305886D03*
X515000D03*
G54D85*X100000Y393386D03*
G54D78*Y328386D03*
G54D85*X175000Y393386D03*
G54D78*X45000Y365886D03*
Y355886D03*
Y345886D03*
Y335886D03*
Y325886D03*
Y315886D03*
G54D81*X20000Y383386D03*
G54D79*X139921Y313386D03*
G54D78*X140000Y328386D03*
X150000D03*
X160000D03*
X170000D03*
G54D79*X130079Y313386D03*
X119921D03*
X110079D03*
G54D78*X110000Y328386D03*
X120000D03*
X130000D03*
X45000Y305886D03*
Y295886D03*
Y285886D03*
Y275886D03*
Y265886D03*
G54D79*X139921Y253386D03*
G54D78*X140000Y268386D03*
X150000D03*
X160000D03*
X170000D03*
G54D79*X130079Y253386D03*
G54D78*X130000Y268386D03*
G54D79*X119921Y253386D03*
X110079D03*
G54D78*X100000Y268386D03*
X110000D03*
X120000D03*
X45000Y255886D03*
Y245886D03*
Y235886D03*
Y225886D03*
Y215886D03*
Y205886D03*
Y195886D03*
Y185886D03*
Y125886D03*
Y115886D03*
Y105886D03*
Y95886D03*
Y85886D03*
Y75886D03*
Y65886D03*
G54D81*X20000Y48386D03*
G54D85*X100000Y38386D03*
G54D78*Y88386D03*
G54D79*X139921Y73386D03*
G54D78*X140000Y88386D03*
X150000D03*
X160000D03*
X170000D03*
G54D85*X175000Y38386D03*
G54D79*X130079Y73386D03*
G54D78*X130000Y88386D03*
G54D79*X119921Y73386D03*
X110079D03*
G54D78*X110000Y88386D03*
X120000D03*
G54D86*X315000Y48386D03*
G54D78*X45000Y175886D03*
Y165886D03*
Y155886D03*
Y145886D03*
Y135886D03*
G54D79*X139921Y193386D03*
X130079D03*
X119921D03*
X110079D03*
G54D78*X100000Y208386D03*
X110000D03*
X120000D03*
X130000D03*
X140000D03*
X150000D03*
X160000D03*
X170000D03*
G54D79*X139921Y133386D03*
X130079D03*
X119921D03*
X110079D03*
G54D78*X100000Y148386D03*
X110000D03*
X120000D03*
X130000D03*
X140000D03*
X150000D03*
X160000D03*
X170000D03*
M02*
