M48
INCH
T64C0.146
T63C0.038
T62C0.036
T61C0.052
T60C0.040
T59C0.020
T58C0.028
T57C0.032
%
T59
X011008Y031339
X011008Y025339
X011008Y019339
X011008Y013339
X011008Y007339
X011992Y031339
X011992Y025339
X011992Y019339
X011992Y013339
X011992Y007339
X013008Y031339
X013008Y025339
X013008Y019339
X013008Y013339
X013008Y007339
X013992Y031339
X013992Y025339
X013992Y019339
X013992Y013339
X013992Y007339
X051758Y018089
X052742Y018089
X054508Y018089
X055492Y018089
T58
X052000Y015839
X052000Y014839
X052000Y013839
X052000Y012839
X055000Y015839
X055000Y014839
X055000Y013839
X055000Y012839
T57
X046750Y028339
X047000Y026089
X050750Y028339
X051000Y026089
X054500Y007732
X054500Y006945
X056750Y009982
X056750Y009195
T62
X054211Y037573
X054211Y035604
T63
X004500Y036589
X004500Y035589
X004500Y034589
X004500Y033589
X004500Y032589
X004500Y031589
X004500Y030589
X004500Y029589
X004500Y028589
X004500Y027589
X004500Y026589
X004500Y025589
X004500Y024589
X004500Y023589
X004500Y022589
X004500Y021589
X004500Y020589
X004500Y019589
X004500Y018589
X004500Y017589
X004500Y016589
X004500Y015589
X004500Y014589
X004500Y013589
X004500Y012589
X004500Y011589
X004500Y010589
X004500Y009589
X004500Y008589
X004500Y007589
X004500Y006589
X010000Y032839
X010000Y026839
X010000Y020839
X010000Y014839
X010000Y008839
X011000Y032839
X011000Y026839
X011000Y020839
X011000Y014839
X011000Y008839
X012000Y032839
X012000Y026839
X012000Y020839
X012000Y014839
X012000Y008839
X013000Y032839
X013000Y026839
X013000Y020839
X013000Y014839
X013000Y008839
X014000Y032839
X014000Y026839
X014000Y020839
X014000Y014839
X014000Y008839
X015000Y032839
X015000Y026839
X015000Y020839
X015000Y014839
X015000Y008839
X016000Y032839
X016000Y026839
X016000Y020839
X016000Y014839
X016000Y008839
X017000Y032839
X017000Y026839
X017000Y020839
X017000Y014839
X017000Y008839
T60
X010000Y039339
X010000Y003839
X017500Y039339
X017500Y003839
X046500Y032589
X046500Y030589
X046750Y023589
X047000Y020839
X051500Y032589
X051500Y030589
X051750Y023589
X052000Y020839
X054250Y032089
X054250Y027089
X055750Y025839
X055750Y020839
X057000Y032089
X057000Y028089
X057750Y025589
X057750Y020589
T61
X038282Y038823
X040250Y037839
X042218Y038823
X059252Y035433
X059252Y033465
X059252Y031496
X059252Y029528
X059252Y027559
X059252Y025591
X059252Y023622
X059252Y021654
X059252Y019685
X059252Y017717
X059252Y015748
X059252Y013780
X059252Y011811
X059252Y009843
X059252Y007874
X060236Y036417
X060236Y034449
X060236Y032480
X060236Y030512
X060236Y028543
X060236Y026575
X060236Y024606
X060236Y022638
X060236Y020669
X060236Y018701
X060236Y016732
X060236Y014764
X060236Y012795
X060236Y010827
X060236Y008858
X060236Y006890
T64
X031500Y004839
M30
