G04 start of page 8 for group -4079 idx -4079 *
G04 Title: 26.005.00.01.01, topsilk *
G04 Creator: pcb 4.1.2 *
G04 CreationDate: Sun Jul 29 08:17:16 2018 UTC *
G04 For: bert *
G04 Format: Gerber/RS-274X *
G04 PCB-Dimensions (mil): 2047.24 2047.24 *
G04 PCB-Coordinate-Origin: lower left *
%MOIN*%
%FSLAX25Y25*%
%LNGTO*%
%ADD22C,0.0098*%
%ADD21C,0.0001*%
G54D21*G36*
X45729Y116635D02*X48306D01*
X48389Y116602D01*
X48436Y116526D01*
X48485Y116287D01*
X48529Y116065D01*
X48920Y113933D01*
X48967Y113846D01*
X49050Y113787D01*
X49153Y113743D01*
X49943Y113472D01*
X50693Y113115D01*
X50699D01*
X50786Y113076D01*
X50883Y113063D01*
X50981Y113093D01*
X52754Y114313D01*
X52945Y114437D01*
X53146Y114574D01*
X53232Y114598D01*
X53314Y114563D01*
X53645Y114232D01*
X54149Y113732D01*
X54307Y113569D01*
X54806Y113072D01*
X54968Y112915D01*
X55136Y112741D01*
X55175Y112656D01*
X55153Y112567D01*
X55017Y112365D01*
X54888Y112176D01*
X53699Y110439D01*
X53667Y110348D01*
X53682Y110250D01*
X53727Y110152D01*
X54410Y108545D01*
X54447Y108454D01*
X54510Y108376D01*
X54600Y108330D01*
X56639Y107948D01*
X56863Y107906D01*
X57106Y107863D01*
X57181Y107815D01*
X57210Y107732D01*
Y105156D01*
X57181Y105067D01*
X57106Y105019D01*
X56863Y104976D01*
X56639Y104933D01*
X54660Y104564D01*
X54572Y104517D01*
X54518Y104433D01*
X54490Y104374D01*
Y104363D01*
X53775Y102589D01*
X53770Y102578D01*
X53753Y102534D01*
X53736Y102433D01*
X53764Y102339D01*
X54893Y100707D01*
X55017Y100517D01*
X55158Y100315D01*
X55177Y100230D01*
X55136Y100148D01*
X54968Y99969D01*
X54806Y99811D01*
X53488Y98493D01*
X53314Y98326D01*
X53232Y98284D01*
X53146Y98302D01*
X52945Y98444D01*
X52754Y98569D01*
X51160Y99665D01*
X51061Y99694D01*
X50964Y99676D01*
X50633Y99491D01*
X50439Y99382D01*
X50092Y99204D01*
X50007Y99198D01*
X49945Y99259D01*
X49799Y99615D01*
X49711Y99822D01*
X48328Y103180D01*
X48240Y103387D01*
X48143Y103619D01*
X48139Y103714D01*
X48192Y103787D01*
X48415Y103919D01*
X48556Y104026D01*
X49092Y104472D01*
X49507Y105037D01*
X49774Y105695D01*
X49868Y106426D01*
X49810Y107000D01*
X49645Y107535D01*
X49382Y108019D01*
X49033Y108441D01*
X48613Y108791D01*
X48129Y109054D01*
X47595Y109219D01*
X47021Y109278D01*
X46446Y109219D01*
X45911Y109054D01*
X45428Y108791D01*
X45006Y108441D01*
X44658Y108019D01*
X44396Y107535D01*
X44231Y107000D01*
X44172Y106426D01*
X44265Y105695D01*
X44532Y105037D01*
X44946Y104472D01*
X45485Y104026D01*
X45621Y103919D01*
X45843Y103787D01*
X45897Y103714D01*
X45892Y103619D01*
X45795Y103387D01*
X45707Y103180D01*
X44324Y99822D01*
X44238Y99615D01*
X44090Y99259D01*
X44029Y99198D01*
X43945Y99204D01*
X43603Y99382D01*
X43402Y99491D01*
X43071Y99676D01*
X42972Y99694D01*
X42875Y99665D01*
X41281Y98569D01*
X41096Y98444D01*
X40890Y98302D01*
X40803Y98284D01*
X40721Y98326D01*
X40547Y98493D01*
X40390Y98656D01*
X39892Y99154D01*
X39729Y99313D01*
X39229Y99811D01*
X39067Y99969D01*
X38899Y100148D01*
X38860Y100230D01*
X38882Y100315D01*
X39018Y100517D01*
X39149Y100707D01*
X40271Y102339D01*
X40299Y102433D01*
X40282Y102534D01*
X40260Y102594D01*
X39550Y104369D01*
X39517Y104433D01*
X39463Y104517D01*
X39377Y104564D01*
X37396Y104933D01*
X37174Y104976D01*
X36935Y105019D01*
X36856Y105069D01*
X36827Y105156D01*
Y107732D01*
X36856Y107815D01*
X36935Y107863D01*
X37174Y107911D01*
X37396Y107948D01*
X39436Y108330D01*
X39525Y108376D01*
X39588Y108459D01*
X39625Y108545D01*
X40314Y110152D01*
X40353Y110250D01*
X40370Y110348D01*
X40342Y110439D01*
X39149Y112180D01*
X39018Y112365D01*
X38882Y112567D01*
X38860Y112656D01*
X38899Y112741D01*
X39067Y112915D01*
X39229Y113072D01*
X40721Y114563D01*
X40803Y114598D01*
X40890Y114580D01*
X41096Y114443D01*
X41281Y114313D01*
X43054Y113093D01*
X43152Y113065D01*
X43250Y113082D01*
X43336Y113115D01*
X43347Y113119D01*
X44093Y113474D01*
X44883Y113748D01*
X44986Y113787D01*
X45070Y113846D01*
X45115Y113933D01*
X45513Y116065D01*
X45550Y116287D01*
X45599Y116526D01*
X45646Y116602D01*
X45729Y116635D01*
G37*
G54D22*X30252Y94020D02*X29852Y93820D01*
X29452Y93420D01*
X29252Y92820D01*
Y92420D01*
X29452Y91820D01*
X29852Y91420D01*
X30252Y91220D01*
X30852D01*
X31252Y91420D01*
X31652Y91820D01*
X31852Y92420D01*
Y92820D02*Y92420D01*
Y92820D02*X31652Y93420D01*
X31252Y93820D01*
X30852Y94020D01*
X30252D02*X30852D01*
X33052D02*Y89820D01*
Y93420D02*X33452Y93820D01*
X33852Y94020D01*
X34452D01*
X34852Y93820D01*
X35252Y93420D01*
X35452Y92820D01*
Y92420D01*
X35252Y91820D01*
X34852Y91420D01*
X34452Y91220D01*
X33852D02*X34452D01*
X33852D02*X33452Y91420D01*
X33052Y91820D01*
X36652Y92820D02*X39052D01*
Y93220D02*Y92820D01*
Y93220D02*X38852Y93620D01*
X38652Y93820D01*
X38252Y94020D01*
X37652D02*X38252D01*
X37652D02*X37252Y93820D01*
X36852Y93420D01*
X36652Y92820D01*
Y92420D01*
X36852Y91820D01*
X37252Y91420D01*
X37652Y91220D01*
X38252D01*
X38652Y91420D01*
X39052Y91820D01*
X40252Y94020D02*Y91220D01*
Y93220D02*X40852Y93820D01*
X41252Y94020D01*
X41852D01*
X42252Y93820D01*
X42452Y93220D01*
Y91220D01*
X47052Y93420D02*X46852Y93820D01*
X46252Y94020D01*
X45652D02*X46252D01*
X45652D02*X45052Y93820D01*
X44852Y93420D01*
X45052Y93020D01*
X45452Y92820D01*
X46452Y92620D01*
X46852Y92420D01*
X47052Y92020D01*
Y91820D01*
X46852Y91420D01*
X46252Y91220D01*
X45652D02*X46252D01*
X45652D02*X45052Y91420D01*
X44852Y91820D01*
X49252Y94020D02*X48852Y93820D01*
X48452Y93420D01*
X48252Y92820D01*
Y92420D01*
X48452Y91820D01*
X48852Y91420D01*
X49252Y91220D01*
X49852D01*
X50252Y91420D01*
X50652Y91820D01*
X50852Y92420D01*
Y92820D02*Y92420D01*
Y92820D02*X50652Y93420D01*
X50252Y93820D01*
X49852Y94020D01*
X49252D02*X49852D01*
X52052D02*Y92020D01*
X52252Y91420D01*
X52652Y91220D01*
X53252D01*
X53652Y91420D01*
X54252Y92020D01*
Y94020D02*Y91220D01*
X55452Y94020D02*Y91220D01*
Y92820D02*X55652Y93420D01*
X56052Y93820D01*
X56452Y94020D01*
X57052D01*
X60652Y93420D02*X60252Y93820D01*
X59852Y94020D01*
X59252D02*X59852D01*
X59252D02*X58852Y93820D01*
X58452Y93420D01*
X58252Y92820D01*
Y92420D01*
X58452Y91820D01*
X58852Y91420D01*
X59252Y91220D01*
X59852D01*
X60252Y91420D01*
X60652Y91820D01*
X61852Y92820D02*X64252D01*
Y93220D02*Y92820D01*
Y93220D02*X64052Y93620D01*
X63852Y93820D01*
X63452Y94020D01*
X62852D02*X63452D01*
X62852D02*X62452Y93820D01*
X62052Y93420D01*
X61852Y92820D01*
Y92420D01*
X62052Y91820D01*
X62452Y91420D01*
X62852Y91220D01*
X63452D01*
X63852Y91420D01*
X64252Y91820D01*
X34252Y85920D02*Y81720D01*
Y83720D02*X34852Y84320D01*
X35252Y84520D01*
X35852D01*
X36252Y84320D01*
X36452Y83720D01*
Y81720D01*
X40052Y84520D02*Y81720D01*
Y83920D02*X39652Y84320D01*
X39252Y84520D01*
X38652D02*X39252D01*
X38652D02*X38252Y84320D01*
X37852Y83920D01*
X37652Y83320D01*
Y82920D01*
X37852Y82320D01*
X38252Y81920D01*
X38652Y81720D01*
X39252D01*
X39652Y81920D01*
X40052Y82320D01*
X41252Y84520D02*Y81720D01*
Y83320D02*X41452Y83920D01*
X41852Y84320D01*
X42252Y84520D01*
X42852D01*
X46452Y85920D02*Y81720D01*
Y83920D02*X46052Y84320D01*
X45652Y84520D01*
X45052D02*X45652D01*
X45052D02*X44652Y84320D01*
X44252Y83920D01*
X44052Y83320D01*
Y82920D01*
X44252Y82320D01*
X44652Y81920D01*
X45052Y81720D01*
X45652D01*
X46052Y81920D01*
X46452Y82320D01*
X47652Y84520D02*X48452Y81720D01*
X49252Y84520D02*X48452Y81720D01*
X49252Y84520D02*X50052Y81720D01*
X50852Y84520D02*X50052Y81720D01*
X54452Y84520D02*Y81720D01*
Y83920D02*X54052Y84320D01*
X53652Y84520D01*
X53052D02*X53652D01*
X53052D02*X52652Y84320D01*
X52252Y83920D01*
X52052Y83320D01*
Y82920D01*
X52252Y82320D01*
X52652Y81920D01*
X53052Y81720D01*
X53652D01*
X54052Y81920D01*
X54452Y82320D01*
X55652Y84520D02*Y81720D01*
Y83320D02*X55852Y83920D01*
X56252Y84320D01*
X56652Y84520D01*
X57252D01*
X58452Y83320D02*X60852D01*
Y83720D02*Y83320D01*
Y83720D02*X60652Y84120D01*
X60452Y84320D01*
X60052Y84520D01*
X59452D02*X60052D01*
X59452D02*X59052Y84320D01*
X58652Y83920D01*
X58452Y83320D01*
Y82920D01*
X58652Y82320D01*
X59052Y81920D01*
X59452Y81720D01*
X60052D01*
X60452Y81920D01*
X60852Y82320D01*
X49993Y62576D02*X49593Y62976D01*
X48993Y63176D01*
X48193D02*X48993D01*
X48193D02*X47593Y62976D01*
X47193Y62576D01*
Y62176D01*
X47393Y61776D01*
X47593Y61576D01*
X47993Y61376D01*
X49193Y60976D01*
X49593Y60776D01*
X49793Y60576D01*
X49993Y60176D01*
Y59576D01*
X49593Y59176D01*
X48993Y58976D01*
X48193D02*X48993D01*
X48193D02*X47593Y59176D01*
X47193Y59576D01*
X51793Y63176D02*Y59776D01*
X51993Y59176D01*
X52393Y58976D01*
X52793D01*
X51193Y61776D02*X52593D01*
X53993D02*Y58976D01*
Y60576D02*X54193Y61176D01*
X54593Y61576D01*
X54993Y61776D01*
X55593D01*
X56793D02*Y59776D01*
X56993Y59176D01*
X57393Y58976D01*
X57993D01*
X58393Y59176D01*
X58993Y59776D01*
Y61776D02*Y58976D01*
X60793Y63176D02*Y59776D01*
X60993Y59176D01*
X61393Y58976D01*
X61793D01*
X60193Y61776D02*X61593D01*
X50193Y46676D02*X49993Y47076D01*
X49593Y47476D01*
X49193Y47676D01*
X48393D02*X49193D01*
X48393D02*X47993Y47476D01*
X47593Y47076D01*
X47393Y46676D01*
X47193Y46076D01*
Y45076D01*
X47393Y44476D01*
X47593Y44076D01*
X47993Y43676D01*
X48393Y43476D01*
X49193D01*
X49593Y43676D01*
X49993Y44076D01*
X50193Y44476D01*
X52393Y46276D02*X51993Y46076D01*
X51593Y45676D01*
X51393Y45076D01*
Y44676D01*
X51593Y44076D01*
X51993Y43676D01*
X52393Y43476D01*
X52993D01*
X53393Y43676D01*
X53793Y44076D01*
X53993Y44676D01*
Y45076D02*Y44676D01*
Y45076D02*X53793Y45676D01*
X53393Y46076D01*
X52993Y46276D01*
X52393D02*X52993D01*
X55193D02*Y42076D01*
Y45676D02*X55593Y46076D01*
X55993Y46276D01*
X56593D01*
X56993Y46076D01*
X57393Y45676D01*
X57593Y45076D01*
Y44676D01*
X57393Y44076D01*
X56993Y43676D01*
X56593Y43476D01*
X55993D02*X56593D01*
X55993D02*X55593Y43676D01*
X55193Y44076D01*
X58993Y46276D02*X60193Y43476D01*
X61393Y46276D02*X60193Y43476D01*
X59793Y42676D01*
X59393Y42276D01*
X58993Y42076D01*
X58793D02*X58993D01*
X62593Y46276D02*Y43476D01*
Y45076D02*X62793Y45676D01*
X63193Y46076D01*
X63593Y46276D01*
X64193D01*
X65393Y47676D02*X65593Y47476D01*
X65793Y47676D01*
X65593Y47876D01*
X65393Y47676D01*
X65593Y46276D02*Y43476D01*
X69393Y46276D02*Y43076D01*
X69193Y42476D01*
X68993Y42276D01*
X68593Y42076D01*
X67993D02*X68593D01*
X67993D02*X67593Y42276D01*
X69393Y45676D02*X68993Y46076D01*
X68593Y46276D01*
X67993D02*X68593D01*
X67993D02*X67593Y46076D01*
X67193Y45676D01*
X66993Y45076D01*
Y44676D01*
X67193Y44076D01*
X67593Y43676D01*
X67993Y43476D01*
X68593D01*
X68993Y43676D01*
X69393Y44076D01*
X70593Y47676D02*Y43476D01*
Y45476D02*X71193Y46076D01*
X71593Y46276D01*
X72193D01*
X72593Y46076D01*
X72793Y45476D01*
Y43476D01*
X74593Y47676D02*Y44276D01*
X74793Y43676D01*
X75193Y43476D01*
X75593D01*
X73993Y46276D02*X75393D01*
X79393Y48476D02*X78993Y48076D01*
X78593Y47476D01*
X78193Y46676D01*
X77993Y45676D01*
Y44876D01*
X78193Y43876D01*
X78593Y43076D01*
X78993Y42476D01*
X79393Y42076D01*
X83593Y46676D02*X83393Y47076D01*
X82993Y47476D01*
X82593Y47676D01*
X81793D02*X82593D01*
X81793D02*X81393Y47476D01*
X80993Y47076D01*
X80793Y46676D01*
X80593Y46076D01*
Y45076D01*
X80793Y44476D01*
X80993Y44076D01*
X81393Y43676D01*
X81793Y43476D01*
X82593D01*
X82993Y43676D01*
X83393Y44076D01*
X83593Y44476D01*
X84793Y48476D02*X85193Y48076D01*
X85593Y47476D01*
X85993Y46676D01*
X86193Y45676D01*
Y44876D01*
X85993Y43876D01*
X85593Y43076D01*
X85193Y42476D01*
X84793Y42076D01*
X88793Y46876D02*Y46676D01*
Y46876D02*X88993Y47276D01*
X89193Y47476D01*
X89593Y47676D01*
X90393D01*
X90793Y47476D01*
X90993Y47276D01*
X91193Y46876D01*
Y46476D01*
X90993Y46076D01*
X90593Y45476D01*
X88593Y43476D01*
X91393D01*
X93793Y47676D02*X93193Y47476D01*
X92793Y46876D01*
X92593Y45876D01*
Y45276D01*
X92793Y44276D01*
X93193Y43676D01*
X93793Y43476D01*
X94193D01*
X94793Y43676D01*
X95193Y44276D01*
X95393Y45276D01*
Y45876D02*Y45276D01*
Y45876D02*X95193Y46876D01*
X94793Y47476D01*
X94193Y47676D01*
X93793D02*X94193D01*
X96593Y46876D02*X96993Y47076D01*
X97593Y47676D01*
Y43476D01*
X101593Y47676D02*X99593Y43476D01*
X98793Y47676D02*X101593D01*
X103993D02*Y43476D01*
Y47676D02*X105793D01*
X106393Y47476D01*
X106593Y47276D01*
X106793Y46876D01*
Y46476D01*
X106593Y46076D01*
X106393Y45876D01*
X105793Y45676D01*
X103993D02*X105793D01*
X106393Y45476D01*
X106593Y45276D01*
X106793Y44876D01*
Y44276D01*
X106593Y43876D01*
X106393Y43676D01*
X105793Y43476D01*
X103993D02*X105793D01*
X107993Y45076D02*X110393D01*
Y45476D02*Y45076D01*
Y45476D02*X110193Y45876D01*
X109993Y46076D01*
X109593Y46276D01*
X108993D02*X109593D01*
X108993D02*X108593Y46076D01*
X108193Y45676D01*
X107993Y45076D01*
Y44676D01*
X108193Y44076D01*
X108593Y43676D01*
X108993Y43476D01*
X109593D01*
X109993Y43676D01*
X110393Y44076D01*
X111593Y46276D02*Y43476D01*
Y45076D02*X111793Y45676D01*
X112193Y46076D01*
X112593Y46276D01*
X113193D01*
X114993Y47676D02*Y44276D01*
X115193Y43676D01*
X115593Y43476D01*
X115993D01*
X114393Y46276D02*X115793D01*
X119793Y47676D02*Y43476D01*
X118393Y47676D02*X121193D01*
X122393D02*X122593Y47476D01*
X122793Y47676D01*
X122593Y47876D01*
X122393Y47676D01*
X122593Y46276D02*Y43476D01*
X123993Y46276D02*Y43476D01*
Y45476D02*X124593Y46076D01*
X124993Y46276D01*
X125593D01*
X125993Y46076D01*
X126193Y45476D01*
Y43476D01*
Y45476D02*X126793Y46076D01*
X127193Y46276D01*
X127793D01*
X128193Y46076D01*
X128393Y45476D01*
Y43476D01*
X129593Y46276D02*Y43476D01*
Y45476D02*X130193Y46076D01*
X130593Y46276D01*
X131193D01*
X131593Y46076D01*
X131793Y45476D01*
Y43476D01*
Y45476D02*X132393Y46076D01*
X132793Y46276D01*
X133393D01*
X133793Y46076D01*
X133993Y45476D01*
Y43476D01*
X135193Y45076D02*X137593D01*
Y45476D02*Y45076D01*
Y45476D02*X137393Y45876D01*
X137193Y46076D01*
X136793Y46276D01*
X136193D02*X136793D01*
X136193D02*X135793Y46076D01*
X135393Y45676D01*
X135193Y45076D01*
Y44676D01*
X135393Y44076D01*
X135793Y43676D01*
X136193Y43476D01*
X136793D01*
X137193Y43676D01*
X137593Y44076D01*
X138793Y46276D02*Y43476D01*
Y45076D02*X138993Y45676D01*
X139393Y46076D01*
X139793Y46276D01*
X140393D01*
X141593D02*Y43476D01*
Y45476D02*X142193Y46076D01*
X142593Y46276D01*
X143193D01*
X143593Y46076D01*
X143793Y45476D01*
Y43476D01*
Y45476D02*X144393Y46076D01*
X144793Y46276D01*
X145393D01*
X145793Y46076D01*
X145993Y45476D01*
Y43476D01*
X149593Y46276D02*Y43476D01*
Y45676D02*X149193Y46076D01*
X148793Y46276D01*
X148193D02*X148793D01*
X148193D02*X147793Y46076D01*
X147393Y45676D01*
X147193Y45076D01*
Y44676D01*
X147393Y44076D01*
X147793Y43676D01*
X148193Y43476D01*
X148793D01*
X149193Y43676D01*
X149593Y44076D01*
X150793Y46276D02*Y43476D01*
Y45476D02*X151393Y46076D01*
X151793Y46276D01*
X152393D01*
X152793Y46076D01*
X152993Y45476D01*
Y43476D01*
X47393Y54376D02*Y54176D01*
Y54376D02*X47593Y54776D01*
X47793Y54976D01*
X48193Y55176D01*
X48993D01*
X49393Y54976D01*
X49593Y54776D01*
X49793Y54376D01*
Y53976D01*
X49593Y53576D01*
X49193Y52976D01*
X47193Y50976D01*
X49993D01*
X53593Y54576D02*X53393Y54976D01*
X52793Y55176D01*
X52393D02*X52793D01*
X52393D02*X51793Y54976D01*
X51393Y54376D01*
X51193Y53376D01*
Y52376D01*
X51393Y51576D01*
X51793Y51176D01*
X52393Y50976D01*
X52593D01*
X53193Y51176D01*
X53593Y51576D01*
X53793Y52176D01*
Y52376D02*Y52176D01*
Y52376D02*X53593Y52976D01*
X53193Y53376D01*
X52593Y53576D01*
X52393D02*X52593D01*
X52393D02*X51793Y53376D01*
X51393Y52976D01*
X51193Y52376D01*
X55193Y51376D02*X54993Y51176D01*
X55193Y50976D01*
X55393Y51176D01*
X55193Y51376D01*
X57793Y55176D02*X57193Y54976D01*
X56793Y54376D01*
X56593Y53376D01*
Y52776D01*
X56793Y51776D01*
X57193Y51176D01*
X57793Y50976D01*
X58193D01*
X58793Y51176D01*
X59193Y51776D01*
X59393Y52776D01*
Y53376D02*Y52776D01*
Y53376D02*X59193Y54376D01*
X58793Y54976D01*
X58193Y55176D01*
X57793D02*X58193D01*
X61793D02*X61193Y54976D01*
X60793Y54376D01*
X60593Y53376D01*
Y52776D01*
X60793Y51776D01*
X61193Y51176D01*
X61793Y50976D01*
X62193D01*
X62793Y51176D01*
X63193Y51776D01*
X63393Y52776D01*
Y53376D02*Y52776D01*
Y53376D02*X63193Y54376D01*
X62793Y54976D01*
X62193Y55176D01*
X61793D02*X62193D01*
X64993D02*X66993D01*
X64993D02*X64793Y53376D01*
X64993Y53576D01*
X65593Y53776D01*
X66193D01*
X66793Y53576D01*
X67193Y53176D01*
X67393Y52576D01*
Y52176D01*
X67193Y51576D01*
X66793Y51176D01*
X66193Y50976D01*
X65593D02*X66193D01*
X65593D02*X64993Y51176D01*
X64793Y51376D01*
X64593Y51776D01*
X68793Y51376D02*X68593Y51176D01*
X68793Y50976D01*
X68993Y51176D01*
X68793Y51376D01*
X71393Y55176D02*X70793Y54976D01*
X70393Y54376D01*
X70193Y53376D01*
Y52776D01*
X70393Y51776D01*
X70793Y51176D01*
X71393Y50976D01*
X71793D01*
X72393Y51176D01*
X72793Y51776D01*
X72993Y52776D01*
Y53376D02*Y52776D01*
Y53376D02*X72793Y54376D01*
X72393Y54976D01*
X71793Y55176D01*
X71393D02*X71793D01*
X75393D02*X74793Y54976D01*
X74393Y54376D01*
X74193Y53376D01*
Y52776D01*
X74393Y51776D01*
X74793Y51176D01*
X75393Y50976D01*
X75793D01*
X76393Y51176D01*
X76793Y51776D01*
X76993Y52776D01*
Y53376D02*Y52776D01*
Y53376D02*X76793Y54376D01*
X76393Y54976D01*
X75793Y55176D01*
X75393D02*X75793D01*
X78393Y51376D02*X78193Y51176D01*
X78393Y50976D01*
X78593Y51176D01*
X78393Y51376D01*
X80993Y55176D02*X80393Y54976D01*
X79993Y54376D01*
X79793Y53376D01*
Y52776D01*
X79993Y51776D01*
X80393Y51176D01*
X80993Y50976D01*
X81393D01*
X81993Y51176D01*
X82393Y51776D01*
X82593Y52776D01*
Y53376D02*Y52776D01*
Y53376D02*X82393Y54376D01*
X81993Y54976D01*
X81393Y55176D01*
X80993D02*X81393D01*
X83793Y54376D02*X84193Y54576D01*
X84793Y55176D01*
Y50976D01*
X86193Y51376D02*X85993Y51176D01*
X86193Y50976D01*
X86393Y51176D01*
X86193Y51376D01*
X88793Y55176D02*X88193Y54976D01*
X87793Y54376D01*
X87593Y53376D01*
Y52776D01*
X87793Y51776D01*
X88193Y51176D01*
X88793Y50976D01*
X89193D01*
X89793Y51176D01*
X90193Y51776D01*
X90393Y52776D01*
Y53376D02*Y52776D01*
Y53376D02*X90193Y54376D01*
X89793Y54976D01*
X89193Y55176D01*
X88793D02*X89193D01*
X91593Y54376D02*X91993Y54576D01*
X92593Y55176D01*
Y50976D01*
X25685Y158312D02*Y154112D01*
Y157712D02*X26085Y158112D01*
X26485Y158312D01*
X27085D01*
X27485Y158112D01*
X27885Y157712D01*
X28085Y157112D01*
Y156712D01*
X27885Y156112D01*
X27485Y155712D01*
X27085Y155512D01*
X26485D02*X27085D01*
X26485D02*X26085Y155712D01*
X25685Y156112D01*
X29685Y159712D02*X31885D01*
X30685Y158112D01*
X31285D01*
X31685Y157912D01*
X31885Y157712D01*
X32085Y157112D01*
Y156712D01*
X31885Y156112D01*
X31485Y155712D01*
X30885Y155512D01*
X30285D02*X30885D01*
X30285D02*X29685Y155712D01*
X29485Y155912D01*
X29285Y156312D01*
X31591Y53981D02*Y49781D01*
Y53381D02*X31991Y53781D01*
X32391Y53981D01*
X32991D01*
X33391Y53781D01*
X33791Y53381D01*
X33991Y52781D01*
Y52381D01*
X33791Y51781D01*
X33391Y51381D01*
X32991Y51181D01*
X32391D02*X32991D01*
X32391D02*X31991Y51381D01*
X31591Y51781D01*
X37191Y55381D02*X35191Y52581D01*
X38191D01*
X37191Y55381D02*Y51181D01*
X57181Y28391D02*Y24191D01*
Y27791D02*X57581Y28191D01*
X57981Y28391D01*
X58581D01*
X58981Y28191D01*
X59381Y27791D01*
X59581Y27191D01*
Y26791D01*
X59381Y26191D01*
X58981Y25791D01*
X58581Y25591D01*
X57981D02*X58581D01*
X57981D02*X57581Y25791D01*
X57181Y26191D01*
X60781Y28991D02*X61181Y29191D01*
X61781Y29791D01*
Y25591D01*
X153638Y28391D02*Y24191D01*
Y27791D02*X154038Y28191D01*
X154438Y28391D01*
X155038D01*
X155438Y28191D01*
X155838Y27791D01*
X156038Y27191D01*
Y26791D01*
X155838Y26191D01*
X155438Y25791D01*
X155038Y25591D01*
X154438D02*X155038D01*
X154438D02*X154038Y25791D01*
X153638Y26191D01*
X157438Y28991D02*Y28791D01*
Y28991D02*X157638Y29391D01*
X157838Y29591D01*
X158238Y29791D01*
X159038D01*
X159438Y29591D01*
X159638Y29391D01*
X159838Y28991D01*
Y28591D01*
X159638Y28191D01*
X159238Y27591D01*
X157238Y25591D01*
X160038D01*
M02*
