G04 start of page 9 for group -4078 idx -4078 *
G04 Title: 26.006.02.01.01, bottomsilk *
G04 Creator: pcb 4.1.2 *
G04 CreationDate: Sun Jul 29 08:17:17 2018 UTC *
G04 For: bert *
G04 Format: Gerber/RS-274X *
G04 PCB-Dimensions (mil): 2600.00 1150.00 *
G04 PCB-Coordinate-Origin: lower left *
%MOIN*%
%FSLAX25Y25*%
%LNGBO*%
%ADD42C,0.0000*%
%ADD41C,0.0100*%
G54D41*X0Y115000D02*X260000D01*
X97500Y107500D02*X87500D01*
X92500Y110000D02*X97500Y107500D01*
X0Y0D02*Y115000D01*
X260000Y0D02*X0D01*
X97500Y107500D02*X92500Y105000D01*
Y110000D01*
X260000Y115000D02*Y0D01*
X222500Y110000D02*X227500Y107500D01*
X222500Y105000D01*
Y110000D01*
X227500Y107500D02*X217500D01*
X254400Y71500D02*Y76300D01*
X252600D02*X252000Y75700D01*
Y72100D02*Y75700D01*
X252600Y71500D02*X252000Y72100D01*
X252600Y71500D02*X255000D01*
X252600Y76300D02*X255000D01*
X250560Y72100D02*Y73900D01*
Y72100D02*X249960Y71500D01*
X248760D02*X249960D01*
X248760D02*X248160Y72100D01*
Y73900D01*
X244920D02*X244320Y73300D01*
X244920Y73900D02*X246120D01*
X246720Y73300D02*X246120Y73900D01*
X246720Y72100D02*Y73300D01*
Y72100D02*X246120Y71500D01*
X244320Y72100D02*Y73900D01*
Y72100D02*X243720Y71500D01*
X244920D02*X246120D01*
X244920D02*X244320Y72100D01*
X242280D02*Y76300D01*
Y72100D02*X241680Y71500D01*
X235920D02*X238320D01*
X235920D02*X235320Y72100D01*
Y73300D01*
X235920Y73900D02*X235320Y73300D01*
X235920Y73900D02*X237720D01*
Y71500D02*Y76300D01*
X235920D02*X238320D01*
X235920D02*X235320Y75700D01*
Y74500D02*Y75700D01*
X235920Y73900D02*X235320Y74500D01*
X232080Y73900D02*X231480Y73300D01*
X232080Y73900D02*X233280D01*
X233880Y73300D02*X233280Y73900D01*
X233880Y72100D02*Y73300D01*
Y72100D02*X233280Y71500D01*
X231480Y72100D02*Y73900D01*
Y72100D02*X230880Y71500D01*
X232080D02*X233280D01*
X232080D02*X231480Y72100D01*
X228840Y71500D02*Y73300D01*
X228240Y73900D01*
X227640D02*X228240D01*
X227640D02*X227040Y73300D01*
Y71500D02*Y73300D01*
X229440Y73900D02*X228840Y73300D01*
X223200Y71500D02*Y76300D01*
X223800Y71500D02*X223200Y72100D01*
X223800Y71500D02*X225000D01*
X225600Y72100D02*X225000Y71500D01*
X225600Y72100D02*Y73300D01*
X225000Y73900D01*
X223800D02*X225000D01*
X223800D02*X223200Y73300D01*
X221160Y69700D02*Y73300D01*
X221760Y73900D02*X221160Y73300D01*
X220560Y73900D01*
X219360D02*X220560D01*
X219360D02*X218760Y73300D01*
Y72100D02*Y73300D01*
X219360Y71500D02*X218760Y72100D01*
X219360Y71500D02*X220560D01*
X221160Y72100D02*X220560Y71500D01*
X215520Y73900D02*X214920Y73300D01*
X215520Y73900D02*X216720D01*
X217320Y73300D02*X216720Y73900D01*
X217320Y72100D02*Y73300D01*
Y72100D02*X216720Y71500D01*
X214920Y72100D02*Y73900D01*
Y72100D02*X214320Y71500D01*
X215520D02*X216720D01*
X215520D02*X214920Y72100D01*
X210480Y71500D02*X212280D01*
X210480D02*X209880Y72100D01*
X210480Y72700D02*X209880Y72100D01*
X210480Y72700D02*X212280D01*
X212880Y73300D02*X212280Y72700D01*
X212880Y73300D02*X212280Y73900D01*
X210480D02*X212280D01*
X210480D02*X209880Y73300D01*
X212880Y72100D02*X212280Y71500D01*
X206040D02*X207840D01*
X206040D02*X205440Y72100D01*
X206040Y72700D02*X205440Y72100D01*
X206040Y72700D02*X207840D01*
X208440Y73300D02*X207840Y72700D01*
X208440Y73300D02*X207840Y73900D01*
X206040D02*X207840D01*
X206040D02*X205440Y73300D01*
X208440Y72100D02*X207840Y71500D01*
X201840D02*Y76300D01*
X199440D02*X201840D01*
X200040Y73900D02*X201840D01*
X198000Y74500D02*Y75100D01*
Y71500D02*Y73300D01*
X196800Y72100D02*Y76300D01*
Y72100D02*X196200Y71500D01*
X194400Y72100D02*Y76300D01*
Y72100D02*X193800Y71500D01*
Y74500D02*X195000D01*
X190200Y71500D02*X192000D01*
X192600Y72100D02*X192000Y71500D01*
X192600Y72100D02*Y73300D01*
X192000Y73900D01*
X190800D02*X192000D01*
X190800D02*X190200Y73300D01*
Y72700D02*X192600D01*
X190200D02*Y73300D01*
X188160Y71500D02*Y73300D01*
X187560Y73900D01*
X186360D02*X187560D01*
X188760D02*X188160Y73300D01*
X182760Y72100D02*Y76300D01*
Y72100D02*X182160Y71500D01*
X180960D02*X182160D01*
X180960D02*X180360Y72100D01*
Y76300D01*
X178320Y71500D02*Y73300D01*
X177720Y73900D01*
X177120D02*X177720D01*
X177120D02*X176520Y73300D01*
Y71500D02*Y73300D01*
X178920Y73900D02*X178320Y73300D01*
X175080Y74500D02*Y75100D01*
Y71500D02*Y73300D01*
X173280Y72100D02*Y76300D01*
Y72100D02*X172680Y71500D01*
Y74500D02*X173880D01*
X143000Y29000D02*X142500Y28500D01*
X143000Y29000D02*X144500D01*
X145000Y28500D02*X144500Y29000D01*
X145000Y25500D02*Y28500D01*
Y25500D02*X144500Y25000D01*
X143000D02*X144500D01*
X143000D02*X142500Y25500D01*
Y26500D01*
X143000Y27000D02*X142500Y26500D01*
X143000Y27000D02*X144000D01*
X141300Y25000D02*Y29000D01*
Y28500D02*Y29000D01*
Y28500D02*X138800Y26000D01*
Y25000D02*Y29000D01*
X137100Y25000D02*Y29000D01*
X135600D02*X135100Y28500D01*
Y25500D02*Y28500D01*
X135600Y25000D02*X135100Y25500D01*
X135600Y25000D02*X137600D01*
X135600Y29000D02*X137600D01*
X85000Y107100D02*Y110700D01*
X84400Y111300D01*
X83200D02*X84400D01*
X83200D02*X82600Y110700D01*
Y107100D02*Y110700D01*
X83200Y106500D02*X82600Y107100D01*
X83200Y106500D02*X84400D01*
X85000Y107100D02*X84400Y106500D01*
X81160Y107100D02*Y111300D01*
Y107100D02*X80560Y106500D01*
X79360D02*X80560D01*
X79360D02*X78760Y107100D01*
Y111300D01*
X74920D02*X77320D01*
X76120Y106500D02*Y111300D01*
X72880Y106500D02*Y111300D01*
X71080D02*X73480D01*
X71080D02*X70480Y110700D01*
Y109500D02*Y110700D01*
X71080Y108900D02*X70480Y109500D01*
X71080Y108900D02*X72880D01*
X69040Y107100D02*Y111300D01*
Y107100D02*X68440Y106500D01*
X67240D02*X68440D01*
X67240D02*X66640Y107100D01*
Y111300D01*
X62800D02*X65200D01*
X64000Y106500D02*Y111300D01*
X59200Y110700D02*X58600Y111300D01*
X57400D02*X58600D01*
X57400D02*X56800Y110700D01*
Y107100D02*Y110700D01*
X57400Y106500D02*X56800Y107100D01*
X57400Y106500D02*X58600D01*
X59200Y107100D02*X58600Y106500D01*
X56800Y108900D02*X58600D01*
X53560Y106500D02*X54760D01*
X54160D02*Y111300D01*
X55360Y110100D02*X54160Y111300D01*
X51520Y106500D02*X52120D01*
X47680Y111300D02*X50080D01*
Y108900D02*Y111300D01*
Y108900D02*X49480Y109500D01*
X48280D02*X49480D01*
X48280D02*X47680Y108900D01*
Y107100D02*Y108900D01*
X48280Y106500D02*X47680Y107100D01*
X48280Y106500D02*X49480D01*
X50080Y107100D02*X49480Y106500D01*
X44080D02*Y111300D01*
X41080Y106500D02*Y111300D01*
Y108900D02*X44080D01*
X37240D02*X39640D01*
Y106500D02*X37240Y108900D01*
Y106500D02*X39640D01*
X215000Y107100D02*Y110700D01*
X214400Y111300D01*
X213200D02*X214400D01*
X213200D02*X212600Y110700D01*
Y107100D02*Y110700D01*
X213200Y106500D02*X212600Y107100D01*
X213200Y106500D02*X214400D01*
X215000Y107100D02*X214400Y106500D01*
X211160Y107100D02*Y111300D01*
Y107100D02*X210560Y106500D01*
X209360D02*X210560D01*
X209360D02*X208760Y107100D01*
Y111300D01*
X204920D02*X207320D01*
X206120Y106500D02*Y111300D01*
X202880Y106500D02*Y111300D01*
X201080D02*X203480D01*
X201080D02*X200480Y110700D01*
Y109500D02*Y110700D01*
X201080Y108900D02*X200480Y109500D01*
X201080Y108900D02*X202880D01*
X199040Y107100D02*Y111300D01*
Y107100D02*X198440Y106500D01*
X197240D02*X198440D01*
X197240D02*X196640Y107100D01*
Y111300D01*
X192800D02*X195200D01*
X194000Y106500D02*Y111300D01*
X187400D02*X186800Y110700D01*
X187400Y111300D02*X188600D01*
X189200Y110700D02*X188600Y111300D01*
X189200Y107100D02*Y110700D01*
Y107100D02*X188600Y106500D01*
X187400Y108900D02*X186800Y108300D01*
X187400Y108900D02*X189200D01*
X187400Y106500D02*X188600D01*
X187400D02*X186800Y107100D01*
Y108300D01*
X185360Y110700D02*X184760Y111300D01*
X183560D02*X184760D01*
X183560D02*X182960Y110700D01*
Y107100D02*Y110700D01*
X183560Y106500D02*X182960Y107100D01*
X183560Y106500D02*X184760D01*
X185360Y107100D02*X184760Y106500D01*
X182960Y108900D02*X184760D01*
X179360Y106500D02*Y111300D01*
X176360Y106500D02*Y111300D01*
Y108900D02*X179360D01*
X172520D02*X174920D01*
Y106500D02*X172520Y108900D01*
Y106500D02*X174920D01*
X255000Y65700D02*X254400Y66300D01*
X252600D02*X254400D01*
X252600D02*X252000Y65700D01*
Y64500D02*Y65700D01*
X255000Y61500D02*X252000Y64500D01*
Y61500D02*X255000D01*
X248760Y66300D02*X248160Y65700D01*
X248760Y66300D02*X249960D01*
X250560Y65700D02*X249960Y66300D01*
X250560Y62100D02*Y65700D01*
Y62100D02*X249960Y61500D01*
X248760Y63900D02*X248160Y63300D01*
X248760Y63900D02*X250560D01*
X248760Y61500D02*X249960D01*
X248760D02*X248160Y62100D01*
Y63300D01*
X246120Y61500D02*X246720D01*
X244680Y62100D02*X244080Y61500D01*
X244680Y62100D02*Y65700D01*
X244080Y66300D01*
X242880D02*X244080D01*
X242880D02*X242280Y65700D01*
Y62100D02*Y65700D01*
X242880Y61500D02*X242280Y62100D01*
X242880Y61500D02*X244080D01*
X244680Y62700D02*X242280Y65100D01*
X240840Y62100D02*X240240Y61500D01*
X240840Y62100D02*Y65700D01*
X240240Y66300D01*
X239040D02*X240240D01*
X239040D02*X238440Y65700D01*
Y62100D02*Y65700D01*
X239040Y61500D02*X238440Y62100D01*
X239040Y61500D02*X240240D01*
X240840Y62700D02*X238440Y65100D01*
X235200Y66300D02*X234600Y65700D01*
X235200Y66300D02*X236400D01*
X237000Y65700D02*X236400Y66300D01*
X237000Y62100D02*Y65700D01*
Y62100D02*X236400Y61500D01*
X235200Y63900D02*X234600Y63300D01*
X235200Y63900D02*X237000D01*
X235200Y61500D02*X236400D01*
X235200D02*X234600Y62100D01*
Y63300D01*
X232560Y61500D02*X233160D01*
X231120Y62100D02*X230520Y61500D01*
X231120Y62100D02*Y65700D01*
X230520Y66300D01*
X229320D02*X230520D01*
X229320D02*X228720Y65700D01*
Y62100D02*Y65700D01*
X229320Y61500D02*X228720Y62100D01*
X229320Y61500D02*X230520D01*
X231120Y62700D02*X228720Y65100D01*
X227280Y65700D02*X226680Y66300D01*
X224880D02*X226680D01*
X224880D02*X224280Y65700D01*
Y64500D02*Y65700D01*
X227280Y61500D02*X224280Y64500D01*
Y61500D02*X227280D01*
X222240D02*X222840D01*
X220800Y62100D02*X220200Y61500D01*
X220800Y62100D02*Y65700D01*
X220200Y66300D01*
X219000D02*X220200D01*
X219000D02*X218400Y65700D01*
Y62100D02*Y65700D01*
X219000Y61500D02*X218400Y62100D01*
X219000Y61500D02*X220200D01*
X220800Y62700D02*X218400Y65100D01*
X215160Y61500D02*X216360D01*
X215760D02*Y66300D01*
X216960Y65100D02*X215760Y66300D01*
X213120Y61500D02*X213720D01*
X211680Y62100D02*X211080Y61500D01*
X211680Y62100D02*Y65700D01*
X211080Y66300D01*
X209880D02*X211080D01*
X209880D02*X209280Y65700D01*
Y62100D02*Y65700D01*
X209880Y61500D02*X209280Y62100D01*
X209880Y61500D02*X211080D01*
X211680Y62700D02*X209280Y65100D01*
X206040Y61500D02*X207240D01*
X206640D02*Y66300D01*
X207840Y65100D02*X206640Y66300D01*
X253000Y52500D02*X254500D01*
X255000Y53000D02*X254500Y52500D01*
X255000Y53000D02*Y56000D01*
X254500Y56500D01*
X253000D02*X254500D01*
X251800Y53000D02*Y54000D01*
X251300Y54500D01*
X250300D02*X251300D01*
X250300D02*X249800Y54000D01*
Y53000D02*Y54000D01*
X250300Y52500D02*X249800Y53000D01*
X250300Y52500D02*X251300D01*
X251800Y53000D02*X251300Y52500D01*
X248100Y51000D02*Y54000D01*
X248600Y54500D02*X248100Y54000D01*
X247600Y54500D01*
X246600D02*X247600D01*
X246600D02*X246100Y54000D01*
Y53000D02*Y54000D01*
X246600Y52500D02*X246100Y53000D01*
X246600Y52500D02*X247600D01*
X248100Y53000D02*X247600Y52500D01*
X244900Y53000D02*Y54500D01*
Y53000D02*X244400Y52500D01*
X242900Y51500D02*Y54500D01*
X243400Y51000D02*X242900Y51500D01*
X243400Y51000D02*X244400D01*
X244900Y51500D02*X244400Y51000D01*
X243400Y52500D02*X244400D01*
X243400D02*X242900Y53000D01*
X241200Y52500D02*Y54000D01*
X240700Y54500D01*
X239700D02*X240700D01*
X241700D02*X241200Y54000D01*
X238500Y55000D02*Y55500D01*
Y52500D02*Y54000D01*
X236000Y54500D02*X235500Y54000D01*
X236000Y54500D02*X237000D01*
X237500Y54000D02*X237000Y54500D01*
X237500Y53000D02*Y54000D01*
Y53000D02*X237000Y52500D01*
X236000D02*X237000D01*
X236000D02*X235500Y53000D01*
X237500Y51500D02*X237000Y51000D01*
X236000D02*X237000D01*
X236000D02*X235500Y51500D01*
Y54500D01*
X234300Y52500D02*Y56500D01*
Y54000D02*X233800Y54500D01*
X232800D02*X233800D01*
X232800D02*X232300Y54000D01*
Y52500D02*Y54000D01*
X230600Y53000D02*Y56500D01*
Y53000D02*X230100Y52500D01*
Y55000D02*X231100D01*
X227300Y53000D02*X226800Y52500D01*
X227300Y56000D02*X226800Y56500D01*
X227300Y53000D02*Y56000D01*
X223600Y52500D02*X225100D01*
X225600Y53000D02*X225100Y52500D01*
X225600Y53000D02*Y56000D01*
X225100Y56500D01*
X223600D02*X225100D01*
X222400D02*X221900Y56000D01*
Y53000D02*Y56000D01*
X222400Y52500D02*X221900Y53000D01*
X218900Y56000D02*X218400Y56500D01*
X216900D02*X218400D01*
X216900D02*X216400Y56000D01*
Y55000D02*Y56000D01*
X218900Y52500D02*X216400Y55000D01*
Y52500D02*X218900D01*
X215200Y53000D02*X214700Y52500D01*
X215200Y53000D02*Y56000D01*
X214700Y56500D01*
X213700D02*X214700D01*
X213700D02*X213200Y56000D01*
Y53000D02*Y56000D01*
X213700Y52500D02*X213200Y53000D01*
X213700Y52500D02*X214700D01*
X215200Y53500D02*X213200Y55500D01*
X210500Y52500D02*X211500D01*
X211000D02*Y56500D01*
X212000Y55500D02*X211000Y56500D01*
X209300Y53000D02*X208800Y52500D01*
X209300Y53000D02*Y54000D01*
X208800Y54500D01*
X207800D02*X208800D01*
X207800D02*X207300Y54000D01*
Y53000D02*Y54000D01*
X207800Y52500D02*X207300Y53000D01*
X207800Y52500D02*X208800D01*
X209300Y55000D02*X208800Y54500D01*
X209300Y55000D02*Y56000D01*
X208800Y56500D01*
X207800D02*X208800D01*
X207800D02*X207300Y56000D01*
Y55000D02*Y56000D01*
X207800Y54500D02*X207300Y55000D01*
X202300Y52500D02*X204300D01*
X202300D02*X201800Y53000D01*
Y54000D01*
X202300Y54500D02*X201800Y54000D01*
X202300Y54500D02*X203800D01*
Y52500D02*Y56500D01*
X202300D02*X204300D01*
X202300D02*X201800Y56000D01*
Y55000D02*Y56000D01*
X202300Y54500D02*X201800Y55000D01*
X198600Y52500D02*X200100D01*
X200600Y53000D02*X200100Y52500D01*
X200600Y53000D02*Y54000D01*
X200100Y54500D01*
X199100D02*X200100D01*
X199100D02*X198600Y54000D01*
Y53500D02*X200600D01*
X198600D02*Y54000D01*
X196900Y52500D02*Y54000D01*
X196400Y54500D01*
X195400D02*X196400D01*
X197400D02*X196900Y54000D01*
X193700Y53000D02*Y56500D01*
Y53000D02*X193200Y52500D01*
Y55000D02*X194200D01*
X188400Y56500D02*X190400D01*
X189400Y52500D02*Y56500D01*
X187200Y55000D02*Y55500D01*
Y52500D02*Y54000D01*
X185700Y52500D02*Y54000D01*
X185200Y54500D01*
X184700D02*X185200D01*
X184700D02*X184200Y54000D01*
Y52500D02*Y54000D01*
X183700Y54500D01*
X183200D02*X183700D01*
X183200D02*X182700Y54000D01*
Y52500D02*Y54000D01*
X186200Y54500D02*X185700Y54000D01*
X181000Y52500D02*Y54000D01*
X180500Y54500D01*
X180000D02*X180500D01*
X180000D02*X179500Y54000D01*
Y52500D02*Y54000D01*
X179000Y54500D01*
X178500D02*X179000D01*
X178500D02*X178000Y54000D01*
Y52500D02*Y54000D01*
X181500Y54500D02*X181000Y54000D01*
X174800Y52500D02*X176300D01*
X176800Y53000D02*X176300Y52500D01*
X176800Y53000D02*Y54000D01*
X176300Y54500D01*
X175300D02*X176300D01*
X175300D02*X174800Y54000D01*
Y53500D02*X176800D01*
X174800D02*Y54000D01*
X173100Y52500D02*Y54000D01*
X172600Y54500D01*
X171600D02*X172600D01*
X173600D02*X173100Y54000D01*
X169900Y52500D02*Y54000D01*
X169400Y54500D01*
X168900D02*X169400D01*
X168900D02*X168400Y54000D01*
Y52500D02*Y54000D01*
X167900Y54500D01*
X167400D02*X167900D01*
X167400D02*X166900Y54000D01*
Y52500D02*Y54000D01*
X170400Y54500D02*X169900Y54000D01*
X164200Y54500D02*X163700Y54000D01*
X164200Y54500D02*X165200D01*
X165700Y54000D02*X165200Y54500D01*
X165700Y53000D02*Y54000D01*
Y53000D02*X165200Y52500D01*
X163700Y53000D02*Y54500D01*
Y53000D02*X163200Y52500D01*
X164200D02*X165200D01*
X164200D02*X163700Y53000D01*
X161500Y52500D02*Y54000D01*
X161000Y54500D01*
X160500D02*X161000D01*
X160500D02*X160000Y54000D01*
Y52500D02*Y54000D01*
X162000Y54500D02*X161500Y54000D01*
G54D42*X108207Y36774D02*X116793D01*
X108207Y18226D02*X116793D01*
X108207Y36774D02*Y18226D01*
X116793Y36774D02*Y18226D01*
G54D41*X108957Y29468D02*Y25532D01*
X116043Y29468D02*Y25532D01*
X130000Y17500D02*G75*G03X130000Y17500I5000J0D01*G01*
X97500Y107500D02*G75*G03X97500Y107500I5000J0D01*G01*
G54D42*X188207Y83226D02*X196793D01*
X188207Y101774D02*X196793D01*
Y83226D01*
X188207Y101774D02*Y83226D01*
G54D41*X196043Y94468D02*Y90532D01*
X188957Y94468D02*Y90532D01*
G54D42*X150707Y83226D02*X159293D01*
X150707Y101774D02*X159293D01*
Y83226D01*
X150707Y101774D02*Y83226D01*
G54D41*X158543Y94468D02*Y90532D01*
X151457Y94468D02*Y90532D01*
G54D42*X198207Y18226D02*X206793D01*
X198207Y36774D02*X206793D01*
Y18226D01*
X198207Y36774D02*Y18226D01*
G54D41*X206043Y29468D02*Y25532D01*
X198957Y29468D02*Y25532D01*
G54D42*X238207Y36774D02*X246793D01*
X238207Y18226D02*X246793D01*
X238207Y36774D02*Y18226D01*
X246793Y36774D02*Y18226D01*
G54D41*X238957Y29468D02*Y25532D01*
X246043Y29468D02*Y25532D01*
G54D42*X160707Y36774D02*X169293D01*
X160707Y18226D02*X169293D01*
X160707Y36774D02*Y18226D01*
X169293Y36774D02*Y18226D01*
G54D41*X161457Y29468D02*Y25532D01*
X168543Y29468D02*Y25532D01*
X227500Y107500D02*G75*G03X227500Y107500I5000J0D01*G01*
G54D42*X228207Y83226D02*X236793D01*
X228207Y101774D02*X236793D01*
Y83226D01*
X228207Y101774D02*Y83226D01*
G54D41*X236043Y94468D02*Y90532D01*
X228957Y94468D02*Y90532D01*
G54D42*X98207Y83226D02*X106793D01*
X98207Y101774D02*X106793D01*
Y83226D01*
X98207Y101774D02*Y83226D01*
G54D41*X106043Y94468D02*Y90532D01*
X98957Y94468D02*Y90532D01*
G54D42*X58207Y83226D02*X66793D01*
X58207Y101774D02*X66793D01*
Y83226D01*
X58207Y101774D02*Y83226D01*
G54D41*X66043Y94468D02*Y90532D01*
X58957Y94468D02*Y90532D01*
G54D42*X20707Y83226D02*X29293D01*
X20707Y101774D02*X29293D01*
Y83226D01*
X20707Y101774D02*Y83226D01*
G54D41*X28543Y94468D02*Y90532D01*
X21457Y94468D02*Y90532D01*
G54D42*X30707Y36774D02*X39293D01*
X30707Y18226D02*X39293D01*
X30707Y36774D02*Y18226D01*
X39293Y36774D02*Y18226D01*
G54D41*X31457Y29468D02*Y25532D01*
X38543Y29468D02*Y25532D01*
G54D42*X68207Y18226D02*X76793D01*
X68207Y36774D02*X76793D01*
Y18226D01*
X68207Y36774D02*Y18226D01*
G54D41*X76043Y29468D02*Y25532D01*
X68957Y29468D02*Y25532D01*
X92000Y86500D02*Y88000D01*
X92500Y86000D02*X92000Y86500D01*
X92500Y86000D02*X95500D01*
X96000Y86500D01*
Y88000D01*
Y90700D02*X95500Y91200D01*
X96000Y89700D02*Y90700D01*
X95500Y89200D02*X96000Y89700D01*
X92500Y89200D02*X95500D01*
X92500D02*X92000Y89700D01*
X94000Y90700D02*X93500Y91200D01*
X94000Y89200D02*Y90700D01*
X92000Y89700D02*Y90700D01*
X92500Y91200D01*
X93500D01*
X92500Y92400D02*X92000Y92900D01*
X92500Y92400D02*X95500D01*
X96000Y92900D01*
Y93900D01*
X95500Y94400D01*
X92500D02*X95500D01*
X92000Y93900D02*X92500Y94400D01*
X92000Y92900D02*Y93900D01*
X93000Y92400D02*X95000Y94400D01*
X92000Y95600D02*X94000Y97600D01*
X95500D01*
X96000Y97100D02*X95500Y97600D01*
X96000Y96100D02*Y97100D01*
X95500Y95600D02*X96000Y96100D01*
X94500Y95600D02*X95500D01*
X94500D02*X94000Y96100D01*
Y97600D01*
X102000Y21500D02*Y23000D01*
X102500Y21000D02*X102000Y21500D01*
X102500Y21000D02*X105500D01*
X106000Y21500D01*
Y23000D01*
Y25700D02*X105500Y26200D01*
X106000Y24700D02*Y25700D01*
X105500Y24200D02*X106000Y24700D01*
X102500Y24200D02*X105500D01*
X102500D02*X102000Y24700D01*
X104000Y25700D02*X103500Y26200D01*
X104000Y24200D02*Y25700D01*
X102000Y24700D02*Y25700D01*
X102500Y26200D01*
X103500D01*
X102500Y27400D02*X102000Y27900D01*
X102500Y27400D02*X105500D01*
X106000Y27900D01*
Y28900D01*
X105500Y29400D01*
X102500D02*X105500D01*
X102000Y28900D02*X102500Y29400D01*
X102000Y27900D02*Y28900D01*
X103000Y27400D02*X105000Y29400D01*
X102500Y30600D02*X102000Y31100D01*
X102500Y30600D02*X103500D01*
X104000Y31100D01*
Y32100D01*
X103500Y32600D01*
X102500D02*X103500D01*
X102000Y32100D02*X102500Y32600D01*
X102000Y31100D02*Y32100D01*
X104500Y30600D02*X104000Y31100D01*
X104500Y30600D02*X105500D01*
X106000Y31100D01*
Y32100D01*
X105500Y32600D01*
X104500D02*X105500D01*
X104000Y32100D02*X104500Y32600D01*
X124000Y111000D02*X126000D01*
X125000Y107000D02*Y111000D01*
X122300Y107000D02*Y111000D01*
X120800D02*X122800D01*
X120800D02*X120300Y110500D01*
Y109500D02*Y110500D01*
X120800Y109000D02*X120300Y109500D01*
X120800Y109000D02*X122300D01*
X117600Y111000D02*X117100Y110500D01*
X117600Y111000D02*X118600D01*
X119100Y110500D02*X118600Y111000D01*
X119100Y107500D02*Y110500D01*
Y107500D02*X118600Y107000D01*
X117600Y109000D02*X117100Y108500D01*
X117600Y109000D02*X119100D01*
X117600Y107000D02*X118600D01*
X117600D02*X117100Y107500D01*
Y108500D01*
X113900Y111000D02*X115900D01*
Y109000D02*Y111000D01*
Y109000D02*X115400Y109500D01*
X114400D02*X115400D01*
X114400D02*X113900Y109000D01*
Y107500D02*Y109000D01*
X114400Y107000D02*X113900Y107500D01*
X114400Y107000D02*X115400D01*
X115900Y107500D02*X115400Y107000D01*
X111200D02*X112200D01*
X111700D02*Y111000D01*
X112700Y110000D02*X111700Y111000D01*
X232500Y21500D02*Y23000D01*
X233000Y21000D02*X232500Y21500D01*
X233000Y21000D02*X236000D01*
X236500Y21500D01*
Y23000D01*
Y25700D02*X236000Y26200D01*
X236500Y24700D02*Y25700D01*
X236000Y24200D02*X236500Y24700D01*
X233000Y24200D02*X236000D01*
X233000D02*X232500Y24700D01*
X234500Y25700D02*X234000Y26200D01*
X234500Y24200D02*Y25700D01*
X232500Y24700D02*Y25700D01*
X233000Y26200D01*
X234000D01*
X236500Y27400D02*Y29400D01*
X234500Y27400D02*X236500D01*
X234500D02*X235000Y27900D01*
Y28900D01*
X234500Y29400D01*
X233000D02*X234500D01*
X232500Y28900D02*X233000Y29400D01*
X232500Y27900D02*Y28900D01*
X233000Y27400D02*X232500Y27900D01*
X233000Y30600D02*X232500Y31100D01*
X233000Y30600D02*X234000D01*
X234500Y31100D01*
Y32100D01*
X234000Y32600D01*
X233000D02*X234000D01*
X232500Y32100D02*X233000Y32600D01*
X232500Y31100D02*Y32100D01*
X235000Y30600D02*X234500Y31100D01*
X235000Y30600D02*X236000D01*
X236500Y31100D01*
Y32100D01*
X236000Y32600D01*
X235000D02*X236000D01*
X234500Y32100D02*X235000Y32600D01*
X253000Y111000D02*X255000D01*
X254000Y107000D02*Y111000D01*
X251300Y107000D02*Y111000D01*
X249800D02*X251800D01*
X249800D02*X249300Y110500D01*
Y109500D02*Y110500D01*
X249800Y109000D02*X249300Y109500D01*
X249800Y109000D02*X251300D01*
X246600Y111000D02*X246100Y110500D01*
X246600Y111000D02*X247600D01*
X248100Y110500D02*X247600Y111000D01*
X248100Y107500D02*Y110500D01*
Y107500D02*X247600Y107000D01*
X246600Y109000D02*X246100Y108500D01*
X246600Y109000D02*X248100D01*
X246600Y107000D02*X247600D01*
X246600D02*X246100Y107500D01*
Y108500D01*
X244900Y107500D02*X244400Y107000D01*
X244900Y107500D02*Y110500D01*
X244400Y111000D01*
X243400D02*X244400D01*
X243400D02*X242900Y110500D01*
Y107500D02*Y110500D01*
X243400Y107000D02*X242900Y107500D01*
X243400Y107000D02*X244400D01*
X244900Y108000D02*X242900Y110000D01*
X240200Y107000D02*X241200D01*
X240700D02*Y111000D01*
X241700Y110000D02*X240700Y111000D01*
X222000Y87500D02*Y89000D01*
X222500Y87000D02*X222000Y87500D01*
X222500Y87000D02*X225500D01*
X226000Y87500D01*
Y89000D01*
Y91700D02*X225500Y92200D01*
X226000Y90700D02*Y91700D01*
X225500Y90200D02*X226000Y90700D01*
X222500Y90200D02*X225500D01*
X222500D02*X222000Y90700D01*
X224000Y91700D02*X223500Y92200D01*
X224000Y90200D02*Y91700D01*
X222000Y90700D02*Y91700D01*
X222500Y92200D01*
X223500D01*
X226000Y93400D02*Y95400D01*
X224000Y93400D02*X226000D01*
X224000D02*X224500Y93900D01*
Y94900D01*
X224000Y95400D01*
X222500D02*X224000D01*
X222000Y94900D02*X222500Y95400D01*
X222000Y93900D02*Y94900D01*
X222500Y93400D02*X222000Y93900D01*
Y96600D02*X224000Y98600D01*
X225500D01*
X226000Y98100D02*X225500Y98600D01*
X226000Y97100D02*Y98100D01*
X225500Y96600D02*X226000Y97100D01*
X224500Y96600D02*X225500D01*
X224500D02*X224000Y97100D01*
Y98600D01*
X145000Y87500D02*Y89000D01*
X145500Y87000D02*X145000Y87500D01*
X145500Y87000D02*X148500D01*
X149000Y87500D01*
Y89000D01*
Y91700D02*X148500Y92200D01*
X149000Y90700D02*Y91700D01*
X148500Y90200D02*X149000Y90700D01*
X145500Y90200D02*X148500D01*
X145500D02*X145000Y90700D01*
X147000Y91700D02*X146500Y92200D01*
X147000Y90200D02*Y91700D01*
X145000Y90700D02*Y91700D01*
X145500Y92200D01*
X146500D01*
X149000Y93400D02*Y95400D01*
X147000Y93400D02*X149000D01*
X147000D02*X147500Y93900D01*
Y94900D01*
X147000Y95400D01*
X145500D02*X147000D01*
X145000Y94900D02*X145500Y95400D01*
X145000Y93900D02*Y94900D01*
X145500Y93400D02*X145000Y93900D01*
X149000Y96600D02*Y98600D01*
X147000Y96600D02*X149000D01*
X147000D02*X147500Y97100D01*
Y98100D01*
X147000Y98600D01*
X145500D02*X147000D01*
X145000Y98100D02*X145500Y98600D01*
X145000Y97100D02*Y98100D01*
X145500Y96600D02*X145000Y97100D01*
X192000Y21500D02*Y23000D01*
X192500Y21000D02*X192000Y21500D01*
X192500Y21000D02*X195500D01*
X196000Y21500D01*
Y23000D01*
Y25700D02*X195500Y26200D01*
X196000Y24700D02*Y25700D01*
X195500Y24200D02*X196000Y24700D01*
X192500Y24200D02*X195500D01*
X192500D02*X192000Y24700D01*
X194000Y25700D02*X193500Y26200D01*
X194000Y24200D02*Y25700D01*
X192000Y24700D02*Y25700D01*
X192500Y26200D01*
X193500D01*
X196000Y27400D02*Y29400D01*
X194000Y27400D02*X196000D01*
X194000D02*X194500Y27900D01*
Y28900D01*
X194000Y29400D01*
X192500D02*X194000D01*
X192000Y28900D02*X192500Y29400D01*
X192000Y27900D02*Y28900D01*
X192500Y27400D02*X192000Y27900D01*
X196000Y32100D02*X195500Y32600D01*
X196000Y31100D02*Y32100D01*
X195500Y30600D02*X196000Y31100D01*
X192500Y30600D02*X195500D01*
X192500D02*X192000Y31100D01*
X194000Y32100D02*X193500Y32600D01*
X194000Y30600D02*Y32100D01*
X192000Y31100D02*Y32100D01*
X192500Y32600D01*
X193500D01*
X155000Y21500D02*Y23000D01*
X155500Y21000D02*X155000Y21500D01*
X155500Y21000D02*X158500D01*
X159000Y21500D01*
Y23000D01*
Y25700D02*X158500Y26200D01*
X159000Y24700D02*Y25700D01*
X158500Y24200D02*X159000Y24700D01*
X155500Y24200D02*X158500D01*
X155500D02*X155000Y24700D01*
X157000Y25700D02*X156500Y26200D01*
X157000Y24200D02*Y25700D01*
X155000Y24700D02*Y25700D01*
X155500Y26200D01*
X156500D01*
X159000Y27400D02*Y29400D01*
X157000Y27400D02*X159000D01*
X157000D02*X157500Y27900D01*
Y28900D01*
X157000Y29400D01*
X155500D02*X157000D01*
X155000Y28900D02*X155500Y29400D01*
X155000Y27900D02*Y28900D01*
X155500Y27400D02*X155000Y27900D01*
X157000Y30600D02*X159000Y32600D01*
X157000Y30600D02*Y33100D01*
X155000Y32600D02*X159000D01*
X182000Y87500D02*Y89000D01*
X182500Y87000D02*X182000Y87500D01*
X182500Y87000D02*X185500D01*
X186000Y87500D01*
Y89000D01*
Y91700D02*X185500Y92200D01*
X186000Y90700D02*Y91700D01*
X185500Y90200D02*X186000Y90700D01*
X182500Y90200D02*X185500D01*
X182500D02*X182000Y90700D01*
X184000Y91700D02*X183500Y92200D01*
X184000Y90200D02*Y91700D01*
X182000Y90700D02*Y91700D01*
X182500Y92200D01*
X183500D01*
X186000Y93400D02*Y95400D01*
X184000Y93400D02*X186000D01*
X184000D02*X184500Y93900D01*
Y94900D01*
X184000Y95400D01*
X182500D02*X184000D01*
X182000Y94900D02*X182500Y95400D01*
X182000Y93900D02*Y94900D01*
X182500Y93400D02*X182000Y93900D01*
Y96600D02*X184500Y99100D01*
X186000D01*
Y96600D02*Y99100D01*
X157000Y18000D02*X159000D01*
X158000Y14000D02*Y18000D01*
X155300Y14000D02*Y18000D01*
X153800D02*X155800D01*
X153800D02*X153300Y17500D01*
Y16500D02*Y17500D01*
X153800Y16000D02*X153300Y16500D01*
X153800Y16000D02*X155300D01*
X150600Y18000D02*X150100Y17500D01*
X150600Y18000D02*X151600D01*
X152100Y17500D02*X151600Y18000D01*
X152100Y14500D02*Y17500D01*
Y14500D02*X151600Y14000D01*
X150600Y16000D02*X150100Y15500D01*
X150600Y16000D02*X152100D01*
X150600Y14000D02*X151600D01*
X150600D02*X150100Y14500D01*
Y15500D01*
X148900Y14500D02*X148400Y14000D01*
X148900Y14500D02*Y17500D01*
X148400Y18000D01*
X147400D02*X148400D01*
X147400D02*X146900Y17500D01*
Y14500D02*Y17500D01*
X147400Y14000D02*X146900Y14500D01*
X147400Y14000D02*X148400D01*
X148900Y15000D02*X146900Y17000D01*
X145700Y17500D02*X145200Y18000D01*
X143700D02*X145200D01*
X143700D02*X143200Y17500D01*
Y16500D02*Y17500D01*
X145700Y14000D02*X143200Y16500D01*
Y14000D02*X145700D01*
X52000Y87500D02*Y89000D01*
X52500Y87000D02*X52000Y87500D01*
X52500Y87000D02*X55500D01*
X56000Y87500D01*
Y89000D01*
Y91700D02*X55500Y92200D01*
X56000Y90700D02*Y91700D01*
X55500Y90200D02*X56000Y90700D01*
X52500Y90200D02*X55500D01*
X52500D02*X52000Y90700D01*
X54000Y91700D02*X53500Y92200D01*
X54000Y90200D02*Y91700D01*
X52000Y90700D02*Y91700D01*
X52500Y92200D01*
X53500D01*
X52500Y93400D02*X52000Y93900D01*
X52500Y93400D02*X55500D01*
X56000Y93900D01*
Y94900D01*
X55500Y95400D01*
X52500D02*X55500D01*
X52000Y94900D02*X52500Y95400D01*
X52000Y93900D02*Y94900D01*
X53000Y93400D02*X55000Y95400D01*
X52000Y96600D02*X54500Y99100D01*
X56000D01*
Y96600D02*Y99100D01*
X15000Y87500D02*Y89000D01*
X15500Y87000D02*X15000Y87500D01*
X15500Y87000D02*X18500D01*
X19000Y87500D01*
Y89000D01*
Y91700D02*X18500Y92200D01*
X19000Y90700D02*Y91700D01*
X18500Y90200D02*X19000Y90700D01*
X15500Y90200D02*X18500D01*
X15500D02*X15000Y90700D01*
X17000Y91700D02*X16500Y92200D01*
X17000Y90200D02*Y91700D01*
X15000Y90700D02*Y91700D01*
X15500Y92200D01*
X16500D01*
X15500Y93400D02*X15000Y93900D01*
X15500Y93400D02*X18500D01*
X19000Y93900D01*
Y94900D01*
X18500Y95400D01*
X15500D02*X18500D01*
X15000Y94900D02*X15500Y95400D01*
X15000Y93900D02*Y94900D01*
X16000Y93400D02*X18000Y95400D01*
X19000Y96600D02*Y98600D01*
X17000Y96600D02*X19000D01*
X17000D02*X17500Y97100D01*
Y98100D01*
X17000Y98600D01*
X15500D02*X17000D01*
X15000Y98100D02*X15500Y98600D01*
X15000Y97100D02*Y98100D01*
X15500Y96600D02*X15000Y97100D01*
X62000Y21500D02*Y23000D01*
X62500Y21000D02*X62000Y21500D01*
X62500Y21000D02*X65500D01*
X66000Y21500D01*
Y23000D01*
Y25700D02*X65500Y26200D01*
X66000Y24700D02*Y25700D01*
X65500Y24200D02*X66000Y24700D01*
X62500Y24200D02*X65500D01*
X62500D02*X62000Y24700D01*
X64000Y25700D02*X63500Y26200D01*
X64000Y24200D02*Y25700D01*
X62000Y24700D02*Y25700D01*
X62500Y26200D01*
X63500D01*
X62500Y27400D02*X62000Y27900D01*
X62500Y27400D02*X65500D01*
X66000Y27900D01*
Y28900D01*
X65500Y29400D01*
X62500D02*X65500D01*
X62000Y28900D02*X62500Y29400D01*
X62000Y27900D02*Y28900D01*
X63000Y27400D02*X65000Y29400D01*
X66000Y32100D02*X65500Y32600D01*
X66000Y31100D02*Y32100D01*
X65500Y30600D02*X66000Y31100D01*
X62500Y30600D02*X65500D01*
X62500D02*X62000Y31100D01*
X64000Y32100D02*X63500Y32600D01*
X64000Y30600D02*Y32100D01*
X62000Y31100D02*Y32100D01*
X62500Y32600D01*
X63500D01*
X25000Y21500D02*Y23000D01*
X25500Y21000D02*X25000Y21500D01*
X25500Y21000D02*X28500D01*
X29000Y21500D01*
Y23000D01*
Y25700D02*X28500Y26200D01*
X29000Y24700D02*Y25700D01*
X28500Y24200D02*X29000Y24700D01*
X25500Y24200D02*X28500D01*
X25500D02*X25000Y24700D01*
X27000Y25700D02*X26500Y26200D01*
X27000Y24200D02*Y25700D01*
X25000Y24700D02*Y25700D01*
X25500Y26200D01*
X26500D01*
X25500Y27400D02*X25000Y27900D01*
X25500Y27400D02*X28500D01*
X29000Y27900D01*
Y28900D01*
X28500Y29400D01*
X25500D02*X28500D01*
X25000Y28900D02*X25500Y29400D01*
X25000Y27900D02*Y28900D01*
X26000Y27400D02*X28000Y29400D01*
X27000Y30600D02*X29000Y32600D01*
X27000Y30600D02*Y33100D01*
X25000Y32600D02*X29000D01*
M02*
