G04 start of page 11 for group -3984 idx -3984 *
G04 Title: 26.003.00.01.01.pcb, fab *
G04 Creator: pcb 4.1.2 *
G04 CreationDate: Fri Aug 10 20:06:22 2018 UTC *
G04 For: bert *
G04 Format: Gerber/RS-274X *
G04 PCB-Dimensions (mil): 6896.06 4633.86 *
G04 PCB-Coordinate-Origin: lower left *
%MOIN*%
%FSLAX25Y25*%
%LNFAB*%
%ADD103C,0.0100*%
%ADD102C,0.0060*%
%ADD101C,0.0080*%
G54D101*X323400Y424986D02*X326600D01*
X323400D02*Y421786D01*
X326600D01*
Y424986D02*Y421786D01*
X321800Y426586D02*X328200D01*
X321800D02*Y420186D01*
X328200D01*
Y426586D02*Y420186D01*
X325000Y88386D02*Y83586D01*
Y88386D02*X329160Y90786D01*
X325000Y88386D02*X320840Y90786D01*
X323400Y88386D02*G75*G03X326600Y88386I1600J0D01*G01*
G75*G03X323400Y88386I-1600J0D01*G01*
X321800D02*G75*G03X328200Y88386I3200J0D01*G01*
G75*G03X321800Y88386I-3200J0D01*G01*
X28400Y424986D02*X31600D01*
X28400D02*Y421786D01*
X31600D01*
Y424986D02*Y421786D01*
X26800Y426586D02*X33200D01*
X26800D02*Y420186D01*
X33200D01*
Y426586D02*Y420186D01*
X28400Y89986D02*X31600D01*
X28400D02*Y86786D01*
X31600D01*
Y89986D02*Y86786D01*
X26800Y91586D02*X33200D01*
X26800D02*Y85186D01*
X33200D01*
Y91586D02*Y85186D01*
X15000Y474636D02*Y469836D01*
Y474636D02*X19160Y477036D01*
X15000Y474636D02*X10840Y477036D01*
X13400Y474636D02*G75*G03X16600Y474636I1600J0D01*G01*
G75*G03X13400Y474636I-1600J0D01*G01*
X11800D02*G75*G03X18200Y474636I3200J0D01*G01*
G75*G03X11800Y474636I-3200J0D01*G01*
G54D102*X135000Y478386D02*Y477636D01*
X136500Y476136D01*
X138000Y477636D01*
Y478386D02*Y477636D01*
X136500Y476136D02*Y472386D01*
X139800Y475386D02*X142050D01*
X139800Y472386D02*X142800D01*
X139800Y478386D02*Y472386D01*
Y478386D02*X142800D01*
X147600D02*X148350Y477636D01*
X145350Y478386D02*X147600D01*
X144600Y477636D02*X145350Y478386D01*
X144600Y477636D02*Y476136D01*
X145350Y475386D01*
X147600D01*
X148350Y474636D01*
Y473136D01*
X147600Y472386D02*X148350Y473136D01*
X145350Y472386D02*X147600D01*
X144600Y473136D02*X145350Y472386D01*
X98750D02*X100250D01*
X99500Y478386D02*Y472386D01*
X98000Y476886D02*X99500Y478386D01*
X13400Y491236D02*X16600D01*
X13400D02*Y488036D01*
X16600D01*
Y491236D02*Y488036D01*
X11800Y492836D02*X18200D01*
X11800D02*Y486436D01*
X18200D01*
Y492836D02*Y486436D01*
X140000Y493386D02*Y487386D01*
Y493386D02*Y492636D01*
X143750Y488886D01*
Y493386D02*Y487386D01*
X145550Y492636D02*Y488136D01*
Y492636D02*X146300Y493386D01*
X147800D01*
X148550Y492636D01*
Y488136D01*
X147800Y487386D02*X148550Y488136D01*
X146300Y487386D02*X147800D01*
X145550Y488136D02*X146300Y487386D01*
X98000Y492636D02*X98750Y493386D01*
X100250D01*
X101000Y492636D01*
Y488136D01*
X100250Y487386D02*X101000Y488136D01*
X98750Y487386D02*X100250D01*
X98000Y488136D02*X98750Y487386D01*
Y490386D02*X101000D01*
X45000Y488136D02*X45750Y487386D01*
X45000Y492636D02*Y488136D01*
Y492636D02*X45750Y493386D01*
X47250D01*
X48000Y492636D01*
Y488136D01*
X47250Y487386D02*X48000Y488136D01*
X45750Y487386D02*X47250D01*
X45000Y488886D02*X48000Y491886D01*
X49800Y487386D02*X50550D01*
X53100D02*X54600D01*
X53850Y493386D02*Y487386D01*
X52350Y491886D02*X53850Y493386D01*
X56400Y490386D02*X59400Y493386D01*
X56400Y490386D02*X60150D01*
X59400Y493386D02*Y487386D01*
X64200Y493386D02*X64950Y492636D01*
X62700Y493386D02*X64200D01*
X61950Y492636D02*X62700Y493386D01*
X61950Y492636D02*Y488136D01*
X62700Y487386D01*
X64200Y490386D02*X64950Y489636D01*
X61950Y490386D02*X64200D01*
X62700Y487386D02*X64200D01*
X64950Y488136D01*
Y489636D02*Y488136D01*
X45000Y473136D02*X45750Y472386D01*
X45000Y477636D02*Y473136D01*
Y477636D02*X45750Y478386D01*
X47250D01*
X48000Y477636D01*
Y473136D01*
X47250Y472386D02*X48000Y473136D01*
X45750Y472386D02*X47250D01*
X45000Y473886D02*X48000Y476886D01*
X49800Y472386D02*X50550D01*
X53100D02*X54600D01*
X53850Y478386D02*Y472386D01*
X52350Y476886D02*X53850Y478386D01*
X56400Y475386D02*X59400Y478386D01*
X56400Y475386D02*X60150D01*
X59400Y478386D02*Y472386D01*
X64200Y478386D02*X64950Y477636D01*
X62700Y478386D02*X64200D01*
X61950Y477636D02*X62700Y478386D01*
X61950Y477636D02*Y473136D01*
X62700Y472386D01*
X64200Y475386D02*X64950Y474636D01*
X61950Y475386D02*X64200D01*
X62700Y472386D02*X64200D01*
X64950Y473136D01*
Y474636D02*Y473136D01*
X621403Y423859D02*G75*G03X623003Y423859I800J0D01*G01*
G75*G03X621403Y423859I-800J0D01*G01*
X619803D02*G75*G03X624603Y423859I2400J0D01*G01*
G75*G03X619803Y423859I-2400J0D01*G01*
X621403Y89213D02*G75*G03X623003Y89213I800J0D01*G01*
G75*G03X621403Y89213I-800J0D01*G01*
X619803D02*G75*G03X624603Y89213I2400J0D01*G01*
G75*G03X619803Y89213I-2400J0D01*G01*
X14200Y504636D02*G75*G03X15800Y504636I800J0D01*G01*
G75*G03X14200Y504636I-800J0D01*G01*
X12600D02*G75*G03X17400Y504636I2400J0D01*G01*
G75*G03X12600Y504636I-2400J0D01*G01*
X140000Y508386D02*Y502386D01*
Y508386D02*Y507636D01*
X143750Y503886D01*
Y508386D02*Y502386D01*
X145550Y507636D02*Y503136D01*
Y507636D02*X146300Y508386D01*
X147800D01*
X148550Y507636D01*
Y503136D01*
X147800Y502386D02*X148550Y503136D01*
X146300Y502386D02*X147800D01*
X145550Y503136D02*X146300Y502386D01*
X98000Y507636D02*X98750Y508386D01*
X101000D01*
X101750Y507636D01*
Y506136D01*
X98000Y502386D02*X101750Y506136D01*
X98000Y502386D02*X101750D01*
X45000Y503136D02*X45750Y502386D01*
X45000Y507636D02*Y503136D01*
Y507636D02*X45750Y508386D01*
X47250D01*
X48000Y507636D01*
Y503136D01*
X47250Y502386D02*X48000Y503136D01*
X45750Y502386D02*X47250D01*
X45000Y503886D02*X48000Y506886D01*
X49800Y502386D02*X50550D01*
X53100D02*X54600D01*
X53850Y508386D02*Y502386D01*
X52350Y506886D02*X53850Y508386D01*
X57150Y502386D02*X58650D01*
X57900Y508386D02*Y502386D01*
X56400Y506886D02*X57900Y508386D01*
X60450Y503136D02*X61200Y502386D01*
X60450Y507636D02*Y503136D01*
Y507636D02*X61200Y508386D01*
X62700D01*
X63450Y507636D01*
Y503136D01*
X62700Y502386D02*X63450Y503136D01*
X61200Y502386D02*X62700D01*
X60450Y503886D02*X63450Y506886D01*
X609960Y406574D02*X614760Y401774D01*
X609960D02*X614760Y406574D01*
X610760Y405774D02*X613960D01*
X610760D02*Y402574D01*
X613960D01*
Y405774D02*Y402574D01*
X600118Y396732D02*X604918Y391932D01*
X600118D02*X604918Y396732D01*
X600918Y395932D02*X604118D01*
X600918D02*Y392732D01*
X604118D01*
Y395932D02*Y392732D01*
X609960Y386889D02*X614760Y382089D01*
X609960D02*X614760Y386889D01*
X610760Y386089D02*X613960D01*
X610760D02*Y382889D01*
X613960D01*
Y386089D02*Y382889D01*
X600118Y377047D02*X604918Y372247D01*
X600118D02*X604918Y377047D01*
X600918Y376247D02*X604118D01*
X600918D02*Y373047D01*
X604118D01*
Y376247D02*Y373047D01*
X609960Y367204D02*X614760Y362404D01*
X609960D02*X614760Y367204D01*
X610760Y366404D02*X613960D01*
X610760D02*Y363204D01*
X613960D01*
Y366404D02*Y363204D01*
X600118Y357361D02*X604918Y352561D01*
X600118D02*X604918Y357361D01*
X600918Y356561D02*X604118D01*
X600918D02*Y353361D01*
X604118D01*
Y356561D02*Y353361D01*
X609960Y347519D02*X614760Y342719D01*
X609960D02*X614760Y347519D01*
X610760Y346719D02*X613960D01*
X610760D02*Y343519D01*
X613960D01*
Y346719D02*Y343519D01*
X600118Y337676D02*X604918Y332876D01*
X600118D02*X604918Y337676D01*
X600918Y336876D02*X604118D01*
X600918D02*Y333676D01*
X604118D01*
Y336876D02*Y333676D01*
X609960Y327834D02*X614760Y323034D01*
X609960D02*X614760Y327834D01*
X610760Y327034D02*X613960D01*
X610760D02*Y323834D01*
X613960D01*
Y327034D02*Y323834D01*
X600118Y317991D02*X604918Y313191D01*
X600118D02*X604918Y317991D01*
X600918Y317191D02*X604118D01*
X600918D02*Y313991D01*
X604118D01*
Y317191D02*Y313991D01*
X609960Y308149D02*X614760Y303349D01*
X609960D02*X614760Y308149D01*
X610760Y307349D02*X613960D01*
X610760D02*Y304149D01*
X613960D01*
Y307349D02*Y304149D01*
X600118Y298306D02*X604918Y293506D01*
X600118D02*X604918Y298306D01*
X600918Y297506D02*X604118D01*
X600918D02*Y294306D01*
X604118D01*
Y297506D02*Y294306D01*
X609960Y288464D02*X614760Y283664D01*
X609960D02*X614760Y288464D01*
X610760Y287664D02*X613960D01*
X610760D02*Y284464D01*
X613960D01*
Y287664D02*Y284464D01*
X600118Y278621D02*X604918Y273821D01*
X600118D02*X604918Y278621D01*
X600918Y277821D02*X604118D01*
X600918D02*Y274621D01*
X604118D01*
Y277821D02*Y274621D01*
X609960Y268779D02*X614760Y263979D01*
X609960D02*X614760Y268779D01*
X610760Y267979D02*X613960D01*
X610760D02*Y264779D01*
X613960D01*
Y267979D02*Y264779D01*
X600118Y258937D02*X604918Y254137D01*
X600118D02*X604918Y258937D01*
X600918Y258137D02*X604118D01*
X600918D02*Y254937D01*
X604118D01*
Y258137D02*Y254937D01*
X600118Y239252D02*X604918Y234452D01*
X600118D02*X604918Y239252D01*
X600918Y238452D02*X604118D01*
X600918D02*Y235252D01*
X604118D01*
Y238452D02*Y235252D01*
X609960Y249094D02*X614760Y244294D01*
X609960D02*X614760Y249094D01*
X610760Y248294D02*X613960D01*
X610760D02*Y245094D01*
X613960D01*
Y248294D02*Y245094D01*
X609960Y229409D02*X614760Y224609D01*
X609960D02*X614760Y229409D01*
X610760Y228609D02*X613960D01*
X610760D02*Y225409D01*
X613960D01*
Y228609D02*Y225409D01*
X600118Y219567D02*X604918Y214767D01*
X600118D02*X604918Y219567D01*
X600918Y218767D02*X604118D01*
X600918D02*Y215567D01*
X604118D01*
Y218767D02*Y215567D01*
X609960Y209724D02*X614760Y204924D01*
X609960D02*X614760Y209724D01*
X610760Y208924D02*X613960D01*
X610760D02*Y205724D01*
X613960D01*
Y208924D02*Y205724D01*
X600118Y199881D02*X604918Y195081D01*
X600118D02*X604918Y199881D01*
X600918Y199081D02*X604118D01*
X600918D02*Y195881D01*
X604118D01*
Y199081D02*Y195881D01*
X609960Y190039D02*X614760Y185239D01*
X609960D02*X614760Y190039D01*
X610760Y189239D02*X613960D01*
X610760D02*Y186039D01*
X613960D01*
Y189239D02*Y186039D01*
X600118Y180196D02*X604918Y175396D01*
X600118D02*X604918Y180196D01*
X600918Y179396D02*X604118D01*
X600918D02*Y176196D01*
X604118D01*
Y179396D02*Y176196D01*
X609960Y170354D02*X614760Y165554D01*
X609960D02*X614760Y170354D01*
X610760Y169554D02*X613960D01*
X610760D02*Y166354D01*
X613960D01*
Y169554D02*Y166354D01*
X600118Y160511D02*X604918Y155711D01*
X600118D02*X604918Y160511D01*
X600918Y159711D02*X604118D01*
X600918D02*Y156511D01*
X604118D01*
Y159711D02*Y156511D01*
X609960Y150669D02*X614760Y145869D01*
X609960D02*X614760Y150669D01*
X610760Y149869D02*X613960D01*
X610760D02*Y146669D01*
X613960D01*
Y149869D02*Y146669D01*
X600118Y140826D02*X604918Y136026D01*
X600118D02*X604918Y140826D01*
X600918Y140026D02*X604118D01*
X600918D02*Y136826D01*
X604118D01*
Y140026D02*Y136826D01*
X609960Y130984D02*X614760Y126184D01*
X609960D02*X614760Y130984D01*
X610760Y130184D02*X613960D01*
X610760D02*Y126984D01*
X613960D01*
Y130184D02*Y126984D01*
X600118Y121141D02*X604918Y116341D01*
X600118D02*X604918Y121141D01*
X600918Y120341D02*X604118D01*
X600918D02*Y117141D01*
X604118D01*
Y120341D02*Y117141D01*
X609960Y111299D02*X614760Y106499D01*
X609960D02*X614760Y111299D01*
X610760Y110499D02*X613960D01*
X610760D02*Y107299D01*
X613960D01*
Y110499D02*Y107299D01*
X412285Y430628D02*X417085Y425828D01*
X412285D02*X417085Y430628D01*
X413085Y429828D02*X416285D01*
X413085D02*Y426628D01*
X416285D01*
Y429828D02*Y426628D01*
X372915Y430628D02*X377715Y425828D01*
X372915D02*X377715Y430628D01*
X373715Y429828D02*X376915D01*
X373715D02*Y426628D01*
X376915D01*
Y429828D02*Y426628D01*
X392600Y410944D02*X397400Y406144D01*
X392600D02*X397400Y410944D01*
X393400Y410144D02*X396600D01*
X393400D02*Y406944D01*
X396600D01*
Y410144D02*Y406944D01*
X12600Y522036D02*X17400Y517236D01*
X12600D02*X17400Y522036D01*
X13400Y521236D02*X16600D01*
X13400D02*Y518036D01*
X16600D01*
Y521236D02*Y518036D01*
X135000Y523386D02*Y522636D01*
X136500Y521136D01*
X138000Y522636D01*
Y523386D02*Y522636D01*
X136500Y521136D02*Y517386D01*
X139800Y520386D02*X142050D01*
X139800Y517386D02*X142800D01*
X139800Y523386D02*Y517386D01*
Y523386D02*X142800D01*
X147600D02*X148350Y522636D01*
X145350Y523386D02*X147600D01*
X144600Y522636D02*X145350Y523386D01*
X144600Y522636D02*Y521136D01*
X145350Y520386D01*
X147600D01*
X148350Y519636D01*
Y518136D01*
X147600Y517386D02*X148350Y518136D01*
X145350Y517386D02*X147600D01*
X144600Y518136D02*X145350Y517386D01*
X98000Y522636D02*X98750Y523386D01*
X100250D01*
X101000Y522636D01*
Y518136D01*
X100250Y517386D02*X101000Y518136D01*
X98750Y517386D02*X100250D01*
X98000Y518136D02*X98750Y517386D01*
Y520386D02*X101000D01*
X102800D02*X105800Y523386D01*
X102800Y520386D02*X106550D01*
X105800Y523386D02*Y517386D01*
X45000Y518136D02*X45750Y517386D01*
X45000Y522636D02*Y518136D01*
Y522636D02*X45750Y523386D01*
X47250D01*
X48000Y522636D01*
Y518136D01*
X47250Y517386D02*X48000Y518136D01*
X45750Y517386D02*X47250D01*
X45000Y518886D02*X48000Y521886D01*
X49800Y517386D02*X50550D01*
X52350Y518136D02*X53100Y517386D01*
X52350Y522636D02*Y518136D01*
Y522636D02*X53100Y523386D01*
X54600D01*
X55350Y522636D01*
Y518136D01*
X54600Y517386D02*X55350Y518136D01*
X53100Y517386D02*X54600D01*
X52350Y518886D02*X55350Y521886D01*
X57150Y523386D02*X60150D01*
X57150D02*Y520386D01*
X57900Y521136D01*
X59400D01*
X60150Y520386D01*
Y518136D01*
X59400Y517386D02*X60150Y518136D01*
X57900Y517386D02*X59400D01*
X57150Y518136D02*X57900Y517386D01*
X61950Y522636D02*X62700Y523386D01*
X64950D01*
X65700Y522636D01*
Y521136D01*
X61950Y517386D02*X65700Y521136D01*
X61950Y517386D02*X65700D01*
X55000Y409086D02*Y402686D01*
X51800Y405886D02*X58200D01*
X53400Y407486D02*X56600D01*
X53400D02*Y404286D01*
X56600D01*
Y407486D02*Y404286D01*
X55000Y399086D02*Y392686D01*
X51800Y395886D02*X58200D01*
X53400Y397486D02*X56600D01*
X53400D02*Y394286D01*
X56600D01*
Y397486D02*Y394286D01*
X55000Y389086D02*Y382686D01*
X51800Y385886D02*X58200D01*
X53400Y387486D02*X56600D01*
X53400D02*Y384286D01*
X56600D01*
Y387486D02*Y384286D01*
X55000Y379086D02*Y372686D01*
X51800Y375886D02*X58200D01*
X53400Y377486D02*X56600D01*
X53400D02*Y374286D01*
X56600D01*
Y377486D02*Y374286D01*
X55000Y369086D02*Y362686D01*
X51800Y365886D02*X58200D01*
X53400Y367486D02*X56600D01*
X53400D02*Y364286D01*
X56600D01*
Y367486D02*Y364286D01*
X55000Y359086D02*Y352686D01*
X51800Y355886D02*X58200D01*
X53400Y357486D02*X56600D01*
X53400D02*Y354286D01*
X56600D01*
Y357486D02*Y354286D01*
X55000Y349086D02*Y342686D01*
X51800Y345886D02*X58200D01*
X53400Y347486D02*X56600D01*
X53400D02*Y344286D01*
X56600D01*
Y347486D02*Y344286D01*
X55000Y339086D02*Y332686D01*
X51800Y335886D02*X58200D01*
X53400Y337486D02*X56600D01*
X53400D02*Y334286D01*
X56600D01*
Y337486D02*Y334286D01*
X55000Y329086D02*Y322686D01*
X51800Y325886D02*X58200D01*
X53400Y327486D02*X56600D01*
X53400D02*Y324286D01*
X56600D01*
Y327486D02*Y324286D01*
X55000Y319086D02*Y312686D01*
X51800Y315886D02*X58200D01*
X53400Y317486D02*X56600D01*
X53400D02*Y314286D01*
X56600D01*
Y317486D02*Y314286D01*
X55000Y309086D02*Y302686D01*
X51800Y305886D02*X58200D01*
X53400Y307486D02*X56600D01*
X53400D02*Y304286D01*
X56600D01*
Y307486D02*Y304286D01*
X55000Y299086D02*Y292686D01*
X51800Y295886D02*X58200D01*
X53400Y297486D02*X56600D01*
X53400D02*Y294286D01*
X56600D01*
Y297486D02*Y294286D01*
X55000Y289086D02*Y282686D01*
X51800Y285886D02*X58200D01*
X53400Y287486D02*X56600D01*
X53400D02*Y284286D01*
X56600D01*
Y287486D02*Y284286D01*
X55000Y279086D02*Y272686D01*
X51800Y275886D02*X58200D01*
X53400Y277486D02*X56600D01*
X53400D02*Y274286D01*
X56600D01*
Y277486D02*Y274286D01*
X55000Y269086D02*Y262686D01*
X51800Y265886D02*X58200D01*
X53400Y267486D02*X56600D01*
X53400D02*Y264286D01*
X56600D01*
Y267486D02*Y264286D01*
X55000Y259086D02*Y252686D01*
X51800Y255886D02*X58200D01*
X53400Y257486D02*X56600D01*
X53400D02*Y254286D01*
X56600D01*
Y257486D02*Y254286D01*
X55000Y249086D02*Y242686D01*
X51800Y245886D02*X58200D01*
X53400Y247486D02*X56600D01*
X53400D02*Y244286D01*
X56600D01*
Y247486D02*Y244286D01*
X55000Y239086D02*Y232686D01*
X51800Y235886D02*X58200D01*
X53400Y237486D02*X56600D01*
X53400D02*Y234286D01*
X56600D01*
Y237486D02*Y234286D01*
X55000Y229086D02*Y222686D01*
X51800Y225886D02*X58200D01*
X53400Y227486D02*X56600D01*
X53400D02*Y224286D01*
X56600D01*
Y227486D02*Y224286D01*
X55000Y219086D02*Y212686D01*
X51800Y215886D02*X58200D01*
X53400Y217486D02*X56600D01*
X53400D02*Y214286D01*
X56600D01*
Y217486D02*Y214286D01*
X55000Y209086D02*Y202686D01*
X51800Y205886D02*X58200D01*
X53400Y207486D02*X56600D01*
X53400D02*Y204286D01*
X56600D01*
Y207486D02*Y204286D01*
X55000Y199086D02*Y192686D01*
X51800Y195886D02*X58200D01*
X53400Y197486D02*X56600D01*
X53400D02*Y194286D01*
X56600D01*
Y197486D02*Y194286D01*
X55000Y189086D02*Y182686D01*
X51800Y185886D02*X58200D01*
X53400Y187486D02*X56600D01*
X53400D02*Y184286D01*
X56600D01*
Y187486D02*Y184286D01*
X55000Y179086D02*Y172686D01*
X51800Y175886D02*X58200D01*
X53400Y177486D02*X56600D01*
X53400D02*Y174286D01*
X56600D01*
Y177486D02*Y174286D01*
X55000Y169086D02*Y162686D01*
X51800Y165886D02*X58200D01*
X53400Y167486D02*X56600D01*
X53400D02*Y164286D01*
X56600D01*
Y167486D02*Y164286D01*
X55000Y159086D02*Y152686D01*
X51800Y155886D02*X58200D01*
X53400Y157486D02*X56600D01*
X53400D02*Y154286D01*
X56600D01*
Y157486D02*Y154286D01*
X55000Y149086D02*Y142686D01*
X51800Y145886D02*X58200D01*
X53400Y147486D02*X56600D01*
X53400D02*Y144286D01*
X56600D01*
Y147486D02*Y144286D01*
X55000Y139086D02*Y132686D01*
X51800Y135886D02*X58200D01*
X53400Y137486D02*X56600D01*
X53400D02*Y134286D01*
X56600D01*
Y137486D02*Y134286D01*
X55000Y129086D02*Y122686D01*
X51800Y125886D02*X58200D01*
X53400Y127486D02*X56600D01*
X53400D02*Y124286D01*
X56600D01*
Y127486D02*Y124286D01*
X55000Y119086D02*Y112686D01*
X51800Y115886D02*X58200D01*
X53400Y117486D02*X56600D01*
X53400D02*Y114286D01*
X56600D01*
Y117486D02*Y114286D01*
X55000Y109086D02*Y102686D01*
X51800Y105886D02*X58200D01*
X53400Y107486D02*X56600D01*
X53400D02*Y104286D01*
X56600D01*
Y107486D02*Y104286D01*
X110000Y371586D02*Y365186D01*
X106800Y368386D02*X113200D01*
X108400Y369986D02*X111600D01*
X108400D02*Y366786D01*
X111600D01*
Y369986D02*Y366786D01*
X120000Y371586D02*Y365186D01*
X116800Y368386D02*X123200D01*
X118400Y369986D02*X121600D01*
X118400D02*Y366786D01*
X121600D01*
Y369986D02*Y366786D01*
X130000Y371586D02*Y365186D01*
X126800Y368386D02*X133200D01*
X128400Y369986D02*X131600D01*
X128400D02*Y366786D01*
X131600D01*
Y369986D02*Y366786D01*
X140000Y371586D02*Y365186D01*
X136800Y368386D02*X143200D01*
X138400Y369986D02*X141600D01*
X138400D02*Y366786D01*
X141600D01*
Y369986D02*Y366786D01*
X150000Y371586D02*Y365186D01*
X146800Y368386D02*X153200D01*
X148400Y369986D02*X151600D01*
X148400D02*Y366786D01*
X151600D01*
Y369986D02*Y366786D01*
X160000Y371586D02*Y365186D01*
X156800Y368386D02*X163200D01*
X158400Y369986D02*X161600D01*
X158400D02*Y366786D01*
X161600D01*
Y369986D02*Y366786D01*
X170000Y371586D02*Y365186D01*
X166800Y368386D02*X173200D01*
X168400Y369986D02*X171600D01*
X168400D02*Y366786D01*
X171600D01*
Y369986D02*Y366786D01*
X180000Y371586D02*Y365186D01*
X176800Y368386D02*X183200D01*
X178400Y369986D02*X181600D01*
X178400D02*Y366786D01*
X181600D01*
Y369986D02*Y366786D01*
X110000Y311586D02*Y305186D01*
X106800Y308386D02*X113200D01*
X108400Y309986D02*X111600D01*
X108400D02*Y306786D01*
X111600D01*
Y309986D02*Y306786D01*
X120000Y311586D02*Y305186D01*
X116800Y308386D02*X123200D01*
X118400Y309986D02*X121600D01*
X118400D02*Y306786D01*
X121600D01*
Y309986D02*Y306786D01*
X130000Y311586D02*Y305186D01*
X126800Y308386D02*X133200D01*
X128400Y309986D02*X131600D01*
X128400D02*Y306786D01*
X131600D01*
Y309986D02*Y306786D01*
X140000Y311586D02*Y305186D01*
X136800Y308386D02*X143200D01*
X138400Y309986D02*X141600D01*
X138400D02*Y306786D01*
X141600D01*
Y309986D02*Y306786D01*
X150000Y311586D02*Y305186D01*
X146800Y308386D02*X153200D01*
X148400Y309986D02*X151600D01*
X148400D02*Y306786D01*
X151600D01*
Y309986D02*Y306786D01*
X160000Y311586D02*Y305186D01*
X156800Y308386D02*X163200D01*
X158400Y309986D02*X161600D01*
X158400D02*Y306786D01*
X161600D01*
Y309986D02*Y306786D01*
X170000Y311586D02*Y305186D01*
X166800Y308386D02*X173200D01*
X168400Y309986D02*X171600D01*
X168400D02*Y306786D01*
X171600D01*
Y309986D02*Y306786D01*
X180000Y311586D02*Y305186D01*
X176800Y308386D02*X183200D01*
X178400Y309986D02*X181600D01*
X178400D02*Y306786D01*
X181600D01*
Y309986D02*Y306786D01*
X110000Y251586D02*Y245186D01*
X106800Y248386D02*X113200D01*
X108400Y249986D02*X111600D01*
X108400D02*Y246786D01*
X111600D01*
Y249986D02*Y246786D01*
X120000Y251586D02*Y245186D01*
X116800Y248386D02*X123200D01*
X118400Y249986D02*X121600D01*
X118400D02*Y246786D01*
X121600D01*
Y249986D02*Y246786D01*
X130000Y251586D02*Y245186D01*
X126800Y248386D02*X133200D01*
X128400Y249986D02*X131600D01*
X128400D02*Y246786D01*
X131600D01*
Y249986D02*Y246786D01*
X140000Y251586D02*Y245186D01*
X136800Y248386D02*X143200D01*
X138400Y249986D02*X141600D01*
X138400D02*Y246786D01*
X141600D01*
Y249986D02*Y246786D01*
X150000Y251586D02*Y245186D01*
X146800Y248386D02*X153200D01*
X148400Y249986D02*X151600D01*
X148400D02*Y246786D01*
X151600D01*
Y249986D02*Y246786D01*
X160000Y251586D02*Y245186D01*
X156800Y248386D02*X163200D01*
X158400Y249986D02*X161600D01*
X158400D02*Y246786D01*
X161600D01*
Y249986D02*Y246786D01*
X170000Y251586D02*Y245186D01*
X166800Y248386D02*X173200D01*
X168400Y249986D02*X171600D01*
X168400D02*Y246786D01*
X171600D01*
Y249986D02*Y246786D01*
X180000Y251586D02*Y245186D01*
X176800Y248386D02*X183200D01*
X178400Y249986D02*X181600D01*
X178400D02*Y246786D01*
X181600D01*
Y249986D02*Y246786D01*
X110000Y191586D02*Y185186D01*
X106800Y188386D02*X113200D01*
X108400Y189986D02*X111600D01*
X108400D02*Y186786D01*
X111600D01*
Y189986D02*Y186786D01*
X120000Y191586D02*Y185186D01*
X116800Y188386D02*X123200D01*
X118400Y189986D02*X121600D01*
X118400D02*Y186786D01*
X121600D01*
Y189986D02*Y186786D01*
X130000Y191586D02*Y185186D01*
X126800Y188386D02*X133200D01*
X128400Y189986D02*X131600D01*
X128400D02*Y186786D01*
X131600D01*
Y189986D02*Y186786D01*
X140000Y191586D02*Y185186D01*
X136800Y188386D02*X143200D01*
X138400Y189986D02*X141600D01*
X138400D02*Y186786D01*
X141600D01*
Y189986D02*Y186786D01*
X150000Y191586D02*Y185186D01*
X146800Y188386D02*X153200D01*
X148400Y189986D02*X151600D01*
X148400D02*Y186786D01*
X151600D01*
Y189986D02*Y186786D01*
X160000Y191586D02*Y185186D01*
X156800Y188386D02*X163200D01*
X158400Y189986D02*X161600D01*
X158400D02*Y186786D01*
X161600D01*
Y189986D02*Y186786D01*
X170000Y191586D02*Y185186D01*
X166800Y188386D02*X173200D01*
X168400Y189986D02*X171600D01*
X168400D02*Y186786D01*
X171600D01*
Y189986D02*Y186786D01*
X180000Y191586D02*Y185186D01*
X176800Y188386D02*X183200D01*
X178400Y189986D02*X181600D01*
X178400D02*Y186786D01*
X181600D01*
Y189986D02*Y186786D01*
X110000Y131586D02*Y125186D01*
X106800Y128386D02*X113200D01*
X108400Y129986D02*X111600D01*
X108400D02*Y126786D01*
X111600D01*
Y129986D02*Y126786D01*
X120000Y131586D02*Y125186D01*
X116800Y128386D02*X123200D01*
X118400Y129986D02*X121600D01*
X118400D02*Y126786D01*
X121600D01*
Y129986D02*Y126786D01*
X130000Y131586D02*Y125186D01*
X126800Y128386D02*X133200D01*
X128400Y129986D02*X131600D01*
X128400D02*Y126786D01*
X131600D01*
Y129986D02*Y126786D01*
X140000Y131586D02*Y125186D01*
X136800Y128386D02*X143200D01*
X138400Y129986D02*X141600D01*
X138400D02*Y126786D01*
X141600D01*
Y129986D02*Y126786D01*
X150000Y131586D02*Y125186D01*
X146800Y128386D02*X153200D01*
X148400Y129986D02*X151600D01*
X148400D02*Y126786D01*
X151600D01*
Y129986D02*Y126786D01*
X160000Y131586D02*Y125186D01*
X156800Y128386D02*X163200D01*
X158400Y129986D02*X161600D01*
X158400D02*Y126786D01*
X161600D01*
Y129986D02*Y126786D01*
X170000Y131586D02*Y125186D01*
X166800Y128386D02*X173200D01*
X168400Y129986D02*X171600D01*
X168400D02*Y126786D01*
X171600D01*
Y129986D02*Y126786D01*
X180000Y131586D02*Y125186D01*
X176800Y128386D02*X183200D01*
X178400Y129986D02*X181600D01*
X178400D02*Y126786D01*
X181600D01*
Y129986D02*Y126786D01*
X15000Y537836D02*Y531436D01*
X11800Y534636D02*X18200D01*
X13400Y536236D02*X16600D01*
X13400D02*Y533036D01*
X16600D01*
Y536236D02*Y533036D01*
X135000Y538386D02*Y537636D01*
X136500Y536136D01*
X138000Y537636D01*
Y538386D02*Y537636D01*
X136500Y536136D02*Y532386D01*
X139800Y535386D02*X142050D01*
X139800Y532386D02*X142800D01*
X139800Y538386D02*Y532386D01*
Y538386D02*X142800D01*
X147600D02*X148350Y537636D01*
X145350Y538386D02*X147600D01*
X144600Y537636D02*X145350Y538386D01*
X144600Y537636D02*Y536136D01*
X145350Y535386D01*
X147600D01*
X148350Y534636D01*
Y533136D01*
X147600Y532386D02*X148350Y533136D01*
X145350Y532386D02*X147600D01*
X144600Y533136D02*X145350Y532386D01*
X98000D02*X101750Y536136D01*
Y538386D02*Y536136D01*
X98000Y538386D02*X101750D01*
X104300Y532386D02*X105800D01*
X105050Y538386D02*Y532386D01*
X103550Y536886D02*X105050Y538386D01*
X45000Y533136D02*X45750Y532386D01*
X45000Y537636D02*Y533136D01*
Y537636D02*X45750Y538386D01*
X47250D01*
X48000Y537636D01*
Y533136D01*
X47250Y532386D02*X48000Y533136D01*
X45750Y532386D02*X47250D01*
X45000Y533886D02*X48000Y536886D01*
X49800Y532386D02*X50550D01*
X52350Y533136D02*X53100Y532386D01*
X52350Y537636D02*Y533136D01*
Y537636D02*X53100Y538386D01*
X54600D01*
X55350Y537636D01*
Y533136D01*
X54600Y532386D02*X55350Y533136D01*
X53100Y532386D02*X54600D01*
X52350Y533886D02*X55350Y536886D01*
X57150Y535386D02*X60150Y538386D01*
X57150Y535386D02*X60900D01*
X60150Y538386D02*Y532386D01*
X62700Y537636D02*X63450Y538386D01*
X65700D01*
X66450Y537636D01*
Y536136D01*
X62700Y532386D02*X66450Y536136D01*
X62700Y532386D02*X66450D01*
X575000Y293386D02*Y290186D01*
Y293386D02*X577773Y294986D01*
X575000Y293386D02*X572227Y294986D01*
X573400Y293386D02*G75*G03X576600Y293386I1600J0D01*G01*
G75*G03X573400Y293386I-1600J0D01*G01*
X575000Y253386D02*Y250186D01*
Y253386D02*X577773Y254986D01*
X575000Y253386D02*X572227Y254986D01*
X573400Y253386D02*G75*G03X576600Y253386I1600J0D01*G01*
G75*G03X573400Y253386I-1600J0D01*G01*
X450000Y418386D02*Y415186D01*
Y418386D02*X452773Y419986D01*
X450000Y418386D02*X447227Y419986D01*
X448400Y418386D02*G75*G03X451600Y418386I1600J0D01*G01*
G75*G03X448400Y418386I-1600J0D01*G01*
X500000D02*Y415186D01*
Y418386D02*X502773Y419986D01*
X500000Y418386D02*X497227Y419986D01*
X498400Y418386D02*G75*G03X501600Y418386I1600J0D01*G01*
G75*G03X498400Y418386I-1600J0D01*G01*
X110000Y433386D02*Y430186D01*
Y433386D02*X112773Y434986D01*
X110000Y433386D02*X107227Y434986D01*
X108400Y433386D02*G75*G03X111600Y433386I1600J0D01*G01*
G75*G03X108400Y433386I-1600J0D01*G01*
X185000D02*Y430186D01*
Y433386D02*X187773Y434986D01*
X185000Y433386D02*X182227Y434986D01*
X183400Y433386D02*G75*G03X186600Y433386I1600J0D01*G01*
G75*G03X183400Y433386I-1600J0D01*G01*
X110000Y78386D02*Y75186D01*
Y78386D02*X112773Y79986D01*
X110000Y78386D02*X107227Y79986D01*
X108400Y78386D02*G75*G03X111600Y78386I1600J0D01*G01*
G75*G03X108400Y78386I-1600J0D01*G01*
X445000Y353386D02*Y350186D01*
Y353386D02*X447773Y354986D01*
X445000Y353386D02*X442227Y354986D01*
X443400Y353386D02*G75*G03X446600Y353386I1600J0D01*G01*
G75*G03X443400Y353386I-1600J0D01*G01*
X495000D02*Y350186D01*
Y353386D02*X497773Y354986D01*
X495000Y353386D02*X492227Y354986D01*
X493400Y353386D02*G75*G03X496600Y353386I1600J0D01*G01*
G75*G03X493400Y353386I-1600J0D01*G01*
X445000Y333386D02*Y330186D01*
Y333386D02*X447773Y334986D01*
X445000Y333386D02*X442227Y334986D01*
X443400Y333386D02*G75*G03X446600Y333386I1600J0D01*G01*
G75*G03X443400Y333386I-1600J0D01*G01*
X495000D02*Y330186D01*
Y333386D02*X497773Y334986D01*
X495000Y333386D02*X492227Y334986D01*
X493400Y333386D02*G75*G03X496600Y333386I1600J0D01*G01*
G75*G03X493400Y333386I-1600J0D01*G01*
X450000Y383386D02*Y380186D01*
Y383386D02*X452773Y384986D01*
X450000Y383386D02*X447227Y384986D01*
X448400Y383386D02*G75*G03X451600Y383386I1600J0D01*G01*
G75*G03X448400Y383386I-1600J0D01*G01*
X500000D02*Y380186D01*
Y383386D02*X502773Y384986D01*
X500000Y383386D02*X497227Y384986D01*
X498400Y383386D02*G75*G03X501600Y383386I1600J0D01*G01*
G75*G03X498400Y383386I-1600J0D01*G01*
X450000Y398386D02*Y395186D01*
Y398386D02*X452773Y399986D01*
X450000Y398386D02*X447227Y399986D01*
X448400Y398386D02*G75*G03X451600Y398386I1600J0D01*G01*
G75*G03X448400Y398386I-1600J0D01*G01*
X500000D02*Y395186D01*
Y398386D02*X502773Y399986D01*
X500000Y398386D02*X497227Y399986D01*
X498400Y398386D02*G75*G03X501600Y398386I1600J0D01*G01*
G75*G03X498400Y398386I-1600J0D01*G01*
X185000Y78386D02*Y75186D01*
Y78386D02*X187773Y79986D01*
X185000Y78386D02*X182227Y79986D01*
X183400Y78386D02*G75*G03X186600Y78386I1600J0D01*G01*
G75*G03X183400Y78386I-1600J0D01*G01*
X485000Y370886D02*Y367686D01*
Y370886D02*X487773Y372486D01*
X485000Y370886D02*X482227Y372486D01*
X483400Y370886D02*G75*G03X486600Y370886I1600J0D01*G01*
G75*G03X483400Y370886I-1600J0D01*G01*
X535000D02*Y367686D01*
Y370886D02*X537773Y372486D01*
X535000Y370886D02*X532227Y372486D01*
X533400Y370886D02*G75*G03X536600Y370886I1600J0D01*G01*
G75*G03X533400Y370886I-1600J0D01*G01*
X590000Y243386D02*Y240186D01*
Y243386D02*X592773Y244986D01*
X590000Y243386D02*X587227Y244986D01*
X588400Y243386D02*G75*G03X591600Y243386I1600J0D01*G01*
G75*G03X588400Y243386I-1600J0D01*G01*
X590000Y293386D02*Y290186D01*
Y293386D02*X592773Y294986D01*
X590000Y293386D02*X587227Y294986D01*
X588400Y293386D02*G75*G03X591600Y293386I1600J0D01*G01*
G75*G03X588400Y293386I-1600J0D01*G01*
X15000Y549636D02*Y546436D01*
Y549636D02*X17773Y551236D01*
X15000Y549636D02*X12227Y551236D01*
X13400Y549636D02*G75*G03X16600Y549636I1600J0D01*G01*
G75*G03X13400Y549636I-1600J0D01*G01*
X135000Y553386D02*Y552636D01*
X136500Y551136D01*
X138000Y552636D01*
Y553386D02*Y552636D01*
X136500Y551136D02*Y547386D01*
X139800Y550386D02*X142050D01*
X139800Y547386D02*X142800D01*
X139800Y553386D02*Y547386D01*
Y553386D02*X142800D01*
X147600D02*X148350Y552636D01*
X145350Y553386D02*X147600D01*
X144600Y552636D02*X145350Y553386D01*
X144600Y552636D02*Y551136D01*
X145350Y550386D01*
X147600D01*
X148350Y549636D01*
Y548136D01*
X147600Y547386D02*X148350Y548136D01*
X145350Y547386D02*X147600D01*
X144600Y548136D02*X145350Y547386D01*
X98000Y552636D02*X98750Y553386D01*
X101000D01*
X101750Y552636D01*
Y551136D01*
X98000Y547386D02*X101750Y551136D01*
X98000Y547386D02*X101750D01*
X103550Y548136D02*X104300Y547386D01*
X103550Y552636D02*Y548136D01*
Y552636D02*X104300Y553386D01*
X105800D01*
X106550Y552636D01*
Y548136D01*
X105800Y547386D02*X106550Y548136D01*
X104300Y547386D02*X105800D01*
X103550Y548886D02*X106550Y551886D01*
X45000Y548136D02*X45750Y547386D01*
X45000Y552636D02*Y548136D01*
Y552636D02*X45750Y553386D01*
X47250D01*
X48000Y552636D01*
Y548136D01*
X47250Y547386D02*X48000Y548136D01*
X45750Y547386D02*X47250D01*
X45000Y548886D02*X48000Y551886D01*
X49800Y547386D02*X50550D01*
X52350Y548136D02*X53100Y547386D01*
X52350Y552636D02*Y548136D01*
Y552636D02*X53100Y553386D01*
X54600D01*
X55350Y552636D01*
Y548136D01*
X54600Y547386D02*X55350Y548136D01*
X53100Y547386D02*X54600D01*
X52350Y548886D02*X55350Y551886D01*
X57150Y550386D02*X60150Y553386D01*
X57150Y550386D02*X60900D01*
X60150Y553386D02*Y547386D01*
X62700Y548136D02*X63450Y547386D01*
X62700Y552636D02*Y548136D01*
Y552636D02*X63450Y553386D01*
X64950D01*
X65700Y552636D01*
Y548136D01*
X64950Y547386D02*X65700Y548136D01*
X63450Y547386D02*X64950D01*
X62700Y548886D02*X65700Y551886D01*
X568006Y410144D02*X571206D01*
X568006D02*Y406944D01*
X571206D01*
Y410144D02*Y406944D01*
X568006Y429829D02*X571206D01*
X568006D02*Y426629D01*
X571206D01*
Y429829D02*Y426629D01*
X13400Y566236D02*X16600D01*
X13400D02*Y563036D01*
X16600D01*
Y566236D02*Y563036D01*
X135000Y568386D02*Y567636D01*
X136500Y566136D01*
X138000Y567636D01*
Y568386D02*Y567636D01*
X136500Y566136D02*Y562386D01*
X139800Y565386D02*X142050D01*
X139800Y562386D02*X142800D01*
X139800Y568386D02*Y562386D01*
Y568386D02*X142800D01*
X147600D02*X148350Y567636D01*
X145350Y568386D02*X147600D01*
X144600Y567636D02*X145350Y568386D01*
X144600Y567636D02*Y566136D01*
X145350Y565386D01*
X147600D01*
X148350Y564636D01*
Y563136D01*
X147600Y562386D02*X148350Y563136D01*
X145350Y562386D02*X147600D01*
X144600Y563136D02*X145350Y562386D01*
X98000Y567636D02*X98750Y568386D01*
X101000D01*
X101750Y567636D01*
Y566136D01*
X98000Y562386D02*X101750Y566136D01*
X98000Y562386D02*X101750D01*
X45000Y563136D02*X45750Y562386D01*
X45000Y567636D02*Y563136D01*
Y567636D02*X45750Y568386D01*
X47250D01*
X48000Y567636D01*
Y563136D01*
X47250Y562386D02*X48000Y563136D01*
X45750Y562386D02*X47250D01*
X45000Y563886D02*X48000Y566886D01*
X49800Y562386D02*X50550D01*
X52350Y563136D02*X53100Y562386D01*
X52350Y567636D02*Y563136D01*
Y567636D02*X53100Y568386D01*
X54600D01*
X55350Y567636D01*
Y563136D01*
X54600Y562386D02*X55350Y563136D01*
X53100Y562386D02*X54600D01*
X52350Y563886D02*X55350Y566886D01*
X57150Y567636D02*X57900Y568386D01*
X59400D01*
X60150Y567636D01*
Y563136D01*
X59400Y562386D02*X60150Y563136D01*
X57900Y562386D02*X59400D01*
X57150Y563136D02*X57900Y562386D01*
Y565386D02*X60150D01*
X64200Y568386D02*X64950Y567636D01*
X62700Y568386D02*X64200D01*
X61950Y567636D02*X62700Y568386D01*
X61950Y567636D02*Y563136D01*
X62700Y562386D01*
X64200Y565386D02*X64950Y564636D01*
X61950Y565386D02*X64200D01*
X62700Y562386D02*X64200D01*
X64950Y563136D01*
Y564636D02*Y563136D01*
X546700Y128386D02*G75*G03X548300Y128386I800J0D01*G01*
G75*G03X546700Y128386I-800J0D01*G01*
Y95886D02*G75*G03X548300Y95886I800J0D01*G01*
G75*G03X546700Y95886I-800J0D01*G01*
X199200Y418386D02*G75*G03X200800Y418386I800J0D01*G01*
G75*G03X199200Y418386I-800J0D01*G01*
Y385886D02*G75*G03X200800Y385886I800J0D01*G01*
G75*G03X199200Y385886I-800J0D01*G01*
X364200Y283386D02*G75*G03X365800Y283386I800J0D01*G01*
G75*G03X364200Y283386I-800J0D01*G01*
X119200D02*G75*G03X120800Y283386I800J0D01*G01*
G75*G03X119200Y283386I-800J0D01*G01*
X79200Y373386D02*G75*G03X80800Y373386I800J0D01*G01*
G75*G03X79200Y373386I-800J0D01*G01*
X364200Y343386D02*G75*G03X365800Y343386I800J0D01*G01*
G75*G03X364200Y343386I-800J0D01*G01*
X474200Y293386D02*G75*G03X475800Y293386I800J0D01*G01*
G75*G03X474200Y293386I-800J0D01*G01*
Y208386D02*G75*G03X475800Y208386I800J0D01*G01*
G75*G03X474200Y208386I-800J0D01*G01*
X199200Y353386D02*G75*G03X200800Y353386I800J0D01*G01*
G75*G03X199200Y353386I-800J0D01*G01*
X119200Y220886D02*G75*G03X120800Y220886I800J0D01*G01*
G75*G03X119200Y220886I-800J0D01*G01*
X364200D02*G75*G03X365800Y220886I800J0D01*G01*
G75*G03X364200Y220886I-800J0D01*G01*
X199200Y378386D02*G75*G03X200800Y378386I800J0D01*G01*
G75*G03X199200Y378386I-800J0D01*G01*
X14200Y579636D02*G75*G03X15800Y579636I800J0D01*G01*
G75*G03X14200Y579636I-800J0D01*G01*
X135000Y583386D02*Y582636D01*
X136500Y581136D01*
X138000Y582636D01*
Y583386D02*Y582636D01*
X136500Y581136D02*Y577386D01*
X139800Y580386D02*X142050D01*
X139800Y577386D02*X142800D01*
X139800Y583386D02*Y577386D01*
Y583386D02*X142800D01*
X147600D02*X148350Y582636D01*
X145350Y583386D02*X147600D01*
X144600Y582636D02*X145350Y583386D01*
X144600Y582636D02*Y581136D01*
X145350Y580386D01*
X147600D01*
X148350Y579636D01*
Y578136D01*
X147600Y577386D02*X148350Y578136D01*
X145350Y577386D02*X147600D01*
X144600Y578136D02*X145350Y577386D01*
X98750D02*X100250D01*
X99500Y583386D02*Y577386D01*
X98000Y581886D02*X99500Y583386D01*
X102050Y580386D02*X105050Y583386D01*
X102050Y580386D02*X105800D01*
X105050Y583386D02*Y577386D01*
X45000Y578136D02*X45750Y577386D01*
X45000Y582636D02*Y578136D01*
Y582636D02*X45750Y583386D01*
X47250D01*
X48000Y582636D01*
Y578136D01*
X47250Y577386D02*X48000Y578136D01*
X45750Y577386D02*X47250D01*
X45000Y578886D02*X48000Y581886D01*
X49800Y577386D02*X50550D01*
X52350Y578136D02*X53100Y577386D01*
X52350Y582636D02*Y578136D01*
Y582636D02*X53100Y583386D01*
X54600D01*
X55350Y582636D01*
Y578136D01*
X54600Y577386D02*X55350Y578136D01*
X53100Y577386D02*X54600D01*
X52350Y578886D02*X55350Y581886D01*
X57150Y582636D02*X57900Y583386D01*
X59400D01*
X60150Y582636D01*
Y578136D01*
X59400Y577386D02*X60150Y578136D01*
X57900Y577386D02*X59400D01*
X57150Y578136D02*X57900Y577386D01*
Y580386D02*X60150D01*
X61950Y583386D02*X64950D01*
X61950D02*Y580386D01*
X62700Y581136D01*
X64200D01*
X64950Y580386D01*
Y578136D01*
X64200Y577386D02*X64950Y578136D01*
X62700Y577386D02*X64200D01*
X61950Y578136D02*X62700Y577386D01*
X563800Y91023D02*X566200Y88623D01*
X563800D02*X566200Y91023D01*
X563800Y83149D02*X566200Y80749D01*
X563800D02*X566200Y83149D01*
X578800Y115649D02*X581200Y113249D01*
X578800D02*X581200Y115649D01*
X578800Y123523D02*X581200Y121123D01*
X578800D02*X581200Y123523D01*
X538800Y429586D02*X541200Y427186D01*
X538800D02*X541200Y429586D01*
X498800D02*X501200Y427186D01*
X498800D02*X501200Y429586D01*
X478800D02*X481200Y427186D01*
X478800D02*X481200Y429586D01*
X438800D02*X441200Y427186D01*
X438800D02*X441200Y429586D01*
X13800Y595836D02*X16200Y593436D01*
X13800D02*X16200Y595836D01*
X135000Y598386D02*Y597636D01*
X136500Y596136D01*
X138000Y597636D01*
Y598386D02*Y597636D01*
X136500Y596136D02*Y592386D01*
X139800Y595386D02*X142050D01*
X139800Y592386D02*X142800D01*
X139800Y598386D02*Y592386D01*
Y598386D02*X142800D01*
X147600D02*X148350Y597636D01*
X145350Y598386D02*X147600D01*
X144600Y597636D02*X145350Y598386D01*
X144600Y597636D02*Y596136D01*
X145350Y595386D01*
X147600D01*
X148350Y594636D01*
Y593136D01*
X147600Y592386D02*X148350Y593136D01*
X145350Y592386D02*X147600D01*
X144600Y593136D02*X145350Y592386D01*
X98000Y593136D02*X98750Y592386D01*
X98000Y594636D02*Y593136D01*
Y594636D02*X98750Y595386D01*
X100250D01*
X101000Y594636D01*
Y593136D01*
X100250Y592386D02*X101000Y593136D01*
X98750Y592386D02*X100250D01*
X98000Y596136D02*X98750Y595386D01*
X98000Y597636D02*Y596136D01*
Y597636D02*X98750Y598386D01*
X100250D01*
X101000Y597636D01*
Y596136D01*
X100250Y595386D02*X101000Y596136D01*
X45000Y593136D02*X45750Y592386D01*
X45000Y597636D02*Y593136D01*
Y597636D02*X45750Y598386D01*
X47250D01*
X48000Y597636D01*
Y593136D01*
X47250Y592386D02*X48000Y593136D01*
X45750Y592386D02*X47250D01*
X45000Y593886D02*X48000Y596886D01*
X49800Y592386D02*X50550D01*
X52350Y593136D02*X53100Y592386D01*
X52350Y597636D02*Y593136D01*
Y597636D02*X53100Y598386D01*
X54600D01*
X55350Y597636D01*
Y593136D01*
X54600Y592386D02*X55350Y593136D01*
X53100Y592386D02*X54600D01*
X52350Y593886D02*X55350Y596886D01*
X57150Y597636D02*X57900Y598386D01*
X59400D01*
X60150Y597636D01*
Y593136D01*
X59400Y592386D02*X60150Y593136D01*
X57900Y592386D02*X59400D01*
X57150Y593136D02*X57900Y592386D01*
Y595386D02*X60150D01*
X61950Y597636D02*X62700Y598386D01*
X64950D01*
X65700Y597636D01*
Y596136D01*
X61950Y592386D02*X65700Y596136D01*
X61950Y592386D02*X65700D01*
X520000Y354986D02*Y351786D01*
X518400Y353386D02*X521600D01*
X520000Y344986D02*Y341786D01*
X518400Y343386D02*X521600D01*
X520000Y334986D02*Y331786D01*
X518400Y333386D02*X521600D01*
X520000Y324986D02*Y321786D01*
X518400Y323386D02*X521600D01*
X550000Y324986D02*Y321786D01*
X548400Y323386D02*X551600D01*
X550000Y334986D02*Y331786D01*
X548400Y333386D02*X551600D01*
X550000Y344986D02*Y341786D01*
X548400Y343386D02*X551600D01*
X550000Y354986D02*Y351786D01*
X548400Y353386D02*X551600D01*
X15000Y611236D02*Y608036D01*
X13400Y609636D02*X16600D01*
X135000Y613386D02*Y612636D01*
X136500Y611136D01*
X138000Y612636D01*
Y613386D02*Y612636D01*
X136500Y611136D02*Y607386D01*
X139800Y610386D02*X142050D01*
X139800Y607386D02*X142800D01*
X139800Y613386D02*Y607386D01*
Y613386D02*X142800D01*
X147600D02*X148350Y612636D01*
X145350Y613386D02*X147600D01*
X144600Y612636D02*X145350Y613386D01*
X144600Y612636D02*Y611136D01*
X145350Y610386D01*
X147600D01*
X148350Y609636D01*
Y608136D01*
X147600Y607386D02*X148350Y608136D01*
X145350Y607386D02*X147600D01*
X144600Y608136D02*X145350Y607386D01*
X98000Y608136D02*X98750Y607386D01*
X98000Y609636D02*Y608136D01*
Y609636D02*X98750Y610386D01*
X100250D01*
X101000Y609636D01*
Y608136D01*
X100250Y607386D02*X101000Y608136D01*
X98750Y607386D02*X100250D01*
X98000Y611136D02*X98750Y610386D01*
X98000Y612636D02*Y611136D01*
Y612636D02*X98750Y613386D01*
X100250D01*
X101000Y612636D01*
Y611136D01*
X100250Y610386D02*X101000Y611136D01*
X45000Y608136D02*X45750Y607386D01*
X45000Y612636D02*Y608136D01*
Y612636D02*X45750Y613386D01*
X47250D01*
X48000Y612636D01*
Y608136D01*
X47250Y607386D02*X48000Y608136D01*
X45750Y607386D02*X47250D01*
X45000Y608886D02*X48000Y611886D01*
X49800Y607386D02*X50550D01*
X52350Y608136D02*X53100Y607386D01*
X52350Y612636D02*Y608136D01*
Y612636D02*X53100Y613386D01*
X54600D01*
X55350Y612636D01*
Y608136D01*
X54600Y607386D02*X55350Y608136D01*
X53100Y607386D02*X54600D01*
X52350Y608886D02*X55350Y611886D01*
X57150Y612636D02*X57900Y613386D01*
X60150D01*
X60900Y612636D01*
Y611136D01*
X57150Y607386D02*X60900Y611136D01*
X57150Y607386D02*X60900D01*
X62700Y608136D02*X63450Y607386D01*
X62700Y609636D02*Y608136D01*
Y609636D02*X63450Y610386D01*
X64950D01*
X65700Y609636D01*
Y608136D01*
X64950Y607386D02*X65700Y608136D01*
X63450Y607386D02*X64950D01*
X62700Y611136D02*X63450Y610386D01*
X62700Y612636D02*Y611136D01*
Y612636D02*X63450Y613386D01*
X64950D01*
X65700Y612636D01*
Y611136D01*
X64950Y610386D02*X65700Y611136D01*
X569921Y343386D02*Y341786D01*
Y343386D02*X571308Y344186D01*
X569921Y343386D02*X568534Y344186D01*
X560079Y343386D02*Y341786D01*
Y343386D02*X561466Y344186D01*
X560079Y343386D02*X558692Y344186D01*
X510079Y303386D02*Y301786D01*
Y303386D02*X511466Y304186D01*
X510079Y303386D02*X508692Y304186D01*
X519921Y303386D02*Y301786D01*
Y303386D02*X521308Y304186D01*
X519921Y303386D02*X518534Y304186D01*
X149921Y173386D02*Y171786D01*
Y173386D02*X151308Y174186D01*
X149921Y173386D02*X148534Y174186D01*
X140079Y173386D02*Y171786D01*
Y173386D02*X141466Y174186D01*
X140079Y173386D02*X138692Y174186D01*
X129921Y173386D02*Y171786D01*
Y173386D02*X131308Y174186D01*
X129921Y173386D02*X128534Y174186D01*
X120079Y173386D02*Y171786D01*
Y173386D02*X121466Y174186D01*
X120079Y173386D02*X118692Y174186D01*
X149921Y353386D02*Y351786D01*
Y353386D02*X151308Y354186D01*
X149921Y353386D02*X148534Y354186D01*
X140079Y353386D02*Y351786D01*
Y353386D02*X141466Y354186D01*
X140079Y353386D02*X138692Y354186D01*
X129921Y353386D02*Y351786D01*
Y353386D02*X131308Y354186D01*
X129921Y353386D02*X128534Y354186D01*
X120079Y353386D02*Y351786D01*
Y353386D02*X121466Y354186D01*
X120079Y353386D02*X118692Y354186D01*
X149921Y293386D02*Y291786D01*
Y293386D02*X151308Y294186D01*
X149921Y293386D02*X148534Y294186D01*
X140079Y293386D02*Y291786D01*
Y293386D02*X141466Y294186D01*
X140079Y293386D02*X138692Y294186D01*
X129921Y293386D02*Y291786D01*
Y293386D02*X131308Y294186D01*
X129921Y293386D02*X128534Y294186D01*
X120079Y293386D02*Y291786D01*
Y293386D02*X121466Y294186D01*
X120079Y293386D02*X118692Y294186D01*
X149921Y233386D02*Y231786D01*
Y233386D02*X151308Y234186D01*
X149921Y233386D02*X148534Y234186D01*
X140079Y233386D02*Y231786D01*
Y233386D02*X141466Y234186D01*
X140079Y233386D02*X138692Y234186D01*
X129921Y233386D02*Y231786D01*
Y233386D02*X131308Y234186D01*
X129921Y233386D02*X128534Y234186D01*
X120079Y233386D02*Y231786D01*
Y233386D02*X121466Y234186D01*
X120079Y233386D02*X118692Y234186D01*
X149921Y113386D02*Y111786D01*
Y113386D02*X151308Y114186D01*
X149921Y113386D02*X148534Y114186D01*
X140079Y113386D02*Y111786D01*
Y113386D02*X141466Y114186D01*
X140079Y113386D02*X138692Y114186D01*
X129921Y113386D02*Y111786D01*
Y113386D02*X131308Y114186D01*
X129921Y113386D02*X128534Y114186D01*
X120079Y113386D02*Y111786D01*
Y113386D02*X121466Y114186D01*
X120079Y113386D02*X118692Y114186D01*
X15000Y624636D02*Y623036D01*
Y624636D02*X16387Y625436D01*
X15000Y624636D02*X13613Y625436D01*
X135000Y628386D02*Y627636D01*
X136500Y626136D01*
X138000Y627636D01*
Y628386D02*Y627636D01*
X136500Y626136D02*Y622386D01*
X139800Y625386D02*X142050D01*
X139800Y622386D02*X142800D01*
X139800Y628386D02*Y622386D01*
Y628386D02*X142800D01*
X147600D02*X148350Y627636D01*
X145350Y628386D02*X147600D01*
X144600Y627636D02*X145350Y628386D01*
X144600Y627636D02*Y626136D01*
X145350Y625386D01*
X147600D01*
X148350Y624636D01*
Y623136D01*
X147600Y622386D02*X148350Y623136D01*
X145350Y622386D02*X147600D01*
X144600Y623136D02*X145350Y622386D01*
X98000Y627636D02*X98750Y628386D01*
X101000D01*
X101750Y627636D01*
Y626136D01*
X98000Y622386D02*X101750Y626136D01*
X98000Y622386D02*X101750D01*
X103550Y625386D02*X106550Y628386D01*
X103550Y625386D02*X107300D01*
X106550Y628386D02*Y622386D01*
X45000Y623136D02*X45750Y622386D01*
X45000Y627636D02*Y623136D01*
Y627636D02*X45750Y628386D01*
X47250D01*
X48000Y627636D01*
Y623136D01*
X47250Y622386D02*X48000Y623136D01*
X45750Y622386D02*X47250D01*
X45000Y623886D02*X48000Y626886D01*
X49800Y622386D02*X50550D01*
X52350Y623136D02*X53100Y622386D01*
X52350Y627636D02*Y623136D01*
Y627636D02*X53100Y628386D01*
X54600D01*
X55350Y627636D01*
Y623136D01*
X54600Y622386D02*X55350Y623136D01*
X53100Y622386D02*X54600D01*
X52350Y623886D02*X55350Y626886D01*
X57150Y627636D02*X57900Y628386D01*
X60150D01*
X60900Y627636D01*
Y626136D01*
X57150Y622386D02*X60900Y626136D01*
X57150Y622386D02*X60900D01*
X62700Y623136D02*X63450Y622386D01*
X62700Y627636D02*Y623136D01*
Y627636D02*X63450Y628386D01*
X64950D01*
X65700Y627636D01*
Y623136D01*
X64950Y622386D02*X65700Y623136D01*
X63450Y622386D02*X64950D01*
X62700Y623886D02*X65700Y626886D01*
X3000Y643386D02*X3750Y642636D01*
X750Y643386D02*X3000D01*
X0Y642636D02*X750Y643386D01*
X0Y642636D02*Y641136D01*
X750Y640386D01*
X3000D01*
X3750Y639636D01*
Y638136D01*
X3000Y637386D02*X3750Y638136D01*
X750Y637386D02*X3000D01*
X0Y638136D02*X750Y637386D01*
X5550Y640386D02*Y638136D01*
X6300Y637386D01*
X8550Y640386D02*Y635886D01*
X7800Y635136D02*X8550Y635886D01*
X6300Y635136D02*X7800D01*
X5550Y635886D02*X6300Y635136D01*
Y637386D02*X7800D01*
X8550Y638136D01*
X11100Y639636D02*Y637386D01*
Y639636D02*X11850Y640386D01*
X12600D01*
X13350Y639636D01*
Y637386D01*
Y639636D02*X14100Y640386D01*
X14850D01*
X15600Y639636D01*
Y637386D01*
X10350Y640386D02*X11100Y639636D01*
X17400Y643386D02*Y637386D01*
Y638136D02*X18150Y637386D01*
X19650D01*
X20400Y638136D01*
Y639636D02*Y638136D01*
X19650Y640386D02*X20400Y639636D01*
X18150Y640386D02*X19650D01*
X17400Y639636D02*X18150Y640386D01*
X22200Y639636D02*Y638136D01*
Y639636D02*X22950Y640386D01*
X24450D01*
X25200Y639636D01*
Y638136D01*
X24450Y637386D02*X25200Y638136D01*
X22950Y637386D02*X24450D01*
X22200Y638136D02*X22950Y637386D01*
X27000Y643386D02*Y638136D01*
X27750Y637386D01*
X0Y634136D02*X29250D01*
X41750Y643386D02*Y637386D01*
X44000Y643386D02*X44750Y642636D01*
Y638136D01*
X44000Y637386D02*X44750Y638136D01*
X41000Y637386D02*X44000D01*
X41000Y643386D02*X44000D01*
X46550Y641886D02*Y641136D01*
Y639636D02*Y637386D01*
X50300Y640386D02*X51050Y639636D01*
X48800Y640386D02*X50300D01*
X48050Y639636D02*X48800Y640386D01*
X48050Y639636D02*Y638136D01*
X48800Y637386D01*
X51050Y640386D02*Y638136D01*
X51800Y637386D01*
X48800D02*X50300D01*
X51050Y638136D01*
X54350Y639636D02*Y637386D01*
Y639636D02*X55100Y640386D01*
X55850D01*
X56600Y639636D01*
Y637386D01*
Y639636D02*X57350Y640386D01*
X58100D01*
X58850Y639636D01*
Y637386D01*
X53600Y640386D02*X54350Y639636D01*
X60650Y637386D02*X61400D01*
X65900Y638136D02*X66650Y637386D01*
X65900Y642636D02*X66650Y643386D01*
X65900Y642636D02*Y638136D01*
X68450Y643386D02*X69950D01*
X69200D02*Y637386D01*
X68450D02*X69950D01*
X72500Y639636D02*Y637386D01*
Y639636D02*X73250Y640386D01*
X74000D01*
X74750Y639636D01*
Y637386D01*
X71750Y640386D02*X72500Y639636D01*
X77300Y640386D02*X79550D01*
X76550Y639636D02*X77300Y640386D01*
X76550Y639636D02*Y638136D01*
X77300Y637386D01*
X79550D01*
X81350Y643386D02*Y637386D01*
Y639636D02*X82100Y640386D01*
X83600D01*
X84350Y639636D01*
Y637386D01*
X86150Y643386D02*X86900Y642636D01*
Y638136D01*
X86150Y637386D02*X86900Y638136D01*
X41000Y634136D02*X88700D01*
X95750Y637386D02*X98000D01*
X95000Y638136D02*X95750Y637386D01*
X95000Y642636D02*Y638136D01*
Y642636D02*X95750Y643386D01*
X98000D01*
X99800Y639636D02*Y638136D01*
Y639636D02*X100550Y640386D01*
X102050D01*
X102800Y639636D01*
Y638136D01*
X102050Y637386D02*X102800Y638136D01*
X100550Y637386D02*X102050D01*
X99800Y638136D02*X100550Y637386D01*
X104600Y640386D02*Y638136D01*
X105350Y637386D01*
X106850D01*
X107600Y638136D01*
Y640386D02*Y638136D01*
X110150Y639636D02*Y637386D01*
Y639636D02*X110900Y640386D01*
X111650D01*
X112400Y639636D01*
Y637386D01*
X109400Y640386D02*X110150Y639636D01*
X114950Y643386D02*Y638136D01*
X115700Y637386D01*
X114200Y641136D02*X115700D01*
X95000Y634136D02*X117200D01*
X130750Y643386D02*Y637386D01*
X130000Y643386D02*X133000D01*
X133750Y642636D01*
Y641136D01*
X133000Y640386D02*X133750Y641136D01*
X130750Y640386D02*X133000D01*
X135550Y643386D02*Y638136D01*
X136300Y637386D01*
X140050Y640386D02*X140800Y639636D01*
X138550Y640386D02*X140050D01*
X137800Y639636D02*X138550Y640386D01*
X137800Y639636D02*Y638136D01*
X138550Y637386D01*
X140800Y640386D02*Y638136D01*
X141550Y637386D01*
X138550D02*X140050D01*
X140800Y638136D01*
X144100Y643386D02*Y638136D01*
X144850Y637386D01*
X143350Y641136D02*X144850D01*
X147100Y637386D02*X149350D01*
X146350Y638136D02*X147100Y637386D01*
X146350Y639636D02*Y638136D01*
Y639636D02*X147100Y640386D01*
X148600D01*
X149350Y639636D01*
X146350Y638886D02*X149350D01*
Y639636D02*Y638886D01*
X154150Y643386D02*Y637386D01*
X153400D02*X154150Y638136D01*
X151900Y637386D02*X153400D01*
X151150Y638136D02*X151900Y637386D01*
X151150Y639636D02*Y638136D01*
Y639636D02*X151900Y640386D01*
X153400D01*
X154150Y639636D01*
X157450Y640386D02*Y639636D01*
Y638136D02*Y637386D01*
X155950Y642636D02*Y641886D01*
Y642636D02*X156700Y643386D01*
X158200D01*
X158950Y642636D01*
Y641886D01*
X157450Y640386D02*X158950Y641886D01*
X130000Y634136D02*X160750D01*
X0Y658386D02*X3000D01*
X1500D02*Y652386D01*
X4800Y658386D02*Y652386D01*
Y654636D02*X5550Y655386D01*
X7050D01*
X7800Y654636D01*
Y652386D01*
X10350D02*X12600D01*
X9600Y653136D02*X10350Y652386D01*
X9600Y654636D02*Y653136D01*
Y654636D02*X10350Y655386D01*
X11850D01*
X12600Y654636D01*
X9600Y653886D02*X12600D01*
Y654636D02*Y653886D01*
X15150Y654636D02*Y652386D01*
Y654636D02*X15900Y655386D01*
X17400D01*
X14400D02*X15150Y654636D01*
X19950Y652386D02*X22200D01*
X19200Y653136D02*X19950Y652386D01*
X19200Y654636D02*Y653136D01*
Y654636D02*X19950Y655386D01*
X21450D01*
X22200Y654636D01*
X19200Y653886D02*X22200D01*
Y654636D02*Y653886D01*
X28950Y655386D02*X29700Y654636D01*
X27450Y655386D02*X28950D01*
X26700Y654636D02*X27450Y655386D01*
X26700Y654636D02*Y653136D01*
X27450Y652386D01*
X29700Y655386D02*Y653136D01*
X30450Y652386D01*
X27450D02*X28950D01*
X29700Y653136D01*
X33000Y654636D02*Y652386D01*
Y654636D02*X33750Y655386D01*
X35250D01*
X32250D02*X33000Y654636D01*
X37800Y652386D02*X40050D01*
X37050Y653136D02*X37800Y652386D01*
X37050Y654636D02*Y653136D01*
Y654636D02*X37800Y655386D01*
X39300D01*
X40050Y654636D01*
X37050Y653886D02*X40050D01*
Y654636D02*Y653886D01*
X45300Y652386D02*X46800D01*
X46050Y658386D02*Y652386D01*
X44550Y656886D02*X46050Y658386D01*
X48600Y653136D02*X49350Y652386D01*
X48600Y657636D02*Y653136D01*
Y657636D02*X49350Y658386D01*
X50850D01*
X51600Y657636D01*
Y653136D01*
X50850Y652386D02*X51600Y653136D01*
X49350Y652386D02*X50850D01*
X48600Y653886D02*X51600Y656886D01*
X59100Y658386D02*Y652386D01*
X58350D02*X59100Y653136D01*
X56850Y652386D02*X58350D01*
X56100Y653136D02*X56850Y652386D01*
X56100Y654636D02*Y653136D01*
Y654636D02*X56850Y655386D01*
X58350D01*
X59100Y654636D01*
X60900Y656886D02*Y656136D01*
Y654636D02*Y652386D01*
X63150Y657636D02*Y652386D01*
Y657636D02*X63900Y658386D01*
X64650D01*
X62400Y655386D02*X63900D01*
X66900Y657636D02*Y652386D01*
Y657636D02*X67650Y658386D01*
X68400D01*
X66150Y655386D02*X67650D01*
X70650Y652386D02*X72900D01*
X69900Y653136D02*X70650Y652386D01*
X69900Y654636D02*Y653136D01*
Y654636D02*X70650Y655386D01*
X72150D01*
X72900Y654636D01*
X69900Y653886D02*X72900D01*
Y654636D02*Y653886D01*
X75450Y654636D02*Y652386D01*
Y654636D02*X76200Y655386D01*
X77700D01*
X74700D02*X75450Y654636D01*
X80250Y652386D02*X82500D01*
X79500Y653136D02*X80250Y652386D01*
X79500Y654636D02*Y653136D01*
Y654636D02*X80250Y655386D01*
X81750D01*
X82500Y654636D01*
X79500Y653886D02*X82500D01*
Y654636D02*Y653886D01*
X85050Y654636D02*Y652386D01*
Y654636D02*X85800Y655386D01*
X86550D01*
X87300Y654636D01*
Y652386D01*
X84300Y655386D02*X85050Y654636D01*
X89850Y658386D02*Y653136D01*
X90600Y652386D01*
X89100Y656136D02*X90600D01*
X97800Y658386D02*Y652386D01*
X97050D02*X97800Y653136D01*
X95550Y652386D02*X97050D01*
X94800Y653136D02*X95550Y652386D01*
X94800Y654636D02*Y653136D01*
Y654636D02*X95550Y655386D01*
X97050D01*
X97800Y654636D01*
X100350D02*Y652386D01*
Y654636D02*X101100Y655386D01*
X102600D01*
X99600D02*X100350Y654636D01*
X104400Y656886D02*Y656136D01*
Y654636D02*Y652386D01*
X105900Y658386D02*Y653136D01*
X106650Y652386D01*
X108150Y658386D02*Y653136D01*
X108900Y652386D01*
X113850D02*X116100D01*
X116850Y653136D01*
X116100Y653886D02*X116850Y653136D01*
X113850Y653886D02*X116100D01*
X113100Y654636D02*X113850Y653886D01*
X113100Y654636D02*X113850Y655386D01*
X116100D01*
X116850Y654636D01*
X113100Y653136D02*X113850Y652386D01*
X118650Y656886D02*Y656136D01*
Y654636D02*Y652386D01*
X120150Y655386D02*X123150D01*
X120150Y652386D02*X123150Y655386D01*
X120150Y652386D02*X123150D01*
X125700D02*X127950D01*
X124950Y653136D02*X125700Y652386D01*
X124950Y654636D02*Y653136D01*
Y654636D02*X125700Y655386D01*
X127200D01*
X127950Y654636D01*
X124950Y653886D02*X127950D01*
Y654636D02*Y653886D01*
X130500Y652386D02*X132750D01*
X133500Y653136D01*
X132750Y653886D02*X133500Y653136D01*
X130500Y653886D02*X132750D01*
X129750Y654636D02*X130500Y653886D01*
X129750Y654636D02*X130500Y655386D01*
X132750D01*
X133500Y654636D01*
X129750Y653136D02*X130500Y652386D01*
X138000Y655386D02*Y653136D01*
X138750Y652386D01*
X140250D01*
X141000Y653136D01*
Y655386D02*Y653136D01*
X143550Y652386D02*X145800D01*
X146550Y653136D01*
X145800Y653886D02*X146550Y653136D01*
X143550Y653886D02*X145800D01*
X142800Y654636D02*X143550Y653886D01*
X142800Y654636D02*X143550Y655386D01*
X145800D01*
X146550Y654636D01*
X142800Y653136D02*X143550Y652386D01*
X149100D02*X151350D01*
X148350Y653136D02*X149100Y652386D01*
X148350Y654636D02*Y653136D01*
Y654636D02*X149100Y655386D01*
X150600D01*
X151350Y654636D01*
X148350Y653886D02*X151350D01*
Y654636D02*Y653886D01*
X156150Y658386D02*Y652386D01*
X155400D02*X156150Y653136D01*
X153900Y652386D02*X155400D01*
X153150Y653136D02*X153900Y652386D01*
X153150Y654636D02*Y653136D01*
Y654636D02*X153900Y655386D01*
X155400D01*
X156150Y654636D01*
X160650Y656886D02*Y656136D01*
Y654636D02*Y652386D01*
X162900Y654636D02*Y652386D01*
Y654636D02*X163650Y655386D01*
X164400D01*
X165150Y654636D01*
Y652386D01*
X162150Y655386D02*X162900Y654636D01*
X170400Y658386D02*Y653136D01*
X171150Y652386D01*
X169650Y656136D02*X171150D01*
X172650Y658386D02*Y652386D01*
Y654636D02*X173400Y655386D01*
X174900D01*
X175650Y654636D01*
Y652386D01*
X177450Y656886D02*Y656136D01*
Y654636D02*Y652386D01*
X179700D02*X181950D01*
X182700Y653136D01*
X181950Y653886D02*X182700Y653136D01*
X179700Y653886D02*X181950D01*
X178950Y654636D02*X179700Y653886D01*
X178950Y654636D02*X179700Y655386D01*
X181950D01*
X182700Y654636D01*
X178950Y653136D02*X179700Y652386D01*
X187200Y658386D02*Y653136D01*
X187950Y652386D01*
X191700Y655386D02*X192450Y654636D01*
X190200Y655386D02*X191700D01*
X189450Y654636D02*X190200Y655386D01*
X189450Y654636D02*Y653136D01*
X190200Y652386D01*
X192450Y655386D02*Y653136D01*
X193200Y652386D01*
X190200D02*X191700D01*
X192450Y653136D01*
X195000Y655386D02*Y653136D01*
X195750Y652386D01*
X198000Y655386D02*Y650886D01*
X197250Y650136D02*X198000Y650886D01*
X195750Y650136D02*X197250D01*
X195000Y650886D02*X195750Y650136D01*
Y652386D02*X197250D01*
X198000Y653136D01*
X199800Y654636D02*Y653136D01*
Y654636D02*X200550Y655386D01*
X202050D01*
X202800Y654636D01*
Y653136D01*
X202050Y652386D02*X202800Y653136D01*
X200550Y652386D02*X202050D01*
X199800Y653136D02*X200550Y652386D01*
X204600Y655386D02*Y653136D01*
X205350Y652386D01*
X206850D01*
X207600Y653136D01*
Y655386D02*Y653136D01*
X210150Y658386D02*Y653136D01*
X210900Y652386D01*
X209400Y656136D02*X210900D01*
X212400Y650886D02*X213900Y652386D01*
X219150D02*X220650D01*
X219900Y658386D02*Y652386D01*
X218400Y656886D02*X219900Y658386D01*
X222450Y653136D02*X223200Y652386D01*
X222450Y654636D02*Y653136D01*
Y654636D02*X223200Y655386D01*
X224700D01*
X225450Y654636D01*
Y653136D01*
X224700Y652386D02*X225450Y653136D01*
X223200Y652386D02*X224700D01*
X222450Y656136D02*X223200Y655386D01*
X222450Y657636D02*Y656136D01*
Y657636D02*X223200Y658386D01*
X224700D01*
X225450Y657636D01*
Y656136D01*
X224700Y655386D02*X225450Y656136D01*
X227250Y652386D02*X231000Y656136D01*
Y658386D02*Y656136D01*
X227250Y658386D02*X231000D01*
X235500D02*Y652386D01*
Y654636D02*X236250Y655386D01*
X237750D01*
X238500Y654636D01*
Y652386D01*
X240300Y654636D02*Y653136D01*
Y654636D02*X241050Y655386D01*
X242550D01*
X243300Y654636D01*
Y653136D01*
X242550Y652386D02*X243300Y653136D01*
X241050Y652386D02*X242550D01*
X240300Y653136D02*X241050Y652386D01*
X245100Y658386D02*Y653136D01*
X245850Y652386D01*
X248100D02*X250350D01*
X247350Y653136D02*X248100Y652386D01*
X247350Y654636D02*Y653136D01*
Y654636D02*X248100Y655386D01*
X249600D01*
X250350Y654636D01*
X247350Y653886D02*X250350D01*
Y654636D02*Y653886D01*
X252900Y652386D02*X255150D01*
X255900Y653136D01*
X255150Y653886D02*X255900Y653136D01*
X252900Y653886D02*X255150D01*
X252150Y654636D02*X252900Y653886D01*
X252150Y654636D02*X252900Y655386D01*
X255150D01*
X255900Y654636D01*
X252150Y653136D02*X252900Y652386D01*
X261150Y658386D02*Y653136D01*
X261900Y652386D01*
X260400Y656136D02*X261900D01*
X263400Y654636D02*Y653136D01*
Y654636D02*X264150Y655386D01*
X265650D01*
X266400Y654636D01*
Y653136D01*
X265650Y652386D02*X266400Y653136D01*
X264150Y652386D02*X265650D01*
X263400Y653136D02*X264150Y652386D01*
X268950Y658386D02*Y653136D01*
X269700Y652386D01*
X268200Y656136D02*X269700D01*
X273450Y655386D02*X274200Y654636D01*
X271950Y655386D02*X273450D01*
X271200Y654636D02*X271950Y655386D01*
X271200Y654636D02*Y653136D01*
X271950Y652386D01*
X274200Y655386D02*Y653136D01*
X274950Y652386D01*
X271950D02*X273450D01*
X274200Y653136D01*
X276750Y658386D02*Y653136D01*
X277500Y652386D01*
G54D103*X10000Y60886D02*Y453386D01*
X640000D02*X10000D01*
X640000Y60886D02*Y453386D01*
Y60886D02*X10000D01*
G54D102*X258478Y-8000D02*X261478D01*
X262228Y-7250D01*
Y-5750D02*Y-7250D01*
X261478Y-5000D02*X262228Y-5750D01*
X259228Y-5000D02*X261478D01*
X259228Y-2000D02*Y-8000D01*
X258478Y-2000D02*X261478D01*
X262228Y-2750D01*
Y-4250D01*
X261478Y-5000D02*X262228Y-4250D01*
X264028Y-5750D02*Y-7250D01*
Y-5750D02*X264778Y-5000D01*
X266278D01*
X267028Y-5750D01*
Y-7250D01*
X266278Y-8000D02*X267028Y-7250D01*
X264778Y-8000D02*X266278D01*
X264028Y-7250D02*X264778Y-8000D01*
X271078Y-5000D02*X271828Y-5750D01*
X269578Y-5000D02*X271078D01*
X268828Y-5750D02*X269578Y-5000D01*
X268828Y-5750D02*Y-7250D01*
X269578Y-8000D01*
X271828Y-5000D02*Y-7250D01*
X272578Y-8000D01*
X269578D02*X271078D01*
X271828Y-7250D01*
X275128Y-5750D02*Y-8000D01*
Y-5750D02*X275878Y-5000D01*
X277378D01*
X274378D02*X275128Y-5750D01*
X282178Y-2000D02*Y-8000D01*
X281428D02*X282178Y-7250D01*
X279928Y-8000D02*X281428D01*
X279178Y-7250D02*X279928Y-8000D01*
X279178Y-5750D02*Y-7250D01*
Y-5750D02*X279928Y-5000D01*
X281428D01*
X282178Y-5750D01*
X286678D02*Y-7250D01*
Y-5750D02*X287428Y-5000D01*
X288928D01*
X289678Y-5750D01*
Y-7250D01*
X288928Y-8000D02*X289678Y-7250D01*
X287428Y-8000D02*X288928D01*
X286678Y-7250D02*X287428Y-8000D01*
X291478Y-5000D02*Y-7250D01*
X292228Y-8000D01*
X293728D01*
X294478Y-7250D01*
Y-5000D02*Y-7250D01*
X297028Y-2000D02*Y-7250D01*
X297778Y-8000D01*
X296278Y-4250D02*X297778D01*
X299278Y-2000D02*Y-7250D01*
X300028Y-8000D01*
X301528Y-3500D02*Y-4250D01*
Y-5750D02*Y-8000D01*
X303778Y-5750D02*Y-8000D01*
Y-5750D02*X304528Y-5000D01*
X305278D01*
X306028Y-5750D01*
Y-8000D01*
X303028Y-5000D02*X303778Y-5750D01*
X308578Y-8000D02*X310828D01*
X307828Y-7250D02*X308578Y-8000D01*
X307828Y-5750D02*Y-7250D01*
Y-5750D02*X308578Y-5000D01*
X310078D01*
X310828Y-5750D01*
X307828Y-6500D02*X310828D01*
Y-5750D02*Y-6500D01*
X315328Y-3500D02*Y-4250D01*
Y-5750D02*Y-8000D01*
X317578D02*X319828D01*
X320578Y-7250D01*
X319828Y-6500D02*X320578Y-7250D01*
X317578Y-6500D02*X319828D01*
X316828Y-5750D02*X317578Y-6500D01*
X316828Y-5750D02*X317578Y-5000D01*
X319828D01*
X320578Y-5750D01*
X316828Y-7250D02*X317578Y-8000D01*
X325828Y-2000D02*Y-7250D01*
X326578Y-8000D01*
X325078Y-4250D02*X326578D01*
X328078Y-2000D02*Y-8000D01*
Y-5750D02*X328828Y-5000D01*
X330328D01*
X331078Y-5750D01*
Y-8000D01*
X333628D02*X335878D01*
X332878Y-7250D02*X333628Y-8000D01*
X332878Y-5750D02*Y-7250D01*
Y-5750D02*X333628Y-5000D01*
X335128D01*
X335878Y-5750D01*
X332878Y-6500D02*X335878D01*
Y-5750D02*Y-6500D01*
X341128Y-5000D02*X343378D01*
X340378Y-5750D02*X341128Y-5000D01*
X340378Y-5750D02*Y-7250D01*
X341128Y-8000D01*
X343378D01*
X345928D02*X348178D01*
X345178Y-7250D02*X345928Y-8000D01*
X345178Y-5750D02*Y-7250D01*
Y-5750D02*X345928Y-5000D01*
X347428D01*
X348178Y-5750D01*
X345178Y-6500D02*X348178D01*
Y-5750D02*Y-6500D01*
X350728Y-5750D02*Y-8000D01*
Y-5750D02*X351478Y-5000D01*
X352228D01*
X352978Y-5750D01*
Y-8000D01*
X349978Y-5000D02*X350728Y-5750D01*
X355528Y-2000D02*Y-7250D01*
X356278Y-8000D01*
X354778Y-4250D02*X356278D01*
X358528Y-8000D02*X360778D01*
X357778Y-7250D02*X358528Y-8000D01*
X357778Y-5750D02*Y-7250D01*
Y-5750D02*X358528Y-5000D01*
X360028D01*
X360778Y-5750D01*
X357778Y-6500D02*X360778D01*
Y-5750D02*Y-6500D01*
X363328Y-5750D02*Y-8000D01*
Y-5750D02*X364078Y-5000D01*
X365578D01*
X362578D02*X363328Y-5750D01*
X367378Y-2000D02*Y-7250D01*
X368128Y-8000D01*
X369628Y-3500D02*Y-4250D01*
Y-5750D02*Y-8000D01*
X371878Y-5750D02*Y-8000D01*
Y-5750D02*X372628Y-5000D01*
X373378D01*
X374128Y-5750D01*
Y-8000D01*
X371128Y-5000D02*X371878Y-5750D01*
X376678Y-8000D02*X378928D01*
X375928Y-7250D02*X376678Y-8000D01*
X375928Y-5750D02*Y-7250D01*
Y-5750D02*X376678Y-5000D01*
X378178D01*
X378928Y-5750D01*
X375928Y-6500D02*X378928D01*
Y-5750D02*Y-6500D01*
X383428Y-5750D02*Y-7250D01*
Y-5750D02*X384178Y-5000D01*
X385678D01*
X386428Y-5750D01*
Y-7250D01*
X385678Y-8000D02*X386428Y-7250D01*
X384178Y-8000D02*X385678D01*
X383428Y-7250D02*X384178Y-8000D01*
X388978Y-2750D02*Y-8000D01*
Y-2750D02*X389728Y-2000D01*
X390478D01*
X388228Y-5000D02*X389728D01*
X395428Y-2000D02*Y-7250D01*
X396178Y-8000D01*
X394678Y-4250D02*X396178D01*
X397678Y-2000D02*Y-8000D01*
Y-5750D02*X398428Y-5000D01*
X399928D01*
X400678Y-5750D01*
Y-8000D01*
X402478Y-3500D02*Y-4250D01*
Y-5750D02*Y-8000D01*
X404728D02*X406978D01*
X407728Y-7250D01*
X406978Y-6500D02*X407728Y-7250D01*
X404728Y-6500D02*X406978D01*
X403978Y-5750D02*X404728Y-6500D01*
X403978Y-5750D02*X404728Y-5000D01*
X406978D01*
X407728Y-5750D01*
X403978Y-7250D02*X404728Y-8000D01*
X412978Y-5750D02*Y-10250D01*
X412228Y-5000D02*X412978Y-5750D01*
X413728Y-5000D01*
X415228D01*
X415978Y-5750D01*
Y-7250D01*
X415228Y-8000D02*X415978Y-7250D01*
X413728Y-8000D02*X415228D01*
X412978Y-7250D02*X413728Y-8000D01*
X420028Y-5000D02*X420778Y-5750D01*
X418528Y-5000D02*X420028D01*
X417778Y-5750D02*X418528Y-5000D01*
X417778Y-5750D02*Y-7250D01*
X418528Y-8000D01*
X420778Y-5000D02*Y-7250D01*
X421528Y-8000D01*
X418528D02*X420028D01*
X420778Y-7250D01*
X424078Y-2000D02*Y-7250D01*
X424828Y-8000D01*
X423328Y-4250D02*X424828D01*
X426328Y-2000D02*Y-8000D01*
Y-5750D02*X427078Y-5000D01*
X428578D01*
X429328Y-5750D01*
Y-8000D01*
X200750Y493386D02*Y487386D01*
X203000Y493386D02*X203750Y492636D01*
Y488136D01*
X203000Y487386D02*X203750Y488136D01*
X200000Y487386D02*X203000D01*
X200000Y493386D02*X203000D01*
X207800Y490386D02*X208550Y489636D01*
X206300Y490386D02*X207800D01*
X205550Y489636D02*X206300Y490386D01*
X205550Y489636D02*Y488136D01*
X206300Y487386D01*
X208550Y490386D02*Y488136D01*
X209300Y487386D01*
X206300D02*X207800D01*
X208550Y488136D01*
X211850Y493386D02*Y488136D01*
X212600Y487386D01*
X211100Y491136D02*X212600D01*
X214850Y487386D02*X217100D01*
X214100Y488136D02*X214850Y487386D01*
X214100Y489636D02*Y488136D01*
Y489636D02*X214850Y490386D01*
X216350D01*
X217100Y489636D01*
X214100Y488886D02*X217100D01*
Y489636D02*Y488886D01*
X218900Y491136D02*X219650D01*
X218900Y489636D02*X219650D01*
X224150Y493386D02*Y487386D01*
Y493386D02*X227150D01*
X224150Y490386D02*X226400D01*
X229700Y489636D02*Y487386D01*
Y489636D02*X230450Y490386D01*
X231950D01*
X228950D02*X229700Y489636D01*
X233750Y491886D02*Y491136D01*
Y489636D02*Y487386D01*
X237950Y492636D02*Y487386D01*
Y492636D02*X238700Y493386D01*
X240950D01*
X241700Y492636D01*
Y487386D01*
X237950Y490386D02*X241700D01*
X243500D02*Y488136D01*
X244250Y487386D01*
X245750D01*
X246500Y488136D01*
Y490386D02*Y488136D01*
X250550Y490386D02*X251300Y489636D01*
X249050Y490386D02*X250550D01*
X248300Y489636D02*X249050Y490386D01*
X248300Y489636D02*Y488136D01*
X249050Y487386D01*
X250550D01*
X251300Y488136D01*
X248300Y485886D02*X249050Y485136D01*
X250550D01*
X251300Y485886D01*
Y490386D02*Y485886D01*
X256550Y487386D02*X258050D01*
X257300Y493386D02*Y487386D01*
X255800Y491886D02*X257300Y493386D01*
X259850Y488136D02*X260600Y487386D01*
X259850Y492636D02*Y488136D01*
Y492636D02*X260600Y493386D01*
X262100D01*
X262850Y492636D01*
Y488136D01*
X262100Y487386D02*X262850Y488136D01*
X260600Y487386D02*X262100D01*
X259850Y488886D02*X262850Y491886D01*
X267350Y492636D02*X268100Y493386D01*
X270350D01*
X271100Y492636D01*
Y491136D01*
X267350Y487386D02*X271100Y491136D01*
X267350Y487386D02*X271100D01*
X272900Y488136D02*X273650Y487386D01*
X272900Y492636D02*Y488136D01*
Y492636D02*X273650Y493386D01*
X275150D01*
X275900Y492636D01*
Y488136D01*
X275150Y487386D02*X275900Y488136D01*
X273650Y487386D02*X275150D01*
X272900Y488886D02*X275900Y491886D01*
X277700Y491136D02*X278450D01*
X277700Y489636D02*X278450D01*
X280250Y488136D02*X281000Y487386D01*
X280250Y492636D02*Y488136D01*
Y492636D02*X281000Y493386D01*
X282500D01*
X283250Y492636D01*
Y488136D01*
X282500Y487386D02*X283250Y488136D01*
X281000Y487386D02*X282500D01*
X280250Y488886D02*X283250Y491886D01*
X287300Y493386D02*X288050Y492636D01*
X285800Y493386D02*X287300D01*
X285050Y492636D02*X285800Y493386D01*
X285050Y492636D02*Y488136D01*
X285800Y487386D01*
X287300Y490386D02*X288050Y489636D01*
X285050Y490386D02*X287300D01*
X285800Y487386D02*X287300D01*
X288050Y488136D01*
Y489636D02*Y488136D01*
X289850Y491136D02*X290600D01*
X289850Y489636D02*X290600D01*
X292400Y492636D02*X293150Y493386D01*
X295400D01*
X296150Y492636D01*
Y491136D01*
X292400Y487386D02*X296150Y491136D01*
X292400Y487386D02*X296150D01*
X297950Y492636D02*X298700Y493386D01*
X300950D01*
X301700Y492636D01*
Y491136D01*
X297950Y487386D02*X301700Y491136D01*
X297950Y487386D02*X301700D01*
X306200Y492636D02*X306950Y493386D01*
X309200D01*
X309950Y492636D01*
Y491136D01*
X306200Y487386D02*X309950Y491136D01*
X306200Y487386D02*X309950D01*
X311750Y488136D02*X312500Y487386D01*
X311750Y492636D02*Y488136D01*
Y492636D02*X312500Y493386D01*
X314000D01*
X314750Y492636D01*
Y488136D01*
X314000Y487386D02*X314750Y488136D01*
X312500Y487386D02*X314000D01*
X311750Y488886D02*X314750Y491886D01*
X317300Y487386D02*X318800D01*
X318050Y493386D02*Y487386D01*
X316550Y491886D02*X318050Y493386D01*
X320600Y488136D02*X321350Y487386D01*
X320600Y489636D02*Y488136D01*
Y489636D02*X321350Y490386D01*
X322850D01*
X323600Y489636D01*
Y488136D01*
X322850Y487386D02*X323600Y488136D01*
X321350Y487386D02*X322850D01*
X320600Y491136D02*X321350Y490386D01*
X320600Y492636D02*Y491136D01*
Y492636D02*X321350Y493386D01*
X322850D01*
X323600Y492636D01*
Y491136D01*
X322850Y490386D02*X323600Y491136D01*
X328100Y493386D02*Y488136D01*
X328850Y487386D01*
X330350D01*
X331100Y488136D01*
Y493386D02*Y488136D01*
X332900Y493386D02*X335900D01*
X334400D02*Y487386D01*
X338450D02*X340700D01*
X337700Y488136D02*X338450Y487386D01*
X337700Y492636D02*Y488136D01*
Y492636D02*X338450Y493386D01*
X340700D01*
X200000Y507636D02*Y502386D01*
Y507636D02*X200750Y508386D01*
X203000D01*
X203750Y507636D01*
Y502386D01*
X200000Y505386D02*X203750D01*
X205550D02*Y503136D01*
X206300Y502386D01*
X207800D01*
X208550Y503136D01*
Y505386D02*Y503136D01*
X211100Y508386D02*Y503136D01*
X211850Y502386D01*
X210350Y506136D02*X211850D01*
X213350Y508386D02*Y502386D01*
Y504636D02*X214100Y505386D01*
X215600D01*
X216350Y504636D01*
Y502386D01*
X218150Y504636D02*Y503136D01*
Y504636D02*X218900Y505386D01*
X220400D01*
X221150Y504636D01*
Y503136D01*
X220400Y502386D02*X221150Y503136D01*
X218900Y502386D02*X220400D01*
X218150Y503136D02*X218900Y502386D01*
X223700Y504636D02*Y502386D01*
Y504636D02*X224450Y505386D01*
X225950D01*
X222950D02*X223700Y504636D01*
X227750Y506136D02*X228500D01*
X227750Y504636D02*X228500D01*
X233000Y502386D02*X236000D01*
X236750Y503136D01*
Y504636D02*Y503136D01*
X236000Y505386D02*X236750Y504636D01*
X233750Y505386D02*X236000D01*
X233750Y508386D02*Y502386D01*
X233000Y508386D02*X236000D01*
X236750Y507636D01*
Y506136D01*
X236000Y505386D02*X236750Y506136D01*
X239300Y502386D02*X241550D01*
X238550Y503136D02*X239300Y502386D01*
X238550Y504636D02*Y503136D01*
Y504636D02*X239300Y505386D01*
X240800D01*
X241550Y504636D01*
X238550Y503886D02*X241550D01*
Y504636D02*Y503886D01*
X244100Y504636D02*Y502386D01*
Y504636D02*X244850Y505386D01*
X246350D01*
X243350D02*X244100Y504636D01*
X248900Y508386D02*Y503136D01*
X249650Y502386D01*
X248150Y506136D02*X249650D01*
X253850Y508386D02*X256850D01*
X255350D02*Y502386D01*
X258650Y506886D02*Y506136D01*
Y504636D02*Y502386D01*
X260900Y504636D02*Y502386D01*
Y504636D02*X261650Y505386D01*
X262400D01*
X263150Y504636D01*
Y502386D01*
Y504636D02*X263900Y505386D01*
X264650D01*
X265400Y504636D01*
Y502386D01*
X260150Y505386D02*X260900Y504636D01*
X267950D02*Y502386D01*
Y504636D02*X268700Y505386D01*
X269450D01*
X270200Y504636D01*
Y502386D01*
Y504636D02*X270950Y505386D01*
X271700D01*
X272450Y504636D01*
Y502386D01*
X267200Y505386D02*X267950Y504636D01*
X275000Y502386D02*X277250D01*
X274250Y503136D02*X275000Y502386D01*
X274250Y504636D02*Y503136D01*
Y504636D02*X275000Y505386D01*
X276500D01*
X277250Y504636D01*
X274250Y503886D02*X277250D01*
Y504636D02*Y503886D01*
X279800Y504636D02*Y502386D01*
Y504636D02*X280550Y505386D01*
X282050D01*
X279050D02*X279800Y504636D01*
X284600D02*Y502386D01*
Y504636D02*X285350Y505386D01*
X286100D01*
X286850Y504636D01*
Y502386D01*
Y504636D02*X287600Y505386D01*
X288350D01*
X289100Y504636D01*
Y502386D01*
X283850Y505386D02*X284600Y504636D01*
X293150Y505386D02*X293900Y504636D01*
X291650Y505386D02*X293150D01*
X290900Y504636D02*X291650Y505386D01*
X290900Y504636D02*Y503136D01*
X291650Y502386D01*
X293900Y505386D02*Y503136D01*
X294650Y502386D01*
X291650D02*X293150D01*
X293900Y503136D01*
X297200Y504636D02*Y502386D01*
Y504636D02*X297950Y505386D01*
X298700D01*
X299450Y504636D01*
Y502386D01*
X296450Y505386D02*X297200Y504636D01*
X200000Y523386D02*X203000D01*
X201500D02*Y517386D01*
X204800Y521886D02*Y521136D01*
Y519636D02*Y517386D01*
X207050Y523386D02*Y518136D01*
X207800Y517386D01*
X206300Y521136D02*X207800D01*
X209300Y523386D02*Y518136D01*
X210050Y517386D01*
X212300D02*X214550D01*
X211550Y518136D02*X212300Y517386D01*
X211550Y519636D02*Y518136D01*
Y519636D02*X212300Y520386D01*
X213800D01*
X214550Y519636D01*
X211550Y518886D02*X214550D01*
Y519636D02*Y518886D01*
X216350Y521136D02*X217100D01*
X216350Y519636D02*X217100D01*
X221600Y522636D02*X222350Y523386D01*
X224600D01*
X225350Y522636D01*
Y521136D01*
X221600Y517386D02*X225350Y521136D01*
X221600Y517386D02*X225350D01*
X229400Y523386D02*X230150Y522636D01*
X227900Y523386D02*X229400D01*
X227150Y522636D02*X227900Y523386D01*
X227150Y522636D02*Y518136D01*
X227900Y517386D01*
X229400Y520386D02*X230150Y519636D01*
X227150Y520386D02*X229400D01*
X227900Y517386D02*X229400D01*
X230150Y518136D01*
Y519636D02*Y518136D01*
X231950Y517386D02*X232700D01*
X234500Y518136D02*X235250Y517386D01*
X234500Y522636D02*Y518136D01*
Y522636D02*X235250Y523386D01*
X236750D01*
X237500Y522636D01*
Y518136D01*
X236750Y517386D02*X237500Y518136D01*
X235250Y517386D02*X236750D01*
X234500Y518886D02*X237500Y521886D01*
X239300Y518136D02*X240050Y517386D01*
X239300Y522636D02*Y518136D01*
Y522636D02*X240050Y523386D01*
X241550D01*
X242300Y522636D01*
Y518136D01*
X241550Y517386D02*X242300Y518136D01*
X240050Y517386D02*X241550D01*
X239300Y518886D02*X242300Y521886D01*
X244100Y522636D02*X244850Y523386D01*
X246350D01*
X247100Y522636D01*
Y518136D01*
X246350Y517386D02*X247100Y518136D01*
X244850Y517386D02*X246350D01*
X244100Y518136D02*X244850Y517386D01*
Y520386D02*X247100D01*
X248900Y517386D02*X249650D01*
X251450Y518136D02*X252200Y517386D01*
X251450Y522636D02*Y518136D01*
Y522636D02*X252200Y523386D01*
X253700D01*
X254450Y522636D01*
Y518136D01*
X253700Y517386D02*X254450Y518136D01*
X252200Y517386D02*X253700D01*
X251450Y518886D02*X254450Y521886D01*
X256250Y518136D02*X257000Y517386D01*
X256250Y522636D02*Y518136D01*
Y522636D02*X257000Y523386D01*
X258500D01*
X259250Y522636D01*
Y518136D01*
X258500Y517386D02*X259250Y518136D01*
X257000Y517386D02*X258500D01*
X256250Y518886D02*X259250Y521886D01*
X261050Y517386D02*X261800D01*
X263600Y518136D02*X264350Y517386D01*
X263600Y522636D02*Y518136D01*
Y522636D02*X264350Y523386D01*
X265850D01*
X266600Y522636D01*
Y518136D01*
X265850Y517386D02*X266600Y518136D01*
X264350Y517386D02*X265850D01*
X263600Y518886D02*X266600Y521886D01*
X269150Y517386D02*X270650D01*
X269900Y523386D02*Y517386D01*
X268400Y521886D02*X269900Y523386D01*
X272450Y517386D02*X273200D01*
X275000Y518136D02*X275750Y517386D01*
X275000Y522636D02*Y518136D01*
Y522636D02*X275750Y523386D01*
X277250D01*
X278000Y522636D01*
Y518136D01*
X277250Y517386D02*X278000Y518136D01*
X275750Y517386D02*X277250D01*
X275000Y518886D02*X278000Y521886D01*
X280550Y517386D02*X282050D01*
X281300Y523386D02*Y517386D01*
X279800Y521886D02*X281300Y523386D01*
X283850Y517386D02*X284600D01*
X287150Y519636D02*Y515136D01*
X286400Y520386D02*X287150Y519636D01*
X287900Y520386D01*
X289400D01*
X290150Y519636D01*
Y518136D01*
X289400Y517386D02*X290150Y518136D01*
X287900Y517386D02*X289400D01*
X287150Y518136D02*X287900Y517386D01*
X292700Y520386D02*X294950D01*
X291950Y519636D02*X292700Y520386D01*
X291950Y519636D02*Y518136D01*
X292700Y517386D01*
X294950D01*
X296750Y523386D02*Y517386D01*
Y518136D02*X297500Y517386D01*
X299000D01*
X299750Y518136D01*
Y519636D02*Y518136D01*
X299000Y520386D02*X299750Y519636D01*
X297500Y520386D02*X299000D01*
X296750Y519636D02*X297500Y520386D01*
X304250D02*X307250D01*
X311750Y523386D02*Y517386D01*
Y523386D02*X314750D01*
X311750Y520386D02*X314000D01*
X318800D02*X319550Y519636D01*
X317300Y520386D02*X318800D01*
X316550Y519636D02*X317300Y520386D01*
X316550Y519636D02*Y518136D01*
X317300Y517386D01*
X319550Y520386D02*Y518136D01*
X320300Y517386D01*
X317300D02*X318800D01*
X319550Y518136D01*
X322100Y523386D02*Y517386D01*
Y518136D02*X322850Y517386D01*
X324350D01*
X325100Y518136D01*
Y519636D02*Y518136D01*
X324350Y520386D02*X325100Y519636D01*
X322850Y520386D02*X324350D01*
X322100Y519636D02*X322850Y520386D01*
X327650Y519636D02*Y517386D01*
Y519636D02*X328400Y520386D01*
X329900D01*
X326900D02*X327650Y519636D01*
X331700Y521886D02*Y521136D01*
Y519636D02*Y517386D01*
X333950Y520386D02*X336200D01*
X333200Y519636D02*X333950Y520386D01*
X333200Y519636D02*Y518136D01*
X333950Y517386D01*
X336200D01*
X340250Y520386D02*X341000Y519636D01*
X338750Y520386D02*X340250D01*
X338000Y519636D02*X338750Y520386D01*
X338000Y519636D02*Y518136D01*
X338750Y517386D01*
X341000Y520386D02*Y518136D01*
X341750Y517386D01*
X338750D02*X340250D01*
X341000Y518136D01*
X344300Y523386D02*Y518136D01*
X345050Y517386D01*
X343550Y521136D02*X345050D01*
X346550Y521886D02*Y521136D01*
Y519636D02*Y517386D01*
X348050Y519636D02*Y518136D01*
Y519636D02*X348800Y520386D01*
X350300D01*
X351050Y519636D01*
Y518136D01*
X350300Y517386D02*X351050Y518136D01*
X348800Y517386D02*X350300D01*
X348050Y518136D02*X348800Y517386D01*
X353600Y519636D02*Y517386D01*
Y519636D02*X354350Y520386D01*
X355100D01*
X355850Y519636D01*
Y517386D01*
X352850Y520386D02*X353600Y519636D01*
X361100Y523386D02*Y517386D01*
X363350Y523386D02*X364100Y522636D01*
Y518136D01*
X363350Y517386D02*X364100Y518136D01*
X360350Y517386D02*X363350D01*
X360350Y523386D02*X363350D01*
X366650Y519636D02*Y517386D01*
Y519636D02*X367400Y520386D01*
X368900D01*
X365900D02*X366650Y519636D01*
X372950Y520386D02*X373700Y519636D01*
X371450Y520386D02*X372950D01*
X370700Y519636D02*X371450Y520386D01*
X370700Y519636D02*Y518136D01*
X371450Y517386D01*
X373700Y520386D02*Y518136D01*
X374450Y517386D01*
X371450D02*X372950D01*
X373700Y518136D01*
X376250Y520386D02*Y518136D01*
X377000Y517386D01*
X377750D01*
X378500Y518136D01*
Y520386D02*Y518136D01*
X379250Y517386D01*
X380000D01*
X380750Y518136D01*
Y520386D02*Y518136D01*
X382550Y521886D02*Y521136D01*
Y519636D02*Y517386D01*
X384800Y519636D02*Y517386D01*
Y519636D02*X385550Y520386D01*
X386300D01*
X387050Y519636D01*
Y517386D01*
X384050Y520386D02*X384800Y519636D01*
X391100Y520386D02*X391850Y519636D01*
X389600Y520386D02*X391100D01*
X388850Y519636D02*X389600Y520386D01*
X388850Y519636D02*Y518136D01*
X389600Y517386D01*
X391100D01*
X391850Y518136D01*
X388850Y515886D02*X389600Y515136D01*
X391100D01*
X391850Y515886D01*
Y520386D02*Y515886D01*
M02*
