G04 start of page 10 for group -4078 idx -4078 *
G04 Title: 26.001.00.01.01.pcb, bottomsilk *
G04 Creator: pcb 4.1.2 *
G04 CreationDate: Sun Jul 29 08:17:15 2018 UTC *
G04 For: bert *
G04 Format: Gerber/RS-274X *
G04 PCB-Dimensions (mil): 2078.74 5078.74 *
G04 PCB-Coordinate-Origin: lower left *
%MOIN*%
%FSLAX25Y25*%
%LNGBO*%
%ADD30C,0.0080*%
G54D30*X169291Y483752D02*X168791Y484252D01*
X167291D02*X168791D01*
X167291D02*X166791Y483752D01*
Y482752D02*Y483752D01*
X169291Y480252D02*X166791Y482752D01*
Y480252D02*X169291D01*
X164091Y484252D02*X163591Y483752D01*
X164091Y484252D02*X165091D01*
X165591Y483752D02*X165091Y484252D01*
X165591Y480752D02*Y483752D01*
Y480752D02*X165091Y480252D01*
X164091Y482252D02*X163591Y481752D01*
X164091Y482252D02*X165591D01*
X164091Y480252D02*X165091D01*
X164091D02*X163591Y480752D01*
Y481752D01*
X161891Y480252D02*X162391D01*
X160691Y480752D02*X160191Y480252D01*
X160691Y480752D02*Y483752D01*
X160191Y484252D01*
X159191D02*X160191D01*
X159191D02*X158691Y483752D01*
Y480752D02*Y483752D01*
X159191Y480252D02*X158691Y480752D01*
X159191Y480252D02*X160191D01*
X160691Y481252D02*X158691Y483252D01*
X157491Y480752D02*X156991Y480252D01*
X157491Y480752D02*Y483752D01*
X156991Y484252D01*
X155991D02*X156991D01*
X155991D02*X155491Y483752D01*
Y480752D02*Y483752D01*
X155991Y480252D02*X155491Y480752D01*
X155991Y480252D02*X156991D01*
X157491Y481252D02*X155491Y483252D01*
X152791Y480252D02*X153791D01*
X153291D02*Y484252D01*
X154291Y483252D02*X153291Y484252D01*
X151091Y480252D02*X151591D01*
X149891Y480752D02*X149391Y480252D01*
X149891Y480752D02*Y483752D01*
X149391Y484252D01*
X148391D02*X149391D01*
X148391D02*X147891Y483752D01*
Y480752D02*Y483752D01*
X148391Y480252D02*X147891Y480752D01*
X148391Y480252D02*X149391D01*
X149891Y481252D02*X147891Y483252D01*
X146691Y480752D02*X146191Y480252D01*
X146691Y480752D02*Y483752D01*
X146191Y484252D01*
X145191D02*X146191D01*
X145191D02*X144691Y483752D01*
Y480752D02*Y483752D01*
X145191Y480252D02*X144691Y480752D01*
X145191Y480252D02*X146191D01*
X146691Y481252D02*X144691Y483252D01*
X142991Y480252D02*X143491D01*
X141791Y480752D02*X141291Y480252D01*
X141791Y480752D02*Y483752D01*
X141291Y484252D01*
X140291D02*X141291D01*
X140291D02*X139791Y483752D01*
Y480752D02*Y483752D01*
X140291Y480252D02*X139791Y480752D01*
X140291Y480252D02*X141291D01*
X141791Y481252D02*X139791Y483252D01*
X137091Y480252D02*X138091D01*
X137591D02*Y484252D01*
X138591Y483252D02*X137591Y484252D01*
X135391Y480252D02*X135891D01*
X134191Y480752D02*X133691Y480252D01*
X134191Y480752D02*Y483752D01*
X133691Y484252D01*
X132691D02*X133691D01*
X132691D02*X132191Y483752D01*
Y480752D02*Y483752D01*
X132691Y480252D02*X132191Y480752D01*
X132691Y480252D02*X133691D01*
X134191Y481252D02*X132191Y483252D01*
X129491Y480252D02*X130491D01*
X129991D02*Y484252D01*
X130991Y483252D02*X129991Y484252D01*
X169291Y468941D02*X168791Y468441D01*
X169291Y471941D02*X168791Y472441D01*
X169291Y468941D02*Y471941D01*
X165591Y468441D02*X167091D01*
X167591Y468941D02*X167091Y468441D01*
X167591Y468941D02*Y471941D01*
X167091Y472441D01*
X165591D02*X167091D01*
X164391D02*X163891Y471941D01*
Y468941D02*Y471941D01*
X164391Y468441D02*X163891Y468941D01*
X158891Y468441D02*X160891D01*
X158891D02*X158391Y468941D01*
Y469941D01*
X158891Y470441D02*X158391Y469941D01*
X158891Y470441D02*X160391D01*
Y468441D02*Y472441D01*
X158891D02*X160891D01*
X158891D02*X158391Y471941D01*
Y470941D02*Y471941D01*
X158891Y470441D02*X158391Y470941D01*
X155191Y468441D02*X156691D01*
X157191Y468941D02*X156691Y468441D01*
X157191Y468941D02*Y469941D01*
X156691Y470441D01*
X155691D02*X156691D01*
X155691D02*X155191Y469941D01*
Y469441D02*X157191D01*
X155191D02*Y469941D01*
X153491Y468441D02*Y469941D01*
X152991Y470441D01*
X151991D02*X152991D01*
X153991D02*X153491Y469941D01*
X150291Y468941D02*Y472441D01*
Y468941D02*X149791Y468441D01*
Y470941D02*X150791D01*
X144991Y472441D02*X146991D01*
X145991Y468441D02*Y472441D01*
X143791Y470941D02*Y471441D01*
Y468441D02*Y469941D01*
X142291Y468441D02*Y469941D01*
X141791Y470441D01*
X141291D02*X141791D01*
X141291D02*X140791Y469941D01*
Y468441D02*Y469941D01*
X140291Y470441D01*
X139791D02*X140291D01*
X139791D02*X139291Y469941D01*
Y468441D02*Y469941D01*
X142791Y470441D02*X142291Y469941D01*
X137591Y468441D02*Y469941D01*
X137091Y470441D01*
X136591D02*X137091D01*
X136591D02*X136091Y469941D01*
Y468441D02*Y469941D01*
X135591Y470441D01*
X135091D02*X135591D01*
X135091D02*X134591Y469941D01*
Y468441D02*Y469941D01*
X138091Y470441D02*X137591Y469941D01*
X131391Y468441D02*X132891D01*
X133391Y468941D02*X132891Y468441D01*
X133391Y468941D02*Y469941D01*
X132891Y470441D01*
X131891D02*X132891D01*
X131891D02*X131391Y469941D01*
Y469441D02*X133391D01*
X131391D02*Y469941D01*
X129691Y468441D02*Y469941D01*
X129191Y470441D01*
X128191D02*X129191D01*
X130191D02*X129691Y469941D01*
X126491Y468441D02*Y469941D01*
X125991Y470441D01*
X125491D02*X125991D01*
X125491D02*X124991Y469941D01*
Y468441D02*Y469941D01*
X124491Y470441D01*
X123991D02*X124491D01*
X123991D02*X123491Y469941D01*
Y468441D02*Y469941D01*
X126991Y470441D02*X126491Y469941D01*
X120791Y470441D02*X120291Y469941D01*
X120791Y470441D02*X121791D01*
X122291Y469941D02*X121791Y470441D01*
X122291Y468941D02*Y469941D01*
Y468941D02*X121791Y468441D01*
X120291Y468941D02*Y470441D01*
Y468941D02*X119791Y468441D01*
X120791D02*X121791D01*
X120791D02*X120291Y468941D01*
X118091Y468441D02*Y469941D01*
X117591Y470441D01*
X117091D02*X117591D01*
X117091D02*X116591Y469941D01*
Y468441D02*Y469941D01*
X118591Y470441D02*X118091Y469941D01*
M02*
