M48
INCH
T47C0.020
T46C0.110
T45C0.066
T44C0.046
T43C0.042
T42C0.040
T41C0.035
%
T47
X012008Y015764
X012008Y013764
T41
X001575Y034449
X001575Y033465
X001575Y032480
X001575Y031496
X001575Y030512
X001575Y029528
X001575Y028543
X001575Y027559
X001575Y026575
X001575Y025591
X001575Y024606
X001575Y023622
X001575Y022638
X001575Y021654
X001575Y020669
X001575Y019685
X001575Y018701
X001575Y017717
X001575Y016732
X001575Y015748
X001575Y014764
X001575Y013780
X001575Y012795
X001575Y011811
X001575Y010827
X001575Y009842
X001575Y008858
X001575Y007874
X001575Y006890
X001575Y005906
X001575Y004921
T42
X003134Y032996
X003134Y031496
X003134Y029996
X004134Y037795
X004134Y001575
X005134Y032996
X005134Y031496
X005134Y029996
X006496Y029665
X006496Y024665
X011008Y032996
X011008Y031496
X011008Y029996
X012008Y037795
X012008Y001575
X013008Y032996
X013008Y031496
X013008Y029996
T43
X008858Y029681
X008858Y022681
T44
X003437Y020051
X003437Y019051
X003437Y018051
X003437Y017051
X003437Y016051
X003437Y015051
X003437Y014051
X003437Y013051
X003437Y012051
X003437Y011051
X004437Y020051
X004437Y019051
X004437Y018051
X004437Y017051
X004437Y016051
X004437Y015051
X004437Y014051
X004437Y013051
X004437Y012051
X004437Y011051
X007571Y031496
X008571Y031496
T45
X012008Y007874
T46
X009508Y010374
X014508Y010374
X014508Y005374
M30
