G04 start of page 9 for group -4079 idx -4079 *
G04 Title: 26.002.00.01.01.pcb, topsilk *
G04 Creator: pcb 4.1.2 *
G04 CreationDate: Sun Jul 29 08:17:15 2018 UTC *
G04 For: bert *
G04 Format: Gerber/RS-274X *
G04 PCB-Dimensions (mil): 1968.50 3937.01 *
G04 PCB-Coordinate-Origin: lower left *
%MOIN*%
%FSLAX25Y25*%
%LNGTO*%
%ADD69C,0.0000*%
%ADD68C,0.0100*%
%ADD67C,0.0080*%
G54D67*X9843Y9842D02*X19686D01*
X175197Y383858D02*X165355D01*
X175197D02*Y374015D01*
X9843Y9842D02*Y19685D01*
X15748Y192914D02*Y190945D01*
Y200788D02*Y202756D01*
X23622Y196851D02*X29528D01*
G54D68*X29370Y205012D02*Y106012D01*
X49370D01*
Y205012D02*Y106012D01*
X29370Y205012D02*X49370D01*
X9843Y383858D02*Y373858D01*
X19843Y383858D02*X9843D01*
X26339Y334961D02*Y294961D01*
X56339Y334961D02*X26339D01*
X56339Y294961D02*Y334961D01*
X26339Y294961D02*X56339D01*
X60461Y283554D02*Y259754D01*
X69461Y283554D02*Y259754D01*
X60461D02*X69461D01*
X60461Y283554D02*X69461D01*
X64961Y259754D02*Y251354D01*
Y291954D02*Y283554D01*
X80883Y281811D02*Y241811D01*
X96283Y281811D02*Y241811D01*
X80883D02*X96283D01*
X80883Y281811D02*X96283D01*
X88583Y241811D02*Y231511D01*
Y292111D02*Y281811D01*
X105079Y334961D02*Y294961D01*
X135079Y334961D02*X105079D01*
X135079Y294961D02*Y334961D01*
X105079Y294961D02*X135079D01*
X90709Y309261D02*Y320661D01*
X90668Y320711D02*G75*G03X90668Y309211I-9959J-5750D01*G01*
X175197Y19842D02*Y9842D01*
X165197D01*
G54D69*X108079Y38740D02*X80079Y66740D01*
X160079Y118740D02*X80079D01*
X160079Y38740D02*Y118740D01*
X108079Y38740D02*X160079D01*
X80079Y118740D02*Y66740D01*
G54D68*X85679Y68740D02*X110079Y44340D01*
Y113140D02*X130079D01*
X154479Y68740D02*Y88740D01*
X110079Y44340D02*X130079D01*
X85679Y88740D02*Y68740D01*
X104079Y78740D02*G75*G03X104079Y78740I16000J0D01*G01*
X101379D02*G75*G03X101379Y78740I18700J0D01*G01*
X117579Y140138D02*X122579D01*
Y155138D02*Y140138D01*
X117579Y155138D02*X122579D01*
X117579D02*Y140138D01*
X120079Y157638D02*Y155138D01*
Y140138D02*Y137638D01*
G54D67*X47839Y18248D02*Y15248D01*
X47339Y18748D02*X47839Y18248D01*
X48339Y18748D01*
X49339D01*
X49839Y18248D01*
Y17248D01*
X49339Y16748D02*X49839Y17248D01*
X48339Y16748D02*X49339D01*
X47839Y17248D02*X48339Y16748D01*
X51039Y20248D02*X51539Y20748D01*
X52539D01*
X53039Y20248D01*
Y17248D01*
X52539Y16748D02*X53039Y17248D01*
X51539Y16748D02*X52539D01*
X51039Y17248D02*X51539Y16748D01*
Y18748D02*X53039D01*
X126579Y18248D02*Y15248D01*
X126079Y18748D02*X126579Y18248D01*
X127079Y18748D01*
X128079D01*
X128579Y18248D01*
Y17248D01*
X128079Y16748D02*X128579Y17248D01*
X127079Y16748D02*X128079D01*
X126579Y17248D02*X127079Y16748D01*
X129779Y18748D02*X131779Y20748D01*
X129779Y18748D02*X132279D01*
X131779Y20748D02*Y16748D01*
X13779Y352863D02*X17779D01*
X13779Y354363D02*Y352363D01*
Y354363D02*X14279Y354863D01*
X15279D01*
X15779Y354363D02*X15279Y354863D01*
X15779Y354363D02*Y352863D01*
X17779Y357563D02*Y356563D01*
X13779Y357063D02*X17779D01*
X14779Y356063D02*X13779Y357063D01*
X17279Y358763D02*X17779Y359263D01*
X14279Y358763D02*X17279D01*
X14279D02*X13779Y359263D01*
Y360263D02*Y359263D01*
Y360263D02*X14279Y360763D01*
X17279D01*
X17779Y360263D02*X17279Y360763D01*
X17779Y360263D02*Y359263D01*
X16779Y358763D02*X14779Y360763D01*
X14279Y361963D02*X13779Y362463D01*
Y363963D02*Y362463D01*
Y363963D02*X14279Y364463D01*
X15279D01*
X17779Y361963D02*X15279Y364463D01*
X17779D02*Y361963D01*
X73524Y335741D02*Y331741D01*
X75024Y335741D02*X75524Y335241D01*
Y332241D01*
X75024Y331741D02*X75524Y332241D01*
X73024Y331741D02*X75024D01*
X73024Y335741D02*X75024D01*
X77224Y331741D02*X78224D01*
X77724Y335741D02*Y331741D01*
X76724Y334741D02*X77724Y335741D01*
X79424Y332241D02*X79924Y331741D01*
X79424Y335241D02*Y332241D01*
Y335241D02*X79924Y335741D01*
X80924D01*
X81424Y335241D01*
Y332241D01*
X80924Y331741D02*X81424Y332241D01*
X79924Y331741D02*X80924D01*
X79424Y332741D02*X81424Y334741D01*
X82624Y333741D02*X84624Y335741D01*
X82624Y333741D02*X85124D01*
X84624Y335741D02*Y331741D01*
X29241Y211882D02*X30741D01*
Y208382D01*
X30241Y207882D02*X30741Y208382D01*
X29741Y207882D02*X30241D01*
X29241Y208382D02*X29741Y207882D01*
X32441D02*X33441D01*
X32941Y211882D02*Y207882D01*
X31941Y210882D02*X32941Y211882D01*
X34641Y208382D02*X35141Y207882D01*
X34641Y211382D02*Y208382D01*
Y211382D02*X35141Y211882D01*
X36141D01*
X36641Y211382D01*
Y208382D01*
X36141Y207882D02*X36641Y208382D01*
X35141Y207882D02*X36141D01*
X34641Y208882D02*X36641Y210882D01*
X37841Y207882D02*X40341Y210382D01*
Y211882D02*Y210382D01*
X37841Y211882D02*X40341D01*
X35465Y291339D02*X35965Y290839D01*
X33965Y291339D02*X35465D01*
X33465Y290839D02*X33965Y291339D01*
X33465Y290839D02*Y289839D01*
X33965Y289339D01*
X35465D01*
X35965Y288839D01*
Y287839D01*
X35465Y287339D02*X35965Y287839D01*
X33965Y287339D02*X35465D01*
X33465Y287839D02*X33965Y287339D01*
X37665D02*X38665D01*
X38165Y291339D02*Y287339D01*
X37165Y290339D02*X38165Y291339D01*
X39865Y287839D02*X40365Y287339D01*
X39865Y290839D02*Y287839D01*
Y290839D02*X40365Y291339D01*
X41365D01*
X41865Y290839D01*
Y287839D01*
X41365Y287339D02*X41865Y287839D01*
X40365Y287339D02*X41365D01*
X39865Y288339D02*X41865Y290339D01*
X43065Y290839D02*X43565Y291339D01*
X45065D01*
X45565Y290839D01*
Y289839D01*
X43065Y287339D02*X45565Y289839D01*
X43065Y287339D02*X45565D01*
X114205Y291339D02*X114705Y290839D01*
X112705Y291339D02*X114205D01*
X112205Y290839D02*X112705Y291339D01*
X112205Y290839D02*Y289839D01*
X112705Y289339D01*
X114205D01*
X114705Y288839D01*
Y287839D01*
X114205Y287339D02*X114705Y287839D01*
X112705Y287339D02*X114205D01*
X112205Y287839D02*X112705Y287339D01*
X116405D02*X117405D01*
X116905Y291339D02*Y287339D01*
X115905Y290339D02*X116905Y291339D01*
X118605Y287839D02*X119105Y287339D01*
X118605Y290839D02*Y287839D01*
Y290839D02*X119105Y291339D01*
X120105D01*
X120605Y290839D01*
Y287839D01*
X120105Y287339D02*X120605Y287839D01*
X119105Y287339D02*X120105D01*
X118605Y288339D02*X120605Y290339D01*
X122305Y287339D02*X123305D01*
X122805Y291339D02*Y287339D01*
X121805Y290339D02*X122805Y291339D01*
X53460Y263496D02*Y261496D01*
Y263496D02*X53960Y263996D01*
X54960D01*
X55460Y263496D02*X54960Y263996D01*
X55460Y263496D02*Y261996D01*
X53460D02*X57460D01*
X55460D02*X57460Y263996D01*
Y266696D02*Y265696D01*
X53460Y266196D02*X57460D01*
X54460Y265196D02*X53460Y266196D01*
X57460Y269396D02*Y268396D01*
X53460Y268896D02*X57460D01*
X54460Y267896D02*X53460Y268896D01*
X57460Y272096D02*Y271096D01*
X53460Y271596D02*X57460D01*
X54460Y270596D02*X53460Y271596D01*
X73147Y245780D02*Y243780D01*
Y245780D02*X73647Y246280D01*
X74647D01*
X75147Y245780D02*X74647Y246280D01*
X75147Y245780D02*Y244280D01*
X73147D02*X77147D01*
X75147D02*X77147Y246280D01*
Y248980D02*Y247980D01*
X73147Y248480D02*X77147D01*
X74147Y247480D02*X73147Y248480D01*
X76647Y250180D02*X77147Y250680D01*
X73647Y250180D02*X76647D01*
X73647D02*X73147Y250680D01*
Y251680D02*Y250680D01*
Y251680D02*X73647Y252180D01*
X76647D01*
X77147Y251680D02*X76647Y252180D01*
X77147Y251680D02*Y250680D01*
X76147Y250180D02*X74147Y252180D01*
X77147Y253380D02*X74647Y255880D01*
X73147D02*X74647D01*
X73147D02*Y253380D01*
X114174Y35434D02*X115674D01*
Y31934D01*
X115174Y31434D02*X115674Y31934D01*
X114674Y31434D02*X115174D01*
X114174Y31934D02*X114674Y31434D01*
X117374D02*X118374D01*
X117874Y35434D02*Y31434D01*
X116874Y34434D02*X117874Y35434D01*
X119574Y31934D02*X120074Y31434D01*
X119574Y34934D02*Y31934D01*
Y34934D02*X120074Y35434D01*
X121074D01*
X121574Y34934D01*
Y31934D01*
X121074Y31434D02*X121574Y31934D01*
X120074Y31434D02*X121074D01*
X119574Y32434D02*X121574Y34434D01*
X124274Y35434D02*X124774Y34934D01*
X123274Y35434D02*X124274D01*
X122774Y34934D02*X123274Y35434D01*
X122774Y34934D02*Y31934D01*
X123274Y31434D01*
X124274Y33434D02*X124774Y32934D01*
X122774Y33434D02*X124274D01*
X123274Y31434D02*X124274D01*
X124774Y31934D01*
Y32934D02*Y31934D01*
X114237Y143732D02*Y142232D01*
X113737Y141732D02*X114237Y142232D01*
X110737Y141732D02*X113737D01*
X110737D02*X110237Y142232D01*
Y143732D02*Y142232D01*
X114237Y146432D02*Y145432D01*
X110237Y145932D02*X114237D01*
X111237Y144932D02*X110237Y145932D01*
X113737Y147632D02*X114237Y148132D01*
X110737Y147632D02*X113737D01*
X110737D02*X110237Y148132D01*
Y149132D02*Y148132D01*
Y149132D02*X110737Y149632D01*
X113737D01*
X114237Y149132D02*X113737Y149632D01*
X114237Y149132D02*Y148132D01*
X113237Y147632D02*X111237Y149632D01*
X114237Y152332D02*Y151332D01*
X110237Y151832D02*X114237D01*
X111237Y150832D02*X110237Y151832D01*
X126579Y380453D02*Y377453D01*
X126079Y380953D02*X126579Y380453D01*
X127079Y380953D01*
X128079D01*
X128579Y380453D01*
Y379453D01*
X128079Y378953D02*X128579Y379453D01*
X127079Y378953D02*X128079D01*
X126579Y379453D02*X127079Y378953D01*
X129779Y382453D02*X130279Y382953D01*
X131779D01*
X132279Y382453D01*
Y381453D01*
X129779Y378953D02*X132279Y381453D01*
X129779Y378953D02*X132279D01*
X47839Y380453D02*Y377453D01*
X47339Y380953D02*X47839Y380453D01*
X48339Y380953D01*
X49339D01*
X49839Y380453D01*
Y379453D01*
X49339Y378953D02*X49839Y379453D01*
X48339Y378953D02*X49339D01*
X47839Y379453D02*X48339Y378953D01*
X51539D02*X52539D01*
X52039Y382953D02*Y378953D01*
X51039Y381953D02*X52039Y382953D01*
M02*
