M48
INCH
T77C0.035
T76C0.067
T75C0.020
T74C0.066
T73C0.110
T72C0.042
T71C0.046
T70C0.040
%
T75
X010433Y014583
X010433Y012583
T77
X005610Y031693
X009154Y037106
X012795Y032972
T70
X006087Y035949
X006087Y034449
X006087Y032949
X007087Y040551
X007087Y004724
X008087Y035949
X008087Y034449
X008087Y032949
X012461Y030709
X013961Y035949
X013961Y034449
X013961Y032949
X014961Y040551
X014961Y004724
X015961Y035949
X015961Y034449
X015961Y032949
X017461Y030709
T72
X004528Y037638
X004528Y036638
X004528Y035638
X004528Y034638
X004528Y033638
X004528Y032638
X004528Y031638
X004528Y030638
X004528Y029638
X004528Y028638
X004528Y027638
X004528Y026638
X004528Y025638
X004528Y024638
X004528Y023638
X004528Y022638
X004528Y021638
X004528Y020638
X004528Y019638
X004528Y018638
X004528Y017638
X004528Y016638
X004528Y015638
X004528Y014638
X004528Y013638
X004528Y012638
X004528Y011638
X004528Y010638
X004528Y009638
X004528Y008638
X004528Y007638
X011461Y028839
X018461Y028839
T71
X006587Y023551
X006587Y022551
X006587Y021551
X006587Y020551
X006587Y019551
X006587Y018551
X006587Y017551
X006587Y016551
X006587Y015551
X006587Y014551
X006587Y013551
X006587Y012551
X006587Y011551
X006587Y010551
X006587Y009551
X006587Y008551
X006587Y007551
X007587Y023551
X007587Y022551
X007587Y021551
X007587Y020551
X007587Y019551
X007587Y018551
X007587Y017551
X007587Y016551
X007587Y015551
X007587Y014551
X007587Y013551
X007587Y012551
X007587Y011551
X007587Y010551
X007587Y009551
X007587Y008551
X007587Y007551
X010524Y034449
X011524Y034449
T74
X014961Y010827
T76
X012961Y016138
X014961Y015838
X016961Y016138
T73
X012461Y013327
X017461Y013327
X017461Y008327
M30
