M48
INCH
T31C0.020
T30C0.046
T29C0.038
%
T31
X001000Y010250
X002500Y008000
X002500Y005750
X003500Y004000
X004500Y002000
X006250Y008000
X006250Y005750
X006500Y002750
X006750Y006250
X007250Y004000
X008000Y004750
X009500Y010250
X010250Y008000
X011250Y004000
X012250Y010250
X012250Y004250
X013000Y002750
X014000Y010250
X015500Y008000
X015500Y005750
X016500Y004000
X017500Y002750
X019250Y008000
X019250Y005750
X019750Y006250
X020250Y004000
X021000Y004750
X022500Y010250
X023250Y008000
X024250Y004000
X025250Y008750
X025250Y004250
T29
X000500Y000500
X001500Y000500
X002500Y000500
X003500Y000500
X004500Y000500
X005500Y000500
X006500Y000500
X007500Y000500
T30
X010250Y010750
X013500Y001750
X023250Y010750
M30
