G04 start of page 5 for group 3 idx 3 *
G04 Title: 26.002.00.01.01.pcb, keepout *
G04 Creator: pcb 4.1.2 *
G04 CreationDate: Sat Aug 11 09:36:16 2018 UTC *
G04 For: bert *
G04 Format: Gerber/RS-274X *
G04 PCB-Dimensions (mil): 2440.94 4527.56 *
G04 PCB-Coordinate-Origin: lower left *
%MOIN*%
%FSLAX25Y25*%
%LNG3L*%
%ADD69C,0.0670*%
%ADD68C,0.0200*%
%ADD67C,0.1100*%
%ADD66C,0.0420*%
%ADD65C,0.0460*%
%ADD64C,0.1457*%
%ADD63C,0.0400*%
%ADD62C,0.0350*%
%ADD61C,0.0900*%
%ADD60C,0.0500*%
%ADD59C,0.1260*%
%ADD58C,0.0660*%
%ADD57C,0.2760*%
%ADD56C,0.0720*%
%ADD55C,0.0750*%
%ADD54C,0.0600*%
%ADD53C,0.0001*%
%ADD52C,0.0650*%
%ADD51C,0.0100*%
G54D51*X90551Y387795D02*G75*G03X90551Y387795I19685J0D01*G01*
Y64961D02*G75*G03X90551Y64961I19685J0D01*G01*
G54D52*X70866Y405512D03*
G54D53*G36*
X57867Y347489D02*Y341489D01*
X63867D01*
Y347489D01*
X57867D01*
G37*
G54D54*X60867Y359489D03*
X80867Y344489D03*
Y359489D03*
G54D52*X149606Y405512D03*
G54D54*X80867Y329489D03*
G54D53*G36*
X136607Y347489D02*Y341489D01*
X142607D01*
Y347489D01*
X136607D01*
G37*
G54D54*X139607Y359489D03*
Y329489D03*
X159607Y344489D03*
Y359489D03*
G54D53*G36*
X111487Y348239D02*Y340739D01*
X118987D01*
Y348239D01*
X111487D01*
G37*
G54D55*X105237Y344489D03*
G54D53*G36*
X121606Y310087D02*Y304087D01*
X127606D01*
Y310087D01*
X121606D01*
G37*
G54D54*X159607Y329489D03*
X174606Y307087D03*
G54D53*G36*
X181606Y291386D02*Y285386D01*
X187606D01*
Y291386D01*
X181606D01*
G37*
G54D54*X114606Y288386D03*
X60867Y329489D03*
G54D56*X45276Y376378D03*
Y366378D03*
Y356378D03*
Y346378D03*
Y336378D03*
Y326378D03*
Y316378D03*
Y306378D03*
Y296378D03*
Y286378D03*
Y276378D03*
Y266378D03*
Y256378D03*
Y246378D03*
Y236378D03*
G54D53*G36*
X41676Y229978D02*Y222778D01*
X48876D01*
Y229978D01*
X41676D01*
G37*
G54D52*X70866Y47244D03*
X149606D03*
G54D57*X174607Y83268D03*
G54D58*X75866Y85512D03*
Y75512D03*
G54D56*X45276Y216378D03*
Y206378D03*
Y196378D03*
Y186378D03*
Y176378D03*
Y166378D03*
Y156378D03*
Y146378D03*
Y136378D03*
Y126378D03*
Y116378D03*
Y106378D03*
Y96378D03*
Y86378D03*
Y76378D03*
G54D53*G36*
X62566Y238812D02*Y232212D01*
X69166D01*
Y238812D01*
X62566D01*
G37*
G54D58*X75866Y235512D03*
X65866Y225512D03*
Y215512D03*
Y205512D03*
X75866Y225512D03*
Y215512D03*
Y205512D03*
Y195512D03*
Y185512D03*
Y175512D03*
X65866Y195512D03*
Y185512D03*
Y175512D03*
X75866Y165512D03*
G54D59*X149607Y108268D03*
G54D57*X174607Y133268D03*
X124607D03*
G54D53*G36*
X101831Y128327D02*Y123327D01*
X106831D01*
Y128327D01*
X101831D01*
G37*
G54D60*X104331Y145827D03*
G54D61*X169831Y160670D03*
X149831Y157670D03*
X129831Y160670D03*
G54D58*X75866Y155512D03*
Y145512D03*
Y135512D03*
Y125512D03*
Y115512D03*
X65866Y165512D03*
Y155512D03*
Y145512D03*
Y135512D03*
Y125512D03*
Y115512D03*
Y105512D03*
X75866D03*
X65866Y95512D03*
X75866D03*
X65866Y85512D03*
Y75512D03*
G54D54*X127953Y329724D03*
X91535Y371063D03*
X56102Y316929D03*
G54D62*G54D63*G54D64*G54D63*G54D65*G54D63*G54D66*G54D63*G54D66*G54D63*G54D64*G54D67*G54D65*G54D66*G54D65*G54D58*G54D67*G54D68*G54D69*G54D65*M02*
