G04 start of page 3 for group 1 idx 1 *
G04 Title: 26.007.01.01.01, solder *
G04 Creator: pcb 4.2.2 *
G04 CreationDate: Sat Feb 13 13:51:24 2021 UTC *
G04 For: bert *
G04 Format: Gerber/RS-274X *
G04 PCB-Dimensions (mil): 2600.00 1150.00 *
G04 PCB-Coordinate-Origin: lower left *
%MOIN*%
%FSLAX25Y25*%
%LNGBL*%
%ADD27C,0.0460*%
%ADD26C,0.0380*%
%ADD25C,0.0200*%
%ADD24C,0.0400*%
%ADD23C,0.0650*%
%ADD22C,0.0600*%
%ADD21C,0.0100*%
%ADD20C,0.0001*%
G54D20*G36*
X203745Y37269D02*X203866Y37319D01*
X204269Y37565D01*
X204628Y37872D01*
X204935Y38231D01*
X205099Y38500D01*
X208500D01*
Y25621D01*
X207034Y24155D01*
X207034Y24311D01*
X206997Y24464D01*
X206937Y24609D01*
X206855Y24744D01*
X206752Y24863D01*
X206633Y24966D01*
X206498Y25048D01*
X206353Y25108D01*
X206200Y25145D01*
X206043Y25154D01*
X203745Y25151D01*
Y29852D01*
X206200Y29855D01*
X206353Y29892D01*
X206498Y29952D01*
X206633Y30034D01*
X206752Y30137D01*
X206855Y30256D01*
X206937Y30391D01*
X206997Y30536D01*
X207034Y30689D01*
X207043Y30846D01*
X207034Y36121D01*
X206997Y36274D01*
X206937Y36419D01*
X206855Y36554D01*
X206752Y36673D01*
X206633Y36776D01*
X206498Y36858D01*
X206353Y36918D01*
X206200Y36955D01*
X206043Y36964D01*
X203745Y36961D01*
Y37269D01*
G37*
G36*
X254909Y115000D02*X260000D01*
Y0D01*
X254909D01*
Y40701D01*
X254935Y40731D01*
X255181Y41134D01*
X255362Y41570D01*
X255472Y42029D01*
X255500Y42500D01*
X255472Y42971D01*
X255362Y43430D01*
X255181Y43866D01*
X254935Y44269D01*
X254909Y44299D01*
Y86069D01*
X254937Y86073D01*
X255012Y86098D01*
X255082Y86134D01*
X255145Y86181D01*
X255200Y86237D01*
X255246Y86301D01*
X255280Y86372D01*
X255379Y86644D01*
X255448Y86925D01*
X255490Y87211D01*
X255503Y87500D01*
X255490Y87789D01*
X255448Y88075D01*
X255379Y88356D01*
X255283Y88629D01*
X255248Y88700D01*
X255202Y88764D01*
X255147Y88821D01*
X255083Y88868D01*
X255013Y88904D01*
X254938Y88929D01*
X254909Y88934D01*
Y115000D01*
G37*
G36*
Y0D02*X252501D01*
Y10380D01*
X253519Y11398D01*
X253564Y11436D01*
X253717Y11615D01*
X253717Y11616D01*
X253841Y11817D01*
X253931Y12035D01*
X253986Y12265D01*
X254005Y12500D01*
X254000Y12559D01*
Y39901D01*
X254269Y40065D01*
X254628Y40372D01*
X254909Y40701D01*
Y0D01*
G37*
G36*
X252501Y115000D02*X254909D01*
Y88934D01*
X254860Y88942D01*
X254781Y88942D01*
X254703Y88931D01*
X254627Y88907D01*
X254556Y88871D01*
X254492Y88825D01*
X254436Y88770D01*
X254389Y88706D01*
X254353Y88636D01*
X254328Y88561D01*
X254315Y88483D01*
X254314Y88404D01*
X254326Y88326D01*
X254351Y88251D01*
X254417Y88070D01*
X254463Y87883D01*
X254491Y87692D01*
X254500Y87500D01*
X254491Y87308D01*
X254463Y87117D01*
X254417Y86930D01*
X254353Y86748D01*
X254328Y86674D01*
X254316Y86596D01*
X254317Y86517D01*
X254330Y86440D01*
X254355Y86365D01*
X254391Y86295D01*
X254438Y86232D01*
X254494Y86176D01*
X254558Y86131D01*
X254628Y86095D01*
X254703Y86072D01*
X254781Y86060D01*
X254860Y86060D01*
X254909Y86069D01*
Y44299D01*
X254628Y44628D01*
X254269Y44935D01*
X253866Y45181D01*
X253430Y45362D01*
X252971Y45472D01*
X252501Y45509D01*
Y84497D01*
X252789Y84510D01*
X253075Y84552D01*
X253356Y84621D01*
X253629Y84717D01*
X253700Y84752D01*
X253764Y84798D01*
X253821Y84853D01*
X253868Y84917D01*
X253904Y84987D01*
X253929Y85062D01*
X253942Y85140D01*
X253942Y85219D01*
X253931Y85297D01*
X253907Y85373D01*
X253871Y85444D01*
X253825Y85508D01*
X253770Y85564D01*
X253706Y85611D01*
X253636Y85647D01*
X253561Y85672D01*
X253483Y85685D01*
X253404Y85686D01*
X253326Y85674D01*
X253251Y85649D01*
X253070Y85583D01*
X252883Y85537D01*
X252692Y85509D01*
X252501Y85500D01*
Y89500D01*
X252692Y89491D01*
X252883Y89463D01*
X253070Y89417D01*
X253252Y89353D01*
X253326Y89328D01*
X253404Y89316D01*
X253483Y89317D01*
X253560Y89330D01*
X253635Y89355D01*
X253705Y89391D01*
X253768Y89438D01*
X253824Y89494D01*
X253869Y89558D01*
X253905Y89628D01*
X253928Y89703D01*
X253940Y89781D01*
X253940Y89860D01*
X253927Y89937D01*
X253902Y90012D01*
X253866Y90082D01*
X253819Y90145D01*
X253763Y90200D01*
X253699Y90246D01*
X253628Y90280D01*
X253356Y90379D01*
X253075Y90448D01*
X252789Y90490D01*
X252501Y90503D01*
Y115000D01*
G37*
G36*
Y0D02*X203745D01*
Y8500D01*
X249941D01*
X250000Y8495D01*
X250235Y8514D01*
X250235Y8514D01*
X250465Y8569D01*
X250683Y8659D01*
X250884Y8783D01*
X251064Y8936D01*
X251102Y8981D01*
X252501Y10380D01*
Y0D01*
G37*
G36*
X250091Y40701D02*X250372Y40372D01*
X250731Y40065D01*
X251000Y39901D01*
Y13121D01*
X250091Y12213D01*
Y40701D01*
G37*
G36*
Y115000D02*X252501D01*
Y90503D01*
X252500Y90503D01*
X252211Y90490D01*
X251925Y90448D01*
X251644Y90379D01*
X251371Y90283D01*
X251300Y90248D01*
X251236Y90202D01*
X251179Y90147D01*
X251132Y90083D01*
X251096Y90013D01*
X251071Y89938D01*
X251058Y89860D01*
X251058Y89781D01*
X251069Y89703D01*
X251093Y89627D01*
X251129Y89556D01*
X251175Y89492D01*
X251230Y89436D01*
X251294Y89389D01*
X251364Y89353D01*
X251439Y89328D01*
X251517Y89315D01*
X251596Y89314D01*
X251674Y89326D01*
X251749Y89351D01*
X251930Y89417D01*
X252117Y89463D01*
X252308Y89491D01*
X252500Y89500D01*
X252501Y89500D01*
Y85500D01*
X252500Y85500D01*
X252308Y85509D01*
X252117Y85537D01*
X251930Y85583D01*
X251748Y85647D01*
X251674Y85672D01*
X251596Y85684D01*
X251517Y85683D01*
X251440Y85670D01*
X251365Y85645D01*
X251295Y85609D01*
X251232Y85562D01*
X251176Y85506D01*
X251131Y85442D01*
X251095Y85372D01*
X251072Y85297D01*
X251060Y85219D01*
X251060Y85140D01*
X251073Y85063D01*
X251098Y84988D01*
X251134Y84918D01*
X251181Y84855D01*
X251237Y84800D01*
X251301Y84754D01*
X251372Y84720D01*
X251644Y84621D01*
X251925Y84552D01*
X252211Y84510D01*
X252500Y84497D01*
X252501Y84497D01*
Y45509D01*
X252500Y45509D01*
X252029Y45472D01*
X251570Y45362D01*
X251134Y45181D01*
X250731Y44935D01*
X250372Y44628D01*
X250091Y44299D01*
Y86066D01*
X250140Y86058D01*
X250219Y86058D01*
X250297Y86069D01*
X250373Y86093D01*
X250444Y86129D01*
X250508Y86175D01*
X250564Y86230D01*
X250611Y86294D01*
X250647Y86364D01*
X250672Y86439D01*
X250685Y86517D01*
X250686Y86596D01*
X250674Y86674D01*
X250649Y86749D01*
X250583Y86930D01*
X250537Y87117D01*
X250509Y87308D01*
X250500Y87500D01*
X250509Y87692D01*
X250537Y87883D01*
X250583Y88070D01*
X250647Y88252D01*
X250672Y88326D01*
X250684Y88404D01*
X250683Y88483D01*
X250670Y88560D01*
X250645Y88635D01*
X250609Y88705D01*
X250562Y88768D01*
X250506Y88824D01*
X250442Y88869D01*
X250372Y88905D01*
X250297Y88928D01*
X250219Y88940D01*
X250140Y88940D01*
X250091Y88931D01*
Y115000D01*
G37*
G36*
X242500D02*X250091D01*
Y88931D01*
X250063Y88927D01*
X249988Y88902D01*
X249918Y88866D01*
X249855Y88819D01*
X249800Y88763D01*
X249754Y88699D01*
X249720Y88628D01*
X249621Y88356D01*
X249552Y88075D01*
X249510Y87789D01*
X249497Y87500D01*
X249510Y87211D01*
X249552Y86925D01*
X249621Y86644D01*
X249717Y86371D01*
X249752Y86300D01*
X249798Y86236D01*
X249853Y86179D01*
X249917Y86132D01*
X249987Y86096D01*
X250062Y86071D01*
X250091Y86066D01*
Y44299D01*
X250065Y44269D01*
X249819Y43866D01*
X249638Y43430D01*
X249528Y42971D01*
X249491Y42500D01*
X249528Y42029D01*
X249638Y41570D01*
X249819Y41134D01*
X250065Y40731D01*
X250091Y40701D01*
Y12213D01*
X249379Y11500D01*
X242500D01*
Y18041D01*
X246200Y18045D01*
X246353Y18082D01*
X246498Y18142D01*
X246633Y18224D01*
X246752Y18327D01*
X246855Y18446D01*
X246937Y18581D01*
X246997Y18726D01*
X247034Y18879D01*
X247043Y19036D01*
X247034Y24311D01*
X246997Y24464D01*
X246937Y24609D01*
X246855Y24744D01*
X246752Y24863D01*
X246633Y24966D01*
X246498Y25048D01*
X246353Y25108D01*
X246200Y25145D01*
X246043Y25154D01*
X242500Y25149D01*
Y29851D01*
X246200Y29855D01*
X246353Y29892D01*
X246498Y29952D01*
X246633Y30034D01*
X246752Y30137D01*
X246855Y30256D01*
X246937Y30391D01*
X246997Y30536D01*
X247034Y30689D01*
X247043Y30846D01*
X247034Y36121D01*
X246997Y36274D01*
X246937Y36419D01*
X246855Y36554D01*
X246752Y36673D01*
X246633Y36776D01*
X246498Y36858D01*
X246353Y36918D01*
X246200Y36955D01*
X246043Y36964D01*
X244000Y36961D01*
Y37401D01*
X244269Y37565D01*
X244628Y37872D01*
X244935Y38231D01*
X245181Y38634D01*
X245362Y39070D01*
X245472Y39529D01*
X245500Y40000D01*
X245472Y40471D01*
X245362Y40930D01*
X245181Y41366D01*
X244935Y41769D01*
X244628Y42128D01*
X244269Y42435D01*
X243866Y42681D01*
X243430Y42862D01*
X242971Y42972D01*
X242500Y43009D01*
Y115000D01*
G37*
G36*
Y11500D02*X227409D01*
Y38500D01*
X239901D01*
X240065Y38231D01*
X240372Y37872D01*
X240731Y37565D01*
X241000Y37401D01*
Y36958D01*
X238800Y36955D01*
X238647Y36918D01*
X238502Y36858D01*
X238367Y36776D01*
X238248Y36673D01*
X238145Y36554D01*
X238063Y36419D01*
X238003Y36274D01*
X237966Y36121D01*
X237957Y35964D01*
X237966Y30689D01*
X238003Y30536D01*
X238063Y30391D01*
X238145Y30256D01*
X238248Y30137D01*
X238367Y30034D01*
X238502Y29952D01*
X238647Y29892D01*
X238800Y29855D01*
X238957Y29846D01*
X242500Y29851D01*
Y25149D01*
X238800Y25145D01*
X238647Y25108D01*
X238502Y25048D01*
X238367Y24966D01*
X238248Y24863D01*
X238145Y24744D01*
X238063Y24609D01*
X238003Y24464D01*
X237966Y24311D01*
X237957Y24154D01*
X237966Y18879D01*
X238003Y18726D01*
X238063Y18581D01*
X238145Y18446D01*
X238248Y18327D01*
X238367Y18224D01*
X238502Y18142D01*
X238647Y18082D01*
X238800Y18045D01*
X238957Y18036D01*
X242500Y18041D01*
Y11500D01*
G37*
G36*
X232500Y115000D02*X242500D01*
Y43009D01*
X242029Y42972D01*
X241570Y42862D01*
X241134Y42681D01*
X240731Y42435D01*
X240372Y42128D01*
X240065Y41769D01*
X239901Y41500D01*
X232500D01*
Y76991D01*
X232971Y77028D01*
X233430Y77138D01*
X233866Y77319D01*
X234269Y77565D01*
X234628Y77872D01*
X234935Y78231D01*
X235181Y78634D01*
X235362Y79070D01*
X235472Y79529D01*
X235500Y80000D01*
X235472Y80471D01*
X235362Y80930D01*
X235181Y81366D01*
X234935Y81769D01*
X234628Y82128D01*
X234269Y82435D01*
X234000Y82599D01*
Y83042D01*
X236200Y83045D01*
X236353Y83082D01*
X236498Y83142D01*
X236633Y83224D01*
X236752Y83327D01*
X236855Y83446D01*
X236937Y83581D01*
X236997Y83726D01*
X237034Y83879D01*
X237043Y84036D01*
X237034Y89311D01*
X236997Y89464D01*
X236937Y89609D01*
X236855Y89744D01*
X236752Y89863D01*
X236633Y89966D01*
X236498Y90048D01*
X236353Y90108D01*
X236200Y90145D01*
X236043Y90154D01*
X232500Y90149D01*
Y94851D01*
X236200Y94855D01*
X236353Y94892D01*
X236498Y94952D01*
X236633Y95034D01*
X236752Y95137D01*
X236855Y95256D01*
X236937Y95391D01*
X236997Y95536D01*
X237034Y95689D01*
X237043Y95846D01*
X237034Y101121D01*
X236997Y101274D01*
X236937Y101419D01*
X236855Y101554D01*
X236752Y101673D01*
X236633Y101776D01*
X236498Y101858D01*
X236353Y101918D01*
X236200Y101955D01*
X236043Y101964D01*
X232500Y101959D01*
Y103237D01*
X233167Y103289D01*
X233817Y103446D01*
X234435Y103702D01*
X235006Y104051D01*
X235514Y104486D01*
X235949Y104994D01*
X236298Y105565D01*
X236554Y106183D01*
X236711Y106833D01*
X236750Y107500D01*
X236711Y108167D01*
X236554Y108817D01*
X236298Y109435D01*
X235949Y110006D01*
X235514Y110514D01*
X235006Y110949D01*
X234435Y111298D01*
X233817Y111554D01*
X233167Y111711D01*
X232500Y111763D01*
Y115000D01*
G37*
G36*
Y90149D02*X228800Y90145D01*
X228647Y90108D01*
X228502Y90048D01*
X228367Y89966D01*
X228248Y89863D01*
X228145Y89744D01*
X228063Y89609D01*
X228003Y89464D01*
X227966Y89311D01*
X227957Y89154D01*
X227957Y89000D01*
X227409D01*
Y101069D01*
X227437Y101073D01*
X227512Y101098D01*
X227582Y101134D01*
X227645Y101181D01*
X227700Y101237D01*
X227746Y101301D01*
X227780Y101372D01*
X227879Y101644D01*
X227948Y101925D01*
X227990Y102211D01*
X228003Y102500D01*
X227990Y102789D01*
X227948Y103075D01*
X227879Y103356D01*
X227783Y103629D01*
X227748Y103700D01*
X227702Y103764D01*
X227647Y103821D01*
X227583Y103868D01*
X227513Y103904D01*
X227438Y103929D01*
X227409Y103934D01*
Y106000D01*
X228521D01*
X228702Y105565D01*
X229051Y104994D01*
X229486Y104486D01*
X229994Y104051D01*
X230565Y103702D01*
X231183Y103446D01*
X231833Y103289D01*
X232500Y103237D01*
Y101959D01*
X228800Y101955D01*
X228647Y101918D01*
X228502Y101858D01*
X228367Y101776D01*
X228248Y101673D01*
X228145Y101554D01*
X228063Y101419D01*
X228003Y101274D01*
X227966Y101121D01*
X227957Y100964D01*
X227966Y95689D01*
X228003Y95536D01*
X228063Y95391D01*
X228145Y95256D01*
X228248Y95137D01*
X228367Y95034D01*
X228502Y94952D01*
X228647Y94892D01*
X228800Y94855D01*
X228957Y94846D01*
X232500Y94851D01*
Y90149D01*
G37*
G36*
Y41500D02*X227409D01*
Y86000D01*
X227963D01*
X227966Y83879D01*
X228003Y83726D01*
X228063Y83581D01*
X228145Y83446D01*
X228248Y83327D01*
X228367Y83224D01*
X228502Y83142D01*
X228647Y83082D01*
X228800Y83045D01*
X228957Y83036D01*
X231000Y83039D01*
Y82599D01*
X230731Y82435D01*
X230372Y82128D01*
X230065Y81769D01*
X229819Y81366D01*
X229638Y80930D01*
X229528Y80471D01*
X229491Y80000D01*
X229528Y79529D01*
X229638Y79070D01*
X229819Y78634D01*
X230065Y78231D01*
X230372Y77872D01*
X230731Y77565D01*
X231134Y77319D01*
X231570Y77138D01*
X232029Y77028D01*
X232500Y76991D01*
Y41500D01*
G37*
G36*
X227409Y115000D02*X232500D01*
Y111763D01*
X231833Y111711D01*
X231183Y111554D01*
X230565Y111298D01*
X229994Y110949D01*
X229486Y110514D01*
X229051Y110006D01*
X228702Y109435D01*
X228521Y109000D01*
X227409D01*
Y115000D01*
G37*
G36*
Y89000D02*X225001D01*
Y99497D01*
X225289Y99510D01*
X225575Y99552D01*
X225856Y99621D01*
X226129Y99717D01*
X226200Y99752D01*
X226264Y99798D01*
X226321Y99853D01*
X226368Y99917D01*
X226404Y99987D01*
X226429Y100062D01*
X226442Y100140D01*
X226442Y100219D01*
X226431Y100297D01*
X226407Y100373D01*
X226371Y100444D01*
X226325Y100508D01*
X226270Y100564D01*
X226206Y100611D01*
X226136Y100647D01*
X226061Y100672D01*
X225983Y100685D01*
X225904Y100686D01*
X225826Y100674D01*
X225751Y100649D01*
X225570Y100583D01*
X225383Y100537D01*
X225192Y100509D01*
X225001Y100500D01*
Y104500D01*
X225192Y104491D01*
X225383Y104463D01*
X225570Y104417D01*
X225752Y104353D01*
X225826Y104328D01*
X225904Y104316D01*
X225983Y104317D01*
X226060Y104330D01*
X226135Y104355D01*
X226205Y104391D01*
X226268Y104438D01*
X226324Y104494D01*
X226369Y104558D01*
X226405Y104628D01*
X226428Y104703D01*
X226440Y104781D01*
X226440Y104860D01*
X226427Y104937D01*
X226402Y105012D01*
X226366Y105082D01*
X226319Y105145D01*
X226263Y105200D01*
X226199Y105246D01*
X226128Y105280D01*
X225856Y105379D01*
X225575Y105448D01*
X225289Y105490D01*
X225001Y105503D01*
Y106000D01*
X227409D01*
Y103934D01*
X227360Y103942D01*
X227281Y103942D01*
X227203Y103931D01*
X227127Y103907D01*
X227056Y103871D01*
X226992Y103825D01*
X226936Y103770D01*
X226889Y103706D01*
X226853Y103636D01*
X226828Y103561D01*
X226815Y103483D01*
X226814Y103404D01*
X226826Y103326D01*
X226851Y103251D01*
X226917Y103070D01*
X226963Y102883D01*
X226991Y102692D01*
X227000Y102500D01*
X226991Y102308D01*
X226963Y102117D01*
X226917Y101930D01*
X226853Y101748D01*
X226828Y101674D01*
X226816Y101596D01*
X226817Y101517D01*
X226830Y101440D01*
X226855Y101365D01*
X226891Y101295D01*
X226938Y101232D01*
X226994Y101176D01*
X227058Y101131D01*
X227128Y101095D01*
X227203Y101072D01*
X227281Y101060D01*
X227360Y101060D01*
X227409Y101069D01*
Y89000D01*
G37*
G36*
Y41500D02*X225001D01*
Y86000D01*
X227409D01*
Y41500D01*
G37*
G36*
Y11500D02*X225001D01*
Y38500D01*
X227409D01*
Y11500D01*
G37*
G36*
X225001Y115000D02*X227409D01*
Y109000D01*
X225001D01*
Y115000D01*
G37*
G36*
Y89000D02*X222591D01*
Y101066D01*
X222640Y101058D01*
X222719Y101058D01*
X222797Y101069D01*
X222873Y101093D01*
X222944Y101129D01*
X223008Y101175D01*
X223064Y101230D01*
X223111Y101294D01*
X223147Y101364D01*
X223172Y101439D01*
X223185Y101517D01*
X223186Y101596D01*
X223174Y101674D01*
X223149Y101749D01*
X223083Y101930D01*
X223037Y102117D01*
X223009Y102308D01*
X223000Y102500D01*
X223009Y102692D01*
X223037Y102883D01*
X223083Y103070D01*
X223147Y103252D01*
X223172Y103326D01*
X223184Y103404D01*
X223183Y103483D01*
X223170Y103560D01*
X223145Y103635D01*
X223109Y103705D01*
X223062Y103768D01*
X223006Y103824D01*
X222942Y103869D01*
X222872Y103905D01*
X222797Y103928D01*
X222719Y103940D01*
X222640Y103940D01*
X222591Y103931D01*
Y106000D01*
X225001D01*
Y105503D01*
X225000Y105503D01*
X224711Y105490D01*
X224425Y105448D01*
X224144Y105379D01*
X223871Y105283D01*
X223800Y105248D01*
X223736Y105202D01*
X223679Y105147D01*
X223632Y105083D01*
X223596Y105013D01*
X223571Y104938D01*
X223558Y104860D01*
X223558Y104781D01*
X223569Y104703D01*
X223593Y104627D01*
X223629Y104556D01*
X223675Y104492D01*
X223730Y104436D01*
X223794Y104389D01*
X223864Y104353D01*
X223939Y104328D01*
X224017Y104315D01*
X224096Y104314D01*
X224174Y104326D01*
X224249Y104351D01*
X224430Y104417D01*
X224617Y104463D01*
X224808Y104491D01*
X225000Y104500D01*
X225001Y104500D01*
Y100500D01*
X225000Y100500D01*
X224808Y100509D01*
X224617Y100537D01*
X224430Y100583D01*
X224248Y100647D01*
X224174Y100672D01*
X224096Y100684D01*
X224017Y100683D01*
X223940Y100670D01*
X223865Y100645D01*
X223795Y100609D01*
X223732Y100562D01*
X223676Y100506D01*
X223631Y100442D01*
X223595Y100372D01*
X223572Y100297D01*
X223560Y100219D01*
X223560Y100140D01*
X223573Y100063D01*
X223598Y99988D01*
X223634Y99918D01*
X223681Y99855D01*
X223737Y99800D01*
X223801Y99754D01*
X223872Y99720D01*
X224144Y99621D01*
X224425Y99552D01*
X224711Y99510D01*
X225000Y99497D01*
X225001Y99497D01*
Y89000D01*
G37*
G36*
X222591D02*X203745D01*
Y106000D01*
X222591D01*
Y103931D01*
X222563Y103927D01*
X222488Y103902D01*
X222418Y103866D01*
X222355Y103819D01*
X222300Y103763D01*
X222254Y103699D01*
X222220Y103628D01*
X222121Y103356D01*
X222052Y103075D01*
X222010Y102789D01*
X221997Y102500D01*
X222010Y102211D01*
X222052Y101925D01*
X222121Y101644D01*
X222217Y101371D01*
X222252Y101300D01*
X222298Y101236D01*
X222353Y101179D01*
X222417Y101132D01*
X222487Y101096D01*
X222562Y101071D01*
X222591Y101066D01*
Y89000D01*
G37*
G36*
X225001Y41500D02*X210059D01*
X210000Y41505D01*
X209941Y41500D01*
X205099D01*
X204935Y41769D01*
X204628Y42128D01*
X204269Y42435D01*
X203866Y42681D01*
X203745Y42731D01*
Y58500D01*
X206879D01*
X208500Y56879D01*
Y50099D01*
X208231Y49935D01*
X207872Y49628D01*
X207565Y49269D01*
X207319Y48866D01*
X207138Y48430D01*
X207028Y47971D01*
X206991Y47500D01*
X207028Y47029D01*
X207138Y46570D01*
X207319Y46134D01*
X207565Y45731D01*
X207872Y45372D01*
X208231Y45065D01*
X208634Y44819D01*
X209070Y44638D01*
X209529Y44528D01*
X210000Y44491D01*
X210471Y44528D01*
X210930Y44638D01*
X211366Y44819D01*
X211769Y45065D01*
X212128Y45372D01*
X212435Y45731D01*
X212681Y46134D01*
X212862Y46570D01*
X212972Y47029D01*
X213000Y47500D01*
X212972Y47971D01*
X212862Y48430D01*
X212681Y48866D01*
X212435Y49269D01*
X212128Y49628D01*
X211769Y49935D01*
X211500Y50099D01*
Y57441D01*
X211505Y57500D01*
X211486Y57735D01*
X211431Y57965D01*
X211341Y58183D01*
X211217Y58384D01*
X211064Y58564D01*
X211019Y58602D01*
X208602Y61019D01*
X208564Y61064D01*
X208384Y61217D01*
X208183Y61341D01*
X207965Y61431D01*
X207735Y61486D01*
X207500Y61505D01*
X207441Y61500D01*
X203745D01*
Y86000D01*
X225001D01*
Y41500D01*
G37*
G36*
Y11500D02*X203745D01*
Y18042D01*
X206200Y18045D01*
X206353Y18082D01*
X206498Y18142D01*
X206633Y18224D01*
X206752Y18327D01*
X206855Y18446D01*
X206937Y18581D01*
X206997Y18726D01*
X207034Y18879D01*
X207043Y19036D01*
X207040Y21000D01*
X207441D01*
X207500Y20995D01*
X207735Y21014D01*
X207735Y21014D01*
X207965Y21069D01*
X208183Y21159D01*
X208384Y21283D01*
X208564Y21436D01*
X208602Y21481D01*
X211019Y23898D01*
X211064Y23936D01*
X211217Y24115D01*
X211217Y24116D01*
X211341Y24317D01*
X211431Y24535D01*
X211486Y24765D01*
X211505Y25000D01*
X211500Y25059D01*
Y38500D01*
X225001D01*
Y11500D01*
G37*
G36*
X203745Y115000D02*X225001D01*
Y109000D01*
X203745D01*
Y115000D01*
G37*
G36*
X192500Y106000D02*X203745D01*
Y89000D01*
X197034D01*
X197034Y89311D01*
X196997Y89464D01*
X196937Y89609D01*
X196855Y89744D01*
X196752Y89863D01*
X196633Y89966D01*
X196498Y90048D01*
X196353Y90108D01*
X196200Y90145D01*
X196043Y90154D01*
X192500Y90149D01*
Y94851D01*
X196200Y94855D01*
X196353Y94892D01*
X196498Y94952D01*
X196633Y95034D01*
X196752Y95137D01*
X196855Y95256D01*
X196937Y95391D01*
X196997Y95536D01*
X197034Y95689D01*
X197043Y95846D01*
X197034Y101121D01*
X196997Y101274D01*
X196937Y101419D01*
X196855Y101554D01*
X196752Y101673D01*
X196633Y101776D01*
X196498Y101858D01*
X196353Y101918D01*
X196200Y101955D01*
X196043Y101964D01*
X192500Y101959D01*
Y106000D01*
G37*
G36*
X155001D02*X192500D01*
Y101959D01*
X188800Y101955D01*
X188647Y101918D01*
X188502Y101858D01*
X188367Y101776D01*
X188248Y101673D01*
X188145Y101554D01*
X188063Y101419D01*
X188003Y101274D01*
X187966Y101121D01*
X187957Y100964D01*
X187966Y95689D01*
X188003Y95536D01*
X188063Y95391D01*
X188145Y95256D01*
X188248Y95137D01*
X188367Y95034D01*
X188502Y94952D01*
X188647Y94892D01*
X188800Y94855D01*
X188957Y94846D01*
X192500Y94851D01*
Y90149D01*
X188800Y90145D01*
X188647Y90108D01*
X188502Y90048D01*
X188367Y89966D01*
X188248Y89863D01*
X188145Y89744D01*
X188063Y89609D01*
X188003Y89464D01*
X187966Y89311D01*
X187957Y89154D01*
X187957Y89000D01*
X159534D01*
X159534Y89311D01*
X159497Y89464D01*
X159437Y89609D01*
X159355Y89744D01*
X159252Y89863D01*
X159133Y89966D01*
X158998Y90048D01*
X158853Y90108D01*
X158700Y90145D01*
X158543Y90154D01*
X155001Y90149D01*
Y94851D01*
X158700Y94855D01*
X158853Y94892D01*
X158998Y94952D01*
X159133Y95034D01*
X159252Y95137D01*
X159355Y95256D01*
X159437Y95391D01*
X159497Y95536D01*
X159534Y95689D01*
X159543Y95846D01*
X159534Y101121D01*
X159497Y101274D01*
X159437Y101419D01*
X159355Y101554D01*
X159252Y101673D01*
X159133Y101776D01*
X158998Y101858D01*
X158853Y101918D01*
X158700Y101955D01*
X158543Y101964D01*
X155001Y101959D01*
Y106000D01*
G37*
G36*
X194909Y78201D02*X194935Y78231D01*
X195181Y78634D01*
X195362Y79070D01*
X195472Y79529D01*
X195500Y80000D01*
X195472Y80471D01*
X195362Y80930D01*
X195181Y81366D01*
X194935Y81769D01*
X194909Y81799D01*
Y83044D01*
X196200Y83045D01*
X196353Y83082D01*
X196498Y83142D01*
X196633Y83224D01*
X196752Y83327D01*
X196855Y83446D01*
X196937Y83581D01*
X196997Y83726D01*
X197034Y83879D01*
X197043Y84036D01*
X197040Y86000D01*
X203745D01*
Y61500D01*
X200621D01*
X200399Y61723D01*
X200472Y62029D01*
X200500Y62500D01*
X200472Y62971D01*
X200362Y63430D01*
X200181Y63866D01*
X199935Y64269D01*
X199628Y64628D01*
X199269Y64935D01*
X198866Y65181D01*
X198430Y65362D01*
X197971Y65472D01*
X197500Y65509D01*
X197029Y65472D01*
X196570Y65362D01*
X196134Y65181D01*
X195731Y64935D01*
X195372Y64628D01*
X195065Y64269D01*
X194909Y64013D01*
Y78201D01*
G37*
G36*
X203745Y42731D02*X203430Y42862D01*
X202971Y42972D01*
X202500Y43009D01*
X202029Y42972D01*
X201570Y42862D01*
X201134Y42681D01*
X200731Y42435D01*
X200372Y42128D01*
X200065Y41769D01*
X199901Y41500D01*
X194909D01*
Y56069D01*
X194937Y56073D01*
X195012Y56098D01*
X195082Y56134D01*
X195145Y56181D01*
X195200Y56237D01*
X195246Y56301D01*
X195280Y56372D01*
X195379Y56644D01*
X195448Y56925D01*
X195490Y57211D01*
X195503Y57500D01*
X195490Y57789D01*
X195448Y58075D01*
X195379Y58356D01*
X195283Y58629D01*
X195248Y58700D01*
X195202Y58764D01*
X195147Y58821D01*
X195083Y58868D01*
X195013Y58904D01*
X194938Y58929D01*
X194909Y58934D01*
Y60987D01*
X195065Y60731D01*
X195372Y60372D01*
X195731Y60065D01*
X196134Y59819D01*
X196570Y59638D01*
X197029Y59528D01*
X197500Y59491D01*
X197971Y59528D01*
X198277Y59601D01*
X198898Y58981D01*
X198936Y58936D01*
X199116Y58783D01*
X199317Y58659D01*
X199535Y58569D01*
X199765Y58514D01*
X200000Y58495D01*
X200059Y58500D01*
X203745D01*
Y42731D01*
G37*
G36*
X194909Y81799D02*X194628Y82128D01*
X194269Y82435D01*
X194000Y82599D01*
Y83042D01*
X194909Y83044D01*
Y81799D01*
G37*
G36*
Y41500D02*X192501D01*
Y54497D01*
X192789Y54510D01*
X193075Y54552D01*
X193356Y54621D01*
X193629Y54717D01*
X193700Y54752D01*
X193764Y54798D01*
X193821Y54853D01*
X193868Y54917D01*
X193904Y54987D01*
X193929Y55062D01*
X193942Y55140D01*
X193942Y55219D01*
X193931Y55297D01*
X193907Y55373D01*
X193871Y55444D01*
X193825Y55508D01*
X193770Y55564D01*
X193706Y55611D01*
X193636Y55647D01*
X193561Y55672D01*
X193483Y55685D01*
X193404Y55686D01*
X193326Y55674D01*
X193251Y55649D01*
X193070Y55583D01*
X192883Y55537D01*
X192692Y55509D01*
X192501Y55500D01*
Y59500D01*
X192692Y59491D01*
X192883Y59463D01*
X193070Y59417D01*
X193252Y59353D01*
X193326Y59328D01*
X193404Y59316D01*
X193483Y59317D01*
X193560Y59330D01*
X193635Y59355D01*
X193705Y59391D01*
X193768Y59438D01*
X193824Y59494D01*
X193869Y59558D01*
X193905Y59628D01*
X193928Y59703D01*
X193940Y59781D01*
X193940Y59860D01*
X193927Y59937D01*
X193902Y60012D01*
X193866Y60082D01*
X193819Y60145D01*
X193763Y60200D01*
X193699Y60246D01*
X193628Y60280D01*
X193356Y60379D01*
X193075Y60448D01*
X192789Y60490D01*
X192501Y60503D01*
Y76991D01*
X192971Y77028D01*
X193430Y77138D01*
X193866Y77319D01*
X194269Y77565D01*
X194628Y77872D01*
X194909Y78201D01*
Y64013D01*
X194819Y63866D01*
X194638Y63430D01*
X194528Y62971D01*
X194491Y62500D01*
X194528Y62029D01*
X194638Y61570D01*
X194819Y61134D01*
X194909Y60987D01*
Y58934D01*
X194860Y58942D01*
X194781Y58942D01*
X194703Y58931D01*
X194627Y58907D01*
X194556Y58871D01*
X194492Y58825D01*
X194436Y58770D01*
X194389Y58706D01*
X194353Y58636D01*
X194328Y58561D01*
X194315Y58483D01*
X194314Y58404D01*
X194326Y58326D01*
X194351Y58251D01*
X194417Y58070D01*
X194463Y57883D01*
X194491Y57692D01*
X194500Y57500D01*
X194491Y57308D01*
X194463Y57117D01*
X194417Y56930D01*
X194353Y56748D01*
X194328Y56674D01*
X194316Y56596D01*
X194317Y56517D01*
X194330Y56440D01*
X194355Y56365D01*
X194391Y56295D01*
X194438Y56232D01*
X194494Y56176D01*
X194558Y56131D01*
X194628Y56095D01*
X194703Y56072D01*
X194781Y56060D01*
X194860Y56060D01*
X194909Y56069D01*
Y41500D01*
G37*
G36*
X190091Y83037D02*X191000Y83039D01*
Y82599D01*
X190731Y82435D01*
X190372Y82128D01*
X190091Y81799D01*
Y83037D01*
G37*
G36*
X192501Y41500D02*X190091D01*
Y56066D01*
X190140Y56058D01*
X190219Y56058D01*
X190297Y56069D01*
X190373Y56093D01*
X190444Y56129D01*
X190508Y56175D01*
X190564Y56230D01*
X190611Y56294D01*
X190647Y56364D01*
X190672Y56439D01*
X190685Y56517D01*
X190686Y56596D01*
X190674Y56674D01*
X190649Y56749D01*
X190583Y56930D01*
X190537Y57117D01*
X190509Y57308D01*
X190500Y57500D01*
X190509Y57692D01*
X190537Y57883D01*
X190583Y58070D01*
X190647Y58252D01*
X190672Y58326D01*
X190684Y58404D01*
X190683Y58483D01*
X190670Y58560D01*
X190645Y58635D01*
X190609Y58705D01*
X190562Y58768D01*
X190506Y58824D01*
X190442Y58869D01*
X190372Y58905D01*
X190297Y58928D01*
X190219Y58940D01*
X190140Y58940D01*
X190091Y58931D01*
Y78201D01*
X190372Y77872D01*
X190731Y77565D01*
X191134Y77319D01*
X191570Y77138D01*
X192029Y77028D01*
X192500Y76991D01*
X192501Y76991D01*
Y60503D01*
X192500Y60503D01*
X192211Y60490D01*
X191925Y60448D01*
X191644Y60379D01*
X191371Y60283D01*
X191300Y60248D01*
X191236Y60202D01*
X191179Y60147D01*
X191132Y60083D01*
X191096Y60013D01*
X191071Y59938D01*
X191058Y59860D01*
X191058Y59781D01*
X191069Y59703D01*
X191093Y59627D01*
X191129Y59556D01*
X191175Y59492D01*
X191230Y59436D01*
X191294Y59389D01*
X191364Y59353D01*
X191439Y59328D01*
X191517Y59315D01*
X191596Y59314D01*
X191674Y59326D01*
X191749Y59351D01*
X191930Y59417D01*
X192117Y59463D01*
X192308Y59491D01*
X192500Y59500D01*
X192501Y59500D01*
Y55500D01*
X192500Y55500D01*
X192308Y55509D01*
X192117Y55537D01*
X191930Y55583D01*
X191748Y55647D01*
X191674Y55672D01*
X191596Y55684D01*
X191517Y55683D01*
X191440Y55670D01*
X191365Y55645D01*
X191295Y55609D01*
X191232Y55562D01*
X191176Y55506D01*
X191131Y55442D01*
X191095Y55372D01*
X191072Y55297D01*
X191060Y55219D01*
X191060Y55140D01*
X191073Y55063D01*
X191098Y54988D01*
X191134Y54918D01*
X191181Y54855D01*
X191237Y54800D01*
X191301Y54754D01*
X191372Y54720D01*
X191644Y54621D01*
X191925Y54552D01*
X192211Y54510D01*
X192500Y54497D01*
X192501Y54497D01*
Y41500D01*
G37*
G36*
X190091D02*X167599D01*
X167435Y41769D01*
X167128Y42128D01*
X166769Y42435D01*
X166366Y42681D01*
X165930Y42862D01*
X165471Y42972D01*
X165000Y43009D01*
X164529Y42972D01*
X164070Y42862D01*
X163634Y42681D01*
X163231Y42435D01*
X162872Y42128D01*
X162565Y41769D01*
X162401Y41500D01*
X160621D01*
X157409Y44713D01*
Y56069D01*
X157437Y56073D01*
X157512Y56098D01*
X157582Y56134D01*
X157645Y56181D01*
X157700Y56237D01*
X157746Y56301D01*
X157780Y56372D01*
X157879Y56644D01*
X157948Y56925D01*
X157990Y57211D01*
X158003Y57500D01*
X157990Y57789D01*
X157948Y58075D01*
X157879Y58356D01*
X157783Y58629D01*
X157748Y58700D01*
X157702Y58764D01*
X157647Y58821D01*
X157583Y58868D01*
X157513Y58904D01*
X157438Y58929D01*
X157409Y58934D01*
Y78201D01*
X157435Y78231D01*
X157681Y78634D01*
X157862Y79070D01*
X157972Y79529D01*
X158000Y80000D01*
X157972Y80471D01*
X157862Y80930D01*
X157681Y81366D01*
X157435Y81769D01*
X157409Y81799D01*
Y83044D01*
X158700Y83045D01*
X158853Y83082D01*
X158998Y83142D01*
X159133Y83224D01*
X159252Y83327D01*
X159355Y83446D01*
X159437Y83581D01*
X159497Y83726D01*
X159534Y83879D01*
X159543Y84036D01*
X159540Y86000D01*
X187963D01*
X187966Y83879D01*
X188003Y83726D01*
X188063Y83581D01*
X188145Y83446D01*
X188248Y83327D01*
X188367Y83224D01*
X188502Y83142D01*
X188647Y83082D01*
X188800Y83045D01*
X188957Y83036D01*
X190091Y83037D01*
Y81799D01*
X190065Y81769D01*
X189819Y81366D01*
X189638Y80930D01*
X189528Y80471D01*
X189491Y80000D01*
X189528Y79529D01*
X189638Y79070D01*
X189819Y78634D01*
X190065Y78231D01*
X190091Y78201D01*
Y58931D01*
X190063Y58927D01*
X189988Y58902D01*
X189918Y58866D01*
X189855Y58819D01*
X189800Y58763D01*
X189754Y58699D01*
X189720Y58628D01*
X189621Y58356D01*
X189552Y58075D01*
X189510Y57789D01*
X189497Y57500D01*
X189510Y57211D01*
X189552Y56925D01*
X189621Y56644D01*
X189717Y56371D01*
X189752Y56300D01*
X189798Y56236D01*
X189853Y56179D01*
X189917Y56132D01*
X189987Y56096D01*
X190062Y56071D01*
X190091Y56066D01*
Y41500D01*
G37*
G36*
X157409Y81799D02*X157128Y82128D01*
X156769Y82435D01*
X156500Y82599D01*
Y83042D01*
X157409Y83044D01*
Y81799D01*
G37*
G36*
Y44713D02*X155001Y47120D01*
Y54497D01*
X155289Y54510D01*
X155575Y54552D01*
X155856Y54621D01*
X156129Y54717D01*
X156200Y54752D01*
X156264Y54798D01*
X156321Y54853D01*
X156368Y54917D01*
X156404Y54987D01*
X156429Y55062D01*
X156442Y55140D01*
X156442Y55219D01*
X156431Y55297D01*
X156407Y55373D01*
X156371Y55444D01*
X156325Y55508D01*
X156270Y55564D01*
X156206Y55611D01*
X156136Y55647D01*
X156061Y55672D01*
X155983Y55685D01*
X155904Y55686D01*
X155826Y55674D01*
X155751Y55649D01*
X155570Y55583D01*
X155383Y55537D01*
X155192Y55509D01*
X155001Y55500D01*
Y59500D01*
X155192Y59491D01*
X155383Y59463D01*
X155570Y59417D01*
X155752Y59353D01*
X155826Y59328D01*
X155904Y59316D01*
X155983Y59317D01*
X156060Y59330D01*
X156135Y59355D01*
X156205Y59391D01*
X156268Y59438D01*
X156324Y59494D01*
X156369Y59558D01*
X156405Y59628D01*
X156428Y59703D01*
X156440Y59781D01*
X156440Y59860D01*
X156427Y59937D01*
X156402Y60012D01*
X156366Y60082D01*
X156319Y60145D01*
X156263Y60200D01*
X156199Y60246D01*
X156128Y60280D01*
X155856Y60379D01*
X155575Y60448D01*
X155289Y60490D01*
X155001Y60503D01*
Y76991D01*
X155471Y77028D01*
X155930Y77138D01*
X156366Y77319D01*
X156769Y77565D01*
X157128Y77872D01*
X157409Y78201D01*
Y58934D01*
X157360Y58942D01*
X157281Y58942D01*
X157203Y58931D01*
X157127Y58907D01*
X157056Y58871D01*
X156992Y58825D01*
X156936Y58770D01*
X156889Y58706D01*
X156853Y58636D01*
X156828Y58561D01*
X156815Y58483D01*
X156814Y58404D01*
X156826Y58326D01*
X156851Y58251D01*
X156917Y58070D01*
X156963Y57883D01*
X156991Y57692D01*
X157000Y57500D01*
X156991Y57308D01*
X156963Y57117D01*
X156917Y56930D01*
X156853Y56748D01*
X156828Y56674D01*
X156816Y56596D01*
X156817Y56517D01*
X156830Y56440D01*
X156855Y56365D01*
X156891Y56295D01*
X156938Y56232D01*
X156994Y56176D01*
X157058Y56131D01*
X157128Y56095D01*
X157203Y56072D01*
X157281Y56060D01*
X157360Y56060D01*
X157409Y56069D01*
Y44713D01*
G37*
G36*
X152591Y83037D02*X153500Y83039D01*
Y82599D01*
X153231Y82435D01*
X152872Y82128D01*
X152591Y81799D01*
Y83037D01*
G37*
G36*
Y94847D02*X155001Y94851D01*
Y90149D01*
X152591Y90146D01*
Y94847D01*
G37*
G36*
Y105470D02*X153121Y106000D01*
X155001D01*
Y101959D01*
X152591Y101956D01*
Y105470D01*
G37*
G36*
X155001Y47120D02*X153602Y48519D01*
X153564Y48564D01*
X153384Y48717D01*
X153183Y48841D01*
X152965Y48931D01*
X152735Y48986D01*
X152591Y48997D01*
Y56066D01*
X152640Y56058D01*
X152719Y56058D01*
X152797Y56069D01*
X152873Y56093D01*
X152944Y56129D01*
X153008Y56175D01*
X153064Y56230D01*
X153111Y56294D01*
X153147Y56364D01*
X153172Y56439D01*
X153185Y56517D01*
X153186Y56596D01*
X153174Y56674D01*
X153149Y56749D01*
X153083Y56930D01*
X153037Y57117D01*
X153009Y57308D01*
X153000Y57500D01*
X153009Y57692D01*
X153037Y57883D01*
X153083Y58070D01*
X153147Y58252D01*
X153172Y58326D01*
X153184Y58404D01*
X153183Y58483D01*
X153170Y58560D01*
X153145Y58635D01*
X153109Y58705D01*
X153062Y58768D01*
X153006Y58824D01*
X152942Y58869D01*
X152872Y58905D01*
X152797Y58928D01*
X152719Y58940D01*
X152640Y58940D01*
X152591Y58931D01*
Y78201D01*
X152872Y77872D01*
X153231Y77565D01*
X153634Y77319D01*
X154070Y77138D01*
X154529Y77028D01*
X155000Y76991D01*
X155001Y76991D01*
Y60503D01*
X155000Y60503D01*
X154711Y60490D01*
X154425Y60448D01*
X154144Y60379D01*
X153871Y60283D01*
X153800Y60248D01*
X153736Y60202D01*
X153679Y60147D01*
X153632Y60083D01*
X153596Y60013D01*
X153571Y59938D01*
X153558Y59860D01*
X153558Y59781D01*
X153569Y59703D01*
X153593Y59627D01*
X153629Y59556D01*
X153675Y59492D01*
X153730Y59436D01*
X153794Y59389D01*
X153864Y59353D01*
X153939Y59328D01*
X154017Y59315D01*
X154096Y59314D01*
X154174Y59326D01*
X154249Y59351D01*
X154430Y59417D01*
X154617Y59463D01*
X154808Y59491D01*
X155000Y59500D01*
X155001Y59500D01*
Y55500D01*
X155000Y55500D01*
X154808Y55509D01*
X154617Y55537D01*
X154430Y55583D01*
X154248Y55647D01*
X154174Y55672D01*
X154096Y55684D01*
X154017Y55683D01*
X153940Y55670D01*
X153865Y55645D01*
X153795Y55609D01*
X153732Y55562D01*
X153676Y55506D01*
X153631Y55442D01*
X153595Y55372D01*
X153572Y55297D01*
X153560Y55219D01*
X153560Y55140D01*
X153573Y55063D01*
X153598Y54988D01*
X153634Y54918D01*
X153681Y54855D01*
X153737Y54800D01*
X153801Y54754D01*
X153872Y54720D01*
X154144Y54621D01*
X154425Y54552D01*
X154711Y54510D01*
X155000Y54497D01*
X155001Y54497D01*
Y47120D01*
G37*
G36*
X152591Y48997D02*X152500Y49005D01*
X152441Y49000D01*
X120059D01*
X120000Y49005D01*
X119765Y48986D01*
X119535Y48931D01*
X119317Y48841D01*
X119116Y48717D01*
X119115Y48717D01*
X118936Y48564D01*
X118898Y48519D01*
X113277Y42899D01*
X112971Y42972D01*
X112500Y43009D01*
X112029Y42972D01*
X111570Y42862D01*
X111134Y42681D01*
X110731Y42435D01*
X110372Y42128D01*
X110065Y41769D01*
X109901Y41500D01*
X80059D01*
X80000Y41505D01*
X79941Y41500D01*
X75099D01*
X74935Y41769D01*
X74628Y42128D01*
X74269Y42435D01*
X73866Y42681D01*
X73745Y42731D01*
Y58500D01*
X76879D01*
X78500Y56879D01*
Y50099D01*
X78231Y49935D01*
X77872Y49628D01*
X77565Y49269D01*
X77319Y48866D01*
X77138Y48430D01*
X77028Y47971D01*
X76991Y47500D01*
X77028Y47029D01*
X77138Y46570D01*
X77319Y46134D01*
X77565Y45731D01*
X77872Y45372D01*
X78231Y45065D01*
X78634Y44819D01*
X79070Y44638D01*
X79529Y44528D01*
X80000Y44491D01*
X80471Y44528D01*
X80930Y44638D01*
X81366Y44819D01*
X81769Y45065D01*
X82128Y45372D01*
X82435Y45731D01*
X82681Y46134D01*
X82862Y46570D01*
X82972Y47029D01*
X83000Y47500D01*
X82972Y47971D01*
X82862Y48430D01*
X82681Y48866D01*
X82435Y49269D01*
X82128Y49628D01*
X81769Y49935D01*
X81500Y50099D01*
Y57441D01*
X81505Y57500D01*
X81486Y57735D01*
X81431Y57965D01*
X81341Y58183D01*
X81217Y58384D01*
X81064Y58564D01*
X81019Y58602D01*
X78602Y61019D01*
X78564Y61064D01*
X78384Y61217D01*
X78183Y61341D01*
X77965Y61431D01*
X77735Y61486D01*
X77500Y61505D01*
X77441Y61500D01*
X73745D01*
Y68500D01*
X132441D01*
X132500Y68495D01*
X132735Y68514D01*
X132735Y68514D01*
X132965Y68569D01*
X133183Y68659D01*
X133384Y68783D01*
X133564Y68936D01*
X133602Y68981D01*
X136019Y71398D01*
X136064Y71436D01*
X136217Y71615D01*
X136217Y71616D01*
X136341Y71817D01*
X136431Y72035D01*
X136486Y72265D01*
X136505Y72500D01*
X136500Y72559D01*
Y89379D01*
X152591Y105470D01*
Y101956D01*
X151300Y101955D01*
X151147Y101918D01*
X151002Y101858D01*
X150867Y101776D01*
X150748Y101673D01*
X150645Y101554D01*
X150563Y101419D01*
X150503Y101274D01*
X150466Y101121D01*
X150457Y100964D01*
X150466Y95689D01*
X150503Y95536D01*
X150563Y95391D01*
X150645Y95256D01*
X150748Y95137D01*
X150867Y95034D01*
X151002Y94952D01*
X151147Y94892D01*
X151300Y94855D01*
X151457Y94846D01*
X152591Y94847D01*
Y90146D01*
X151300Y90145D01*
X151147Y90108D01*
X151002Y90048D01*
X150867Y89966D01*
X150748Y89863D01*
X150645Y89744D01*
X150563Y89609D01*
X150503Y89464D01*
X150466Y89311D01*
X150457Y89154D01*
X150466Y83879D01*
X150503Y83726D01*
X150563Y83581D01*
X150645Y83446D01*
X150748Y83327D01*
X150867Y83224D01*
X151002Y83142D01*
X151147Y83082D01*
X151300Y83045D01*
X151457Y83036D01*
X152591Y83037D01*
Y81799D01*
X152565Y81769D01*
X152319Y81366D01*
X152138Y80930D01*
X152028Y80471D01*
X151991Y80000D01*
X152028Y79529D01*
X152138Y79070D01*
X152319Y78634D01*
X152565Y78231D01*
X152591Y78201D01*
Y58931D01*
X152563Y58927D01*
X152488Y58902D01*
X152418Y58866D01*
X152355Y58819D01*
X152300Y58763D01*
X152254Y58699D01*
X152220Y58628D01*
X152121Y58356D01*
X152052Y58075D01*
X152010Y57789D01*
X151997Y57500D01*
X152010Y57211D01*
X152052Y56925D01*
X152121Y56644D01*
X152217Y56371D01*
X152252Y56300D01*
X152298Y56236D01*
X152353Y56179D01*
X152417Y56132D01*
X152487Y56096D01*
X152562Y56071D01*
X152591Y56066D01*
Y48997D01*
G37*
G36*
X64909Y68500D02*X73745D01*
Y61500D01*
X70621D01*
X70399Y61723D01*
X70472Y62029D01*
X70500Y62500D01*
X70472Y62971D01*
X70362Y63430D01*
X70181Y63866D01*
X69935Y64269D01*
X69628Y64628D01*
X69269Y64935D01*
X68866Y65181D01*
X68430Y65362D01*
X67971Y65472D01*
X67500Y65509D01*
X67029Y65472D01*
X66570Y65362D01*
X66134Y65181D01*
X65731Y64935D01*
X65372Y64628D01*
X65065Y64269D01*
X64909Y64013D01*
Y68500D01*
G37*
G36*
X73745Y42731D02*X73430Y42862D01*
X72971Y42972D01*
X72500Y43009D01*
X72029Y42972D01*
X71570Y42862D01*
X71134Y42681D01*
X70731Y42435D01*
X70372Y42128D01*
X70065Y41769D01*
X69901Y41500D01*
X64909D01*
Y56069D01*
X64937Y56073D01*
X65012Y56098D01*
X65082Y56134D01*
X65145Y56181D01*
X65200Y56237D01*
X65246Y56301D01*
X65280Y56372D01*
X65379Y56644D01*
X65448Y56925D01*
X65490Y57211D01*
X65503Y57500D01*
X65490Y57789D01*
X65448Y58075D01*
X65379Y58356D01*
X65283Y58629D01*
X65248Y58700D01*
X65202Y58764D01*
X65147Y58821D01*
X65083Y58868D01*
X65013Y58904D01*
X64938Y58929D01*
X64909Y58934D01*
Y60987D01*
X65065Y60731D01*
X65372Y60372D01*
X65731Y60065D01*
X66134Y59819D01*
X66570Y59638D01*
X67029Y59528D01*
X67500Y59491D01*
X67971Y59528D01*
X68277Y59601D01*
X68898Y58981D01*
X68936Y58936D01*
X69116Y58783D01*
X69317Y58659D01*
X69535Y58569D01*
X69765Y58514D01*
X70000Y58495D01*
X70059Y58500D01*
X73745D01*
Y42731D01*
G37*
G36*
X64909Y41500D02*X63750D01*
Y54788D01*
X63764Y54798D01*
X63821Y54853D01*
X63868Y54917D01*
X63904Y54987D01*
X63929Y55062D01*
X63942Y55140D01*
X63942Y55219D01*
X63931Y55297D01*
X63907Y55373D01*
X63871Y55444D01*
X63825Y55508D01*
X63770Y55564D01*
X63750Y55579D01*
Y59424D01*
X63768Y59438D01*
X63824Y59494D01*
X63869Y59558D01*
X63905Y59628D01*
X63928Y59703D01*
X63940Y59781D01*
X63940Y59860D01*
X63927Y59937D01*
X63902Y60012D01*
X63866Y60082D01*
X63819Y60145D01*
X63763Y60200D01*
X63750Y60209D01*
Y68500D01*
X64909D01*
Y64013D01*
X64819Y63866D01*
X64638Y63430D01*
X64528Y62971D01*
X64491Y62500D01*
X64528Y62029D01*
X64638Y61570D01*
X64819Y61134D01*
X64909Y60987D01*
Y58934D01*
X64860Y58942D01*
X64781Y58942D01*
X64703Y58931D01*
X64627Y58907D01*
X64556Y58871D01*
X64492Y58825D01*
X64436Y58770D01*
X64389Y58706D01*
X64353Y58636D01*
X64328Y58561D01*
X64315Y58483D01*
X64314Y58404D01*
X64326Y58326D01*
X64351Y58251D01*
X64417Y58070D01*
X64463Y57883D01*
X64491Y57692D01*
X64500Y57500D01*
X64491Y57308D01*
X64463Y57117D01*
X64417Y56930D01*
X64353Y56748D01*
X64328Y56674D01*
X64316Y56596D01*
X64317Y56517D01*
X64330Y56440D01*
X64355Y56365D01*
X64391Y56295D01*
X64438Y56232D01*
X64494Y56176D01*
X64558Y56131D01*
X64628Y56095D01*
X64703Y56072D01*
X64781Y56060D01*
X64860Y56060D01*
X64909Y56069D01*
Y41500D01*
G37*
G36*
X203745Y11500D02*X165000D01*
Y18041D01*
X168700Y18045D01*
X168853Y18082D01*
X168998Y18142D01*
X169133Y18224D01*
X169252Y18327D01*
X169355Y18446D01*
X169437Y18581D01*
X169497Y18726D01*
X169534Y18879D01*
X169543Y19036D01*
X169534Y24311D01*
X169497Y24464D01*
X169437Y24609D01*
X169355Y24744D01*
X169252Y24863D01*
X169133Y24966D01*
X168998Y25048D01*
X168853Y25108D01*
X168700Y25145D01*
X168543Y25154D01*
X165000Y25149D01*
Y26000D01*
X172401D01*
X172565Y25731D01*
X172872Y25372D01*
X173231Y25065D01*
X173634Y24819D01*
X174070Y24638D01*
X174529Y24528D01*
X175000Y24491D01*
X175471Y24528D01*
X175930Y24638D01*
X176366Y24819D01*
X176769Y25065D01*
X177128Y25372D01*
X177435Y25731D01*
X177681Y26134D01*
X177862Y26570D01*
X177972Y27029D01*
X178000Y27500D01*
X177972Y27971D01*
X177862Y28430D01*
X177681Y28866D01*
X177435Y29269D01*
X177128Y29628D01*
X176769Y29935D01*
X176366Y30181D01*
X175930Y30362D01*
X175471Y30472D01*
X175000Y30509D01*
X174529Y30472D01*
X174070Y30362D01*
X173634Y30181D01*
X173231Y29935D01*
X172872Y29628D01*
X172565Y29269D01*
X172401Y29000D01*
X165000D01*
Y29851D01*
X168700Y29855D01*
X168853Y29892D01*
X168998Y29952D01*
X169133Y30034D01*
X169252Y30137D01*
X169355Y30256D01*
X169437Y30391D01*
X169497Y30536D01*
X169534Y30689D01*
X169543Y30846D01*
X169534Y36121D01*
X169497Y36274D01*
X169437Y36419D01*
X169355Y36554D01*
X169252Y36673D01*
X169133Y36776D01*
X168998Y36858D01*
X168853Y36918D01*
X168700Y36955D01*
X168543Y36964D01*
X166500Y36961D01*
Y37401D01*
X166769Y37565D01*
X167128Y37872D01*
X167435Y38231D01*
X167599Y38500D01*
X199901D01*
X200065Y38231D01*
X200372Y37872D01*
X200731Y37565D01*
X201134Y37319D01*
X201570Y37138D01*
X202029Y37028D01*
X202500Y36991D01*
X202971Y37028D01*
X203430Y37138D01*
X203745Y37269D01*
Y36961D01*
X198800Y36955D01*
X198647Y36918D01*
X198502Y36858D01*
X198367Y36776D01*
X198248Y36673D01*
X198145Y36554D01*
X198063Y36419D01*
X198003Y36274D01*
X197966Y36121D01*
X197957Y35964D01*
X197966Y30689D01*
X198003Y30536D01*
X198063Y30391D01*
X198145Y30256D01*
X198248Y30137D01*
X198367Y30034D01*
X198502Y29952D01*
X198647Y29892D01*
X198800Y29855D01*
X198957Y29846D01*
X203745Y29852D01*
Y25151D01*
X198800Y25145D01*
X198647Y25108D01*
X198502Y25048D01*
X198367Y24966D01*
X198248Y24863D01*
X198145Y24744D01*
X198063Y24609D01*
X198003Y24464D01*
X197966Y24311D01*
X197957Y24154D01*
X197966Y18879D01*
X198003Y18726D01*
X198063Y18581D01*
X198145Y18446D01*
X198248Y18327D01*
X198367Y18224D01*
X198502Y18142D01*
X198647Y18082D01*
X198800Y18045D01*
X198957Y18036D01*
X203745Y18042D01*
Y11500D01*
G37*
G36*
X165000Y29000D02*X152495D01*
Y45383D01*
X158898Y38981D01*
X158936Y38936D01*
X159116Y38783D01*
X159317Y38659D01*
X159535Y38569D01*
X159765Y38514D01*
X160000Y38495D01*
X160059Y38500D01*
X162401D01*
X162565Y38231D01*
X162872Y37872D01*
X163231Y37565D01*
X163500Y37401D01*
Y36958D01*
X161300Y36955D01*
X161147Y36918D01*
X161002Y36858D01*
X160867Y36776D01*
X160748Y36673D01*
X160645Y36554D01*
X160563Y36419D01*
X160503Y36274D01*
X160466Y36121D01*
X160457Y35964D01*
X160466Y30689D01*
X160503Y30536D01*
X160563Y30391D01*
X160645Y30256D01*
X160748Y30137D01*
X160867Y30034D01*
X161002Y29952D01*
X161147Y29892D01*
X161300Y29855D01*
X161457Y29846D01*
X165000Y29851D01*
Y29000D01*
G37*
G36*
Y11500D02*X152495D01*
Y26000D01*
X165000D01*
Y25149D01*
X161300Y25145D01*
X161147Y25108D01*
X161002Y25048D01*
X160867Y24966D01*
X160748Y24863D01*
X160645Y24744D01*
X160563Y24609D01*
X160503Y24464D01*
X160466Y24311D01*
X160457Y24154D01*
X160466Y18879D01*
X160503Y18726D01*
X160563Y18581D01*
X160645Y18446D01*
X160748Y18327D01*
X160867Y18224D01*
X161002Y18142D01*
X161147Y18082D01*
X161300Y18045D01*
X161457Y18036D01*
X165000Y18041D01*
Y11500D01*
G37*
G36*
X135002Y46000D02*X151879D01*
X152495Y45383D01*
Y29000D01*
X135002D01*
Y46000D01*
G37*
G36*
X152495Y11500D02*X138501D01*
Y15205D01*
X138532Y15222D01*
X138594Y15270D01*
X138648Y15327D01*
X138691Y15393D01*
X138877Y15748D01*
X139025Y16121D01*
X139137Y16506D01*
X139212Y16900D01*
X139250Y17299D01*
Y17701D01*
X139212Y18100D01*
X139137Y18494D01*
X139025Y18879D01*
X138877Y19252D01*
X138695Y19609D01*
X138651Y19675D01*
X138597Y19733D01*
X138534Y19781D01*
X138501Y19800D01*
Y26000D01*
X152495D01*
Y11500D01*
G37*
G36*
X138501D02*X135002D01*
Y13250D01*
X135201D01*
X135600Y13288D01*
X135994Y13363D01*
X136379Y13475D01*
X136752Y13623D01*
X137109Y13805D01*
X137175Y13849D01*
X137233Y13903D01*
X137281Y13966D01*
X137320Y14036D01*
X137346Y14110D01*
X137361Y14188D01*
X137364Y14267D01*
X137354Y14346D01*
X137332Y14422D01*
X137298Y14494D01*
X137253Y14559D01*
X137199Y14617D01*
X137136Y14666D01*
X137067Y14704D01*
X136992Y14731D01*
X136914Y14745D01*
X136835Y14748D01*
X136757Y14738D01*
X136680Y14716D01*
X136609Y14681D01*
X136338Y14538D01*
X136053Y14425D01*
X135759Y14340D01*
X135458Y14282D01*
X135153Y14254D01*
X135002D01*
Y20746D01*
X135153D01*
X135458Y20718D01*
X135759Y20660D01*
X136053Y20575D01*
X136338Y20462D01*
X136611Y20322D01*
X136682Y20288D01*
X136757Y20266D01*
X136835Y20256D01*
X136914Y20258D01*
X136991Y20273D01*
X137065Y20300D01*
X137134Y20337D01*
X137197Y20386D01*
X137250Y20443D01*
X137295Y20508D01*
X137328Y20579D01*
X137350Y20655D01*
X137360Y20733D01*
X137358Y20812D01*
X137343Y20889D01*
X137316Y20963D01*
X137278Y21032D01*
X137230Y21094D01*
X137173Y21148D01*
X137107Y21191D01*
X136752Y21377D01*
X136379Y21525D01*
X135994Y21637D01*
X135600Y21712D01*
X135201Y21750D01*
X135002D01*
Y26000D01*
X138501D01*
Y19800D01*
X138464Y19820D01*
X138390Y19846D01*
X138312Y19861D01*
X138233Y19864D01*
X138154Y19854D01*
X138078Y19832D01*
X138006Y19798D01*
X137941Y19753D01*
X137883Y19699D01*
X137834Y19636D01*
X137796Y19567D01*
X137769Y19492D01*
X137755Y19414D01*
X137752Y19335D01*
X137762Y19257D01*
X137784Y19180D01*
X137819Y19109D01*
X137962Y18838D01*
X138075Y18553D01*
X138160Y18259D01*
X138218Y17958D01*
X138246Y17653D01*
Y17347D01*
X138218Y17042D01*
X138160Y16741D01*
X138075Y16447D01*
X137962Y16162D01*
X137822Y15889D01*
X137788Y15818D01*
X137766Y15743D01*
X137756Y15665D01*
X137758Y15586D01*
X137773Y15509D01*
X137800Y15435D01*
X137837Y15366D01*
X137886Y15303D01*
X137943Y15250D01*
X138008Y15205D01*
X138079Y15172D01*
X138155Y15150D01*
X138233Y15140D01*
X138312Y15142D01*
X138389Y15157D01*
X138463Y15184D01*
X138501Y15205D01*
Y11500D01*
G37*
G36*
X131499Y46000D02*X135002D01*
Y29000D01*
X132599D01*
X132435Y29269D01*
X132128Y29628D01*
X131769Y29935D01*
X131499Y30100D01*
Y46000D01*
G37*
G36*
X135002Y11500D02*X131499D01*
Y15200D01*
X131536Y15180D01*
X131610Y15154D01*
X131688Y15139D01*
X131767Y15136D01*
X131846Y15146D01*
X131922Y15168D01*
X131994Y15202D01*
X132059Y15247D01*
X132117Y15301D01*
X132166Y15364D01*
X132204Y15433D01*
X132231Y15508D01*
X132245Y15586D01*
X132248Y15665D01*
X132238Y15743D01*
X132216Y15820D01*
X132181Y15891D01*
X132038Y16162D01*
X131925Y16447D01*
X131840Y16741D01*
X131782Y17042D01*
X131754Y17347D01*
Y17653D01*
X131782Y17958D01*
X131840Y18259D01*
X131925Y18553D01*
X132038Y18838D01*
X132178Y19111D01*
X132212Y19182D01*
X132234Y19257D01*
X132244Y19335D01*
X132242Y19414D01*
X132227Y19491D01*
X132200Y19565D01*
X132163Y19634D01*
X132114Y19697D01*
X132057Y19750D01*
X131992Y19795D01*
X131921Y19828D01*
X131845Y19850D01*
X131767Y19860D01*
X131688Y19858D01*
X131611Y19843D01*
X131537Y19816D01*
X131499Y19795D01*
Y24900D01*
X131769Y25065D01*
X132128Y25372D01*
X132435Y25731D01*
X132599Y26000D01*
X135002D01*
Y21750D01*
X134799D01*
X134400Y21712D01*
X134006Y21637D01*
X133621Y21525D01*
X133248Y21377D01*
X132891Y21195D01*
X132825Y21151D01*
X132767Y21097D01*
X132719Y21034D01*
X132680Y20964D01*
X132654Y20890D01*
X132639Y20812D01*
X132636Y20733D01*
X132646Y20654D01*
X132668Y20578D01*
X132702Y20506D01*
X132747Y20441D01*
X132801Y20383D01*
X132864Y20334D01*
X132933Y20296D01*
X133008Y20269D01*
X133086Y20255D01*
X133165Y20252D01*
X133243Y20262D01*
X133320Y20284D01*
X133391Y20319D01*
X133662Y20462D01*
X133947Y20575D01*
X134241Y20660D01*
X134542Y20718D01*
X134847Y20746D01*
X135002D01*
Y14254D01*
X134847D01*
X134542Y14282D01*
X134241Y14340D01*
X133947Y14425D01*
X133662Y14538D01*
X133389Y14678D01*
X133318Y14712D01*
X133243Y14734D01*
X133165Y14744D01*
X133086Y14742D01*
X133009Y14727D01*
X132935Y14700D01*
X132866Y14663D01*
X132803Y14614D01*
X132750Y14557D01*
X132705Y14492D01*
X132672Y14421D01*
X132650Y14345D01*
X132640Y14267D01*
X132642Y14188D01*
X132657Y14111D01*
X132684Y14037D01*
X132722Y13968D01*
X132770Y13906D01*
X132827Y13852D01*
X132893Y13809D01*
X133248Y13623D01*
X133621Y13475D01*
X134006Y13363D01*
X134400Y13288D01*
X134799Y13250D01*
X135002D01*
Y11500D01*
G37*
G36*
X72500Y36991D02*X72971Y37028D01*
X73430Y37138D01*
X73866Y37319D01*
X74269Y37565D01*
X74628Y37872D01*
X74935Y38231D01*
X75099Y38500D01*
X78500D01*
Y25621D01*
X77034Y24155D01*
X77034Y24311D01*
X76997Y24464D01*
X76937Y24609D01*
X76855Y24744D01*
X76752Y24863D01*
X76633Y24966D01*
X76498Y25048D01*
X76353Y25108D01*
X76200Y25145D01*
X76043Y25154D01*
X72500Y25149D01*
Y29851D01*
X76200Y29855D01*
X76353Y29892D01*
X76498Y29952D01*
X76633Y30034D01*
X76752Y30137D01*
X76855Y30256D01*
X76937Y30391D01*
X76997Y30536D01*
X77034Y30689D01*
X77043Y30846D01*
X77034Y36121D01*
X76997Y36274D01*
X76937Y36419D01*
X76855Y36554D01*
X76752Y36673D01*
X76633Y36776D01*
X76498Y36858D01*
X76353Y36918D01*
X76200Y36955D01*
X76043Y36964D01*
X72500Y36959D01*
Y36991D01*
G37*
G36*
X131499Y11500D02*X124000D01*
Y39901D01*
X124269Y40065D01*
X124628Y40372D01*
X124935Y40731D01*
X125181Y41134D01*
X125362Y41570D01*
X125472Y42029D01*
X125500Y42500D01*
X125472Y42971D01*
X125362Y43430D01*
X125181Y43866D01*
X124935Y44269D01*
X124628Y44628D01*
X124269Y44935D01*
X123866Y45181D01*
X123430Y45362D01*
X122971Y45472D01*
X122500Y45509D01*
X122029Y45472D01*
X121570Y45362D01*
X121134Y45181D01*
X120731Y44935D01*
X120372Y44628D01*
X120065Y44269D01*
X119819Y43866D01*
X119638Y43430D01*
X119528Y42971D01*
X119491Y42500D01*
X119528Y42029D01*
X119638Y41570D01*
X119819Y41134D01*
X120065Y40731D01*
X120372Y40372D01*
X120731Y40065D01*
X121000Y39901D01*
Y11500D01*
X112500D01*
Y18041D01*
X116200Y18045D01*
X116353Y18082D01*
X116498Y18142D01*
X116633Y18224D01*
X116752Y18327D01*
X116855Y18446D01*
X116937Y18581D01*
X116997Y18726D01*
X117034Y18879D01*
X117043Y19036D01*
X117034Y24311D01*
X116997Y24464D01*
X116937Y24609D01*
X116855Y24744D01*
X116752Y24863D01*
X116633Y24966D01*
X116498Y25048D01*
X116353Y25108D01*
X116200Y25145D01*
X116043Y25154D01*
X112500Y25149D01*
Y29851D01*
X116200Y29855D01*
X116353Y29892D01*
X116498Y29952D01*
X116633Y30034D01*
X116752Y30137D01*
X116855Y30256D01*
X116937Y30391D01*
X116997Y30536D01*
X117034Y30689D01*
X117043Y30846D01*
X117034Y36121D01*
X116997Y36274D01*
X116937Y36419D01*
X116855Y36554D01*
X116752Y36673D01*
X116633Y36776D01*
X116498Y36858D01*
X116353Y36918D01*
X116200Y36955D01*
X116043Y36964D01*
X114000Y36961D01*
Y37401D01*
X114269Y37565D01*
X114628Y37872D01*
X114935Y38231D01*
X115181Y38634D01*
X115362Y39070D01*
X115472Y39529D01*
X115500Y40000D01*
X115472Y40471D01*
X115399Y40777D01*
X120621Y46000D01*
X131499D01*
Y30100D01*
X131366Y30181D01*
X130930Y30362D01*
X130471Y30472D01*
X130000Y30509D01*
X129529Y30472D01*
X129070Y30362D01*
X128634Y30181D01*
X128231Y29935D01*
X127872Y29628D01*
X127565Y29269D01*
X127319Y28866D01*
X127138Y28430D01*
X127028Y27971D01*
X126991Y27500D01*
X127028Y27029D01*
X127138Y26570D01*
X127319Y26134D01*
X127565Y25731D01*
X127872Y25372D01*
X128231Y25065D01*
X128634Y24819D01*
X129070Y24638D01*
X129529Y24528D01*
X130000Y24491D01*
X130471Y24528D01*
X130930Y24638D01*
X131366Y24819D01*
X131499Y24900D01*
Y19795D01*
X131468Y19778D01*
X131406Y19730D01*
X131352Y19673D01*
X131309Y19607D01*
X131123Y19252D01*
X130975Y18879D01*
X130863Y18494D01*
X130788Y18100D01*
X130750Y17701D01*
Y17299D01*
X130788Y16900D01*
X130863Y16506D01*
X130975Y16121D01*
X131123Y15748D01*
X131305Y15391D01*
X131349Y15325D01*
X131403Y15267D01*
X131466Y15219D01*
X131499Y15200D01*
Y11500D01*
G37*
G36*
X112500D02*X72500D01*
Y18041D01*
X76200Y18045D01*
X76353Y18082D01*
X76498Y18142D01*
X76633Y18224D01*
X76752Y18327D01*
X76855Y18446D01*
X76937Y18581D01*
X76997Y18726D01*
X77034Y18879D01*
X77043Y19036D01*
X77040Y21000D01*
X77441D01*
X77500Y20995D01*
X77735Y21014D01*
X77735Y21014D01*
X77965Y21069D01*
X78183Y21159D01*
X78384Y21283D01*
X78564Y21436D01*
X78602Y21481D01*
X81019Y23898D01*
X81064Y23936D01*
X81217Y24115D01*
X81217Y24116D01*
X81341Y24317D01*
X81431Y24535D01*
X81486Y24765D01*
X81505Y25000D01*
X81500Y25059D01*
Y38500D01*
X109901D01*
X110065Y38231D01*
X110372Y37872D01*
X110731Y37565D01*
X111000Y37401D01*
Y36958D01*
X108800Y36955D01*
X108647Y36918D01*
X108502Y36858D01*
X108367Y36776D01*
X108248Y36673D01*
X108145Y36554D01*
X108063Y36419D01*
X108003Y36274D01*
X107966Y36121D01*
X107957Y35964D01*
X107966Y30689D01*
X108003Y30536D01*
X108063Y30391D01*
X108145Y30256D01*
X108248Y30137D01*
X108367Y30034D01*
X108502Y29952D01*
X108647Y29892D01*
X108800Y29855D01*
X108957Y29846D01*
X112500Y29851D01*
Y25149D01*
X108800Y25145D01*
X108647Y25108D01*
X108502Y25048D01*
X108367Y24966D01*
X108248Y24863D01*
X108145Y24744D01*
X108063Y24609D01*
X108003Y24464D01*
X107966Y24311D01*
X107957Y24154D01*
X107966Y18879D01*
X108003Y18726D01*
X108063Y18581D01*
X108145Y18446D01*
X108248Y18327D01*
X108367Y18224D01*
X108502Y18142D01*
X108647Y18082D01*
X108800Y18045D01*
X108957Y18036D01*
X112500Y18041D01*
Y11500D01*
G37*
G36*
X72500D02*X63750D01*
Y24771D01*
X64070Y24638D01*
X64529Y24528D01*
X65000Y24491D01*
X65471Y24528D01*
X65930Y24638D01*
X66366Y24819D01*
X66769Y25065D01*
X67128Y25372D01*
X67435Y25731D01*
X67681Y26134D01*
X67862Y26570D01*
X67972Y27029D01*
X68000Y27500D01*
X67972Y27971D01*
X67862Y28430D01*
X67681Y28866D01*
X67435Y29269D01*
X67128Y29628D01*
X66769Y29935D01*
X66366Y30181D01*
X65930Y30362D01*
X65471Y30472D01*
X65000Y30509D01*
X64529Y30472D01*
X64070Y30362D01*
X63750Y30229D01*
Y38500D01*
X69901D01*
X70065Y38231D01*
X70372Y37872D01*
X70731Y37565D01*
X71134Y37319D01*
X71570Y37138D01*
X72029Y37028D01*
X72500Y36991D01*
Y36959D01*
X68800Y36955D01*
X68647Y36918D01*
X68502Y36858D01*
X68367Y36776D01*
X68248Y36673D01*
X68145Y36554D01*
X68063Y36419D01*
X68003Y36274D01*
X67966Y36121D01*
X67957Y35964D01*
X67966Y30689D01*
X68003Y30536D01*
X68063Y30391D01*
X68145Y30256D01*
X68248Y30137D01*
X68367Y30034D01*
X68502Y29952D01*
X68647Y29892D01*
X68800Y29855D01*
X68957Y29846D01*
X72500Y29851D01*
Y25149D01*
X68800Y25145D01*
X68647Y25108D01*
X68502Y25048D01*
X68367Y24966D01*
X68248Y24863D01*
X68145Y24744D01*
X68063Y24609D01*
X68003Y24464D01*
X67966Y24311D01*
X67957Y24154D01*
X67966Y18879D01*
X68003Y18726D01*
X68063Y18581D01*
X68145Y18446D01*
X68248Y18327D01*
X68367Y18224D01*
X68502Y18142D01*
X68647Y18082D01*
X68800Y18045D01*
X68957Y18036D01*
X72500Y18041D01*
Y11500D01*
G37*
G36*
X203745Y0D02*X63750D01*
Y672D01*
X64294Y542D01*
X65000Y486D01*
X65706Y542D01*
X66395Y707D01*
X67049Y978D01*
X67653Y1348D01*
X68192Y1808D01*
X68652Y2347D01*
X69022Y2951D01*
X69293Y3605D01*
X69458Y4294D01*
X69500Y5000D01*
X69458Y5706D01*
X69293Y6395D01*
X69022Y7049D01*
X68652Y7653D01*
X68192Y8192D01*
X67831Y8500D01*
X72169D01*
X71808Y8192D01*
X71348Y7653D01*
X70978Y7049D01*
X70707Y6395D01*
X70542Y5706D01*
X70486Y5000D01*
X70542Y4294D01*
X70707Y3605D01*
X70978Y2951D01*
X71348Y2347D01*
X71808Y1808D01*
X72347Y1348D01*
X72951Y978D01*
X73605Y707D01*
X74294Y542D01*
X75000Y486D01*
X75706Y542D01*
X76395Y707D01*
X77049Y978D01*
X77653Y1348D01*
X78192Y1808D01*
X78652Y2347D01*
X79022Y2951D01*
X79293Y3605D01*
X79458Y4294D01*
X79500Y5000D01*
X79458Y5706D01*
X79293Y6395D01*
X79022Y7049D01*
X78652Y7653D01*
X78192Y8192D01*
X77831Y8500D01*
X122441D01*
X122500Y8495D01*
X122559Y8500D01*
X203745D01*
Y0D01*
G37*
G36*
X142409Y115000D02*X203745D01*
Y109000D01*
X152559D01*
X152500Y109005D01*
X152265Y108986D01*
X152035Y108931D01*
X151817Y108841D01*
X151616Y108717D01*
X151615Y108717D01*
X151436Y108564D01*
X151398Y108519D01*
X142409Y99530D01*
Y101069D01*
X142437Y101073D01*
X142512Y101098D01*
X142582Y101134D01*
X142645Y101181D01*
X142700Y101237D01*
X142746Y101301D01*
X142780Y101372D01*
X142879Y101644D01*
X142948Y101925D01*
X142990Y102211D01*
X143003Y102500D01*
X142990Y102789D01*
X142948Y103075D01*
X142879Y103356D01*
X142783Y103629D01*
X142748Y103700D01*
X142702Y103764D01*
X142647Y103821D01*
X142583Y103868D01*
X142513Y103904D01*
X142438Y103929D01*
X142409Y103934D01*
Y115000D01*
G37*
G36*
X140001D02*X142409D01*
Y103934D01*
X142360Y103942D01*
X142281Y103942D01*
X142203Y103931D01*
X142127Y103907D01*
X142056Y103871D01*
X141992Y103825D01*
X141936Y103770D01*
X141889Y103706D01*
X141853Y103636D01*
X141828Y103561D01*
X141815Y103483D01*
X141814Y103404D01*
X141826Y103326D01*
X141851Y103251D01*
X141917Y103070D01*
X141963Y102883D01*
X141991Y102692D01*
X142000Y102500D01*
X141991Y102308D01*
X141963Y102117D01*
X141917Y101930D01*
X141853Y101748D01*
X141828Y101674D01*
X141816Y101596D01*
X141817Y101517D01*
X141830Y101440D01*
X141855Y101365D01*
X141891Y101295D01*
X141938Y101232D01*
X141994Y101176D01*
X142058Y101131D01*
X142128Y101095D01*
X142203Y101072D01*
X142281Y101060D01*
X142360Y101060D01*
X142409Y101069D01*
Y99530D01*
X140001Y97122D01*
Y99497D01*
X140289Y99510D01*
X140575Y99552D01*
X140856Y99621D01*
X141129Y99717D01*
X141200Y99752D01*
X141264Y99798D01*
X141321Y99853D01*
X141368Y99917D01*
X141404Y99987D01*
X141429Y100062D01*
X141442Y100140D01*
X141442Y100219D01*
X141431Y100297D01*
X141407Y100373D01*
X141371Y100444D01*
X141325Y100508D01*
X141270Y100564D01*
X141206Y100611D01*
X141136Y100647D01*
X141061Y100672D01*
X140983Y100685D01*
X140904Y100686D01*
X140826Y100674D01*
X140751Y100649D01*
X140570Y100583D01*
X140383Y100537D01*
X140192Y100509D01*
X140001Y100500D01*
Y104500D01*
X140192Y104491D01*
X140383Y104463D01*
X140570Y104417D01*
X140752Y104353D01*
X140826Y104328D01*
X140904Y104316D01*
X140983Y104317D01*
X141060Y104330D01*
X141135Y104355D01*
X141205Y104391D01*
X141268Y104438D01*
X141324Y104494D01*
X141369Y104558D01*
X141405Y104628D01*
X141428Y104703D01*
X141440Y104781D01*
X141440Y104860D01*
X141427Y104937D01*
X141402Y105012D01*
X141366Y105082D01*
X141319Y105145D01*
X141263Y105200D01*
X141199Y105246D01*
X141128Y105280D01*
X140856Y105379D01*
X140575Y105448D01*
X140289Y105490D01*
X140001Y105503D01*
Y115000D01*
G37*
G36*
X137591D02*X140001D01*
Y105503D01*
X140000Y105503D01*
X139711Y105490D01*
X139425Y105448D01*
X139144Y105379D01*
X138871Y105283D01*
X138800Y105248D01*
X138736Y105202D01*
X138679Y105147D01*
X138632Y105083D01*
X138596Y105013D01*
X138571Y104938D01*
X138558Y104860D01*
X138558Y104781D01*
X138569Y104703D01*
X138593Y104627D01*
X138629Y104556D01*
X138675Y104492D01*
X138730Y104436D01*
X138794Y104389D01*
X138864Y104353D01*
X138939Y104328D01*
X139017Y104315D01*
X139096Y104314D01*
X139174Y104326D01*
X139249Y104351D01*
X139430Y104417D01*
X139617Y104463D01*
X139808Y104491D01*
X140000Y104500D01*
X140001Y104500D01*
Y100500D01*
X140000Y100500D01*
X139808Y100509D01*
X139617Y100537D01*
X139430Y100583D01*
X139248Y100647D01*
X139174Y100672D01*
X139096Y100684D01*
X139017Y100683D01*
X138940Y100670D01*
X138865Y100645D01*
X138795Y100609D01*
X138732Y100562D01*
X138676Y100506D01*
X138631Y100442D01*
X138595Y100372D01*
X138572Y100297D01*
X138560Y100219D01*
X138560Y100140D01*
X138573Y100063D01*
X138598Y99988D01*
X138634Y99918D01*
X138681Y99855D01*
X138737Y99800D01*
X138801Y99754D01*
X138872Y99720D01*
X139144Y99621D01*
X139425Y99552D01*
X139711Y99510D01*
X140000Y99497D01*
X140001Y99497D01*
Y97122D01*
X137591Y94713D01*
Y101066D01*
X137640Y101058D01*
X137719Y101058D01*
X137797Y101069D01*
X137873Y101093D01*
X137944Y101129D01*
X138008Y101175D01*
X138064Y101230D01*
X138111Y101294D01*
X138147Y101364D01*
X138172Y101439D01*
X138185Y101517D01*
X138186Y101596D01*
X138174Y101674D01*
X138149Y101749D01*
X138083Y101930D01*
X138037Y102117D01*
X138009Y102308D01*
X138000Y102500D01*
X138009Y102692D01*
X138037Y102883D01*
X138083Y103070D01*
X138147Y103252D01*
X138172Y103326D01*
X138184Y103404D01*
X138183Y103483D01*
X138170Y103560D01*
X138145Y103635D01*
X138109Y103705D01*
X138062Y103768D01*
X138006Y103824D01*
X137942Y103869D01*
X137872Y103905D01*
X137797Y103928D01*
X137719Y103940D01*
X137640Y103940D01*
X137591Y103931D01*
Y115000D01*
G37*
G36*
X124909D02*X137591D01*
Y103931D01*
X137563Y103927D01*
X137488Y103902D01*
X137418Y103866D01*
X137355Y103819D01*
X137300Y103763D01*
X137254Y103699D01*
X137220Y103628D01*
X137121Y103356D01*
X137052Y103075D01*
X137010Y102789D01*
X136997Y102500D01*
X137010Y102211D01*
X137052Y101925D01*
X137121Y101644D01*
X137217Y101371D01*
X137252Y101300D01*
X137298Y101236D01*
X137353Y101179D01*
X137417Y101132D01*
X137487Y101096D01*
X137562Y101071D01*
X137591Y101066D01*
Y94713D01*
X133981Y91102D01*
X133936Y91064D01*
X133783Y90884D01*
X133659Y90683D01*
X133569Y90465D01*
X133514Y90235D01*
X133514Y90235D01*
X133495Y90000D01*
X133500Y89941D01*
Y73121D01*
X131879Y71500D01*
X124909D01*
Y101069D01*
X124937Y101073D01*
X125012Y101098D01*
X125082Y101134D01*
X125145Y101181D01*
X125200Y101237D01*
X125246Y101301D01*
X125280Y101372D01*
X125379Y101644D01*
X125448Y101925D01*
X125490Y102211D01*
X125503Y102500D01*
X125490Y102789D01*
X125448Y103075D01*
X125379Y103356D01*
X125283Y103629D01*
X125248Y103700D01*
X125202Y103764D01*
X125147Y103821D01*
X125083Y103868D01*
X125013Y103904D01*
X124938Y103929D01*
X124909Y103934D01*
Y115000D01*
G37*
G36*
X122501D02*X124909D01*
Y103934D01*
X124860Y103942D01*
X124781Y103942D01*
X124703Y103931D01*
X124627Y103907D01*
X124556Y103871D01*
X124492Y103825D01*
X124436Y103770D01*
X124389Y103706D01*
X124353Y103636D01*
X124328Y103561D01*
X124315Y103483D01*
X124314Y103404D01*
X124326Y103326D01*
X124351Y103251D01*
X124417Y103070D01*
X124463Y102883D01*
X124491Y102692D01*
X124500Y102500D01*
X124491Y102308D01*
X124463Y102117D01*
X124417Y101930D01*
X124353Y101748D01*
X124328Y101674D01*
X124316Y101596D01*
X124317Y101517D01*
X124330Y101440D01*
X124355Y101365D01*
X124391Y101295D01*
X124438Y101232D01*
X124494Y101176D01*
X124558Y101131D01*
X124628Y101095D01*
X124703Y101072D01*
X124781Y101060D01*
X124860Y101060D01*
X124909Y101069D01*
Y71500D01*
X122501D01*
Y99497D01*
X122789Y99510D01*
X123075Y99552D01*
X123356Y99621D01*
X123629Y99717D01*
X123700Y99752D01*
X123764Y99798D01*
X123821Y99853D01*
X123868Y99917D01*
X123904Y99987D01*
X123929Y100062D01*
X123942Y100140D01*
X123942Y100219D01*
X123931Y100297D01*
X123907Y100373D01*
X123871Y100444D01*
X123825Y100508D01*
X123770Y100564D01*
X123706Y100611D01*
X123636Y100647D01*
X123561Y100672D01*
X123483Y100685D01*
X123404Y100686D01*
X123326Y100674D01*
X123251Y100649D01*
X123070Y100583D01*
X122883Y100537D01*
X122692Y100509D01*
X122501Y100500D01*
Y104500D01*
X122692Y104491D01*
X122883Y104463D01*
X123070Y104417D01*
X123252Y104353D01*
X123326Y104328D01*
X123404Y104316D01*
X123483Y104317D01*
X123560Y104330D01*
X123635Y104355D01*
X123705Y104391D01*
X123768Y104438D01*
X123824Y104494D01*
X123869Y104558D01*
X123905Y104628D01*
X123928Y104703D01*
X123940Y104781D01*
X123940Y104860D01*
X123927Y104937D01*
X123902Y105012D01*
X123866Y105082D01*
X123819Y105145D01*
X123763Y105200D01*
X123699Y105246D01*
X123628Y105280D01*
X123356Y105379D01*
X123075Y105448D01*
X122789Y105490D01*
X122501Y105503D01*
Y115000D01*
G37*
G36*
X120091D02*X122501D01*
Y105503D01*
X122500Y105503D01*
X122211Y105490D01*
X121925Y105448D01*
X121644Y105379D01*
X121371Y105283D01*
X121300Y105248D01*
X121236Y105202D01*
X121179Y105147D01*
X121132Y105083D01*
X121096Y105013D01*
X121071Y104938D01*
X121058Y104860D01*
X121058Y104781D01*
X121069Y104703D01*
X121093Y104627D01*
X121129Y104556D01*
X121175Y104492D01*
X121230Y104436D01*
X121294Y104389D01*
X121364Y104353D01*
X121439Y104328D01*
X121517Y104315D01*
X121596Y104314D01*
X121674Y104326D01*
X121749Y104351D01*
X121930Y104417D01*
X122117Y104463D01*
X122308Y104491D01*
X122500Y104500D01*
X122501Y104500D01*
Y100500D01*
X122500Y100500D01*
X122308Y100509D01*
X122117Y100537D01*
X121930Y100583D01*
X121748Y100647D01*
X121674Y100672D01*
X121596Y100684D01*
X121517Y100683D01*
X121440Y100670D01*
X121365Y100645D01*
X121295Y100609D01*
X121232Y100562D01*
X121176Y100506D01*
X121131Y100442D01*
X121095Y100372D01*
X121072Y100297D01*
X121060Y100219D01*
X121060Y100140D01*
X121073Y100063D01*
X121098Y99988D01*
X121134Y99918D01*
X121181Y99855D01*
X121237Y99800D01*
X121301Y99754D01*
X121372Y99720D01*
X121644Y99621D01*
X121925Y99552D01*
X122211Y99510D01*
X122500Y99497D01*
X122501Y99497D01*
Y71500D01*
X120091D01*
Y101066D01*
X120140Y101058D01*
X120219Y101058D01*
X120297Y101069D01*
X120373Y101093D01*
X120444Y101129D01*
X120508Y101175D01*
X120564Y101230D01*
X120611Y101294D01*
X120647Y101364D01*
X120672Y101439D01*
X120685Y101517D01*
X120686Y101596D01*
X120674Y101674D01*
X120649Y101749D01*
X120583Y101930D01*
X120537Y102117D01*
X120509Y102308D01*
X120500Y102500D01*
X120509Y102692D01*
X120537Y102883D01*
X120583Y103070D01*
X120647Y103252D01*
X120672Y103326D01*
X120684Y103404D01*
X120683Y103483D01*
X120670Y103560D01*
X120645Y103635D01*
X120609Y103705D01*
X120562Y103768D01*
X120506Y103824D01*
X120442Y103869D01*
X120372Y103905D01*
X120297Y103928D01*
X120219Y103940D01*
X120140Y103940D01*
X120091Y103931D01*
Y115000D01*
G37*
G36*
X102500D02*X120091D01*
Y103931D01*
X120063Y103927D01*
X119988Y103902D01*
X119918Y103866D01*
X119855Y103819D01*
X119800Y103763D01*
X119754Y103699D01*
X119720Y103628D01*
X119621Y103356D01*
X119552Y103075D01*
X119510Y102789D01*
X119497Y102500D01*
X119510Y102211D01*
X119552Y101925D01*
X119621Y101644D01*
X119717Y101371D01*
X119752Y101300D01*
X119798Y101236D01*
X119853Y101179D01*
X119917Y101132D01*
X119987Y101096D01*
X120062Y101071D01*
X120091Y101066D01*
Y71500D01*
X102500D01*
Y76991D01*
X102971Y77028D01*
X103430Y77138D01*
X103866Y77319D01*
X104269Y77565D01*
X104628Y77872D01*
X104935Y78231D01*
X105181Y78634D01*
X105362Y79070D01*
X105472Y79529D01*
X105500Y80000D01*
X105472Y80471D01*
X105362Y80930D01*
X105181Y81366D01*
X104935Y81769D01*
X104628Y82128D01*
X104269Y82435D01*
X104000Y82599D01*
Y83042D01*
X106200Y83045D01*
X106353Y83082D01*
X106498Y83142D01*
X106633Y83224D01*
X106752Y83327D01*
X106855Y83446D01*
X106937Y83581D01*
X106997Y83726D01*
X107034Y83879D01*
X107043Y84036D01*
X107034Y89311D01*
X106997Y89464D01*
X106937Y89609D01*
X106855Y89744D01*
X106752Y89863D01*
X106633Y89966D01*
X106498Y90048D01*
X106353Y90108D01*
X106200Y90145D01*
X106043Y90154D01*
X102500Y90149D01*
Y94851D01*
X106200Y94855D01*
X106353Y94892D01*
X106498Y94952D01*
X106633Y95034D01*
X106752Y95137D01*
X106855Y95256D01*
X106937Y95391D01*
X106997Y95536D01*
X107034Y95689D01*
X107043Y95846D01*
X107034Y101121D01*
X106997Y101274D01*
X106937Y101419D01*
X106855Y101554D01*
X106752Y101673D01*
X106633Y101776D01*
X106498Y101858D01*
X106353Y101918D01*
X106200Y101955D01*
X106043Y101964D01*
X102500Y101959D01*
Y103237D01*
X103167Y103289D01*
X103817Y103446D01*
X104435Y103702D01*
X105006Y104051D01*
X105514Y104486D01*
X105949Y104994D01*
X106298Y105565D01*
X106554Y106183D01*
X106711Y106833D01*
X106750Y107500D01*
X106711Y108167D01*
X106554Y108817D01*
X106298Y109435D01*
X105949Y110006D01*
X105514Y110514D01*
X105006Y110949D01*
X104435Y111298D01*
X103817Y111554D01*
X103167Y111711D01*
X102500Y111763D01*
Y115000D01*
G37*
G36*
Y90149D02*X98800Y90145D01*
X98647Y90108D01*
X98502Y90048D01*
X98367Y89966D01*
X98248Y89863D01*
X98145Y89744D01*
X98063Y89609D01*
X98003Y89464D01*
X97966Y89311D01*
X97957Y89154D01*
X97957Y89000D01*
X97409D01*
Y101069D01*
X97437Y101073D01*
X97512Y101098D01*
X97582Y101134D01*
X97645Y101181D01*
X97700Y101237D01*
X97746Y101301D01*
X97780Y101372D01*
X97879Y101644D01*
X97948Y101925D01*
X97990Y102211D01*
X98003Y102500D01*
X97990Y102789D01*
X97948Y103075D01*
X97879Y103356D01*
X97783Y103629D01*
X97748Y103700D01*
X97702Y103764D01*
X97647Y103821D01*
X97583Y103868D01*
X97513Y103904D01*
X97438Y103929D01*
X97409Y103934D01*
Y106000D01*
X98521D01*
X98702Y105565D01*
X99051Y104994D01*
X99486Y104486D01*
X99994Y104051D01*
X100565Y103702D01*
X101183Y103446D01*
X101833Y103289D01*
X102500Y103237D01*
Y101959D01*
X98800Y101955D01*
X98647Y101918D01*
X98502Y101858D01*
X98367Y101776D01*
X98248Y101673D01*
X98145Y101554D01*
X98063Y101419D01*
X98003Y101274D01*
X97966Y101121D01*
X97957Y100964D01*
X97966Y95689D01*
X98003Y95536D01*
X98063Y95391D01*
X98145Y95256D01*
X98248Y95137D01*
X98367Y95034D01*
X98502Y94952D01*
X98647Y94892D01*
X98800Y94855D01*
X98957Y94846D01*
X102500Y94851D01*
Y90149D01*
G37*
G36*
Y71500D02*X97409D01*
Y86000D01*
X97963D01*
X97966Y83879D01*
X98003Y83726D01*
X98063Y83581D01*
X98145Y83446D01*
X98248Y83327D01*
X98367Y83224D01*
X98502Y83142D01*
X98647Y83082D01*
X98800Y83045D01*
X98957Y83036D01*
X101000Y83039D01*
Y82599D01*
X100731Y82435D01*
X100372Y82128D01*
X100065Y81769D01*
X99819Y81366D01*
X99638Y80930D01*
X99528Y80471D01*
X99491Y80000D01*
X99528Y79529D01*
X99638Y79070D01*
X99819Y78634D01*
X100065Y78231D01*
X100372Y77872D01*
X100731Y77565D01*
X101134Y77319D01*
X101570Y77138D01*
X102029Y77028D01*
X102500Y76991D01*
Y71500D01*
G37*
G36*
X97409Y115000D02*X102500D01*
Y111763D01*
X101833Y111711D01*
X101183Y111554D01*
X100565Y111298D01*
X99994Y110949D01*
X99486Y110514D01*
X99051Y110006D01*
X98702Y109435D01*
X98521Y109000D01*
X97409D01*
Y115000D01*
G37*
G36*
Y89000D02*X95001D01*
Y99497D01*
X95289Y99510D01*
X95575Y99552D01*
X95856Y99621D01*
X96129Y99717D01*
X96200Y99752D01*
X96264Y99798D01*
X96321Y99853D01*
X96368Y99917D01*
X96404Y99987D01*
X96429Y100062D01*
X96442Y100140D01*
X96442Y100219D01*
X96431Y100297D01*
X96407Y100373D01*
X96371Y100444D01*
X96325Y100508D01*
X96270Y100564D01*
X96206Y100611D01*
X96136Y100647D01*
X96061Y100672D01*
X95983Y100685D01*
X95904Y100686D01*
X95826Y100674D01*
X95751Y100649D01*
X95570Y100583D01*
X95383Y100537D01*
X95192Y100509D01*
X95001Y100500D01*
Y104500D01*
X95192Y104491D01*
X95383Y104463D01*
X95570Y104417D01*
X95752Y104353D01*
X95826Y104328D01*
X95904Y104316D01*
X95983Y104317D01*
X96060Y104330D01*
X96135Y104355D01*
X96205Y104391D01*
X96268Y104438D01*
X96324Y104494D01*
X96369Y104558D01*
X96405Y104628D01*
X96428Y104703D01*
X96440Y104781D01*
X96440Y104860D01*
X96427Y104937D01*
X96402Y105012D01*
X96366Y105082D01*
X96319Y105145D01*
X96263Y105200D01*
X96199Y105246D01*
X96128Y105280D01*
X95856Y105379D01*
X95575Y105448D01*
X95289Y105490D01*
X95001Y105503D01*
Y106000D01*
X97409D01*
Y103934D01*
X97360Y103942D01*
X97281Y103942D01*
X97203Y103931D01*
X97127Y103907D01*
X97056Y103871D01*
X96992Y103825D01*
X96936Y103770D01*
X96889Y103706D01*
X96853Y103636D01*
X96828Y103561D01*
X96815Y103483D01*
X96814Y103404D01*
X96826Y103326D01*
X96851Y103251D01*
X96917Y103070D01*
X96963Y102883D01*
X96991Y102692D01*
X97000Y102500D01*
X96991Y102308D01*
X96963Y102117D01*
X96917Y101930D01*
X96853Y101748D01*
X96828Y101674D01*
X96816Y101596D01*
X96817Y101517D01*
X96830Y101440D01*
X96855Y101365D01*
X96891Y101295D01*
X96938Y101232D01*
X96994Y101176D01*
X97058Y101131D01*
X97128Y101095D01*
X97203Y101072D01*
X97281Y101060D01*
X97360Y101060D01*
X97409Y101069D01*
Y89000D01*
G37*
G36*
Y71500D02*X95001D01*
Y86000D01*
X97409D01*
Y71500D01*
G37*
G36*
X95001Y115000D02*X97409D01*
Y109000D01*
X95001D01*
Y115000D01*
G37*
G36*
Y89000D02*X92591D01*
Y101066D01*
X92640Y101058D01*
X92719Y101058D01*
X92797Y101069D01*
X92873Y101093D01*
X92944Y101129D01*
X93008Y101175D01*
X93064Y101230D01*
X93111Y101294D01*
X93147Y101364D01*
X93172Y101439D01*
X93185Y101517D01*
X93186Y101596D01*
X93174Y101674D01*
X93149Y101749D01*
X93083Y101930D01*
X93037Y102117D01*
X93009Y102308D01*
X93000Y102500D01*
X93009Y102692D01*
X93037Y102883D01*
X93083Y103070D01*
X93147Y103252D01*
X93172Y103326D01*
X93184Y103404D01*
X93183Y103483D01*
X93170Y103560D01*
X93145Y103635D01*
X93109Y103705D01*
X93062Y103768D01*
X93006Y103824D01*
X92942Y103869D01*
X92872Y103905D01*
X92797Y103928D01*
X92719Y103940D01*
X92640Y103940D01*
X92591Y103931D01*
Y106000D01*
X95001D01*
Y105503D01*
X95000Y105503D01*
X94711Y105490D01*
X94425Y105448D01*
X94144Y105379D01*
X93871Y105283D01*
X93800Y105248D01*
X93736Y105202D01*
X93679Y105147D01*
X93632Y105083D01*
X93596Y105013D01*
X93571Y104938D01*
X93558Y104860D01*
X93558Y104781D01*
X93569Y104703D01*
X93593Y104627D01*
X93629Y104556D01*
X93675Y104492D01*
X93730Y104436D01*
X93794Y104389D01*
X93864Y104353D01*
X93939Y104328D01*
X94017Y104315D01*
X94096Y104314D01*
X94174Y104326D01*
X94249Y104351D01*
X94430Y104417D01*
X94617Y104463D01*
X94808Y104491D01*
X95000Y104500D01*
X95001Y104500D01*
Y100500D01*
X95000Y100500D01*
X94808Y100509D01*
X94617Y100537D01*
X94430Y100583D01*
X94248Y100647D01*
X94174Y100672D01*
X94096Y100684D01*
X94017Y100683D01*
X93940Y100670D01*
X93865Y100645D01*
X93795Y100609D01*
X93732Y100562D01*
X93676Y100506D01*
X93631Y100442D01*
X93595Y100372D01*
X93572Y100297D01*
X93560Y100219D01*
X93560Y100140D01*
X93573Y100063D01*
X93598Y99988D01*
X93634Y99918D01*
X93681Y99855D01*
X93737Y99800D01*
X93801Y99754D01*
X93872Y99720D01*
X94144Y99621D01*
X94425Y99552D01*
X94711Y99510D01*
X95000Y99497D01*
X95001Y99497D01*
Y89000D01*
G37*
G36*
X92591D02*X67034D01*
X67034Y89311D01*
X66997Y89464D01*
X66937Y89609D01*
X66855Y89744D01*
X66752Y89863D01*
X66633Y89966D01*
X66498Y90048D01*
X66353Y90108D01*
X66200Y90145D01*
X66043Y90154D01*
X63750Y90151D01*
Y94852D01*
X66200Y94855D01*
X66353Y94892D01*
X66498Y94952D01*
X66633Y95034D01*
X66752Y95137D01*
X66855Y95256D01*
X66937Y95391D01*
X66997Y95536D01*
X67034Y95689D01*
X67043Y95846D01*
X67034Y101121D01*
X66997Y101274D01*
X66937Y101419D01*
X66855Y101554D01*
X66752Y101673D01*
X66633Y101776D01*
X66498Y101858D01*
X66353Y101918D01*
X66200Y101955D01*
X66043Y101964D01*
X63750Y101961D01*
Y106000D01*
X92591D01*
Y103931D01*
X92563Y103927D01*
X92488Y103902D01*
X92418Y103866D01*
X92355Y103819D01*
X92300Y103763D01*
X92254Y103699D01*
X92220Y103628D01*
X92121Y103356D01*
X92052Y103075D01*
X92010Y102789D01*
X91997Y102500D01*
X92010Y102211D01*
X92052Y101925D01*
X92121Y101644D01*
X92217Y101371D01*
X92252Y101300D01*
X92298Y101236D01*
X92353Y101179D01*
X92417Y101132D01*
X92487Y101096D01*
X92562Y101071D01*
X92591Y101066D01*
Y89000D01*
G37*
G36*
X95001Y71500D02*X63750D01*
Y77271D01*
X63866Y77319D01*
X64269Y77565D01*
X64628Y77872D01*
X64935Y78231D01*
X65181Y78634D01*
X65362Y79070D01*
X65472Y79529D01*
X65500Y80000D01*
X65472Y80471D01*
X65362Y80930D01*
X65181Y81366D01*
X64935Y81769D01*
X64628Y82128D01*
X64269Y82435D01*
X64000Y82599D01*
Y83042D01*
X66200Y83045D01*
X66353Y83082D01*
X66498Y83142D01*
X66633Y83224D01*
X66752Y83327D01*
X66855Y83446D01*
X66937Y83581D01*
X66997Y83726D01*
X67034Y83879D01*
X67043Y84036D01*
X67040Y86000D01*
X95001D01*
Y71500D01*
G37*
G36*
X63750Y115000D02*X95001D01*
Y109000D01*
X63750D01*
Y115000D01*
G37*
G36*
X60091Y7970D02*X60621Y8500D01*
X62169D01*
X61808Y8192D01*
X61348Y7653D01*
X60978Y7049D01*
X60707Y6395D01*
X60542Y5706D01*
X60486Y5000D01*
X60542Y4294D01*
X60707Y3605D01*
X60978Y2951D01*
X61348Y2347D01*
X61808Y1808D01*
X62347Y1348D01*
X62951Y978D01*
X63605Y707D01*
X63750Y672D01*
Y0D01*
X60091D01*
Y7970D01*
G37*
G36*
Y26000D02*X62401D01*
X62565Y25731D01*
X62872Y25372D01*
X63231Y25065D01*
X63634Y24819D01*
X63750Y24771D01*
Y11500D01*
X60091D01*
Y26000D01*
G37*
G36*
Y38500D02*X63750D01*
Y30229D01*
X63634Y30181D01*
X63231Y29935D01*
X62872Y29628D01*
X62565Y29269D01*
X62401Y29000D01*
X60091D01*
Y38500D01*
G37*
G36*
Y68500D02*X63750D01*
Y60209D01*
X63699Y60246D01*
X63628Y60280D01*
X63356Y60379D01*
X63075Y60448D01*
X62789Y60490D01*
X62500Y60503D01*
X62211Y60490D01*
X61925Y60448D01*
X61644Y60379D01*
X61371Y60283D01*
X61300Y60248D01*
X61236Y60202D01*
X61179Y60147D01*
X61132Y60083D01*
X61096Y60013D01*
X61071Y59938D01*
X61058Y59860D01*
X61058Y59781D01*
X61069Y59703D01*
X61093Y59627D01*
X61129Y59556D01*
X61175Y59492D01*
X61230Y59436D01*
X61294Y59389D01*
X61364Y59353D01*
X61439Y59328D01*
X61517Y59315D01*
X61596Y59314D01*
X61674Y59326D01*
X61749Y59351D01*
X61930Y59417D01*
X62117Y59463D01*
X62308Y59491D01*
X62500Y59500D01*
X62692Y59491D01*
X62883Y59463D01*
X63070Y59417D01*
X63252Y59353D01*
X63326Y59328D01*
X63404Y59316D01*
X63483Y59317D01*
X63560Y59330D01*
X63635Y59355D01*
X63705Y59391D01*
X63750Y59424D01*
Y55579D01*
X63706Y55611D01*
X63636Y55647D01*
X63561Y55672D01*
X63483Y55685D01*
X63404Y55686D01*
X63326Y55674D01*
X63251Y55649D01*
X63070Y55583D01*
X62883Y55537D01*
X62692Y55509D01*
X62500Y55500D01*
X62308Y55509D01*
X62117Y55537D01*
X61930Y55583D01*
X61748Y55647D01*
X61674Y55672D01*
X61596Y55684D01*
X61517Y55683D01*
X61440Y55670D01*
X61365Y55645D01*
X61295Y55609D01*
X61232Y55562D01*
X61176Y55506D01*
X61131Y55442D01*
X61095Y55372D01*
X61072Y55297D01*
X61060Y55219D01*
X61060Y55140D01*
X61073Y55063D01*
X61098Y54988D01*
X61134Y54918D01*
X61181Y54855D01*
X61237Y54800D01*
X61301Y54754D01*
X61372Y54720D01*
X61644Y54621D01*
X61925Y54552D01*
X62211Y54510D01*
X62500Y54497D01*
X62789Y54510D01*
X63075Y54552D01*
X63356Y54621D01*
X63629Y54717D01*
X63700Y54752D01*
X63750Y54788D01*
Y41500D01*
X60091D01*
Y56066D01*
X60140Y56058D01*
X60219Y56058D01*
X60297Y56069D01*
X60373Y56093D01*
X60444Y56129D01*
X60508Y56175D01*
X60564Y56230D01*
X60611Y56294D01*
X60647Y56364D01*
X60672Y56439D01*
X60685Y56517D01*
X60686Y56596D01*
X60674Y56674D01*
X60649Y56749D01*
X60583Y56930D01*
X60537Y57117D01*
X60509Y57308D01*
X60500Y57500D01*
X60509Y57692D01*
X60537Y57883D01*
X60583Y58070D01*
X60647Y58252D01*
X60672Y58326D01*
X60684Y58404D01*
X60683Y58483D01*
X60670Y58560D01*
X60645Y58635D01*
X60609Y58705D01*
X60562Y58768D01*
X60506Y58824D01*
X60442Y58869D01*
X60372Y58905D01*
X60297Y58928D01*
X60219Y58940D01*
X60140Y58940D01*
X60091Y58931D01*
Y68500D01*
G37*
G36*
Y78201D02*X60372Y77872D01*
X60731Y77565D01*
X61134Y77319D01*
X61570Y77138D01*
X62029Y77028D01*
X62500Y76991D01*
X62971Y77028D01*
X63430Y77138D01*
X63750Y77271D01*
Y71500D01*
X60091D01*
Y78201D01*
G37*
G36*
Y83037D02*X61000Y83039D01*
Y82599D01*
X60731Y82435D01*
X60372Y82128D01*
X60091Y81799D01*
Y83037D01*
G37*
G36*
Y94847D02*X63750Y94852D01*
Y90151D01*
X60091Y90146D01*
Y94847D01*
G37*
G36*
Y106000D02*X63750D01*
Y101961D01*
X60091Y101956D01*
Y106000D01*
G37*
G36*
Y115000D02*X63750D01*
Y109000D01*
X60091D01*
Y115000D01*
G37*
G36*
X38613Y29855D02*X38700Y29855D01*
X38853Y29892D01*
X38998Y29952D01*
X39133Y30034D01*
X39252Y30137D01*
X39355Y30256D01*
X39437Y30391D01*
X39497Y30536D01*
X39534Y30689D01*
X39543Y30846D01*
X39534Y36121D01*
X39497Y36274D01*
X39437Y36419D01*
X39355Y36554D01*
X39252Y36673D01*
X39133Y36776D01*
X38998Y36858D01*
X38853Y36918D01*
X38700Y36955D01*
X38613Y36960D01*
Y38500D01*
X60091D01*
Y29000D01*
X47559D01*
X47500Y29005D01*
X47265Y28986D01*
X47035Y28931D01*
X46817Y28841D01*
X46616Y28717D01*
X46615Y28717D01*
X46436Y28564D01*
X46398Y28519D01*
X43981Y26102D01*
X43936Y26064D01*
X43783Y25884D01*
X43659Y25683D01*
X43569Y25465D01*
X43514Y25235D01*
X43514Y25235D01*
X43495Y25000D01*
X43500Y24941D01*
Y22599D01*
X43231Y22435D01*
X42872Y22128D01*
X42565Y21769D01*
X42319Y21366D01*
X42138Y20930D01*
X42028Y20471D01*
X41991Y20000D01*
X42028Y19529D01*
X42138Y19070D01*
X42319Y18634D01*
X42565Y18231D01*
X42872Y17872D01*
X43231Y17565D01*
X43500Y17401D01*
Y9249D01*
X42951Y9022D01*
X42347Y8652D01*
X41808Y8192D01*
X41348Y7653D01*
X40978Y7049D01*
X40707Y6395D01*
X40542Y5706D01*
X40486Y5000D01*
X40542Y4294D01*
X40707Y3605D01*
X40978Y2951D01*
X41348Y2347D01*
X41808Y1808D01*
X42347Y1348D01*
X42951Y978D01*
X43605Y707D01*
X44294Y542D01*
X45000Y486D01*
X45706Y542D01*
X46395Y707D01*
X47049Y978D01*
X47653Y1348D01*
X48192Y1808D01*
X48652Y2347D01*
X49022Y2951D01*
X49293Y3605D01*
X49458Y4294D01*
X49500Y5000D01*
X49458Y5706D01*
X49293Y6395D01*
X49022Y7049D01*
X48652Y7653D01*
X48192Y8192D01*
X47653Y8652D01*
X47049Y9022D01*
X46500Y9249D01*
Y17401D01*
X46769Y17565D01*
X47128Y17872D01*
X47435Y18231D01*
X47681Y18634D01*
X47862Y19070D01*
X47972Y19529D01*
X48000Y20000D01*
X47972Y20471D01*
X47862Y20930D01*
X47681Y21366D01*
X47435Y21769D01*
X47128Y22128D01*
X46769Y22435D01*
X46500Y22599D01*
Y24379D01*
X48121Y26000D01*
X60091D01*
Y11500D01*
X60059D01*
X60000Y11505D01*
X59765Y11486D01*
X59535Y11431D01*
X59317Y11341D01*
X59116Y11217D01*
X59115Y11217D01*
X58936Y11064D01*
X58898Y11019D01*
X56944Y9065D01*
X56395Y9293D01*
X55706Y9458D01*
X55000Y9514D01*
X54294Y9458D01*
X53605Y9293D01*
X52951Y9022D01*
X52347Y8652D01*
X51808Y8192D01*
X51348Y7653D01*
X50978Y7049D01*
X50707Y6395D01*
X50542Y5706D01*
X50486Y5000D01*
X50542Y4294D01*
X50707Y3605D01*
X50978Y2951D01*
X51348Y2347D01*
X51808Y1808D01*
X52347Y1348D01*
X52951Y978D01*
X53605Y707D01*
X54294Y542D01*
X55000Y486D01*
X55706Y542D01*
X56395Y707D01*
X57049Y978D01*
X57653Y1348D01*
X58192Y1808D01*
X58652Y2347D01*
X59022Y2951D01*
X59293Y3605D01*
X59458Y4294D01*
X59500Y5000D01*
X59458Y5706D01*
X59293Y6395D01*
X59065Y6944D01*
X60091Y7970D01*
Y0D01*
X38613D01*
Y2853D01*
X38656Y2860D01*
X38768Y2897D01*
X38873Y2952D01*
X38968Y3022D01*
X39051Y3106D01*
X39119Y3202D01*
X39170Y3308D01*
X39318Y3716D01*
X39422Y4137D01*
X39484Y4567D01*
X39505Y5000D01*
X39484Y5433D01*
X39422Y5863D01*
X39318Y6284D01*
X39175Y6694D01*
X39122Y6800D01*
X39053Y6896D01*
X38970Y6981D01*
X38875Y7051D01*
X38769Y7106D01*
X38657Y7143D01*
X38613Y7151D01*
Y18045D01*
X38700Y18045D01*
X38853Y18082D01*
X38998Y18142D01*
X39133Y18224D01*
X39252Y18327D01*
X39355Y18446D01*
X39437Y18581D01*
X39497Y18726D01*
X39534Y18879D01*
X39543Y19036D01*
X39534Y24311D01*
X39497Y24464D01*
X39437Y24609D01*
X39355Y24744D01*
X39252Y24863D01*
X39133Y24966D01*
X38998Y25048D01*
X38853Y25108D01*
X38700Y25145D01*
X38613Y25150D01*
Y29855D01*
G37*
G36*
Y0D02*X35002D01*
Y495D01*
X35433Y516D01*
X35863Y578D01*
X36284Y682D01*
X36694Y825D01*
X36800Y878D01*
X36896Y947D01*
X36981Y1030D01*
X37051Y1125D01*
X37106Y1231D01*
X37143Y1343D01*
X37163Y1460D01*
X37164Y1579D01*
X37146Y1696D01*
X37110Y1809D01*
X37057Y1915D01*
X36988Y2012D01*
X36905Y2096D01*
X36809Y2167D01*
X36704Y2221D01*
X36592Y2259D01*
X36475Y2278D01*
X36356Y2279D01*
X36239Y2261D01*
X36126Y2223D01*
X35855Y2124D01*
X35575Y2056D01*
X35289Y2014D01*
X35002Y2000D01*
Y8000D01*
X35289Y7986D01*
X35575Y7944D01*
X35855Y7876D01*
X36128Y7780D01*
X36239Y7742D01*
X36356Y7725D01*
X36474Y7725D01*
X36591Y7745D01*
X36703Y7782D01*
X36807Y7836D01*
X36902Y7906D01*
X36985Y7991D01*
X37054Y8087D01*
X37107Y8192D01*
X37143Y8305D01*
X37160Y8421D01*
X37159Y8539D01*
X37140Y8656D01*
X37103Y8768D01*
X37048Y8873D01*
X36978Y8968D01*
X36894Y9051D01*
X36798Y9119D01*
X36692Y9170D01*
X36284Y9318D01*
X35863Y9422D01*
X35433Y9484D01*
X35002Y9505D01*
Y18041D01*
X38613Y18045D01*
Y7151D01*
X38540Y7163D01*
X38421Y7164D01*
X38304Y7146D01*
X38191Y7110D01*
X38085Y7057D01*
X37988Y6988D01*
X37904Y6905D01*
X37833Y6809D01*
X37779Y6704D01*
X37741Y6592D01*
X37722Y6475D01*
X37721Y6356D01*
X37739Y6239D01*
X37777Y6126D01*
X37876Y5855D01*
X37944Y5575D01*
X37986Y5289D01*
X38000Y5000D01*
X37986Y4711D01*
X37944Y4425D01*
X37876Y4145D01*
X37780Y3872D01*
X37742Y3761D01*
X37725Y3644D01*
X37725Y3526D01*
X37745Y3409D01*
X37782Y3297D01*
X37836Y3193D01*
X37906Y3098D01*
X37991Y3015D01*
X38087Y2946D01*
X38192Y2893D01*
X38305Y2857D01*
X38421Y2840D01*
X38539Y2841D01*
X38613Y2853D01*
Y0D01*
G37*
G36*
Y36960D02*X38543Y36964D01*
X36500Y36961D01*
Y37401D01*
X36769Y37565D01*
X37128Y37872D01*
X37435Y38231D01*
X37599Y38500D01*
X38613D01*
Y36960D01*
G37*
G36*
X35002Y29851D02*X38613Y29855D01*
Y25150D01*
X38543Y25154D01*
X35002Y25149D01*
Y29851D01*
G37*
G36*
X31387Y18040D02*X31457Y18036D01*
X35002Y18041D01*
Y9505D01*
X35000Y9505D01*
X34567Y9484D01*
X34137Y9422D01*
X33716Y9318D01*
X33306Y9175D01*
X33200Y9122D01*
X33104Y9053D01*
X33019Y8970D01*
X32949Y8875D01*
X32894Y8769D01*
X32857Y8657D01*
X32837Y8540D01*
X32836Y8421D01*
X32854Y8304D01*
X32890Y8191D01*
X32943Y8085D01*
X33012Y7988D01*
X33095Y7904D01*
X33191Y7833D01*
X33296Y7779D01*
X33408Y7741D01*
X33525Y7722D01*
X33644Y7721D01*
X33761Y7739D01*
X33874Y7777D01*
X34145Y7876D01*
X34425Y7944D01*
X34711Y7986D01*
X35000Y8000D01*
X35002Y8000D01*
Y2000D01*
X35000Y2000D01*
X34711Y2014D01*
X34425Y2056D01*
X34145Y2124D01*
X33872Y2220D01*
X33761Y2258D01*
X33644Y2275D01*
X33526Y2275D01*
X33409Y2255D01*
X33297Y2218D01*
X33193Y2164D01*
X33098Y2094D01*
X33015Y2009D01*
X32946Y1913D01*
X32893Y1808D01*
X32857Y1695D01*
X32840Y1579D01*
X32841Y1461D01*
X32860Y1344D01*
X32897Y1232D01*
X32952Y1127D01*
X33022Y1032D01*
X33106Y949D01*
X33202Y881D01*
X33308Y830D01*
X33716Y682D01*
X34137Y578D01*
X34567Y516D01*
X35000Y495D01*
X35002Y495D01*
Y0D01*
X31387D01*
Y2849D01*
X31460Y2837D01*
X31579Y2836D01*
X31696Y2854D01*
X31809Y2890D01*
X31915Y2943D01*
X32012Y3012D01*
X32096Y3095D01*
X32167Y3191D01*
X32221Y3296D01*
X32259Y3408D01*
X32278Y3525D01*
X32279Y3644D01*
X32261Y3761D01*
X32223Y3874D01*
X32124Y4145D01*
X32056Y4425D01*
X32014Y4711D01*
X32000Y5000D01*
X32014Y5289D01*
X32056Y5575D01*
X32124Y5855D01*
X32220Y6128D01*
X32258Y6239D01*
X32275Y6356D01*
X32275Y6474D01*
X32255Y6591D01*
X32218Y6703D01*
X32164Y6807D01*
X32094Y6902D01*
X32009Y6985D01*
X31913Y7054D01*
X31808Y7107D01*
X31695Y7143D01*
X31579Y7160D01*
X31461Y7159D01*
X31387Y7147D01*
Y18040D01*
G37*
G36*
Y29850D02*X31457Y29846D01*
X35002Y29851D01*
Y25149D01*
X31387Y25145D01*
Y29850D01*
G37*
G36*
Y38500D02*X32401D01*
X32565Y38231D01*
X32872Y37872D01*
X33231Y37565D01*
X33500Y37401D01*
Y36958D01*
X31387Y36955D01*
Y38500D01*
G37*
G36*
X25001Y486D02*X25706Y542D01*
X26395Y707D01*
X27049Y978D01*
X27653Y1348D01*
X28192Y1808D01*
X28652Y2347D01*
X29022Y2951D01*
X29293Y3605D01*
X29458Y4294D01*
X29500Y5000D01*
X29458Y5706D01*
X29293Y6395D01*
X29022Y7049D01*
X28652Y7653D01*
X28192Y8192D01*
X27653Y8652D01*
X27049Y9022D01*
X26500Y9249D01*
Y36879D01*
X28121Y38500D01*
X31387D01*
Y36955D01*
X31300Y36955D01*
X31147Y36918D01*
X31002Y36858D01*
X30867Y36776D01*
X30748Y36673D01*
X30645Y36554D01*
X30563Y36419D01*
X30503Y36274D01*
X30466Y36121D01*
X30457Y35964D01*
X30466Y30689D01*
X30503Y30536D01*
X30563Y30391D01*
X30645Y30256D01*
X30748Y30137D01*
X30867Y30034D01*
X31002Y29952D01*
X31147Y29892D01*
X31300Y29855D01*
X31387Y29850D01*
Y25145D01*
X31300Y25145D01*
X31147Y25108D01*
X31002Y25048D01*
X30867Y24966D01*
X30748Y24863D01*
X30645Y24744D01*
X30563Y24609D01*
X30503Y24464D01*
X30466Y24311D01*
X30457Y24154D01*
X30466Y18879D01*
X30503Y18726D01*
X30563Y18581D01*
X30645Y18446D01*
X30748Y18327D01*
X30867Y18224D01*
X31002Y18142D01*
X31147Y18082D01*
X31300Y18045D01*
X31387Y18040D01*
Y7147D01*
X31344Y7140D01*
X31232Y7103D01*
X31127Y7048D01*
X31032Y6978D01*
X30949Y6894D01*
X30881Y6798D01*
X30830Y6692D01*
X30682Y6284D01*
X30578Y5863D01*
X30516Y5433D01*
X30495Y5000D01*
X30516Y4567D01*
X30578Y4137D01*
X30682Y3716D01*
X30825Y3306D01*
X30878Y3200D01*
X30947Y3104D01*
X31030Y3019D01*
X31125Y2949D01*
X31231Y2894D01*
X31343Y2857D01*
X31387Y2849D01*
Y0D01*
X25001D01*
Y486D01*
G37*
G36*
X27409Y68500D02*X60091D01*
Y58931D01*
X60063Y58927D01*
X59988Y58902D01*
X59918Y58866D01*
X59855Y58819D01*
X59800Y58763D01*
X59754Y58699D01*
X59720Y58628D01*
X59621Y58356D01*
X59552Y58075D01*
X59510Y57789D01*
X59497Y57500D01*
X59510Y57211D01*
X59552Y56925D01*
X59621Y56644D01*
X59717Y56371D01*
X59752Y56300D01*
X59798Y56236D01*
X59853Y56179D01*
X59917Y56132D01*
X59987Y56096D01*
X60062Y56071D01*
X60091Y56066D01*
Y41500D01*
X37599D01*
X37435Y41769D01*
X37128Y42128D01*
X36769Y42435D01*
X36366Y42681D01*
X35930Y42862D01*
X35471Y42972D01*
X35000Y43009D01*
X34529Y42972D01*
X34070Y42862D01*
X33634Y42681D01*
X33231Y42435D01*
X32872Y42128D01*
X32565Y41769D01*
X32401Y41500D01*
X27559D01*
X27500Y41505D01*
X27409Y41497D01*
Y56069D01*
X27437Y56073D01*
X27512Y56098D01*
X27582Y56134D01*
X27645Y56181D01*
X27700Y56237D01*
X27746Y56301D01*
X27780Y56372D01*
X27879Y56644D01*
X27948Y56925D01*
X27990Y57211D01*
X28003Y57500D01*
X27990Y57789D01*
X27948Y58075D01*
X27879Y58356D01*
X27783Y58629D01*
X27748Y58700D01*
X27702Y58764D01*
X27647Y58821D01*
X27583Y58868D01*
X27513Y58904D01*
X27438Y58929D01*
X27409Y58934D01*
Y68500D01*
G37*
G36*
X25001D02*X27409D01*
Y58934D01*
X27360Y58942D01*
X27281Y58942D01*
X27203Y58931D01*
X27127Y58907D01*
X27056Y58871D01*
X26992Y58825D01*
X26936Y58770D01*
X26889Y58706D01*
X26853Y58636D01*
X26828Y58561D01*
X26815Y58483D01*
X26814Y58404D01*
X26826Y58326D01*
X26851Y58251D01*
X26917Y58070D01*
X26963Y57883D01*
X26991Y57692D01*
X27000Y57500D01*
X26991Y57308D01*
X26963Y57117D01*
X26917Y56930D01*
X26853Y56748D01*
X26828Y56674D01*
X26816Y56596D01*
X26817Y56517D01*
X26830Y56440D01*
X26855Y56365D01*
X26891Y56295D01*
X26938Y56232D01*
X26994Y56176D01*
X27058Y56131D01*
X27128Y56095D01*
X27203Y56072D01*
X27281Y56060D01*
X27360Y56060D01*
X27409Y56069D01*
Y41497D01*
X27265Y41486D01*
X27035Y41431D01*
X26817Y41341D01*
X26616Y41217D01*
X26615Y41217D01*
X26436Y41064D01*
X26398Y41019D01*
X25001Y39622D01*
Y54497D01*
X25289Y54510D01*
X25575Y54552D01*
X25856Y54621D01*
X26129Y54717D01*
X26200Y54752D01*
X26264Y54798D01*
X26321Y54853D01*
X26368Y54917D01*
X26404Y54987D01*
X26429Y55062D01*
X26442Y55140D01*
X26442Y55219D01*
X26431Y55297D01*
X26407Y55373D01*
X26371Y55444D01*
X26325Y55508D01*
X26270Y55564D01*
X26206Y55611D01*
X26136Y55647D01*
X26061Y55672D01*
X25983Y55685D01*
X25904Y55686D01*
X25826Y55674D01*
X25751Y55649D01*
X25570Y55583D01*
X25383Y55537D01*
X25192Y55509D01*
X25001Y55500D01*
Y59500D01*
X25192Y59491D01*
X25383Y59463D01*
X25570Y59417D01*
X25752Y59353D01*
X25826Y59328D01*
X25904Y59316D01*
X25983Y59317D01*
X26060Y59330D01*
X26135Y59355D01*
X26205Y59391D01*
X26268Y59438D01*
X26324Y59494D01*
X26369Y59558D01*
X26405Y59628D01*
X26428Y59703D01*
X26440Y59781D01*
X26440Y59860D01*
X26427Y59937D01*
X26402Y60012D01*
X26366Y60082D01*
X26319Y60145D01*
X26263Y60200D01*
X26199Y60246D01*
X26128Y60280D01*
X25856Y60379D01*
X25575Y60448D01*
X25289Y60490D01*
X25001Y60503D01*
Y68500D01*
G37*
G36*
Y76991D02*X25471Y77028D01*
X25930Y77138D01*
X26366Y77319D01*
X26769Y77565D01*
X27128Y77872D01*
X27435Y78231D01*
X27681Y78634D01*
X27862Y79070D01*
X27972Y79529D01*
X28000Y80000D01*
X27972Y80471D01*
X27862Y80930D01*
X27681Y81366D01*
X27435Y81769D01*
X27128Y82128D01*
X26769Y82435D01*
X26500Y82599D01*
Y83042D01*
X28700Y83045D01*
X28853Y83082D01*
X28998Y83142D01*
X29133Y83224D01*
X29252Y83327D01*
X29355Y83446D01*
X29437Y83581D01*
X29497Y83726D01*
X29534Y83879D01*
X29543Y84036D01*
X29540Y86000D01*
X57963D01*
X57966Y83879D01*
X58003Y83726D01*
X58063Y83581D01*
X58145Y83446D01*
X58248Y83327D01*
X58367Y83224D01*
X58502Y83142D01*
X58647Y83082D01*
X58800Y83045D01*
X58957Y83036D01*
X60091Y83037D01*
Y81799D01*
X60065Y81769D01*
X59819Y81366D01*
X59638Y80930D01*
X59528Y80471D01*
X59491Y80000D01*
X59528Y79529D01*
X59638Y79070D01*
X59819Y78634D01*
X60065Y78231D01*
X60091Y78201D01*
Y71500D01*
X25001D01*
Y76991D01*
G37*
G36*
Y106000D02*X60091D01*
Y101956D01*
X58800Y101955D01*
X58647Y101918D01*
X58502Y101858D01*
X58367Y101776D01*
X58248Y101673D01*
X58145Y101554D01*
X58063Y101419D01*
X58003Y101274D01*
X57966Y101121D01*
X57957Y100964D01*
X57966Y95689D01*
X58003Y95536D01*
X58063Y95391D01*
X58145Y95256D01*
X58248Y95137D01*
X58367Y95034D01*
X58502Y94952D01*
X58647Y94892D01*
X58800Y94855D01*
X58957Y94846D01*
X60091Y94847D01*
Y90146D01*
X58800Y90145D01*
X58647Y90108D01*
X58502Y90048D01*
X58367Y89966D01*
X58248Y89863D01*
X58145Y89744D01*
X58063Y89609D01*
X58003Y89464D01*
X57966Y89311D01*
X57957Y89154D01*
X57957Y89000D01*
X29534D01*
X29534Y89311D01*
X29497Y89464D01*
X29437Y89609D01*
X29355Y89744D01*
X29252Y89863D01*
X29133Y89966D01*
X28998Y90048D01*
X28853Y90108D01*
X28700Y90145D01*
X28543Y90154D01*
X25001Y90149D01*
Y94851D01*
X28700Y94855D01*
X28853Y94892D01*
X28998Y94952D01*
X29133Y95034D01*
X29252Y95137D01*
X29355Y95256D01*
X29437Y95391D01*
X29497Y95536D01*
X29534Y95689D01*
X29543Y95846D01*
X29534Y101121D01*
X29497Y101274D01*
X29437Y101419D01*
X29355Y101554D01*
X29252Y101673D01*
X29133Y101776D01*
X28998Y101858D01*
X28853Y101918D01*
X28700Y101955D01*
X28543Y101964D01*
X25001Y101959D01*
Y106000D01*
G37*
G36*
Y115000D02*X60091D01*
Y109000D01*
X25001D01*
Y115000D01*
G37*
G36*
X22591Y1198D02*X22951Y978D01*
X23605Y707D01*
X24294Y542D01*
X25000Y486D01*
X25001Y486D01*
Y0D01*
X22591D01*
Y1198D01*
G37*
G36*
Y68500D02*X25001D01*
Y60503D01*
X25000Y60503D01*
X24711Y60490D01*
X24425Y60448D01*
X24144Y60379D01*
X23871Y60283D01*
X23800Y60248D01*
X23736Y60202D01*
X23679Y60147D01*
X23632Y60083D01*
X23596Y60013D01*
X23571Y59938D01*
X23558Y59860D01*
X23558Y59781D01*
X23569Y59703D01*
X23593Y59627D01*
X23629Y59556D01*
X23675Y59492D01*
X23730Y59436D01*
X23794Y59389D01*
X23864Y59353D01*
X23939Y59328D01*
X24017Y59315D01*
X24096Y59314D01*
X24174Y59326D01*
X24249Y59351D01*
X24430Y59417D01*
X24617Y59463D01*
X24808Y59491D01*
X25000Y59500D01*
X25001Y59500D01*
Y55500D01*
X25000Y55500D01*
X24808Y55509D01*
X24617Y55537D01*
X24430Y55583D01*
X24248Y55647D01*
X24174Y55672D01*
X24096Y55684D01*
X24017Y55683D01*
X23940Y55670D01*
X23865Y55645D01*
X23795Y55609D01*
X23732Y55562D01*
X23676Y55506D01*
X23631Y55442D01*
X23595Y55372D01*
X23572Y55297D01*
X23560Y55219D01*
X23560Y55140D01*
X23573Y55063D01*
X23598Y54988D01*
X23634Y54918D01*
X23681Y54855D01*
X23737Y54800D01*
X23801Y54754D01*
X23872Y54720D01*
X24144Y54621D01*
X24425Y54552D01*
X24711Y54510D01*
X25000Y54497D01*
X25001Y54497D01*
Y39622D01*
X23981Y38602D01*
X23936Y38564D01*
X23783Y38384D01*
X23659Y38183D01*
X23569Y37965D01*
X23514Y37735D01*
X23514Y37735D01*
X23495Y37500D01*
X23500Y37441D01*
Y9249D01*
X22951Y9022D01*
X22591Y8802D01*
Y56066D01*
X22640Y56058D01*
X22719Y56058D01*
X22797Y56069D01*
X22873Y56093D01*
X22944Y56129D01*
X23008Y56175D01*
X23064Y56230D01*
X23111Y56294D01*
X23147Y56364D01*
X23172Y56439D01*
X23185Y56517D01*
X23186Y56596D01*
X23174Y56674D01*
X23149Y56749D01*
X23083Y56930D01*
X23037Y57117D01*
X23009Y57308D01*
X23000Y57500D01*
X23009Y57692D01*
X23037Y57883D01*
X23083Y58070D01*
X23147Y58252D01*
X23172Y58326D01*
X23184Y58404D01*
X23183Y58483D01*
X23170Y58560D01*
X23145Y58635D01*
X23109Y58705D01*
X23062Y58768D01*
X23006Y58824D01*
X22942Y58869D01*
X22872Y58905D01*
X22797Y58928D01*
X22719Y58940D01*
X22640Y58940D01*
X22591Y58931D01*
Y68500D01*
G37*
G36*
Y78201D02*X22872Y77872D01*
X23231Y77565D01*
X23634Y77319D01*
X24070Y77138D01*
X24529Y77028D01*
X25000Y76991D01*
X25001Y76991D01*
Y71500D01*
X22591D01*
Y78201D01*
G37*
G36*
Y83037D02*X23500Y83039D01*
Y82599D01*
X23231Y82435D01*
X22872Y82128D01*
X22591Y81799D01*
Y83037D01*
G37*
G36*
Y94847D02*X25001Y94851D01*
Y90149D01*
X22591Y90146D01*
Y94847D01*
G37*
G36*
Y105470D02*X23121Y106000D01*
X25001D01*
Y101959D01*
X22591Y101956D01*
Y105470D01*
G37*
G36*
Y115000D02*X25001D01*
Y109000D01*
X22591D01*
Y115000D01*
G37*
G36*
X10001Y92880D02*X22591Y105470D01*
Y101956D01*
X21300Y101955D01*
X21147Y101918D01*
X21002Y101858D01*
X20867Y101776D01*
X20748Y101673D01*
X20645Y101554D01*
X20563Y101419D01*
X20503Y101274D01*
X20466Y101121D01*
X20457Y100964D01*
X20466Y95689D01*
X20503Y95536D01*
X20563Y95391D01*
X20645Y95256D01*
X20748Y95137D01*
X20867Y95034D01*
X21002Y94952D01*
X21147Y94892D01*
X21300Y94855D01*
X21457Y94846D01*
X22591Y94847D01*
Y90146D01*
X21300Y90145D01*
X21147Y90108D01*
X21002Y90048D01*
X20867Y89966D01*
X20748Y89863D01*
X20645Y89744D01*
X20563Y89609D01*
X20503Y89464D01*
X20466Y89311D01*
X20457Y89154D01*
X20466Y83879D01*
X20503Y83726D01*
X20563Y83581D01*
X20645Y83446D01*
X20748Y83327D01*
X20867Y83224D01*
X21002Y83142D01*
X21147Y83082D01*
X21300Y83045D01*
X21457Y83036D01*
X22591Y83037D01*
Y81799D01*
X22565Y81769D01*
X22319Y81366D01*
X22138Y80930D01*
X22028Y80471D01*
X21991Y80000D01*
X22028Y79529D01*
X22138Y79070D01*
X22319Y78634D01*
X22565Y78231D01*
X22591Y78201D01*
Y71500D01*
X17559D01*
X17500Y71505D01*
X17265Y71486D01*
X17035Y71431D01*
X16817Y71341D01*
X16616Y71217D01*
X16615Y71217D01*
X16436Y71064D01*
X16398Y71019D01*
X13981Y68602D01*
X13936Y68564D01*
X13783Y68384D01*
X13659Y68183D01*
X13569Y67965D01*
X13514Y67735D01*
X13514Y67735D01*
X13495Y67500D01*
X13500Y67441D01*
Y9249D01*
X12951Y9022D01*
X12347Y8652D01*
X11808Y8192D01*
X11348Y7653D01*
X10978Y7049D01*
X10707Y6395D01*
X10542Y5706D01*
X10486Y5000D01*
X10542Y4294D01*
X10707Y3605D01*
X10978Y2951D01*
X11348Y2347D01*
X11808Y1808D01*
X12347Y1348D01*
X12951Y978D01*
X13605Y707D01*
X14294Y542D01*
X15000Y486D01*
X15706Y542D01*
X16395Y707D01*
X17049Y978D01*
X17653Y1348D01*
X18192Y1808D01*
X18652Y2347D01*
X19022Y2951D01*
X19293Y3605D01*
X19458Y4294D01*
X19500Y5000D01*
X19458Y5706D01*
X19293Y6395D01*
X19022Y7049D01*
X18652Y7653D01*
X18192Y8192D01*
X17653Y8652D01*
X17049Y9022D01*
X16500Y9249D01*
Y66879D01*
X18121Y68500D01*
X22591D01*
Y58931D01*
X22563Y58927D01*
X22488Y58902D01*
X22418Y58866D01*
X22355Y58819D01*
X22300Y58763D01*
X22254Y58699D01*
X22220Y58628D01*
X22121Y58356D01*
X22052Y58075D01*
X22010Y57789D01*
X21997Y57500D01*
X22010Y57211D01*
X22052Y56925D01*
X22121Y56644D01*
X22217Y56371D01*
X22252Y56300D01*
X22298Y56236D01*
X22353Y56179D01*
X22417Y56132D01*
X22487Y56096D01*
X22562Y56071D01*
X22591Y56066D01*
Y8802D01*
X22347Y8652D01*
X21808Y8192D01*
X21348Y7653D01*
X20978Y7049D01*
X20707Y6395D01*
X20542Y5706D01*
X20486Y5000D01*
X20542Y4294D01*
X20707Y3605D01*
X20978Y2951D01*
X21348Y2347D01*
X21808Y1808D01*
X22347Y1348D01*
X22591Y1198D01*
Y0D01*
X10001D01*
Y92880D01*
G37*
G36*
X12409Y115000D02*X22591D01*
Y109000D01*
X22559D01*
X22500Y109005D01*
X22265Y108986D01*
X22035Y108931D01*
X21817Y108841D01*
X21616Y108717D01*
X21615Y108717D01*
X21436Y108564D01*
X21398Y108519D01*
X12409Y99530D01*
Y101069D01*
X12437Y101073D01*
X12512Y101098D01*
X12582Y101134D01*
X12645Y101181D01*
X12700Y101237D01*
X12746Y101301D01*
X12780Y101372D01*
X12879Y101644D01*
X12948Y101925D01*
X12990Y102211D01*
X13003Y102500D01*
X12990Y102789D01*
X12948Y103075D01*
X12879Y103356D01*
X12783Y103629D01*
X12748Y103700D01*
X12702Y103764D01*
X12647Y103821D01*
X12583Y103868D01*
X12513Y103904D01*
X12438Y103929D01*
X12409Y103934D01*
Y115000D01*
G37*
G36*
X10001D02*X12409D01*
Y103934D01*
X12360Y103942D01*
X12281Y103942D01*
X12203Y103931D01*
X12127Y103907D01*
X12056Y103871D01*
X11992Y103825D01*
X11936Y103770D01*
X11889Y103706D01*
X11853Y103636D01*
X11828Y103561D01*
X11815Y103483D01*
X11814Y103404D01*
X11826Y103326D01*
X11851Y103251D01*
X11917Y103070D01*
X11963Y102883D01*
X11991Y102692D01*
X12000Y102500D01*
X11991Y102308D01*
X11963Y102117D01*
X11917Y101930D01*
X11853Y101748D01*
X11828Y101674D01*
X11816Y101596D01*
X11817Y101517D01*
X11830Y101440D01*
X11855Y101365D01*
X11891Y101295D01*
X11938Y101232D01*
X11994Y101176D01*
X12058Y101131D01*
X12128Y101095D01*
X12203Y101072D01*
X12281Y101060D01*
X12360Y101060D01*
X12409Y101069D01*
Y99530D01*
X10001Y97122D01*
Y99497D01*
X10289Y99510D01*
X10575Y99552D01*
X10856Y99621D01*
X11129Y99717D01*
X11200Y99752D01*
X11264Y99798D01*
X11321Y99853D01*
X11368Y99917D01*
X11404Y99987D01*
X11429Y100062D01*
X11442Y100140D01*
X11442Y100219D01*
X11431Y100297D01*
X11407Y100373D01*
X11371Y100444D01*
X11325Y100508D01*
X11270Y100564D01*
X11206Y100611D01*
X11136Y100647D01*
X11061Y100672D01*
X10983Y100685D01*
X10904Y100686D01*
X10826Y100674D01*
X10751Y100649D01*
X10570Y100583D01*
X10383Y100537D01*
X10192Y100509D01*
X10001Y100500D01*
Y104500D01*
X10192Y104491D01*
X10383Y104463D01*
X10570Y104417D01*
X10752Y104353D01*
X10826Y104328D01*
X10904Y104316D01*
X10983Y104317D01*
X11060Y104330D01*
X11135Y104355D01*
X11205Y104391D01*
X11268Y104438D01*
X11324Y104494D01*
X11369Y104558D01*
X11405Y104628D01*
X11428Y104703D01*
X11440Y104781D01*
X11440Y104860D01*
X11427Y104937D01*
X11402Y105012D01*
X11366Y105082D01*
X11319Y105145D01*
X11263Y105200D01*
X11199Y105246D01*
X11128Y105280D01*
X10856Y105379D01*
X10575Y105448D01*
X10289Y105490D01*
X10001Y105503D01*
Y115000D01*
G37*
G36*
X7591Y512D02*X8235Y514D01*
X8465Y569D01*
X8683Y659D01*
X8884Y783D01*
X9064Y936D01*
X9217Y1116D01*
X9341Y1317D01*
X9431Y1535D01*
X9486Y1765D01*
X9500Y2000D01*
X9486Y8235D01*
X9431Y8465D01*
X9341Y8683D01*
X9217Y8884D01*
X9064Y9064D01*
X8884Y9217D01*
X8683Y9341D01*
X8465Y9431D01*
X8235Y9486D01*
X8000Y9500D01*
X7591Y9499D01*
Y90470D01*
X10001Y92880D01*
Y0D01*
X7591D01*
Y512D01*
G37*
G36*
Y115000D02*X10001D01*
Y105503D01*
X10000Y105503D01*
X9711Y105490D01*
X9425Y105448D01*
X9144Y105379D01*
X8871Y105283D01*
X8800Y105248D01*
X8736Y105202D01*
X8679Y105147D01*
X8632Y105083D01*
X8596Y105013D01*
X8571Y104938D01*
X8558Y104860D01*
X8558Y104781D01*
X8569Y104703D01*
X8593Y104627D01*
X8629Y104556D01*
X8675Y104492D01*
X8730Y104436D01*
X8794Y104389D01*
X8864Y104353D01*
X8939Y104328D01*
X9017Y104315D01*
X9096Y104314D01*
X9174Y104326D01*
X9249Y104351D01*
X9430Y104417D01*
X9617Y104463D01*
X9808Y104491D01*
X10000Y104500D01*
X10001Y104500D01*
Y100500D01*
X10000Y100500D01*
X9808Y100509D01*
X9617Y100537D01*
X9430Y100583D01*
X9248Y100647D01*
X9174Y100672D01*
X9096Y100684D01*
X9017Y100683D01*
X8940Y100670D01*
X8865Y100645D01*
X8795Y100609D01*
X8732Y100562D01*
X8676Y100506D01*
X8631Y100442D01*
X8595Y100372D01*
X8572Y100297D01*
X8560Y100219D01*
X8560Y100140D01*
X8573Y100063D01*
X8598Y99988D01*
X8634Y99918D01*
X8681Y99855D01*
X8737Y99800D01*
X8801Y99754D01*
X8872Y99720D01*
X9144Y99621D01*
X9425Y99552D01*
X9711Y99510D01*
X10000Y99497D01*
X10001Y99497D01*
Y97122D01*
X7591Y94713D01*
Y101066D01*
X7640Y101058D01*
X7719Y101058D01*
X7797Y101069D01*
X7873Y101093D01*
X7944Y101129D01*
X8008Y101175D01*
X8064Y101230D01*
X8111Y101294D01*
X8147Y101364D01*
X8172Y101439D01*
X8185Y101517D01*
X8186Y101596D01*
X8174Y101674D01*
X8149Y101749D01*
X8083Y101930D01*
X8037Y102117D01*
X8009Y102308D01*
X8000Y102500D01*
X8009Y102692D01*
X8037Y102883D01*
X8083Y103070D01*
X8147Y103252D01*
X8172Y103326D01*
X8184Y103404D01*
X8183Y103483D01*
X8170Y103560D01*
X8145Y103635D01*
X8109Y103705D01*
X8062Y103768D01*
X8006Y103824D01*
X7942Y103869D01*
X7872Y103905D01*
X7797Y103928D01*
X7719Y103940D01*
X7640Y103940D01*
X7591Y103931D01*
Y115000D01*
G37*
G36*
Y9499D02*X6500Y9497D01*
Y89379D01*
X7591Y90470D01*
Y9499D01*
G37*
G36*
X0Y0D02*Y115000D01*
X7591D01*
Y103931D01*
X7563Y103927D01*
X7488Y103902D01*
X7418Y103866D01*
X7355Y103819D01*
X7300Y103763D01*
X7254Y103699D01*
X7220Y103628D01*
X7121Y103356D01*
X7052Y103075D01*
X7010Y102789D01*
X6997Y102500D01*
X7010Y102211D01*
X7052Y101925D01*
X7121Y101644D01*
X7217Y101371D01*
X7252Y101300D01*
X7298Y101236D01*
X7353Y101179D01*
X7417Y101132D01*
X7487Y101096D01*
X7562Y101071D01*
X7591Y101066D01*
Y94713D01*
X3981Y91102D01*
X3936Y91064D01*
X3783Y90884D01*
X3659Y90683D01*
X3569Y90465D01*
X3514Y90235D01*
X3514Y90235D01*
X3495Y90000D01*
X3500Y89941D01*
Y9490D01*
X1765Y9486D01*
X1535Y9431D01*
X1317Y9341D01*
X1116Y9217D01*
X936Y9064D01*
X783Y8884D01*
X659Y8683D01*
X569Y8465D01*
X514Y8235D01*
X500Y8000D01*
X514Y1765D01*
X569Y1535D01*
X659Y1317D01*
X783Y1116D01*
X936Y936D01*
X1116Y783D01*
X1317Y659D01*
X1535Y569D01*
X1765Y514D01*
X2000Y500D01*
X7591Y512D01*
Y0D01*
X0D01*
G37*
G54D21*X112500Y40000D02*Y32500D01*
X27500Y40000D02*X112500D01*
X242500D02*Y32500D01*
X160000Y40000D02*X242500D01*
X165000Y32500D02*Y40000D01*
X152500Y47500D02*X160000Y40000D01*
X120000Y47500D02*X152500D01*
X210000Y57500D02*X207500Y60000D01*
X200000D01*
X197500Y62500D01*
X25000Y92500D02*Y102500D01*
Y80000D02*Y87500D01*
X102500Y92500D02*Y102500D01*
X62500Y80000D02*Y87500D01*
X102500Y80000D02*Y87500D01*
X25000D02*X102500D01*
X62500Y92500D02*Y102500D01*
X5000Y90000D02*X22500Y107500D01*
X35000Y32500D02*Y40000D01*
X60000Y10000D02*X55000Y5000D01*
X25000D02*Y37500D01*
X35000Y27500D02*Y17500D01*
X55000Y5000D03*
X45000D02*Y25000D01*
X25000Y37500D02*X27500Y40000D01*
X5000Y5000D02*Y90000D01*
X17500Y70000D02*X15000Y67500D01*
Y5000D01*
X187500Y10000D02*X250000D01*
X252500Y12500D02*X250000Y10000D01*
X252500Y42500D02*Y12500D01*
X202500Y27500D02*Y32500D01*
X242500Y17500D02*Y27500D01*
X210000Y40000D02*Y25000D01*
X207500Y22500D01*
X202500D01*
X210000Y47500D02*Y57500D01*
X22500Y107500D02*X102500D01*
X152500D02*X232500D01*
X155000Y92500D02*Y102500D01*
X135000Y72500D02*Y90000D01*
X152500Y107500D01*
X155000Y80000D02*Y87500D01*
X232500Y92500D02*Y102500D01*
Y80000D02*Y87500D01*
X192500Y80000D02*Y87500D01*
X155000D02*X232500D01*
X192500Y92500D02*Y102500D01*
X135000Y72500D02*X132500Y70000D01*
X17500D01*
X80000Y40000D02*Y25000D01*
X122500Y42500D02*Y10000D01*
X120000Y47500D02*X112500Y40000D01*
Y17500D02*Y27500D01*
X80000Y25000D02*X77500Y22500D01*
X72500D01*
Y27500D02*Y32500D01*
X65000Y27500D02*X47500D01*
X45000Y25000D01*
X80000Y47500D02*Y57500D01*
X77500Y60000D01*
X70000D01*
X67500Y62500D01*
X60000Y10000D02*X187500D01*
X175000Y27500D02*X130000D01*
X160000Y22500D02*X170000D01*
G54D20*G36*
X2000Y8000D02*Y2000D01*
X8000D01*
Y8000D01*
X2000D01*
G37*
G54D22*X15000Y5000D03*
X25000D03*
X35000D03*
X45000D03*
X55000D03*
G54D23*X232500Y107500D03*
G54D22*X65000Y5000D03*
X75000D03*
G54D23*X135000Y17500D03*
X102500Y107500D03*
G54D20*G36*
X108957Y35964D02*Y30846D01*
X116043D01*
Y35964D01*
X108957D01*
G37*
G36*
X68957Y24154D02*Y19036D01*
X76043D01*
Y24154D01*
X68957D01*
G37*
G36*
X108957D02*Y19036D01*
X116043D01*
Y24154D01*
X108957D01*
G37*
G36*
X161457Y35964D02*Y30846D01*
X168543D01*
Y35964D01*
X161457D01*
G37*
G36*
Y24154D02*Y19036D01*
X168543D01*
Y24154D01*
X161457D01*
G37*
G36*
X31457Y35964D02*Y30846D01*
X38543D01*
Y35964D01*
X31457D01*
G37*
G36*
X68957D02*Y30846D01*
X76043D01*
Y35964D01*
X68957D01*
G37*
G36*
X31457Y24154D02*Y19036D01*
X38543D01*
Y24154D01*
X31457D01*
G37*
G36*
X98957Y100964D02*Y95846D01*
X106043D01*
Y100964D01*
X98957D01*
G37*
G36*
Y89154D02*Y84036D01*
X106043D01*
Y89154D01*
X98957D01*
G37*
G36*
X58957Y100964D02*Y95846D01*
X66043D01*
Y100964D01*
X58957D01*
G37*
G36*
Y89154D02*Y84036D01*
X66043D01*
Y89154D01*
X58957D01*
G37*
G36*
X21457Y100964D02*Y95846D01*
X28543D01*
Y100964D01*
X21457D01*
G37*
G36*
Y89154D02*Y84036D01*
X28543D01*
Y89154D01*
X21457D01*
G37*
G36*
X188957Y100964D02*Y95846D01*
X196043D01*
Y100964D01*
X188957D01*
G37*
G36*
X151457D02*Y95846D01*
X158543D01*
Y100964D01*
X151457D01*
G37*
G36*
Y89154D02*Y84036D01*
X158543D01*
Y89154D01*
X151457D01*
G37*
G36*
X188957D02*Y84036D01*
X196043D01*
Y89154D01*
X188957D01*
G37*
G36*
X228957Y100964D02*Y95846D01*
X236043D01*
Y100964D01*
X228957D01*
G37*
G36*
Y89154D02*Y84036D01*
X236043D01*
Y89154D01*
X228957D01*
G37*
G36*
X198957Y35964D02*Y30846D01*
X206043D01*
Y35964D01*
X198957D01*
G37*
G36*
Y24154D02*Y19036D01*
X206043D01*
Y24154D01*
X198957D01*
G37*
G36*
X238957D02*Y19036D01*
X246043D01*
Y24154D01*
X238957D01*
G37*
G36*
Y35964D02*Y30846D01*
X246043D01*
Y35964D01*
X238957D01*
G37*
G54D24*X112500Y40000D03*
X202500D03*
X165000D03*
X242500D03*
X252500Y42500D03*
X122500D03*
Y102500D03*
X102500Y80000D03*
X95000Y102500D03*
X155000Y57500D03*
Y80000D03*
X140000Y102500D03*
X130000Y27500D03*
X175000D03*
X62500Y57500D03*
X65000Y27500D03*
X72500Y40000D03*
X80000Y47500D03*
X67500Y62500D03*
X25000Y57500D03*
X62500Y80000D03*
X25000D03*
X10000Y102500D03*
X35000Y40000D03*
X45000Y20000D03*
X192500Y57500D03*
Y80000D03*
X210000Y47500D03*
X197500Y62500D03*
X232500Y80000D03*
X252500Y87500D03*
X225000Y102500D03*
G54D25*G54D26*G54D27*G54D26*G54D27*M02*
