G04 start of page 3 for group 1 idx 1 *
G04 Title: 26.002.00.01.01.pcb, bottom *
G04 Creator: pcb 4.1.2 *
G04 CreationDate: Tue Aug  7 21:16:31 2018 UTC *
G04 For: bert *
G04 Format: Gerber/RS-274X *
G04 PCB-Dimensions (mil): 2440.94 4527.56 *
G04 PCB-Coordinate-Origin: lower left *
%MOIN*%
%FSLAX25Y25*%
%LNGBL*%
%ADD49C,0.0670*%
%ADD48C,0.0200*%
%ADD47C,0.0420*%
%ADD46C,0.0460*%
%ADD45C,0.1100*%
%ADD44C,0.1457*%
%ADD43C,0.0400*%
%ADD42C,0.0350*%
%ADD41C,0.0750*%
%ADD40C,0.0600*%
%ADD39C,0.0900*%
%ADD38C,0.0500*%
%ADD37C,0.1260*%
%ADD36C,0.0001*%
%ADD35C,0.0720*%
%ADD34C,0.0660*%
%ADD33C,0.2760*%
%ADD32C,0.0650*%
%ADD31C,0.0100*%
%ADD30C,0.0250*%
G54D30*X104331Y112205D02*X108268Y108268D01*
X149606D01*
X104331Y163386D02*X110236Y169291D01*
X104331Y145827D02*Y163386D01*
Y125827D02*Y112205D01*
X175197Y133858D02*X175197Y133859D01*
X167323Y169291D02*X169291Y167323D01*
Y160670D01*
G54D31*X149831Y157670D02*X155512Y151989D01*
X185039D01*
X190945Y158465D01*
G54D30*X110236Y169291D02*X167323D01*
G54D31*X190945Y158465D02*Y347441D01*
X159449Y344488D02*X170276D01*
X174213Y340551D01*
Y307480D01*
X174606Y307087D01*
G54D30*X184606Y288386D02*Y341969D01*
Y342087D02*X184488D01*
X176181Y350394D01*
G54D31*X45276Y306102D02*X58071D01*
X61024Y309055D01*
X45276Y296260D02*X59055D01*
X66929Y304134D01*
X61024Y309055D02*Y329724D01*
X66929Y304134D02*Y338583D01*
X61024Y344488D01*
X45276Y346457D02*X51181D01*
X53150Y348425D01*
Y351378D01*
G54D30*X56102Y316929D02*X45276D01*
X94488Y339567D02*Y294291D01*
X100394Y288386D01*
X114606D01*
G54D31*X61024Y359252D02*X80709D01*
X57087Y365157D02*X146654D01*
X149606Y362205D01*
Y358268D01*
X153543Y354331D01*
X184055D01*
X190945Y347441D01*
G54D30*X152559Y350394D02*X176181D01*
X146654Y344488D02*X152559Y350394D01*
X146654Y344488D02*X130906D01*
X80709D02*X89567D01*
X94488Y339567D01*
X130906Y344488D02*X127953Y341535D01*
Y329724D01*
G54D31*X105315Y344488D02*Y313976D01*
X112205Y307087D01*
X124606D01*
X45276Y356299D02*X51181D01*
G54D30*X45276Y375984D02*Y394685D01*
X49213Y398622D02*X45276Y394685D01*
X52165Y366142D02*X45276D01*
G54D31*X51181Y356299D02*X55118Y360236D01*
X53150Y351378D02*X61024Y359252D01*
X55118Y360236D02*Y363189D01*
X57087Y365157D01*
G54D30*Y371063D02*X52165Y366142D01*
X57087Y371063D02*X91535D01*
X87598Y398622D02*X49213D01*
X97441Y408465D02*X87598Y398622D01*
X135827D02*X125984Y408465D01*
X97441D02*X125984D01*
X153543Y398622D02*X135827D01*
X159449Y392717D02*X153543Y398622D01*
X159449Y392717D02*Y360236D01*
G54D31*X45276Y177165D02*X49213D01*
X51181Y179134D01*
Y230315D01*
X53150Y232283D01*
X62992Y189567D02*X55118Y181693D01*
G54D30*X75866Y224606D02*Y204606D01*
G54D31*X86614Y198819D02*X82677Y204724D01*
X75866D01*
X53150Y232283D02*X72835D01*
X75866Y224409D01*
Y124606D02*X75787D01*
X86614Y98425D02*Y198819D01*
X75866Y114606D02*X75630D01*
X70669Y109646D01*
X75787Y124606D02*X70866Y119685D01*
X75866Y134606D02*X70787Y129528D01*
X75866Y144606D02*X70827Y139567D01*
X75866Y154606D02*X70866Y149606D01*
X75866Y164606D02*X70709Y159449D01*
X75866Y174606D02*X70945Y169685D01*
X75866Y184606D02*X70787Y179528D01*
X75866Y194606D02*X70827Y189567D01*
G54D30*X75866Y94606D02*Y74606D01*
G54D31*Y94606D02*X82677Y94488D01*
X86614Y98425D01*
X75866Y104606D02*X70866Y99606D01*
X63976D01*
X70669Y109646D02*X62992D01*
X59055Y105709D01*
X57087Y112795D02*Y98425D01*
X63976Y99606D02*Y99409D01*
X61024Y96457D01*
X59055Y105709D02*Y88583D01*
X61024Y96457D02*Y78740D01*
Y96457D02*Y78346D01*
X59055Y88583D02*X56890Y86417D01*
X57087Y98425D02*X55118Y96457D01*
X61024Y78346D02*X59055Y76378D01*
X45276D01*
X56890Y86417D02*X45276D01*
X55118Y96457D02*X45276D01*
X55118Y108268D02*X53150Y106299D01*
X45276D01*
X51378Y116339D02*X45276D01*
X49409Y126378D02*X45276D01*
X70866Y119685D02*X63976D01*
X57087Y112795D01*
X55118Y120669D02*Y108268D01*
X70787Y129528D02*X63976D01*
X62992Y139567D02*X53150Y129724D01*
X50984Y137598D02*Y127953D01*
X63976Y129528D02*X55118Y120669D01*
X53150Y129724D02*Y118110D01*
X51378Y116339D01*
X50984Y127953D02*X49409Y126378D01*
X70827Y139567D02*X62992D01*
X70866Y149606D02*X62992D01*
X50984Y137598D01*
X70709Y159449D02*X62992D01*
X61024Y157480D01*
Y152165D01*
X45276Y136417D01*
X59055Y160236D02*X45276Y146457D01*
X57087Y168110D02*X45276Y156299D01*
X70945Y169685D02*X62992D01*
X59055Y165748D01*
Y160236D01*
X62992Y179528D02*X57087Y173622D01*
Y168110D01*
X70787Y179528D02*X62992D01*
X70827Y189567D02*X62992D01*
X55118Y181693D02*Y176181D01*
X45276Y166339D01*
G54D32*X70866Y47244D03*
X149606D03*
G54D33*X174607Y83268D03*
G54D34*X75866Y84606D03*
Y74606D03*
G54D35*X45276Y246378D03*
Y236378D03*
G54D36*G36*
X41676Y229978D02*Y222778D01*
X48876D01*
Y229978D01*
X41676D01*
G37*
G54D35*X45276Y216378D03*
Y206378D03*
Y196378D03*
Y186378D03*
Y176378D03*
Y166378D03*
Y156378D03*
Y146378D03*
Y136378D03*
Y126378D03*
Y116378D03*
Y106378D03*
Y96378D03*
Y86378D03*
Y76378D03*
G54D36*G36*
X62566Y227906D02*Y221306D01*
X69166D01*
Y227906D01*
X62566D01*
G37*
G54D34*X75866Y224606D03*
Y214606D03*
Y204606D03*
X65866Y214606D03*
Y204606D03*
Y194606D03*
Y184606D03*
Y174606D03*
Y164606D03*
X75866Y194606D03*
Y184606D03*
Y174606D03*
Y164606D03*
G54D37*X149607Y108268D03*
G54D33*X174607Y133268D03*
X124607D03*
G54D36*G36*
X101831Y128327D02*Y123327D01*
X106831D01*
Y128327D01*
X101831D01*
G37*
G54D38*X104331Y145827D03*
G54D39*X169831Y160670D03*
X149831Y157670D03*
X129831Y160670D03*
G54D34*X75866Y154606D03*
Y144606D03*
Y134606D03*
Y124606D03*
Y114606D03*
X65866Y154606D03*
Y144606D03*
Y134606D03*
Y124606D03*
Y114606D03*
Y104606D03*
X75866D03*
X65866Y94606D03*
X75866D03*
X65866Y84606D03*
Y74606D03*
G54D36*G36*
X181606Y291386D02*Y285386D01*
X187606D01*
Y291386D01*
X181606D01*
G37*
G54D40*X114606Y288386D03*
G54D36*G36*
X121606Y310087D02*Y304087D01*
X127606D01*
Y310087D01*
X121606D01*
G37*
G54D40*X174606Y307087D03*
G54D36*G36*
X57867Y347489D02*Y341489D01*
X63867D01*
Y347489D01*
X57867D01*
G37*
G54D35*X45276Y346378D03*
Y336378D03*
G54D40*X60867Y359489D03*
G54D35*X45276Y376378D03*
Y366378D03*
Y356378D03*
G54D32*X70866Y405512D03*
G54D40*X80867Y344489D03*
Y359489D03*
X60867Y329489D03*
X80867D03*
X139607D03*
X159607D03*
G54D32*X149606Y405512D03*
G54D36*G36*
X136607Y347489D02*Y341489D01*
X142607D01*
Y347489D01*
X136607D01*
G37*
G54D40*X139607Y359489D03*
X159607Y344489D03*
Y359489D03*
G54D36*G36*
X111487Y348239D02*Y340739D01*
X118987D01*
Y348239D01*
X111487D01*
G37*
G54D41*X105237Y344489D03*
G54D35*X45276Y326378D03*
Y316378D03*
Y306378D03*
Y296378D03*
Y286378D03*
Y276378D03*
Y266378D03*
Y256378D03*
G54D40*X127953Y329724D03*
X91535Y371063D03*
X56102Y316929D03*
G54D42*G54D43*G54D44*G54D45*G54D46*G54D47*G54D46*G54D34*G54D45*G54D48*G54D49*G54D46*G54D47*G54D43*G54D47*G54D43*G54D47*G54D43*G54D44*G54D46*G54D47*M02*
