G04 start of page 12 for group -3984 idx -3984 *
G04 Title: 26.002.00.01.01.pcb, fab *
G04 Creator: pcb 4.2.2 *
G04 CreationDate: Sat Feb 13 13:51:23 2021 UTC *
G04 For: bert *
G04 Format: Gerber/RS-274X *
G04 PCB-Dimensions (mil): 2440.94 4527.56 *
G04 PCB-Coordinate-Origin: lower left *
%MOIN*%
%FSLAX25Y25*%
%LNFAB*%
%ADD159C,0.0100*%
%ADD158C,0.0060*%
%ADD157C,0.0080*%
G54D157*X109437Y64961D02*G75*G03X111037Y64961I800J0D01*G01*
G75*G03X109437Y64961I-800J0D01*G01*
X107837D02*G75*G03X112637Y64961I2400J0D01*G01*
G75*G03X107837Y64961I-2400J0D01*G01*
X109437Y387796D02*G75*G03X111037Y387796I800J0D01*G01*
G75*G03X109437Y387796I-800J0D01*G01*
X107837D02*G75*G03X112637Y387796I2400J0D01*G01*
G75*G03X107837Y387796I-2400J0D01*G01*
X14200Y464006D02*G75*G03X15800Y464006I800J0D01*G01*
G75*G03X14200Y464006I-800J0D01*G01*
X12600D02*G75*G03X17400Y464006I2400J0D01*G01*
G75*G03X12600Y464006I-2400J0D01*G01*
G54D158*X140000Y466556D02*Y460256D01*
Y466556D02*X144200Y460256D01*
Y466556D02*Y460256D01*
X147800Y466556D02*X147200Y466256D01*
X146600Y465656D01*
X146300Y465056D01*
X146000Y464156D01*
Y462656D01*
X146300Y461756D01*
X146600Y461156D01*
X147200Y460556D01*
X147800Y460256D01*
X149000D01*
X149600Y460556D01*
X150200Y461156D01*
X150500Y461756D01*
X150800Y462656D01*
Y464156D02*Y462656D01*
Y464156D02*X150500Y465056D01*
X150200Y465656D01*
X149600Y466256D01*
X149000Y466556D01*
X147800D02*X149000D01*
X98300Y465356D02*Y465056D01*
Y465356D02*X98600Y465956D01*
X98900Y466256D01*
X99500Y466556D01*
X100700D01*
X101300Y466256D01*
X101600Y465956D01*
X101900Y465356D01*
Y464756D01*
X101600Y464156D01*
X101000Y463256D01*
X98000Y460256D01*
X102200D01*
X46800Y466556D02*X45900Y466256D01*
X45300Y465356D01*
X45000Y463856D01*
Y462956D01*
X45300Y461456D01*
X45900Y460556D01*
X46800Y460256D01*
X47400D01*
X48300Y460556D01*
X48900Y461456D01*
X49200Y462956D01*
Y463856D02*Y462956D01*
Y463856D02*X48900Y465356D01*
X48300Y466256D01*
X47400Y466556D01*
X46800D02*X47400D01*
X51300Y460856D02*X51000Y460556D01*
X51300Y460256D01*
X51600Y460556D01*
X51300Y460856D01*
X53400Y465356D02*X54000Y465656D01*
X54900Y466556D01*
Y460256D01*
X59700Y466556D02*X56700Y462356D01*
X61200D01*
X59700Y466556D02*Y460256D01*
X66600Y465656D02*X66300Y466256D01*
X65400Y466556D01*
X64800D02*X65400D01*
X64800D02*X63900Y466256D01*
X63300Y465356D01*
X63000Y463856D01*
Y462356D01*
X63300Y461156D01*
X63900Y460556D01*
X64800Y460256D01*
X65100D01*
X66000Y460556D01*
X66600Y461156D01*
X66900Y462056D01*
Y462356D02*Y462056D01*
Y462356D02*X66600Y463256D01*
X66000Y463856D01*
X65100Y464156D01*
X64800D02*X65100D01*
X64800D02*X63900Y463856D01*
X63300Y463256D01*
X63000Y462356D01*
X172207Y85668D02*X177007Y80868D01*
X172207D02*X177007Y85668D01*
X173007Y84868D02*X176207D01*
X173007D02*Y81668D01*
X176207D01*
Y84868D02*Y81668D01*
X172207Y135668D02*X177007Y130868D01*
X172207D02*X177007Y135668D01*
X173007Y134868D02*X176207D01*
X173007D02*Y131668D01*
X176207D01*
Y134868D02*Y131668D01*
X122207Y135668D02*X127007Y130868D01*
X122207D02*X127007Y135668D01*
X123007Y134868D02*X126207D01*
X123007D02*Y131668D01*
X126207D01*
Y134868D02*Y131668D01*
X12600Y481406D02*X17400Y476606D01*
X12600D02*X17400Y481406D01*
X13400Y480606D02*X16600D01*
X13400D02*Y477406D01*
X16600D01*
Y480606D02*Y477406D01*
X135000Y481556D02*X137400Y478556D01*
Y475256D01*
X139800Y481556D02*X137400Y478556D01*
X141600Y481556D02*Y475256D01*
Y481556D02*X145500D01*
X141600Y478556D02*X144000D01*
X141600Y475256D02*X145500D01*
X151500Y480656D02*X150900Y481256D01*
X150000Y481556D01*
X148800D02*X150000D01*
X148800D02*X147900Y481256D01*
X147300Y480656D01*
Y480056D01*
X147600Y479456D01*
X147900Y479156D01*
X148500Y478856D01*
X150300Y478256D01*
X150900Y477956D01*
X151200Y477656D01*
X151500Y477056D01*
Y476156D01*
X150900Y475556D01*
X150000Y475256D01*
X148800D02*X150000D01*
X148800D02*X147900Y475556D01*
X147300Y476156D01*
X98600Y481556D02*X101900D01*
X100100Y479156D01*
X101000D01*
X101600Y478856D01*
X101900Y478556D01*
X102200Y477656D01*
Y477056D01*
X101900Y476156D01*
X101300Y475556D01*
X100400Y475256D01*
X99500D02*X100400D01*
X99500D02*X98600Y475556D01*
X98300Y475856D01*
X98000Y476456D01*
X46800Y481556D02*X45900Y481256D01*
X45300Y480356D01*
X45000Y478856D01*
Y477956D01*
X45300Y476456D01*
X45900Y475556D01*
X46800Y475256D01*
X47400D01*
X48300Y475556D01*
X48900Y476456D01*
X49200Y477956D01*
Y478856D02*Y477956D01*
Y478856D02*X48900Y480356D01*
X48300Y481256D01*
X47400Y481556D01*
X46800D02*X47400D01*
X51300Y475856D02*X51000Y475556D01*
X51300Y475256D01*
X51600Y475556D01*
X51300Y475856D01*
X53400Y480356D02*X54000Y480656D01*
X54900Y481556D01*
Y475256D01*
X56700Y480356D02*X57300Y480656D01*
X58200Y481556D01*
Y475256D01*
X61800Y481556D02*X60900Y481256D01*
X60300Y480356D01*
X60000Y478856D01*
Y477956D01*
X60300Y476456D01*
X60900Y475556D01*
X61800Y475256D01*
X62400D01*
X63300Y475556D01*
X63900Y476456D01*
X64200Y477956D01*
Y478856D02*Y477956D01*
Y478856D02*X63900Y480356D01*
X63300Y481256D01*
X62400Y481556D01*
X61800D02*X62400D01*
X169606Y164578D02*Y158178D01*
X166406Y161378D02*X172806D01*
X168006Y162978D02*X171206D01*
X168006D02*Y159778D01*
X171206D01*
Y162978D02*Y159778D01*
X149606Y161578D02*Y155178D01*
X146406Y158378D02*X152806D01*
X148006Y159978D02*X151206D01*
X148006D02*Y156778D01*
X151206D01*
Y159978D02*Y156778D01*
X129606Y164578D02*Y158178D01*
X126406Y161378D02*X132806D01*
X128006Y162978D02*X131206D01*
X128006D02*Y159778D01*
X131206D01*
Y162978D02*Y159778D01*
X15000Y497206D02*Y490806D01*
X11800Y494006D02*X18200D01*
X13400Y495606D02*X16600D01*
X13400D02*Y492406D01*
X16600D01*
Y495606D02*Y492406D01*
X135000Y496556D02*X137400Y493556D01*
Y490256D01*
X139800Y496556D02*X137400Y493556D01*
X141600Y496556D02*Y490256D01*
Y496556D02*X145500D01*
X141600Y493556D02*X144000D01*
X141600Y490256D02*X145500D01*
X151500Y495656D02*X150900Y496256D01*
X150000Y496556D01*
X148800D02*X150000D01*
X148800D02*X147900Y496256D01*
X147300Y495656D01*
Y495056D01*
X147600Y494456D01*
X147900Y494156D01*
X148500Y493856D01*
X150300Y493256D01*
X150900Y492956D01*
X151200Y492656D01*
X151500Y492056D01*
Y491156D01*
X150900Y490556D01*
X150000Y490256D01*
X148800D02*X150000D01*
X148800D02*X147900Y490556D01*
X147300Y491156D01*
X98600Y496556D02*X101900D01*
X100100Y494156D01*
X101000D01*
X101600Y493856D01*
X101900Y493556D01*
X102200Y492656D01*
Y492056D01*
X101900Y491156D01*
X101300Y490556D01*
X100400Y490256D01*
X99500D02*X100400D01*
X99500D02*X98600Y490556D01*
X98300Y490856D01*
X98000Y491456D01*
X46800Y496556D02*X45900Y496256D01*
X45300Y495356D01*
X45000Y493856D01*
Y492956D01*
X45300Y491456D01*
X45900Y490556D01*
X46800Y490256D01*
X47400D01*
X48300Y490556D01*
X48900Y491456D01*
X49200Y492956D01*
Y493856D02*Y492956D01*
Y493856D02*X48900Y495356D01*
X48300Y496256D01*
X47400Y496556D01*
X46800D02*X47400D01*
X51300Y490856D02*X51000Y490556D01*
X51300Y490256D01*
X51600Y490556D01*
X51300Y490856D01*
X55200Y496556D02*X54300Y496256D01*
X53700Y495356D01*
X53400Y493856D01*
Y492956D01*
X53700Y491456D01*
X54300Y490556D01*
X55200Y490256D01*
X55800D01*
X56700Y490556D01*
X57300Y491456D01*
X57600Y492956D01*
Y493856D02*Y492956D01*
Y493856D02*X57300Y495356D01*
X56700Y496256D01*
X55800Y496556D01*
X55200D02*X55800D01*
X63000Y495656D02*X62700Y496256D01*
X61800Y496556D01*
X61200D02*X61800D01*
X61200D02*X60300Y496256D01*
X59700Y495356D01*
X59400Y493856D01*
Y492356D01*
X59700Y491156D01*
X60300Y490556D01*
X61200Y490256D01*
X61500D01*
X62400Y490556D01*
X63000Y491156D01*
X63300Y492056D01*
Y492356D02*Y492056D01*
Y492356D02*X63000Y493256D01*
X62400Y493856D01*
X61500Y494156D01*
X61200D02*X61500D01*
X61200D02*X60300Y493856D01*
X59700Y493256D01*
X59400Y492356D01*
X69300Y496556D02*X66300Y490256D01*
X65100Y496556D02*X69300D01*
X149607Y108268D02*Y105068D01*
Y108268D02*X152380Y109868D01*
X149607Y108268D02*X146834Y109868D01*
X148007Y108268D02*G75*G03X151207Y108268I1600J0D01*G01*
G75*G03X148007Y108268I-1600J0D01*G01*
X15000Y509006D02*Y505806D01*
Y509006D02*X17773Y510606D01*
X15000Y509006D02*X12227Y510606D01*
X13400Y509006D02*G75*G03X16600Y509006I1600J0D01*G01*
G75*G03X13400Y509006I-1600J0D01*G01*
X135000Y511556D02*X137400Y508556D01*
Y505256D01*
X139800Y511556D02*X137400Y508556D01*
X141600Y511556D02*Y505256D01*
Y511556D02*X145500D01*
X141600Y508556D02*X144000D01*
X141600Y505256D02*X145500D01*
X151500Y510656D02*X150900Y511256D01*
X150000Y511556D01*
X148800D02*X150000D01*
X148800D02*X147900Y511256D01*
X147300Y510656D01*
Y510056D01*
X147600Y509456D01*
X147900Y509156D01*
X148500Y508856D01*
X150300Y508256D01*
X150900Y507956D01*
X151200Y507656D01*
X151500Y507056D01*
Y506156D01*
X150900Y505556D01*
X150000Y505256D01*
X148800D02*X150000D01*
X148800D02*X147900Y505556D01*
X147300Y506156D01*
X98000Y510356D02*X98600Y510656D01*
X99500Y511556D01*
Y505256D01*
X46800Y511556D02*X45900Y511256D01*
X45300Y510356D01*
X45000Y508856D01*
Y507956D01*
X45300Y506456D01*
X45900Y505556D01*
X46800Y505256D01*
X47400D01*
X48300Y505556D01*
X48900Y506456D01*
X49200Y507956D01*
Y508856D02*Y507956D01*
Y508856D02*X48900Y510356D01*
X48300Y511256D01*
X47400Y511556D01*
X46800D02*X47400D01*
X51300Y505856D02*X51000Y505556D01*
X51300Y505256D01*
X51600Y505556D01*
X51300Y505856D01*
X55200Y511556D02*X54300Y511256D01*
X53700Y510356D01*
X53400Y508856D01*
Y507956D01*
X53700Y506456D01*
X54300Y505556D01*
X55200Y505256D01*
X55800D01*
X56700Y505556D01*
X57300Y506456D01*
X57600Y507956D01*
Y508856D02*Y507956D01*
Y508856D02*X57300Y510356D01*
X56700Y511256D01*
X55800Y511556D01*
X55200D02*X55800D01*
X63000Y510656D02*X62700Y511256D01*
X61800Y511556D01*
X61200D02*X61800D01*
X61200D02*X60300Y511256D01*
X59700Y510356D01*
X59400Y508856D01*
Y507356D01*
X59700Y506156D01*
X60300Y505556D01*
X61200Y505256D01*
X61500D01*
X62400Y505556D01*
X63000Y506156D01*
X63300Y507056D01*
Y507356D02*Y507056D01*
Y507356D02*X63000Y508256D01*
X62400Y508856D01*
X61500Y509156D01*
X61200D02*X61500D01*
X61200D02*X60300Y508856D01*
X59700Y508256D01*
X59400Y507356D01*
X68700Y510656D02*X68400Y511256D01*
X67500Y511556D01*
X66900D02*X67500D01*
X66900D02*X66000Y511256D01*
X65400Y510356D01*
X65100Y508856D01*
Y507356D01*
X65400Y506156D01*
X66000Y505556D01*
X66900Y505256D01*
X67200D01*
X68100Y505556D01*
X68700Y506156D01*
X69000Y507056D01*
Y507356D02*Y507056D01*
Y507356D02*X68700Y508256D01*
X68100Y508856D01*
X67200Y509156D01*
X66900D02*X67200D01*
X66900D02*X66000Y508856D01*
X65400Y508256D01*
X65100Y507356D01*
X113637Y346089D02*X116837D01*
X113637D02*Y342889D01*
X116837D01*
Y346089D02*Y342889D01*
X103637Y346089D02*X106837D01*
X103637D02*Y342889D01*
X106837D01*
Y346089D02*Y342889D01*
X64266Y237112D02*X67466D01*
X64266D02*Y233912D01*
X67466D01*
Y237112D02*Y233912D01*
X74266Y237112D02*X77466D01*
X74266D02*Y233912D01*
X77466D01*
Y237112D02*Y233912D01*
X64266Y227112D02*X67466D01*
X64266D02*Y223912D01*
X67466D01*
Y227112D02*Y223912D01*
X74266Y227112D02*X77466D01*
X74266D02*Y223912D01*
X77466D01*
Y227112D02*Y223912D01*
X64266Y217112D02*X67466D01*
X64266D02*Y213912D01*
X67466D01*
Y217112D02*Y213912D01*
X74266Y217112D02*X77466D01*
X74266D02*Y213912D01*
X77466D01*
Y217112D02*Y213912D01*
X64266Y207112D02*X67466D01*
X64266D02*Y203912D01*
X67466D01*
Y207112D02*Y203912D01*
X74266Y207112D02*X77466D01*
X74266D02*Y203912D01*
X77466D01*
Y207112D02*Y203912D01*
X64266Y197112D02*X67466D01*
X64266D02*Y193912D01*
X67466D01*
Y197112D02*Y193912D01*
X74266Y197112D02*X77466D01*
X74266D02*Y193912D01*
X77466D01*
Y197112D02*Y193912D01*
X64266Y187112D02*X67466D01*
X64266D02*Y183912D01*
X67466D01*
Y187112D02*Y183912D01*
X74266Y187112D02*X77466D01*
X74266D02*Y183912D01*
X77466D01*
Y187112D02*Y183912D01*
X64266Y177112D02*X67466D01*
X64266D02*Y173912D01*
X67466D01*
Y177112D02*Y173912D01*
X74266Y177112D02*X77466D01*
X74266D02*Y173912D01*
X77466D01*
Y177112D02*Y173912D01*
X64266Y167112D02*X67466D01*
X64266D02*Y163912D01*
X67466D01*
Y167112D02*Y163912D01*
X74266Y167112D02*X77466D01*
X74266D02*Y163912D01*
X77466D01*
Y167112D02*Y163912D01*
X64266Y157112D02*X67466D01*
X64266D02*Y153912D01*
X67466D01*
Y157112D02*Y153912D01*
X74266Y157112D02*X77466D01*
X74266D02*Y153912D01*
X77466D01*
Y157112D02*Y153912D01*
X64266Y147112D02*X67466D01*
X64266D02*Y143912D01*
X67466D01*
Y147112D02*Y143912D01*
X74266Y147112D02*X77466D01*
X74266D02*Y143912D01*
X77466D01*
Y147112D02*Y143912D01*
X64266Y137112D02*X67466D01*
X64266D02*Y133912D01*
X67466D01*
Y137112D02*Y133912D01*
X74266Y137112D02*X77466D01*
X74266D02*Y133912D01*
X77466D01*
Y137112D02*Y133912D01*
X64266Y127112D02*X67466D01*
X64266D02*Y123912D01*
X67466D01*
Y127112D02*Y123912D01*
X74266Y127112D02*X77466D01*
X74266D02*Y123912D01*
X77466D01*
Y127112D02*Y123912D01*
X64266Y117112D02*X67466D01*
X64266D02*Y113912D01*
X67466D01*
Y117112D02*Y113912D01*
X74266Y117112D02*X77466D01*
X74266D02*Y113912D01*
X77466D01*
Y117112D02*Y113912D01*
X64266Y107112D02*X67466D01*
X64266D02*Y103912D01*
X67466D01*
Y107112D02*Y103912D01*
X74266Y107112D02*X77466D01*
X74266D02*Y103912D01*
X77466D01*
Y107112D02*Y103912D01*
X64266Y97112D02*X67466D01*
X64266D02*Y93912D01*
X67466D01*
Y97112D02*Y93912D01*
X74266Y97112D02*X77466D01*
X74266D02*Y93912D01*
X77466D01*
Y97112D02*Y93912D01*
X64266Y87112D02*X67466D01*
X64266D02*Y83912D01*
X67466D01*
Y87112D02*Y83912D01*
X74266Y87112D02*X77466D01*
X74266D02*Y83912D01*
X77466D01*
Y87112D02*Y83912D01*
X64266Y77112D02*X67466D01*
X64266D02*Y73912D01*
X67466D01*
Y77112D02*Y73912D01*
X74266Y77112D02*X77466D01*
X74266D02*Y73912D01*
X77466D01*
Y77112D02*Y73912D01*
X13400Y525606D02*X16600D01*
X13400D02*Y522406D01*
X16600D01*
Y525606D02*Y522406D01*
X135000Y526556D02*X137400Y523556D01*
Y520256D01*
X139800Y526556D02*X137400Y523556D01*
X141600Y526556D02*Y520256D01*
Y526556D02*X145500D01*
X141600Y523556D02*X144000D01*
X141600Y520256D02*X145500D01*
X151500Y525656D02*X150900Y526256D01*
X150000Y526556D01*
X148800D02*X150000D01*
X148800D02*X147900Y526256D01*
X147300Y525656D01*
Y525056D01*
X147600Y524456D01*
X147900Y524156D01*
X148500Y523856D01*
X150300Y523256D01*
X150900Y522956D01*
X151200Y522656D01*
X151500Y522056D01*
Y521156D01*
X150900Y520556D01*
X150000Y520256D01*
X148800D02*X150000D01*
X148800D02*X147900Y520556D01*
X147300Y521156D01*
X98600Y526556D02*X101900D01*
X100100Y524156D01*
X101000D01*
X101600Y523856D01*
X101900Y523556D01*
X102200Y522656D01*
Y522056D01*
X101900Y521156D01*
X101300Y520556D01*
X100400Y520256D01*
X99500D02*X100400D01*
X99500D02*X98600Y520556D01*
X98300Y520856D01*
X98000Y521456D01*
X107600Y525656D02*X107300Y526256D01*
X106400Y526556D01*
X105800D02*X106400D01*
X105800D02*X104900Y526256D01*
X104300Y525356D01*
X104000Y523856D01*
Y522356D01*
X104300Y521156D01*
X104900Y520556D01*
X105800Y520256D01*
X106100D01*
X107000Y520556D01*
X107600Y521156D01*
X107900Y522056D01*
Y522356D02*Y522056D01*
Y522356D02*X107600Y523256D01*
X107000Y523856D01*
X106100Y524156D01*
X105800D02*X106100D01*
X105800D02*X104900Y523856D01*
X104300Y523256D01*
X104000Y522356D01*
X46800Y526556D02*X45900Y526256D01*
X45300Y525356D01*
X45000Y523856D01*
Y522956D01*
X45300Y521456D01*
X45900Y520556D01*
X46800Y520256D01*
X47400D01*
X48300Y520556D01*
X48900Y521456D01*
X49200Y522956D01*
Y523856D02*Y522956D01*
Y523856D02*X48900Y525356D01*
X48300Y526256D01*
X47400Y526556D01*
X46800D02*X47400D01*
X51300Y520856D02*X51000Y520556D01*
X51300Y520256D01*
X51600Y520556D01*
X51300Y520856D01*
X55200Y526556D02*X54300Y526256D01*
X53700Y525356D01*
X53400Y523856D01*
Y522956D01*
X53700Y521456D01*
X54300Y520556D01*
X55200Y520256D01*
X55800D01*
X56700Y520556D01*
X57300Y521456D01*
X57600Y522956D01*
Y523856D02*Y522956D01*
Y523856D02*X57300Y525356D01*
X56700Y526256D01*
X55800Y526556D01*
X55200D02*X55800D01*
X62400D02*X59400Y522356D01*
X63900D01*
X62400Y526556D02*Y520256D01*
X69300Y525656D02*X69000Y526256D01*
X68100Y526556D01*
X67500D02*X68100D01*
X67500D02*X66600Y526256D01*
X66000Y525356D01*
X65700Y523856D01*
Y522356D01*
X66000Y521156D01*
X66600Y520556D01*
X67500Y520256D01*
X67800D01*
X68700Y520556D01*
X69300Y521156D01*
X69600Y522056D01*
Y522356D02*Y522056D01*
Y522356D02*X69300Y523256D01*
X68700Y523856D01*
X67800Y524156D01*
X67500D02*X67800D01*
X67500D02*X66600Y523856D01*
X66000Y523256D01*
X65700Y522356D01*
X44476Y376378D02*G75*G03X46076Y376378I800J0D01*G01*
G75*G03X44476Y376378I-800J0D01*G01*
Y366378D02*G75*G03X46076Y366378I800J0D01*G01*
G75*G03X44476Y366378I-800J0D01*G01*
Y356378D02*G75*G03X46076Y356378I800J0D01*G01*
G75*G03X44476Y356378I-800J0D01*G01*
Y346378D02*G75*G03X46076Y346378I800J0D01*G01*
G75*G03X44476Y346378I-800J0D01*G01*
Y336378D02*G75*G03X46076Y336378I800J0D01*G01*
G75*G03X44476Y336378I-800J0D01*G01*
Y326378D02*G75*G03X46076Y326378I800J0D01*G01*
G75*G03X44476Y326378I-800J0D01*G01*
Y316378D02*G75*G03X46076Y316378I800J0D01*G01*
G75*G03X44476Y316378I-800J0D01*G01*
Y306378D02*G75*G03X46076Y306378I800J0D01*G01*
G75*G03X44476Y306378I-800J0D01*G01*
Y296378D02*G75*G03X46076Y296378I800J0D01*G01*
G75*G03X44476Y296378I-800J0D01*G01*
Y286378D02*G75*G03X46076Y286378I800J0D01*G01*
G75*G03X44476Y286378I-800J0D01*G01*
Y276378D02*G75*G03X46076Y276378I800J0D01*G01*
G75*G03X44476Y276378I-800J0D01*G01*
Y266378D02*G75*G03X46076Y266378I800J0D01*G01*
G75*G03X44476Y266378I-800J0D01*G01*
Y256378D02*G75*G03X46076Y256378I800J0D01*G01*
G75*G03X44476Y256378I-800J0D01*G01*
Y246378D02*G75*G03X46076Y246378I800J0D01*G01*
G75*G03X44476Y246378I-800J0D01*G01*
Y236378D02*G75*G03X46076Y236378I800J0D01*G01*
G75*G03X44476Y236378I-800J0D01*G01*
Y226378D02*G75*G03X46076Y226378I800J0D01*G01*
G75*G03X44476Y226378I-800J0D01*G01*
Y216378D02*G75*G03X46076Y216378I800J0D01*G01*
G75*G03X44476Y216378I-800J0D01*G01*
Y206378D02*G75*G03X46076Y206378I800J0D01*G01*
G75*G03X44476Y206378I-800J0D01*G01*
Y196378D02*G75*G03X46076Y196378I800J0D01*G01*
G75*G03X44476Y196378I-800J0D01*G01*
Y186378D02*G75*G03X46076Y186378I800J0D01*G01*
G75*G03X44476Y186378I-800J0D01*G01*
Y176378D02*G75*G03X46076Y176378I800J0D01*G01*
G75*G03X44476Y176378I-800J0D01*G01*
Y166378D02*G75*G03X46076Y166378I800J0D01*G01*
G75*G03X44476Y166378I-800J0D01*G01*
Y156378D02*G75*G03X46076Y156378I800J0D01*G01*
G75*G03X44476Y156378I-800J0D01*G01*
Y146378D02*G75*G03X46076Y146378I800J0D01*G01*
G75*G03X44476Y146378I-800J0D01*G01*
Y136378D02*G75*G03X46076Y136378I800J0D01*G01*
G75*G03X44476Y136378I-800J0D01*G01*
Y126378D02*G75*G03X46076Y126378I800J0D01*G01*
G75*G03X44476Y126378I-800J0D01*G01*
Y116378D02*G75*G03X46076Y116378I800J0D01*G01*
G75*G03X44476Y116378I-800J0D01*G01*
Y106378D02*G75*G03X46076Y106378I800J0D01*G01*
G75*G03X44476Y106378I-800J0D01*G01*
Y96378D02*G75*G03X46076Y96378I800J0D01*G01*
G75*G03X44476Y96378I-800J0D01*G01*
Y86378D02*G75*G03X46076Y86378I800J0D01*G01*
G75*G03X44476Y86378I-800J0D01*G01*
Y76378D02*G75*G03X46076Y76378I800J0D01*G01*
G75*G03X44476Y76378I-800J0D01*G01*
X183806Y288386D02*G75*G03X185406Y288386I800J0D01*G01*
G75*G03X183806Y288386I-800J0D01*G01*
X113806D02*G75*G03X115406Y288386I800J0D01*G01*
G75*G03X113806Y288386I-800J0D01*G01*
X14200Y539006D02*G75*G03X15800Y539006I800J0D01*G01*
G75*G03X14200Y539006I-800J0D01*G01*
X135000Y541556D02*X137400Y538556D01*
Y535256D01*
X139800Y541556D02*X137400Y538556D01*
X141600Y541556D02*Y535256D01*
Y541556D02*X145500D01*
X141600Y538556D02*X144000D01*
X141600Y535256D02*X145500D01*
X151500Y540656D02*X150900Y541256D01*
X150000Y541556D01*
X148800D02*X150000D01*
X148800D02*X147900Y541256D01*
X147300Y540656D01*
Y540056D01*
X147600Y539456D01*
X147900Y539156D01*
X148500Y538856D01*
X150300Y538256D01*
X150900Y537956D01*
X151200Y537656D01*
X151500Y537056D01*
Y536156D01*
X150900Y535556D01*
X150000Y535256D01*
X148800D02*X150000D01*
X148800D02*X147900Y535556D01*
X147300Y536156D01*
X98600Y541556D02*X101900D01*
X100100Y539156D01*
X101000D01*
X101600Y538856D01*
X101900Y538556D01*
X102200Y537656D01*
Y537056D01*
X101900Y536156D01*
X101300Y535556D01*
X100400Y535256D01*
X99500D02*X100400D01*
X99500D02*X98600Y535556D01*
X98300Y535856D01*
X98000Y536456D01*
X104600Y541556D02*X107900D01*
X106100Y539156D01*
X107000D01*
X107600Y538856D01*
X107900Y538556D01*
X108200Y537656D01*
Y537056D01*
X107900Y536156D01*
X107300Y535556D01*
X106400Y535256D01*
X105500D02*X106400D01*
X105500D02*X104600Y535556D01*
X104300Y535856D01*
X104000Y536456D01*
X46800Y541556D02*X45900Y541256D01*
X45300Y540356D01*
X45000Y538856D01*
Y537956D01*
X45300Y536456D01*
X45900Y535556D01*
X46800Y535256D01*
X47400D01*
X48300Y535556D01*
X48900Y536456D01*
X49200Y537956D01*
Y538856D02*Y537956D01*
Y538856D02*X48900Y540356D01*
X48300Y541256D01*
X47400Y541556D01*
X46800D02*X47400D01*
X51300Y535856D02*X51000Y535556D01*
X51300Y535256D01*
X51600Y535556D01*
X51300Y535856D01*
X55200Y541556D02*X54300Y541256D01*
X53700Y540356D01*
X53400Y538856D01*
Y537956D01*
X53700Y536456D01*
X54300Y535556D01*
X55200Y535256D01*
X55800D01*
X56700Y535556D01*
X57300Y536456D01*
X57600Y537956D01*
Y538856D02*Y537956D01*
Y538856D02*X57300Y540356D01*
X56700Y541256D01*
X55800Y541556D01*
X55200D02*X55800D01*
X62400D02*X59400Y537356D01*
X63900D01*
X62400Y541556D02*Y535256D01*
X66000Y540356D02*Y540056D01*
Y540356D02*X66300Y540956D01*
X66600Y541256D01*
X67200Y541556D01*
X68400D01*
X69000Y541256D01*
X69300Y540956D01*
X69600Y540356D01*
Y539756D01*
X69300Y539156D01*
X68700Y538256D01*
X65700Y535256D01*
X69900D01*
X69666Y48444D02*X72066Y46044D01*
X69666D02*X72066Y48444D01*
X148406D02*X150806Y46044D01*
X148406D02*X150806Y48444D01*
X69666Y406712D02*X72066Y404312D01*
X69666D02*X72066Y406712D01*
X148406D02*X150806Y404312D01*
X148406D02*X150806Y406712D01*
X59667Y345689D02*X62067Y343289D01*
X59667D02*X62067Y345689D01*
X59667Y360689D02*X62067Y358289D01*
X59667D02*X62067Y360689D01*
X59667Y330689D02*X62067Y328289D01*
X59667D02*X62067Y330689D01*
X79667Y345689D02*X82067Y343289D01*
X79667D02*X82067Y345689D01*
X79667Y360689D02*X82067Y358289D01*
X79667D02*X82067Y360689D01*
X79667Y330689D02*X82067Y328289D01*
X79667D02*X82067Y330689D01*
X138407Y345689D02*X140807Y343289D01*
X138407D02*X140807Y345689D01*
X138407Y360689D02*X140807Y358289D01*
X138407D02*X140807Y360689D01*
X138407Y330689D02*X140807Y328289D01*
X138407D02*X140807Y330689D01*
X158407Y345689D02*X160807Y343289D01*
X158407D02*X160807Y345689D01*
X158407Y360689D02*X160807Y358289D01*
X158407D02*X160807Y360689D01*
X158407Y330689D02*X160807Y328289D01*
X158407D02*X160807Y330689D01*
X123406Y308287D02*X125806Y305887D01*
X123406D02*X125806Y308287D01*
X173406D02*X175806Y305887D01*
X173406D02*X175806Y308287D01*
X13800Y555206D02*X16200Y552806D01*
X13800D02*X16200Y555206D01*
X135000Y556556D02*X137400Y553556D01*
Y550256D01*
X139800Y556556D02*X137400Y553556D01*
X141600Y556556D02*Y550256D01*
Y556556D02*X145500D01*
X141600Y553556D02*X144000D01*
X141600Y550256D02*X145500D01*
X151500Y555656D02*X150900Y556256D01*
X150000Y556556D01*
X148800D02*X150000D01*
X148800D02*X147900Y556256D01*
X147300Y555656D01*
Y555056D01*
X147600Y554456D01*
X147900Y554156D01*
X148500Y553856D01*
X150300Y553256D01*
X150900Y552956D01*
X151200Y552656D01*
X151500Y552056D01*
Y551156D01*
X150900Y550556D01*
X150000Y550256D01*
X148800D02*X150000D01*
X148800D02*X147900Y550556D01*
X147300Y551156D01*
X98000Y555356D02*X98600Y555656D01*
X99500Y556556D01*
Y550256D01*
X102800Y556556D02*X101900Y556256D01*
X101600Y555656D01*
Y555056D01*
X101900Y554456D01*
X102500Y554156D01*
X103700Y553856D01*
X104600Y553556D01*
X105200Y552956D01*
X105500Y552356D01*
Y551456D01*
X105200Y550856D01*
X104900Y550556D01*
X104000Y550256D01*
X102800D02*X104000D01*
X102800D02*X101900Y550556D01*
X101600Y550856D01*
X101300Y551456D01*
Y552356D02*Y551456D01*
Y552356D02*X101600Y552956D01*
X102200Y553556D01*
X103100Y553856D01*
X104300Y554156D01*
X104900Y554456D01*
X105200Y555056D01*
Y555656D02*Y555056D01*
Y555656D02*X104900Y556256D01*
X104000Y556556D01*
X102800D02*X104000D01*
X46800D02*X45900Y556256D01*
X45300Y555356D01*
X45000Y553856D01*
Y552956D01*
X45300Y551456D01*
X45900Y550556D01*
X46800Y550256D01*
X47400D01*
X48300Y550556D01*
X48900Y551456D01*
X49200Y552956D01*
Y553856D02*Y552956D01*
Y553856D02*X48900Y555356D01*
X48300Y556256D01*
X47400Y556556D01*
X46800D02*X47400D01*
X51300Y550856D02*X51000Y550556D01*
X51300Y550256D01*
X51600Y550556D01*
X51300Y550856D01*
X55200Y556556D02*X54300Y556256D01*
X53700Y555356D01*
X53400Y553856D01*
Y552956D01*
X53700Y551456D01*
X54300Y550556D01*
X55200Y550256D01*
X55800D01*
X56700Y550556D01*
X57300Y551456D01*
X57600Y552956D01*
Y553856D02*Y552956D01*
Y553856D02*X57300Y555356D01*
X56700Y556256D01*
X55800Y556556D01*
X55200D02*X55800D01*
X62400D02*X59400Y552356D01*
X63900D01*
X62400Y556556D02*Y550256D01*
X67500Y556556D02*X66600Y556256D01*
X66000Y555356D01*
X65700Y553856D01*
Y552956D01*
X66000Y551456D01*
X66600Y550556D01*
X67500Y550256D01*
X68100D01*
X69000Y550556D01*
X69600Y551456D01*
X69900Y552956D01*
Y553856D02*Y552956D01*
Y553856D02*X69600Y555356D01*
X69000Y556256D01*
X68100Y556556D01*
X67500D02*X68100D01*
X127953Y331324D02*Y328124D01*
X126353Y329724D02*X129553D01*
X91535Y372663D02*Y369463D01*
X89935Y371063D02*X93135D01*
X56102Y318529D02*Y315329D01*
X54502Y316929D02*X57702D01*
X15000Y570606D02*Y567406D01*
X13400Y569006D02*X16600D01*
X135000Y571556D02*X137400Y568556D01*
Y565256D01*
X139800Y571556D02*X137400Y568556D01*
X141600Y571556D02*Y565256D01*
Y571556D02*X145500D01*
X141600Y568556D02*X144000D01*
X141600Y565256D02*X145500D01*
X151500Y570656D02*X150900Y571256D01*
X150000Y571556D01*
X148800D02*X150000D01*
X148800D02*X147900Y571256D01*
X147300Y570656D01*
Y570056D01*
X147600Y569456D01*
X147900Y569156D01*
X148500Y568856D01*
X150300Y568256D01*
X150900Y567956D01*
X151200Y567656D01*
X151500Y567056D01*
Y566156D01*
X150900Y565556D01*
X150000Y565256D01*
X148800D02*X150000D01*
X148800D02*X147900Y565556D01*
X147300Y566156D01*
X98600Y571556D02*X101900D01*
X100100Y569156D01*
X101000D01*
X101600Y568856D01*
X101900Y568556D01*
X102200Y567656D01*
Y567056D01*
X101900Y566156D01*
X101300Y565556D01*
X100400Y565256D01*
X99500D02*X100400D01*
X99500D02*X98600Y565556D01*
X98300Y565856D01*
X98000Y566456D01*
X46800Y571556D02*X45900Y571256D01*
X45300Y570356D01*
X45000Y568856D01*
Y567956D01*
X45300Y566456D01*
X45900Y565556D01*
X46800Y565256D01*
X47400D01*
X48300Y565556D01*
X48900Y566456D01*
X49200Y567956D01*
Y568856D02*Y567956D01*
Y568856D02*X48900Y570356D01*
X48300Y571256D01*
X47400Y571556D01*
X46800D02*X47400D01*
X51300Y565856D02*X51000Y565556D01*
X51300Y565256D01*
X51600Y565556D01*
X51300Y565856D01*
X55200Y571556D02*X54300Y571256D01*
X53700Y570356D01*
X53400Y568856D01*
Y567956D01*
X53700Y566456D01*
X54300Y565556D01*
X55200Y565256D01*
X55800D01*
X56700Y565556D01*
X57300Y566456D01*
X57600Y567956D01*
Y568856D02*Y567956D01*
Y568856D02*X57300Y570356D01*
X56700Y571256D01*
X55800Y571556D01*
X55200D02*X55800D01*
X60000D02*X63300D01*
X61500Y569156D01*
X62400D01*
X63000Y568856D01*
X63300Y568556D01*
X63600Y567656D01*
Y567056D01*
X63300Y566156D01*
X62700Y565556D01*
X61800Y565256D01*
X60900D02*X61800D01*
X60900D02*X60000Y565556D01*
X59700Y565856D01*
X59400Y566456D01*
X66000Y571556D02*X69000D01*
X66000D02*X65700Y568856D01*
X66000Y569156D01*
X66900Y569456D01*
X67800D01*
X68700Y569156D01*
X69300Y568556D01*
X69600Y567656D01*
Y567056D01*
X69300Y566156D01*
X68700Y565556D01*
X67800Y565256D01*
X66900D02*X67800D01*
X66900D02*X66000Y565556D01*
X65700Y565856D01*
X65400Y566456D01*
X104331Y125827D02*Y124227D01*
Y125827D02*X105717Y126627D01*
X104331Y125827D02*X102944Y126627D01*
X104331Y145827D02*Y144227D01*
Y145827D02*X105717Y146627D01*
X104331Y145827D02*X102944Y146627D01*
X15000Y584006D02*Y582406D01*
Y584006D02*X16387Y584806D01*
X15000Y584006D02*X13613Y584806D01*
X135000Y586556D02*X137400Y583556D01*
Y580256D01*
X139800Y586556D02*X137400Y583556D01*
X141600Y586556D02*Y580256D01*
Y586556D02*X145500D01*
X141600Y583556D02*X144000D01*
X141600Y580256D02*X145500D01*
X151500Y585656D02*X150900Y586256D01*
X150000Y586556D01*
X148800D02*X150000D01*
X148800D02*X147900Y586256D01*
X147300Y585656D01*
Y585056D01*
X147600Y584456D01*
X147900Y584156D01*
X148500Y583856D01*
X150300Y583256D01*
X150900Y582956D01*
X151200Y582656D01*
X151500Y582056D01*
Y581156D01*
X150900Y580556D01*
X150000Y580256D01*
X148800D02*X150000D01*
X148800D02*X147900Y580556D01*
X147300Y581156D01*
X98300Y585356D02*Y585056D01*
Y585356D02*X98600Y585956D01*
X98900Y586256D01*
X99500Y586556D01*
X100700D01*
X101300Y586256D01*
X101600Y585956D01*
X101900Y585356D01*
Y584756D01*
X101600Y584156D01*
X101000Y583256D01*
X98000Y580256D01*
X102200D01*
X46800Y586556D02*X45900Y586256D01*
X45300Y585356D01*
X45000Y583856D01*
Y582956D01*
X45300Y581456D01*
X45900Y580556D01*
X46800Y580256D01*
X47400D01*
X48300Y580556D01*
X48900Y581456D01*
X49200Y582956D01*
Y583856D02*Y582956D01*
Y583856D02*X48900Y585356D01*
X48300Y586256D01*
X47400Y586556D01*
X46800D02*X47400D01*
X51300Y580856D02*X51000Y580556D01*
X51300Y580256D01*
X51600Y580556D01*
X51300Y580856D01*
X55200Y586556D02*X54300Y586256D01*
X53700Y585356D01*
X53400Y583856D01*
Y582956D01*
X53700Y581456D01*
X54300Y580556D01*
X55200Y580256D01*
X55800D01*
X56700Y580556D01*
X57300Y581456D01*
X57600Y582956D01*
Y583856D02*Y582956D01*
Y583856D02*X57300Y585356D01*
X56700Y586256D01*
X55800Y586556D01*
X55200D02*X55800D01*
X59700Y585356D02*Y585056D01*
Y585356D02*X60000Y585956D01*
X60300Y586256D01*
X60900Y586556D01*
X62100D01*
X62700Y586256D01*
X63000Y585956D01*
X63300Y585356D01*
Y584756D01*
X63000Y584156D01*
X62400Y583256D01*
X59400Y580256D01*
X63600D01*
X67200Y586556D02*X66300Y586256D01*
X65700Y585356D01*
X65400Y583856D01*
Y582956D01*
X65700Y581456D01*
X66300Y580556D01*
X67200Y580256D01*
X67800D01*
X68700Y580556D01*
X69300Y581456D01*
X69600Y582956D01*
Y583856D02*Y582956D01*
Y583856D02*X69300Y585356D01*
X68700Y586256D01*
X67800Y586556D01*
X67200D02*X67800D01*
X4200Y600656D02*X3600Y601256D01*
X2700Y601556D01*
X1500D02*X2700D01*
X1500D02*X600Y601256D01*
X0Y600656D01*
Y600056D01*
X300Y599456D01*
X600Y599156D01*
X1200Y598856D01*
X3000Y598256D01*
X3600Y597956D01*
X3900Y597656D01*
X4200Y597056D01*
Y596156D01*
X3600Y595556D01*
X2700Y595256D01*
X1500D02*X2700D01*
X1500D02*X600Y595556D01*
X0Y596156D01*
X6300Y599456D02*X8100Y595256D01*
X9900Y599456D02*X8100Y595256D01*
X7500Y594056D01*
X6900Y593456D01*
X6300Y593156D01*
X6000D02*X6300D01*
X11700Y599456D02*Y595256D01*
Y598256D02*X12600Y599156D01*
X13200Y599456D01*
X14100D01*
X14700Y599156D01*
X15000Y598256D01*
Y595256D01*
Y598256D02*X15900Y599156D01*
X16500Y599456D01*
X17400D01*
X18000Y599156D01*
X18300Y598256D01*
Y595256D01*
X20100Y601556D02*Y595256D01*
Y598556D02*X20700Y599156D01*
X21300Y599456D01*
X22200D01*
X22800Y599156D01*
X23400Y598556D01*
X23700Y597656D01*
Y597056D01*
X23400Y596156D01*
X22800Y595556D01*
X22200Y595256D01*
X21300D02*X22200D01*
X21300D02*X20700Y595556D01*
X20100Y596156D01*
X27000Y599456D02*X26400Y599156D01*
X25800Y598556D01*
X25500Y597656D01*
Y597056D01*
X25800Y596156D01*
X26400Y595556D01*
X27000Y595256D01*
X27900D01*
X28500Y595556D01*
X29100Y596156D01*
X29400Y597056D01*
Y597656D02*Y597056D01*
Y597656D02*X29100Y598556D01*
X28500Y599156D01*
X27900Y599456D01*
X27000D02*X27900D01*
X31200Y601556D02*Y595256D01*
X0Y592156D02*X33000D01*
X41000Y601556D02*Y595256D01*
Y601556D02*X43100D01*
X44000Y601256D01*
X44600Y600656D01*
X44900Y600056D01*
X45200Y599156D01*
Y597656D01*
X44900Y596756D01*
X44600Y596156D01*
X44000Y595556D01*
X43100Y595256D01*
X41000D02*X43100D01*
X47000Y601556D02*X47300Y601256D01*
X47600Y601556D01*
X47300Y601856D01*
X47000Y601556D01*
X47300Y599456D02*Y595256D01*
X53000Y599456D02*Y595256D01*
Y598556D02*X52400Y599156D01*
X51800Y599456D01*
X50900D02*X51800D01*
X50900D02*X50300Y599156D01*
X49700Y598556D01*
X49400Y597656D01*
Y597056D01*
X49700Y596156D01*
X50300Y595556D01*
X50900Y595256D01*
X51800D01*
X52400Y595556D01*
X53000Y596156D01*
X54800Y599456D02*Y595256D01*
Y598256D02*X55700Y599156D01*
X56300Y599456D01*
X57200D01*
X57800Y599156D01*
X58100Y598256D01*
Y595256D01*
Y598256D02*X59000Y599156D01*
X59600Y599456D01*
X60500D01*
X61100Y599156D01*
X61400Y598256D01*
Y595256D01*
X63500Y595856D02*X63200Y595556D01*
X63500Y595256D01*
X63800Y595556D01*
X63500Y595856D01*
X69500Y602756D02*X68900Y602156D01*
X68300Y601256D01*
X67700Y600056D01*
X67400Y598556D01*
Y597356D01*
X67700Y595856D01*
X68300Y594656D01*
X68900Y593756D01*
X69500Y593156D01*
X71300Y601556D02*Y595256D01*
X73100Y599456D02*Y595256D01*
Y598256D02*X74000Y599156D01*
X74600Y599456D01*
X75500D01*
X76100Y599156D01*
X76400Y598256D01*
Y595256D01*
X81800Y598556D02*X81200Y599156D01*
X80600Y599456D01*
X79700D02*X80600D01*
X79700D02*X79100Y599156D01*
X78500Y598556D01*
X78200Y597656D01*
Y597056D01*
X78500Y596156D01*
X79100Y595556D01*
X79700Y595256D01*
X80600D01*
X81200Y595556D01*
X81800Y596156D01*
X83600Y601556D02*Y595256D01*
Y598256D02*X84500Y599156D01*
X85100Y599456D01*
X86000D01*
X86600Y599156D01*
X86900Y598256D01*
Y595256D01*
X88700Y602756D02*X89300Y602156D01*
X89900Y601256D01*
X90500Y600056D01*
X90800Y598556D01*
Y597356D01*
X90500Y595856D01*
X89900Y594656D01*
X89300Y593756D01*
X88700Y593156D01*
X41000Y592156D02*X92600D01*
X99500Y600056D02*X99200Y600656D01*
X98600Y601256D01*
X98000Y601556D01*
X96800D02*X98000D01*
X96800D02*X96200Y601256D01*
X95600Y600656D01*
X95300Y600056D01*
X95000Y599156D01*
Y597656D01*
X95300Y596756D01*
X95600Y596156D01*
X96200Y595556D01*
X96800Y595256D01*
X98000D01*
X98600Y595556D01*
X99200Y596156D01*
X99500Y596756D01*
X102800Y599456D02*X102200Y599156D01*
X101600Y598556D01*
X101300Y597656D01*
Y597056D01*
X101600Y596156D01*
X102200Y595556D01*
X102800Y595256D01*
X103700D01*
X104300Y595556D01*
X104900Y596156D01*
X105200Y597056D01*
Y597656D02*Y597056D01*
Y597656D02*X104900Y598556D01*
X104300Y599156D01*
X103700Y599456D01*
X102800D02*X103700D01*
X107000D02*Y596456D01*
X107300Y595556D01*
X107900Y595256D01*
X108800D01*
X109400Y595556D01*
X110300Y596456D01*
Y599456D02*Y595256D01*
X112100Y599456D02*Y595256D01*
Y598256D02*X113000Y599156D01*
X113600Y599456D01*
X114500D01*
X115100Y599156D01*
X115400Y598256D01*
Y595256D01*
X118100Y601556D02*Y596456D01*
X118400Y595556D01*
X119000Y595256D01*
X119600D01*
X117200Y599456D02*X119300D01*
X95000Y592156D02*X121400D01*
X130000Y601556D02*Y595256D01*
Y601556D02*X132700D01*
X133600Y601256D01*
X133900Y600956D01*
X134200Y600356D01*
Y599456D01*
X133900Y598856D01*
X133600Y598556D01*
X132700Y598256D01*
X130000D02*X132700D01*
X136000Y601556D02*Y595256D01*
X141400Y599456D02*Y595256D01*
Y598556D02*X140800Y599156D01*
X140200Y599456D01*
X139300D02*X140200D01*
X139300D02*X138700Y599156D01*
X138100Y598556D01*
X137800Y597656D01*
Y597056D01*
X138100Y596156D01*
X138700Y595556D01*
X139300Y595256D01*
X140200D01*
X140800Y595556D01*
X141400Y596156D01*
X144100Y601556D02*Y596456D01*
X144400Y595556D01*
X145000Y595256D01*
X145600D01*
X143200Y599456D02*X145300D01*
X147400Y597656D02*X151000D01*
Y598256D02*Y597656D01*
Y598256D02*X150700Y598856D01*
X150400Y599156D01*
X149800Y599456D01*
X148900D02*X149800D01*
X148900D02*X148300Y599156D01*
X147700Y598556D01*
X147400Y597656D01*
Y597056D01*
X147700Y596156D01*
X148300Y595556D01*
X148900Y595256D01*
X149800D01*
X150400Y595556D01*
X151000Y596156D01*
X156400Y601556D02*Y595256D01*
Y598556D02*X155800Y599156D01*
X155200Y599456D01*
X154300D02*X155200D01*
X154300D02*X153700Y599156D01*
X153100Y598556D01*
X152800Y597656D01*
Y597056D01*
X153100Y596156D01*
X153700Y595556D01*
X154300Y595256D01*
X155200D01*
X155800Y595556D01*
X156400Y596156D01*
X158200Y600356D02*Y600056D01*
Y600356D02*X158500Y600956D01*
X158800Y601256D01*
X159400Y601556D01*
X160600D01*
X161200Y601256D01*
X161500Y600956D01*
X161800Y600356D01*
Y599756D01*
X161500Y599156D01*
X161200Y598856D01*
X160000Y598256D01*
Y597356D01*
Y595856D02*X159700Y595556D01*
X160000Y595256D01*
X160300Y595556D01*
X160000Y595856D01*
X130000Y592156D02*X163600D01*
X2100Y616556D02*Y610256D01*
X0Y616556D02*X4200D01*
X6000D02*Y610256D01*
Y613256D02*X6900Y614156D01*
X7500Y614456D01*
X8400D01*
X9000Y614156D01*
X9300Y613256D01*
Y610256D01*
X11100Y612656D02*X14700D01*
Y613256D02*Y612656D01*
Y613256D02*X14400Y613856D01*
X14100Y614156D01*
X13500Y614456D01*
X12600D02*X13500D01*
X12600D02*X12000Y614156D01*
X11400Y613556D01*
X11100Y612656D01*
Y612056D01*
X11400Y611156D01*
X12000Y610556D01*
X12600Y610256D01*
X13500D01*
X14100Y610556D01*
X14700Y611156D01*
X16500Y614456D02*Y610256D01*
Y612656D02*X16800Y613556D01*
X17400Y614156D01*
X18000Y614456D01*
X18900D01*
X20700Y612656D02*X24300D01*
Y613256D02*Y612656D01*
Y613256D02*X24000Y613856D01*
X23700Y614156D01*
X23100Y614456D01*
X22200D02*X23100D01*
X22200D02*X21600Y614156D01*
X21000Y613556D01*
X20700Y612656D01*
Y612056D01*
X21000Y611156D01*
X21600Y610556D01*
X22200Y610256D01*
X23100D01*
X23700Y610556D01*
X24300Y611156D01*
X31500Y614456D02*Y610256D01*
Y613556D02*X30900Y614156D01*
X30300Y614456D01*
X29400D02*X30300D01*
X29400D02*X28800Y614156D01*
X28200Y613556D01*
X27900Y612656D01*
Y612056D01*
X28200Y611156D01*
X28800Y610556D01*
X29400Y610256D01*
X30300D01*
X30900Y610556D01*
X31500Y611156D01*
X33300Y614456D02*Y610256D01*
Y612656D02*X33600Y613556D01*
X34200Y614156D01*
X34800Y614456D01*
X35700D01*
X37500Y612656D02*X41100D01*
Y613256D02*Y612656D01*
Y613256D02*X40800Y613856D01*
X40500Y614156D01*
X39900Y614456D01*
X39000D02*X39900D01*
X39000D02*X38400Y614156D01*
X37800Y613556D01*
X37500Y612656D01*
Y612056D01*
X37800Y611156D01*
X38400Y610556D01*
X39000Y610256D01*
X39900D01*
X40500Y610556D01*
X41100Y611156D01*
X48600Y614456D02*X48300Y613556D01*
X47700Y612956D01*
X46800Y612656D01*
X46500D02*X46800D01*
X46500D02*X45600Y612956D01*
X45000Y613556D01*
X44700Y614456D01*
Y614756D02*Y614456D01*
Y614756D02*X45000Y615656D01*
X45600Y616256D01*
X46500Y616556D01*
X46800D01*
X47700Y616256D01*
X48300Y615656D01*
X48600Y614456D01*
Y612956D01*
X48300Y611456D01*
X47700Y610556D01*
X46800Y610256D01*
X46200D02*X46800D01*
X46200D02*X45300Y610556D01*
X45000Y611156D01*
X55800Y616556D02*Y610256D01*
Y613556D02*X55200Y614156D01*
X54600Y614456D01*
X53700D02*X54600D01*
X53700D02*X53100Y614156D01*
X52500Y613556D01*
X52200Y612656D01*
Y612056D01*
X52500Y611156D01*
X53100Y610556D01*
X53700Y610256D01*
X54600D01*
X55200Y610556D01*
X55800Y611156D01*
X57600Y616556D02*X57900Y616256D01*
X58200Y616556D01*
X57900Y616856D01*
X57600Y616556D01*
X57900Y614456D02*Y610256D01*
X61800Y616556D02*X62400D01*
X61800D02*X61200Y616256D01*
X60900Y615356D01*
Y610256D01*
X60000Y614456D02*X62100D01*
X66000Y616556D02*X66600D01*
X66000D02*X65400Y616256D01*
X65100Y615356D01*
Y610256D01*
X64200Y614456D02*X66300D01*
X68400Y612656D02*X72000D01*
Y613256D02*Y612656D01*
Y613256D02*X71700Y613856D01*
X71400Y614156D01*
X70800Y614456D01*
X69900D02*X70800D01*
X69900D02*X69300Y614156D01*
X68700Y613556D01*
X68400Y612656D01*
Y612056D01*
X68700Y611156D01*
X69300Y610556D01*
X69900Y610256D01*
X70800D01*
X71400Y610556D01*
X72000Y611156D01*
X73800Y614456D02*Y610256D01*
Y612656D02*X74100Y613556D01*
X74700Y614156D01*
X75300Y614456D01*
X76200D01*
X78000Y612656D02*X81600D01*
Y613256D02*Y612656D01*
Y613256D02*X81300Y613856D01*
X81000Y614156D01*
X80400Y614456D01*
X79500D02*X80400D01*
X79500D02*X78900Y614156D01*
X78300Y613556D01*
X78000Y612656D01*
Y612056D01*
X78300Y611156D01*
X78900Y610556D01*
X79500Y610256D01*
X80400D01*
X81000Y610556D01*
X81600Y611156D01*
X83400Y614456D02*Y610256D01*
Y613256D02*X84300Y614156D01*
X84900Y614456D01*
X85800D01*
X86400Y614156D01*
X86700Y613256D01*
Y610256D01*
X89400Y616556D02*Y611456D01*
X89700Y610556D01*
X90300Y610256D01*
X90900D01*
X88500Y614456D02*X90600D01*
X98100Y616556D02*Y610256D01*
Y613556D02*X97500Y614156D01*
X96900Y614456D01*
X96000D02*X96900D01*
X96000D02*X95400Y614156D01*
X94800Y613556D01*
X94500Y612656D01*
Y612056D01*
X94800Y611156D01*
X95400Y610556D01*
X96000Y610256D01*
X96900D01*
X97500Y610556D01*
X98100Y611156D01*
X99900Y614456D02*Y610256D01*
Y612656D02*X100200Y613556D01*
X100800Y614156D01*
X101400Y614456D01*
X102300D01*
X104100Y616556D02*X104400Y616256D01*
X104700Y616556D01*
X104400Y616856D01*
X104100Y616556D01*
X104400Y614456D02*Y610256D01*
X106500Y616556D02*Y610256D01*
X108300Y616556D02*Y610256D01*
X115200Y613556D02*X114900Y614156D01*
X114000Y614456D01*
X113100D02*X114000D01*
X113100D02*X112200Y614156D01*
X111900Y613556D01*
X112200Y612956D01*
X112800Y612656D01*
X114300Y612356D01*
X114900Y612056D01*
X115200Y611456D01*
Y611156D01*
X114900Y610556D01*
X114000Y610256D01*
X113100D02*X114000D01*
X113100D02*X112200Y610556D01*
X111900Y611156D01*
X117000Y616556D02*X117300Y616256D01*
X117600Y616556D01*
X117300Y616856D01*
X117000Y616556D01*
X117300Y614456D02*Y610256D01*
X122700Y614456D02*X119400Y610256D01*
Y614456D02*X122700D01*
X119400Y610256D02*X122700D01*
X124500Y612656D02*X128100D01*
Y613256D02*Y612656D01*
Y613256D02*X127800Y613856D01*
X127500Y614156D01*
X126900Y614456D01*
X126000D02*X126900D01*
X126000D02*X125400Y614156D01*
X124800Y613556D01*
X124500Y612656D01*
Y612056D01*
X124800Y611156D01*
X125400Y610556D01*
X126000Y610256D01*
X126900D01*
X127500Y610556D01*
X128100Y611156D01*
X133200Y613556D02*X132900Y614156D01*
X132000Y614456D01*
X131100D02*X132000D01*
X131100D02*X130200Y614156D01*
X129900Y613556D01*
X130200Y612956D01*
X130800Y612656D01*
X132300Y612356D01*
X132900Y612056D01*
X133200Y611456D01*
Y611156D01*
X132900Y610556D01*
X132000Y610256D01*
X131100D02*X132000D01*
X131100D02*X130200Y610556D01*
X129900Y611156D01*
X136800Y614456D02*Y611456D01*
X137100Y610556D01*
X137700Y610256D01*
X138600D01*
X139200Y610556D01*
X140100Y611456D01*
Y614456D02*Y610256D01*
X145200Y613556D02*X144900Y614156D01*
X144000Y614456D01*
X143100D02*X144000D01*
X143100D02*X142200Y614156D01*
X141900Y613556D01*
X142200Y612956D01*
X142800Y612656D01*
X144300Y612356D01*
X144900Y612056D01*
X145200Y611456D01*
Y611156D01*
X144900Y610556D01*
X144000Y610256D01*
X143100D02*X144000D01*
X143100D02*X142200Y610556D01*
X141900Y611156D01*
X147000Y612656D02*X150600D01*
Y613256D02*Y612656D01*
Y613256D02*X150300Y613856D01*
X150000Y614156D01*
X149400Y614456D01*
X148500D02*X149400D01*
X148500D02*X147900Y614156D01*
X147300Y613556D01*
X147000Y612656D01*
Y612056D01*
X147300Y611156D01*
X147900Y610556D01*
X148500Y610256D01*
X149400D01*
X150000Y610556D01*
X150600Y611156D01*
X156000Y616556D02*Y610256D01*
Y613556D02*X155400Y614156D01*
X154800Y614456D01*
X153900D02*X154800D01*
X153900D02*X153300Y614156D01*
X152700Y613556D01*
X152400Y612656D01*
Y612056D01*
X152700Y611156D01*
X153300Y610556D01*
X153900Y610256D01*
X154800D01*
X155400Y610556D01*
X156000Y611156D01*
X159600Y616556D02*X159900Y616256D01*
X160200Y616556D01*
X159900Y616856D01*
X159600Y616556D01*
X159900Y614456D02*Y610256D01*
X162000Y614456D02*Y610256D01*
Y613256D02*X162900Y614156D01*
X163500Y614456D01*
X164400D01*
X165000Y614156D01*
X165300Y613256D01*
Y610256D01*
X169800Y616556D02*Y611456D01*
X170100Y610556D01*
X170700Y610256D01*
X171300D01*
X168900Y614456D02*X171000D01*
X173100Y616556D02*Y610256D01*
Y613256D02*X174000Y614156D01*
X174600Y614456D01*
X175500D01*
X176100Y614156D01*
X176400Y613256D01*
Y610256D01*
X178200Y616556D02*X178500Y616256D01*
X178800Y616556D01*
X178500Y616856D01*
X178200Y616556D01*
X178500Y614456D02*Y610256D01*
X183900Y613556D02*X183600Y614156D01*
X182700Y614456D01*
X181800D02*X182700D01*
X181800D02*X180900Y614156D01*
X180600Y613556D01*
X180900Y612956D01*
X181500Y612656D01*
X183000Y612356D01*
X183600Y612056D01*
X183900Y611456D01*
Y611156D01*
X183600Y610556D01*
X182700Y610256D01*
X181800D02*X182700D01*
X181800D02*X180900Y610556D01*
X180600Y611156D01*
X187500Y616556D02*Y610256D01*
X192900Y614456D02*Y610256D01*
Y613556D02*X192300Y614156D01*
X191700Y614456D01*
X190800D02*X191700D01*
X190800D02*X190200Y614156D01*
X189600Y613556D01*
X189300Y612656D01*
Y612056D01*
X189600Y611156D01*
X190200Y610556D01*
X190800Y610256D01*
X191700D01*
X192300Y610556D01*
X192900Y611156D01*
X195000Y614456D02*X196800Y610256D01*
X198600Y614456D02*X196800Y610256D01*
X196200Y609056D01*
X195600Y608456D01*
X195000Y608156D01*
X194700D02*X195000D01*
X201900Y614456D02*X201300Y614156D01*
X200700Y613556D01*
X200400Y612656D01*
Y612056D01*
X200700Y611156D01*
X201300Y610556D01*
X201900Y610256D01*
X202800D01*
X203400Y610556D01*
X204000Y611156D01*
X204300Y612056D01*
Y612656D02*Y612056D01*
Y612656D02*X204000Y613556D01*
X203400Y614156D01*
X202800Y614456D01*
X201900D02*X202800D01*
X206100D02*Y611456D01*
X206400Y610556D01*
X207000Y610256D01*
X207900D01*
X208500Y610556D01*
X209400Y611456D01*
Y614456D02*Y610256D01*
X212100Y616556D02*Y611456D01*
X212400Y610556D01*
X213000Y610256D01*
X213600D01*
X211200Y614456D02*X213300D01*
X216000Y610556D02*X215700Y610256D01*
X215400Y610556D01*
X215700Y610856D01*
X216000Y610556D01*
Y609956D01*
X215700Y609356D01*
X215400Y609056D01*
X219600Y615356D02*X220200Y615656D01*
X221100Y616556D01*
Y610256D01*
X224700Y616556D02*X223800Y616256D01*
X223200Y615356D01*
X222900Y613856D01*
Y612956D01*
X223200Y611456D01*
X223800Y610556D01*
X224700Y610256D01*
X225300D01*
X226200Y610556D01*
X226800Y611456D01*
X227100Y612956D01*
Y613856D02*Y612956D01*
Y613856D02*X226800Y615356D01*
X226200Y616256D01*
X225300Y616556D01*
X224700D02*X225300D01*
X228900Y615356D02*X229500Y615656D01*
X230400Y616556D01*
Y610256D01*
X234000Y616556D02*Y610256D01*
Y613256D02*X234900Y614156D01*
X235500Y614456D01*
X236400D01*
X237000Y614156D01*
X237300Y613256D01*
Y610256D01*
X240600Y614456D02*X240000Y614156D01*
X239400Y613556D01*
X239100Y612656D01*
Y612056D01*
X239400Y611156D01*
X240000Y610556D01*
X240600Y610256D01*
X241500D01*
X242100Y610556D01*
X242700Y611156D01*
X243000Y612056D01*
Y612656D02*Y612056D01*
Y612656D02*X242700Y613556D01*
X242100Y614156D01*
X241500Y614456D01*
X240600D02*X241500D01*
X244800Y616556D02*Y610256D01*
X246600Y612656D02*X250200D01*
Y613256D02*Y612656D01*
Y613256D02*X249900Y613856D01*
X249600Y614156D01*
X249000Y614456D01*
X248100D02*X249000D01*
X248100D02*X247500Y614156D01*
X246900Y613556D01*
X246600Y612656D01*
Y612056D01*
X246900Y611156D01*
X247500Y610556D01*
X248100Y610256D01*
X249000D01*
X249600Y610556D01*
X250200Y611156D01*
X255300Y613556D02*X255000Y614156D01*
X254100Y614456D01*
X253200D02*X254100D01*
X253200D02*X252300Y614156D01*
X252000Y613556D01*
X252300Y612956D01*
X252900Y612656D01*
X254400Y612356D01*
X255000Y612056D01*
X255300Y611456D01*
Y611156D01*
X255000Y610556D01*
X254100Y610256D01*
X253200D02*X254100D01*
X253200D02*X252300Y610556D01*
X252000Y611156D01*
X259800Y616556D02*Y611456D01*
X260100Y610556D01*
X260700Y610256D01*
X261300D01*
X258900Y614456D02*X261000D01*
X264600D02*X264000Y614156D01*
X263400Y613556D01*
X263100Y612656D01*
Y612056D01*
X263400Y611156D01*
X264000Y610556D01*
X264600Y610256D01*
X265500D01*
X266100Y610556D01*
X266700Y611156D01*
X267000Y612056D01*
Y612656D02*Y612056D01*
Y612656D02*X266700Y613556D01*
X266100Y614156D01*
X265500Y614456D01*
X264600D02*X265500D01*
X269700Y616556D02*Y611456D01*
X270000Y610556D01*
X270600Y610256D01*
X271200D01*
X268800Y614456D02*X270900D01*
X276600D02*Y610256D01*
Y613556D02*X276000Y614156D01*
X275400Y614456D01*
X274500D02*X275400D01*
X274500D02*X273900Y614156D01*
X273300Y613556D01*
X273000Y612656D01*
Y612056D01*
X273300Y611156D01*
X273900Y610556D01*
X274500Y610256D01*
X275400D01*
X276000Y610556D01*
X276600Y611156D01*
X278400Y616556D02*Y610256D01*
G54D159*X39371Y413386D02*X204725D01*
X39371Y39370D02*Y413386D01*
X204725Y39370D02*X39371D01*
X204725Y413386D02*Y39371D01*
G54D158*X30847Y-3200D02*Y-9500D01*
Y-3200D02*X33547D01*
X34447Y-3500D01*
X34747Y-3800D01*
X35047Y-4400D01*
Y-5000D01*
X34747Y-5600D01*
X34447Y-5900D01*
X33547Y-6200D01*
X30847D02*X33547D01*
X34447Y-6500D01*
X34747Y-6800D01*
X35047Y-7400D01*
Y-8300D01*
X34747Y-8900D01*
X34447Y-9200D01*
X33547Y-9500D01*
X30847D02*X33547D01*
X38347Y-5300D02*X37747Y-5600D01*
X37147Y-6200D01*
X36847Y-7100D01*
Y-7700D01*
X37147Y-8600D01*
X37747Y-9200D01*
X38347Y-9500D01*
X39247D01*
X39847Y-9200D01*
X40447Y-8600D01*
X40747Y-7700D01*
Y-7100D02*Y-7700D01*
Y-7100D02*X40447Y-6200D01*
X39847Y-5600D01*
X39247Y-5300D01*
X38347D02*X39247D01*
X46147D02*Y-9500D01*
Y-6200D02*X45547Y-5600D01*
X44947Y-5300D01*
X44047D02*X44947D01*
X44047D02*X43447Y-5600D01*
X42847Y-6200D01*
X42547Y-7100D01*
Y-7700D01*
X42847Y-8600D01*
X43447Y-9200D01*
X44047Y-9500D01*
X44947D01*
X45547Y-9200D01*
X46147Y-8600D01*
X47947Y-5300D02*Y-9500D01*
Y-7100D02*X48247Y-6200D01*
X48847Y-5600D01*
X49447Y-5300D01*
X50347D01*
X55747Y-3200D02*Y-9500D01*
Y-6200D02*X55147Y-5600D01*
X54547Y-5300D01*
X53647D02*X54547D01*
X53647D02*X53047Y-5600D01*
X52447Y-6200D01*
X52147Y-7100D01*
Y-7700D01*
X52447Y-8600D01*
X53047Y-9200D01*
X53647Y-9500D01*
X54547D01*
X55147Y-9200D01*
X55747Y-8600D01*
X60847Y-5300D02*X60247Y-5600D01*
X59647Y-6200D01*
X59347Y-7100D01*
Y-7700D01*
X59647Y-8600D01*
X60247Y-9200D01*
X60847Y-9500D01*
X61747D01*
X62347Y-9200D01*
X62947Y-8600D01*
X63247Y-7700D01*
Y-7100D02*Y-7700D01*
Y-7100D02*X62947Y-6200D01*
X62347Y-5600D01*
X61747Y-5300D01*
X60847D02*X61747D01*
X65047D02*Y-8300D01*
X65347Y-9200D01*
X65947Y-9500D01*
X66847D01*
X67447Y-9200D01*
X68347Y-8300D01*
Y-5300D02*Y-9500D01*
X71047Y-3200D02*Y-8300D01*
X71347Y-9200D01*
X71947Y-9500D01*
X72547D01*
X70147Y-5300D02*X72247D01*
X74347Y-3200D02*Y-9500D01*
X76147Y-3200D02*X76447Y-3500D01*
X76747Y-3200D01*
X76447Y-2900D01*
X76147Y-3200D01*
X76447Y-5300D02*Y-9500D01*
X78547Y-5300D02*Y-9500D01*
Y-6500D02*X79447Y-5600D01*
X80047Y-5300D01*
X80947D01*
X81547Y-5600D01*
X81847Y-6500D01*
Y-9500D01*
X83647Y-7100D02*X87247D01*
Y-6500D02*Y-7100D01*
Y-6500D02*X86947Y-5900D01*
X86647Y-5600D01*
X86047Y-5300D01*
X85147D02*X86047D01*
X85147D02*X84547Y-5600D01*
X83947Y-6200D01*
X83647Y-7100D01*
Y-7700D01*
X83947Y-8600D01*
X84547Y-9200D01*
X85147Y-9500D01*
X86047D01*
X86647Y-9200D01*
X87247Y-8600D01*
X90847Y-3200D02*X91147Y-3500D01*
X91447Y-3200D01*
X91147Y-2900D01*
X90847Y-3200D01*
X91147Y-5300D02*Y-9500D01*
X96547Y-6200D02*X96247Y-5600D01*
X95347Y-5300D01*
X94447D02*X95347D01*
X94447D02*X93547Y-5600D01*
X93247Y-6200D01*
X93547Y-6800D01*
X94147Y-7100D01*
X95647Y-7400D01*
X96247Y-7700D01*
X96547Y-8300D01*
Y-8600D01*
X96247Y-9200D01*
X95347Y-9500D01*
X94447D02*X95347D01*
X94447D02*X93547Y-9200D01*
X93247Y-8600D01*
X101047Y-3200D02*Y-8300D01*
X101347Y-9200D01*
X101947Y-9500D01*
X102547D01*
X100147Y-5300D02*X102247D01*
X104347Y-3200D02*Y-9500D01*
Y-6500D02*X105247Y-5600D01*
X105847Y-5300D01*
X106747D01*
X107347Y-5600D01*
X107647Y-6500D01*
Y-9500D01*
X109447Y-7100D02*X113047D01*
Y-6500D02*Y-7100D01*
Y-6500D02*X112747Y-5900D01*
X112447Y-5600D01*
X111847Y-5300D01*
X110947D02*X111847D01*
X110947D02*X110347Y-5600D01*
X109747Y-6200D01*
X109447Y-7100D01*
Y-7700D01*
X109747Y-8600D01*
X110347Y-9200D01*
X110947Y-9500D01*
X111847D01*
X112447Y-9200D01*
X113047Y-8600D01*
X120247Y-6200D02*X119647Y-5600D01*
X119047Y-5300D01*
X118147D02*X119047D01*
X118147D02*X117547Y-5600D01*
X116947Y-6200D01*
X116647Y-7100D01*
Y-7700D01*
X116947Y-8600D01*
X117547Y-9200D01*
X118147Y-9500D01*
X119047D01*
X119647Y-9200D01*
X120247Y-8600D01*
X122047Y-7100D02*X125647D01*
Y-6500D02*Y-7100D01*
Y-6500D02*X125347Y-5900D01*
X125047Y-5600D01*
X124447Y-5300D01*
X123547D02*X124447D01*
X123547D02*X122947Y-5600D01*
X122347Y-6200D01*
X122047Y-7100D01*
Y-7700D01*
X122347Y-8600D01*
X122947Y-9200D01*
X123547Y-9500D01*
X124447D01*
X125047Y-9200D01*
X125647Y-8600D01*
X127447Y-5300D02*Y-9500D01*
Y-6500D02*X128347Y-5600D01*
X128947Y-5300D01*
X129847D01*
X130447Y-5600D01*
X130747Y-6500D01*
Y-9500D01*
X133447Y-3200D02*Y-8300D01*
X133747Y-9200D01*
X134347Y-9500D01*
X134947D01*
X132547Y-5300D02*X134647D01*
X136747Y-7100D02*X140347D01*
Y-6500D02*Y-7100D01*
Y-6500D02*X140047Y-5900D01*
X139747Y-5600D01*
X139147Y-5300D01*
X138247D02*X139147D01*
X138247D02*X137647Y-5600D01*
X137047Y-6200D01*
X136747Y-7100D01*
Y-7700D01*
X137047Y-8600D01*
X137647Y-9200D01*
X138247Y-9500D01*
X139147D01*
X139747Y-9200D01*
X140347Y-8600D01*
X142147Y-5300D02*Y-9500D01*
Y-7100D02*X142447Y-6200D01*
X143047Y-5600D01*
X143647Y-5300D01*
X144547D01*
X146347Y-3200D02*Y-9500D01*
X148147Y-3200D02*X148447Y-3500D01*
X148747Y-3200D01*
X148447Y-2900D01*
X148147Y-3200D01*
X148447Y-5300D02*Y-9500D01*
X150547Y-5300D02*Y-9500D01*
Y-6500D02*X151447Y-5600D01*
X152047Y-5300D01*
X152947D01*
X153547Y-5600D01*
X153847Y-6500D01*
Y-9500D01*
X155647Y-7100D02*X159247D01*
Y-6500D02*Y-7100D01*
Y-6500D02*X158947Y-5900D01*
X158647Y-5600D01*
X158047Y-5300D01*
X157147D02*X158047D01*
X157147D02*X156547Y-5600D01*
X155947Y-6200D01*
X155647Y-7100D01*
Y-7700D01*
X155947Y-8600D01*
X156547Y-9200D01*
X157147Y-9500D01*
X158047D01*
X158647Y-9200D01*
X159247Y-8600D01*
X164347Y-5300D02*X163747Y-5600D01*
X163147Y-6200D01*
X162847Y-7100D01*
Y-7700D01*
X163147Y-8600D01*
X163747Y-9200D01*
X164347Y-9500D01*
X165247D01*
X165847Y-9200D01*
X166447Y-8600D01*
X166747Y-7700D01*
Y-7100D02*Y-7700D01*
Y-7100D02*X166447Y-6200D01*
X165847Y-5600D01*
X165247Y-5300D01*
X164347D02*X165247D01*
X170347Y-3200D02*X170947D01*
X170347D02*X169747Y-3500D01*
X169447Y-4400D01*
Y-9500D01*
X168547Y-5300D02*X170647D01*
X175447Y-3200D02*Y-8300D01*
X175747Y-9200D01*
X176347Y-9500D01*
X176947D01*
X174547Y-5300D02*X176647D01*
X178747Y-3200D02*Y-9500D01*
Y-6500D02*X179647Y-5600D01*
X180247Y-5300D01*
X181147D01*
X181747Y-5600D01*
X182047Y-6500D01*
Y-9500D01*
X183847Y-3200D02*X184147Y-3500D01*
X184447Y-3200D01*
X184147Y-2900D01*
X183847Y-3200D01*
X184147Y-5300D02*Y-9500D01*
X189547Y-6200D02*X189247Y-5600D01*
X188347Y-5300D01*
X187447D02*X188347D01*
X187447D02*X186547Y-5600D01*
X186247Y-6200D01*
X186547Y-6800D01*
X187147Y-7100D01*
X188647Y-7400D01*
X189247Y-7700D01*
X189547Y-8300D01*
Y-8600D01*
X189247Y-9200D01*
X188347Y-9500D01*
X187447D02*X188347D01*
X187447D02*X186547Y-9200D01*
X186247Y-8600D01*
X193147Y-5300D02*Y-11600D01*
Y-6200D02*X193747Y-5600D01*
X194347Y-5300D01*
X195247D01*
X195847Y-5600D01*
X196447Y-6200D01*
X196747Y-7100D01*
Y-7700D01*
X196447Y-8600D01*
X195847Y-9200D01*
X195247Y-9500D01*
X194347D02*X195247D01*
X194347D02*X193747Y-9200D01*
X193147Y-8600D01*
X202147Y-5300D02*Y-9500D01*
Y-6200D02*X201547Y-5600D01*
X200947Y-5300D01*
X200047D02*X200947D01*
X200047D02*X199447Y-5600D01*
X198847Y-6200D01*
X198547Y-7100D01*
Y-7700D01*
X198847Y-8600D01*
X199447Y-9200D01*
X200047Y-9500D01*
X200947D01*
X201547Y-9200D01*
X202147Y-8600D01*
X204847Y-3200D02*Y-8300D01*
X205147Y-9200D01*
X205747Y-9500D01*
X206347D01*
X203947Y-5300D02*X206047D01*
X208147Y-3200D02*Y-9500D01*
Y-6500D02*X209047Y-5600D01*
X209647Y-5300D01*
X210547D01*
X211147Y-5600D01*
X211447Y-6500D01*
Y-9500D01*
X200000Y481556D02*Y475256D01*
Y481556D02*X202100D01*
X203000Y481256D01*
X203600Y480656D01*
X203900Y480056D01*
X204200Y479156D01*
Y477656D01*
X203900Y476756D01*
X203600Y476156D01*
X203000Y475556D01*
X202100Y475256D01*
X200000D02*X202100D01*
X209600Y479456D02*Y475256D01*
Y478556D02*X209000Y479156D01*
X208400Y479456D01*
X207500D02*X208400D01*
X207500D02*X206900Y479156D01*
X206300Y478556D01*
X206000Y477656D01*
Y477056D01*
X206300Y476156D01*
X206900Y475556D01*
X207500Y475256D01*
X208400D01*
X209000Y475556D01*
X209600Y476156D01*
X212300Y481556D02*Y476456D01*
X212600Y475556D01*
X213200Y475256D01*
X213800D01*
X211400Y479456D02*X213500D01*
X215600Y477656D02*X219200D01*
Y478256D02*Y477656D01*
Y478256D02*X218900Y478856D01*
X218600Y479156D01*
X218000Y479456D01*
X217100D02*X218000D01*
X217100D02*X216500Y479156D01*
X215900Y478556D01*
X215600Y477656D01*
Y477056D01*
X215900Y476156D01*
X216500Y475556D01*
X217100Y475256D01*
X218000D01*
X218600Y475556D01*
X219200Y476156D01*
X221300Y479456D02*X221000Y479156D01*
X221300Y478856D01*
X221600Y479156D01*
X221300Y479456D01*
Y475856D02*X221000Y475556D01*
X221300Y475256D01*
X221600Y475556D01*
X221300Y475856D01*
X229400Y480656D02*X228800Y481256D01*
X227900Y481556D01*
X226700D02*X227900D01*
X226700D02*X225800Y481256D01*
X225200Y480656D01*
Y480056D01*
X225500Y479456D01*
X225800Y479156D01*
X226400Y478856D01*
X228200Y478256D01*
X228800Y477956D01*
X229100Y477656D01*
X229400Y477056D01*
Y476156D01*
X228800Y475556D01*
X227900Y475256D01*
X226700D02*X227900D01*
X226700D02*X225800Y475556D01*
X225200Y476156D01*
X234800Y479456D02*Y475256D01*
Y478556D02*X234200Y479156D01*
X233600Y479456D01*
X232700D02*X233600D01*
X232700D02*X232100Y479156D01*
X231500Y478556D01*
X231200Y477656D01*
Y477056D01*
X231500Y476156D01*
X232100Y475556D01*
X232700Y475256D01*
X233600D01*
X234200Y475556D01*
X234800Y476156D01*
X237500Y481556D02*Y476456D01*
X237800Y475556D01*
X238400Y475256D01*
X239000D01*
X236600Y479456D02*X238700D01*
X242600Y481556D02*Y475256D01*
Y481556D02*X246500D01*
X242600Y478556D02*X245000D01*
X248300Y477656D02*X251900D01*
Y478256D02*Y477656D01*
Y478256D02*X251600Y478856D01*
X251300Y479156D01*
X250700Y479456D01*
X249800D02*X250700D01*
X249800D02*X249200Y479156D01*
X248600Y478556D01*
X248300Y477656D01*
Y477056D01*
X248600Y476156D01*
X249200Y475556D01*
X249800Y475256D01*
X250700D01*
X251300Y475556D01*
X251900Y476156D01*
X253700Y481556D02*Y475256D01*
Y478556D02*X254300Y479156D01*
X254900Y479456D01*
X255800D01*
X256400Y479156D01*
X257000Y478556D01*
X257300Y477656D01*
Y477056D01*
X257000Y476156D01*
X256400Y475556D01*
X255800Y475256D01*
X254900D02*X255800D01*
X254900D02*X254300Y475556D01*
X253700Y476156D01*
X260900Y480356D02*X261500Y480656D01*
X262400Y481556D01*
Y475256D01*
X264800Y481556D02*X268100D01*
X266300Y479156D01*
X267200D01*
X267800Y478856D01*
X268100Y478556D01*
X268400Y477656D01*
Y477056D01*
X268100Y476156D01*
X267500Y475556D01*
X266600Y475256D01*
X265700D02*X266600D01*
X265700D02*X264800Y475556D01*
X264500Y475856D01*
X264200Y476456D01*
X272000Y480356D02*X272600Y480656D01*
X273500Y481556D01*
Y475256D01*
X275900Y481556D02*X279200D01*
X277400Y479156D01*
X278300D01*
X278900Y478856D01*
X279200Y478556D01*
X279500Y477656D01*
Y477056D01*
X279200Y476156D01*
X278600Y475556D01*
X277700Y475256D01*
X276800D02*X277700D01*
X276800D02*X275900Y475556D01*
X275600Y475856D01*
X275300Y476456D01*
X281600Y479456D02*X281300Y479156D01*
X281600Y478856D01*
X281900Y479156D01*
X281600Y479456D01*
Y475856D02*X281300Y475556D01*
X281600Y475256D01*
X281900Y475556D01*
X281600Y475856D01*
X284300Y481556D02*X287300D01*
X284300D02*X284000Y478856D01*
X284300Y479156D01*
X285200Y479456D01*
X286100D01*
X287000Y479156D01*
X287600Y478556D01*
X287900Y477656D01*
Y477056D01*
X287600Y476156D01*
X287000Y475556D01*
X286100Y475256D01*
X285200D02*X286100D01*
X285200D02*X284300Y475556D01*
X284000Y475856D01*
X283700Y476456D01*
X289700Y480356D02*X290300Y480656D01*
X291200Y481556D01*
Y475256D01*
X293300Y479456D02*X293000Y479156D01*
X293300Y478856D01*
X293600Y479156D01*
X293300Y479456D01*
Y475856D02*X293000Y475556D01*
X293300Y475256D01*
X293600Y475556D01*
X293300Y475856D01*
X295700Y480356D02*Y480056D01*
Y480356D02*X296000Y480956D01*
X296300Y481256D01*
X296900Y481556D01*
X298100D01*
X298700Y481256D01*
X299000Y480956D01*
X299300Y480356D01*
Y479756D01*
X299000Y479156D01*
X298400Y478256D01*
X295400Y475256D01*
X299600D01*
X302000Y481556D02*X305300D01*
X303500Y479156D01*
X304400D01*
X305000Y478856D01*
X305300Y478556D01*
X305600Y477656D01*
Y477056D01*
X305300Y476156D01*
X304700Y475556D01*
X303800Y475256D01*
X302900D02*X303800D01*
X302900D02*X302000Y475556D01*
X301700Y475856D01*
X301400Y476456D01*
X309500Y480356D02*Y480056D01*
Y480356D02*X309800Y480956D01*
X310100Y481256D01*
X310700Y481556D01*
X311900D01*
X312500Y481256D01*
X312800Y480956D01*
X313100Y480356D01*
Y479756D01*
X312800Y479156D01*
X312200Y478256D01*
X309200Y475256D01*
X313400D01*
X317000Y481556D02*X316100Y481256D01*
X315500Y480356D01*
X315200Y478856D01*
Y477956D01*
X315500Y476456D01*
X316100Y475556D01*
X317000Y475256D01*
X317600D01*
X318500Y475556D01*
X319100Y476456D01*
X319400Y477956D01*
Y478856D02*Y477956D01*
Y478856D02*X319100Y480356D01*
X318500Y481256D01*
X317600Y481556D01*
X317000D02*X317600D01*
X321500Y480356D02*Y480056D01*
Y480356D02*X321800Y480956D01*
X322100Y481256D01*
X322700Y481556D01*
X323900D01*
X324500Y481256D01*
X324800Y480956D01*
X325100Y480356D01*
Y479756D01*
X324800Y479156D01*
X324200Y478256D01*
X321200Y475256D01*
X325400D01*
X327200Y480356D02*X327800Y480656D01*
X328700Y481556D01*
Y475256D01*
X332300Y481556D02*Y477056D01*
X332600Y476156D01*
X333200Y475556D01*
X334100Y475256D01*
X334700D01*
X335600Y475556D01*
X336200Y476156D01*
X336500Y477056D01*
Y481556D02*Y477056D01*
X340400Y481556D02*Y475256D01*
X338300Y481556D02*X342500D01*
X348800Y480056D02*X348500Y480656D01*
X347900Y481256D01*
X347300Y481556D01*
X346100D02*X347300D01*
X346100D02*X345500Y481256D01*
X344900Y480656D01*
X344600Y480056D01*
X344300Y479156D01*
Y477656D01*
X344600Y476756D01*
X344900Y476156D01*
X345500Y475556D01*
X346100Y475256D01*
X347300D01*
X347900Y475556D01*
X348500Y476156D01*
X348800Y476756D01*
X202400Y496556D02*X200000Y490256D01*
X202400Y496556D02*X204800Y490256D01*
X200900Y492356D02*X203900D01*
X206600Y494456D02*Y491456D01*
X206900Y490556D01*
X207500Y490256D01*
X208400D01*
X209000Y490556D01*
X209900Y491456D01*
Y494456D02*Y490256D01*
X212600Y496556D02*Y491456D01*
X212900Y490556D01*
X213500Y490256D01*
X214100D01*
X211700Y494456D02*X213800D01*
X215900Y496556D02*Y490256D01*
Y493256D02*X216800Y494156D01*
X217400Y494456D01*
X218300D01*
X218900Y494156D01*
X219200Y493256D01*
Y490256D01*
X222500Y494456D02*X221900Y494156D01*
X221300Y493556D01*
X221000Y492656D01*
Y492056D01*
X221300Y491156D01*
X221900Y490556D01*
X222500Y490256D01*
X223400D01*
X224000Y490556D01*
X224600Y491156D01*
X224900Y492056D01*
Y492656D02*Y492056D01*
Y492656D02*X224600Y493556D01*
X224000Y494156D01*
X223400Y494456D01*
X222500D02*X223400D01*
X226700D02*Y490256D01*
Y492656D02*X227000Y493556D01*
X227600Y494156D01*
X228200Y494456D01*
X229100D01*
X231200D02*X230900Y494156D01*
X231200Y493856D01*
X231500Y494156D01*
X231200Y494456D01*
Y490856D02*X230900Y490556D01*
X231200Y490256D01*
X231500Y490556D01*
X231200Y490856D01*
X235100Y496556D02*Y490256D01*
Y496556D02*X237800D01*
X238700Y496256D01*
X239000Y495956D01*
X239300Y495356D01*
Y494756D01*
X239000Y494156D01*
X238700Y493856D01*
X237800Y493556D01*
X235100D02*X237800D01*
X238700Y493256D01*
X239000Y492956D01*
X239300Y492356D01*
Y491456D01*
X239000Y490856D01*
X238700Y490556D01*
X237800Y490256D01*
X235100D02*X237800D01*
X241100Y492656D02*X244700D01*
Y493256D02*Y492656D01*
Y493256D02*X244400Y493856D01*
X244100Y494156D01*
X243500Y494456D01*
X242600D02*X243500D01*
X242600D02*X242000Y494156D01*
X241400Y493556D01*
X241100Y492656D01*
Y492056D01*
X241400Y491156D01*
X242000Y490556D01*
X242600Y490256D01*
X243500D01*
X244100Y490556D01*
X244700Y491156D01*
X246500Y494456D02*Y490256D01*
Y492656D02*X246800Y493556D01*
X247400Y494156D01*
X248000Y494456D01*
X248900D01*
X251600Y496556D02*Y491456D01*
X251900Y490556D01*
X252500Y490256D01*
X253100D01*
X250700Y494456D02*X252800D01*
X258800Y496556D02*Y490256D01*
X256700Y496556D02*X260900D01*
X262700D02*X263000Y496256D01*
X263300Y496556D01*
X263000Y496856D01*
X262700Y496556D01*
X263000Y494456D02*Y490256D01*
X265100Y494456D02*Y490256D01*
Y493256D02*X266000Y494156D01*
X266600Y494456D01*
X267500D01*
X268100Y494156D01*
X268400Y493256D01*
Y490256D01*
Y493256D02*X269300Y494156D01*
X269900Y494456D01*
X270800D01*
X271400Y494156D01*
X271700Y493256D01*
Y490256D01*
X273500Y494456D02*Y490256D01*
Y493256D02*X274400Y494156D01*
X275000Y494456D01*
X275900D01*
X276500Y494156D01*
X276800Y493256D01*
Y490256D01*
Y493256D02*X277700Y494156D01*
X278300Y494456D01*
X279200D01*
X279800Y494156D01*
X280100Y493256D01*
Y490256D01*
X281900Y492656D02*X285500D01*
Y493256D02*Y492656D01*
Y493256D02*X285200Y493856D01*
X284900Y494156D01*
X284300Y494456D01*
X283400D02*X284300D01*
X283400D02*X282800Y494156D01*
X282200Y493556D01*
X281900Y492656D01*
Y492056D01*
X282200Y491156D01*
X282800Y490556D01*
X283400Y490256D01*
X284300D01*
X284900Y490556D01*
X285500Y491156D01*
X287300Y494456D02*Y490256D01*
Y492656D02*X287600Y493556D01*
X288200Y494156D01*
X288800Y494456D01*
X289700D01*
X291500D02*Y490256D01*
Y493256D02*X292400Y494156D01*
X293000Y494456D01*
X293900D01*
X294500Y494156D01*
X294800Y493256D01*
Y490256D01*
Y493256D02*X295700Y494156D01*
X296300Y494456D01*
X297200D01*
X297800Y494156D01*
X298100Y493256D01*
Y490256D01*
X303500Y494456D02*Y490256D01*
Y493556D02*X302900Y494156D01*
X302300Y494456D01*
X301400D02*X302300D01*
X301400D02*X300800Y494156D01*
X300200Y493556D01*
X299900Y492656D01*
Y492056D01*
X300200Y491156D01*
X300800Y490556D01*
X301400Y490256D01*
X302300D01*
X302900Y490556D01*
X303500Y491156D01*
X305300Y494456D02*Y490256D01*
Y493256D02*X306200Y494156D01*
X306800Y494456D01*
X307700D01*
X308300Y494156D01*
X308600Y493256D01*
Y490256D01*
X202100Y511556D02*Y505256D01*
X200000Y511556D02*X204200D01*
X206000D02*X206300Y511256D01*
X206600Y511556D01*
X206300Y511856D01*
X206000Y511556D01*
X206300Y509456D02*Y505256D01*
X209300Y511556D02*Y506456D01*
X209600Y505556D01*
X210200Y505256D01*
X210800D01*
X208400Y509456D02*X210500D01*
X212600Y511556D02*Y505256D01*
X214400Y507656D02*X218000D01*
Y508256D02*Y507656D01*
Y508256D02*X217700Y508856D01*
X217400Y509156D01*
X216800Y509456D01*
X215900D02*X216800D01*
X215900D02*X215300Y509156D01*
X214700Y508556D01*
X214400Y507656D01*
Y507056D01*
X214700Y506156D01*
X215300Y505556D01*
X215900Y505256D01*
X216800D01*
X217400Y505556D01*
X218000Y506156D01*
X220100Y509456D02*X219800Y509156D01*
X220100Y508856D01*
X220400Y509156D01*
X220100Y509456D01*
Y505856D02*X219800Y505556D01*
X220100Y505256D01*
X220400Y505556D01*
X220100Y505856D01*
X224300Y510356D02*Y510056D01*
Y510356D02*X224600Y510956D01*
X224900Y511256D01*
X225500Y511556D01*
X226700D01*
X227300Y511256D01*
X227600Y510956D01*
X227900Y510356D01*
Y509756D01*
X227600Y509156D01*
X227000Y508256D01*
X224000Y505256D01*
X228200D01*
X233600Y510656D02*X233300Y511256D01*
X232400Y511556D01*
X231800D02*X232400D01*
X231800D02*X230900Y511256D01*
X230300Y510356D01*
X230000Y508856D01*
Y507356D01*
X230300Y506156D01*
X230900Y505556D01*
X231800Y505256D01*
X232100D01*
X233000Y505556D01*
X233600Y506156D01*
X233900Y507056D01*
Y507356D02*Y507056D01*
Y507356D02*X233600Y508256D01*
X233000Y508856D01*
X232100Y509156D01*
X231800D02*X232100D01*
X231800D02*X230900Y508856D01*
X230300Y508256D01*
X230000Y507356D01*
X236000Y505856D02*X235700Y505556D01*
X236000Y505256D01*
X236300Y505556D01*
X236000Y505856D01*
X239900Y511556D02*X239000Y511256D01*
X238400Y510356D01*
X238100Y508856D01*
Y507956D01*
X238400Y506456D01*
X239000Y505556D01*
X239900Y505256D01*
X240500D01*
X241400Y505556D01*
X242000Y506456D01*
X242300Y507956D01*
Y508856D02*Y507956D01*
Y508856D02*X242000Y510356D01*
X241400Y511256D01*
X240500Y511556D01*
X239900D02*X240500D01*
X245900D02*X245000Y511256D01*
X244400Y510356D01*
X244100Y508856D01*
Y507956D01*
X244400Y506456D01*
X245000Y505556D01*
X245900Y505256D01*
X246500D01*
X247400Y505556D01*
X248000Y506456D01*
X248300Y507956D01*
Y508856D02*Y507956D01*
Y508856D02*X248000Y510356D01*
X247400Y511256D01*
X246500Y511556D01*
X245900D02*X246500D01*
X250400Y510356D02*Y510056D01*
Y510356D02*X250700Y510956D01*
X251000Y511256D01*
X251600Y511556D01*
X252800D01*
X253400Y511256D01*
X253700Y510956D01*
X254000Y510356D01*
Y509756D01*
X253700Y509156D01*
X253100Y508256D01*
X250100Y505256D01*
X254300D01*
X256400Y505856D02*X256100Y505556D01*
X256400Y505256D01*
X256700Y505556D01*
X256400Y505856D01*
X260300Y511556D02*X259400Y511256D01*
X258800Y510356D01*
X258500Y508856D01*
Y507956D01*
X258800Y506456D01*
X259400Y505556D01*
X260300Y505256D01*
X260900D01*
X261800Y505556D01*
X262400Y506456D01*
X262700Y507956D01*
Y508856D02*Y507956D01*
Y508856D02*X262400Y510356D01*
X261800Y511256D01*
X260900Y511556D01*
X260300D02*X260900D01*
X266300D02*X265400Y511256D01*
X264800Y510356D01*
X264500Y508856D01*
Y507956D01*
X264800Y506456D01*
X265400Y505556D01*
X266300Y505256D01*
X266900D01*
X267800Y505556D01*
X268400Y506456D01*
X268700Y507956D01*
Y508856D02*Y507956D01*
Y508856D02*X268400Y510356D01*
X267800Y511256D01*
X266900Y511556D01*
X266300D02*X266900D01*
X270800Y505856D02*X270500Y505556D01*
X270800Y505256D01*
X271100Y505556D01*
X270800Y505856D01*
X274700Y511556D02*X273800Y511256D01*
X273200Y510356D01*
X272900Y508856D01*
Y507956D01*
X273200Y506456D01*
X273800Y505556D01*
X274700Y505256D01*
X275300D01*
X276200Y505556D01*
X276800Y506456D01*
X277100Y507956D01*
Y508856D02*Y507956D01*
Y508856D02*X276800Y510356D01*
X276200Y511256D01*
X275300Y511556D01*
X274700D02*X275300D01*
X278900Y510356D02*X279500Y510656D01*
X280400Y511556D01*
Y505256D01*
X282500Y505856D02*X282200Y505556D01*
X282500Y505256D01*
X282800Y505556D01*
X282500Y505856D01*
X286400Y511556D02*X285500Y511256D01*
X284900Y510356D01*
X284600Y508856D01*
Y507956D01*
X284900Y506456D01*
X285500Y505556D01*
X286400Y505256D01*
X287000D01*
X287900Y505556D01*
X288500Y506456D01*
X288800Y507956D01*
Y508856D02*Y507956D01*
Y508856D02*X288500Y510356D01*
X287900Y511256D01*
X287000Y511556D01*
X286400D02*X287000D01*
X290600Y510356D02*X291200Y510656D01*
X292100Y511556D01*
Y505256D01*
X294200Y505856D02*X293900Y505556D01*
X294200Y505256D01*
X294500Y505556D01*
X294200Y505856D01*
X296300Y509456D02*Y503156D01*
Y508556D02*X296900Y509156D01*
X297500Y509456D01*
X298400D01*
X299000Y509156D01*
X299600Y508556D01*
X299900Y507656D01*
Y507056D01*
X299600Y506156D01*
X299000Y505556D01*
X298400Y505256D01*
X297500D02*X298400D01*
X297500D02*X296900Y505556D01*
X296300Y506156D01*
X305300Y508556D02*X304700Y509156D01*
X304100Y509456D01*
X303200D02*X304100D01*
X303200D02*X302600Y509156D01*
X302000Y508556D01*
X301700Y507656D01*
Y507056D01*
X302000Y506156D01*
X302600Y505556D01*
X303200Y505256D01*
X304100D01*
X304700Y505556D01*
X305300Y506156D01*
X307100Y511556D02*Y505256D01*
Y508556D02*X307700Y509156D01*
X308300Y509456D01*
X309200D01*
X309800Y509156D01*
X310400Y508556D01*
X310700Y507656D01*
Y507056D01*
X310400Y506156D01*
X309800Y505556D01*
X309200Y505256D01*
X308300D02*X309200D01*
X308300D02*X307700Y505556D01*
X307100Y506156D01*
X314300Y507956D02*X319700D01*
X323300Y511556D02*Y505256D01*
Y511556D02*X327200D01*
X323300Y508556D02*X325700D01*
X332600Y509456D02*Y505256D01*
Y508556D02*X332000Y509156D01*
X331400Y509456D01*
X330500D02*X331400D01*
X330500D02*X329900Y509156D01*
X329300Y508556D01*
X329000Y507656D01*
Y507056D01*
X329300Y506156D01*
X329900Y505556D01*
X330500Y505256D01*
X331400D01*
X332000Y505556D01*
X332600Y506156D01*
X334400Y511556D02*Y505256D01*
Y508556D02*X335000Y509156D01*
X335600Y509456D01*
X336500D01*
X337100Y509156D01*
X337700Y508556D01*
X338000Y507656D01*
Y507056D01*
X337700Y506156D01*
X337100Y505556D01*
X336500Y505256D01*
X335600D02*X336500D01*
X335600D02*X335000Y505556D01*
X334400Y506156D01*
X339800Y509456D02*Y505256D01*
Y507656D02*X340100Y508556D01*
X340700Y509156D01*
X341300Y509456D01*
X342200D01*
X344000Y511556D02*X344300Y511256D01*
X344600Y511556D01*
X344300Y511856D01*
X344000Y511556D01*
X344300Y509456D02*Y505256D01*
X350000Y508556D02*X349400Y509156D01*
X348800Y509456D01*
X347900D02*X348800D01*
X347900D02*X347300Y509156D01*
X346700Y508556D01*
X346400Y507656D01*
Y507056D01*
X346700Y506156D01*
X347300Y505556D01*
X347900Y505256D01*
X348800D01*
X349400Y505556D01*
X350000Y506156D01*
X355400Y509456D02*Y505256D01*
Y508556D02*X354800Y509156D01*
X354200Y509456D01*
X353300D02*X354200D01*
X353300D02*X352700Y509156D01*
X352100Y508556D01*
X351800Y507656D01*
Y507056D01*
X352100Y506156D01*
X352700Y505556D01*
X353300Y505256D01*
X354200D01*
X354800Y505556D01*
X355400Y506156D01*
X358100Y511556D02*Y506456D01*
X358400Y505556D01*
X359000Y505256D01*
X359600D01*
X357200Y509456D02*X359300D01*
X361400Y511556D02*X361700Y511256D01*
X362000Y511556D01*
X361700Y511856D01*
X361400Y511556D01*
X361700Y509456D02*Y505256D01*
X365300Y509456D02*X364700Y509156D01*
X364100Y508556D01*
X363800Y507656D01*
Y507056D01*
X364100Y506156D01*
X364700Y505556D01*
X365300Y505256D01*
X366200D01*
X366800Y505556D01*
X367400Y506156D01*
X367700Y507056D01*
Y507656D02*Y507056D01*
Y507656D02*X367400Y508556D01*
X366800Y509156D01*
X366200Y509456D01*
X365300D02*X366200D01*
X369500D02*Y505256D01*
Y508256D02*X370400Y509156D01*
X371000Y509456D01*
X371900D01*
X372500Y509156D01*
X372800Y508256D01*
Y505256D01*
X376400Y511556D02*Y505256D01*
Y511556D02*X378500D01*
X379400Y511256D01*
X380000Y510656D01*
X380300Y510056D01*
X380600Y509156D01*
Y507656D01*
X380300Y506756D01*
X380000Y506156D01*
X379400Y505556D01*
X378500Y505256D01*
X376400D02*X378500D01*
X382400Y509456D02*Y505256D01*
Y507656D02*X382700Y508556D01*
X383300Y509156D01*
X383900Y509456D01*
X384800D01*
X390200D02*Y505256D01*
Y508556D02*X389600Y509156D01*
X389000Y509456D01*
X388100D02*X389000D01*
X388100D02*X387500Y509156D01*
X386900Y508556D01*
X386600Y507656D01*
Y507056D01*
X386900Y506156D01*
X387500Y505556D01*
X388100Y505256D01*
X389000D01*
X389600Y505556D01*
X390200Y506156D01*
X392000Y509456D02*X393200Y505256D01*
X394400Y509456D02*X393200Y505256D01*
X394400Y509456D02*X395600Y505256D01*
X396800Y509456D02*X395600Y505256D01*
X398600Y511556D02*X398900Y511256D01*
X399200Y511556D01*
X398900Y511856D01*
X398600Y511556D01*
X398900Y509456D02*Y505256D01*
X401000Y509456D02*Y505256D01*
Y508256D02*X401900Y509156D01*
X402500Y509456D01*
X403400D01*
X404000Y509156D01*
X404300Y508256D01*
Y505256D01*
X409700Y509456D02*Y504656D01*
X409400Y503756D01*
X409100Y503456D01*
X408500Y503156D01*
X407600D02*X408500D01*
X407600D02*X407000Y503456D01*
X409700Y508556D02*X409100Y509156D01*
X408500Y509456D01*
X407600D02*X408500D01*
X407600D02*X407000Y509156D01*
X406400Y508556D01*
X406100Y507656D01*
Y507056D01*
X406400Y506156D01*
X407000Y505556D01*
X407600Y505256D01*
X408500D01*
X409100Y505556D01*
X409700Y506156D01*
M02*
