G04 start of page 7 for group -4062 idx -4062 *
G04 Title: 26.006.02.01.01, soldermask *
G04 Creator: pcb 4.1.2 *
G04 CreationDate: Sun Jul 29 08:17:17 2018 UTC *
G04 For: bert *
G04 Format: Gerber/RS-274X *
G04 PCB-Dimensions (mil): 2600.00 1150.00 *
G04 PCB-Coordinate-Origin: lower left *
%MOIN*%
%FSLAX25Y25*%
%LNGBS*%
%ADD37C,0.0850*%
%ADD36C,0.0660*%
%ADD35C,0.0001*%
G54D35*G36*
X1700Y8300D02*Y1700D01*
X8300D01*
Y8300D01*
X1700D01*
G37*
G54D36*X15000Y5000D03*
X25000D03*
X35000D03*
X45000D03*
X55000D03*
G54D37*X232500Y107500D03*
G54D36*X65000Y5000D03*
X75000D03*
G54D37*X135000Y17500D03*
X102500Y107500D03*
G54D35*G36*
X108657Y36264D02*Y30546D01*
X116343D01*
Y36264D01*
X108657D01*
G37*
G36*
X68657Y24454D02*Y18736D01*
X76343D01*
Y24454D01*
X68657D01*
G37*
G36*
X108657D02*Y18736D01*
X116343D01*
Y24454D01*
X108657D01*
G37*
G36*
X161157Y36264D02*Y30546D01*
X168843D01*
Y36264D01*
X161157D01*
G37*
G36*
Y24454D02*Y18736D01*
X168843D01*
Y24454D01*
X161157D01*
G37*
G36*
X31157Y36264D02*Y30546D01*
X38843D01*
Y36264D01*
X31157D01*
G37*
G36*
X68657D02*Y30546D01*
X76343D01*
Y36264D01*
X68657D01*
G37*
G36*
X31157Y24454D02*Y18736D01*
X38843D01*
Y24454D01*
X31157D01*
G37*
G36*
X98657Y101264D02*Y95546D01*
X106343D01*
Y101264D01*
X98657D01*
G37*
G36*
Y89454D02*Y83736D01*
X106343D01*
Y89454D01*
X98657D01*
G37*
G36*
X58657Y101264D02*Y95546D01*
X66343D01*
Y101264D01*
X58657D01*
G37*
G36*
Y89454D02*Y83736D01*
X66343D01*
Y89454D01*
X58657D01*
G37*
G36*
X21157Y101264D02*Y95546D01*
X28843D01*
Y101264D01*
X21157D01*
G37*
G36*
Y89454D02*Y83736D01*
X28843D01*
Y89454D01*
X21157D01*
G37*
G36*
X188657Y101264D02*Y95546D01*
X196343D01*
Y101264D01*
X188657D01*
G37*
G36*
X151157D02*Y95546D01*
X158843D01*
Y101264D01*
X151157D01*
G37*
G36*
Y89454D02*Y83736D01*
X158843D01*
Y89454D01*
X151157D01*
G37*
G36*
X188657D02*Y83736D01*
X196343D01*
Y89454D01*
X188657D01*
G37*
G36*
X228657Y101264D02*Y95546D01*
X236343D01*
Y101264D01*
X228657D01*
G37*
G36*
Y89454D02*Y83736D01*
X236343D01*
Y89454D01*
X228657D01*
G37*
G36*
X198657Y36264D02*Y30546D01*
X206343D01*
Y36264D01*
X198657D01*
G37*
G36*
Y24454D02*Y18736D01*
X206343D01*
Y24454D01*
X198657D01*
G37*
G36*
X238657D02*Y18736D01*
X246343D01*
Y24454D01*
X238657D01*
G37*
G36*
Y36264D02*Y30546D01*
X246343D01*
Y36264D01*
X238657D01*
G37*
M02*
