G04 start of page 12 for group -3984 idx -3984 *
G04 Title: 26.001.00.01.01.pcb, fab *
G04 Creator: pcb 4.2.2 *
G04 CreationDate: Sat Feb 13 13:51:23 2021 UTC *
G04 For: bert *
G04 Format: Gerber/RS-274X *
G04 PCB-Dimensions (mil): 3937.01 5905.51 *
G04 PCB-Coordinate-Origin: lower left *
%MOIN*%
%FSLAX25Y25*%
%LNFAB*%
%ADD110C,0.0100*%
%ADD109C,0.0060*%
%ADD108C,0.0080*%
G54D108*X178150Y181102D02*Y177902D01*
Y181102D02*X180923Y182702D01*
X178150Y181102D02*X175376Y182702D01*
X176550Y181102D02*G75*G03X179750Y181102I1600J0D01*G01*
G75*G03X176550Y181102I-1600J0D01*G01*
X15000Y601801D02*Y598601D01*
Y601801D02*X17773Y603401D01*
X15000Y601801D02*X12227Y603401D01*
X13400Y601801D02*G75*G03X16600Y601801I1600J0D01*G01*
G75*G03X13400Y601801I-1600J0D01*G01*
G54D109*X140000Y604351D02*Y598051D01*
Y604351D02*X144200Y598051D01*
Y604351D02*Y598051D01*
X147800Y604351D02*X147200Y604051D01*
X146600Y603451D01*
X146300Y602851D01*
X146000Y601951D01*
Y600451D01*
X146300Y599551D01*
X146600Y598951D01*
X147200Y598351D01*
X147800Y598051D01*
X149000D01*
X149600Y598351D01*
X150200Y598951D01*
X150500Y599551D01*
X150800Y600451D01*
Y601951D02*Y600451D01*
Y601951D02*X150500Y602851D01*
X150200Y603451D01*
X149600Y604051D01*
X149000Y604351D01*
X147800D02*X149000D01*
X98000Y603151D02*X98600Y603451D01*
X99500Y604351D01*
Y598051D01*
X46800Y604351D02*X45900Y604051D01*
X45300Y603151D01*
X45000Y601651D01*
Y600751D01*
X45300Y599251D01*
X45900Y598351D01*
X46800Y598051D01*
X47400D01*
X48300Y598351D01*
X48900Y599251D01*
X49200Y600751D01*
Y601651D02*Y600751D01*
Y601651D02*X48900Y603151D01*
X48300Y604051D01*
X47400Y604351D01*
X46800D02*X47400D01*
X51300Y598651D02*X51000Y598351D01*
X51300Y598051D01*
X51600Y598351D01*
X51300Y598651D01*
X56400Y604351D02*X53400Y600151D01*
X57900D01*
X56400Y604351D02*Y598051D01*
X60300Y604351D02*X63600D01*
X61800Y601951D01*
X62700D01*
X63300Y601651D01*
X63600Y601351D01*
X63900Y600451D01*
Y599851D01*
X63600Y598951D01*
X63000Y598351D01*
X62100Y598051D01*
X61200D02*X62100D01*
X61200D02*X60300Y598351D01*
X60000Y598651D01*
X59700Y599251D01*
X66300Y604351D02*X69600D01*
X67800Y601951D01*
X68700D01*
X69300Y601651D01*
X69600Y601351D01*
X69900Y600451D01*
Y599851D01*
X69600Y598951D01*
X69000Y598351D01*
X68100Y598051D01*
X67200D02*X68100D01*
X67200D02*X66300Y598351D01*
X66000Y598651D01*
X65700Y599251D01*
X176550Y300813D02*X179750D01*
X176550D02*Y297613D01*
X179750D01*
Y300813D02*Y297613D01*
X13400Y618401D02*X16600D01*
X13400D02*Y615201D01*
X16600D01*
Y618401D02*Y615201D01*
X140000Y619351D02*Y613051D01*
Y619351D02*X144200Y613051D01*
Y619351D02*Y613051D01*
X147800Y619351D02*X147200Y619051D01*
X146600Y618451D01*
X146300Y617851D01*
X146000Y616951D01*
Y615451D01*
X146300Y614551D01*
X146600Y613951D01*
X147200Y613351D01*
X147800Y613051D01*
X149000D01*
X149600Y613351D01*
X150200Y613951D01*
X150500Y614551D01*
X150800Y615451D01*
Y616951D02*Y615451D01*
Y616951D02*X150500Y617851D01*
X150200Y618451D01*
X149600Y619051D01*
X149000Y619351D01*
X147800D02*X149000D01*
X98000Y618151D02*X98600Y618451D01*
X99500Y619351D01*
Y613051D01*
X46800Y619351D02*X45900Y619051D01*
X45300Y618151D01*
X45000Y616651D01*
Y615751D01*
X45300Y614251D01*
X45900Y613351D01*
X46800Y613051D01*
X47400D01*
X48300Y613351D01*
X48900Y614251D01*
X49200Y615751D01*
Y616651D02*Y615751D01*
Y616651D02*X48900Y618151D01*
X48300Y619051D01*
X47400Y619351D01*
X46800D02*X47400D01*
X51300Y613651D02*X51000Y613351D01*
X51300Y613051D01*
X51600Y613351D01*
X51300Y613651D01*
X56400Y619351D02*X53400Y615151D01*
X57900D01*
X56400Y619351D02*Y613051D01*
X59700Y618151D02*X60300Y618451D01*
X61200Y619351D01*
Y613051D01*
X63600Y619351D02*X66900D01*
X65100Y616951D01*
X66000D01*
X66600Y616651D01*
X66900Y616351D01*
X67200Y615451D01*
Y614851D01*
X66900Y613951D01*
X66300Y613351D01*
X65400Y613051D01*
X64500D02*X65400D01*
X64500D02*X63600Y613351D01*
X63300Y613651D01*
X63000Y614251D01*
X98609Y417323D02*G75*G03X100209Y417323I800J0D01*G01*
G75*G03X98609Y417323I-800J0D01*G01*
X177350D02*G75*G03X178950Y417323I800J0D01*G01*
G75*G03X177350Y417323I-800J0D01*G01*
X14200Y631801D02*G75*G03X15800Y631801I800J0D01*G01*
G75*G03X14200Y631801I-800J0D01*G01*
X135000Y634351D02*X137400Y631351D01*
Y628051D01*
X139800Y634351D02*X137400Y631351D01*
X141600Y634351D02*Y628051D01*
Y634351D02*X145500D01*
X141600Y631351D02*X144000D01*
X141600Y628051D02*X145500D01*
X151500Y633451D02*X150900Y634051D01*
X150000Y634351D01*
X148800D02*X150000D01*
X148800D02*X147900Y634051D01*
X147300Y633451D01*
Y632851D01*
X147600Y632251D01*
X147900Y631951D01*
X148500Y631651D01*
X150300Y631051D01*
X150900Y630751D01*
X151200Y630451D01*
X151500Y629851D01*
Y628951D01*
X150900Y628351D01*
X150000Y628051D01*
X148800D02*X150000D01*
X148800D02*X147900Y628351D01*
X147300Y628951D01*
X98300Y633151D02*Y632851D01*
Y633151D02*X98600Y633751D01*
X98900Y634051D01*
X99500Y634351D01*
X100700D01*
X101300Y634051D01*
X101600Y633751D01*
X101900Y633151D01*
Y632551D01*
X101600Y631951D01*
X101000Y631051D01*
X98000Y628051D01*
X102200D01*
X46800Y634351D02*X45900Y634051D01*
X45300Y633151D01*
X45000Y631651D01*
Y630751D01*
X45300Y629251D01*
X45900Y628351D01*
X46800Y628051D01*
X47400D01*
X48300Y628351D01*
X48900Y629251D01*
X49200Y630751D01*
Y631651D02*Y630751D01*
Y631651D02*X48900Y633151D01*
X48300Y634051D01*
X47400Y634351D01*
X46800D02*X47400D01*
X51300Y628651D02*X51000Y628351D01*
X51300Y628051D01*
X51600Y628351D01*
X51300Y628651D01*
X53700Y633151D02*Y632851D01*
Y633151D02*X54000Y633751D01*
X54300Y634051D01*
X54900Y634351D01*
X56100D01*
X56700Y634051D01*
X57000Y633751D01*
X57300Y633151D01*
Y632551D01*
X57000Y631951D01*
X56400Y631051D01*
X53400Y628051D01*
X57600D01*
X60000Y634351D02*X63000D01*
X60000D02*X59700Y631651D01*
X60000Y631951D01*
X60900Y632251D01*
X61800D01*
X62700Y631951D01*
X63300Y631351D01*
X63600Y630451D01*
Y629851D01*
X63300Y628951D01*
X62700Y628351D01*
X61800Y628051D01*
X60900D02*X61800D01*
X60900D02*X60000Y628351D01*
X59700Y628651D01*
X59400Y629251D01*
X69000Y633451D02*X68700Y634051D01*
X67800Y634351D01*
X67200D02*X67800D01*
X67200D02*X66300Y634051D01*
X65700Y633151D01*
X65400Y631651D01*
Y630151D01*
X65700Y628951D01*
X66300Y628351D01*
X67200Y628051D01*
X67500D01*
X68400Y628351D01*
X69000Y628951D01*
X69300Y629851D01*
Y630151D02*Y629851D01*
Y630151D02*X69000Y631051D01*
X68400Y631651D01*
X67500Y631951D01*
X67200D02*X67500D01*
X67200D02*X66300Y631651D01*
X65700Y631051D01*
X65400Y630151D01*
X137580Y418523D02*X139980Y416123D01*
X137580D02*X139980Y418523D01*
X13800Y648001D02*X16200Y645601D01*
X13800D02*X16200Y648001D01*
X135000Y649351D02*X137400Y646351D01*
Y643051D01*
X139800Y649351D02*X137400Y646351D01*
X141600Y649351D02*Y643051D01*
Y649351D02*X145500D01*
X141600Y646351D02*X144000D01*
X141600Y643051D02*X145500D01*
X151500Y648451D02*X150900Y649051D01*
X150000Y649351D01*
X148800D02*X150000D01*
X148800D02*X147900Y649051D01*
X147300Y648451D01*
Y647851D01*
X147600Y647251D01*
X147900Y646951D01*
X148500Y646651D01*
X150300Y646051D01*
X150900Y645751D01*
X151200Y645451D01*
X151500Y644851D01*
Y643951D01*
X150900Y643351D01*
X150000Y643051D01*
X148800D02*X150000D01*
X148800D02*X147900Y643351D01*
X147300Y643951D01*
X98000Y648151D02*X98600Y648451D01*
X99500Y649351D01*
Y643051D01*
X46800Y649351D02*X45900Y649051D01*
X45300Y648151D01*
X45000Y646651D01*
Y645751D01*
X45300Y644251D01*
X45900Y643351D01*
X46800Y643051D01*
X47400D01*
X48300Y643351D01*
X48900Y644251D01*
X49200Y645751D01*
Y646651D02*Y645751D01*
Y646651D02*X48900Y648151D01*
X48300Y649051D01*
X47400Y649351D01*
X46800D02*X47400D01*
X51300Y643651D02*X51000Y643351D01*
X51300Y643051D01*
X51600Y643351D01*
X51300Y643651D01*
X53700Y648151D02*Y647851D01*
Y648151D02*X54000Y648751D01*
X54300Y649051D01*
X54900Y649351D01*
X56100D01*
X56700Y649051D01*
X57000Y648751D01*
X57300Y648151D01*
Y647551D01*
X57000Y646951D01*
X56400Y646051D01*
X53400Y643051D01*
X57600D01*
X61200Y649351D02*X60300Y649051D01*
X59700Y648151D01*
X59400Y646651D01*
Y645751D01*
X59700Y644251D01*
X60300Y643351D01*
X61200Y643051D01*
X61800D01*
X62700Y643351D01*
X63300Y644251D01*
X63600Y645751D01*
Y646651D02*Y645751D01*
Y646651D02*X63300Y648151D01*
X62700Y649051D01*
X61800Y649351D01*
X61200D02*X61800D01*
X67200D02*X66300Y649051D01*
X65700Y648151D01*
X65400Y646651D01*
Y645751D01*
X65700Y644251D01*
X66300Y643351D01*
X67200Y643051D01*
X67800D01*
X68700Y643351D01*
X69300Y644251D01*
X69600Y645751D01*
Y646651D02*Y645751D01*
Y646651D02*X69300Y648151D01*
X68700Y649051D01*
X67800Y649351D01*
X67200D02*X67800D01*
X138780Y462230D02*Y459030D01*
X137180Y460630D02*X140380D01*
X138780Y139395D02*Y136195D01*
X137180Y137795D02*X140380D01*
X15000Y663401D02*Y660201D01*
X13400Y661801D02*X16600D01*
X140000Y664351D02*Y658051D01*
Y664351D02*X144200Y658051D01*
Y664351D02*Y658051D01*
X147800Y664351D02*X147200Y664051D01*
X146600Y663451D01*
X146300Y662851D01*
X146000Y661951D01*
Y660451D01*
X146300Y659551D01*
X146600Y658951D01*
X147200Y658351D01*
X147800Y658051D01*
X149000D01*
X149600Y658351D01*
X150200Y658951D01*
X150500Y659551D01*
X150800Y660451D01*
Y661951D02*Y660451D01*
Y661951D02*X150500Y662851D01*
X150200Y663451D01*
X149600Y664051D01*
X149000Y664351D01*
X147800D02*X149000D01*
X98300Y663151D02*Y662851D01*
Y663151D02*X98600Y663751D01*
X98900Y664051D01*
X99500Y664351D01*
X100700D01*
X101300Y664051D01*
X101600Y663751D01*
X101900Y663151D01*
Y662551D01*
X101600Y661951D01*
X101000Y661051D01*
X98000Y658051D01*
X102200D01*
X46800Y664351D02*X45900Y664051D01*
X45300Y663151D01*
X45000Y661651D01*
Y660751D01*
X45300Y659251D01*
X45900Y658351D01*
X46800Y658051D01*
X47400D01*
X48300Y658351D01*
X48900Y659251D01*
X49200Y660751D01*
Y661651D02*Y660751D01*
Y661651D02*X48900Y663151D01*
X48300Y664051D01*
X47400Y664351D01*
X46800D02*X47400D01*
X51300Y658651D02*X51000Y658351D01*
X51300Y658051D01*
X51600Y658351D01*
X51300Y658651D01*
X53400Y663151D02*X54000Y663451D01*
X54900Y664351D01*
Y658051D01*
X59700Y664351D02*X56700Y660151D01*
X61200D01*
X59700Y664351D02*Y658051D01*
X66600Y663451D02*X66300Y664051D01*
X65400Y664351D01*
X64800D02*X65400D01*
X64800D02*X63900Y664051D01*
X63300Y663151D01*
X63000Y661651D01*
Y660151D01*
X63300Y658951D01*
X63900Y658351D01*
X64800Y658051D01*
X65100D01*
X66000Y658351D01*
X66600Y658951D01*
X66900Y659851D01*
Y660151D02*Y659851D01*
Y660151D02*X66600Y661051D01*
X66000Y661651D01*
X65100Y661951D01*
X64800D02*X65100D01*
X64800D02*X63900Y661651D01*
X63300Y661051D01*
X63000Y660151D01*
X218504Y59055D02*Y57455D01*
Y59055D02*X219891Y59855D01*
X218504Y59055D02*X217117Y59855D01*
X59055Y59055D02*Y57455D01*
Y59055D02*X60442Y59855D01*
X59055Y59055D02*X57668Y59855D01*
X218504Y539370D02*Y537770D01*
Y539370D02*X219891Y540170D01*
X218504Y539370D02*X217117Y540170D01*
X59055Y539370D02*Y537770D01*
Y539370D02*X60442Y540170D01*
X59055Y539370D02*X57668Y540170D01*
X15000Y676801D02*Y675201D01*
Y676801D02*X16387Y677601D01*
X15000Y676801D02*X13613Y677601D01*
X135000Y679351D02*X137400Y676351D01*
Y673051D01*
X139800Y679351D02*X137400Y676351D01*
X141600Y679351D02*Y673051D01*
Y679351D02*X145500D01*
X141600Y676351D02*X144000D01*
X141600Y673051D02*X145500D01*
X151500Y678451D02*X150900Y679051D01*
X150000Y679351D01*
X148800D02*X150000D01*
X148800D02*X147900Y679051D01*
X147300Y678451D01*
Y677851D01*
X147600Y677251D01*
X147900Y676951D01*
X148500Y676651D01*
X150300Y676051D01*
X150900Y675751D01*
X151200Y675451D01*
X151500Y674851D01*
Y673951D01*
X150900Y673351D01*
X150000Y673051D01*
X148800D02*X150000D01*
X148800D02*X147900Y673351D01*
X147300Y673951D01*
X101000Y679351D02*X98000Y675151D01*
X102500D01*
X101000Y679351D02*Y673051D01*
X46800Y679351D02*X45900Y679051D01*
X45300Y678151D01*
X45000Y676651D01*
Y675751D01*
X45300Y674251D01*
X45900Y673351D01*
X46800Y673051D01*
X47400D01*
X48300Y673351D01*
X48900Y674251D01*
X49200Y675751D01*
Y676651D02*Y675751D01*
Y676651D02*X48900Y678151D01*
X48300Y679051D01*
X47400Y679351D01*
X46800D02*X47400D01*
X51300Y673651D02*X51000Y673351D01*
X51300Y673051D01*
X51600Y673351D01*
X51300Y673651D01*
X53400Y678151D02*X54000Y678451D01*
X54900Y679351D01*
Y673051D01*
X56700Y678151D02*X57300Y678451D01*
X58200Y679351D01*
Y673051D01*
X61800Y679351D02*X60900Y679051D01*
X60300Y678151D01*
X60000Y676651D01*
Y675751D01*
X60300Y674251D01*
X60900Y673351D01*
X61800Y673051D01*
X62400D01*
X63300Y673351D01*
X63900Y674251D01*
X64200Y675751D01*
Y676651D02*Y675751D01*
Y676651D02*X63900Y678151D01*
X63300Y679051D01*
X62400Y679351D01*
X61800D02*X62400D01*
X4200Y693451D02*X3600Y694051D01*
X2700Y694351D01*
X1500D02*X2700D01*
X1500D02*X600Y694051D01*
X0Y693451D01*
Y692851D01*
X300Y692251D01*
X600Y691951D01*
X1200Y691651D01*
X3000Y691051D01*
X3600Y690751D01*
X3900Y690451D01*
X4200Y689851D01*
Y688951D01*
X3600Y688351D01*
X2700Y688051D01*
X1500D02*X2700D01*
X1500D02*X600Y688351D01*
X0Y688951D01*
X6300Y692251D02*X8100Y688051D01*
X9900Y692251D02*X8100Y688051D01*
X7500Y686851D01*
X6900Y686251D01*
X6300Y685951D01*
X6000D02*X6300D01*
X11700Y692251D02*Y688051D01*
Y691051D02*X12600Y691951D01*
X13200Y692251D01*
X14100D01*
X14700Y691951D01*
X15000Y691051D01*
Y688051D01*
Y691051D02*X15900Y691951D01*
X16500Y692251D01*
X17400D01*
X18000Y691951D01*
X18300Y691051D01*
Y688051D01*
X20100Y694351D02*Y688051D01*
Y691351D02*X20700Y691951D01*
X21300Y692251D01*
X22200D01*
X22800Y691951D01*
X23400Y691351D01*
X23700Y690451D01*
Y689851D01*
X23400Y688951D01*
X22800Y688351D01*
X22200Y688051D01*
X21300D02*X22200D01*
X21300D02*X20700Y688351D01*
X20100Y688951D01*
X27000Y692251D02*X26400Y691951D01*
X25800Y691351D01*
X25500Y690451D01*
Y689851D01*
X25800Y688951D01*
X26400Y688351D01*
X27000Y688051D01*
X27900D01*
X28500Y688351D01*
X29100Y688951D01*
X29400Y689851D01*
Y690451D02*Y689851D01*
Y690451D02*X29100Y691351D01*
X28500Y691951D01*
X27900Y692251D01*
X27000D02*X27900D01*
X31200Y694351D02*Y688051D01*
X0Y684951D02*X33000D01*
X41000Y694351D02*Y688051D01*
Y694351D02*X43100D01*
X44000Y694051D01*
X44600Y693451D01*
X44900Y692851D01*
X45200Y691951D01*
Y690451D01*
X44900Y689551D01*
X44600Y688951D01*
X44000Y688351D01*
X43100Y688051D01*
X41000D02*X43100D01*
X47000Y694351D02*X47300Y694051D01*
X47600Y694351D01*
X47300Y694651D01*
X47000Y694351D01*
X47300Y692251D02*Y688051D01*
X53000Y692251D02*Y688051D01*
Y691351D02*X52400Y691951D01*
X51800Y692251D01*
X50900D02*X51800D01*
X50900D02*X50300Y691951D01*
X49700Y691351D01*
X49400Y690451D01*
Y689851D01*
X49700Y688951D01*
X50300Y688351D01*
X50900Y688051D01*
X51800D01*
X52400Y688351D01*
X53000Y688951D01*
X54800Y692251D02*Y688051D01*
Y691051D02*X55700Y691951D01*
X56300Y692251D01*
X57200D01*
X57800Y691951D01*
X58100Y691051D01*
Y688051D01*
Y691051D02*X59000Y691951D01*
X59600Y692251D01*
X60500D01*
X61100Y691951D01*
X61400Y691051D01*
Y688051D01*
X63500Y688651D02*X63200Y688351D01*
X63500Y688051D01*
X63800Y688351D01*
X63500Y688651D01*
X69500Y695551D02*X68900Y694951D01*
X68300Y694051D01*
X67700Y692851D01*
X67400Y691351D01*
Y690151D01*
X67700Y688651D01*
X68300Y687451D01*
X68900Y686551D01*
X69500Y685951D01*
X71300Y694351D02*Y688051D01*
X73100Y692251D02*Y688051D01*
Y691051D02*X74000Y691951D01*
X74600Y692251D01*
X75500D01*
X76100Y691951D01*
X76400Y691051D01*
Y688051D01*
X81800Y691351D02*X81200Y691951D01*
X80600Y692251D01*
X79700D02*X80600D01*
X79700D02*X79100Y691951D01*
X78500Y691351D01*
X78200Y690451D01*
Y689851D01*
X78500Y688951D01*
X79100Y688351D01*
X79700Y688051D01*
X80600D01*
X81200Y688351D01*
X81800Y688951D01*
X83600Y694351D02*Y688051D01*
Y691051D02*X84500Y691951D01*
X85100Y692251D01*
X86000D01*
X86600Y691951D01*
X86900Y691051D01*
Y688051D01*
X88700Y695551D02*X89300Y694951D01*
X89900Y694051D01*
X90500Y692851D01*
X90800Y691351D01*
Y690151D01*
X90500Y688651D01*
X89900Y687451D01*
X89300Y686551D01*
X88700Y685951D01*
X41000Y684951D02*X92600D01*
X99500Y692851D02*X99200Y693451D01*
X98600Y694051D01*
X98000Y694351D01*
X96800D02*X98000D01*
X96800D02*X96200Y694051D01*
X95600Y693451D01*
X95300Y692851D01*
X95000Y691951D01*
Y690451D01*
X95300Y689551D01*
X95600Y688951D01*
X96200Y688351D01*
X96800Y688051D01*
X98000D01*
X98600Y688351D01*
X99200Y688951D01*
X99500Y689551D01*
X102800Y692251D02*X102200Y691951D01*
X101600Y691351D01*
X101300Y690451D01*
Y689851D01*
X101600Y688951D01*
X102200Y688351D01*
X102800Y688051D01*
X103700D01*
X104300Y688351D01*
X104900Y688951D01*
X105200Y689851D01*
Y690451D02*Y689851D01*
Y690451D02*X104900Y691351D01*
X104300Y691951D01*
X103700Y692251D01*
X102800D02*X103700D01*
X107000D02*Y689251D01*
X107300Y688351D01*
X107900Y688051D01*
X108800D01*
X109400Y688351D01*
X110300Y689251D01*
Y692251D02*Y688051D01*
X112100Y692251D02*Y688051D01*
Y691051D02*X113000Y691951D01*
X113600Y692251D01*
X114500D01*
X115100Y691951D01*
X115400Y691051D01*
Y688051D01*
X118100Y694351D02*Y689251D01*
X118400Y688351D01*
X119000Y688051D01*
X119600D01*
X117200Y692251D02*X119300D01*
X95000Y684951D02*X121400D01*
X130000Y694351D02*Y688051D01*
Y694351D02*X132700D01*
X133600Y694051D01*
X133900Y693751D01*
X134200Y693151D01*
Y692251D01*
X133900Y691651D01*
X133600Y691351D01*
X132700Y691051D01*
X130000D02*X132700D01*
X136000Y694351D02*Y688051D01*
X141400Y692251D02*Y688051D01*
Y691351D02*X140800Y691951D01*
X140200Y692251D01*
X139300D02*X140200D01*
X139300D02*X138700Y691951D01*
X138100Y691351D01*
X137800Y690451D01*
Y689851D01*
X138100Y688951D01*
X138700Y688351D01*
X139300Y688051D01*
X140200D01*
X140800Y688351D01*
X141400Y688951D01*
X144100Y694351D02*Y689251D01*
X144400Y688351D01*
X145000Y688051D01*
X145600D01*
X143200Y692251D02*X145300D01*
X147400Y690451D02*X151000D01*
Y691051D02*Y690451D01*
Y691051D02*X150700Y691651D01*
X150400Y691951D01*
X149800Y692251D01*
X148900D02*X149800D01*
X148900D02*X148300Y691951D01*
X147700Y691351D01*
X147400Y690451D01*
Y689851D01*
X147700Y688951D01*
X148300Y688351D01*
X148900Y688051D01*
X149800D01*
X150400Y688351D01*
X151000Y688951D01*
X156400Y694351D02*Y688051D01*
Y691351D02*X155800Y691951D01*
X155200Y692251D01*
X154300D02*X155200D01*
X154300D02*X153700Y691951D01*
X153100Y691351D01*
X152800Y690451D01*
Y689851D01*
X153100Y688951D01*
X153700Y688351D01*
X154300Y688051D01*
X155200D01*
X155800Y688351D01*
X156400Y688951D01*
X158200Y693151D02*Y692851D01*
Y693151D02*X158500Y693751D01*
X158800Y694051D01*
X159400Y694351D01*
X160600D01*
X161200Y694051D01*
X161500Y693751D01*
X161800Y693151D01*
Y692551D01*
X161500Y691951D01*
X161200Y691651D01*
X160000Y691051D01*
Y690151D01*
Y688651D02*X159700Y688351D01*
X160000Y688051D01*
X160300Y688351D01*
X160000Y688651D01*
X130000Y684951D02*X163600D01*
X2100Y709351D02*Y703051D01*
X0Y709351D02*X4200D01*
X6000D02*Y703051D01*
Y706051D02*X6900Y706951D01*
X7500Y707251D01*
X8400D01*
X9000Y706951D01*
X9300Y706051D01*
Y703051D01*
X11100Y705451D02*X14700D01*
Y706051D02*Y705451D01*
Y706051D02*X14400Y706651D01*
X14100Y706951D01*
X13500Y707251D01*
X12600D02*X13500D01*
X12600D02*X12000Y706951D01*
X11400Y706351D01*
X11100Y705451D01*
Y704851D01*
X11400Y703951D01*
X12000Y703351D01*
X12600Y703051D01*
X13500D01*
X14100Y703351D01*
X14700Y703951D01*
X16500Y707251D02*Y703051D01*
Y705451D02*X16800Y706351D01*
X17400Y706951D01*
X18000Y707251D01*
X18900D01*
X20700Y705451D02*X24300D01*
Y706051D02*Y705451D01*
Y706051D02*X24000Y706651D01*
X23700Y706951D01*
X23100Y707251D01*
X22200D02*X23100D01*
X22200D02*X21600Y706951D01*
X21000Y706351D01*
X20700Y705451D01*
Y704851D01*
X21000Y703951D01*
X21600Y703351D01*
X22200Y703051D01*
X23100D01*
X23700Y703351D01*
X24300Y703951D01*
X31500Y707251D02*Y703051D01*
Y706351D02*X30900Y706951D01*
X30300Y707251D01*
X29400D02*X30300D01*
X29400D02*X28800Y706951D01*
X28200Y706351D01*
X27900Y705451D01*
Y704851D01*
X28200Y703951D01*
X28800Y703351D01*
X29400Y703051D01*
X30300D01*
X30900Y703351D01*
X31500Y703951D01*
X33300Y707251D02*Y703051D01*
Y705451D02*X33600Y706351D01*
X34200Y706951D01*
X34800Y707251D01*
X35700D01*
X37500Y705451D02*X41100D01*
Y706051D02*Y705451D01*
Y706051D02*X40800Y706651D01*
X40500Y706951D01*
X39900Y707251D01*
X39000D02*X39900D01*
X39000D02*X38400Y706951D01*
X37800Y706351D01*
X37500Y705451D01*
Y704851D01*
X37800Y703951D01*
X38400Y703351D01*
X39000Y703051D01*
X39900D01*
X40500Y703351D01*
X41100Y703951D01*
X48300Y708451D02*X48000Y709051D01*
X47100Y709351D01*
X46500D02*X47100D01*
X46500D02*X45600Y709051D01*
X45000Y708151D01*
X44700Y706651D01*
Y705151D01*
X45000Y703951D01*
X45600Y703351D01*
X46500Y703051D01*
X46800D01*
X47700Y703351D01*
X48300Y703951D01*
X48600Y704851D01*
Y705151D02*Y704851D01*
Y705151D02*X48300Y706051D01*
X47700Y706651D01*
X46800Y706951D01*
X46500D02*X46800D01*
X46500D02*X45600Y706651D01*
X45000Y706051D01*
X44700Y705151D01*
X55800Y709351D02*Y703051D01*
Y706351D02*X55200Y706951D01*
X54600Y707251D01*
X53700D02*X54600D01*
X53700D02*X53100Y706951D01*
X52500Y706351D01*
X52200Y705451D01*
Y704851D01*
X52500Y703951D01*
X53100Y703351D01*
X53700Y703051D01*
X54600D01*
X55200Y703351D01*
X55800Y703951D01*
X57600Y709351D02*X57900Y709051D01*
X58200Y709351D01*
X57900Y709651D01*
X57600Y709351D01*
X57900Y707251D02*Y703051D01*
X61800Y709351D02*X62400D01*
X61800D02*X61200Y709051D01*
X60900Y708151D01*
Y703051D01*
X60000Y707251D02*X62100D01*
X66000Y709351D02*X66600D01*
X66000D02*X65400Y709051D01*
X65100Y708151D01*
Y703051D01*
X64200Y707251D02*X66300D01*
X68400Y705451D02*X72000D01*
Y706051D02*Y705451D01*
Y706051D02*X71700Y706651D01*
X71400Y706951D01*
X70800Y707251D01*
X69900D02*X70800D01*
X69900D02*X69300Y706951D01*
X68700Y706351D01*
X68400Y705451D01*
Y704851D01*
X68700Y703951D01*
X69300Y703351D01*
X69900Y703051D01*
X70800D01*
X71400Y703351D01*
X72000Y703951D01*
X73800Y707251D02*Y703051D01*
Y705451D02*X74100Y706351D01*
X74700Y706951D01*
X75300Y707251D01*
X76200D01*
X78000Y705451D02*X81600D01*
Y706051D02*Y705451D01*
Y706051D02*X81300Y706651D01*
X81000Y706951D01*
X80400Y707251D01*
X79500D02*X80400D01*
X79500D02*X78900Y706951D01*
X78300Y706351D01*
X78000Y705451D01*
Y704851D01*
X78300Y703951D01*
X78900Y703351D01*
X79500Y703051D01*
X80400D01*
X81000Y703351D01*
X81600Y703951D01*
X83400Y707251D02*Y703051D01*
Y706051D02*X84300Y706951D01*
X84900Y707251D01*
X85800D01*
X86400Y706951D01*
X86700Y706051D01*
Y703051D01*
X89400Y709351D02*Y704251D01*
X89700Y703351D01*
X90300Y703051D01*
X90900D01*
X88500Y707251D02*X90600D01*
X98100Y709351D02*Y703051D01*
Y706351D02*X97500Y706951D01*
X96900Y707251D01*
X96000D02*X96900D01*
X96000D02*X95400Y706951D01*
X94800Y706351D01*
X94500Y705451D01*
Y704851D01*
X94800Y703951D01*
X95400Y703351D01*
X96000Y703051D01*
X96900D01*
X97500Y703351D01*
X98100Y703951D01*
X99900Y707251D02*Y703051D01*
Y705451D02*X100200Y706351D01*
X100800Y706951D01*
X101400Y707251D01*
X102300D01*
X104100Y709351D02*X104400Y709051D01*
X104700Y709351D01*
X104400Y709651D01*
X104100Y709351D01*
X104400Y707251D02*Y703051D01*
X106500Y709351D02*Y703051D01*
X108300Y709351D02*Y703051D01*
X115200Y706351D02*X114900Y706951D01*
X114000Y707251D01*
X113100D02*X114000D01*
X113100D02*X112200Y706951D01*
X111900Y706351D01*
X112200Y705751D01*
X112800Y705451D01*
X114300Y705151D01*
X114900Y704851D01*
X115200Y704251D01*
Y703951D01*
X114900Y703351D01*
X114000Y703051D01*
X113100D02*X114000D01*
X113100D02*X112200Y703351D01*
X111900Y703951D01*
X117000Y709351D02*X117300Y709051D01*
X117600Y709351D01*
X117300Y709651D01*
X117000Y709351D01*
X117300Y707251D02*Y703051D01*
X122700Y707251D02*X119400Y703051D01*
Y707251D02*X122700D01*
X119400Y703051D02*X122700D01*
X124500Y705451D02*X128100D01*
Y706051D02*Y705451D01*
Y706051D02*X127800Y706651D01*
X127500Y706951D01*
X126900Y707251D01*
X126000D02*X126900D01*
X126000D02*X125400Y706951D01*
X124800Y706351D01*
X124500Y705451D01*
Y704851D01*
X124800Y703951D01*
X125400Y703351D01*
X126000Y703051D01*
X126900D01*
X127500Y703351D01*
X128100Y703951D01*
X133200Y706351D02*X132900Y706951D01*
X132000Y707251D01*
X131100D02*X132000D01*
X131100D02*X130200Y706951D01*
X129900Y706351D01*
X130200Y705751D01*
X130800Y705451D01*
X132300Y705151D01*
X132900Y704851D01*
X133200Y704251D01*
Y703951D01*
X132900Y703351D01*
X132000Y703051D01*
X131100D02*X132000D01*
X131100D02*X130200Y703351D01*
X129900Y703951D01*
X136800Y707251D02*Y704251D01*
X137100Y703351D01*
X137700Y703051D01*
X138600D01*
X139200Y703351D01*
X140100Y704251D01*
Y707251D02*Y703051D01*
X145200Y706351D02*X144900Y706951D01*
X144000Y707251D01*
X143100D02*X144000D01*
X143100D02*X142200Y706951D01*
X141900Y706351D01*
X142200Y705751D01*
X142800Y705451D01*
X144300Y705151D01*
X144900Y704851D01*
X145200Y704251D01*
Y703951D01*
X144900Y703351D01*
X144000Y703051D01*
X143100D02*X144000D01*
X143100D02*X142200Y703351D01*
X141900Y703951D01*
X147000Y705451D02*X150600D01*
Y706051D02*Y705451D01*
Y706051D02*X150300Y706651D01*
X150000Y706951D01*
X149400Y707251D01*
X148500D02*X149400D01*
X148500D02*X147900Y706951D01*
X147300Y706351D01*
X147000Y705451D01*
Y704851D01*
X147300Y703951D01*
X147900Y703351D01*
X148500Y703051D01*
X149400D01*
X150000Y703351D01*
X150600Y703951D01*
X156000Y709351D02*Y703051D01*
Y706351D02*X155400Y706951D01*
X154800Y707251D01*
X153900D02*X154800D01*
X153900D02*X153300Y706951D01*
X152700Y706351D01*
X152400Y705451D01*
Y704851D01*
X152700Y703951D01*
X153300Y703351D01*
X153900Y703051D01*
X154800D01*
X155400Y703351D01*
X156000Y703951D01*
X159600Y709351D02*X159900Y709051D01*
X160200Y709351D01*
X159900Y709651D01*
X159600Y709351D01*
X159900Y707251D02*Y703051D01*
X162000Y707251D02*Y703051D01*
Y706051D02*X162900Y706951D01*
X163500Y707251D01*
X164400D01*
X165000Y706951D01*
X165300Y706051D01*
Y703051D01*
X169800Y709351D02*Y704251D01*
X170100Y703351D01*
X170700Y703051D01*
X171300D01*
X168900Y707251D02*X171000D01*
X173100Y709351D02*Y703051D01*
Y706051D02*X174000Y706951D01*
X174600Y707251D01*
X175500D01*
X176100Y706951D01*
X176400Y706051D01*
Y703051D01*
X178200Y709351D02*X178500Y709051D01*
X178800Y709351D01*
X178500Y709651D01*
X178200Y709351D01*
X178500Y707251D02*Y703051D01*
X183900Y706351D02*X183600Y706951D01*
X182700Y707251D01*
X181800D02*X182700D01*
X181800D02*X180900Y706951D01*
X180600Y706351D01*
X180900Y705751D01*
X181500Y705451D01*
X183000Y705151D01*
X183600Y704851D01*
X183900Y704251D01*
Y703951D01*
X183600Y703351D01*
X182700Y703051D01*
X181800D02*X182700D01*
X181800D02*X180900Y703351D01*
X180600Y703951D01*
X187500Y709351D02*Y703051D01*
X192900Y707251D02*Y703051D01*
Y706351D02*X192300Y706951D01*
X191700Y707251D01*
X190800D02*X191700D01*
X190800D02*X190200Y706951D01*
X189600Y706351D01*
X189300Y705451D01*
Y704851D01*
X189600Y703951D01*
X190200Y703351D01*
X190800Y703051D01*
X191700D01*
X192300Y703351D01*
X192900Y703951D01*
X195000Y707251D02*X196800Y703051D01*
X198600Y707251D02*X196800Y703051D01*
X196200Y701851D01*
X195600Y701251D01*
X195000Y700951D01*
X194700D02*X195000D01*
X201900Y707251D02*X201300Y706951D01*
X200700Y706351D01*
X200400Y705451D01*
Y704851D01*
X200700Y703951D01*
X201300Y703351D01*
X201900Y703051D01*
X202800D01*
X203400Y703351D01*
X204000Y703951D01*
X204300Y704851D01*
Y705451D02*Y704851D01*
Y705451D02*X204000Y706351D01*
X203400Y706951D01*
X202800Y707251D01*
X201900D02*X202800D01*
X206100D02*Y704251D01*
X206400Y703351D01*
X207000Y703051D01*
X207900D01*
X208500Y703351D01*
X209400Y704251D01*
Y707251D02*Y703051D01*
X212100Y709351D02*Y704251D01*
X212400Y703351D01*
X213000Y703051D01*
X213600D01*
X211200Y707251D02*X213300D01*
X216000Y703351D02*X215700Y703051D01*
X215400Y703351D01*
X215700Y703651D01*
X216000Y703351D01*
Y702751D01*
X215700Y702151D01*
X215400Y701851D01*
X219600Y708151D02*X220200Y708451D01*
X221100Y709351D01*
Y703051D01*
X222900Y708151D02*X223500Y708451D01*
X224400Y709351D01*
Y703051D01*
X228000Y709351D02*Y703051D01*
Y706051D02*X228900Y706951D01*
X229500Y707251D01*
X230400D01*
X231000Y706951D01*
X231300Y706051D01*
Y703051D01*
X234600Y707251D02*X234000Y706951D01*
X233400Y706351D01*
X233100Y705451D01*
Y704851D01*
X233400Y703951D01*
X234000Y703351D01*
X234600Y703051D01*
X235500D01*
X236100Y703351D01*
X236700Y703951D01*
X237000Y704851D01*
Y705451D02*Y704851D01*
Y705451D02*X236700Y706351D01*
X236100Y706951D01*
X235500Y707251D01*
X234600D02*X235500D01*
X238800Y709351D02*Y703051D01*
X240600Y705451D02*X244200D01*
Y706051D02*Y705451D01*
Y706051D02*X243900Y706651D01*
X243600Y706951D01*
X243000Y707251D01*
X242100D02*X243000D01*
X242100D02*X241500Y706951D01*
X240900Y706351D01*
X240600Y705451D01*
Y704851D01*
X240900Y703951D01*
X241500Y703351D01*
X242100Y703051D01*
X243000D01*
X243600Y703351D01*
X244200Y703951D01*
X249300Y706351D02*X249000Y706951D01*
X248100Y707251D01*
X247200D02*X248100D01*
X247200D02*X246300Y706951D01*
X246000Y706351D01*
X246300Y705751D01*
X246900Y705451D01*
X248400Y705151D01*
X249000Y704851D01*
X249300Y704251D01*
Y703951D01*
X249000Y703351D01*
X248100Y703051D01*
X247200D02*X248100D01*
X247200D02*X246300Y703351D01*
X246000Y703951D01*
X253800Y709351D02*Y704251D01*
X254100Y703351D01*
X254700Y703051D01*
X255300D01*
X252900Y707251D02*X255000D01*
X258600D02*X258000Y706951D01*
X257400Y706351D01*
X257100Y705451D01*
Y704851D01*
X257400Y703951D01*
X258000Y703351D01*
X258600Y703051D01*
X259500D01*
X260100Y703351D01*
X260700Y703951D01*
X261000Y704851D01*
Y705451D02*Y704851D01*
Y705451D02*X260700Y706351D01*
X260100Y706951D01*
X259500Y707251D01*
X258600D02*X259500D01*
X263700Y709351D02*Y704251D01*
X264000Y703351D01*
X264600Y703051D01*
X265200D01*
X262800Y707251D02*X264900D01*
X270600D02*Y703051D01*
Y706351D02*X270000Y706951D01*
X269400Y707251D01*
X268500D02*X269400D01*
X268500D02*X267900Y706951D01*
X267300Y706351D01*
X267000Y705451D01*
Y704851D01*
X267300Y703951D01*
X267900Y703351D01*
X268500Y703051D01*
X269400D01*
X270000Y703351D01*
X270600Y703951D01*
X272400Y709351D02*Y703051D01*
G54D110*X39370Y47244D02*X238188Y47244D01*
X238189D02*X238189Y551181D01*
X39370D02*X238189D01*
X39369Y551181D02*X39370Y47244D01*
X119094Y328740D02*Y127953D01*
X79724D02*X79725Y328740D01*
X79724Y127953D02*X119094D01*
X79724Y328740D02*X119094D01*
G54D109*X105650Y-3200D02*Y-9500D01*
Y-3200D02*X108350D01*
X109250Y-3500D01*
X109550Y-3800D01*
X109850Y-4400D01*
Y-5000D01*
X109550Y-5600D01*
X109250Y-5900D01*
X108350Y-6200D01*
X105650D02*X108350D01*
X109250Y-6500D01*
X109550Y-6800D01*
X109850Y-7400D01*
Y-8300D01*
X109550Y-8900D01*
X109250Y-9200D01*
X108350Y-9500D01*
X105650D02*X108350D01*
X113150Y-5300D02*X112550Y-5600D01*
X111950Y-6200D01*
X111650Y-7100D01*
Y-7700D01*
X111950Y-8600D01*
X112550Y-9200D01*
X113150Y-9500D01*
X114050D01*
X114650Y-9200D01*
X115250Y-8600D01*
X115550Y-7700D01*
Y-7100D02*Y-7700D01*
Y-7100D02*X115250Y-6200D01*
X114650Y-5600D01*
X114050Y-5300D01*
X113150D02*X114050D01*
X120950D02*Y-9500D01*
Y-6200D02*X120350Y-5600D01*
X119750Y-5300D01*
X118850D02*X119750D01*
X118850D02*X118250Y-5600D01*
X117650Y-6200D01*
X117350Y-7100D01*
Y-7700D01*
X117650Y-8600D01*
X118250Y-9200D01*
X118850Y-9500D01*
X119750D01*
X120350Y-9200D01*
X120950Y-8600D01*
X122750Y-5300D02*Y-9500D01*
Y-7100D02*X123050Y-6200D01*
X123650Y-5600D01*
X124250Y-5300D01*
X125150D01*
X130550Y-3200D02*Y-9500D01*
Y-6200D02*X129950Y-5600D01*
X129350Y-5300D01*
X128450D02*X129350D01*
X128450D02*X127850Y-5600D01*
X127250Y-6200D01*
X126950Y-7100D01*
Y-7700D01*
X127250Y-8600D01*
X127850Y-9200D01*
X128450Y-9500D01*
X129350D01*
X129950Y-9200D01*
X130550Y-8600D01*
X135650Y-5300D02*X135050Y-5600D01*
X134450Y-6200D01*
X134150Y-7100D01*
Y-7700D01*
X134450Y-8600D01*
X135050Y-9200D01*
X135650Y-9500D01*
X136550D01*
X137150Y-9200D01*
X137750Y-8600D01*
X138050Y-7700D01*
Y-7100D02*Y-7700D01*
Y-7100D02*X137750Y-6200D01*
X137150Y-5600D01*
X136550Y-5300D01*
X135650D02*X136550D01*
X139850D02*Y-8300D01*
X140150Y-9200D01*
X140750Y-9500D01*
X141650D01*
X142250Y-9200D01*
X143150Y-8300D01*
Y-5300D02*Y-9500D01*
X145850Y-3200D02*Y-8300D01*
X146150Y-9200D01*
X146750Y-9500D01*
X147350D01*
X144950Y-5300D02*X147050D01*
X149150Y-3200D02*Y-9500D01*
X150950Y-3200D02*X151250Y-3500D01*
X151550Y-3200D01*
X151250Y-2900D01*
X150950Y-3200D01*
X151250Y-5300D02*Y-9500D01*
X153350Y-5300D02*Y-9500D01*
Y-6500D02*X154250Y-5600D01*
X154850Y-5300D01*
X155750D01*
X156350Y-5600D01*
X156650Y-6500D01*
Y-9500D01*
X158450Y-7100D02*X162050D01*
Y-6500D02*Y-7100D01*
Y-6500D02*X161750Y-5900D01*
X161450Y-5600D01*
X160850Y-5300D01*
X159950D02*X160850D01*
X159950D02*X159350Y-5600D01*
X158750Y-6200D01*
X158450Y-7100D01*
Y-7700D01*
X158750Y-8600D01*
X159350Y-9200D01*
X159950Y-9500D01*
X160850D01*
X161450Y-9200D01*
X162050Y-8600D01*
X165650Y-3200D02*X165950Y-3500D01*
X166250Y-3200D01*
X165950Y-2900D01*
X165650Y-3200D01*
X165950Y-5300D02*Y-9500D01*
X171350Y-6200D02*X171050Y-5600D01*
X170150Y-5300D01*
X169250D02*X170150D01*
X169250D02*X168350Y-5600D01*
X168050Y-6200D01*
X168350Y-6800D01*
X168950Y-7100D01*
X170450Y-7400D01*
X171050Y-7700D01*
X171350Y-8300D01*
Y-8600D01*
X171050Y-9200D01*
X170150Y-9500D01*
X169250D02*X170150D01*
X169250D02*X168350Y-9200D01*
X168050Y-8600D01*
X175850Y-3200D02*Y-8300D01*
X176150Y-9200D01*
X176750Y-9500D01*
X177350D01*
X174950Y-5300D02*X177050D01*
X179150Y-3200D02*Y-9500D01*
Y-6500D02*X180050Y-5600D01*
X180650Y-5300D01*
X181550D01*
X182150Y-5600D01*
X182450Y-6500D01*
Y-9500D01*
X184250Y-7100D02*X187850D01*
Y-6500D02*Y-7100D01*
Y-6500D02*X187550Y-5900D01*
X187250Y-5600D01*
X186650Y-5300D01*
X185750D02*X186650D01*
X185750D02*X185150Y-5600D01*
X184550Y-6200D01*
X184250Y-7100D01*
Y-7700D01*
X184550Y-8600D01*
X185150Y-9200D01*
X185750Y-9500D01*
X186650D01*
X187250Y-9200D01*
X187850Y-8600D01*
X195050Y-6200D02*X194450Y-5600D01*
X193850Y-5300D01*
X192950D02*X193850D01*
X192950D02*X192350Y-5600D01*
X191750Y-6200D01*
X191450Y-7100D01*
Y-7700D01*
X191750Y-8600D01*
X192350Y-9200D01*
X192950Y-9500D01*
X193850D01*
X194450Y-9200D01*
X195050Y-8600D01*
X196850Y-7100D02*X200450D01*
Y-6500D02*Y-7100D01*
Y-6500D02*X200150Y-5900D01*
X199850Y-5600D01*
X199250Y-5300D01*
X198350D02*X199250D01*
X198350D02*X197750Y-5600D01*
X197150Y-6200D01*
X196850Y-7100D01*
Y-7700D01*
X197150Y-8600D01*
X197750Y-9200D01*
X198350Y-9500D01*
X199250D01*
X199850Y-9200D01*
X200450Y-8600D01*
X202250Y-5300D02*Y-9500D01*
Y-6500D02*X203150Y-5600D01*
X203750Y-5300D01*
X204650D01*
X205250Y-5600D01*
X205550Y-6500D01*
Y-9500D01*
X208250Y-3200D02*Y-8300D01*
X208550Y-9200D01*
X209150Y-9500D01*
X209750D01*
X207350Y-5300D02*X209450D01*
X211550Y-7100D02*X215150D01*
Y-6500D02*Y-7100D01*
Y-6500D02*X214850Y-5900D01*
X214550Y-5600D01*
X213950Y-5300D01*
X213050D02*X213950D01*
X213050D02*X212450Y-5600D01*
X211850Y-6200D01*
X211550Y-7100D01*
Y-7700D01*
X211850Y-8600D01*
X212450Y-9200D01*
X213050Y-9500D01*
X213950D01*
X214550Y-9200D01*
X215150Y-8600D01*
X216950Y-5300D02*Y-9500D01*
Y-7100D02*X217250Y-6200D01*
X217850Y-5600D01*
X218450Y-5300D01*
X219350D01*
X221150Y-3200D02*Y-9500D01*
X222950Y-3200D02*X223250Y-3500D01*
X223550Y-3200D01*
X223250Y-2900D01*
X222950Y-3200D01*
X223250Y-5300D02*Y-9500D01*
X225350Y-5300D02*Y-9500D01*
Y-6500D02*X226250Y-5600D01*
X226850Y-5300D01*
X227750D01*
X228350Y-5600D01*
X228650Y-6500D01*
Y-9500D01*
X230450Y-7100D02*X234050D01*
Y-6500D02*Y-7100D01*
Y-6500D02*X233750Y-5900D01*
X233450Y-5600D01*
X232850Y-5300D01*
X231950D02*X232850D01*
X231950D02*X231350Y-5600D01*
X230750Y-6200D01*
X230450Y-7100D01*
Y-7700D01*
X230750Y-8600D01*
X231350Y-9200D01*
X231950Y-9500D01*
X232850D01*
X233450Y-9200D01*
X234050Y-8600D01*
X239150Y-5300D02*X238550Y-5600D01*
X237950Y-6200D01*
X237650Y-7100D01*
Y-7700D01*
X237950Y-8600D01*
X238550Y-9200D01*
X239150Y-9500D01*
X240050D01*
X240650Y-9200D01*
X241250Y-8600D01*
X241550Y-7700D01*
Y-7100D02*Y-7700D01*
Y-7100D02*X241250Y-6200D01*
X240650Y-5600D01*
X240050Y-5300D01*
X239150D02*X240050D01*
X245150Y-3200D02*X245750D01*
X245150D02*X244550Y-3500D01*
X244250Y-4400D01*
Y-9500D01*
X243350Y-5300D02*X245450D01*
X250250Y-3200D02*Y-8300D01*
X250550Y-9200D01*
X251150Y-9500D01*
X251750D01*
X249350Y-5300D02*X251450D01*
X253550Y-3200D02*Y-9500D01*
Y-6500D02*X254450Y-5600D01*
X255050Y-5300D01*
X255950D01*
X256550Y-5600D01*
X256850Y-6500D01*
Y-9500D01*
X258650Y-3200D02*X258950Y-3500D01*
X259250Y-3200D01*
X258950Y-2900D01*
X258650Y-3200D01*
X258950Y-5300D02*Y-9500D01*
X264350Y-6200D02*X264050Y-5600D01*
X263150Y-5300D01*
X262250D02*X263150D01*
X262250D02*X261350Y-5600D01*
X261050Y-6200D01*
X261350Y-6800D01*
X261950Y-7100D01*
X263450Y-7400D01*
X264050Y-7700D01*
X264350Y-8300D01*
Y-8600D01*
X264050Y-9200D01*
X263150Y-9500D01*
X262250D02*X263150D01*
X262250D02*X261350Y-9200D01*
X261050Y-8600D01*
X267950Y-5300D02*Y-11600D01*
Y-6200D02*X268550Y-5600D01*
X269150Y-5300D01*
X270050D01*
X270650Y-5600D01*
X271250Y-6200D01*
X271550Y-7100D01*
Y-7700D01*
X271250Y-8600D01*
X270650Y-9200D01*
X270050Y-9500D01*
X269150D02*X270050D01*
X269150D02*X268550Y-9200D01*
X267950Y-8600D01*
X276950Y-5300D02*Y-9500D01*
Y-6200D02*X276350Y-5600D01*
X275750Y-5300D01*
X274850D02*X275750D01*
X274850D02*X274250Y-5600D01*
X273650Y-6200D01*
X273350Y-7100D01*
Y-7700D01*
X273650Y-8600D01*
X274250Y-9200D01*
X274850Y-9500D01*
X275750D01*
X276350Y-9200D01*
X276950Y-8600D01*
X279650Y-3200D02*Y-8300D01*
X279950Y-9200D01*
X280550Y-9500D01*
X281150D01*
X278750Y-5300D02*X280850D01*
X282950Y-3200D02*Y-9500D01*
Y-6500D02*X283850Y-5600D01*
X284450Y-5300D01*
X285350D01*
X285950Y-5600D01*
X286250Y-6500D01*
Y-9500D01*
X200000Y619351D02*Y613051D01*
Y619351D02*X202100D01*
X203000Y619051D01*
X203600Y618451D01*
X203900Y617851D01*
X204200Y616951D01*
Y615451D01*
X203900Y614551D01*
X203600Y613951D01*
X203000Y613351D01*
X202100Y613051D01*
X200000D02*X202100D01*
X209600Y617251D02*Y613051D01*
Y616351D02*X209000Y616951D01*
X208400Y617251D01*
X207500D02*X208400D01*
X207500D02*X206900Y616951D01*
X206300Y616351D01*
X206000Y615451D01*
Y614851D01*
X206300Y613951D01*
X206900Y613351D01*
X207500Y613051D01*
X208400D01*
X209000Y613351D01*
X209600Y613951D01*
X212300Y619351D02*Y614251D01*
X212600Y613351D01*
X213200Y613051D01*
X213800D01*
X211400Y617251D02*X213500D01*
X215600Y615451D02*X219200D01*
Y616051D02*Y615451D01*
Y616051D02*X218900Y616651D01*
X218600Y616951D01*
X218000Y617251D01*
X217100D02*X218000D01*
X217100D02*X216500Y616951D01*
X215900Y616351D01*
X215600Y615451D01*
Y614851D01*
X215900Y613951D01*
X216500Y613351D01*
X217100Y613051D01*
X218000D01*
X218600Y613351D01*
X219200Y613951D01*
X221300Y617251D02*X221000Y616951D01*
X221300Y616651D01*
X221600Y616951D01*
X221300Y617251D01*
Y613651D02*X221000Y613351D01*
X221300Y613051D01*
X221600Y613351D01*
X221300Y613651D01*
X229400Y618451D02*X228800Y619051D01*
X227900Y619351D01*
X226700D02*X227900D01*
X226700D02*X225800Y619051D01*
X225200Y618451D01*
Y617851D01*
X225500Y617251D01*
X225800Y616951D01*
X226400Y616651D01*
X228200Y616051D01*
X228800Y615751D01*
X229100Y615451D01*
X229400Y614851D01*
Y613951D01*
X228800Y613351D01*
X227900Y613051D01*
X226700D02*X227900D01*
X226700D02*X225800Y613351D01*
X225200Y613951D01*
X234800Y617251D02*Y613051D01*
Y616351D02*X234200Y616951D01*
X233600Y617251D01*
X232700D02*X233600D01*
X232700D02*X232100Y616951D01*
X231500Y616351D01*
X231200Y615451D01*
Y614851D01*
X231500Y613951D01*
X232100Y613351D01*
X232700Y613051D01*
X233600D01*
X234200Y613351D01*
X234800Y613951D01*
X237500Y619351D02*Y614251D01*
X237800Y613351D01*
X238400Y613051D01*
X239000D01*
X236600Y617251D02*X238700D01*
X242600Y619351D02*Y613051D01*
Y619351D02*X246500D01*
X242600Y616351D02*X245000D01*
X248300Y615451D02*X251900D01*
Y616051D02*Y615451D01*
Y616051D02*X251600Y616651D01*
X251300Y616951D01*
X250700Y617251D01*
X249800D02*X250700D01*
X249800D02*X249200Y616951D01*
X248600Y616351D01*
X248300Y615451D01*
Y614851D01*
X248600Y613951D01*
X249200Y613351D01*
X249800Y613051D01*
X250700D01*
X251300Y613351D01*
X251900Y613951D01*
X253700Y619351D02*Y613051D01*
Y616351D02*X254300Y616951D01*
X254900Y617251D01*
X255800D01*
X256400Y616951D01*
X257000Y616351D01*
X257300Y615451D01*
Y614851D01*
X257000Y613951D01*
X256400Y613351D01*
X255800Y613051D01*
X254900D02*X255800D01*
X254900D02*X254300Y613351D01*
X253700Y613951D01*
X260900Y618151D02*X261500Y618451D01*
X262400Y619351D01*
Y613051D01*
X264800Y619351D02*X268100D01*
X266300Y616951D01*
X267200D01*
X267800Y616651D01*
X268100Y616351D01*
X268400Y615451D01*
Y614851D01*
X268100Y613951D01*
X267500Y613351D01*
X266600Y613051D01*
X265700D02*X266600D01*
X265700D02*X264800Y613351D01*
X264500Y613651D01*
X264200Y614251D01*
X272000Y618151D02*X272600Y618451D01*
X273500Y619351D01*
Y613051D01*
X275900Y619351D02*X279200D01*
X277400Y616951D01*
X278300D01*
X278900Y616651D01*
X279200Y616351D01*
X279500Y615451D01*
Y614851D01*
X279200Y613951D01*
X278600Y613351D01*
X277700Y613051D01*
X276800D02*X277700D01*
X276800D02*X275900Y613351D01*
X275600Y613651D01*
X275300Y614251D01*
X281600Y617251D02*X281300Y616951D01*
X281600Y616651D01*
X281900Y616951D01*
X281600Y617251D01*
Y613651D02*X281300Y613351D01*
X281600Y613051D01*
X281900Y613351D01*
X281600Y613651D01*
X284300Y619351D02*X287300D01*
X284300D02*X284000Y616651D01*
X284300Y616951D01*
X285200Y617251D01*
X286100D01*
X287000Y616951D01*
X287600Y616351D01*
X287900Y615451D01*
Y614851D01*
X287600Y613951D01*
X287000Y613351D01*
X286100Y613051D01*
X285200D02*X286100D01*
X285200D02*X284300Y613351D01*
X284000Y613651D01*
X283700Y614251D01*
X289700Y618151D02*X290300Y618451D01*
X291200Y619351D01*
Y613051D01*
X293300Y617251D02*X293000Y616951D01*
X293300Y616651D01*
X293600Y616951D01*
X293300Y617251D01*
Y613651D02*X293000Y613351D01*
X293300Y613051D01*
X293600Y613351D01*
X293300Y613651D01*
X295700Y618151D02*Y617851D01*
Y618151D02*X296000Y618751D01*
X296300Y619051D01*
X296900Y619351D01*
X298100D01*
X298700Y619051D01*
X299000Y618751D01*
X299300Y618151D01*
Y617551D01*
X299000Y616951D01*
X298400Y616051D01*
X295400Y613051D01*
X299600D01*
X302000Y619351D02*X305300D01*
X303500Y616951D01*
X304400D01*
X305000Y616651D01*
X305300Y616351D01*
X305600Y615451D01*
Y614851D01*
X305300Y613951D01*
X304700Y613351D01*
X303800Y613051D01*
X302900D02*X303800D01*
X302900D02*X302000Y613351D01*
X301700Y613651D01*
X301400Y614251D01*
X309500Y618151D02*Y617851D01*
Y618151D02*X309800Y618751D01*
X310100Y619051D01*
X310700Y619351D01*
X311900D01*
X312500Y619051D01*
X312800Y618751D01*
X313100Y618151D01*
Y617551D01*
X312800Y616951D01*
X312200Y616051D01*
X309200Y613051D01*
X313400D01*
X317000Y619351D02*X316100Y619051D01*
X315500Y618151D01*
X315200Y616651D01*
Y615751D01*
X315500Y614251D01*
X316100Y613351D01*
X317000Y613051D01*
X317600D01*
X318500Y613351D01*
X319100Y614251D01*
X319400Y615751D01*
Y616651D02*Y615751D01*
Y616651D02*X319100Y618151D01*
X318500Y619051D01*
X317600Y619351D01*
X317000D02*X317600D01*
X321500Y618151D02*Y617851D01*
Y618151D02*X321800Y618751D01*
X322100Y619051D01*
X322700Y619351D01*
X323900D01*
X324500Y619051D01*
X324800Y618751D01*
X325100Y618151D01*
Y617551D01*
X324800Y616951D01*
X324200Y616051D01*
X321200Y613051D01*
X325400D01*
X327200Y618151D02*X327800Y618451D01*
X328700Y619351D01*
Y613051D01*
X332300Y619351D02*Y614851D01*
X332600Y613951D01*
X333200Y613351D01*
X334100Y613051D01*
X334700D01*
X335600Y613351D01*
X336200Y613951D01*
X336500Y614851D01*
Y619351D02*Y614851D01*
X340400Y619351D02*Y613051D01*
X338300Y619351D02*X342500D01*
X348800Y617851D02*X348500Y618451D01*
X347900Y619051D01*
X347300Y619351D01*
X346100D02*X347300D01*
X346100D02*X345500Y619051D01*
X344900Y618451D01*
X344600Y617851D01*
X344300Y616951D01*
Y615451D01*
X344600Y614551D01*
X344900Y613951D01*
X345500Y613351D01*
X346100Y613051D01*
X347300D01*
X347900Y613351D01*
X348500Y613951D01*
X348800Y614551D01*
X202400Y634351D02*X200000Y628051D01*
X202400Y634351D02*X204800Y628051D01*
X200900Y630151D02*X203900D01*
X206600Y632251D02*Y629251D01*
X206900Y628351D01*
X207500Y628051D01*
X208400D01*
X209000Y628351D01*
X209900Y629251D01*
Y632251D02*Y628051D01*
X212600Y634351D02*Y629251D01*
X212900Y628351D01*
X213500Y628051D01*
X214100D01*
X211700Y632251D02*X213800D01*
X215900Y634351D02*Y628051D01*
Y631051D02*X216800Y631951D01*
X217400Y632251D01*
X218300D01*
X218900Y631951D01*
X219200Y631051D01*
Y628051D01*
X222500Y632251D02*X221900Y631951D01*
X221300Y631351D01*
X221000Y630451D01*
Y629851D01*
X221300Y628951D01*
X221900Y628351D01*
X222500Y628051D01*
X223400D01*
X224000Y628351D01*
X224600Y628951D01*
X224900Y629851D01*
Y630451D02*Y629851D01*
Y630451D02*X224600Y631351D01*
X224000Y631951D01*
X223400Y632251D01*
X222500D02*X223400D01*
X226700D02*Y628051D01*
Y630451D02*X227000Y631351D01*
X227600Y631951D01*
X228200Y632251D01*
X229100D01*
X231200D02*X230900Y631951D01*
X231200Y631651D01*
X231500Y631951D01*
X231200Y632251D01*
Y628651D02*X230900Y628351D01*
X231200Y628051D01*
X231500Y628351D01*
X231200Y628651D01*
X235100Y634351D02*Y628051D01*
Y634351D02*X237800D01*
X238700Y634051D01*
X239000Y633751D01*
X239300Y633151D01*
Y632551D01*
X239000Y631951D01*
X238700Y631651D01*
X237800Y631351D01*
X235100D02*X237800D01*
X238700Y631051D01*
X239000Y630751D01*
X239300Y630151D01*
Y629251D01*
X239000Y628651D01*
X238700Y628351D01*
X237800Y628051D01*
X235100D02*X237800D01*
X241100Y630451D02*X244700D01*
Y631051D02*Y630451D01*
Y631051D02*X244400Y631651D01*
X244100Y631951D01*
X243500Y632251D01*
X242600D02*X243500D01*
X242600D02*X242000Y631951D01*
X241400Y631351D01*
X241100Y630451D01*
Y629851D01*
X241400Y628951D01*
X242000Y628351D01*
X242600Y628051D01*
X243500D01*
X244100Y628351D01*
X244700Y628951D01*
X246500Y632251D02*Y628051D01*
Y630451D02*X246800Y631351D01*
X247400Y631951D01*
X248000Y632251D01*
X248900D01*
X251600Y634351D02*Y629251D01*
X251900Y628351D01*
X252500Y628051D01*
X253100D01*
X250700Y632251D02*X252800D01*
X258800Y634351D02*Y628051D01*
X256700Y634351D02*X260900D01*
X262700D02*X263000Y634051D01*
X263300Y634351D01*
X263000Y634651D01*
X262700Y634351D01*
X263000Y632251D02*Y628051D01*
X265100Y632251D02*Y628051D01*
Y631051D02*X266000Y631951D01*
X266600Y632251D01*
X267500D01*
X268100Y631951D01*
X268400Y631051D01*
Y628051D01*
Y631051D02*X269300Y631951D01*
X269900Y632251D01*
X270800D01*
X271400Y631951D01*
X271700Y631051D01*
Y628051D01*
X273500Y632251D02*Y628051D01*
Y631051D02*X274400Y631951D01*
X275000Y632251D01*
X275900D01*
X276500Y631951D01*
X276800Y631051D01*
Y628051D01*
Y631051D02*X277700Y631951D01*
X278300Y632251D01*
X279200D01*
X279800Y631951D01*
X280100Y631051D01*
Y628051D01*
X281900Y630451D02*X285500D01*
Y631051D02*Y630451D01*
Y631051D02*X285200Y631651D01*
X284900Y631951D01*
X284300Y632251D01*
X283400D02*X284300D01*
X283400D02*X282800Y631951D01*
X282200Y631351D01*
X281900Y630451D01*
Y629851D01*
X282200Y628951D01*
X282800Y628351D01*
X283400Y628051D01*
X284300D01*
X284900Y628351D01*
X285500Y628951D01*
X287300Y632251D02*Y628051D01*
Y630451D02*X287600Y631351D01*
X288200Y631951D01*
X288800Y632251D01*
X289700D01*
X291500D02*Y628051D01*
Y631051D02*X292400Y631951D01*
X293000Y632251D01*
X293900D01*
X294500Y631951D01*
X294800Y631051D01*
Y628051D01*
Y631051D02*X295700Y631951D01*
X296300Y632251D01*
X297200D01*
X297800Y631951D01*
X298100Y631051D01*
Y628051D01*
X303500Y632251D02*Y628051D01*
Y631351D02*X302900Y631951D01*
X302300Y632251D01*
X301400D02*X302300D01*
X301400D02*X300800Y631951D01*
X300200Y631351D01*
X299900Y630451D01*
Y629851D01*
X300200Y628951D01*
X300800Y628351D01*
X301400Y628051D01*
X302300D01*
X302900Y628351D01*
X303500Y628951D01*
X305300Y632251D02*Y628051D01*
Y631051D02*X306200Y631951D01*
X306800Y632251D01*
X307700D01*
X308300Y631951D01*
X308600Y631051D01*
Y628051D01*
X202100Y649351D02*Y643051D01*
X200000Y649351D02*X204200D01*
X206000D02*X206300Y649051D01*
X206600Y649351D01*
X206300Y649651D01*
X206000Y649351D01*
X206300Y647251D02*Y643051D01*
X209300Y649351D02*Y644251D01*
X209600Y643351D01*
X210200Y643051D01*
X210800D01*
X208400Y647251D02*X210500D01*
X212600Y649351D02*Y643051D01*
X214400Y645451D02*X218000D01*
Y646051D02*Y645451D01*
Y646051D02*X217700Y646651D01*
X217400Y646951D01*
X216800Y647251D01*
X215900D02*X216800D01*
X215900D02*X215300Y646951D01*
X214700Y646351D01*
X214400Y645451D01*
Y644851D01*
X214700Y643951D01*
X215300Y643351D01*
X215900Y643051D01*
X216800D01*
X217400Y643351D01*
X218000Y643951D01*
X220100Y647251D02*X219800Y646951D01*
X220100Y646651D01*
X220400Y646951D01*
X220100Y647251D01*
Y643651D02*X219800Y643351D01*
X220100Y643051D01*
X220400Y643351D01*
X220100Y643651D01*
X224300Y648151D02*Y647851D01*
Y648151D02*X224600Y648751D01*
X224900Y649051D01*
X225500Y649351D01*
X226700D01*
X227300Y649051D01*
X227600Y648751D01*
X227900Y648151D01*
Y647551D01*
X227600Y646951D01*
X227000Y646051D01*
X224000Y643051D01*
X228200D01*
X233600Y648451D02*X233300Y649051D01*
X232400Y649351D01*
X231800D02*X232400D01*
X231800D02*X230900Y649051D01*
X230300Y648151D01*
X230000Y646651D01*
Y645151D01*
X230300Y643951D01*
X230900Y643351D01*
X231800Y643051D01*
X232100D01*
X233000Y643351D01*
X233600Y643951D01*
X233900Y644851D01*
Y645151D02*Y644851D01*
Y645151D02*X233600Y646051D01*
X233000Y646651D01*
X232100Y646951D01*
X231800D02*X232100D01*
X231800D02*X230900Y646651D01*
X230300Y646051D01*
X230000Y645151D01*
X236000Y643651D02*X235700Y643351D01*
X236000Y643051D01*
X236300Y643351D01*
X236000Y643651D01*
X239900Y649351D02*X239000Y649051D01*
X238400Y648151D01*
X238100Y646651D01*
Y645751D01*
X238400Y644251D01*
X239000Y643351D01*
X239900Y643051D01*
X240500D01*
X241400Y643351D01*
X242000Y644251D01*
X242300Y645751D01*
Y646651D02*Y645751D01*
Y646651D02*X242000Y648151D01*
X241400Y649051D01*
X240500Y649351D01*
X239900D02*X240500D01*
X245900D02*X245000Y649051D01*
X244400Y648151D01*
X244100Y646651D01*
Y645751D01*
X244400Y644251D01*
X245000Y643351D01*
X245900Y643051D01*
X246500D01*
X247400Y643351D01*
X248000Y644251D01*
X248300Y645751D01*
Y646651D02*Y645751D01*
Y646651D02*X248000Y648151D01*
X247400Y649051D01*
X246500Y649351D01*
X245900D02*X246500D01*
X250100Y648151D02*X250700Y648451D01*
X251600Y649351D01*
Y643051D01*
X253700Y643651D02*X253400Y643351D01*
X253700Y643051D01*
X254000Y643351D01*
X253700Y643651D01*
X257600Y649351D02*X256700Y649051D01*
X256100Y648151D01*
X255800Y646651D01*
Y645751D01*
X256100Y644251D01*
X256700Y643351D01*
X257600Y643051D01*
X258200D01*
X259100Y643351D01*
X259700Y644251D01*
X260000Y645751D01*
Y646651D02*Y645751D01*
Y646651D02*X259700Y648151D01*
X259100Y649051D01*
X258200Y649351D01*
X257600D02*X258200D01*
X263600D02*X262700Y649051D01*
X262100Y648151D01*
X261800Y646651D01*
Y645751D01*
X262100Y644251D01*
X262700Y643351D01*
X263600Y643051D01*
X264200D01*
X265100Y643351D01*
X265700Y644251D01*
X266000Y645751D01*
Y646651D02*Y645751D01*
Y646651D02*X265700Y648151D01*
X265100Y649051D01*
X264200Y649351D01*
X263600D02*X264200D01*
X268100Y643651D02*X267800Y643351D01*
X268100Y643051D01*
X268400Y643351D01*
X268100Y643651D01*
X272000Y649351D02*X271100Y649051D01*
X270500Y648151D01*
X270200Y646651D01*
Y645751D01*
X270500Y644251D01*
X271100Y643351D01*
X272000Y643051D01*
X272600D01*
X273500Y643351D01*
X274100Y644251D01*
X274400Y645751D01*
Y646651D02*Y645751D01*
Y646651D02*X274100Y648151D01*
X273500Y649051D01*
X272600Y649351D01*
X272000D02*X272600D01*
X276200Y648151D02*X276800Y648451D01*
X277700Y649351D01*
Y643051D01*
X279800Y643651D02*X279500Y643351D01*
X279800Y643051D01*
X280100Y643351D01*
X279800Y643651D01*
X283700Y649351D02*X282800Y649051D01*
X282200Y648151D01*
X281900Y646651D01*
Y645751D01*
X282200Y644251D01*
X282800Y643351D01*
X283700Y643051D01*
X284300D01*
X285200Y643351D01*
X285800Y644251D01*
X286100Y645751D01*
Y646651D02*Y645751D01*
Y646651D02*X285800Y648151D01*
X285200Y649051D01*
X284300Y649351D01*
X283700D02*X284300D01*
X287900Y648151D02*X288500Y648451D01*
X289400Y649351D01*
Y643051D01*
X291500Y643651D02*X291200Y643351D01*
X291500Y643051D01*
X291800Y643351D01*
X291500Y643651D01*
X293600Y647251D02*Y640951D01*
Y646351D02*X294200Y646951D01*
X294800Y647251D01*
X295700D01*
X296300Y646951D01*
X296900Y646351D01*
X297200Y645451D01*
Y644851D01*
X296900Y643951D01*
X296300Y643351D01*
X295700Y643051D01*
X294800D02*X295700D01*
X294800D02*X294200Y643351D01*
X293600Y643951D01*
X302600Y646351D02*X302000Y646951D01*
X301400Y647251D01*
X300500D02*X301400D01*
X300500D02*X299900Y646951D01*
X299300Y646351D01*
X299000Y645451D01*
Y644851D01*
X299300Y643951D01*
X299900Y643351D01*
X300500Y643051D01*
X301400D01*
X302000Y643351D01*
X302600Y643951D01*
X304400Y649351D02*Y643051D01*
Y646351D02*X305000Y646951D01*
X305600Y647251D01*
X306500D01*
X307100Y646951D01*
X307700Y646351D01*
X308000Y645451D01*
Y644851D01*
X307700Y643951D01*
X307100Y643351D01*
X306500Y643051D01*
X305600D02*X306500D01*
X305600D02*X305000Y643351D01*
X304400Y643951D01*
X311600Y645751D02*X317000D01*
X320600Y649351D02*Y643051D01*
Y649351D02*X324500D01*
X320600Y646351D02*X323000D01*
X329900Y647251D02*Y643051D01*
Y646351D02*X329300Y646951D01*
X328700Y647251D01*
X327800D02*X328700D01*
X327800D02*X327200Y646951D01*
X326600Y646351D01*
X326300Y645451D01*
Y644851D01*
X326600Y643951D01*
X327200Y643351D01*
X327800Y643051D01*
X328700D01*
X329300Y643351D01*
X329900Y643951D01*
X331700Y649351D02*Y643051D01*
Y646351D02*X332300Y646951D01*
X332900Y647251D01*
X333800D01*
X334400Y646951D01*
X335000Y646351D01*
X335300Y645451D01*
Y644851D01*
X335000Y643951D01*
X334400Y643351D01*
X333800Y643051D01*
X332900D02*X333800D01*
X332900D02*X332300Y643351D01*
X331700Y643951D01*
X337100Y647251D02*Y643051D01*
Y645451D02*X337400Y646351D01*
X338000Y646951D01*
X338600Y647251D01*
X339500D01*
X341300Y649351D02*X341600Y649051D01*
X341900Y649351D01*
X341600Y649651D01*
X341300Y649351D01*
X341600Y647251D02*Y643051D01*
X347300Y646351D02*X346700Y646951D01*
X346100Y647251D01*
X345200D02*X346100D01*
X345200D02*X344600Y646951D01*
X344000Y646351D01*
X343700Y645451D01*
Y644851D01*
X344000Y643951D01*
X344600Y643351D01*
X345200Y643051D01*
X346100D01*
X346700Y643351D01*
X347300Y643951D01*
X352700Y647251D02*Y643051D01*
Y646351D02*X352100Y646951D01*
X351500Y647251D01*
X350600D02*X351500D01*
X350600D02*X350000Y646951D01*
X349400Y646351D01*
X349100Y645451D01*
Y644851D01*
X349400Y643951D01*
X350000Y643351D01*
X350600Y643051D01*
X351500D01*
X352100Y643351D01*
X352700Y643951D01*
X355400Y649351D02*Y644251D01*
X355700Y643351D01*
X356300Y643051D01*
X356900D01*
X354500Y647251D02*X356600D01*
X358700Y649351D02*X359000Y649051D01*
X359300Y649351D01*
X359000Y649651D01*
X358700Y649351D01*
X359000Y647251D02*Y643051D01*
X362600Y647251D02*X362000Y646951D01*
X361400Y646351D01*
X361100Y645451D01*
Y644851D01*
X361400Y643951D01*
X362000Y643351D01*
X362600Y643051D01*
X363500D01*
X364100Y643351D01*
X364700Y643951D01*
X365000Y644851D01*
Y645451D02*Y644851D01*
Y645451D02*X364700Y646351D01*
X364100Y646951D01*
X363500Y647251D01*
X362600D02*X363500D01*
X366800D02*Y643051D01*
Y646051D02*X367700Y646951D01*
X368300Y647251D01*
X369200D01*
X369800Y646951D01*
X370100Y646051D01*
Y643051D01*
X373700Y649351D02*Y643051D01*
Y649351D02*X375800D01*
X376700Y649051D01*
X377300Y648451D01*
X377600Y647851D01*
X377900Y646951D01*
Y645451D01*
X377600Y644551D01*
X377300Y643951D01*
X376700Y643351D01*
X375800Y643051D01*
X373700D02*X375800D01*
X379700Y647251D02*Y643051D01*
Y645451D02*X380000Y646351D01*
X380600Y646951D01*
X381200Y647251D01*
X382100D01*
X387500D02*Y643051D01*
Y646351D02*X386900Y646951D01*
X386300Y647251D01*
X385400D02*X386300D01*
X385400D02*X384800Y646951D01*
X384200Y646351D01*
X383900Y645451D01*
Y644851D01*
X384200Y643951D01*
X384800Y643351D01*
X385400Y643051D01*
X386300D01*
X386900Y643351D01*
X387500Y643951D01*
X389300Y647251D02*X390500Y643051D01*
X391700Y647251D02*X390500Y643051D01*
X391700Y647251D02*X392900Y643051D01*
X394100Y647251D02*X392900Y643051D01*
X395900Y649351D02*X396200Y649051D01*
X396500Y649351D01*
X396200Y649651D01*
X395900Y649351D01*
X396200Y647251D02*Y643051D01*
X398300Y647251D02*Y643051D01*
Y646051D02*X399200Y646951D01*
X399800Y647251D01*
X400700D01*
X401300Y646951D01*
X401600Y646051D01*
Y643051D01*
X407000Y647251D02*Y642451D01*
X406700Y641551D01*
X406400Y641251D01*
X405800Y640951D01*
X404900D02*X405800D01*
X404900D02*X404300Y641251D01*
X407000Y646351D02*X406400Y646951D01*
X405800Y647251D01*
X404900D02*X405800D01*
X404900D02*X404300Y646951D01*
X403700Y646351D01*
X403400Y645451D01*
Y644851D01*
X403700Y643951D01*
X404300Y643351D01*
X404900Y643051D01*
X405800D01*
X406400Y643351D01*
X407000Y643951D01*
M02*
