G04 start of page 11 for group -3984 idx -3984 *
G04 Title: 26.003.00.01.01.pcb, fab *
G04 Creator: pcb 4.1.2 *
G04 CreationDate: Sat Aug 11 09:36:16 2018 UTC *
G04 For: bert *
G04 Format: Gerber/RS-274X *
G04 PCB-Dimensions (mil): 6896.06 4633.86 *
G04 PCB-Coordinate-Origin: lower left *
%MOIN*%
%FSLAX25Y25*%
%LNFAB*%
%ADD103C,0.0100*%
%ADD102C,0.0060*%
%ADD101C,0.0080*%
G54D101*X323400Y424986D02*X326600D01*
X323400D02*Y421786D01*
X326600D01*
Y424986D02*Y421786D01*
X321800Y426586D02*X328200D01*
X321800D02*Y420186D01*
X328200D01*
Y426586D02*Y420186D01*
X325000Y88386D02*Y83586D01*
Y88386D02*X329160Y90786D01*
X325000Y88386D02*X320840Y90786D01*
X323400Y88386D02*G75*G03X326600Y88386I1600J0D01*G01*
G75*G03X323400Y88386I-1600J0D01*G01*
X321800D02*G75*G03X328200Y88386I3200J0D01*G01*
G75*G03X321800Y88386I-3200J0D01*G01*
X28400Y424986D02*X31600D01*
X28400D02*Y421786D01*
X31600D01*
Y424986D02*Y421786D01*
X26800Y426586D02*X33200D01*
X26800D02*Y420186D01*
X33200D01*
Y426586D02*Y420186D01*
X28400Y89986D02*X31600D01*
X28400D02*Y86786D01*
X31600D01*
Y89986D02*Y86786D01*
X26800Y91586D02*X33200D01*
X26800D02*Y85186D01*
X33200D01*
Y91586D02*Y85186D01*
X15000Y474636D02*Y469836D01*
Y474636D02*X19160Y477036D01*
X15000Y474636D02*X10840Y477036D01*
X13400Y474636D02*G75*G03X16600Y474636I1600J0D01*G01*
G75*G03X13400Y474636I-1600J0D01*G01*
X11800D02*G75*G03X18200Y474636I3200J0D01*G01*
G75*G03X11800Y474636I-3200J0D01*G01*
G54D102*X135000Y477186D02*X137400Y474186D01*
Y470886D01*
X139800Y477186D02*X137400Y474186D01*
X141600Y477186D02*Y470886D01*
Y477186D02*X145500D01*
X141600Y474186D02*X144000D01*
X141600Y470886D02*X145500D01*
X151500Y476286D02*X150900Y476886D01*
X150000Y477186D01*
X148800D02*X150000D01*
X148800D02*X147900Y476886D01*
X147300Y476286D01*
Y475686D01*
X147600Y475086D01*
X147900Y474786D01*
X148500Y474486D01*
X150300Y473886D01*
X150900Y473586D01*
X151200Y473286D01*
X151500Y472686D01*
Y471786D01*
X150900Y471186D01*
X150000Y470886D01*
X148800D02*X150000D01*
X148800D02*X147900Y471186D01*
X147300Y471786D01*
X98000Y475986D02*X98600Y476286D01*
X99500Y477186D01*
Y470886D01*
X13400Y491236D02*X16600D01*
X13400D02*Y488036D01*
X16600D01*
Y491236D02*Y488036D01*
X11800Y492836D02*X18200D01*
X11800D02*Y486436D01*
X18200D01*
Y492836D02*Y486436D01*
X140000Y492186D02*Y485886D01*
Y492186D02*X144200Y485886D01*
Y492186D02*Y485886D01*
X147800Y492186D02*X147200Y491886D01*
X146600Y491286D01*
X146300Y490686D01*
X146000Y489786D01*
Y488286D01*
X146300Y487386D01*
X146600Y486786D01*
X147200Y486186D01*
X147800Y485886D01*
X149000D01*
X149600Y486186D01*
X150200Y486786D01*
X150500Y487386D01*
X150800Y488286D01*
Y489786D02*Y488286D01*
Y489786D02*X150500Y490686D01*
X150200Y491286D01*
X149600Y491886D01*
X149000Y492186D01*
X147800D02*X149000D01*
X98600D02*X101900D01*
X100100Y489786D01*
X101000D01*
X101600Y489486D01*
X101900Y489186D01*
X102200Y488286D01*
Y487686D01*
X101900Y486786D01*
X101300Y486186D01*
X100400Y485886D01*
X99500D02*X100400D01*
X99500D02*X98600Y486186D01*
X98300Y486486D01*
X98000Y487086D01*
X46800Y492186D02*X45900Y491886D01*
X45300Y490986D01*
X45000Y489486D01*
Y488586D01*
X45300Y487086D01*
X45900Y486186D01*
X46800Y485886D01*
X47400D01*
X48300Y486186D01*
X48900Y487086D01*
X49200Y488586D01*
Y489486D02*Y488586D01*
Y489486D02*X48900Y490986D01*
X48300Y491886D01*
X47400Y492186D01*
X46800D02*X47400D01*
X51300Y486486D02*X51000Y486186D01*
X51300Y485886D01*
X51600Y486186D01*
X51300Y486486D01*
X53400Y490986D02*X54000Y491286D01*
X54900Y492186D01*
Y485886D01*
X59700Y492186D02*X56700Y487986D01*
X61200D01*
X59700Y492186D02*Y485886D01*
X66600Y491286D02*X66300Y491886D01*
X65400Y492186D01*
X64800D02*X65400D01*
X64800D02*X63900Y491886D01*
X63300Y490986D01*
X63000Y489486D01*
Y487986D01*
X63300Y486786D01*
X63900Y486186D01*
X64800Y485886D01*
X65100D01*
X66000Y486186D01*
X66600Y486786D01*
X66900Y487686D01*
Y487986D02*Y487686D01*
Y487986D02*X66600Y488886D01*
X66000Y489486D01*
X65100Y489786D01*
X64800D02*X65100D01*
X64800D02*X63900Y489486D01*
X63300Y488886D01*
X63000Y487986D01*
X46800Y477186D02*X45900Y476886D01*
X45300Y475986D01*
X45000Y474486D01*
Y473586D01*
X45300Y472086D01*
X45900Y471186D01*
X46800Y470886D01*
X47400D01*
X48300Y471186D01*
X48900Y472086D01*
X49200Y473586D01*
Y474486D02*Y473586D01*
Y474486D02*X48900Y475986D01*
X48300Y476886D01*
X47400Y477186D01*
X46800D02*X47400D01*
X51300Y471486D02*X51000Y471186D01*
X51300Y470886D01*
X51600Y471186D01*
X51300Y471486D01*
X53400Y475986D02*X54000Y476286D01*
X54900Y477186D01*
Y470886D01*
X59700Y477186D02*X56700Y472986D01*
X61200D01*
X59700Y477186D02*Y470886D01*
X66600Y476286D02*X66300Y476886D01*
X65400Y477186D01*
X64800D02*X65400D01*
X64800D02*X63900Y476886D01*
X63300Y475986D01*
X63000Y474486D01*
Y472986D01*
X63300Y471786D01*
X63900Y471186D01*
X64800Y470886D01*
X65100D01*
X66000Y471186D01*
X66600Y471786D01*
X66900Y472686D01*
Y472986D02*Y472686D01*
Y472986D02*X66600Y473886D01*
X66000Y474486D01*
X65100Y474786D01*
X64800D02*X65100D01*
X64800D02*X63900Y474486D01*
X63300Y473886D01*
X63000Y472986D01*
X621403Y423859D02*G75*G03X623003Y423859I800J0D01*G01*
G75*G03X621403Y423859I-800J0D01*G01*
X619803D02*G75*G03X624603Y423859I2400J0D01*G01*
G75*G03X619803Y423859I-2400J0D01*G01*
X621403Y89213D02*G75*G03X623003Y89213I800J0D01*G01*
G75*G03X621403Y89213I-800J0D01*G01*
X619803D02*G75*G03X624603Y89213I2400J0D01*G01*
G75*G03X619803Y89213I-2400J0D01*G01*
X14200Y504636D02*G75*G03X15800Y504636I800J0D01*G01*
G75*G03X14200Y504636I-800J0D01*G01*
X12600D02*G75*G03X17400Y504636I2400J0D01*G01*
G75*G03X12600Y504636I-2400J0D01*G01*
X140000Y507186D02*Y500886D01*
Y507186D02*X144200Y500886D01*
Y507186D02*Y500886D01*
X147800Y507186D02*X147200Y506886D01*
X146600Y506286D01*
X146300Y505686D01*
X146000Y504786D01*
Y503286D01*
X146300Y502386D01*
X146600Y501786D01*
X147200Y501186D01*
X147800Y500886D01*
X149000D01*
X149600Y501186D01*
X150200Y501786D01*
X150500Y502386D01*
X150800Y503286D01*
Y504786D02*Y503286D01*
Y504786D02*X150500Y505686D01*
X150200Y506286D01*
X149600Y506886D01*
X149000Y507186D01*
X147800D02*X149000D01*
X98300Y505986D02*Y505686D01*
Y505986D02*X98600Y506586D01*
X98900Y506886D01*
X99500Y507186D01*
X100700D01*
X101300Y506886D01*
X101600Y506586D01*
X101900Y505986D01*
Y505386D01*
X101600Y504786D01*
X101000Y503886D01*
X98000Y500886D01*
X102200D01*
X46800Y507186D02*X45900Y506886D01*
X45300Y505986D01*
X45000Y504486D01*
Y503586D01*
X45300Y502086D01*
X45900Y501186D01*
X46800Y500886D01*
X47400D01*
X48300Y501186D01*
X48900Y502086D01*
X49200Y503586D01*
Y504486D02*Y503586D01*
Y504486D02*X48900Y505986D01*
X48300Y506886D01*
X47400Y507186D01*
X46800D02*X47400D01*
X51300Y501486D02*X51000Y501186D01*
X51300Y500886D01*
X51600Y501186D01*
X51300Y501486D01*
X53400Y505986D02*X54000Y506286D01*
X54900Y507186D01*
Y500886D01*
X56700Y505986D02*X57300Y506286D01*
X58200Y507186D01*
Y500886D01*
X61800Y507186D02*X60900Y506886D01*
X60300Y505986D01*
X60000Y504486D01*
Y503586D01*
X60300Y502086D01*
X60900Y501186D01*
X61800Y500886D01*
X62400D01*
X63300Y501186D01*
X63900Y502086D01*
X64200Y503586D01*
Y504486D02*Y503586D01*
Y504486D02*X63900Y505986D01*
X63300Y506886D01*
X62400Y507186D01*
X61800D02*X62400D01*
X609960Y406574D02*X614760Y401774D01*
X609960D02*X614760Y406574D01*
X610760Y405774D02*X613960D01*
X610760D02*Y402574D01*
X613960D01*
Y405774D02*Y402574D01*
X600118Y396732D02*X604918Y391932D01*
X600118D02*X604918Y396732D01*
X600918Y395932D02*X604118D01*
X600918D02*Y392732D01*
X604118D01*
Y395932D02*Y392732D01*
X609960Y386889D02*X614760Y382089D01*
X609960D02*X614760Y386889D01*
X610760Y386089D02*X613960D01*
X610760D02*Y382889D01*
X613960D01*
Y386089D02*Y382889D01*
X600118Y377047D02*X604918Y372247D01*
X600118D02*X604918Y377047D01*
X600918Y376247D02*X604118D01*
X600918D02*Y373047D01*
X604118D01*
Y376247D02*Y373047D01*
X609960Y367204D02*X614760Y362404D01*
X609960D02*X614760Y367204D01*
X610760Y366404D02*X613960D01*
X610760D02*Y363204D01*
X613960D01*
Y366404D02*Y363204D01*
X600118Y357361D02*X604918Y352561D01*
X600118D02*X604918Y357361D01*
X600918Y356561D02*X604118D01*
X600918D02*Y353361D01*
X604118D01*
Y356561D02*Y353361D01*
X609960Y347519D02*X614760Y342719D01*
X609960D02*X614760Y347519D01*
X610760Y346719D02*X613960D01*
X610760D02*Y343519D01*
X613960D01*
Y346719D02*Y343519D01*
X600118Y337676D02*X604918Y332876D01*
X600118D02*X604918Y337676D01*
X600918Y336876D02*X604118D01*
X600918D02*Y333676D01*
X604118D01*
Y336876D02*Y333676D01*
X609960Y327834D02*X614760Y323034D01*
X609960D02*X614760Y327834D01*
X610760Y327034D02*X613960D01*
X610760D02*Y323834D01*
X613960D01*
Y327034D02*Y323834D01*
X600118Y317991D02*X604918Y313191D01*
X600118D02*X604918Y317991D01*
X600918Y317191D02*X604118D01*
X600918D02*Y313991D01*
X604118D01*
Y317191D02*Y313991D01*
X609960Y308149D02*X614760Y303349D01*
X609960D02*X614760Y308149D01*
X610760Y307349D02*X613960D01*
X610760D02*Y304149D01*
X613960D01*
Y307349D02*Y304149D01*
X600118Y298306D02*X604918Y293506D01*
X600118D02*X604918Y298306D01*
X600918Y297506D02*X604118D01*
X600918D02*Y294306D01*
X604118D01*
Y297506D02*Y294306D01*
X609960Y288464D02*X614760Y283664D01*
X609960D02*X614760Y288464D01*
X610760Y287664D02*X613960D01*
X610760D02*Y284464D01*
X613960D01*
Y287664D02*Y284464D01*
X600118Y278621D02*X604918Y273821D01*
X600118D02*X604918Y278621D01*
X600918Y277821D02*X604118D01*
X600918D02*Y274621D01*
X604118D01*
Y277821D02*Y274621D01*
X609960Y268779D02*X614760Y263979D01*
X609960D02*X614760Y268779D01*
X610760Y267979D02*X613960D01*
X610760D02*Y264779D01*
X613960D01*
Y267979D02*Y264779D01*
X600118Y258937D02*X604918Y254137D01*
X600118D02*X604918Y258937D01*
X600918Y258137D02*X604118D01*
X600918D02*Y254937D01*
X604118D01*
Y258137D02*Y254937D01*
X600118Y239252D02*X604918Y234452D01*
X600118D02*X604918Y239252D01*
X600918Y238452D02*X604118D01*
X600918D02*Y235252D01*
X604118D01*
Y238452D02*Y235252D01*
X609960Y249094D02*X614760Y244294D01*
X609960D02*X614760Y249094D01*
X610760Y248294D02*X613960D01*
X610760D02*Y245094D01*
X613960D01*
Y248294D02*Y245094D01*
X609960Y229409D02*X614760Y224609D01*
X609960D02*X614760Y229409D01*
X610760Y228609D02*X613960D01*
X610760D02*Y225409D01*
X613960D01*
Y228609D02*Y225409D01*
X600118Y219567D02*X604918Y214767D01*
X600118D02*X604918Y219567D01*
X600918Y218767D02*X604118D01*
X600918D02*Y215567D01*
X604118D01*
Y218767D02*Y215567D01*
X609960Y209724D02*X614760Y204924D01*
X609960D02*X614760Y209724D01*
X610760Y208924D02*X613960D01*
X610760D02*Y205724D01*
X613960D01*
Y208924D02*Y205724D01*
X600118Y199881D02*X604918Y195081D01*
X600118D02*X604918Y199881D01*
X600918Y199081D02*X604118D01*
X600918D02*Y195881D01*
X604118D01*
Y199081D02*Y195881D01*
X609960Y190039D02*X614760Y185239D01*
X609960D02*X614760Y190039D01*
X610760Y189239D02*X613960D01*
X610760D02*Y186039D01*
X613960D01*
Y189239D02*Y186039D01*
X600118Y180196D02*X604918Y175396D01*
X600118D02*X604918Y180196D01*
X600918Y179396D02*X604118D01*
X600918D02*Y176196D01*
X604118D01*
Y179396D02*Y176196D01*
X609960Y170354D02*X614760Y165554D01*
X609960D02*X614760Y170354D01*
X610760Y169554D02*X613960D01*
X610760D02*Y166354D01*
X613960D01*
Y169554D02*Y166354D01*
X600118Y160511D02*X604918Y155711D01*
X600118D02*X604918Y160511D01*
X600918Y159711D02*X604118D01*
X600918D02*Y156511D01*
X604118D01*
Y159711D02*Y156511D01*
X609960Y150669D02*X614760Y145869D01*
X609960D02*X614760Y150669D01*
X610760Y149869D02*X613960D01*
X610760D02*Y146669D01*
X613960D01*
Y149869D02*Y146669D01*
X600118Y140826D02*X604918Y136026D01*
X600118D02*X604918Y140826D01*
X600918Y140026D02*X604118D01*
X600918D02*Y136826D01*
X604118D01*
Y140026D02*Y136826D01*
X609960Y130984D02*X614760Y126184D01*
X609960D02*X614760Y130984D01*
X610760Y130184D02*X613960D01*
X610760D02*Y126984D01*
X613960D01*
Y130184D02*Y126984D01*
X600118Y121141D02*X604918Y116341D01*
X600118D02*X604918Y121141D01*
X600918Y120341D02*X604118D01*
X600918D02*Y117141D01*
X604118D01*
Y120341D02*Y117141D01*
X609960Y111299D02*X614760Y106499D01*
X609960D02*X614760Y111299D01*
X610760Y110499D02*X613960D01*
X610760D02*Y107299D01*
X613960D01*
Y110499D02*Y107299D01*
X412285Y430628D02*X417085Y425828D01*
X412285D02*X417085Y430628D01*
X413085Y429828D02*X416285D01*
X413085D02*Y426628D01*
X416285D01*
Y429828D02*Y426628D01*
X372915Y430628D02*X377715Y425828D01*
X372915D02*X377715Y430628D01*
X373715Y429828D02*X376915D01*
X373715D02*Y426628D01*
X376915D01*
Y429828D02*Y426628D01*
X392600Y410944D02*X397400Y406144D01*
X392600D02*X397400Y410944D01*
X393400Y410144D02*X396600D01*
X393400D02*Y406944D01*
X396600D01*
Y410144D02*Y406944D01*
X12600Y522036D02*X17400Y517236D01*
X12600D02*X17400Y522036D01*
X13400Y521236D02*X16600D01*
X13400D02*Y518036D01*
X16600D01*
Y521236D02*Y518036D01*
X135000Y522186D02*X137400Y519186D01*
Y515886D01*
X139800Y522186D02*X137400Y519186D01*
X141600Y522186D02*Y515886D01*
Y522186D02*X145500D01*
X141600Y519186D02*X144000D01*
X141600Y515886D02*X145500D01*
X151500Y521286D02*X150900Y521886D01*
X150000Y522186D01*
X148800D02*X150000D01*
X148800D02*X147900Y521886D01*
X147300Y521286D01*
Y520686D01*
X147600Y520086D01*
X147900Y519786D01*
X148500Y519486D01*
X150300Y518886D01*
X150900Y518586D01*
X151200Y518286D01*
X151500Y517686D01*
Y516786D01*
X150900Y516186D01*
X150000Y515886D01*
X148800D02*X150000D01*
X148800D02*X147900Y516186D01*
X147300Y516786D01*
X98600Y522186D02*X101900D01*
X100100Y519786D01*
X101000D01*
X101600Y519486D01*
X101900Y519186D01*
X102200Y518286D01*
Y517686D01*
X101900Y516786D01*
X101300Y516186D01*
X100400Y515886D01*
X99500D02*X100400D01*
X99500D02*X98600Y516186D01*
X98300Y516486D01*
X98000Y517086D01*
X107000Y522186D02*X104000Y517986D01*
X108500D01*
X107000Y522186D02*Y515886D01*
X46800Y522186D02*X45900Y521886D01*
X45300Y520986D01*
X45000Y519486D01*
Y518586D01*
X45300Y517086D01*
X45900Y516186D01*
X46800Y515886D01*
X47400D01*
X48300Y516186D01*
X48900Y517086D01*
X49200Y518586D01*
Y519486D02*Y518586D01*
Y519486D02*X48900Y520986D01*
X48300Y521886D01*
X47400Y522186D01*
X46800D02*X47400D01*
X51300Y516486D02*X51000Y516186D01*
X51300Y515886D01*
X51600Y516186D01*
X51300Y516486D01*
X55200Y522186D02*X54300Y521886D01*
X53700Y520986D01*
X53400Y519486D01*
Y518586D01*
X53700Y517086D01*
X54300Y516186D01*
X55200Y515886D01*
X55800D01*
X56700Y516186D01*
X57300Y517086D01*
X57600Y518586D01*
Y519486D02*Y518586D01*
Y519486D02*X57300Y520986D01*
X56700Y521886D01*
X55800Y522186D01*
X55200D02*X55800D01*
X60000D02*X63000D01*
X60000D02*X59700Y519486D01*
X60000Y519786D01*
X60900Y520086D01*
X61800D01*
X62700Y519786D01*
X63300Y519186D01*
X63600Y518286D01*
Y517686D01*
X63300Y516786D01*
X62700Y516186D01*
X61800Y515886D01*
X60900D02*X61800D01*
X60900D02*X60000Y516186D01*
X59700Y516486D01*
X59400Y517086D01*
X65700Y520986D02*Y520686D01*
Y520986D02*X66000Y521586D01*
X66300Y521886D01*
X66900Y522186D01*
X68100D01*
X68700Y521886D01*
X69000Y521586D01*
X69300Y520986D01*
Y520386D01*
X69000Y519786D01*
X68400Y518886D01*
X65400Y515886D01*
X69600D01*
X55000Y409086D02*Y402686D01*
X51800Y405886D02*X58200D01*
X53400Y407486D02*X56600D01*
X53400D02*Y404286D01*
X56600D01*
Y407486D02*Y404286D01*
X55000Y399086D02*Y392686D01*
X51800Y395886D02*X58200D01*
X53400Y397486D02*X56600D01*
X53400D02*Y394286D01*
X56600D01*
Y397486D02*Y394286D01*
X55000Y389086D02*Y382686D01*
X51800Y385886D02*X58200D01*
X53400Y387486D02*X56600D01*
X53400D02*Y384286D01*
X56600D01*
Y387486D02*Y384286D01*
X55000Y379086D02*Y372686D01*
X51800Y375886D02*X58200D01*
X53400Y377486D02*X56600D01*
X53400D02*Y374286D01*
X56600D01*
Y377486D02*Y374286D01*
X55000Y369086D02*Y362686D01*
X51800Y365886D02*X58200D01*
X53400Y367486D02*X56600D01*
X53400D02*Y364286D01*
X56600D01*
Y367486D02*Y364286D01*
X55000Y359086D02*Y352686D01*
X51800Y355886D02*X58200D01*
X53400Y357486D02*X56600D01*
X53400D02*Y354286D01*
X56600D01*
Y357486D02*Y354286D01*
X55000Y349086D02*Y342686D01*
X51800Y345886D02*X58200D01*
X53400Y347486D02*X56600D01*
X53400D02*Y344286D01*
X56600D01*
Y347486D02*Y344286D01*
X55000Y339086D02*Y332686D01*
X51800Y335886D02*X58200D01*
X53400Y337486D02*X56600D01*
X53400D02*Y334286D01*
X56600D01*
Y337486D02*Y334286D01*
X55000Y329086D02*Y322686D01*
X51800Y325886D02*X58200D01*
X53400Y327486D02*X56600D01*
X53400D02*Y324286D01*
X56600D01*
Y327486D02*Y324286D01*
X55000Y319086D02*Y312686D01*
X51800Y315886D02*X58200D01*
X53400Y317486D02*X56600D01*
X53400D02*Y314286D01*
X56600D01*
Y317486D02*Y314286D01*
X55000Y309086D02*Y302686D01*
X51800Y305886D02*X58200D01*
X53400Y307486D02*X56600D01*
X53400D02*Y304286D01*
X56600D01*
Y307486D02*Y304286D01*
X55000Y299086D02*Y292686D01*
X51800Y295886D02*X58200D01*
X53400Y297486D02*X56600D01*
X53400D02*Y294286D01*
X56600D01*
Y297486D02*Y294286D01*
X55000Y289086D02*Y282686D01*
X51800Y285886D02*X58200D01*
X53400Y287486D02*X56600D01*
X53400D02*Y284286D01*
X56600D01*
Y287486D02*Y284286D01*
X55000Y279086D02*Y272686D01*
X51800Y275886D02*X58200D01*
X53400Y277486D02*X56600D01*
X53400D02*Y274286D01*
X56600D01*
Y277486D02*Y274286D01*
X55000Y269086D02*Y262686D01*
X51800Y265886D02*X58200D01*
X53400Y267486D02*X56600D01*
X53400D02*Y264286D01*
X56600D01*
Y267486D02*Y264286D01*
X55000Y259086D02*Y252686D01*
X51800Y255886D02*X58200D01*
X53400Y257486D02*X56600D01*
X53400D02*Y254286D01*
X56600D01*
Y257486D02*Y254286D01*
X55000Y249086D02*Y242686D01*
X51800Y245886D02*X58200D01*
X53400Y247486D02*X56600D01*
X53400D02*Y244286D01*
X56600D01*
Y247486D02*Y244286D01*
X55000Y239086D02*Y232686D01*
X51800Y235886D02*X58200D01*
X53400Y237486D02*X56600D01*
X53400D02*Y234286D01*
X56600D01*
Y237486D02*Y234286D01*
X55000Y229086D02*Y222686D01*
X51800Y225886D02*X58200D01*
X53400Y227486D02*X56600D01*
X53400D02*Y224286D01*
X56600D01*
Y227486D02*Y224286D01*
X55000Y219086D02*Y212686D01*
X51800Y215886D02*X58200D01*
X53400Y217486D02*X56600D01*
X53400D02*Y214286D01*
X56600D01*
Y217486D02*Y214286D01*
X55000Y209086D02*Y202686D01*
X51800Y205886D02*X58200D01*
X53400Y207486D02*X56600D01*
X53400D02*Y204286D01*
X56600D01*
Y207486D02*Y204286D01*
X55000Y199086D02*Y192686D01*
X51800Y195886D02*X58200D01*
X53400Y197486D02*X56600D01*
X53400D02*Y194286D01*
X56600D01*
Y197486D02*Y194286D01*
X55000Y189086D02*Y182686D01*
X51800Y185886D02*X58200D01*
X53400Y187486D02*X56600D01*
X53400D02*Y184286D01*
X56600D01*
Y187486D02*Y184286D01*
X55000Y179086D02*Y172686D01*
X51800Y175886D02*X58200D01*
X53400Y177486D02*X56600D01*
X53400D02*Y174286D01*
X56600D01*
Y177486D02*Y174286D01*
X55000Y169086D02*Y162686D01*
X51800Y165886D02*X58200D01*
X53400Y167486D02*X56600D01*
X53400D02*Y164286D01*
X56600D01*
Y167486D02*Y164286D01*
X55000Y159086D02*Y152686D01*
X51800Y155886D02*X58200D01*
X53400Y157486D02*X56600D01*
X53400D02*Y154286D01*
X56600D01*
Y157486D02*Y154286D01*
X55000Y149086D02*Y142686D01*
X51800Y145886D02*X58200D01*
X53400Y147486D02*X56600D01*
X53400D02*Y144286D01*
X56600D01*
Y147486D02*Y144286D01*
X55000Y139086D02*Y132686D01*
X51800Y135886D02*X58200D01*
X53400Y137486D02*X56600D01*
X53400D02*Y134286D01*
X56600D01*
Y137486D02*Y134286D01*
X55000Y129086D02*Y122686D01*
X51800Y125886D02*X58200D01*
X53400Y127486D02*X56600D01*
X53400D02*Y124286D01*
X56600D01*
Y127486D02*Y124286D01*
X55000Y119086D02*Y112686D01*
X51800Y115886D02*X58200D01*
X53400Y117486D02*X56600D01*
X53400D02*Y114286D01*
X56600D01*
Y117486D02*Y114286D01*
X55000Y109086D02*Y102686D01*
X51800Y105886D02*X58200D01*
X53400Y107486D02*X56600D01*
X53400D02*Y104286D01*
X56600D01*
Y107486D02*Y104286D01*
X110000Y371586D02*Y365186D01*
X106800Y368386D02*X113200D01*
X108400Y369986D02*X111600D01*
X108400D02*Y366786D01*
X111600D01*
Y369986D02*Y366786D01*
X120000Y371586D02*Y365186D01*
X116800Y368386D02*X123200D01*
X118400Y369986D02*X121600D01*
X118400D02*Y366786D01*
X121600D01*
Y369986D02*Y366786D01*
X130000Y371586D02*Y365186D01*
X126800Y368386D02*X133200D01*
X128400Y369986D02*X131600D01*
X128400D02*Y366786D01*
X131600D01*
Y369986D02*Y366786D01*
X140000Y371586D02*Y365186D01*
X136800Y368386D02*X143200D01*
X138400Y369986D02*X141600D01*
X138400D02*Y366786D01*
X141600D01*
Y369986D02*Y366786D01*
X150000Y371586D02*Y365186D01*
X146800Y368386D02*X153200D01*
X148400Y369986D02*X151600D01*
X148400D02*Y366786D01*
X151600D01*
Y369986D02*Y366786D01*
X160000Y371586D02*Y365186D01*
X156800Y368386D02*X163200D01*
X158400Y369986D02*X161600D01*
X158400D02*Y366786D01*
X161600D01*
Y369986D02*Y366786D01*
X170000Y371586D02*Y365186D01*
X166800Y368386D02*X173200D01*
X168400Y369986D02*X171600D01*
X168400D02*Y366786D01*
X171600D01*
Y369986D02*Y366786D01*
X180000Y371586D02*Y365186D01*
X176800Y368386D02*X183200D01*
X178400Y369986D02*X181600D01*
X178400D02*Y366786D01*
X181600D01*
Y369986D02*Y366786D01*
X110000Y311586D02*Y305186D01*
X106800Y308386D02*X113200D01*
X108400Y309986D02*X111600D01*
X108400D02*Y306786D01*
X111600D01*
Y309986D02*Y306786D01*
X120000Y311586D02*Y305186D01*
X116800Y308386D02*X123200D01*
X118400Y309986D02*X121600D01*
X118400D02*Y306786D01*
X121600D01*
Y309986D02*Y306786D01*
X130000Y311586D02*Y305186D01*
X126800Y308386D02*X133200D01*
X128400Y309986D02*X131600D01*
X128400D02*Y306786D01*
X131600D01*
Y309986D02*Y306786D01*
X140000Y311586D02*Y305186D01*
X136800Y308386D02*X143200D01*
X138400Y309986D02*X141600D01*
X138400D02*Y306786D01*
X141600D01*
Y309986D02*Y306786D01*
X150000Y311586D02*Y305186D01*
X146800Y308386D02*X153200D01*
X148400Y309986D02*X151600D01*
X148400D02*Y306786D01*
X151600D01*
Y309986D02*Y306786D01*
X160000Y311586D02*Y305186D01*
X156800Y308386D02*X163200D01*
X158400Y309986D02*X161600D01*
X158400D02*Y306786D01*
X161600D01*
Y309986D02*Y306786D01*
X170000Y311586D02*Y305186D01*
X166800Y308386D02*X173200D01*
X168400Y309986D02*X171600D01*
X168400D02*Y306786D01*
X171600D01*
Y309986D02*Y306786D01*
X180000Y311586D02*Y305186D01*
X176800Y308386D02*X183200D01*
X178400Y309986D02*X181600D01*
X178400D02*Y306786D01*
X181600D01*
Y309986D02*Y306786D01*
X110000Y251586D02*Y245186D01*
X106800Y248386D02*X113200D01*
X108400Y249986D02*X111600D01*
X108400D02*Y246786D01*
X111600D01*
Y249986D02*Y246786D01*
X120000Y251586D02*Y245186D01*
X116800Y248386D02*X123200D01*
X118400Y249986D02*X121600D01*
X118400D02*Y246786D01*
X121600D01*
Y249986D02*Y246786D01*
X130000Y251586D02*Y245186D01*
X126800Y248386D02*X133200D01*
X128400Y249986D02*X131600D01*
X128400D02*Y246786D01*
X131600D01*
Y249986D02*Y246786D01*
X140000Y251586D02*Y245186D01*
X136800Y248386D02*X143200D01*
X138400Y249986D02*X141600D01*
X138400D02*Y246786D01*
X141600D01*
Y249986D02*Y246786D01*
X150000Y251586D02*Y245186D01*
X146800Y248386D02*X153200D01*
X148400Y249986D02*X151600D01*
X148400D02*Y246786D01*
X151600D01*
Y249986D02*Y246786D01*
X160000Y251586D02*Y245186D01*
X156800Y248386D02*X163200D01*
X158400Y249986D02*X161600D01*
X158400D02*Y246786D01*
X161600D01*
Y249986D02*Y246786D01*
X170000Y251586D02*Y245186D01*
X166800Y248386D02*X173200D01*
X168400Y249986D02*X171600D01*
X168400D02*Y246786D01*
X171600D01*
Y249986D02*Y246786D01*
X180000Y251586D02*Y245186D01*
X176800Y248386D02*X183200D01*
X178400Y249986D02*X181600D01*
X178400D02*Y246786D01*
X181600D01*
Y249986D02*Y246786D01*
X110000Y191586D02*Y185186D01*
X106800Y188386D02*X113200D01*
X108400Y189986D02*X111600D01*
X108400D02*Y186786D01*
X111600D01*
Y189986D02*Y186786D01*
X120000Y191586D02*Y185186D01*
X116800Y188386D02*X123200D01*
X118400Y189986D02*X121600D01*
X118400D02*Y186786D01*
X121600D01*
Y189986D02*Y186786D01*
X130000Y191586D02*Y185186D01*
X126800Y188386D02*X133200D01*
X128400Y189986D02*X131600D01*
X128400D02*Y186786D01*
X131600D01*
Y189986D02*Y186786D01*
X140000Y191586D02*Y185186D01*
X136800Y188386D02*X143200D01*
X138400Y189986D02*X141600D01*
X138400D02*Y186786D01*
X141600D01*
Y189986D02*Y186786D01*
X150000Y191586D02*Y185186D01*
X146800Y188386D02*X153200D01*
X148400Y189986D02*X151600D01*
X148400D02*Y186786D01*
X151600D01*
Y189986D02*Y186786D01*
X160000Y191586D02*Y185186D01*
X156800Y188386D02*X163200D01*
X158400Y189986D02*X161600D01*
X158400D02*Y186786D01*
X161600D01*
Y189986D02*Y186786D01*
X170000Y191586D02*Y185186D01*
X166800Y188386D02*X173200D01*
X168400Y189986D02*X171600D01*
X168400D02*Y186786D01*
X171600D01*
Y189986D02*Y186786D01*
X180000Y191586D02*Y185186D01*
X176800Y188386D02*X183200D01*
X178400Y189986D02*X181600D01*
X178400D02*Y186786D01*
X181600D01*
Y189986D02*Y186786D01*
X110000Y131586D02*Y125186D01*
X106800Y128386D02*X113200D01*
X108400Y129986D02*X111600D01*
X108400D02*Y126786D01*
X111600D01*
Y129986D02*Y126786D01*
X120000Y131586D02*Y125186D01*
X116800Y128386D02*X123200D01*
X118400Y129986D02*X121600D01*
X118400D02*Y126786D01*
X121600D01*
Y129986D02*Y126786D01*
X130000Y131586D02*Y125186D01*
X126800Y128386D02*X133200D01*
X128400Y129986D02*X131600D01*
X128400D02*Y126786D01*
X131600D01*
Y129986D02*Y126786D01*
X140000Y131586D02*Y125186D01*
X136800Y128386D02*X143200D01*
X138400Y129986D02*X141600D01*
X138400D02*Y126786D01*
X141600D01*
Y129986D02*Y126786D01*
X150000Y131586D02*Y125186D01*
X146800Y128386D02*X153200D01*
X148400Y129986D02*X151600D01*
X148400D02*Y126786D01*
X151600D01*
Y129986D02*Y126786D01*
X160000Y131586D02*Y125186D01*
X156800Y128386D02*X163200D01*
X158400Y129986D02*X161600D01*
X158400D02*Y126786D01*
X161600D01*
Y129986D02*Y126786D01*
X170000Y131586D02*Y125186D01*
X166800Y128386D02*X173200D01*
X168400Y129986D02*X171600D01*
X168400D02*Y126786D01*
X171600D01*
Y129986D02*Y126786D01*
X180000Y131586D02*Y125186D01*
X176800Y128386D02*X183200D01*
X178400Y129986D02*X181600D01*
X178400D02*Y126786D01*
X181600D01*
Y129986D02*Y126786D01*
X15000Y537836D02*Y531436D01*
X11800Y534636D02*X18200D01*
X13400Y536236D02*X16600D01*
X13400D02*Y533036D01*
X16600D01*
Y536236D02*Y533036D01*
X135000Y537186D02*X137400Y534186D01*
Y530886D01*
X139800Y537186D02*X137400Y534186D01*
X141600Y537186D02*Y530886D01*
Y537186D02*X145500D01*
X141600Y534186D02*X144000D01*
X141600Y530886D02*X145500D01*
X151500Y536286D02*X150900Y536886D01*
X150000Y537186D01*
X148800D02*X150000D01*
X148800D02*X147900Y536886D01*
X147300Y536286D01*
Y535686D01*
X147600Y535086D01*
X147900Y534786D01*
X148500Y534486D01*
X150300Y533886D01*
X150900Y533586D01*
X151200Y533286D01*
X151500Y532686D01*
Y531786D01*
X150900Y531186D01*
X150000Y530886D01*
X148800D02*X150000D01*
X148800D02*X147900Y531186D01*
X147300Y531786D01*
X102200Y537186D02*X99200Y530886D01*
X98000Y537186D02*X102200D01*
X104000Y535986D02*X104600Y536286D01*
X105500Y537186D01*
Y530886D01*
X46800Y537186D02*X45900Y536886D01*
X45300Y535986D01*
X45000Y534486D01*
Y533586D01*
X45300Y532086D01*
X45900Y531186D01*
X46800Y530886D01*
X47400D01*
X48300Y531186D01*
X48900Y532086D01*
X49200Y533586D01*
Y534486D02*Y533586D01*
Y534486D02*X48900Y535986D01*
X48300Y536886D01*
X47400Y537186D01*
X46800D02*X47400D01*
X51300Y531486D02*X51000Y531186D01*
X51300Y530886D01*
X51600Y531186D01*
X51300Y531486D01*
X55200Y537186D02*X54300Y536886D01*
X53700Y535986D01*
X53400Y534486D01*
Y533586D01*
X53700Y532086D01*
X54300Y531186D01*
X55200Y530886D01*
X55800D01*
X56700Y531186D01*
X57300Y532086D01*
X57600Y533586D01*
Y534486D02*Y533586D01*
Y534486D02*X57300Y535986D01*
X56700Y536886D01*
X55800Y537186D01*
X55200D02*X55800D01*
X62400D02*X59400Y532986D01*
X63900D01*
X62400Y537186D02*Y530886D01*
X66000Y535986D02*Y535686D01*
Y535986D02*X66300Y536586D01*
X66600Y536886D01*
X67200Y537186D01*
X68400D01*
X69000Y536886D01*
X69300Y536586D01*
X69600Y535986D01*
Y535386D01*
X69300Y534786D01*
X68700Y533886D01*
X65700Y530886D01*
X69900D01*
X575000Y293386D02*Y290186D01*
Y293386D02*X577773Y294986D01*
X575000Y293386D02*X572227Y294986D01*
X573400Y293386D02*G75*G03X576600Y293386I1600J0D01*G01*
G75*G03X573400Y293386I-1600J0D01*G01*
X575000Y253386D02*Y250186D01*
Y253386D02*X577773Y254986D01*
X575000Y253386D02*X572227Y254986D01*
X573400Y253386D02*G75*G03X576600Y253386I1600J0D01*G01*
G75*G03X573400Y253386I-1600J0D01*G01*
X450000Y418386D02*Y415186D01*
Y418386D02*X452773Y419986D01*
X450000Y418386D02*X447227Y419986D01*
X448400Y418386D02*G75*G03X451600Y418386I1600J0D01*G01*
G75*G03X448400Y418386I-1600J0D01*G01*
X500000D02*Y415186D01*
Y418386D02*X502773Y419986D01*
X500000Y418386D02*X497227Y419986D01*
X498400Y418386D02*G75*G03X501600Y418386I1600J0D01*G01*
G75*G03X498400Y418386I-1600J0D01*G01*
X110000Y433386D02*Y430186D01*
Y433386D02*X112773Y434986D01*
X110000Y433386D02*X107227Y434986D01*
X108400Y433386D02*G75*G03X111600Y433386I1600J0D01*G01*
G75*G03X108400Y433386I-1600J0D01*G01*
X185000D02*Y430186D01*
Y433386D02*X187773Y434986D01*
X185000Y433386D02*X182227Y434986D01*
X183400Y433386D02*G75*G03X186600Y433386I1600J0D01*G01*
G75*G03X183400Y433386I-1600J0D01*G01*
X110000Y78386D02*Y75186D01*
Y78386D02*X112773Y79986D01*
X110000Y78386D02*X107227Y79986D01*
X108400Y78386D02*G75*G03X111600Y78386I1600J0D01*G01*
G75*G03X108400Y78386I-1600J0D01*G01*
X445000Y353386D02*Y350186D01*
Y353386D02*X447773Y354986D01*
X445000Y353386D02*X442227Y354986D01*
X443400Y353386D02*G75*G03X446600Y353386I1600J0D01*G01*
G75*G03X443400Y353386I-1600J0D01*G01*
X495000D02*Y350186D01*
Y353386D02*X497773Y354986D01*
X495000Y353386D02*X492227Y354986D01*
X493400Y353386D02*G75*G03X496600Y353386I1600J0D01*G01*
G75*G03X493400Y353386I-1600J0D01*G01*
X445000Y333386D02*Y330186D01*
Y333386D02*X447773Y334986D01*
X445000Y333386D02*X442227Y334986D01*
X443400Y333386D02*G75*G03X446600Y333386I1600J0D01*G01*
G75*G03X443400Y333386I-1600J0D01*G01*
X495000D02*Y330186D01*
Y333386D02*X497773Y334986D01*
X495000Y333386D02*X492227Y334986D01*
X493400Y333386D02*G75*G03X496600Y333386I1600J0D01*G01*
G75*G03X493400Y333386I-1600J0D01*G01*
X450000Y383386D02*Y380186D01*
Y383386D02*X452773Y384986D01*
X450000Y383386D02*X447227Y384986D01*
X448400Y383386D02*G75*G03X451600Y383386I1600J0D01*G01*
G75*G03X448400Y383386I-1600J0D01*G01*
X500000D02*Y380186D01*
Y383386D02*X502773Y384986D01*
X500000Y383386D02*X497227Y384986D01*
X498400Y383386D02*G75*G03X501600Y383386I1600J0D01*G01*
G75*G03X498400Y383386I-1600J0D01*G01*
X450000Y398386D02*Y395186D01*
Y398386D02*X452773Y399986D01*
X450000Y398386D02*X447227Y399986D01*
X448400Y398386D02*G75*G03X451600Y398386I1600J0D01*G01*
G75*G03X448400Y398386I-1600J0D01*G01*
X500000D02*Y395186D01*
Y398386D02*X502773Y399986D01*
X500000Y398386D02*X497227Y399986D01*
X498400Y398386D02*G75*G03X501600Y398386I1600J0D01*G01*
G75*G03X498400Y398386I-1600J0D01*G01*
X185000Y78386D02*Y75186D01*
Y78386D02*X187773Y79986D01*
X185000Y78386D02*X182227Y79986D01*
X183400Y78386D02*G75*G03X186600Y78386I1600J0D01*G01*
G75*G03X183400Y78386I-1600J0D01*G01*
X485000Y370886D02*Y367686D01*
Y370886D02*X487773Y372486D01*
X485000Y370886D02*X482227Y372486D01*
X483400Y370886D02*G75*G03X486600Y370886I1600J0D01*G01*
G75*G03X483400Y370886I-1600J0D01*G01*
X535000D02*Y367686D01*
Y370886D02*X537773Y372486D01*
X535000Y370886D02*X532227Y372486D01*
X533400Y370886D02*G75*G03X536600Y370886I1600J0D01*G01*
G75*G03X533400Y370886I-1600J0D01*G01*
X590000Y243386D02*Y240186D01*
Y243386D02*X592773Y244986D01*
X590000Y243386D02*X587227Y244986D01*
X588400Y243386D02*G75*G03X591600Y243386I1600J0D01*G01*
G75*G03X588400Y243386I-1600J0D01*G01*
X590000Y293386D02*Y290186D01*
Y293386D02*X592773Y294986D01*
X590000Y293386D02*X587227Y294986D01*
X588400Y293386D02*G75*G03X591600Y293386I1600J0D01*G01*
G75*G03X588400Y293386I-1600J0D01*G01*
X15000Y549636D02*Y546436D01*
Y549636D02*X17773Y551236D01*
X15000Y549636D02*X12227Y551236D01*
X13400Y549636D02*G75*G03X16600Y549636I1600J0D01*G01*
G75*G03X13400Y549636I-1600J0D01*G01*
X135000Y552186D02*X137400Y549186D01*
Y545886D01*
X139800Y552186D02*X137400Y549186D01*
X141600Y552186D02*Y545886D01*
Y552186D02*X145500D01*
X141600Y549186D02*X144000D01*
X141600Y545886D02*X145500D01*
X151500Y551286D02*X150900Y551886D01*
X150000Y552186D01*
X148800D02*X150000D01*
X148800D02*X147900Y551886D01*
X147300Y551286D01*
Y550686D01*
X147600Y550086D01*
X147900Y549786D01*
X148500Y549486D01*
X150300Y548886D01*
X150900Y548586D01*
X151200Y548286D01*
X151500Y547686D01*
Y546786D01*
X150900Y546186D01*
X150000Y545886D01*
X148800D02*X150000D01*
X148800D02*X147900Y546186D01*
X147300Y546786D01*
X98300Y550986D02*Y550686D01*
Y550986D02*X98600Y551586D01*
X98900Y551886D01*
X99500Y552186D01*
X100700D01*
X101300Y551886D01*
X101600Y551586D01*
X101900Y550986D01*
Y550386D01*
X101600Y549786D01*
X101000Y548886D01*
X98000Y545886D01*
X102200D01*
X105800Y552186D02*X104900Y551886D01*
X104300Y550986D01*
X104000Y549486D01*
Y548586D01*
X104300Y547086D01*
X104900Y546186D01*
X105800Y545886D01*
X106400D01*
X107300Y546186D01*
X107900Y547086D01*
X108200Y548586D01*
Y549486D02*Y548586D01*
Y549486D02*X107900Y550986D01*
X107300Y551886D01*
X106400Y552186D01*
X105800D02*X106400D01*
X46800D02*X45900Y551886D01*
X45300Y550986D01*
X45000Y549486D01*
Y548586D01*
X45300Y547086D01*
X45900Y546186D01*
X46800Y545886D01*
X47400D01*
X48300Y546186D01*
X48900Y547086D01*
X49200Y548586D01*
Y549486D02*Y548586D01*
Y549486D02*X48900Y550986D01*
X48300Y551886D01*
X47400Y552186D01*
X46800D02*X47400D01*
X51300Y546486D02*X51000Y546186D01*
X51300Y545886D01*
X51600Y546186D01*
X51300Y546486D01*
X55200Y552186D02*X54300Y551886D01*
X53700Y550986D01*
X53400Y549486D01*
Y548586D01*
X53700Y547086D01*
X54300Y546186D01*
X55200Y545886D01*
X55800D01*
X56700Y546186D01*
X57300Y547086D01*
X57600Y548586D01*
Y549486D02*Y548586D01*
Y549486D02*X57300Y550986D01*
X56700Y551886D01*
X55800Y552186D01*
X55200D02*X55800D01*
X62400D02*X59400Y547986D01*
X63900D01*
X62400Y552186D02*Y545886D01*
X67500Y552186D02*X66600Y551886D01*
X66000Y550986D01*
X65700Y549486D01*
Y548586D01*
X66000Y547086D01*
X66600Y546186D01*
X67500Y545886D01*
X68100D01*
X69000Y546186D01*
X69600Y547086D01*
X69900Y548586D01*
Y549486D02*Y548586D01*
Y549486D02*X69600Y550986D01*
X69000Y551886D01*
X68100Y552186D01*
X67500D02*X68100D01*
X568006Y410144D02*X571206D01*
X568006D02*Y406944D01*
X571206D01*
Y410144D02*Y406944D01*
X568006Y429829D02*X571206D01*
X568006D02*Y426629D01*
X571206D01*
Y429829D02*Y426629D01*
X13400Y566236D02*X16600D01*
X13400D02*Y563036D01*
X16600D01*
Y566236D02*Y563036D01*
X135000Y567186D02*X137400Y564186D01*
Y560886D01*
X139800Y567186D02*X137400Y564186D01*
X141600Y567186D02*Y560886D01*
Y567186D02*X145500D01*
X141600Y564186D02*X144000D01*
X141600Y560886D02*X145500D01*
X151500Y566286D02*X150900Y566886D01*
X150000Y567186D01*
X148800D02*X150000D01*
X148800D02*X147900Y566886D01*
X147300Y566286D01*
Y565686D01*
X147600Y565086D01*
X147900Y564786D01*
X148500Y564486D01*
X150300Y563886D01*
X150900Y563586D01*
X151200Y563286D01*
X151500Y562686D01*
Y561786D01*
X150900Y561186D01*
X150000Y560886D01*
X148800D02*X150000D01*
X148800D02*X147900Y561186D01*
X147300Y561786D01*
X98300Y565986D02*Y565686D01*
Y565986D02*X98600Y566586D01*
X98900Y566886D01*
X99500Y567186D01*
X100700D01*
X101300Y566886D01*
X101600Y566586D01*
X101900Y565986D01*
Y565386D01*
X101600Y564786D01*
X101000Y563886D01*
X98000Y560886D01*
X102200D01*
X46800Y567186D02*X45900Y566886D01*
X45300Y565986D01*
X45000Y564486D01*
Y563586D01*
X45300Y562086D01*
X45900Y561186D01*
X46800Y560886D01*
X47400D01*
X48300Y561186D01*
X48900Y562086D01*
X49200Y563586D01*
Y564486D02*Y563586D01*
Y564486D02*X48900Y565986D01*
X48300Y566886D01*
X47400Y567186D01*
X46800D02*X47400D01*
X51300Y561486D02*X51000Y561186D01*
X51300Y560886D01*
X51600Y561186D01*
X51300Y561486D01*
X55200Y567186D02*X54300Y566886D01*
X53700Y565986D01*
X53400Y564486D01*
Y563586D01*
X53700Y562086D01*
X54300Y561186D01*
X55200Y560886D01*
X55800D01*
X56700Y561186D01*
X57300Y562086D01*
X57600Y563586D01*
Y564486D02*Y563586D01*
Y564486D02*X57300Y565986D01*
X56700Y566886D01*
X55800Y567186D01*
X55200D02*X55800D01*
X60000D02*X63300D01*
X61500Y564786D01*
X62400D01*
X63000Y564486D01*
X63300Y564186D01*
X63600Y563286D01*
Y562686D01*
X63300Y561786D01*
X62700Y561186D01*
X61800Y560886D01*
X60900D02*X61800D01*
X60900D02*X60000Y561186D01*
X59700Y561486D01*
X59400Y562086D01*
X69000Y566286D02*X68700Y566886D01*
X67800Y567186D01*
X67200D02*X67800D01*
X67200D02*X66300Y566886D01*
X65700Y565986D01*
X65400Y564486D01*
Y562986D01*
X65700Y561786D01*
X66300Y561186D01*
X67200Y560886D01*
X67500D01*
X68400Y561186D01*
X69000Y561786D01*
X69300Y562686D01*
Y562986D02*Y562686D01*
Y562986D02*X69000Y563886D01*
X68400Y564486D01*
X67500Y564786D01*
X67200D02*X67500D01*
X67200D02*X66300Y564486D01*
X65700Y563886D01*
X65400Y562986D01*
X546700Y128386D02*G75*G03X548300Y128386I800J0D01*G01*
G75*G03X546700Y128386I-800J0D01*G01*
Y95886D02*G75*G03X548300Y95886I800J0D01*G01*
G75*G03X546700Y95886I-800J0D01*G01*
X199200Y418386D02*G75*G03X200800Y418386I800J0D01*G01*
G75*G03X199200Y418386I-800J0D01*G01*
Y385886D02*G75*G03X200800Y385886I800J0D01*G01*
G75*G03X199200Y385886I-800J0D01*G01*
X364200Y283386D02*G75*G03X365800Y283386I800J0D01*G01*
G75*G03X364200Y283386I-800J0D01*G01*
X119200D02*G75*G03X120800Y283386I800J0D01*G01*
G75*G03X119200Y283386I-800J0D01*G01*
X79200Y373386D02*G75*G03X80800Y373386I800J0D01*G01*
G75*G03X79200Y373386I-800J0D01*G01*
X364200Y343386D02*G75*G03X365800Y343386I800J0D01*G01*
G75*G03X364200Y343386I-800J0D01*G01*
X474200Y293386D02*G75*G03X475800Y293386I800J0D01*G01*
G75*G03X474200Y293386I-800J0D01*G01*
Y208386D02*G75*G03X475800Y208386I800J0D01*G01*
G75*G03X474200Y208386I-800J0D01*G01*
X199200Y353386D02*G75*G03X200800Y353386I800J0D01*G01*
G75*G03X199200Y353386I-800J0D01*G01*
X119200Y220886D02*G75*G03X120800Y220886I800J0D01*G01*
G75*G03X119200Y220886I-800J0D01*G01*
X364200D02*G75*G03X365800Y220886I800J0D01*G01*
G75*G03X364200Y220886I-800J0D01*G01*
X199200Y378386D02*G75*G03X200800Y378386I800J0D01*G01*
G75*G03X199200Y378386I-800J0D01*G01*
X179200Y213386D02*G75*G03X180800Y213386I800J0D01*G01*
G75*G03X179200Y213386I-800J0D01*G01*
X14200Y579636D02*G75*G03X15800Y579636I800J0D01*G01*
G75*G03X14200Y579636I-800J0D01*G01*
X135000Y582186D02*X137400Y579186D01*
Y575886D01*
X139800Y582186D02*X137400Y579186D01*
X141600Y582186D02*Y575886D01*
Y582186D02*X145500D01*
X141600Y579186D02*X144000D01*
X141600Y575886D02*X145500D01*
X151500Y581286D02*X150900Y581886D01*
X150000Y582186D01*
X148800D02*X150000D01*
X148800D02*X147900Y581886D01*
X147300Y581286D01*
Y580686D01*
X147600Y580086D01*
X147900Y579786D01*
X148500Y579486D01*
X150300Y578886D01*
X150900Y578586D01*
X151200Y578286D01*
X151500Y577686D01*
Y576786D01*
X150900Y576186D01*
X150000Y575886D01*
X148800D02*X150000D01*
X148800D02*X147900Y576186D01*
X147300Y576786D01*
X98000Y580986D02*X98600Y581286D01*
X99500Y582186D01*
Y575886D01*
X101900Y582186D02*X104900D01*
X101900D02*X101600Y579486D01*
X101900Y579786D01*
X102800Y580086D01*
X103700D01*
X104600Y579786D01*
X105200Y579186D01*
X105500Y578286D01*
Y577686D01*
X105200Y576786D01*
X104600Y576186D01*
X103700Y575886D01*
X102800D02*X103700D01*
X102800D02*X101900Y576186D01*
X101600Y576486D01*
X101300Y577086D01*
X46800Y582186D02*X45900Y581886D01*
X45300Y580986D01*
X45000Y579486D01*
Y578586D01*
X45300Y577086D01*
X45900Y576186D01*
X46800Y575886D01*
X47400D01*
X48300Y576186D01*
X48900Y577086D01*
X49200Y578586D01*
Y579486D02*Y578586D01*
Y579486D02*X48900Y580986D01*
X48300Y581886D01*
X47400Y582186D01*
X46800D02*X47400D01*
X51300Y576486D02*X51000Y576186D01*
X51300Y575886D01*
X51600Y576186D01*
X51300Y576486D01*
X55200Y582186D02*X54300Y581886D01*
X53700Y580986D01*
X53400Y579486D01*
Y578586D01*
X53700Y577086D01*
X54300Y576186D01*
X55200Y575886D01*
X55800D01*
X56700Y576186D01*
X57300Y577086D01*
X57600Y578586D01*
Y579486D02*Y578586D01*
Y579486D02*X57300Y580986D01*
X56700Y581886D01*
X55800Y582186D01*
X55200D02*X55800D01*
X60000D02*X63300D01*
X61500Y579786D01*
X62400D01*
X63000Y579486D01*
X63300Y579186D01*
X63600Y578286D01*
Y577686D01*
X63300Y576786D01*
X62700Y576186D01*
X61800Y575886D01*
X60900D02*X61800D01*
X60900D02*X60000Y576186D01*
X59700Y576486D01*
X59400Y577086D01*
X66000Y582186D02*X69000D01*
X66000D02*X65700Y579486D01*
X66000Y579786D01*
X66900Y580086D01*
X67800D01*
X68700Y579786D01*
X69300Y579186D01*
X69600Y578286D01*
Y577686D01*
X69300Y576786D01*
X68700Y576186D01*
X67800Y575886D01*
X66900D02*X67800D01*
X66900D02*X66000Y576186D01*
X65700Y576486D01*
X65400Y577086D01*
X563800Y91023D02*X566200Y88623D01*
X563800D02*X566200Y91023D01*
X563800Y83149D02*X566200Y80749D01*
X563800D02*X566200Y83149D01*
X578800Y115649D02*X581200Y113249D01*
X578800D02*X581200Y115649D01*
X578800Y123523D02*X581200Y121123D01*
X578800D02*X581200Y123523D01*
X538800Y429586D02*X541200Y427186D01*
X538800D02*X541200Y429586D01*
X498800D02*X501200Y427186D01*
X498800D02*X501200Y429586D01*
X478800D02*X481200Y427186D01*
X478800D02*X481200Y429586D01*
X438800D02*X441200Y427186D01*
X438800D02*X441200Y429586D01*
X13800Y595836D02*X16200Y593436D01*
X13800D02*X16200Y595836D01*
X135000Y597186D02*X137400Y594186D01*
Y590886D01*
X139800Y597186D02*X137400Y594186D01*
X141600Y597186D02*Y590886D01*
Y597186D02*X145500D01*
X141600Y594186D02*X144000D01*
X141600Y590886D02*X145500D01*
X151500Y596286D02*X150900Y596886D01*
X150000Y597186D01*
X148800D02*X150000D01*
X148800D02*X147900Y596886D01*
X147300Y596286D01*
Y595686D01*
X147600Y595086D01*
X147900Y594786D01*
X148500Y594486D01*
X150300Y593886D01*
X150900Y593586D01*
X151200Y593286D01*
X151500Y592686D01*
Y591786D01*
X150900Y591186D01*
X150000Y590886D01*
X148800D02*X150000D01*
X148800D02*X147900Y591186D01*
X147300Y591786D01*
X99500Y597186D02*X98600Y596886D01*
X98300Y596286D01*
Y595686D01*
X98600Y595086D01*
X99200Y594786D01*
X100400Y594486D01*
X101300Y594186D01*
X101900Y593586D01*
X102200Y592986D01*
Y592086D01*
X101900Y591486D01*
X101600Y591186D01*
X100700Y590886D01*
X99500D02*X100700D01*
X99500D02*X98600Y591186D01*
X98300Y591486D01*
X98000Y592086D01*
Y592986D02*Y592086D01*
Y592986D02*X98300Y593586D01*
X98900Y594186D01*
X99800Y594486D01*
X101000Y594786D01*
X101600Y595086D01*
X101900Y595686D01*
Y596286D02*Y595686D01*
Y596286D02*X101600Y596886D01*
X100700Y597186D01*
X99500D02*X100700D01*
X46800D02*X45900Y596886D01*
X45300Y595986D01*
X45000Y594486D01*
Y593586D01*
X45300Y592086D01*
X45900Y591186D01*
X46800Y590886D01*
X47400D01*
X48300Y591186D01*
X48900Y592086D01*
X49200Y593586D01*
Y594486D02*Y593586D01*
Y594486D02*X48900Y595986D01*
X48300Y596886D01*
X47400Y597186D01*
X46800D02*X47400D01*
X51300Y591486D02*X51000Y591186D01*
X51300Y590886D01*
X51600Y591186D01*
X51300Y591486D01*
X55200Y597186D02*X54300Y596886D01*
X53700Y595986D01*
X53400Y594486D01*
Y593586D01*
X53700Y592086D01*
X54300Y591186D01*
X55200Y590886D01*
X55800D01*
X56700Y591186D01*
X57300Y592086D01*
X57600Y593586D01*
Y594486D02*Y593586D01*
Y594486D02*X57300Y595986D01*
X56700Y596886D01*
X55800Y597186D01*
X55200D02*X55800D01*
X60000D02*X63300D01*
X61500Y594786D01*
X62400D01*
X63000Y594486D01*
X63300Y594186D01*
X63600Y593286D01*
Y592686D01*
X63300Y591786D01*
X62700Y591186D01*
X61800Y590886D01*
X60900D02*X61800D01*
X60900D02*X60000Y591186D01*
X59700Y591486D01*
X59400Y592086D01*
X65700Y595986D02*Y595686D01*
Y595986D02*X66000Y596586D01*
X66300Y596886D01*
X66900Y597186D01*
X68100D01*
X68700Y596886D01*
X69000Y596586D01*
X69300Y595986D01*
Y595386D01*
X69000Y594786D01*
X68400Y593886D01*
X65400Y590886D01*
X69600D01*
X520000Y354986D02*Y351786D01*
X518400Y353386D02*X521600D01*
X520000Y344986D02*Y341786D01*
X518400Y343386D02*X521600D01*
X520000Y334986D02*Y331786D01*
X518400Y333386D02*X521600D01*
X520000Y324986D02*Y321786D01*
X518400Y323386D02*X521600D01*
X550000Y324986D02*Y321786D01*
X548400Y323386D02*X551600D01*
X550000Y334986D02*Y331786D01*
X548400Y333386D02*X551600D01*
X550000Y344986D02*Y341786D01*
X548400Y343386D02*X551600D01*
X550000Y354986D02*Y351786D01*
X548400Y353386D02*X551600D01*
X15000Y611236D02*Y608036D01*
X13400Y609636D02*X16600D01*
X135000Y612186D02*X137400Y609186D01*
Y605886D01*
X139800Y612186D02*X137400Y609186D01*
X141600Y612186D02*Y605886D01*
Y612186D02*X145500D01*
X141600Y609186D02*X144000D01*
X141600Y605886D02*X145500D01*
X151500Y611286D02*X150900Y611886D01*
X150000Y612186D01*
X148800D02*X150000D01*
X148800D02*X147900Y611886D01*
X147300Y611286D01*
Y610686D01*
X147600Y610086D01*
X147900Y609786D01*
X148500Y609486D01*
X150300Y608886D01*
X150900Y608586D01*
X151200Y608286D01*
X151500Y607686D01*
Y606786D01*
X150900Y606186D01*
X150000Y605886D01*
X148800D02*X150000D01*
X148800D02*X147900Y606186D01*
X147300Y606786D01*
X99500Y612186D02*X98600Y611886D01*
X98300Y611286D01*
Y610686D01*
X98600Y610086D01*
X99200Y609786D01*
X100400Y609486D01*
X101300Y609186D01*
X101900Y608586D01*
X102200Y607986D01*
Y607086D01*
X101900Y606486D01*
X101600Y606186D01*
X100700Y605886D01*
X99500D02*X100700D01*
X99500D02*X98600Y606186D01*
X98300Y606486D01*
X98000Y607086D01*
Y607986D02*Y607086D01*
Y607986D02*X98300Y608586D01*
X98900Y609186D01*
X99800Y609486D01*
X101000Y609786D01*
X101600Y610086D01*
X101900Y610686D01*
Y611286D02*Y610686D01*
Y611286D02*X101600Y611886D01*
X100700Y612186D01*
X99500D02*X100700D01*
X46800D02*X45900Y611886D01*
X45300Y610986D01*
X45000Y609486D01*
Y608586D01*
X45300Y607086D01*
X45900Y606186D01*
X46800Y605886D01*
X47400D01*
X48300Y606186D01*
X48900Y607086D01*
X49200Y608586D01*
Y609486D02*Y608586D01*
Y609486D02*X48900Y610986D01*
X48300Y611886D01*
X47400Y612186D01*
X46800D02*X47400D01*
X51300Y606486D02*X51000Y606186D01*
X51300Y605886D01*
X51600Y606186D01*
X51300Y606486D01*
X55200Y612186D02*X54300Y611886D01*
X53700Y610986D01*
X53400Y609486D01*
Y608586D01*
X53700Y607086D01*
X54300Y606186D01*
X55200Y605886D01*
X55800D01*
X56700Y606186D01*
X57300Y607086D01*
X57600Y608586D01*
Y609486D02*Y608586D01*
Y609486D02*X57300Y610986D01*
X56700Y611886D01*
X55800Y612186D01*
X55200D02*X55800D01*
X59700Y610986D02*Y610686D01*
Y610986D02*X60000Y611586D01*
X60300Y611886D01*
X60900Y612186D01*
X62100D01*
X62700Y611886D01*
X63000Y611586D01*
X63300Y610986D01*
Y610386D01*
X63000Y609786D01*
X62400Y608886D01*
X59400Y605886D01*
X63600D01*
X66900Y612186D02*X66000Y611886D01*
X65700Y611286D01*
Y610686D01*
X66000Y610086D01*
X66600Y609786D01*
X67800Y609486D01*
X68700Y609186D01*
X69300Y608586D01*
X69600Y607986D01*
Y607086D01*
X69300Y606486D01*
X69000Y606186D01*
X68100Y605886D01*
X66900D02*X68100D01*
X66900D02*X66000Y606186D01*
X65700Y606486D01*
X65400Y607086D01*
Y607986D02*Y607086D01*
Y607986D02*X65700Y608586D01*
X66300Y609186D01*
X67200Y609486D01*
X68400Y609786D01*
X69000Y610086D01*
X69300Y610686D01*
Y611286D02*Y610686D01*
Y611286D02*X69000Y611886D01*
X68100Y612186D01*
X66900D02*X68100D01*
X569921Y343386D02*Y341786D01*
Y343386D02*X571308Y344186D01*
X569921Y343386D02*X568534Y344186D01*
X560079Y343386D02*Y341786D01*
Y343386D02*X561466Y344186D01*
X560079Y343386D02*X558692Y344186D01*
X510079Y303386D02*Y301786D01*
Y303386D02*X511466Y304186D01*
X510079Y303386D02*X508692Y304186D01*
X519921Y303386D02*Y301786D01*
Y303386D02*X521308Y304186D01*
X519921Y303386D02*X518534Y304186D01*
X149921Y173386D02*Y171786D01*
Y173386D02*X151308Y174186D01*
X149921Y173386D02*X148534Y174186D01*
X140079Y173386D02*Y171786D01*
Y173386D02*X141466Y174186D01*
X140079Y173386D02*X138692Y174186D01*
X129921Y173386D02*Y171786D01*
Y173386D02*X131308Y174186D01*
X129921Y173386D02*X128534Y174186D01*
X120079Y173386D02*Y171786D01*
Y173386D02*X121466Y174186D01*
X120079Y173386D02*X118692Y174186D01*
X149921Y353386D02*Y351786D01*
Y353386D02*X151308Y354186D01*
X149921Y353386D02*X148534Y354186D01*
X140079Y353386D02*Y351786D01*
Y353386D02*X141466Y354186D01*
X140079Y353386D02*X138692Y354186D01*
X129921Y353386D02*Y351786D01*
Y353386D02*X131308Y354186D01*
X129921Y353386D02*X128534Y354186D01*
X120079Y353386D02*Y351786D01*
Y353386D02*X121466Y354186D01*
X120079Y353386D02*X118692Y354186D01*
X149921Y293386D02*Y291786D01*
Y293386D02*X151308Y294186D01*
X149921Y293386D02*X148534Y294186D01*
X140079Y293386D02*Y291786D01*
Y293386D02*X141466Y294186D01*
X140079Y293386D02*X138692Y294186D01*
X129921Y293386D02*Y291786D01*
Y293386D02*X131308Y294186D01*
X129921Y293386D02*X128534Y294186D01*
X120079Y293386D02*Y291786D01*
Y293386D02*X121466Y294186D01*
X120079Y293386D02*X118692Y294186D01*
X149921Y233386D02*Y231786D01*
Y233386D02*X151308Y234186D01*
X149921Y233386D02*X148534Y234186D01*
X140079Y233386D02*Y231786D01*
Y233386D02*X141466Y234186D01*
X140079Y233386D02*X138692Y234186D01*
X129921Y233386D02*Y231786D01*
Y233386D02*X131308Y234186D01*
X129921Y233386D02*X128534Y234186D01*
X120079Y233386D02*Y231786D01*
Y233386D02*X121466Y234186D01*
X120079Y233386D02*X118692Y234186D01*
X149921Y113386D02*Y111786D01*
Y113386D02*X151308Y114186D01*
X149921Y113386D02*X148534Y114186D01*
X140079Y113386D02*Y111786D01*
Y113386D02*X141466Y114186D01*
X140079Y113386D02*X138692Y114186D01*
X129921Y113386D02*Y111786D01*
Y113386D02*X131308Y114186D01*
X129921Y113386D02*X128534Y114186D01*
X120079Y113386D02*Y111786D01*
Y113386D02*X121466Y114186D01*
X120079Y113386D02*X118692Y114186D01*
X15000Y624636D02*Y623036D01*
Y624636D02*X16387Y625436D01*
X15000Y624636D02*X13613Y625436D01*
X135000Y627186D02*X137400Y624186D01*
Y620886D01*
X139800Y627186D02*X137400Y624186D01*
X141600Y627186D02*Y620886D01*
Y627186D02*X145500D01*
X141600Y624186D02*X144000D01*
X141600Y620886D02*X145500D01*
X151500Y626286D02*X150900Y626886D01*
X150000Y627186D01*
X148800D02*X150000D01*
X148800D02*X147900Y626886D01*
X147300Y626286D01*
Y625686D01*
X147600Y625086D01*
X147900Y624786D01*
X148500Y624486D01*
X150300Y623886D01*
X150900Y623586D01*
X151200Y623286D01*
X151500Y622686D01*
Y621786D01*
X150900Y621186D01*
X150000Y620886D01*
X148800D02*X150000D01*
X148800D02*X147900Y621186D01*
X147300Y621786D01*
X98300Y625986D02*Y625686D01*
Y625986D02*X98600Y626586D01*
X98900Y626886D01*
X99500Y627186D01*
X100700D01*
X101300Y626886D01*
X101600Y626586D01*
X101900Y625986D01*
Y625386D01*
X101600Y624786D01*
X101000Y623886D01*
X98000Y620886D01*
X102200D01*
X107000Y627186D02*X104000Y622986D01*
X108500D01*
X107000Y627186D02*Y620886D01*
X46800Y627186D02*X45900Y626886D01*
X45300Y625986D01*
X45000Y624486D01*
Y623586D01*
X45300Y622086D01*
X45900Y621186D01*
X46800Y620886D01*
X47400D01*
X48300Y621186D01*
X48900Y622086D01*
X49200Y623586D01*
Y624486D02*Y623586D01*
Y624486D02*X48900Y625986D01*
X48300Y626886D01*
X47400Y627186D01*
X46800D02*X47400D01*
X51300Y621486D02*X51000Y621186D01*
X51300Y620886D01*
X51600Y621186D01*
X51300Y621486D01*
X55200Y627186D02*X54300Y626886D01*
X53700Y625986D01*
X53400Y624486D01*
Y623586D01*
X53700Y622086D01*
X54300Y621186D01*
X55200Y620886D01*
X55800D01*
X56700Y621186D01*
X57300Y622086D01*
X57600Y623586D01*
Y624486D02*Y623586D01*
Y624486D02*X57300Y625986D01*
X56700Y626886D01*
X55800Y627186D01*
X55200D02*X55800D01*
X59700Y625986D02*Y625686D01*
Y625986D02*X60000Y626586D01*
X60300Y626886D01*
X60900Y627186D01*
X62100D01*
X62700Y626886D01*
X63000Y626586D01*
X63300Y625986D01*
Y625386D01*
X63000Y624786D01*
X62400Y623886D01*
X59400Y620886D01*
X63600D01*
X67200Y627186D02*X66300Y626886D01*
X65700Y625986D01*
X65400Y624486D01*
Y623586D01*
X65700Y622086D01*
X66300Y621186D01*
X67200Y620886D01*
X67800D01*
X68700Y621186D01*
X69300Y622086D01*
X69600Y623586D01*
Y624486D02*Y623586D01*
Y624486D02*X69300Y625986D01*
X68700Y626886D01*
X67800Y627186D01*
X67200D02*X67800D01*
X4200Y641286D02*X3600Y641886D01*
X2700Y642186D01*
X1500D02*X2700D01*
X1500D02*X600Y641886D01*
X0Y641286D01*
Y640686D01*
X300Y640086D01*
X600Y639786D01*
X1200Y639486D01*
X3000Y638886D01*
X3600Y638586D01*
X3900Y638286D01*
X4200Y637686D01*
Y636786D01*
X3600Y636186D01*
X2700Y635886D01*
X1500D02*X2700D01*
X1500D02*X600Y636186D01*
X0Y636786D01*
X6300Y640086D02*X8100Y635886D01*
X9900Y640086D02*X8100Y635886D01*
X7500Y634686D01*
X6900Y634086D01*
X6300Y633786D01*
X6000D02*X6300D01*
X11700Y640086D02*Y635886D01*
Y638886D02*X12600Y639786D01*
X13200Y640086D01*
X14100D01*
X14700Y639786D01*
X15000Y638886D01*
Y635886D01*
Y638886D02*X15900Y639786D01*
X16500Y640086D01*
X17400D01*
X18000Y639786D01*
X18300Y638886D01*
Y635886D01*
X20100Y642186D02*Y635886D01*
Y639186D02*X20700Y639786D01*
X21300Y640086D01*
X22200D01*
X22800Y639786D01*
X23400Y639186D01*
X23700Y638286D01*
Y637686D01*
X23400Y636786D01*
X22800Y636186D01*
X22200Y635886D01*
X21300D02*X22200D01*
X21300D02*X20700Y636186D01*
X20100Y636786D01*
X27000Y640086D02*X26400Y639786D01*
X25800Y639186D01*
X25500Y638286D01*
Y637686D01*
X25800Y636786D01*
X26400Y636186D01*
X27000Y635886D01*
X27900D01*
X28500Y636186D01*
X29100Y636786D01*
X29400Y637686D01*
Y638286D02*Y637686D01*
Y638286D02*X29100Y639186D01*
X28500Y639786D01*
X27900Y640086D01*
X27000D02*X27900D01*
X31200Y642186D02*Y635886D01*
X0Y632786D02*X33000D01*
X41000Y642186D02*Y635886D01*
Y642186D02*X43100D01*
X44000Y641886D01*
X44600Y641286D01*
X44900Y640686D01*
X45200Y639786D01*
Y638286D01*
X44900Y637386D01*
X44600Y636786D01*
X44000Y636186D01*
X43100Y635886D01*
X41000D02*X43100D01*
X47000Y642186D02*X47300Y641886D01*
X47600Y642186D01*
X47300Y642486D01*
X47000Y642186D01*
X47300Y640086D02*Y635886D01*
X53000Y640086D02*Y635886D01*
Y639186D02*X52400Y639786D01*
X51800Y640086D01*
X50900D02*X51800D01*
X50900D02*X50300Y639786D01*
X49700Y639186D01*
X49400Y638286D01*
Y637686D01*
X49700Y636786D01*
X50300Y636186D01*
X50900Y635886D01*
X51800D01*
X52400Y636186D01*
X53000Y636786D01*
X54800Y640086D02*Y635886D01*
Y638886D02*X55700Y639786D01*
X56300Y640086D01*
X57200D01*
X57800Y639786D01*
X58100Y638886D01*
Y635886D01*
Y638886D02*X59000Y639786D01*
X59600Y640086D01*
X60500D01*
X61100Y639786D01*
X61400Y638886D01*
Y635886D01*
X63500Y636486D02*X63200Y636186D01*
X63500Y635886D01*
X63800Y636186D01*
X63500Y636486D01*
X69500Y643386D02*X68900Y642786D01*
X68300Y641886D01*
X67700Y640686D01*
X67400Y639186D01*
Y637986D01*
X67700Y636486D01*
X68300Y635286D01*
X68900Y634386D01*
X69500Y633786D01*
X71300Y642186D02*Y635886D01*
X73100Y640086D02*Y635886D01*
Y638886D02*X74000Y639786D01*
X74600Y640086D01*
X75500D01*
X76100Y639786D01*
X76400Y638886D01*
Y635886D01*
X81800Y639186D02*X81200Y639786D01*
X80600Y640086D01*
X79700D02*X80600D01*
X79700D02*X79100Y639786D01*
X78500Y639186D01*
X78200Y638286D01*
Y637686D01*
X78500Y636786D01*
X79100Y636186D01*
X79700Y635886D01*
X80600D01*
X81200Y636186D01*
X81800Y636786D01*
X83600Y642186D02*Y635886D01*
Y638886D02*X84500Y639786D01*
X85100Y640086D01*
X86000D01*
X86600Y639786D01*
X86900Y638886D01*
Y635886D01*
X88700Y643386D02*X89300Y642786D01*
X89900Y641886D01*
X90500Y640686D01*
X90800Y639186D01*
Y637986D01*
X90500Y636486D01*
X89900Y635286D01*
X89300Y634386D01*
X88700Y633786D01*
X41000Y632786D02*X92600D01*
X99500Y640686D02*X99200Y641286D01*
X98600Y641886D01*
X98000Y642186D01*
X96800D02*X98000D01*
X96800D02*X96200Y641886D01*
X95600Y641286D01*
X95300Y640686D01*
X95000Y639786D01*
Y638286D01*
X95300Y637386D01*
X95600Y636786D01*
X96200Y636186D01*
X96800Y635886D01*
X98000D01*
X98600Y636186D01*
X99200Y636786D01*
X99500Y637386D01*
X102800Y640086D02*X102200Y639786D01*
X101600Y639186D01*
X101300Y638286D01*
Y637686D01*
X101600Y636786D01*
X102200Y636186D01*
X102800Y635886D01*
X103700D01*
X104300Y636186D01*
X104900Y636786D01*
X105200Y637686D01*
Y638286D02*Y637686D01*
Y638286D02*X104900Y639186D01*
X104300Y639786D01*
X103700Y640086D01*
X102800D02*X103700D01*
X107000D02*Y637086D01*
X107300Y636186D01*
X107900Y635886D01*
X108800D01*
X109400Y636186D01*
X110300Y637086D01*
Y640086D02*Y635886D01*
X112100Y640086D02*Y635886D01*
Y638886D02*X113000Y639786D01*
X113600Y640086D01*
X114500D01*
X115100Y639786D01*
X115400Y638886D01*
Y635886D01*
X118100Y642186D02*Y637086D01*
X118400Y636186D01*
X119000Y635886D01*
X119600D01*
X117200Y640086D02*X119300D01*
X95000Y632786D02*X121400D01*
X130000Y642186D02*Y635886D01*
Y642186D02*X132700D01*
X133600Y641886D01*
X133900Y641586D01*
X134200Y640986D01*
Y640086D01*
X133900Y639486D01*
X133600Y639186D01*
X132700Y638886D01*
X130000D02*X132700D01*
X136000Y642186D02*Y635886D01*
X141400Y640086D02*Y635886D01*
Y639186D02*X140800Y639786D01*
X140200Y640086D01*
X139300D02*X140200D01*
X139300D02*X138700Y639786D01*
X138100Y639186D01*
X137800Y638286D01*
Y637686D01*
X138100Y636786D01*
X138700Y636186D01*
X139300Y635886D01*
X140200D01*
X140800Y636186D01*
X141400Y636786D01*
X144100Y642186D02*Y637086D01*
X144400Y636186D01*
X145000Y635886D01*
X145600D01*
X143200Y640086D02*X145300D01*
X147400Y638286D02*X151000D01*
Y638886D02*Y638286D01*
Y638886D02*X150700Y639486D01*
X150400Y639786D01*
X149800Y640086D01*
X148900D02*X149800D01*
X148900D02*X148300Y639786D01*
X147700Y639186D01*
X147400Y638286D01*
Y637686D01*
X147700Y636786D01*
X148300Y636186D01*
X148900Y635886D01*
X149800D01*
X150400Y636186D01*
X151000Y636786D01*
X156400Y642186D02*Y635886D01*
Y639186D02*X155800Y639786D01*
X155200Y640086D01*
X154300D02*X155200D01*
X154300D02*X153700Y639786D01*
X153100Y639186D01*
X152800Y638286D01*
Y637686D01*
X153100Y636786D01*
X153700Y636186D01*
X154300Y635886D01*
X155200D01*
X155800Y636186D01*
X156400Y636786D01*
X158200Y640986D02*Y640686D01*
Y640986D02*X158500Y641586D01*
X158800Y641886D01*
X159400Y642186D01*
X160600D01*
X161200Y641886D01*
X161500Y641586D01*
X161800Y640986D01*
Y640386D01*
X161500Y639786D01*
X161200Y639486D01*
X160000Y638886D01*
Y637986D01*
Y636486D02*X159700Y636186D01*
X160000Y635886D01*
X160300Y636186D01*
X160000Y636486D01*
X130000Y632786D02*X163600D01*
X2100Y657186D02*Y650886D01*
X0Y657186D02*X4200D01*
X6000D02*Y650886D01*
Y653886D02*X6900Y654786D01*
X7500Y655086D01*
X8400D01*
X9000Y654786D01*
X9300Y653886D01*
Y650886D01*
X11100Y653286D02*X14700D01*
Y653886D02*Y653286D01*
Y653886D02*X14400Y654486D01*
X14100Y654786D01*
X13500Y655086D01*
X12600D02*X13500D01*
X12600D02*X12000Y654786D01*
X11400Y654186D01*
X11100Y653286D01*
Y652686D01*
X11400Y651786D01*
X12000Y651186D01*
X12600Y650886D01*
X13500D01*
X14100Y651186D01*
X14700Y651786D01*
X16500Y655086D02*Y650886D01*
Y653286D02*X16800Y654186D01*
X17400Y654786D01*
X18000Y655086D01*
X18900D01*
X20700Y653286D02*X24300D01*
Y653886D02*Y653286D01*
Y653886D02*X24000Y654486D01*
X23700Y654786D01*
X23100Y655086D01*
X22200D02*X23100D01*
X22200D02*X21600Y654786D01*
X21000Y654186D01*
X20700Y653286D01*
Y652686D01*
X21000Y651786D01*
X21600Y651186D01*
X22200Y650886D01*
X23100D01*
X23700Y651186D01*
X24300Y651786D01*
X31500Y655086D02*Y650886D01*
Y654186D02*X30900Y654786D01*
X30300Y655086D01*
X29400D02*X30300D01*
X29400D02*X28800Y654786D01*
X28200Y654186D01*
X27900Y653286D01*
Y652686D01*
X28200Y651786D01*
X28800Y651186D01*
X29400Y650886D01*
X30300D01*
X30900Y651186D01*
X31500Y651786D01*
X33300Y655086D02*Y650886D01*
Y653286D02*X33600Y654186D01*
X34200Y654786D01*
X34800Y655086D01*
X35700D01*
X37500Y653286D02*X41100D01*
Y653886D02*Y653286D01*
Y653886D02*X40800Y654486D01*
X40500Y654786D01*
X39900Y655086D01*
X39000D02*X39900D01*
X39000D02*X38400Y654786D01*
X37800Y654186D01*
X37500Y653286D01*
Y652686D01*
X37800Y651786D01*
X38400Y651186D01*
X39000Y650886D01*
X39900D01*
X40500Y651186D01*
X41100Y651786D01*
X44700Y655986D02*X45300Y656286D01*
X46200Y657186D01*
Y650886D01*
X49800Y657186D02*X48900Y656886D01*
X48300Y655986D01*
X48000Y654486D01*
Y653586D01*
X48300Y652086D01*
X48900Y651186D01*
X49800Y650886D01*
X50400D01*
X51300Y651186D01*
X51900Y652086D01*
X52200Y653586D01*
Y654486D02*Y653586D01*
Y654486D02*X51900Y655986D01*
X51300Y656886D01*
X50400Y657186D01*
X49800D02*X50400D01*
X59400D02*Y650886D01*
Y654186D02*X58800Y654786D01*
X58200Y655086D01*
X57300D02*X58200D01*
X57300D02*X56700Y654786D01*
X56100Y654186D01*
X55800Y653286D01*
Y652686D01*
X56100Y651786D01*
X56700Y651186D01*
X57300Y650886D01*
X58200D01*
X58800Y651186D01*
X59400Y651786D01*
X61200Y657186D02*X61500Y656886D01*
X61800Y657186D01*
X61500Y657486D01*
X61200Y657186D01*
X61500Y655086D02*Y650886D01*
X65400Y657186D02*X66000D01*
X65400D02*X64800Y656886D01*
X64500Y655986D01*
Y650886D01*
X63600Y655086D02*X65700D01*
X69600Y657186D02*X70200D01*
X69600D02*X69000Y656886D01*
X68700Y655986D01*
Y650886D01*
X67800Y655086D02*X69900D01*
X72000Y653286D02*X75600D01*
Y653886D02*Y653286D01*
Y653886D02*X75300Y654486D01*
X75000Y654786D01*
X74400Y655086D01*
X73500D02*X74400D01*
X73500D02*X72900Y654786D01*
X72300Y654186D01*
X72000Y653286D01*
Y652686D01*
X72300Y651786D01*
X72900Y651186D01*
X73500Y650886D01*
X74400D01*
X75000Y651186D01*
X75600Y651786D01*
X77400Y655086D02*Y650886D01*
Y653286D02*X77700Y654186D01*
X78300Y654786D01*
X78900Y655086D01*
X79800D01*
X81600Y653286D02*X85200D01*
Y653886D02*Y653286D01*
Y653886D02*X84900Y654486D01*
X84600Y654786D01*
X84000Y655086D01*
X83100D02*X84000D01*
X83100D02*X82500Y654786D01*
X81900Y654186D01*
X81600Y653286D01*
Y652686D01*
X81900Y651786D01*
X82500Y651186D01*
X83100Y650886D01*
X84000D01*
X84600Y651186D01*
X85200Y651786D01*
X87000Y655086D02*Y650886D01*
Y653886D02*X87900Y654786D01*
X88500Y655086D01*
X89400D01*
X90000Y654786D01*
X90300Y653886D01*
Y650886D01*
X93000Y657186D02*Y652086D01*
X93300Y651186D01*
X93900Y650886D01*
X94500D01*
X92100Y655086D02*X94200D01*
X101700Y657186D02*Y650886D01*
Y654186D02*X101100Y654786D01*
X100500Y655086D01*
X99600D02*X100500D01*
X99600D02*X99000Y654786D01*
X98400Y654186D01*
X98100Y653286D01*
Y652686D01*
X98400Y651786D01*
X99000Y651186D01*
X99600Y650886D01*
X100500D01*
X101100Y651186D01*
X101700Y651786D01*
X103500Y655086D02*Y650886D01*
Y653286D02*X103800Y654186D01*
X104400Y654786D01*
X105000Y655086D01*
X105900D01*
X107700Y657186D02*X108000Y656886D01*
X108300Y657186D01*
X108000Y657486D01*
X107700Y657186D01*
X108000Y655086D02*Y650886D01*
X110100Y657186D02*Y650886D01*
X111900Y657186D02*Y650886D01*
X118800Y654186D02*X118500Y654786D01*
X117600Y655086D01*
X116700D02*X117600D01*
X116700D02*X115800Y654786D01*
X115500Y654186D01*
X115800Y653586D01*
X116400Y653286D01*
X117900Y652986D01*
X118500Y652686D01*
X118800Y652086D01*
Y651786D01*
X118500Y651186D01*
X117600Y650886D01*
X116700D02*X117600D01*
X116700D02*X115800Y651186D01*
X115500Y651786D01*
X120600Y657186D02*X120900Y656886D01*
X121200Y657186D01*
X120900Y657486D01*
X120600Y657186D01*
X120900Y655086D02*Y650886D01*
X126300Y655086D02*X123000Y650886D01*
Y655086D02*X126300D01*
X123000Y650886D02*X126300D01*
X128100Y653286D02*X131700D01*
Y653886D02*Y653286D01*
Y653886D02*X131400Y654486D01*
X131100Y654786D01*
X130500Y655086D01*
X129600D02*X130500D01*
X129600D02*X129000Y654786D01*
X128400Y654186D01*
X128100Y653286D01*
Y652686D01*
X128400Y651786D01*
X129000Y651186D01*
X129600Y650886D01*
X130500D01*
X131100Y651186D01*
X131700Y651786D01*
X136800Y654186D02*X136500Y654786D01*
X135600Y655086D01*
X134700D02*X135600D01*
X134700D02*X133800Y654786D01*
X133500Y654186D01*
X133800Y653586D01*
X134400Y653286D01*
X135900Y652986D01*
X136500Y652686D01*
X136800Y652086D01*
Y651786D01*
X136500Y651186D01*
X135600Y650886D01*
X134700D02*X135600D01*
X134700D02*X133800Y651186D01*
X133500Y651786D01*
X140400Y655086D02*Y652086D01*
X140700Y651186D01*
X141300Y650886D01*
X142200D01*
X142800Y651186D01*
X143700Y652086D01*
Y655086D02*Y650886D01*
X148800Y654186D02*X148500Y654786D01*
X147600Y655086D01*
X146700D02*X147600D01*
X146700D02*X145800Y654786D01*
X145500Y654186D01*
X145800Y653586D01*
X146400Y653286D01*
X147900Y652986D01*
X148500Y652686D01*
X148800Y652086D01*
Y651786D01*
X148500Y651186D01*
X147600Y650886D01*
X146700D02*X147600D01*
X146700D02*X145800Y651186D01*
X145500Y651786D01*
X150600Y653286D02*X154200D01*
Y653886D02*Y653286D01*
Y653886D02*X153900Y654486D01*
X153600Y654786D01*
X153000Y655086D01*
X152100D02*X153000D01*
X152100D02*X151500Y654786D01*
X150900Y654186D01*
X150600Y653286D01*
Y652686D01*
X150900Y651786D01*
X151500Y651186D01*
X152100Y650886D01*
X153000D01*
X153600Y651186D01*
X154200Y651786D01*
X159600Y657186D02*Y650886D01*
Y654186D02*X159000Y654786D01*
X158400Y655086D01*
X157500D02*X158400D01*
X157500D02*X156900Y654786D01*
X156300Y654186D01*
X156000Y653286D01*
Y652686D01*
X156300Y651786D01*
X156900Y651186D01*
X157500Y650886D01*
X158400D01*
X159000Y651186D01*
X159600Y651786D01*
X163200Y657186D02*X163500Y656886D01*
X163800Y657186D01*
X163500Y657486D01*
X163200Y657186D01*
X163500Y655086D02*Y650886D01*
X165600Y655086D02*Y650886D01*
Y653886D02*X166500Y654786D01*
X167100Y655086D01*
X168000D01*
X168600Y654786D01*
X168900Y653886D01*
Y650886D01*
X173400Y657186D02*Y652086D01*
X173700Y651186D01*
X174300Y650886D01*
X174900D01*
X172500Y655086D02*X174600D01*
X176700Y657186D02*Y650886D01*
Y653886D02*X177600Y654786D01*
X178200Y655086D01*
X179100D01*
X179700Y654786D01*
X180000Y653886D01*
Y650886D01*
X181800Y657186D02*X182100Y656886D01*
X182400Y657186D01*
X182100Y657486D01*
X181800Y657186D01*
X182100Y655086D02*Y650886D01*
X187500Y654186D02*X187200Y654786D01*
X186300Y655086D01*
X185400D02*X186300D01*
X185400D02*X184500Y654786D01*
X184200Y654186D01*
X184500Y653586D01*
X185100Y653286D01*
X186600Y652986D01*
X187200Y652686D01*
X187500Y652086D01*
Y651786D01*
X187200Y651186D01*
X186300Y650886D01*
X185400D02*X186300D01*
X185400D02*X184500Y651186D01*
X184200Y651786D01*
X191100Y657186D02*Y650886D01*
X196500Y655086D02*Y650886D01*
Y654186D02*X195900Y654786D01*
X195300Y655086D01*
X194400D02*X195300D01*
X194400D02*X193800Y654786D01*
X193200Y654186D01*
X192900Y653286D01*
Y652686D01*
X193200Y651786D01*
X193800Y651186D01*
X194400Y650886D01*
X195300D01*
X195900Y651186D01*
X196500Y651786D01*
X198600Y655086D02*X200400Y650886D01*
X202200Y655086D02*X200400Y650886D01*
X199800Y649686D01*
X199200Y649086D01*
X198600Y648786D01*
X198300D02*X198600D01*
X205500Y655086D02*X204900Y654786D01*
X204300Y654186D01*
X204000Y653286D01*
Y652686D01*
X204300Y651786D01*
X204900Y651186D01*
X205500Y650886D01*
X206400D01*
X207000Y651186D01*
X207600Y651786D01*
X207900Y652686D01*
Y653286D02*Y652686D01*
Y653286D02*X207600Y654186D01*
X207000Y654786D01*
X206400Y655086D01*
X205500D02*X206400D01*
X209700D02*Y652086D01*
X210000Y651186D01*
X210600Y650886D01*
X211500D01*
X212100Y651186D01*
X213000Y652086D01*
Y655086D02*Y650886D01*
X215700Y657186D02*Y652086D01*
X216000Y651186D01*
X216600Y650886D01*
X217200D01*
X214800Y655086D02*X216900D01*
X219600Y651186D02*X219300Y650886D01*
X219000Y651186D01*
X219300Y651486D01*
X219600Y651186D01*
Y650586D01*
X219300Y649986D01*
X219000Y649686D01*
X223200Y655986D02*X223800Y656286D01*
X224700Y657186D01*
Y650886D01*
X228000Y657186D02*X227100Y656886D01*
X226800Y656286D01*
Y655686D01*
X227100Y655086D01*
X227700Y654786D01*
X228900Y654486D01*
X229800Y654186D01*
X230400Y653586D01*
X230700Y652986D01*
Y652086D01*
X230400Y651486D01*
X230100Y651186D01*
X229200Y650886D01*
X228000D02*X229200D01*
X228000D02*X227100Y651186D01*
X226800Y651486D01*
X226500Y652086D01*
Y652986D02*Y652086D01*
Y652986D02*X226800Y653586D01*
X227400Y654186D01*
X228300Y654486D01*
X229500Y654786D01*
X230100Y655086D01*
X230400Y655686D01*
Y656286D02*Y655686D01*
Y656286D02*X230100Y656886D01*
X229200Y657186D01*
X228000D02*X229200D01*
X234000D02*X233100Y656886D01*
X232800Y656286D01*
Y655686D01*
X233100Y655086D01*
X233700Y654786D01*
X234900Y654486D01*
X235800Y654186D01*
X236400Y653586D01*
X236700Y652986D01*
Y652086D01*
X236400Y651486D01*
X236100Y651186D01*
X235200Y650886D01*
X234000D02*X235200D01*
X234000D02*X233100Y651186D01*
X232800Y651486D01*
X232500Y652086D01*
Y652986D02*Y652086D01*
Y652986D02*X232800Y653586D01*
X233400Y654186D01*
X234300Y654486D01*
X235500Y654786D01*
X236100Y655086D01*
X236400Y655686D01*
Y656286D02*Y655686D01*
Y656286D02*X236100Y656886D01*
X235200Y657186D01*
X234000D02*X235200D01*
X240300D02*Y650886D01*
Y653886D02*X241200Y654786D01*
X241800Y655086D01*
X242700D01*
X243300Y654786D01*
X243600Y653886D01*
Y650886D01*
X246900Y655086D02*X246300Y654786D01*
X245700Y654186D01*
X245400Y653286D01*
Y652686D01*
X245700Y651786D01*
X246300Y651186D01*
X246900Y650886D01*
X247800D01*
X248400Y651186D01*
X249000Y651786D01*
X249300Y652686D01*
Y653286D02*Y652686D01*
Y653286D02*X249000Y654186D01*
X248400Y654786D01*
X247800Y655086D01*
X246900D02*X247800D01*
X251100Y657186D02*Y650886D01*
X252900Y653286D02*X256500D01*
Y653886D02*Y653286D01*
Y653886D02*X256200Y654486D01*
X255900Y654786D01*
X255300Y655086D01*
X254400D02*X255300D01*
X254400D02*X253800Y654786D01*
X253200Y654186D01*
X252900Y653286D01*
Y652686D01*
X253200Y651786D01*
X253800Y651186D01*
X254400Y650886D01*
X255300D01*
X255900Y651186D01*
X256500Y651786D01*
X261600Y654186D02*X261300Y654786D01*
X260400Y655086D01*
X259500D02*X260400D01*
X259500D02*X258600Y654786D01*
X258300Y654186D01*
X258600Y653586D01*
X259200Y653286D01*
X260700Y652986D01*
X261300Y652686D01*
X261600Y652086D01*
Y651786D01*
X261300Y651186D01*
X260400Y650886D01*
X259500D02*X260400D01*
X259500D02*X258600Y651186D01*
X258300Y651786D01*
X266100Y657186D02*Y652086D01*
X266400Y651186D01*
X267000Y650886D01*
X267600D01*
X265200Y655086D02*X267300D01*
X270900D02*X270300Y654786D01*
X269700Y654186D01*
X269400Y653286D01*
Y652686D01*
X269700Y651786D01*
X270300Y651186D01*
X270900Y650886D01*
X271800D01*
X272400Y651186D01*
X273000Y651786D01*
X273300Y652686D01*
Y653286D02*Y652686D01*
Y653286D02*X273000Y654186D01*
X272400Y654786D01*
X271800Y655086D01*
X270900D02*X271800D01*
X276000Y657186D02*Y652086D01*
X276300Y651186D01*
X276900Y650886D01*
X277500D01*
X275100Y655086D02*X277200D01*
X282900D02*Y650886D01*
Y654186D02*X282300Y654786D01*
X281700Y655086D01*
X280800D02*X281700D01*
X280800D02*X280200Y654786D01*
X279600Y654186D01*
X279300Y653286D01*
Y652686D01*
X279600Y651786D01*
X280200Y651186D01*
X280800Y650886D01*
X281700D01*
X282300Y651186D01*
X282900Y651786D01*
X284700Y657186D02*Y650886D01*
G54D103*X10000Y60886D02*Y453386D01*
X640000D02*X10000D01*
X640000Y60886D02*Y453386D01*
Y60886D02*X10000D01*
G54D102*X253603Y-3200D02*Y-9500D01*
Y-3200D02*X256303D01*
X257203Y-3500D01*
X257503Y-3800D01*
X257803Y-4400D01*
Y-5000D01*
X257503Y-5600D01*
X257203Y-5900D01*
X256303Y-6200D01*
X253603D02*X256303D01*
X257203Y-6500D01*
X257503Y-6800D01*
X257803Y-7400D01*
Y-8300D01*
X257503Y-8900D01*
X257203Y-9200D01*
X256303Y-9500D01*
X253603D02*X256303D01*
X261103Y-5300D02*X260503Y-5600D01*
X259903Y-6200D01*
X259603Y-7100D01*
Y-7700D01*
X259903Y-8600D01*
X260503Y-9200D01*
X261103Y-9500D01*
X262003D01*
X262603Y-9200D01*
X263203Y-8600D01*
X263503Y-7700D01*
Y-7100D02*Y-7700D01*
Y-7100D02*X263203Y-6200D01*
X262603Y-5600D01*
X262003Y-5300D01*
X261103D02*X262003D01*
X268903D02*Y-9500D01*
Y-6200D02*X268303Y-5600D01*
X267703Y-5300D01*
X266803D02*X267703D01*
X266803D02*X266203Y-5600D01*
X265603Y-6200D01*
X265303Y-7100D01*
Y-7700D01*
X265603Y-8600D01*
X266203Y-9200D01*
X266803Y-9500D01*
X267703D01*
X268303Y-9200D01*
X268903Y-8600D01*
X270703Y-5300D02*Y-9500D01*
Y-7100D02*X271003Y-6200D01*
X271603Y-5600D01*
X272203Y-5300D01*
X273103D01*
X278503Y-3200D02*Y-9500D01*
Y-6200D02*X277903Y-5600D01*
X277303Y-5300D01*
X276403D02*X277303D01*
X276403D02*X275803Y-5600D01*
X275203Y-6200D01*
X274903Y-7100D01*
Y-7700D01*
X275203Y-8600D01*
X275803Y-9200D01*
X276403Y-9500D01*
X277303D01*
X277903Y-9200D01*
X278503Y-8600D01*
X283603Y-5300D02*X283003Y-5600D01*
X282403Y-6200D01*
X282103Y-7100D01*
Y-7700D01*
X282403Y-8600D01*
X283003Y-9200D01*
X283603Y-9500D01*
X284503D01*
X285103Y-9200D01*
X285703Y-8600D01*
X286003Y-7700D01*
Y-7100D02*Y-7700D01*
Y-7100D02*X285703Y-6200D01*
X285103Y-5600D01*
X284503Y-5300D01*
X283603D02*X284503D01*
X287803D02*Y-8300D01*
X288103Y-9200D01*
X288703Y-9500D01*
X289603D01*
X290203Y-9200D01*
X291103Y-8300D01*
Y-5300D02*Y-9500D01*
X293803Y-3200D02*Y-8300D01*
X294103Y-9200D01*
X294703Y-9500D01*
X295303D01*
X292903Y-5300D02*X295003D01*
X297103Y-3200D02*Y-9500D01*
X298903Y-3200D02*X299203Y-3500D01*
X299503Y-3200D01*
X299203Y-2900D01*
X298903Y-3200D01*
X299203Y-5300D02*Y-9500D01*
X301303Y-5300D02*Y-9500D01*
Y-6500D02*X302203Y-5600D01*
X302803Y-5300D01*
X303703D01*
X304303Y-5600D01*
X304603Y-6500D01*
Y-9500D01*
X306403Y-7100D02*X310003D01*
Y-6500D02*Y-7100D01*
Y-6500D02*X309703Y-5900D01*
X309403Y-5600D01*
X308803Y-5300D01*
X307903D02*X308803D01*
X307903D02*X307303Y-5600D01*
X306703Y-6200D01*
X306403Y-7100D01*
Y-7700D01*
X306703Y-8600D01*
X307303Y-9200D01*
X307903Y-9500D01*
X308803D01*
X309403Y-9200D01*
X310003Y-8600D01*
X313603Y-3200D02*X313903Y-3500D01*
X314203Y-3200D01*
X313903Y-2900D01*
X313603Y-3200D01*
X313903Y-5300D02*Y-9500D01*
X319303Y-6200D02*X319003Y-5600D01*
X318103Y-5300D01*
X317203D02*X318103D01*
X317203D02*X316303Y-5600D01*
X316003Y-6200D01*
X316303Y-6800D01*
X316903Y-7100D01*
X318403Y-7400D01*
X319003Y-7700D01*
X319303Y-8300D01*
Y-8600D01*
X319003Y-9200D01*
X318103Y-9500D01*
X317203D02*X318103D01*
X317203D02*X316303Y-9200D01*
X316003Y-8600D01*
X323803Y-3200D02*Y-8300D01*
X324103Y-9200D01*
X324703Y-9500D01*
X325303D01*
X322903Y-5300D02*X325003D01*
X327103Y-3200D02*Y-9500D01*
Y-6500D02*X328003Y-5600D01*
X328603Y-5300D01*
X329503D01*
X330103Y-5600D01*
X330403Y-6500D01*
Y-9500D01*
X332203Y-7100D02*X335803D01*
Y-6500D02*Y-7100D01*
Y-6500D02*X335503Y-5900D01*
X335203Y-5600D01*
X334603Y-5300D01*
X333703D02*X334603D01*
X333703D02*X333103Y-5600D01*
X332503Y-6200D01*
X332203Y-7100D01*
Y-7700D01*
X332503Y-8600D01*
X333103Y-9200D01*
X333703Y-9500D01*
X334603D01*
X335203Y-9200D01*
X335803Y-8600D01*
X343003Y-6200D02*X342403Y-5600D01*
X341803Y-5300D01*
X340903D02*X341803D01*
X340903D02*X340303Y-5600D01*
X339703Y-6200D01*
X339403Y-7100D01*
Y-7700D01*
X339703Y-8600D01*
X340303Y-9200D01*
X340903Y-9500D01*
X341803D01*
X342403Y-9200D01*
X343003Y-8600D01*
X344803Y-7100D02*X348403D01*
Y-6500D02*Y-7100D01*
Y-6500D02*X348103Y-5900D01*
X347803Y-5600D01*
X347203Y-5300D01*
X346303D02*X347203D01*
X346303D02*X345703Y-5600D01*
X345103Y-6200D01*
X344803Y-7100D01*
Y-7700D01*
X345103Y-8600D01*
X345703Y-9200D01*
X346303Y-9500D01*
X347203D01*
X347803Y-9200D01*
X348403Y-8600D01*
X350203Y-5300D02*Y-9500D01*
Y-6500D02*X351103Y-5600D01*
X351703Y-5300D01*
X352603D01*
X353203Y-5600D01*
X353503Y-6500D01*
Y-9500D01*
X356203Y-3200D02*Y-8300D01*
X356503Y-9200D01*
X357103Y-9500D01*
X357703D01*
X355303Y-5300D02*X357403D01*
X359503Y-7100D02*X363103D01*
Y-6500D02*Y-7100D01*
Y-6500D02*X362803Y-5900D01*
X362503Y-5600D01*
X361903Y-5300D01*
X361003D02*X361903D01*
X361003D02*X360403Y-5600D01*
X359803Y-6200D01*
X359503Y-7100D01*
Y-7700D01*
X359803Y-8600D01*
X360403Y-9200D01*
X361003Y-9500D01*
X361903D01*
X362503Y-9200D01*
X363103Y-8600D01*
X364903Y-5300D02*Y-9500D01*
Y-7100D02*X365203Y-6200D01*
X365803Y-5600D01*
X366403Y-5300D01*
X367303D01*
X369103Y-3200D02*Y-9500D01*
X370903Y-3200D02*X371203Y-3500D01*
X371503Y-3200D01*
X371203Y-2900D01*
X370903Y-3200D01*
X371203Y-5300D02*Y-9500D01*
X373303Y-5300D02*Y-9500D01*
Y-6500D02*X374203Y-5600D01*
X374803Y-5300D01*
X375703D01*
X376303Y-5600D01*
X376603Y-6500D01*
Y-9500D01*
X378403Y-7100D02*X382003D01*
Y-6500D02*Y-7100D01*
Y-6500D02*X381703Y-5900D01*
X381403Y-5600D01*
X380803Y-5300D01*
X379903D02*X380803D01*
X379903D02*X379303Y-5600D01*
X378703Y-6200D01*
X378403Y-7100D01*
Y-7700D01*
X378703Y-8600D01*
X379303Y-9200D01*
X379903Y-9500D01*
X380803D01*
X381403Y-9200D01*
X382003Y-8600D01*
X387103Y-5300D02*X386503Y-5600D01*
X385903Y-6200D01*
X385603Y-7100D01*
Y-7700D01*
X385903Y-8600D01*
X386503Y-9200D01*
X387103Y-9500D01*
X388003D01*
X388603Y-9200D01*
X389203Y-8600D01*
X389503Y-7700D01*
Y-7100D02*Y-7700D01*
Y-7100D02*X389203Y-6200D01*
X388603Y-5600D01*
X388003Y-5300D01*
X387103D02*X388003D01*
X393103Y-3200D02*X393703D01*
X393103D02*X392503Y-3500D01*
X392203Y-4400D01*
Y-9500D01*
X391303Y-5300D02*X393403D01*
X398203Y-3200D02*Y-8300D01*
X398503Y-9200D01*
X399103Y-9500D01*
X399703D01*
X397303Y-5300D02*X399403D01*
X401503Y-3200D02*Y-9500D01*
Y-6500D02*X402403Y-5600D01*
X403003Y-5300D01*
X403903D01*
X404503Y-5600D01*
X404803Y-6500D01*
Y-9500D01*
X406603Y-3200D02*X406903Y-3500D01*
X407203Y-3200D01*
X406903Y-2900D01*
X406603Y-3200D01*
X406903Y-5300D02*Y-9500D01*
X412303Y-6200D02*X412003Y-5600D01*
X411103Y-5300D01*
X410203D02*X411103D01*
X410203D02*X409303Y-5600D01*
X409003Y-6200D01*
X409303Y-6800D01*
X409903Y-7100D01*
X411403Y-7400D01*
X412003Y-7700D01*
X412303Y-8300D01*
Y-8600D01*
X412003Y-9200D01*
X411103Y-9500D01*
X410203D02*X411103D01*
X410203D02*X409303Y-9200D01*
X409003Y-8600D01*
X415903Y-5300D02*Y-11600D01*
Y-6200D02*X416503Y-5600D01*
X417103Y-5300D01*
X418003D01*
X418603Y-5600D01*
X419203Y-6200D01*
X419503Y-7100D01*
Y-7700D01*
X419203Y-8600D01*
X418603Y-9200D01*
X418003Y-9500D01*
X417103D02*X418003D01*
X417103D02*X416503Y-9200D01*
X415903Y-8600D01*
X424903Y-5300D02*Y-9500D01*
Y-6200D02*X424303Y-5600D01*
X423703Y-5300D01*
X422803D02*X423703D01*
X422803D02*X422203Y-5600D01*
X421603Y-6200D01*
X421303Y-7100D01*
Y-7700D01*
X421603Y-8600D01*
X422203Y-9200D01*
X422803Y-9500D01*
X423703D01*
X424303Y-9200D01*
X424903Y-8600D01*
X427603Y-3200D02*Y-8300D01*
X427903Y-9200D01*
X428503Y-9500D01*
X429103D01*
X426703Y-5300D02*X428803D01*
X430903Y-3200D02*Y-9500D01*
Y-6500D02*X431803Y-5600D01*
X432403Y-5300D01*
X433303D01*
X433903Y-5600D01*
X434203Y-6500D01*
Y-9500D01*
X200000Y492186D02*Y485886D01*
Y492186D02*X202100D01*
X203000Y491886D01*
X203600Y491286D01*
X203900Y490686D01*
X204200Y489786D01*
Y488286D01*
X203900Y487386D01*
X203600Y486786D01*
X203000Y486186D01*
X202100Y485886D01*
X200000D02*X202100D01*
X209600Y490086D02*Y485886D01*
Y489186D02*X209000Y489786D01*
X208400Y490086D01*
X207500D02*X208400D01*
X207500D02*X206900Y489786D01*
X206300Y489186D01*
X206000Y488286D01*
Y487686D01*
X206300Y486786D01*
X206900Y486186D01*
X207500Y485886D01*
X208400D01*
X209000Y486186D01*
X209600Y486786D01*
X212300Y492186D02*Y487086D01*
X212600Y486186D01*
X213200Y485886D01*
X213800D01*
X211400Y490086D02*X213500D01*
X215600Y488286D02*X219200D01*
Y488886D02*Y488286D01*
Y488886D02*X218900Y489486D01*
X218600Y489786D01*
X218000Y490086D01*
X217100D02*X218000D01*
X217100D02*X216500Y489786D01*
X215900Y489186D01*
X215600Y488286D01*
Y487686D01*
X215900Y486786D01*
X216500Y486186D01*
X217100Y485886D01*
X218000D01*
X218600Y486186D01*
X219200Y486786D01*
X221300Y490086D02*X221000Y489786D01*
X221300Y489486D01*
X221600Y489786D01*
X221300Y490086D01*
Y486486D02*X221000Y486186D01*
X221300Y485886D01*
X221600Y486186D01*
X221300Y486486D01*
X229400Y491286D02*X228800Y491886D01*
X227900Y492186D01*
X226700D02*X227900D01*
X226700D02*X225800Y491886D01*
X225200Y491286D01*
Y490686D01*
X225500Y490086D01*
X225800Y489786D01*
X226400Y489486D01*
X228200Y488886D01*
X228800Y488586D01*
X229100Y488286D01*
X229400Y487686D01*
Y486786D01*
X228800Y486186D01*
X227900Y485886D01*
X226700D02*X227900D01*
X226700D02*X225800Y486186D01*
X225200Y486786D01*
X234800Y490086D02*Y485886D01*
Y489186D02*X234200Y489786D01*
X233600Y490086D01*
X232700D02*X233600D01*
X232700D02*X232100Y489786D01*
X231500Y489186D01*
X231200Y488286D01*
Y487686D01*
X231500Y486786D01*
X232100Y486186D01*
X232700Y485886D01*
X233600D01*
X234200Y486186D01*
X234800Y486786D01*
X237500Y492186D02*Y487086D01*
X237800Y486186D01*
X238400Y485886D01*
X239000D01*
X236600Y490086D02*X238700D01*
X245000Y492186D02*X242600Y485886D01*
X245000Y492186D02*X247400Y485886D01*
X243500Y487986D02*X246500D01*
X249200Y490086D02*Y487086D01*
X249500Y486186D01*
X250100Y485886D01*
X251000D01*
X251600Y486186D01*
X252500Y487086D01*
Y490086D02*Y485886D01*
X257900Y490086D02*Y485286D01*
X257600Y484386D01*
X257300Y484086D01*
X256700Y483786D01*
X255800D02*X256700D01*
X255800D02*X255200Y484086D01*
X257900Y489186D02*X257300Y489786D01*
X256700Y490086D01*
X255800D02*X256700D01*
X255800D02*X255200Y489786D01*
X254600Y489186D01*
X254300Y488286D01*
Y487686D01*
X254600Y486786D01*
X255200Y486186D01*
X255800Y485886D01*
X256700D01*
X257300Y486186D01*
X257900Y486786D01*
X261500Y490986D02*X262100Y491286D01*
X263000Y492186D01*
Y485886D01*
X264800Y490986D02*X265400Y491286D01*
X266300Y492186D01*
Y485886D01*
X271700Y492186D02*X270800Y491886D01*
X270200Y490986D01*
X269900Y489486D01*
Y488586D01*
X270200Y487086D01*
X270800Y486186D01*
X271700Y485886D01*
X272300D01*
X273200Y486186D01*
X273800Y487086D01*
X274100Y488586D01*
Y489486D02*Y488586D01*
Y489486D02*X273800Y490986D01*
X273200Y491886D01*
X272300Y492186D01*
X271700D02*X272300D01*
X279800Y490086D02*X279500Y489186D01*
X278900Y488586D01*
X278000Y488286D01*
X277700D02*X278000D01*
X277700D02*X276800Y488586D01*
X276200Y489186D01*
X275900Y490086D01*
Y490386D02*Y490086D01*
Y490386D02*X276200Y491286D01*
X276800Y491886D01*
X277700Y492186D01*
X278000D01*
X278900Y491886D01*
X279500Y491286D01*
X279800Y490086D01*
Y488586D01*
X279500Y487086D01*
X278900Y486186D01*
X278000Y485886D01*
X277400D02*X278000D01*
X277400D02*X276500Y486186D01*
X276200Y486786D01*
X281900Y490086D02*X281600Y489786D01*
X281900Y489486D01*
X282200Y489786D01*
X281900Y490086D01*
Y486486D02*X281600Y486186D01*
X281900Y485886D01*
X282200Y486186D01*
X281900Y486486D01*
X284600Y492186D02*X287900D01*
X286100Y489786D01*
X287000D01*
X287600Y489486D01*
X287900Y489186D01*
X288200Y488286D01*
Y487686D01*
X287900Y486786D01*
X287300Y486186D01*
X286400Y485886D01*
X285500D02*X286400D01*
X285500D02*X284600Y486186D01*
X284300Y486486D01*
X284000Y487086D01*
X293600Y491286D02*X293300Y491886D01*
X292400Y492186D01*
X291800D02*X292400D01*
X291800D02*X290900Y491886D01*
X290300Y490986D01*
X290000Y489486D01*
Y487986D01*
X290300Y486786D01*
X290900Y486186D01*
X291800Y485886D01*
X292100D01*
X293000Y486186D01*
X293600Y486786D01*
X293900Y487686D01*
Y487986D02*Y487686D01*
Y487986D02*X293600Y488886D01*
X293000Y489486D01*
X292100Y489786D01*
X291800D02*X292100D01*
X291800D02*X290900Y489486D01*
X290300Y488886D01*
X290000Y487986D01*
X296000Y490086D02*X295700Y489786D01*
X296000Y489486D01*
X296300Y489786D01*
X296000Y490086D01*
Y486486D02*X295700Y486186D01*
X296000Y485886D01*
X296300Y486186D01*
X296000Y486486D01*
X298100Y490986D02*X298700Y491286D01*
X299600Y492186D01*
Y485886D01*
X305000Y491286D02*X304700Y491886D01*
X303800Y492186D01*
X303200D02*X303800D01*
X303200D02*X302300Y491886D01*
X301700Y490986D01*
X301400Y489486D01*
Y487986D01*
X301700Y486786D01*
X302300Y486186D01*
X303200Y485886D01*
X303500D01*
X304400Y486186D01*
X305000Y486786D01*
X305300Y487686D01*
Y487986D02*Y487686D01*
Y487986D02*X305000Y488886D01*
X304400Y489486D01*
X303500Y489786D01*
X303200D02*X303500D01*
X303200D02*X302300Y489486D01*
X301700Y488886D01*
X301400Y487986D01*
X309200Y490986D02*Y490686D01*
Y490986D02*X309500Y491586D01*
X309800Y491886D01*
X310400Y492186D01*
X311600D01*
X312200Y491886D01*
X312500Y491586D01*
X312800Y490986D01*
Y490386D01*
X312500Y489786D01*
X311900Y488886D01*
X308900Y485886D01*
X313100D01*
X316700Y492186D02*X315800Y491886D01*
X315200Y490986D01*
X314900Y489486D01*
Y488586D01*
X315200Y487086D01*
X315800Y486186D01*
X316700Y485886D01*
X317300D01*
X318200Y486186D01*
X318800Y487086D01*
X319100Y488586D01*
Y489486D02*Y488586D01*
Y489486D02*X318800Y490986D01*
X318200Y491886D01*
X317300Y492186D01*
X316700D02*X317300D01*
X320900Y490986D02*X321500Y491286D01*
X322400Y492186D01*
Y485886D01*
X325700Y492186D02*X324800Y491886D01*
X324500Y491286D01*
Y490686D01*
X324800Y490086D01*
X325400Y489786D01*
X326600Y489486D01*
X327500Y489186D01*
X328100Y488586D01*
X328400Y487986D01*
Y487086D01*
X328100Y486486D01*
X327800Y486186D01*
X326900Y485886D01*
X325700D02*X326900D01*
X325700D02*X324800Y486186D01*
X324500Y486486D01*
X324200Y487086D01*
Y487986D02*Y487086D01*
Y487986D02*X324500Y488586D01*
X325100Y489186D01*
X326000Y489486D01*
X327200Y489786D01*
X327800Y490086D01*
X328100Y490686D01*
Y491286D02*Y490686D01*
Y491286D02*X327800Y491886D01*
X326900Y492186D01*
X325700D02*X326900D01*
X332000D02*Y487686D01*
X332300Y486786D01*
X332900Y486186D01*
X333800Y485886D01*
X334400D01*
X335300Y486186D01*
X335900Y486786D01*
X336200Y487686D01*
Y492186D02*Y487686D01*
X340100Y492186D02*Y485886D01*
X338000Y492186D02*X342200D01*
X348500Y490686D02*X348200Y491286D01*
X347600Y491886D01*
X347000Y492186D01*
X345800D02*X347000D01*
X345800D02*X345200Y491886D01*
X344600Y491286D01*
X344300Y490686D01*
X344000Y489786D01*
Y488286D01*
X344300Y487386D01*
X344600Y486786D01*
X345200Y486186D01*
X345800Y485886D01*
X347000D01*
X347600Y486186D01*
X348200Y486786D01*
X348500Y487386D01*
X202400Y507186D02*X200000Y500886D01*
X202400Y507186D02*X204800Y500886D01*
X200900Y502986D02*X203900D01*
X206600Y505086D02*Y502086D01*
X206900Y501186D01*
X207500Y500886D01*
X208400D01*
X209000Y501186D01*
X209900Y502086D01*
Y505086D02*Y500886D01*
X212600Y507186D02*Y502086D01*
X212900Y501186D01*
X213500Y500886D01*
X214100D01*
X211700Y505086D02*X213800D01*
X215900Y507186D02*Y500886D01*
Y503886D02*X216800Y504786D01*
X217400Y505086D01*
X218300D01*
X218900Y504786D01*
X219200Y503886D01*
Y500886D01*
X222500Y505086D02*X221900Y504786D01*
X221300Y504186D01*
X221000Y503286D01*
Y502686D01*
X221300Y501786D01*
X221900Y501186D01*
X222500Y500886D01*
X223400D01*
X224000Y501186D01*
X224600Y501786D01*
X224900Y502686D01*
Y503286D02*Y502686D01*
Y503286D02*X224600Y504186D01*
X224000Y504786D01*
X223400Y505086D01*
X222500D02*X223400D01*
X226700D02*Y500886D01*
Y503286D02*X227000Y504186D01*
X227600Y504786D01*
X228200Y505086D01*
X229100D01*
X231200D02*X230900Y504786D01*
X231200Y504486D01*
X231500Y504786D01*
X231200Y505086D01*
Y501486D02*X230900Y501186D01*
X231200Y500886D01*
X231500Y501186D01*
X231200Y501486D01*
X235100Y507186D02*Y500886D01*
Y507186D02*X237800D01*
X238700Y506886D01*
X239000Y506586D01*
X239300Y505986D01*
Y505386D01*
X239000Y504786D01*
X238700Y504486D01*
X237800Y504186D01*
X235100D02*X237800D01*
X238700Y503886D01*
X239000Y503586D01*
X239300Y502986D01*
Y502086D01*
X239000Y501486D01*
X238700Y501186D01*
X237800Y500886D01*
X235100D02*X237800D01*
X241100Y503286D02*X244700D01*
Y503886D02*Y503286D01*
Y503886D02*X244400Y504486D01*
X244100Y504786D01*
X243500Y505086D01*
X242600D02*X243500D01*
X242600D02*X242000Y504786D01*
X241400Y504186D01*
X241100Y503286D01*
Y502686D01*
X241400Y501786D01*
X242000Y501186D01*
X242600Y500886D01*
X243500D01*
X244100Y501186D01*
X244700Y501786D01*
X246500Y505086D02*Y500886D01*
Y503286D02*X246800Y504186D01*
X247400Y504786D01*
X248000Y505086D01*
X248900D01*
X251600Y507186D02*Y502086D01*
X251900Y501186D01*
X252500Y500886D01*
X253100D01*
X250700Y505086D02*X252800D01*
X258800Y507186D02*Y500886D01*
X256700Y507186D02*X260900D01*
X262700D02*X263000Y506886D01*
X263300Y507186D01*
X263000Y507486D01*
X262700Y507186D01*
X263000Y505086D02*Y500886D01*
X265100Y505086D02*Y500886D01*
Y503886D02*X266000Y504786D01*
X266600Y505086D01*
X267500D01*
X268100Y504786D01*
X268400Y503886D01*
Y500886D01*
Y503886D02*X269300Y504786D01*
X269900Y505086D01*
X270800D01*
X271400Y504786D01*
X271700Y503886D01*
Y500886D01*
X273500Y505086D02*Y500886D01*
Y503886D02*X274400Y504786D01*
X275000Y505086D01*
X275900D01*
X276500Y504786D01*
X276800Y503886D01*
Y500886D01*
Y503886D02*X277700Y504786D01*
X278300Y505086D01*
X279200D01*
X279800Y504786D01*
X280100Y503886D01*
Y500886D01*
X281900Y503286D02*X285500D01*
Y503886D02*Y503286D01*
Y503886D02*X285200Y504486D01*
X284900Y504786D01*
X284300Y505086D01*
X283400D02*X284300D01*
X283400D02*X282800Y504786D01*
X282200Y504186D01*
X281900Y503286D01*
Y502686D01*
X282200Y501786D01*
X282800Y501186D01*
X283400Y500886D01*
X284300D01*
X284900Y501186D01*
X285500Y501786D01*
X287300Y505086D02*Y500886D01*
Y503286D02*X287600Y504186D01*
X288200Y504786D01*
X288800Y505086D01*
X289700D01*
X291500D02*Y500886D01*
Y503886D02*X292400Y504786D01*
X293000Y505086D01*
X293900D01*
X294500Y504786D01*
X294800Y503886D01*
Y500886D01*
Y503886D02*X295700Y504786D01*
X296300Y505086D01*
X297200D01*
X297800Y504786D01*
X298100Y503886D01*
Y500886D01*
X303500Y505086D02*Y500886D01*
Y504186D02*X302900Y504786D01*
X302300Y505086D01*
X301400D02*X302300D01*
X301400D02*X300800Y504786D01*
X300200Y504186D01*
X299900Y503286D01*
Y502686D01*
X300200Y501786D01*
X300800Y501186D01*
X301400Y500886D01*
X302300D01*
X302900Y501186D01*
X303500Y501786D01*
X305300Y505086D02*Y500886D01*
Y503886D02*X306200Y504786D01*
X306800Y505086D01*
X307700D01*
X308300Y504786D01*
X308600Y503886D01*
Y500886D01*
X202100Y522186D02*Y515886D01*
X200000Y522186D02*X204200D01*
X206000D02*X206300Y521886D01*
X206600Y522186D01*
X206300Y522486D01*
X206000Y522186D01*
X206300Y520086D02*Y515886D01*
X209300Y522186D02*Y517086D01*
X209600Y516186D01*
X210200Y515886D01*
X210800D01*
X208400Y520086D02*X210500D01*
X212600Y522186D02*Y515886D01*
X214400Y518286D02*X218000D01*
Y518886D02*Y518286D01*
Y518886D02*X217700Y519486D01*
X217400Y519786D01*
X216800Y520086D01*
X215900D02*X216800D01*
X215900D02*X215300Y519786D01*
X214700Y519186D01*
X214400Y518286D01*
Y517686D01*
X214700Y516786D01*
X215300Y516186D01*
X215900Y515886D01*
X216800D01*
X217400Y516186D01*
X218000Y516786D01*
X220100Y520086D02*X219800Y519786D01*
X220100Y519486D01*
X220400Y519786D01*
X220100Y520086D01*
Y516486D02*X219800Y516186D01*
X220100Y515886D01*
X220400Y516186D01*
X220100Y516486D01*
X224300Y520986D02*Y520686D01*
Y520986D02*X224600Y521586D01*
X224900Y521886D01*
X225500Y522186D01*
X226700D01*
X227300Y521886D01*
X227600Y521586D01*
X227900Y520986D01*
Y520386D01*
X227600Y519786D01*
X227000Y518886D01*
X224000Y515886D01*
X228200D01*
X233600Y521286D02*X233300Y521886D01*
X232400Y522186D01*
X231800D02*X232400D01*
X231800D02*X230900Y521886D01*
X230300Y520986D01*
X230000Y519486D01*
Y517986D01*
X230300Y516786D01*
X230900Y516186D01*
X231800Y515886D01*
X232100D01*
X233000Y516186D01*
X233600Y516786D01*
X233900Y517686D01*
Y517986D02*Y517686D01*
Y517986D02*X233600Y518886D01*
X233000Y519486D01*
X232100Y519786D01*
X231800D02*X232100D01*
X231800D02*X230900Y519486D01*
X230300Y518886D01*
X230000Y517986D01*
X236000Y516486D02*X235700Y516186D01*
X236000Y515886D01*
X236300Y516186D01*
X236000Y516486D01*
X239900Y522186D02*X239000Y521886D01*
X238400Y520986D01*
X238100Y519486D01*
Y518586D01*
X238400Y517086D01*
X239000Y516186D01*
X239900Y515886D01*
X240500D01*
X241400Y516186D01*
X242000Y517086D01*
X242300Y518586D01*
Y519486D02*Y518586D01*
Y519486D02*X242000Y520986D01*
X241400Y521886D01*
X240500Y522186D01*
X239900D02*X240500D01*
X245900D02*X245000Y521886D01*
X244400Y520986D01*
X244100Y519486D01*
Y518586D01*
X244400Y517086D01*
X245000Y516186D01*
X245900Y515886D01*
X246500D01*
X247400Y516186D01*
X248000Y517086D01*
X248300Y518586D01*
Y519486D02*Y518586D01*
Y519486D02*X248000Y520986D01*
X247400Y521886D01*
X246500Y522186D01*
X245900D02*X246500D01*
X250700D02*X254000D01*
X252200Y519786D01*
X253100D01*
X253700Y519486D01*
X254000Y519186D01*
X254300Y518286D01*
Y517686D01*
X254000Y516786D01*
X253400Y516186D01*
X252500Y515886D01*
X251600D02*X252500D01*
X251600D02*X250700Y516186D01*
X250400Y516486D01*
X250100Y517086D01*
X256400Y516486D02*X256100Y516186D01*
X256400Y515886D01*
X256700Y516186D01*
X256400Y516486D01*
X260300Y522186D02*X259400Y521886D01*
X258800Y520986D01*
X258500Y519486D01*
Y518586D01*
X258800Y517086D01*
X259400Y516186D01*
X260300Y515886D01*
X260900D01*
X261800Y516186D01*
X262400Y517086D01*
X262700Y518586D01*
Y519486D02*Y518586D01*
Y519486D02*X262400Y520986D01*
X261800Y521886D01*
X260900Y522186D01*
X260300D02*X260900D01*
X266300D02*X265400Y521886D01*
X264800Y520986D01*
X264500Y519486D01*
Y518586D01*
X264800Y517086D01*
X265400Y516186D01*
X266300Y515886D01*
X266900D01*
X267800Y516186D01*
X268400Y517086D01*
X268700Y518586D01*
Y519486D02*Y518586D01*
Y519486D02*X268400Y520986D01*
X267800Y521886D01*
X266900Y522186D01*
X266300D02*X266900D01*
X270800Y516486D02*X270500Y516186D01*
X270800Y515886D01*
X271100Y516186D01*
X270800Y516486D01*
X274700Y522186D02*X273800Y521886D01*
X273200Y520986D01*
X272900Y519486D01*
Y518586D01*
X273200Y517086D01*
X273800Y516186D01*
X274700Y515886D01*
X275300D01*
X276200Y516186D01*
X276800Y517086D01*
X277100Y518586D01*
Y519486D02*Y518586D01*
Y519486D02*X276800Y520986D01*
X276200Y521886D01*
X275300Y522186D01*
X274700D02*X275300D01*
X278900Y520986D02*X279500Y521286D01*
X280400Y522186D01*
Y515886D01*
X282500Y516486D02*X282200Y516186D01*
X282500Y515886D01*
X282800Y516186D01*
X282500Y516486D01*
X286400Y522186D02*X285500Y521886D01*
X284900Y520986D01*
X284600Y519486D01*
Y518586D01*
X284900Y517086D01*
X285500Y516186D01*
X286400Y515886D01*
X287000D01*
X287900Y516186D01*
X288500Y517086D01*
X288800Y518586D01*
Y519486D02*Y518586D01*
Y519486D02*X288500Y520986D01*
X287900Y521886D01*
X287000Y522186D01*
X286400D02*X287000D01*
X290600Y520986D02*X291200Y521286D01*
X292100Y522186D01*
Y515886D01*
X294200Y516486D02*X293900Y516186D01*
X294200Y515886D01*
X294500Y516186D01*
X294200Y516486D01*
X296300Y520086D02*Y513786D01*
Y519186D02*X296900Y519786D01*
X297500Y520086D01*
X298400D01*
X299000Y519786D01*
X299600Y519186D01*
X299900Y518286D01*
Y517686D01*
X299600Y516786D01*
X299000Y516186D01*
X298400Y515886D01*
X297500D02*X298400D01*
X297500D02*X296900Y516186D01*
X296300Y516786D01*
X305300Y519186D02*X304700Y519786D01*
X304100Y520086D01*
X303200D02*X304100D01*
X303200D02*X302600Y519786D01*
X302000Y519186D01*
X301700Y518286D01*
Y517686D01*
X302000Y516786D01*
X302600Y516186D01*
X303200Y515886D01*
X304100D01*
X304700Y516186D01*
X305300Y516786D01*
X307100Y522186D02*Y515886D01*
Y519186D02*X307700Y519786D01*
X308300Y520086D01*
X309200D01*
X309800Y519786D01*
X310400Y519186D01*
X310700Y518286D01*
Y517686D01*
X310400Y516786D01*
X309800Y516186D01*
X309200Y515886D01*
X308300D02*X309200D01*
X308300D02*X307700Y516186D01*
X307100Y516786D01*
X314300Y518586D02*X319700D01*
X323300Y522186D02*Y515886D01*
Y522186D02*X327200D01*
X323300Y519186D02*X325700D01*
X332600Y520086D02*Y515886D01*
Y519186D02*X332000Y519786D01*
X331400Y520086D01*
X330500D02*X331400D01*
X330500D02*X329900Y519786D01*
X329300Y519186D01*
X329000Y518286D01*
Y517686D01*
X329300Y516786D01*
X329900Y516186D01*
X330500Y515886D01*
X331400D01*
X332000Y516186D01*
X332600Y516786D01*
X334400Y522186D02*Y515886D01*
Y519186D02*X335000Y519786D01*
X335600Y520086D01*
X336500D01*
X337100Y519786D01*
X337700Y519186D01*
X338000Y518286D01*
Y517686D01*
X337700Y516786D01*
X337100Y516186D01*
X336500Y515886D01*
X335600D02*X336500D01*
X335600D02*X335000Y516186D01*
X334400Y516786D01*
X339800Y520086D02*Y515886D01*
Y518286D02*X340100Y519186D01*
X340700Y519786D01*
X341300Y520086D01*
X342200D01*
X344000Y522186D02*X344300Y521886D01*
X344600Y522186D01*
X344300Y522486D01*
X344000Y522186D01*
X344300Y520086D02*Y515886D01*
X350000Y519186D02*X349400Y519786D01*
X348800Y520086D01*
X347900D02*X348800D01*
X347900D02*X347300Y519786D01*
X346700Y519186D01*
X346400Y518286D01*
Y517686D01*
X346700Y516786D01*
X347300Y516186D01*
X347900Y515886D01*
X348800D01*
X349400Y516186D01*
X350000Y516786D01*
X355400Y520086D02*Y515886D01*
Y519186D02*X354800Y519786D01*
X354200Y520086D01*
X353300D02*X354200D01*
X353300D02*X352700Y519786D01*
X352100Y519186D01*
X351800Y518286D01*
Y517686D01*
X352100Y516786D01*
X352700Y516186D01*
X353300Y515886D01*
X354200D01*
X354800Y516186D01*
X355400Y516786D01*
X358100Y522186D02*Y517086D01*
X358400Y516186D01*
X359000Y515886D01*
X359600D01*
X357200Y520086D02*X359300D01*
X361400Y522186D02*X361700Y521886D01*
X362000Y522186D01*
X361700Y522486D01*
X361400Y522186D01*
X361700Y520086D02*Y515886D01*
X365300Y520086D02*X364700Y519786D01*
X364100Y519186D01*
X363800Y518286D01*
Y517686D01*
X364100Y516786D01*
X364700Y516186D01*
X365300Y515886D01*
X366200D01*
X366800Y516186D01*
X367400Y516786D01*
X367700Y517686D01*
Y518286D02*Y517686D01*
Y518286D02*X367400Y519186D01*
X366800Y519786D01*
X366200Y520086D01*
X365300D02*X366200D01*
X369500D02*Y515886D01*
Y518886D02*X370400Y519786D01*
X371000Y520086D01*
X371900D01*
X372500Y519786D01*
X372800Y518886D01*
Y515886D01*
X376400Y522186D02*Y515886D01*
Y522186D02*X378500D01*
X379400Y521886D01*
X380000Y521286D01*
X380300Y520686D01*
X380600Y519786D01*
Y518286D01*
X380300Y517386D01*
X380000Y516786D01*
X379400Y516186D01*
X378500Y515886D01*
X376400D02*X378500D01*
X382400Y520086D02*Y515886D01*
Y518286D02*X382700Y519186D01*
X383300Y519786D01*
X383900Y520086D01*
X384800D01*
X390200D02*Y515886D01*
Y519186D02*X389600Y519786D01*
X389000Y520086D01*
X388100D02*X389000D01*
X388100D02*X387500Y519786D01*
X386900Y519186D01*
X386600Y518286D01*
Y517686D01*
X386900Y516786D01*
X387500Y516186D01*
X388100Y515886D01*
X389000D01*
X389600Y516186D01*
X390200Y516786D01*
X392000Y520086D02*X393200Y515886D01*
X394400Y520086D02*X393200Y515886D01*
X394400Y520086D02*X395600Y515886D01*
X396800Y520086D02*X395600Y515886D01*
X398600Y522186D02*X398900Y521886D01*
X399200Y522186D01*
X398900Y522486D01*
X398600Y522186D01*
X398900Y520086D02*Y515886D01*
X401000Y520086D02*Y515886D01*
Y518886D02*X401900Y519786D01*
X402500Y520086D01*
X403400D01*
X404000Y519786D01*
X404300Y518886D01*
Y515886D01*
X409700Y520086D02*Y515286D01*
X409400Y514386D01*
X409100Y514086D01*
X408500Y513786D01*
X407600D02*X408500D01*
X407600D02*X407000Y514086D01*
X409700Y519186D02*X409100Y519786D01*
X408500Y520086D01*
X407600D02*X408500D01*
X407600D02*X407000Y519786D01*
X406400Y519186D01*
X406100Y518286D01*
Y517686D01*
X406400Y516786D01*
X407000Y516186D01*
X407600Y515886D01*
X408500D01*
X409100Y516186D01*
X409700Y516786D01*
M02*
