M48
INCH
T72C0.035
T71C0.146
T70C0.028
T69C0.036
T68C0.032
T67C0.020
T66C0.042
T65C0.052
T64C0.040
%
T67
X012008Y035339
X012008Y029339
X012008Y023339
X012008Y017339
X012008Y011339
X012992Y035339
X012992Y029339
X012992Y023339
X012992Y017339
X012992Y011339
X014008Y035339
X014008Y029339
X014008Y023339
X014008Y017339
X014008Y011339
X014992Y035339
X014992Y029339
X014992Y023339
X014992Y017339
X014992Y011339
X051008Y030339
X051992Y030339
X056008Y034339
X056992Y034339
T70
X052000Y035339
X052000Y034339
X052000Y033339
X052000Y032339
X055000Y035339
X055000Y034339
X055000Y033339
X055000Y032339
T68
X044000Y042839
X048000Y042839
X050000Y042839
X054000Y042839
X056500Y008982
X056500Y008195
X058000Y012232
X058000Y011445
T72
X008000Y037339
X012000Y028339
X012000Y022089
X018000Y021339
X020000Y041839
X020000Y038589
X020000Y037839
X020000Y035339
X036500Y034339
X036500Y028339
X036500Y022089
X047500Y029339
X047500Y020839
X054750Y012839
X054750Y009589
T69
X056961Y042823
X056961Y040854
T64
X011000Y043339
X011000Y007839
X018500Y043339
X018500Y007839
X044500Y035339
X044500Y033339
X045000Y041839
X045000Y039839
X045000Y038339
X048500Y037089
X049500Y035339
X049500Y033339
X050000Y041839
X050000Y039839
X050000Y038339
X053500Y037089
X057500Y029339
X057500Y025339
X059000Y029339
X059000Y024339
T66
X005500Y040589
X005500Y039589
X005500Y038589
X005500Y037589
X005500Y036589
X005500Y035589
X005500Y034589
X005500Y033589
X005500Y032589
X005500Y031589
X005500Y030589
X005500Y029589
X005500Y028589
X005500Y027589
X005500Y026589
X005500Y025589
X005500Y024589
X005500Y023589
X005500Y022589
X005500Y021589
X005500Y020589
X005500Y019589
X005500Y018589
X005500Y017589
X005500Y016589
X005500Y015589
X005500Y014589
X005500Y013589
X005500Y012589
X005500Y011589
X005500Y010589
X011000Y036839
X011000Y030839
X011000Y024839
X011000Y018839
X011000Y012839
X012000Y036839
X012000Y030839
X012000Y024839
X012000Y018839
X012000Y012839
X013000Y036839
X013000Y030839
X013000Y024839
X013000Y018839
X013000Y012839
X014000Y036839
X014000Y030839
X014000Y024839
X014000Y018839
X014000Y012839
X015000Y036839
X015000Y030839
X015000Y024839
X015000Y018839
X015000Y012839
X016000Y036839
X016000Y030839
X016000Y024839
X016000Y018839
X016000Y012839
X017000Y036839
X017000Y030839
X017000Y024839
X017000Y018839
X017000Y012839
X018000Y036839
X018000Y030839
X018000Y024839
X018000Y018839
X018000Y012839
T65
X037532Y042823
X039500Y040854
X041468Y042823
X060252Y039433
X060252Y037465
X060252Y035496
X060252Y033528
X060252Y031559
X060252Y029591
X060252Y027622
X060252Y025654
X060252Y023685
X060252Y021717
X060252Y019748
X060252Y017780
X060252Y015811
X060252Y013843
X060252Y011874
X061236Y040417
X061236Y038449
X061236Y036480
X061236Y034512
X061236Y032543
X061236Y030575
X061236Y028606
X061236Y026638
X061236Y024669
X061236Y022701
X061236Y020732
X061236Y018764
X061236Y016795
X061236Y014827
X061236Y012858
X061236Y010890
T71
X032500Y008839
M30
