G04 start of page 10 for group -4015 idx -4015 *
G04 Title: 26.007.01.01.01, toppaste *
G04 Creator: pcb 4.2.2 *
G04 CreationDate: Sat Feb 13 13:51:24 2021 UTC *
G04 For: bert *
G04 Format: Gerber/RS-274X *
G04 PCB-Dimensions (mil): 2600.00 1150.00 *
G04 PCB-Coordinate-Origin: lower left *
%MOIN*%
%FSLAX25Y25*%
%LNGTP*%
%ADD43C,0.0001*%
G54D43*G36*
X98500Y54000D02*X96500D01*
Y45500D01*
X98500D01*
Y54000D01*
G37*
G36*
X103500D02*X101500D01*
Y45500D01*
X103500D01*
Y54000D01*
G37*
G36*
X108500D02*X106500D01*
Y45500D01*
X108500D01*
Y54000D01*
G37*
G36*
X113500D02*X111500D01*
Y45500D01*
X113500D01*
Y54000D01*
G37*
G36*
Y74500D02*X111500D01*
Y66000D01*
X113500D01*
Y74500D01*
G37*
G36*
X108500D02*X106500D01*
Y66000D01*
X108500D01*
Y74500D01*
G37*
G36*
X103500D02*X101500D01*
Y66000D01*
X103500D01*
Y74500D01*
G37*
G36*
X98500D02*X96500D01*
Y66000D01*
X98500D01*
Y74500D01*
G37*
G36*
X211457Y56654D02*Y51536D01*
X218543D01*
Y56654D01*
X211457D01*
G37*
G36*
Y68464D02*Y63346D01*
X218543D01*
Y68464D01*
X211457D01*
G37*
G36*
X85074Y94032D02*X79926D01*
Y84158D01*
X85074D01*
Y94032D01*
G37*
G36*
Y105842D02*X79926D01*
Y95968D01*
X85074D01*
Y105842D01*
G37*
G36*
X249055Y50080D02*Y46142D01*
X255945D01*
Y50080D01*
X249055D01*
G37*
G36*
Y63858D02*Y59921D01*
X255945D01*
Y63858D01*
X249055D01*
G37*
G36*
X156654Y36043D02*X151536D01*
Y28957D01*
X156654D01*
Y36043D01*
G37*
G36*
X168464D02*X163346D01*
Y28957D01*
X168464D01*
Y36043D01*
G37*
G36*
X218957Y9154D02*Y4036D01*
X226043D01*
Y9154D01*
X218957D01*
G37*
G36*
Y20964D02*Y15846D01*
X226043D01*
Y20964D01*
X218957D01*
G37*
G36*
X138957Y31654D02*Y26536D01*
X146043D01*
Y31654D01*
X138957D01*
G37*
G36*
Y43464D02*Y38346D01*
X146043D01*
Y43464D01*
X138957D01*
G37*
G36*
X58500Y54000D02*X56500D01*
Y45500D01*
X58500D01*
Y54000D01*
G37*
G36*
X63500D02*X61500D01*
Y45500D01*
X63500D01*
Y54000D01*
G37*
G36*
X68500D02*X66500D01*
Y45500D01*
X68500D01*
Y54000D01*
G37*
G36*
X73500D02*X71500D01*
Y45500D01*
X73500D01*
Y54000D01*
G37*
G36*
Y74500D02*X71500D01*
Y66000D01*
X73500D01*
Y74500D01*
G37*
G36*
X68500D02*X66500D01*
Y66000D01*
X68500D01*
Y74500D01*
G37*
G36*
X63500D02*X61500D01*
Y66000D01*
X63500D01*
Y74500D01*
G37*
G36*
X58500D02*X56500D01*
Y66000D01*
X58500D01*
Y74500D01*
G37*
G36*
X171457Y69154D02*Y64036D01*
X178543D01*
Y69154D01*
X171457D01*
G37*
G36*
Y80964D02*Y75846D01*
X178543D01*
Y80964D01*
X171457D01*
G37*
G36*
X169154Y96043D02*X164036D01*
Y88957D01*
X169154D01*
Y96043D01*
G37*
G36*
X180964D02*X175846D01*
Y88957D01*
X180964D01*
Y96043D01*
G37*
G36*
X228957Y26654D02*Y21536D01*
X236043D01*
Y26654D01*
X228957D01*
G37*
G36*
Y38464D02*Y33346D01*
X236043D01*
Y38464D01*
X228957D01*
G37*
G36*
X138957Y74154D02*Y69036D01*
X146043D01*
Y74154D01*
X138957D01*
G37*
G36*
Y85964D02*Y80846D01*
X146043D01*
Y85964D01*
X138957D01*
G37*
G36*
X246555Y22580D02*Y18642D01*
X253445D01*
Y22580D01*
X246555D01*
G37*
G36*
Y36358D02*Y32420D01*
X253445D01*
Y36358D01*
X246555D01*
G37*
G36*
X8957Y65964D02*Y60846D01*
X16043D01*
Y65964D01*
X8957D01*
G37*
G36*
Y54154D02*Y49036D01*
X16043D01*
Y54154D01*
X8957D01*
G37*
G36*
X171457Y46654D02*Y41536D01*
X178543D01*
Y46654D01*
X171457D01*
G37*
G36*
Y58464D02*Y53346D01*
X178543D01*
Y58464D01*
X171457D01*
G37*
G36*
X110964Y86043D02*X105846D01*
Y78957D01*
X110964D01*
Y86043D01*
G37*
G36*
X99154D02*X94036D01*
Y78957D01*
X99154D01*
Y86043D01*
G37*
G36*
X196556Y22580D02*Y18642D01*
X203444D01*
Y22580D01*
X196556D01*
G37*
G36*
Y36358D02*Y32420D01*
X203444D01*
Y36358D01*
X196556D01*
G37*
G36*
X186556D02*Y32420D01*
X193444D01*
Y36358D01*
X186556D01*
G37*
G36*
Y22580D02*Y18642D01*
X193444D01*
Y22580D01*
X186556D01*
G37*
G36*
X244351Y98169D02*X239233D01*
Y92265D01*
X244351D01*
Y98169D01*
G37*
G36*
X255767D02*X250649D01*
Y92265D01*
X255767D01*
Y98169D01*
G37*
G36*
X242776Y112342D02*Y108012D01*
X252224D01*
Y112342D01*
X242776D01*
G37*
G36*
X151000Y54000D02*X149000D01*
Y45500D01*
X151000D01*
Y54000D01*
G37*
G36*
X156000D02*X154000D01*
Y45500D01*
X156000D01*
Y54000D01*
G37*
G36*
X161000D02*X159000D01*
Y45500D01*
X161000D01*
Y54000D01*
G37*
G36*
X166000D02*X164000D01*
Y45500D01*
X166000D01*
Y54000D01*
G37*
G36*
Y74500D02*X164000D01*
Y66000D01*
X166000D01*
Y74500D01*
G37*
G36*
X161000D02*X159000D01*
Y66000D01*
X161000D01*
Y74500D01*
G37*
G36*
X156000D02*X154000D01*
Y66000D01*
X156000D01*
Y74500D01*
G37*
G36*
X151000D02*X149000D01*
Y66000D01*
X151000D01*
Y74500D01*
G37*
G36*
X141851Y98169D02*X136733D01*
Y92265D01*
X141851D01*
Y98169D01*
G37*
G36*
X153267D02*X148149D01*
Y92265D01*
X153267D01*
Y98169D01*
G37*
G36*
X140276Y112342D02*Y108012D01*
X149724D01*
Y112342D01*
X140276D01*
G37*
G36*
X215074Y94032D02*X209926D01*
Y84158D01*
X215074D01*
Y94032D01*
G37*
G36*
Y105842D02*X209926D01*
Y95968D01*
X215074D01*
Y105842D01*
G37*
G36*
X21000Y54000D02*X19000D01*
Y45500D01*
X21000D01*
Y54000D01*
G37*
G36*
X26000D02*X24000D01*
Y45500D01*
X26000D01*
Y54000D01*
G37*
G36*
X31000D02*X29000D01*
Y45500D01*
X31000D01*
Y54000D01*
G37*
G36*
X36000D02*X34000D01*
Y45500D01*
X36000D01*
Y54000D01*
G37*
G36*
Y74500D02*X34000D01*
Y66000D01*
X36000D01*
Y74500D01*
G37*
G36*
X31000D02*X29000D01*
Y66000D01*
X31000D01*
Y74500D01*
G37*
G36*
X26000D02*X24000D01*
Y66000D01*
X26000D01*
Y74500D01*
G37*
G36*
X21000D02*X19000D01*
Y66000D01*
X21000D01*
Y74500D01*
G37*
G36*
X88957Y9154D02*Y4036D01*
X96043D01*
Y9154D01*
X88957D01*
G37*
G36*
Y20964D02*Y15846D01*
X96043D01*
Y20964D01*
X88957D01*
G37*
G36*
X138957Y65964D02*Y60846D01*
X146043D01*
Y65964D01*
X138957D01*
G37*
G36*
Y54154D02*Y49036D01*
X146043D01*
Y54154D01*
X138957D01*
G37*
G36*
X119056Y50080D02*Y46142D01*
X125944D01*
Y50080D01*
X119056D01*
G37*
G36*
Y63858D02*Y59921D01*
X125944D01*
Y63858D01*
X119056D01*
G37*
G36*
X81457Y56654D02*Y51536D01*
X88543D01*
Y56654D01*
X81457D01*
G37*
G36*
Y68464D02*Y63346D01*
X88543D01*
Y68464D01*
X81457D01*
G37*
G36*
X39154Y96043D02*X34036D01*
Y88957D01*
X39154D01*
Y96043D01*
G37*
G36*
X50964D02*X45846D01*
Y88957D01*
X50964D01*
Y96043D01*
G37*
G36*
X41457Y46654D02*Y41536D01*
X48543D01*
Y46654D01*
X41457D01*
G37*
G36*
Y58464D02*Y53346D01*
X48543D01*
Y58464D01*
X41457D01*
G37*
G36*
Y69154D02*Y64036D01*
X48543D01*
Y69154D01*
X41457D01*
G37*
G36*
Y80964D02*Y75846D01*
X48543D01*
Y80964D01*
X41457D01*
G37*
G36*
X26654Y36043D02*X21536D01*
Y28957D01*
X26654D01*
Y36043D01*
G37*
G36*
X38464D02*X33346D01*
Y28957D01*
X38464D01*
Y36043D01*
G37*
G36*
X98957Y26654D02*Y21536D01*
X106043D01*
Y26654D01*
X98957D01*
G37*
G36*
Y38464D02*Y33346D01*
X106043D01*
Y38464D01*
X98957D01*
G37*
G36*
X8957Y74154D02*Y69036D01*
X16043D01*
Y74154D01*
X8957D01*
G37*
G36*
Y85964D02*Y80846D01*
X16043D01*
Y85964D01*
X8957D01*
G37*
G36*
X116556Y22580D02*Y18642D01*
X123444D01*
Y22580D01*
X116556D01*
G37*
G36*
Y36358D02*Y32420D01*
X123444D01*
Y36358D01*
X116556D01*
G37*
G36*
X240964Y86043D02*X235846D01*
Y78957D01*
X240964D01*
Y86043D01*
G37*
G36*
X229154D02*X224036D01*
Y78957D01*
X229154D01*
Y86043D01*
G37*
G36*
X8957Y31654D02*Y26536D01*
X16043D01*
Y31654D01*
X8957D01*
G37*
G36*
Y43464D02*Y38346D01*
X16043D01*
Y43464D01*
X8957D01*
G37*
G36*
X66556Y22580D02*Y18642D01*
X73444D01*
Y22580D01*
X66556D01*
G37*
G36*
Y36358D02*Y32420D01*
X73444D01*
Y36358D01*
X66556D01*
G37*
G36*
X56555D02*Y32420D01*
X63445D01*
Y36358D01*
X56555D01*
G37*
G36*
Y22580D02*Y18642D01*
X63445D01*
Y22580D01*
X56555D01*
G37*
G36*
X114351Y98169D02*X109233D01*
Y92265D01*
X114351D01*
Y98169D01*
G37*
G36*
X125767D02*X120649D01*
Y92265D01*
X125767D01*
Y98169D01*
G37*
G36*
X112776Y112342D02*Y108012D01*
X122224D01*
Y112342D01*
X112776D01*
G37*
G36*
X11851Y98169D02*X6733D01*
Y92265D01*
X11851D01*
Y98169D01*
G37*
G36*
X23267D02*X18149D01*
Y92265D01*
X23267D01*
Y98169D01*
G37*
G36*
X10276Y112342D02*Y108012D01*
X19724D01*
Y112342D01*
X10276D01*
G37*
G36*
X188500Y54000D02*X186500D01*
Y45500D01*
X188500D01*
Y54000D01*
G37*
G36*
X193500D02*X191500D01*
Y45500D01*
X193500D01*
Y54000D01*
G37*
G36*
X198500D02*X196500D01*
Y45500D01*
X198500D01*
Y54000D01*
G37*
G36*
X203500D02*X201500D01*
Y45500D01*
X203500D01*
Y54000D01*
G37*
G36*
Y74500D02*X201500D01*
Y66000D01*
X203500D01*
Y74500D01*
G37*
G36*
X198500D02*X196500D01*
Y66000D01*
X198500D01*
Y74500D01*
G37*
G36*
X193500D02*X191500D01*
Y66000D01*
X193500D01*
Y74500D01*
G37*
G36*
X188500D02*X186500D01*
Y66000D01*
X188500D01*
Y74500D01*
G37*
G36*
X228500Y54000D02*X226500D01*
Y45500D01*
X228500D01*
Y54000D01*
G37*
G36*
X233500D02*X231500D01*
Y45500D01*
X233500D01*
Y54000D01*
G37*
G36*
X238500D02*X236500D01*
Y45500D01*
X238500D01*
Y54000D01*
G37*
G36*
X243500D02*X241500D01*
Y45500D01*
X243500D01*
Y54000D01*
G37*
G36*
Y74500D02*X241500D01*
Y66000D01*
X243500D01*
Y74500D01*
G37*
G36*
X238500D02*X236500D01*
Y66000D01*
X238500D01*
Y74500D01*
G37*
G36*
X233500D02*X231500D01*
Y66000D01*
X233500D01*
Y74500D01*
G37*
G36*
X228500D02*X226500D01*
Y66000D01*
X228500D01*
Y74500D01*
G37*
M02*
