G04 start of page 6 for group -4063 idx -4063 *
G04 Title: 26.006.02.01.01, componentmask *
G04 Creator: pcb 4.1.2 *
G04 CreationDate: Sun Jul 29 08:17:17 2018 UTC *
G04 For: bert *
G04 Format: Gerber/RS-274X *
G04 PCB-Dimensions (mil): 2600.00 1150.00 *
G04 PCB-Coordinate-Origin: lower left *
%MOIN*%
%FSLAX25Y25*%
%LNGTS*%
%ADD34C,0.0850*%
%ADD33C,0.0660*%
%ADD32C,0.0001*%
G54D32*G36*
X1700Y8300D02*Y1700D01*
X8300D01*
Y8300D01*
X1700D01*
G37*
G54D33*X15000Y5000D03*
X25000D03*
X35000D03*
X45000D03*
X55000D03*
G54D34*X232500Y107500D03*
G54D33*X65000Y5000D03*
X75000D03*
G54D34*X135000Y17500D03*
X102500Y107500D03*
G54D32*G36*
X99000Y54500D02*X96000D01*
Y45000D01*
X99000D01*
Y54500D01*
G37*
G36*
X81157Y56954D02*Y51236D01*
X88843D01*
Y56954D01*
X81157D01*
G37*
G36*
X88657Y9454D02*Y3736D01*
X96343D01*
Y9454D01*
X88657D01*
G37*
G36*
Y21264D02*Y15546D01*
X96343D01*
Y21264D01*
X88657D01*
G37*
G36*
X98657Y26954D02*Y21236D01*
X106343D01*
Y26954D01*
X98657D01*
G37*
G36*
X104000Y54500D02*X101000D01*
Y45000D01*
X104000D01*
Y54500D01*
G37*
G36*
X109000D02*X106000D01*
Y45000D01*
X109000D01*
Y54500D01*
G37*
G36*
X114000D02*X111000D01*
Y45000D01*
X114000D01*
Y54500D01*
G37*
G36*
X98657Y38764D02*Y33046D01*
X106343D01*
Y38764D01*
X98657D01*
G37*
G36*
X156954Y36343D02*X151236D01*
Y28657D01*
X156954D01*
Y36343D01*
G37*
G36*
X138657Y31954D02*Y26236D01*
X146343D01*
Y31954D01*
X138657D01*
G37*
G36*
Y43764D02*Y38046D01*
X146343D01*
Y43764D01*
X138657D01*
G37*
G36*
X115768Y23366D02*Y17856D01*
X124232D01*
Y23366D01*
X115768D01*
G37*
G36*
Y37144D02*Y31633D01*
X124232D01*
Y37144D01*
X115768D01*
G37*
G36*
X168764Y36343D02*X163046D01*
Y28657D01*
X168764D01*
Y36343D01*
G37*
G36*
X171157Y46954D02*Y41236D01*
X178843D01*
Y46954D01*
X171157D01*
G37*
G36*
X138657Y66264D02*Y60546D01*
X146343D01*
Y66264D01*
X138657D01*
G37*
G36*
Y54454D02*Y48736D01*
X146343D01*
Y54454D01*
X138657D01*
G37*
G36*
X118268Y50866D02*Y45356D01*
X126732D01*
Y50866D01*
X118268D01*
G37*
G36*
Y64645D02*Y59134D01*
X126732D01*
Y64645D01*
X118268D01*
G37*
G36*
X59000Y54500D02*X56000D01*
Y45000D01*
X59000D01*
Y54500D01*
G37*
G36*
X8657Y54454D02*Y48736D01*
X16343D01*
Y54454D01*
X8657D01*
G37*
G36*
X21500Y54500D02*X18500D01*
Y45000D01*
X21500D01*
Y54500D01*
G37*
G36*
X26500D02*X23500D01*
Y45000D01*
X26500D01*
Y54500D01*
G37*
G36*
X31500D02*X28500D01*
Y45000D01*
X31500D01*
Y54500D01*
G37*
G36*
X36500D02*X33500D01*
Y45000D01*
X36500D01*
Y54500D01*
G37*
G36*
X64000D02*X61000D01*
Y45000D01*
X64000D01*
Y54500D01*
G37*
G36*
X69000D02*X66000D01*
Y45000D01*
X69000D01*
Y54500D01*
G37*
G36*
X74000D02*X71000D01*
Y45000D01*
X74000D01*
Y54500D01*
G37*
G36*
X41157Y46954D02*Y41236D01*
X48843D01*
Y46954D01*
X41157D01*
G37*
G36*
X26954Y36343D02*X21236D01*
Y28657D01*
X26954D01*
Y36343D01*
G37*
G36*
X38764D02*X33046D01*
Y28657D01*
X38764D01*
Y36343D01*
G37*
G36*
X8657Y31954D02*Y26236D01*
X16343D01*
Y31954D01*
X8657D01*
G37*
G36*
Y43764D02*Y38046D01*
X16343D01*
Y43764D01*
X8657D01*
G37*
G36*
X41157Y58764D02*Y53046D01*
X48843D01*
Y58764D01*
X41157D01*
G37*
G36*
X65768Y23366D02*Y17856D01*
X74232D01*
Y23366D01*
X65768D01*
G37*
G36*
Y37144D02*Y31633D01*
X74232D01*
Y37144D01*
X65768D01*
G37*
G36*
X55768D02*Y31633D01*
X64232D01*
Y37144D01*
X55768D01*
G37*
G36*
Y23366D02*Y17856D01*
X64232D01*
Y23366D01*
X55768D01*
G37*
G36*
X99454Y86343D02*X93736D01*
Y78657D01*
X99454D01*
Y86343D01*
G37*
G36*
X114000Y75000D02*X111000D01*
Y65500D01*
X114000D01*
Y75000D01*
G37*
G36*
X109000D02*X106000D01*
Y65500D01*
X109000D01*
Y75000D01*
G37*
G36*
X104000D02*X101000D01*
Y65500D01*
X104000D01*
Y75000D01*
G37*
G36*
X111264Y86343D02*X105546D01*
Y78657D01*
X111264D01*
Y86343D01*
G37*
G36*
X99000Y75000D02*X96000D01*
Y65500D01*
X99000D01*
Y75000D01*
G37*
G36*
X74000D02*X71000D01*
Y65500D01*
X74000D01*
Y75000D01*
G37*
G36*
X69000D02*X66000D01*
Y65500D01*
X69000D01*
Y75000D01*
G37*
G36*
X64000D02*X61000D01*
Y65500D01*
X64000D01*
Y75000D01*
G37*
G36*
X59000D02*X56000D01*
Y65500D01*
X59000D01*
Y75000D01*
G37*
G36*
X81157Y68764D02*Y63046D01*
X88843D01*
Y68764D01*
X81157D01*
G37*
G36*
X115138Y98956D02*X108446D01*
Y91478D01*
X115138D01*
Y98956D01*
G37*
G36*
X126554D02*X119862D01*
Y91478D01*
X126554D01*
Y98956D01*
G37*
G36*
X111988Y113130D02*Y107224D01*
X123012D01*
Y113130D01*
X111988D01*
G37*
G36*
X8657Y66264D02*Y60546D01*
X16343D01*
Y66264D01*
X8657D01*
G37*
G36*
X31500Y75000D02*X28500D01*
Y65500D01*
X31500D01*
Y75000D01*
G37*
G36*
X26500D02*X23500D01*
Y65500D01*
X26500D01*
Y75000D01*
G37*
G36*
X21500D02*X18500D01*
Y65500D01*
X21500D01*
Y75000D01*
G37*
G36*
X8657Y74454D02*Y68736D01*
X16343D01*
Y74454D01*
X8657D01*
G37*
G36*
X41157Y69454D02*Y63736D01*
X48843D01*
Y69454D01*
X41157D01*
G37*
G36*
X36500Y75000D02*X33500D01*
Y65500D01*
X36500D01*
Y75000D01*
G37*
G36*
X8657Y86264D02*Y80546D01*
X16343D01*
Y86264D01*
X8657D01*
G37*
G36*
X85574Y94532D02*X79426D01*
Y83658D01*
X85574D01*
Y94532D01*
G37*
G36*
Y106342D02*X79426D01*
Y95468D01*
X85574D01*
Y106342D01*
G37*
G36*
X39454Y96343D02*X33736D01*
Y88657D01*
X39454D01*
Y96343D01*
G37*
G36*
X51264D02*X45546D01*
Y88657D01*
X51264D01*
Y96343D01*
G37*
G36*
X41157Y81264D02*Y75546D01*
X48843D01*
Y81264D01*
X41157D01*
G37*
G36*
X12638Y98956D02*X5946D01*
Y91478D01*
X12638D01*
Y98956D01*
G37*
G36*
X24054D02*X17362D01*
Y91478D01*
X24054D01*
Y98956D01*
G37*
G36*
X9488Y113130D02*Y107224D01*
X20512D01*
Y113130D01*
X9488D01*
G37*
G36*
X211157Y56954D02*Y51236D01*
X218843D01*
Y56954D01*
X211157D01*
G37*
G36*
X248268Y50866D02*Y45356D01*
X256732D01*
Y50866D01*
X248268D01*
G37*
G36*
Y64645D02*Y59134D01*
X256732D01*
Y64645D01*
X248268D01*
G37*
G36*
X239000Y54500D02*X236000D01*
Y45000D01*
X239000D01*
Y54500D01*
G37*
G36*
X244000D02*X241000D01*
Y45000D01*
X244000D01*
Y54500D01*
G37*
G36*
X211157Y68764D02*Y63046D01*
X218843D01*
Y68764D01*
X211157D01*
G37*
G36*
X244000Y75000D02*X241000D01*
Y65500D01*
X244000D01*
Y75000D01*
G37*
G36*
X239000D02*X236000D01*
Y65500D01*
X239000D01*
Y75000D01*
G37*
G36*
X234000D02*X231000D01*
Y65500D01*
X234000D01*
Y75000D01*
G37*
G36*
X229000D02*X226000D01*
Y65500D01*
X229000D01*
Y75000D01*
G37*
G36*
X204000Y54500D02*X201000D01*
Y45000D01*
X204000D01*
Y54500D01*
G37*
G36*
Y75000D02*X201000D01*
Y65500D01*
X204000D01*
Y75000D01*
G37*
G36*
X229000Y54500D02*X226000D01*
Y45000D01*
X229000D01*
Y54500D01*
G37*
G36*
X234000D02*X231000D01*
Y45000D01*
X234000D01*
Y54500D01*
G37*
G36*
X169454Y96343D02*X163736D01*
Y88657D01*
X169454D01*
Y96343D01*
G37*
G36*
X181264D02*X175546D01*
Y88657D01*
X181264D01*
Y96343D01*
G37*
G36*
X142638Y98956D02*X135946D01*
Y91478D01*
X142638D01*
Y98956D01*
G37*
G36*
X154054D02*X147362D01*
Y91478D01*
X154054D01*
Y98956D01*
G37*
G36*
X139488Y113130D02*Y107224D01*
X150512D01*
Y113130D01*
X139488D01*
G37*
G36*
X171157Y58764D02*Y53046D01*
X178843D01*
Y58764D01*
X171157D01*
G37*
G36*
X151500Y54500D02*X148500D01*
Y45000D01*
X151500D01*
Y54500D01*
G37*
G36*
X156500D02*X153500D01*
Y45000D01*
X156500D01*
Y54500D01*
G37*
G36*
X161500D02*X158500D01*
Y45000D01*
X161500D01*
Y54500D01*
G37*
G36*
X166500D02*X163500D01*
Y45000D01*
X166500D01*
Y54500D01*
G37*
G36*
X171157Y69454D02*Y63736D01*
X178843D01*
Y69454D01*
X171157D01*
G37*
G36*
Y81264D02*Y75546D01*
X178843D01*
Y81264D01*
X171157D01*
G37*
G36*
X166500Y75000D02*X163500D01*
Y65500D01*
X166500D01*
Y75000D01*
G37*
G36*
X161500D02*X158500D01*
Y65500D01*
X161500D01*
Y75000D01*
G37*
G36*
X138657Y74454D02*Y68736D01*
X146343D01*
Y74454D01*
X138657D01*
G37*
G36*
Y86264D02*Y80546D01*
X146343D01*
Y86264D01*
X138657D01*
G37*
G36*
X156500Y75000D02*X153500D01*
Y65500D01*
X156500D01*
Y75000D01*
G37*
G36*
X151500D02*X148500D01*
Y65500D01*
X151500D01*
Y75000D01*
G37*
G36*
X189000Y54500D02*X186000D01*
Y45000D01*
X189000D01*
Y54500D01*
G37*
G36*
X194000D02*X191000D01*
Y45000D01*
X194000D01*
Y54500D01*
G37*
G36*
X199000D02*X196000D01*
Y45000D01*
X199000D01*
Y54500D01*
G37*
G36*
Y75000D02*X196000D01*
Y65500D01*
X199000D01*
Y75000D01*
G37*
G36*
X194000D02*X191000D01*
Y65500D01*
X194000D01*
Y75000D01*
G37*
G36*
X189000D02*X186000D01*
Y65500D01*
X189000D01*
Y75000D01*
G37*
G36*
X215574Y94532D02*X209426D01*
Y83658D01*
X215574D01*
Y94532D01*
G37*
G36*
X245138Y98956D02*X238446D01*
Y91478D01*
X245138D01*
Y98956D01*
G37*
G36*
X256554D02*X249862D01*
Y91478D01*
X256554D01*
Y98956D01*
G37*
G36*
X241989Y113130D02*Y107224D01*
X253011D01*
Y113130D01*
X241989D01*
G37*
G36*
X215574Y106342D02*X209426D01*
Y95468D01*
X215574D01*
Y106342D01*
G37*
G36*
X241264Y86343D02*X235546D01*
Y78657D01*
X241264D01*
Y86343D01*
G37*
G36*
X229454D02*X223736D01*
Y78657D01*
X229454D01*
Y86343D01*
G37*
G36*
X218657Y9454D02*Y3736D01*
X226343D01*
Y9454D01*
X218657D01*
G37*
G36*
Y21264D02*Y15546D01*
X226343D01*
Y21264D01*
X218657D01*
G37*
G36*
X195768Y37144D02*Y31633D01*
X204232D01*
Y37144D01*
X195768D01*
G37*
G36*
X185768D02*Y31633D01*
X194232D01*
Y37144D01*
X185768D01*
G37*
G36*
X195768Y23366D02*Y17856D01*
X204232D01*
Y23366D01*
X195768D01*
G37*
G36*
X185768D02*Y17856D01*
X194232D01*
Y23366D01*
X185768D01*
G37*
G36*
X228657Y26954D02*Y21236D01*
X236343D01*
Y26954D01*
X228657D01*
G37*
G36*
Y38764D02*Y33046D01*
X236343D01*
Y38764D01*
X228657D01*
G37*
G36*
X245768Y23366D02*Y17856D01*
X254232D01*
Y23366D01*
X245768D01*
G37*
G36*
Y37144D02*Y31633D01*
X254232D01*
Y37144D01*
X245768D01*
G37*
M02*
