G04 start of page 10 for group -4079 idx -4079 *
G04 Title: 26.003.00.01.01.pcb, topsilk *
G04 Creator: pcb 4.1.2 *
G04 CreationDate: Sun Jul 29 08:17:15 2018 UTC *
G04 For: bert *
G04 Format: Gerber/RS-274X *
G04 PCB-Dimensions (mil): 6496.06 4133.86 *
G04 PCB-Coordinate-Origin: lower left *
%MOIN*%
%FSLAX25Y25*%
%LNGTO*%
%ADD90C,0.0000*%
%ADD89C,0.0120*%
%ADD88C,0.0080*%
%ADD87C,0.0100*%
G54D87*X222441Y29528D02*Y35827D01*
X51181Y29528D02*X222441D01*
X630000Y20886D02*Y30886D01*
Y20886D02*X620000D01*
G54D88*X355000Y348386D02*Y323386D01*
X175000D01*
X355000Y288386D02*Y263386D01*
X95000Y108386D02*X355000D01*
Y83386D01*
X175000D01*
G54D87*X0Y413386D02*X10000D01*
X51181Y403543D02*X222441D01*
X57480Y397244D02*X222441D01*
Y403543D02*Y397244D01*
X0Y413386D02*Y403386D01*
G54D88*X95000Y348386D02*X355000D01*
G54D87*X57480Y403543D02*Y29528D01*
G54D88*X95000Y333386D02*Y348386D01*
Y273386D02*Y288386D01*
Y213386D02*Y228386D01*
Y153386D02*Y168386D01*
G54D87*X51181Y403543D02*Y29528D01*
G54D88*X95000Y288386D02*X355000D01*
Y263386D02*X175000D01*
X95000Y228386D02*X355000D01*
Y203386D01*
X175000D01*
X95000Y168386D02*X355000D01*
Y143386D01*
X175000D01*
G54D87*X57480Y35827D02*X222441D01*
G54D88*X95000Y93386D02*Y108386D01*
X382500Y117886D02*X383000Y118386D01*
X384500D01*
X385000Y117886D01*
Y116886D01*
X382500Y114386D02*X385000Y116886D01*
X382500Y114386D02*X385000D01*
X387700Y118386D02*X388200Y117886D01*
X386700Y118386D02*X387700D01*
X386200Y117886D02*X386700Y118386D01*
X386200Y117886D02*Y114886D01*
X386700Y114386D01*
X387700Y116386D02*X388200Y115886D01*
X386200Y116386D02*X387700D01*
X386700Y114386D02*X387700D01*
X388200Y114886D01*
Y115886D02*Y114886D01*
X389400Y114386D02*X389900D01*
X391100Y114886D02*X391600Y114386D01*
X391100Y117886D02*Y114886D01*
Y117886D02*X391600Y118386D01*
X392600D01*
X393100Y117886D01*
Y114886D01*
X392600Y114386D02*X393100Y114886D01*
X391600Y114386D02*X392600D01*
X391100Y115386D02*X393100Y117386D01*
X394300Y114886D02*X394800Y114386D01*
X394300Y117886D02*Y114886D01*
Y117886D02*X394800Y118386D01*
X395800D01*
X396300Y117886D01*
Y114886D01*
X395800Y114386D02*X396300Y114886D01*
X394800Y114386D02*X395800D01*
X394300Y115386D02*X396300Y117386D01*
X397500Y117886D02*X398000Y118386D01*
X399000D01*
X399500Y117886D01*
Y114886D01*
X399000Y114386D02*X399500Y114886D01*
X398000Y114386D02*X399000D01*
X397500Y114886D02*X398000Y114386D01*
Y116386D02*X399500D01*
X400700Y114386D02*X401200D01*
X402400Y114886D02*X402900Y114386D01*
X402400Y117886D02*Y114886D01*
Y117886D02*X402900Y118386D01*
X403900D01*
X404400Y117886D01*
Y114886D01*
X403900Y114386D02*X404400Y114886D01*
X402900Y114386D02*X403900D01*
X402400Y115386D02*X404400Y117386D01*
X405600Y114886D02*X406100Y114386D01*
X405600Y117886D02*Y114886D01*
Y117886D02*X406100Y118386D01*
X407100D01*
X407600Y117886D01*
Y114886D01*
X407100Y114386D02*X407600Y114886D01*
X406100Y114386D02*X407100D01*
X405600Y115386D02*X407600Y117386D01*
X408800Y114386D02*X409300D01*
X410500Y114886D02*X411000Y114386D01*
X410500Y117886D02*Y114886D01*
Y117886D02*X411000Y118386D01*
X412000D01*
X412500Y117886D01*
Y114886D01*
X412000Y114386D02*X412500Y114886D01*
X411000Y114386D02*X412000D01*
X410500Y115386D02*X412500Y117386D01*
X414200Y114386D02*X415200D01*
X414700Y118386D02*Y114386D01*
X413700Y117386D02*X414700Y118386D01*
X416400Y114386D02*X416900D01*
X418100Y114886D02*X418600Y114386D01*
X418100Y117886D02*Y114886D01*
Y117886D02*X418600Y118386D01*
X419600D01*
X420100Y117886D01*
Y114886D01*
X419600Y114386D02*X420100Y114886D01*
X418600Y114386D02*X419600D01*
X418100Y115386D02*X420100Y117386D01*
X421800Y114386D02*X422800D01*
X422300Y118386D02*Y114386D01*
X421300Y117386D02*X422300Y118386D01*
X383000Y106886D02*X384500D01*
X382500Y107386D02*X383000Y106886D01*
X382500Y110386D02*Y107386D01*
Y110386D02*X383000Y110886D01*
X384500D01*
X385700Y108386D02*Y107386D01*
Y108386D02*X386200Y108886D01*
X387200D01*
X387700Y108386D01*
Y107386D01*
X387200Y106886D02*X387700Y107386D01*
X386200Y106886D02*X387200D01*
X385700Y107386D02*X386200Y106886D01*
X389400Y108386D02*Y105386D01*
X388900Y108886D02*X389400Y108386D01*
X389900Y108886D01*
X390900D01*
X391400Y108386D01*
Y107386D01*
X390900Y106886D02*X391400Y107386D01*
X389900Y106886D02*X390900D01*
X389400Y107386D02*X389900Y106886D01*
X392600Y108886D02*Y107386D01*
X393100Y106886D01*
X394600Y108886D02*Y105886D01*
X394100Y105386D02*X394600Y105886D01*
X393100Y105386D02*X394100D01*
X392600Y105886D02*X393100Y105386D01*
Y106886D02*X394100D01*
X394600Y107386D01*
X396300Y108386D02*Y106886D01*
Y108386D02*X396800Y108886D01*
X397800D01*
X395800D02*X396300Y108386D01*
X399000Y109886D02*Y109386D01*
Y108386D02*Y106886D01*
X401500Y108886D02*X402000Y108386D01*
X400500Y108886D02*X401500D01*
X400000Y108386D02*X400500Y108886D01*
X400000Y108386D02*Y107386D01*
X400500Y106886D01*
X401500D01*
X402000Y107386D01*
X400000Y105886D02*X400500Y105386D01*
X401500D01*
X402000Y105886D01*
Y108886D02*Y105886D01*
X403200Y110886D02*Y106886D01*
Y108386D02*X403700Y108886D01*
X404700D01*
X405200Y108386D01*
Y106886D01*
X406900Y110886D02*Y107386D01*
X407400Y106886D01*
X406400Y109386D02*X407400D01*
X410200Y107386D02*X410700Y106886D01*
X410200Y110386D02*X410700Y110886D01*
X410200Y110386D02*Y107386D01*
X412400Y106886D02*X413900D01*
X411900Y107386D02*X412400Y106886D01*
X411900Y110386D02*Y107386D01*
Y110386D02*X412400Y110886D01*
X413900D01*
X415100D02*X415600Y110386D01*
Y107386D01*
X415100Y106886D02*X415600Y107386D01*
X418600Y110386D02*X419100Y110886D01*
X420600D01*
X421100Y110386D01*
Y109386D01*
X418600Y106886D02*X421100Y109386D01*
X418600Y106886D02*X421100D01*
X422300Y107386D02*X422800Y106886D01*
X422300Y110386D02*Y107386D01*
Y110386D02*X422800Y110886D01*
X423800D01*
X424300Y110386D01*
Y107386D01*
X423800Y106886D02*X424300Y107386D01*
X422800Y106886D02*X423800D01*
X422300Y107886D02*X424300Y109886D01*
X426000Y106886D02*X427000D01*
X426500Y110886D02*Y106886D01*
X425500Y109886D02*X426500Y110886D01*
X428200Y106886D02*X430700Y109386D01*
Y110886D02*Y109386D01*
X428200Y110886D02*X430700D01*
X433700Y106886D02*X435700D01*
X436200Y107386D01*
Y108386D02*Y107386D01*
X435700Y108886D02*X436200Y108386D01*
X434200Y108886D02*X435700D01*
X434200Y110886D02*Y106886D01*
X433700Y110886D02*X435700D01*
X436200Y110386D01*
Y109386D01*
X435700Y108886D02*X436200Y109386D01*
X437900Y106886D02*X439400D01*
X437400Y107386D02*X437900Y106886D01*
X437400Y108386D02*Y107386D01*
Y108386D02*X437900Y108886D01*
X438900D01*
X439400Y108386D01*
X437400Y107886D02*X439400D01*
Y108386D02*Y107886D01*
X441100Y108386D02*Y106886D01*
Y108386D02*X441600Y108886D01*
X442600D01*
X440600D02*X441100Y108386D01*
X444300Y110886D02*Y107386D01*
X444800Y106886D01*
X443800Y109386D02*X444800D01*
X447600Y110886D02*X449600D01*
X448600D02*Y106886D01*
X450800Y109886D02*Y109386D01*
Y108386D02*Y106886D01*
X452300Y108386D02*Y106886D01*
Y108386D02*X452800Y108886D01*
X453300D01*
X453800Y108386D01*
Y106886D01*
Y108386D02*X454300Y108886D01*
X454800D01*
X455300Y108386D01*
Y106886D01*
X451800Y108886D02*X452300Y108386D01*
X457000D02*Y106886D01*
Y108386D02*X457500Y108886D01*
X458000D01*
X458500Y108386D01*
Y106886D01*
Y108386D02*X459000Y108886D01*
X459500D01*
X460000Y108386D01*
Y106886D01*
X456500Y108886D02*X457000Y108386D01*
X461700Y106886D02*X463200D01*
X461200Y107386D02*X461700Y106886D01*
X461200Y108386D02*Y107386D01*
Y108386D02*X461700Y108886D01*
X462700D01*
X463200Y108386D01*
X461200Y107886D02*X463200D01*
Y108386D02*Y107886D01*
X464900Y108386D02*Y106886D01*
Y108386D02*X465400Y108886D01*
X466400D01*
X464400D02*X464900Y108386D01*
X468100D02*Y106886D01*
Y108386D02*X468600Y108886D01*
X469100D01*
X469600Y108386D01*
Y106886D01*
Y108386D02*X470100Y108886D01*
X470600D01*
X471100Y108386D01*
Y106886D01*
X467600Y108886D02*X468100Y108386D01*
X473800Y108886D02*X474300Y108386D01*
X472800Y108886D02*X473800D01*
X472300Y108386D02*X472800Y108886D01*
X472300Y108386D02*Y107386D01*
X472800Y106886D01*
X474300Y108886D02*Y107386D01*
X474800Y106886D01*
X472800D02*X473800D01*
X474300Y107386D01*
X476500Y108386D02*Y106886D01*
Y108386D02*X477000Y108886D01*
X477500D01*
X478000Y108386D01*
Y106886D01*
X476000Y108886D02*X476500Y108386D01*
X382500Y125886D02*Y121886D01*
Y125886D02*X384000Y124386D01*
X385500Y125886D01*
Y121886D01*
X388200Y123886D02*X388700Y123386D01*
X387200Y123886D02*X388200D01*
X386700Y123386D02*X387200Y123886D01*
X386700Y123386D02*Y122386D01*
X387200Y121886D01*
X388700Y123886D02*Y122386D01*
X389200Y121886D01*
X387200D02*X388200D01*
X388700Y122386D01*
X390400Y124886D02*Y124386D01*
Y123386D02*Y121886D01*
X391900Y123386D02*Y121886D01*
Y123386D02*X392400Y123886D01*
X392900D01*
X393400Y123386D01*
Y121886D01*
X391400Y123886D02*X391900Y123386D01*
X396400Y125886D02*Y121886D01*
Y122386D02*X396900Y121886D01*
X397900D01*
X398400Y122386D01*
Y123386D02*Y122386D01*
X397900Y123886D02*X398400Y123386D01*
X396900Y123886D02*X397900D01*
X396400Y123386D02*X396900Y123886D01*
X399600Y123386D02*Y122386D01*
Y123386D02*X400100Y123886D01*
X401100D01*
X401600Y123386D01*
Y122386D01*
X401100Y121886D02*X401600Y122386D01*
X400100Y121886D02*X401100D01*
X399600Y122386D02*X400100Y121886D01*
X404300Y123886D02*X404800Y123386D01*
X403300Y123886D02*X404300D01*
X402800Y123386D02*X403300Y123886D01*
X402800Y123386D02*Y122386D01*
X403300Y121886D01*
X404800Y123886D02*Y122386D01*
X405300Y121886D01*
X403300D02*X404300D01*
X404800Y122386D01*
X407000Y123386D02*Y121886D01*
Y123386D02*X407500Y123886D01*
X408500D01*
X406500D02*X407000Y123386D01*
X411700Y125886D02*Y121886D01*
X411200D02*X411700Y122386D01*
X410200Y121886D02*X411200D01*
X409700Y122386D02*X410200Y121886D01*
X409700Y123386D02*Y122386D01*
Y123386D02*X410200Y123886D01*
X411200D01*
X411700Y123386D01*
G54D87*X0Y20886D02*Y30886D01*
Y20886D02*X10000D01*
X40000Y60886D02*X50000D01*
Y370886D02*Y60886D01*
X40000Y370886D02*Y60886D01*
Y360886D02*X50000D01*
X40000Y370886D02*X50000D01*
X143858Y133386D02*G75*G03X143858Y133386I-8858J0D01*G01*
X123858D02*G75*G03X123858Y133386I-8858J0D01*G01*
X143858Y193386D02*G75*G03X143858Y193386I-8858J0D01*G01*
X123858D02*G75*G03X123858Y193386I-8858J0D01*G01*
X143858Y313386D02*G75*G03X143858Y313386I-8858J0D01*G01*
X123858D02*G75*G03X123858Y313386I-8858J0D01*G01*
X143858Y253386D02*G75*G03X143858Y253386I-8858J0D01*G01*
X123858D02*G75*G03X123858Y253386I-8858J0D01*G01*
X143858Y73386D02*G75*G03X143858Y73386I-8858J0D01*G01*
X123858D02*G75*G03X123858Y73386I-8858J0D01*G01*
X630000Y413386D02*Y403386D01*
Y413386D02*X620000D01*
X547000Y307786D02*Y283986D01*
X538000Y307786D02*Y283986D01*
Y307786D02*X547000D01*
X538000Y283986D02*X547000D01*
X542500Y316186D02*Y307786D01*
Y283986D02*Y275586D01*
X538169Y338327D02*X546043D01*
X542106Y342264D02*Y334390D01*
G54D89*Y346201D02*G75*G03X542106Y346201I0J19685D01*G01*
G54D87*X564700Y292686D02*X575300D01*
X564700Y292186D02*X575300D01*
X564700Y291686D02*X575300D01*
X564700Y291186D02*X575300D01*
Y311086D02*Y290686D01*
X564700Y311086D02*Y290686D01*
Y311086D02*X575300D01*
X564700Y290686D02*X575300D01*
X570000Y316186D02*Y311086D01*
Y290686D02*Y285586D01*
X541063Y55670D02*X548937D01*
X545000Y59607D02*Y51733D01*
Y63544D02*G75*G03X545000Y63544I0J9843D01*G01*
X558858Y180886D02*G75*G03X558858Y180886I-8858J0D01*G01*
X563563Y78170D02*X571437D01*
X567500Y82107D02*Y74233D01*
Y86044D02*G75*G03X567500Y86044I0J9843D01*G01*
X483600Y264586D02*Y257186D01*
X483100Y264586D02*Y257186D01*
X482600Y264586D02*Y257186D01*
X482100Y264586D02*Y257186D01*
X481600D02*X498400D01*
X481600Y264586D02*X498400D01*
Y257186D01*
X481600Y264586D02*Y257186D01*
X498400Y260886D02*X505300D01*
X474700D02*X481600D01*
X480600Y231386D02*X504400D01*
X480600Y240386D02*X504400D01*
Y231386D01*
X480600Y240386D02*Y231386D01*
X504400Y235886D02*X512800D01*
X472200D02*X480600D01*
X481100Y287086D02*Y279686D01*
X480600Y287086D02*Y279686D01*
X480100Y287086D02*Y279686D01*
X479600Y287086D02*Y279686D01*
X479100D02*X495900D01*
X479100Y287086D02*X495900D01*
Y279686D01*
X479100Y287086D02*Y279686D01*
X495900Y283386D02*X502800D01*
X472200D02*X479100D01*
X597242Y60237D02*X629132D01*
X597242D02*Y38190D01*
X629132D01*
X597242Y372836D02*X629132D01*
X597242Y394883D02*Y372836D01*
Y394883D02*X629132D01*
X602360Y68899D02*X616140D01*
X592518Y78741D02*X616140D01*
X615746Y108269D02*X616140Y107875D01*
X602360Y108269D02*X615746D01*
X592518Y314961D02*X616139D01*
X602360Y324804D02*X616140D01*
X602360Y344489D02*X616140D01*
X592518Y354332D02*X616140D01*
X592518Y98426D02*X616140D01*
X602360Y88584D02*X616140D01*
X592518Y137796D02*X616140D01*
X602360Y127954D02*X616140D01*
X592518Y118111D02*X616140D01*
X602360Y167324D02*X616140D01*
X592518Y157481D02*X616140D01*
X602360Y147639D02*X616140D01*
X592518Y196852D02*X616140D01*
X602360Y187009D02*X616140D01*
X592518Y177167D02*X616140D01*
X602360Y226379D02*X616140D01*
X592518Y216537D02*X616140D01*
X602360Y206694D02*X616140D01*
X602360Y246064D02*X616140D01*
X592518Y295276D02*X616139D01*
X616140Y295277D01*
X602360Y305119D02*X616140D01*
X616139Y314961D02*X616140Y314962D01*
X592518Y255906D02*X616139D01*
X616140Y255907D01*
X602360Y265749D02*X616140D01*
X616139Y275591D02*X616140Y275592D01*
X616139Y236221D02*X616140Y236222D01*
X592518Y275591D02*X616139D01*
X602360Y285434D02*X616140D01*
X592518Y236221D02*X616139D01*
X602360Y364174D02*X616140D01*
X592518Y334647D02*X616140D01*
Y372836D02*Y60237D01*
X629132Y394883D02*Y38190D01*
X553000Y245286D02*Y221486D01*
X562000Y245286D02*Y221486D01*
X553000D02*X562000D01*
X553000Y245286D02*X562000D01*
X557500Y221486D02*Y213086D01*
Y253686D02*Y245286D01*
X573000Y242786D02*Y218986D01*
X582000Y242786D02*Y218986D01*
X573000D02*X582000D01*
X573000Y242786D02*X582000D01*
X577500Y218986D02*Y210586D01*
Y251186D02*Y242786D01*
X531358Y180886D02*G75*G03X531358Y180886I-8858J0D01*G01*
X540000Y163386D02*X555000D01*
X515000D02*X530000D01*
X555000Y123386D02*Y163386D01*
X515000Y123386D02*X555000D01*
X515000Y163386D02*Y123386D01*
X530000Y163386D02*G75*G03X540000Y163386I5000J0D01*G01*
G54D90*X427500Y393386D02*Y363386D01*
X377500Y393386D02*X427500D01*
X377500D02*Y363386D01*
X427500D01*
G54D87*X426122Y382165D02*Y364606D01*
X388878Y392165D02*X416122D01*
X378878Y382165D02*Y364606D01*
X426122D01*
X483100Y203886D02*X506900D01*
X483100Y212886D02*X506900D01*
Y203886D01*
X483100Y212886D02*Y203886D01*
X506900Y208386D02*X515300D01*
X474700D02*X483100D01*
X175000Y213386D02*Y203386D01*
X95000Y213386D02*X175000D01*
X95000Y203386D02*X175000D01*
X105000Y213386D02*Y203386D01*
X95000Y213386D02*Y203386D01*
X478100Y301386D02*X501900D01*
X478100Y310386D02*X501900D01*
Y301386D01*
X478100Y310386D02*Y301386D01*
X501900Y305886D02*X510300D01*
X478100D02*X469700D01*
X478100Y321386D02*X501900D01*
X478100Y330386D02*X501900D01*
Y321386D01*
X478100Y330386D02*Y321386D01*
X501900Y325886D02*X510300D01*
X478100D02*X469700D01*
X175000Y333386D02*Y323386D01*
X95000Y333386D02*X175000D01*
X95000Y323386D02*X175000D01*
X105000Y333386D02*Y323386D01*
X95000Y333386D02*Y323386D01*
X175000Y273386D02*Y263386D01*
X95000Y273386D02*X175000D01*
X95000Y263386D02*X175000D01*
X105000Y273386D02*Y263386D01*
X95000Y273386D02*Y263386D01*
X175000Y153386D02*Y143386D01*
X95000Y153386D02*X175000D01*
X95000Y143386D02*X175000D01*
X105000Y153386D02*Y143386D01*
X95000Y153386D02*Y143386D01*
X175000Y93386D02*Y83386D01*
X95000Y93386D02*X175000D01*
X95000Y83386D02*X175000D01*
X105000Y93386D02*Y83386D01*
X95000Y93386D02*Y83386D01*
G54D88*X5000Y46886D02*X7000D01*
X7500Y47386D01*
Y48386D02*Y47386D01*
X7000Y48886D02*X7500Y48386D01*
X5500Y48886D02*X7000D01*
X5500Y50886D02*Y46886D01*
X5000Y50886D02*X7000D01*
X7500Y50386D01*
Y49386D01*
X7000Y48886D02*X7500Y49386D01*
X130500Y179386D02*X132000D01*
X130000Y179886D02*X130500Y179386D01*
X130000Y182886D02*Y179886D01*
Y182886D02*X130500Y183386D01*
X132000D01*
X133700Y179386D02*X134700D01*
X134200Y183386D02*Y179386D01*
X133200Y182386D02*X134200Y183386D01*
X135900Y179886D02*X136400Y179386D01*
X135900Y182886D02*Y179886D01*
Y182886D02*X136400Y183386D01*
X137400D01*
X137900Y182886D01*
Y179886D01*
X137400Y179386D02*X137900Y179886D01*
X136400Y179386D02*X137400D01*
X135900Y180386D02*X137900Y182386D01*
X140600Y183386D02*X141100Y182886D01*
X139600Y183386D02*X140600D01*
X139100Y182886D02*X139600Y183386D01*
X139100Y182886D02*Y179886D01*
X139600Y179386D01*
X140600Y181386D02*X141100Y180886D01*
X139100Y181386D02*X140600D01*
X139600Y179386D02*X140600D01*
X141100Y179886D01*
Y180886D02*Y179886D01*
X105500Y179386D02*X107000D01*
X105000Y179886D02*X105500Y179386D01*
X105000Y182886D02*Y179886D01*
Y182886D02*X105500Y183386D01*
X107000D01*
X108700Y179386D02*X109700D01*
X109200Y183386D02*Y179386D01*
X108200Y182386D02*X109200Y183386D01*
X110900Y179886D02*X111400Y179386D01*
X110900Y182886D02*Y179886D01*
Y182886D02*X111400Y183386D01*
X112400D01*
X112900Y182886D01*
Y179886D01*
X112400Y179386D02*X112900Y179886D01*
X111400Y179386D02*X112400D01*
X110900Y180386D02*X112900Y182386D01*
X114100Y179386D02*X116600Y181886D01*
Y183386D02*Y181886D01*
X114100Y183386D02*X116600D01*
X106500Y40886D02*Y37886D01*
X106000Y41386D02*X106500Y40886D01*
X107000Y41386D01*
X108000D01*
X108500Y40886D01*
Y39886D01*
X108000Y39386D02*X108500Y39886D01*
X107000Y39386D02*X108000D01*
X106500Y39886D02*X107000Y39386D01*
X109700Y42886D02*X110200Y43386D01*
X111200D01*
X111700Y42886D01*
Y39886D01*
X111200Y39386D02*X111700Y39886D01*
X110200Y39386D02*X111200D01*
X109700Y39886D02*X110200Y39386D01*
Y41386D02*X111700D01*
X130500Y119386D02*X132000D01*
X130000Y119886D02*X130500Y119386D01*
X130000Y122886D02*Y119886D01*
Y122886D02*X130500Y123386D01*
X132000D01*
X133700Y119386D02*X134700D01*
X134200Y123386D02*Y119386D01*
X133200Y122386D02*X134200Y123386D01*
X135900Y119886D02*X136400Y119386D01*
X135900Y122886D02*Y119886D01*
Y122886D02*X136400Y123386D01*
X137400D01*
X137900Y122886D01*
Y119886D01*
X137400Y119386D02*X137900Y119886D01*
X136400Y119386D02*X137400D01*
X135900Y120386D02*X137900Y122386D01*
X139100Y119886D02*X139600Y119386D01*
X139100Y120886D02*Y119886D01*
Y120886D02*X139600Y121386D01*
X140600D01*
X141100Y120886D01*
Y119886D01*
X140600Y119386D02*X141100Y119886D01*
X139600Y119386D02*X140600D01*
X139100Y121886D02*X139600Y121386D01*
X139100Y122886D02*Y121886D01*
Y122886D02*X139600Y123386D01*
X140600D01*
X141100Y122886D01*
Y121886D01*
X140600Y121386D02*X141100Y121886D01*
X110500Y119386D02*X112000D01*
X110000Y119886D02*X110500Y119386D01*
X110000Y122886D02*Y119886D01*
Y122886D02*X110500Y123386D01*
X112000D01*
X113700Y119386D02*X114700D01*
X114200Y123386D02*Y119386D01*
X113200Y122386D02*X114200Y123386D01*
X115900Y119886D02*X116400Y119386D01*
X115900Y122886D02*Y119886D01*
Y122886D02*X116400Y123386D01*
X117400D01*
X117900Y122886D01*
Y119886D01*
X117400Y119386D02*X117900Y119886D01*
X116400Y119386D02*X117400D01*
X115900Y120386D02*X117900Y122386D01*
X119100Y119386D02*X121100Y121386D01*
Y122886D02*Y121386D01*
X120600Y123386D02*X121100Y122886D01*
X119600Y123386D02*X120600D01*
X119100Y122886D02*X119600Y123386D01*
X119100Y122886D02*Y121886D01*
X119600Y121386D01*
X121100D01*
X130500Y59386D02*X132000D01*
X130000Y59886D02*X130500Y59386D01*
X130000Y62886D02*Y59886D01*
Y62886D02*X130500Y63386D01*
X132000D01*
X133700Y59386D02*X134700D01*
X134200Y63386D02*Y59386D01*
X133200Y62386D02*X134200Y63386D01*
X136400Y59386D02*X137400D01*
X136900Y63386D02*Y59386D01*
X135900Y62386D02*X136900Y63386D01*
X138600Y59886D02*X139100Y59386D01*
X138600Y62886D02*Y59886D01*
Y62886D02*X139100Y63386D01*
X140100D01*
X140600Y62886D01*
Y59886D01*
X140100Y59386D02*X140600Y59886D01*
X139100Y59386D02*X140100D01*
X138600Y60386D02*X140600Y62386D01*
X110421Y59386D02*X111921D01*
X109921Y59886D02*X110421Y59386D01*
X109921Y62886D02*Y59886D01*
Y62886D02*X110421Y63386D01*
X111921D01*
X113621Y59386D02*X114621D01*
X114121Y63386D02*Y59386D01*
X113121Y62386D02*X114121Y63386D01*
X116321Y59386D02*X117321D01*
X116821Y63386D02*Y59386D01*
X115821Y62386D02*X116821Y63386D01*
X119021Y59386D02*X120021D01*
X119521Y63386D02*Y59386D01*
X118521Y62386D02*X119521Y63386D01*
X100000Y163886D02*Y160386D01*
Y163886D02*X100500Y164386D01*
X102000D01*
X102500Y163886D01*
Y160386D01*
X100000Y162386D02*X102500D01*
X104200Y160386D02*X105200D01*
X104700Y164386D02*Y160386D01*
X103700Y163386D02*X104700Y164386D01*
X106400Y160886D02*X106900Y160386D01*
X106400Y163886D02*Y160886D01*
Y163886D02*X106900Y164386D01*
X107900D01*
X108400Y163886D01*
Y160886D01*
X107900Y160386D02*X108400Y160886D01*
X106900Y160386D02*X107900D01*
X106400Y161386D02*X108400Y163386D01*
X109600Y162386D02*X111600Y164386D01*
X109600Y162386D02*X112100D01*
X111600Y164386D02*Y160386D01*
X100000Y103886D02*Y100386D01*
Y103886D02*X100500Y104386D01*
X102000D01*
X102500Y103886D01*
Y100386D01*
X100000Y102386D02*X102500D01*
X104200Y100386D02*X105200D01*
X104700Y104386D02*Y100386D01*
X103700Y103386D02*X104700Y104386D01*
X106400Y100886D02*X106900Y100386D01*
X106400Y103886D02*Y100886D01*
Y103886D02*X106900Y104386D01*
X107900D01*
X108400Y103886D01*
Y100886D01*
X107900Y100386D02*X108400Y100886D01*
X106900Y100386D02*X107900D01*
X106400Y101386D02*X108400Y103386D01*
X109600Y104386D02*X111600D01*
X109600D02*Y102386D01*
X110100Y102886D01*
X111100D01*
X111600Y102386D01*
Y100886D01*
X111100Y100386D02*X111600Y100886D01*
X110100Y100386D02*X111100D01*
X109600Y100886D02*X110100Y100386D01*
X337000Y60886D02*X337500Y60386D01*
X335500Y60886D02*X337000D01*
X335000Y60386D02*X335500Y60886D01*
X335000Y60386D02*Y57386D01*
X335500Y56886D01*
X337000D01*
X337500Y57386D01*
Y58386D02*Y57386D01*
X337000Y58886D02*X337500Y58386D01*
X336000Y58886D02*X337000D01*
X338700Y60886D02*Y56886D01*
Y60886D02*Y60386D01*
X341200Y57886D01*
Y60886D02*Y56886D01*
X342900Y60886D02*Y56886D01*
X344400Y60886D02*X344900Y60386D01*
Y57386D01*
X344400Y56886D02*X344900Y57386D01*
X342400Y56886D02*X344400D01*
X342400Y60886D02*X344400D01*
X181500Y40886D02*Y37886D01*
X181000Y41386D02*X181500Y40886D01*
X182000Y41386D01*
X183000D01*
X183500Y40886D01*
Y39886D01*
X183000Y39386D02*X183500Y39886D01*
X182000Y39386D02*X183000D01*
X181500Y39886D02*X182000Y39386D01*
X184700Y41386D02*X186700Y43386D01*
X184700Y41386D02*X187200D01*
X186700Y43386D02*Y39386D01*
X552500Y300886D02*Y298886D01*
X552000Y298386D01*
X551000D02*X552000D01*
X550500Y298886D02*X551000Y298386D01*
X550500Y300386D02*Y298886D01*
X548500Y300386D02*X552500D01*
X550500D02*X548500Y298386D01*
Y296686D02*Y295686D01*
Y296186D02*X552500D01*
X551500Y297186D02*X552500Y296186D01*
X549000Y294486D02*X548500Y293986D01*
X549000Y294486D02*X552000D01*
X552500Y293986D01*
Y292986D01*
X552000Y292486D01*
X549000D02*X552000D01*
X548500Y292986D02*X549000Y292486D01*
X548500Y293986D02*Y292986D01*
X549500Y294486D02*X551500Y292486D01*
X549000Y291286D02*X548500Y290786D01*
X549000Y291286D02*X550000D01*
X550500Y290786D01*
Y289786D01*
X550000Y289286D01*
X549000D02*X550000D01*
X548500Y289786D02*X549000Y289286D01*
X548500Y290786D02*Y289786D01*
X551000Y291286D02*X550500Y290786D01*
X551000Y291286D02*X552000D01*
X552500Y290786D01*
Y289786D01*
X552000Y289286D01*
X551000D02*X552000D01*
X550500Y289786D02*X551000Y289286D01*
X516500Y362886D02*Y361386D01*
X516000Y360886D02*X516500Y361386D01*
X513000Y360886D02*X516000D01*
X513000D02*X512500Y361386D01*
Y362886D02*Y361386D01*
X516500Y365586D02*Y364586D01*
X512500Y365086D02*X516500D01*
X513500Y364086D02*X512500Y365086D01*
X516500Y368286D02*Y367286D01*
X512500Y367786D02*X516500D01*
X513500Y366786D02*X512500Y367786D01*
X513000Y369486D02*X512500Y369986D01*
Y371486D02*Y369986D01*
Y371486D02*X513000Y371986D01*
X514000D01*
X516500Y369486D02*X514000Y371986D01*
X516500D02*Y369486D01*
X556000Y305386D02*X560000D01*
Y303886D02*X559500Y303386D01*
X556500D02*X559500D01*
X556000Y303886D02*X556500Y303386D01*
X556000Y305886D02*Y303886D01*
X560000Y305886D02*Y303886D01*
X556000Y301686D02*Y300686D01*
Y301186D02*X560000D01*
X559000Y302186D02*X560000Y301186D01*
X556500Y299486D02*X556000Y298986D01*
X556500Y299486D02*X559500D01*
X560000Y298986D01*
Y297986D01*
X559500Y297486D01*
X556500D02*X559500D01*
X556000Y297986D02*X556500Y297486D01*
X556000Y298986D02*Y297986D01*
X557000Y299486D02*X559000Y297486D01*
X556000Y295786D02*Y294786D01*
Y295286D02*X560000D01*
X559000Y296286D02*X560000Y295286D01*
X600000Y403386D02*X601500D01*
Y399886D01*
X601000Y399386D02*X601500Y399886D01*
X600500Y399386D02*X601000D01*
X600000Y399886D02*X600500Y399386D01*
X603200D02*X604200D01*
X603700Y403386D02*Y399386D01*
X602700Y402386D02*X603700Y403386D01*
X605400Y399886D02*X605900Y399386D01*
X605400Y402886D02*Y399886D01*
Y402886D02*X605900Y403386D01*
X606900D01*
X607400Y402886D01*
Y399886D01*
X606900Y399386D02*X607400Y399886D01*
X605900Y399386D02*X606900D01*
X605400Y400386D02*X607400Y402386D01*
X609100Y399386D02*X610100D01*
X609600Y403386D02*Y399386D01*
X608600Y402386D02*X609600Y403386D01*
X526000Y77886D02*Y76386D01*
X526500Y78386D02*X526000Y77886D01*
X526500Y78386D02*X529500D01*
X530000Y77886D01*
Y76386D01*
X526000Y74686D02*Y73686D01*
Y74186D02*X530000D01*
X529000Y75186D02*X530000Y74186D01*
X526000Y71986D02*Y70986D01*
Y71486D02*X530000D01*
X529000Y72486D02*X530000Y71486D01*
X528000Y69786D02*X530000Y67786D01*
X528000Y69786D02*Y67286D01*
X526000Y67786D02*X530000D01*
X545500Y191886D02*X547000D01*
X545000Y192386D02*X545500Y191886D01*
X545000Y195386D02*Y192386D01*
Y195386D02*X545500Y195886D01*
X547000D01*
X548700Y191886D02*X549700D01*
X549200Y195886D02*Y191886D01*
X548200Y194886D02*X549200Y195886D01*
X551400Y191886D02*X552400D01*
X551900Y195886D02*Y191886D01*
X550900Y194886D02*X551900Y195886D01*
X553600D02*X555600D01*
X553600D02*Y193886D01*
X554100Y194386D01*
X555100D01*
X555600Y193886D01*
Y192386D01*
X555100Y191886D02*X555600Y192386D01*
X554100Y191886D02*X555100D01*
X553600Y192386D02*X554100Y191886D01*
X578500Y100386D02*Y98886D01*
X579000Y100886D02*X578500Y100386D01*
X579000Y100886D02*X582000D01*
X582500Y100386D01*
Y98886D01*
X578500Y97186D02*Y96186D01*
Y96686D02*X582500D01*
X581500Y97686D02*X582500Y96686D01*
X578500Y94486D02*Y93486D01*
Y93986D02*X582500D01*
X581500Y94986D02*X582500Y93986D01*
X582000Y92286D02*X582500Y91786D01*
Y90786D01*
X582000Y90286D01*
X579000D02*X582000D01*
X578500Y90786D02*X579000Y90286D01*
X578500Y91786D02*Y90786D01*
X579000Y92286D02*X578500Y91786D01*
X580500D02*Y90286D01*
X530000Y118386D02*Y114886D01*
X530500Y114386D01*
X531500D01*
X532000Y114886D01*
Y118386D02*Y114886D01*
X533700Y114386D02*X534700D01*
X534200Y118386D02*Y114386D01*
X533200Y117386D02*X534200Y118386D01*
X535900Y114886D02*X536400Y114386D01*
X535900Y117886D02*Y114886D01*
Y117886D02*X536400Y118386D01*
X537400D01*
X537900Y117886D01*
Y114886D01*
X537400Y114386D02*X537900Y114886D01*
X536400Y114386D02*X537400D01*
X535900Y115386D02*X537900Y117386D01*
X539600Y114386D02*X540600D01*
X540100Y118386D02*Y114386D01*
X539100Y117386D02*X540100Y118386D01*
X485500Y270886D02*Y266886D01*
X487000Y270886D02*X487500Y270386D01*
Y267386D01*
X487000Y266886D02*X487500Y267386D01*
X485000Y266886D02*X487000D01*
X485000Y270886D02*X487000D01*
X489200Y266886D02*X490200D01*
X489700Y270886D02*Y266886D01*
X488700Y269886D02*X489700Y270886D01*
X491400Y267386D02*X491900Y266886D01*
X491400Y270386D02*Y267386D01*
Y270386D02*X491900Y270886D01*
X492900D01*
X493400Y270386D01*
Y267386D01*
X492900Y266886D02*X493400Y267386D01*
X491900Y266886D02*X492900D01*
X491400Y267886D02*X493400Y269886D01*
X494600Y270386D02*X495100Y270886D01*
X496100D01*
X496600Y270386D01*
Y267386D01*
X496100Y266886D02*X496600Y267386D01*
X495100Y266886D02*X496100D01*
X494600Y267386D02*X495100Y266886D01*
Y268886D02*X496600D01*
X495500Y225886D02*X497500D01*
X495500D02*X495000Y226386D01*
Y227386D02*Y226386D01*
X495500Y227886D02*X495000Y227386D01*
X495500Y227886D02*X497000D01*
Y229886D02*Y225886D01*
Y227886D02*X495000Y229886D01*
X492300D02*X493300D01*
X492800D02*Y225886D01*
X493800Y226886D02*X492800Y225886D01*
X491100Y229386D02*X490600Y229886D01*
X491100Y229386D02*Y226386D01*
X490600Y225886D01*
X489600D02*X490600D01*
X489600D02*X489100Y226386D01*
Y229386D02*Y226386D01*
X489600Y229886D02*X489100Y229386D01*
X489600Y229886D02*X490600D01*
X491100Y228886D02*X489100Y226886D01*
X487900Y229886D02*X485900Y227886D01*
Y226386D01*
X486400Y225886D02*X485900Y226386D01*
X486400Y225886D02*X487400D01*
X487900Y226386D02*X487400Y225886D01*
X487900Y227386D02*Y226386D01*
Y227386D02*X487400Y227886D01*
X485900D02*X487400D01*
X483000Y293386D02*Y289386D01*
X484500Y293386D02*X485000Y292886D01*
Y289886D01*
X484500Y289386D02*X485000Y289886D01*
X482500Y289386D02*X484500D01*
X482500Y293386D02*X484500D01*
X486700Y289386D02*X487700D01*
X487200Y293386D02*Y289386D01*
X486200Y292386D02*X487200Y293386D01*
X488900Y289886D02*X489400Y289386D01*
X488900Y292886D02*Y289886D01*
Y292886D02*X489400Y293386D01*
X490400D01*
X490900Y292886D01*
Y289886D01*
X490400Y289386D02*X490900Y289886D01*
X489400Y289386D02*X490400D01*
X488900Y290386D02*X490900Y292386D01*
X492100Y292886D02*X492600Y293386D01*
X494100D01*
X494600Y292886D01*
Y291886D01*
X492100Y289386D02*X494600Y291886D01*
X492100Y289386D02*X494600D01*
X490000Y199886D02*X492000D01*
X492500Y199386D01*
Y198386D01*
X492000Y197886D02*X492500Y198386D01*
X490500Y197886D02*X492000D01*
X490500Y199886D02*Y195886D01*
Y197886D02*X492500Y195886D01*
X494200D02*X495200D01*
X494700Y199886D02*Y195886D01*
X493700Y198886D02*X494700Y199886D01*
X496400Y196386D02*X496900Y195886D01*
X496400Y199386D02*Y196386D01*
Y199386D02*X496900Y199886D01*
X497900D01*
X498400Y199386D01*
Y196386D01*
X497900Y195886D02*X498400Y196386D01*
X496900Y195886D02*X497900D01*
X496400Y196886D02*X498400Y198886D01*
X499600Y199386D02*X500100Y199886D01*
X501600D01*
X502100Y199386D01*
Y198386D01*
X499600Y195886D02*X502100Y198386D01*
X499600Y195886D02*X502100D01*
X485000Y317386D02*X487000D01*
X487500Y316886D01*
Y315886D01*
X487000Y315386D02*X487500Y315886D01*
X485500Y315386D02*X487000D01*
X485500Y317386D02*Y313386D01*
Y315386D02*X487500Y313386D01*
X489200D02*X490200D01*
X489700Y317386D02*Y313386D01*
X488700Y316386D02*X489700Y317386D01*
X491400Y313886D02*X491900Y313386D01*
X491400Y316886D02*Y313886D01*
Y316886D02*X491900Y317386D01*
X492900D01*
X493400Y316886D01*
Y313886D01*
X492900Y313386D02*X493400Y313886D01*
X491900Y313386D02*X492900D01*
X491400Y314386D02*X493400Y316386D01*
X494600Y317386D02*X496600D01*
X494600D02*Y315386D01*
X495100Y315886D01*
X496100D01*
X496600Y315386D01*
Y313886D01*
X496100Y313386D02*X496600Y313886D01*
X495100Y313386D02*X496100D01*
X494600Y313886D02*X495100Y313386D01*
X518000Y191886D02*X519500D01*
X517500Y192386D02*X518000Y191886D01*
X517500Y195386D02*Y192386D01*
Y195386D02*X518000Y195886D01*
X519500D01*
X521200Y191886D02*X522200D01*
X521700Y195886D02*Y191886D01*
X520700Y194886D02*X521700Y195886D01*
X523900Y191886D02*X524900D01*
X524400Y195886D02*Y191886D01*
X523400Y194886D02*X524400Y195886D01*
X527600D02*X528100Y195386D01*
X526600Y195886D02*X527600D01*
X526100Y195386D02*X526600Y195886D01*
X526100Y195386D02*Y192386D01*
X526600Y191886D01*
X527600Y193886D02*X528100Y193386D01*
X526100Y193886D02*X527600D01*
X526600Y191886D02*X527600D01*
X528100Y192386D01*
Y193386D02*Y192386D01*
X547500Y215386D02*Y213386D01*
Y215386D02*X548000Y215886D01*
X549000D01*
X549500Y215386D02*X549000Y215886D01*
X549500Y215386D02*Y213886D01*
X547500D02*X551500D01*
X549500D02*X551500Y215886D01*
Y218586D02*Y217586D01*
X547500Y218086D02*X551500D01*
X548500Y217086D02*X547500Y218086D01*
X551000Y219786D02*X551500Y220286D01*
X548000Y219786D02*X551000D01*
X548000D02*X547500Y220286D01*
Y221286D02*Y220286D01*
Y221286D02*X548000Y221786D01*
X551000D01*
X551500Y221286D02*X551000Y221786D01*
X551500Y221286D02*Y220286D01*
X550500Y219786D02*X548500Y221786D01*
X549500Y222986D02*X547500Y224986D01*
X549500Y225486D02*Y222986D01*
X547500Y224986D02*X551500D01*
X589000Y235886D02*Y233886D01*
X588500Y233386D01*
X587500D02*X588500D01*
X587000Y233886D02*X587500Y233386D01*
X587000Y235386D02*Y233886D01*
X585000Y235386D02*X589000D01*
X587000D02*X585000Y233386D01*
Y231686D02*Y230686D01*
Y231186D02*X589000D01*
X588000Y232186D02*X589000Y231186D01*
X585500Y229486D02*X585000Y228986D01*
X585500Y229486D02*X588500D01*
X589000Y228986D01*
Y227986D01*
X588500Y227486D01*
X585500D02*X588500D01*
X585000Y227986D02*X585500Y227486D01*
X585000Y228986D02*Y227986D01*
X586000Y229486D02*X588000Y227486D01*
X588500Y226286D02*X589000Y225786D01*
Y224786D01*
X588500Y224286D01*
X585500D02*X588500D01*
X585000Y224786D02*X585500Y224286D01*
X585000Y225786D02*Y224786D01*
X585500Y226286D02*X585000Y225786D01*
X587000D02*Y224286D01*
X485000Y337386D02*X487000D01*
X487500Y336886D01*
Y335886D01*
X487000Y335386D02*X487500Y335886D01*
X485500Y335386D02*X487000D01*
X485500Y337386D02*Y333386D01*
Y335386D02*X487500Y333386D01*
X489200D02*X490200D01*
X489700Y337386D02*Y333386D01*
X488700Y336386D02*X489700Y337386D01*
X491400Y333886D02*X491900Y333386D01*
X491400Y336886D02*Y333886D01*
Y336886D02*X491900Y337386D01*
X492900D01*
X493400Y336886D01*
Y333886D01*
X492900Y333386D02*X493400Y333886D01*
X491900Y333386D02*X492900D01*
X491400Y334386D02*X493400Y336386D01*
X496100Y337386D02*X496600Y336886D01*
X495100Y337386D02*X496100D01*
X494600Y336886D02*X495100Y337386D01*
X494600Y336886D02*Y333886D01*
X495100Y333386D01*
X496100Y335386D02*X496600Y334886D01*
X494600Y335386D02*X496100D01*
X495100Y333386D02*X496100D01*
X496600Y333886D01*
Y334886D02*Y333886D01*
X400000Y380886D02*Y378886D01*
X399500Y378386D01*
X398500D02*X399500D01*
X398000Y378886D02*X398500Y378386D01*
X398000Y380386D02*Y378886D01*
X396000Y380386D02*X400000D01*
X398000D02*X396000Y378386D01*
Y376686D02*Y375686D01*
Y376186D02*X400000D01*
X399000Y377186D02*X400000Y376186D01*
X396000Y373986D02*Y372986D01*
Y373486D02*X400000D01*
X399000Y374486D02*X400000Y373486D01*
X396500Y371786D02*X396000Y371286D01*
X396500Y371786D02*X399500D01*
X400000Y371286D01*
Y370286D01*
X399500Y369786D01*
X396500D02*X399500D01*
X396000Y370286D02*X396500Y369786D01*
X396000Y371286D02*Y370286D01*
X397000Y371786D02*X399000Y369786D01*
X298000Y374386D02*X299500D01*
X297500Y374886D02*X298000Y374386D01*
X297500Y377886D02*Y374886D01*
Y377886D02*X298000Y378386D01*
X299500D01*
X106500Y395886D02*Y392886D01*
X106000Y396386D02*X106500Y395886D01*
X107000Y396386D01*
X108000D01*
X108500Y395886D01*
Y394886D01*
X108000Y394386D02*X108500Y394886D01*
X107000Y394386D02*X108000D01*
X106500Y394886D02*X107000Y394386D01*
X110200D02*X111200D01*
X110700Y398386D02*Y394386D01*
X109700Y397386D02*X110700Y398386D01*
X181500Y395886D02*Y392886D01*
X181000Y396386D02*X181500Y395886D01*
X182000Y396386D01*
X183000D01*
X183500Y395886D01*
Y394886D01*
X183000Y394386D02*X183500Y394886D01*
X182000Y394386D02*X183000D01*
X181500Y394886D02*X182000Y394386D01*
X184700Y397886D02*X185200Y398386D01*
X186700D01*
X187200Y397886D01*
Y396886D01*
X184700Y394386D02*X187200Y396886D01*
X184700Y394386D02*X187200D01*
X130658Y264544D02*X132158D01*
X130158Y265044D02*X130658Y264544D01*
X130158Y268044D02*Y265044D01*
Y268044D02*X130658Y268544D01*
X132158D01*
X133858Y264544D02*X134858D01*
X134358Y268544D02*Y264544D01*
X133358Y267544D02*X134358Y268544D01*
X136058Y265044D02*X136558Y264544D01*
X136058Y268044D02*Y265044D01*
Y268044D02*X136558Y268544D01*
X137558D01*
X138058Y268044D01*
Y265044D01*
X137558Y264544D02*X138058Y265044D01*
X136558Y264544D02*X137558D01*
X136058Y265544D02*X138058Y267544D01*
X139258Y266544D02*X141258Y268544D01*
X139258Y266544D02*X141758D01*
X141258Y268544D02*Y264544D01*
X120500Y234386D02*X122000D01*
X120000Y234886D02*X120500Y234386D01*
X120000Y237886D02*Y234886D01*
Y237886D02*X120500Y238386D01*
X122000D01*
X123700Y234386D02*X124700D01*
X124200Y238386D02*Y234386D01*
X123200Y237386D02*X124200Y238386D01*
X125900Y234886D02*X126400Y234386D01*
X125900Y237886D02*Y234886D01*
Y237886D02*X126400Y238386D01*
X127400D01*
X127900Y237886D01*
Y234886D01*
X127400Y234386D02*X127900Y234886D01*
X126400Y234386D02*X127400D01*
X125900Y235386D02*X127900Y237386D01*
X129100Y238386D02*X131100D01*
X129100D02*Y236386D01*
X129600Y236886D01*
X130600D01*
X131100Y236386D01*
Y234886D01*
X130600Y234386D02*X131100Y234886D01*
X129600Y234386D02*X130600D01*
X129100Y234886D02*X129600Y234386D01*
X100000Y223886D02*Y220386D01*
Y223886D02*X100500Y224386D01*
X102000D01*
X102500Y223886D01*
Y220386D01*
X100000Y222386D02*X102500D01*
X104200Y220386D02*X105200D01*
X104700Y224386D02*Y220386D01*
X103700Y223386D02*X104700Y224386D01*
X106400Y220886D02*X106900Y220386D01*
X106400Y223886D02*Y220886D01*
Y223886D02*X106900Y224386D01*
X107900D01*
X108400Y223886D01*
Y220886D01*
X107900Y220386D02*X108400Y220886D01*
X106900Y220386D02*X107900D01*
X106400Y221386D02*X108400Y223386D01*
X109600Y223886D02*X110100Y224386D01*
X111100D01*
X111600Y223886D01*
Y220886D01*
X111100Y220386D02*X111600Y220886D01*
X110100Y220386D02*X111100D01*
X109600Y220886D02*X110100Y220386D01*
Y222386D02*X111600D01*
X30000Y359886D02*Y358386D01*
Y359886D02*X33500D01*
X34000Y359386D02*X33500Y359886D01*
X34000Y359386D02*Y358886D01*
X33500Y358386D02*X34000Y358886D01*
Y362586D02*Y361586D01*
X30000Y362086D02*X34000D01*
X31000Y361086D02*X30000Y362086D01*
X33500Y363786D02*X34000Y364286D01*
X30500Y363786D02*X33500D01*
X30500D02*X30000Y364286D01*
Y365286D02*Y364286D01*
Y365286D02*X30500Y365786D01*
X33500D01*
X34000Y365286D02*X33500Y365786D01*
X34000Y365286D02*Y364286D01*
X33000Y363786D02*X31000Y365786D01*
X30500Y366986D02*X30000Y367486D01*
Y368986D02*Y367486D01*
Y368986D02*X30500Y369486D01*
X31500D01*
X34000Y366986D02*X31500Y369486D01*
X34000D02*Y366986D01*
X5000Y387886D02*Y384386D01*
Y387886D02*X5500Y388386D01*
X7000D01*
X7500Y387886D01*
Y384386D01*
X5000Y386386D02*X7500D01*
X130500Y294386D02*X132000D01*
X130000Y294886D02*X130500Y294386D01*
X130000Y297886D02*Y294886D01*
Y297886D02*X130500Y298386D01*
X132000D01*
X133700Y294386D02*X134700D01*
X134200Y298386D02*Y294386D01*
X133200Y297386D02*X134200Y298386D01*
X135900Y294886D02*X136400Y294386D01*
X135900Y297886D02*Y294886D01*
Y297886D02*X136400Y298386D01*
X137400D01*
X137900Y297886D01*
Y294886D01*
X137400Y294386D02*X137900Y294886D01*
X136400Y294386D02*X137400D01*
X135900Y295386D02*X137900Y297386D01*
X139100Y297886D02*X139600Y298386D01*
X141100D01*
X141600Y297886D01*
Y296886D01*
X139100Y294386D02*X141600Y296886D01*
X139100Y294386D02*X141600D01*
X105500D02*X107000D01*
X105000Y294886D02*X105500Y294386D01*
X105000Y297886D02*Y294886D01*
Y297886D02*X105500Y298386D01*
X107000D01*
X108700Y294386D02*X109700D01*
X109200Y298386D02*Y294386D01*
X108200Y297386D02*X109200Y298386D01*
X110900Y294886D02*X111400Y294386D01*
X110900Y297886D02*Y294886D01*
Y297886D02*X111400Y298386D01*
X112400D01*
X112900Y297886D01*
Y294886D01*
X112400Y294386D02*X112900Y294886D01*
X111400Y294386D02*X112400D01*
X110900Y295386D02*X112900Y297386D01*
X114100Y297886D02*X114600Y298386D01*
X115600D01*
X116100Y297886D01*
Y294886D01*
X115600Y294386D02*X116100Y294886D01*
X114600Y294386D02*X115600D01*
X114100Y294886D02*X114600Y294386D01*
Y296386D02*X116100D01*
X100000Y343886D02*Y340386D01*
Y343886D02*X100500Y344386D01*
X102000D01*
X102500Y343886D01*
Y340386D01*
X100000Y342386D02*X102500D01*
X104200Y340386D02*X105200D01*
X104700Y344386D02*Y340386D01*
X103700Y343386D02*X104700Y344386D01*
X106400Y340886D02*X106900Y340386D01*
X106400Y343886D02*Y340886D01*
Y343886D02*X106900Y344386D01*
X107900D01*
X108400Y343886D01*
Y340886D01*
X107900Y340386D02*X108400Y340886D01*
X106900Y340386D02*X107900D01*
X106400Y341386D02*X108400Y343386D01*
X110100Y340386D02*X111100D01*
X110600Y344386D02*Y340386D01*
X109600Y343386D02*X110600Y344386D01*
X100000Y283886D02*Y280386D01*
Y283886D02*X100500Y284386D01*
X102000D01*
X102500Y283886D01*
Y280386D01*
X100000Y282386D02*X102500D01*
X104200Y280386D02*X105200D01*
X104700Y284386D02*Y280386D01*
X103700Y283386D02*X104700Y284386D01*
X106400Y280886D02*X106900Y280386D01*
X106400Y283886D02*Y280886D01*
Y283886D02*X106900Y284386D01*
X107900D01*
X108400Y283886D01*
Y280886D01*
X107900Y280386D02*X108400Y280886D01*
X106900Y280386D02*X107900D01*
X106400Y281386D02*X108400Y283386D01*
X109600Y283886D02*X110100Y284386D01*
X111600D01*
X112100Y283886D01*
Y282886D01*
X109600Y280386D02*X112100Y282886D01*
X109600Y280386D02*X112100D01*
M02*
