G04 start of page 2 for group 0 idx 0 *
G04 Title: 26.004.00.01.01.pcb, top *
G04 Creator: pcb 4.2.2 *
G04 CreationDate: Sat Feb 13 13:51:23 2021 UTC *
G04 For: bert *
G04 Format: Gerber/RS-274X *
G04 PCB-Dimensions (mil): 6692.91 3937.01 *
G04 PCB-Coordinate-Origin: lower left *
%MOIN*%
%FSLAX25Y25*%
%LNGTL*%
%ADD13C,0.1460*%
%ADD12C,0.2760*%
%ADD11C,0.0001*%
G54D11*G36*
X640696Y374016D02*X642737D01*
X642829Y373931D01*
X643661Y373021D01*
X644409Y372040D01*
X645067Y370995D01*
X645628Y369897D01*
X646089Y368752D01*
X646446Y367571D01*
X646696Y366363D01*
X646837Y365137D01*
X646847Y365060D01*
X646871Y364984D01*
X646906Y364914D01*
X646952Y364850D01*
X647007Y364794D01*
X647070Y364747D01*
X647140Y364711D01*
X647215Y364686D01*
X647292Y364673D01*
X647371Y364672D01*
X647449Y364684D01*
X647524Y364707D01*
X647594Y364743D01*
X647658Y364788D01*
X647714Y364843D01*
X647761Y364907D01*
X647798Y364977D01*
X647823Y365051D01*
X647836Y365129D01*
X647835Y365207D01*
X647698Y366524D01*
X647430Y367821D01*
X647046Y369089D01*
X646551Y370318D01*
X645949Y371497D01*
X645243Y372618D01*
X644440Y373671D01*
X644125Y374016D01*
X649606D01*
Y19685D01*
X644125D01*
X644440Y20029D01*
X645243Y21083D01*
X645949Y22204D01*
X646551Y23383D01*
X647046Y24612D01*
X647430Y25880D01*
X647698Y27177D01*
X647849Y28492D01*
X647849Y28573D01*
X647836Y28653D01*
X647810Y28730D01*
X647773Y28801D01*
X647725Y28866D01*
X647667Y28923D01*
X647601Y28970D01*
X647529Y29006D01*
X647452Y29031D01*
X647372Y29042D01*
X647291Y29042D01*
X647211Y29028D01*
X647135Y29003D01*
X647063Y28965D01*
X646998Y28917D01*
X646941Y28860D01*
X646894Y28794D01*
X646858Y28721D01*
X646834Y28644D01*
X646823Y28564D01*
X646696Y27338D01*
X646446Y26129D01*
X646089Y24948D01*
X645628Y23804D01*
X645067Y22705D01*
X644409Y21661D01*
X643661Y20680D01*
X642829Y19769D01*
X642737Y19685D01*
X640696D01*
Y41018D01*
X640937Y40866D01*
X641918Y40118D01*
X642829Y39286D01*
X643661Y38375D01*
X644409Y37394D01*
X645067Y36350D01*
X645628Y35251D01*
X646089Y34107D01*
X646446Y32926D01*
X646696Y31717D01*
X646837Y30492D01*
X646847Y30414D01*
X646871Y30339D01*
X646906Y30268D01*
X646952Y30204D01*
X647007Y30148D01*
X647070Y30101D01*
X647140Y30065D01*
X647215Y30040D01*
X647292Y30027D01*
X647371Y30026D01*
X647449Y30038D01*
X647524Y30062D01*
X647594Y30097D01*
X647658Y30143D01*
X647714Y30198D01*
X647761Y30261D01*
X647798Y30331D01*
X647823Y30405D01*
X647836Y30483D01*
X647835Y30562D01*
X647698Y31879D01*
X647430Y33176D01*
X647046Y34443D01*
X646551Y35672D01*
X645949Y36851D01*
X645243Y37972D01*
X644440Y39026D01*
X643547Y40003D01*
X642569Y40897D01*
X641516Y41700D01*
X640696Y42216D01*
Y351485D01*
X641516Y352001D01*
X642569Y352804D01*
X643547Y353698D01*
X644440Y354675D01*
X645243Y355728D01*
X645949Y356849D01*
X646551Y358029D01*
X647046Y359257D01*
X647430Y360525D01*
X647698Y361822D01*
X647849Y363138D01*
X647849Y363219D01*
X647836Y363299D01*
X647810Y363375D01*
X647773Y363447D01*
X647725Y363512D01*
X647667Y363569D01*
X647601Y363616D01*
X647529Y363652D01*
X647452Y363676D01*
X647372Y363688D01*
X647291Y363687D01*
X647211Y363674D01*
X647135Y363648D01*
X647063Y363611D01*
X646998Y363563D01*
X646941Y363505D01*
X646894Y363440D01*
X646858Y363367D01*
X646834Y363290D01*
X646823Y363210D01*
X646696Y361983D01*
X646446Y360775D01*
X646089Y359594D01*
X645628Y358450D01*
X645067Y357351D01*
X644409Y356307D01*
X643661Y355326D01*
X642829Y354415D01*
X641918Y353583D01*
X640937Y352835D01*
X640696Y352683D01*
Y374016D01*
G37*
G36*
X625432D02*X640696D01*
Y352683D01*
X639893Y352177D01*
X638794Y351616D01*
X637650Y351155D01*
X636469Y350798D01*
X635261Y350548D01*
X634035Y350407D01*
X633957Y350397D01*
X633882Y350373D01*
X633812Y350338D01*
X633748Y350292D01*
X633692Y350237D01*
X633645Y350174D01*
X633608Y350104D01*
X633583Y350029D01*
X633570Y349952D01*
X633570Y349873D01*
X633581Y349795D01*
X633605Y349720D01*
X633640Y349650D01*
X633686Y349586D01*
X633741Y349530D01*
X633804Y349483D01*
X633874Y349446D01*
X633949Y349422D01*
X634026Y349409D01*
X634105Y349409D01*
X635422Y349546D01*
X636719Y349815D01*
X637987Y350198D01*
X639215Y350693D01*
X640395Y351295D01*
X640696Y351485D01*
Y42216D01*
X640395Y42405D01*
X639215Y43008D01*
X637987Y43503D01*
X636719Y43886D01*
X635422Y44155D01*
X634106Y44306D01*
X634025Y44306D01*
X633945Y44293D01*
X633869Y44267D01*
X633797Y44230D01*
X633732Y44182D01*
X633675Y44124D01*
X633628Y44058D01*
X633592Y43986D01*
X633568Y43909D01*
X633556Y43829D01*
X633557Y43748D01*
X633570Y43668D01*
X633596Y43591D01*
X633633Y43520D01*
X633681Y43455D01*
X633739Y43398D01*
X633805Y43351D01*
X633877Y43315D01*
X633954Y43290D01*
X634034Y43280D01*
X635261Y43153D01*
X636469Y42903D01*
X637650Y42546D01*
X638794Y42085D01*
X639893Y41523D01*
X640696Y41018D01*
Y19685D01*
X625432D01*
Y41009D01*
X626249Y41523D01*
X627347Y42085D01*
X628492Y42546D01*
X629673Y42903D01*
X630881Y43153D01*
X632107Y43294D01*
X632185Y43304D01*
X632260Y43328D01*
X632330Y43363D01*
X632394Y43408D01*
X632450Y43464D01*
X632497Y43527D01*
X632533Y43597D01*
X632558Y43671D01*
X632571Y43749D01*
X632572Y43828D01*
X632560Y43905D01*
X632537Y43981D01*
X632502Y44051D01*
X632456Y44115D01*
X632401Y44171D01*
X632337Y44218D01*
X632268Y44254D01*
X632193Y44279D01*
X632115Y44292D01*
X632037Y44291D01*
X630720Y44155D01*
X629423Y43886D01*
X628155Y43503D01*
X626926Y43008D01*
X625747Y42405D01*
X625432Y42207D01*
Y351494D01*
X625747Y351295D01*
X626926Y350693D01*
X628155Y350198D01*
X629423Y349815D01*
X630720Y349546D01*
X632036Y349395D01*
X632117Y349395D01*
X632196Y349408D01*
X632273Y349434D01*
X632345Y349471D01*
X632410Y349519D01*
X632466Y349577D01*
X632513Y349643D01*
X632550Y349715D01*
X632574Y349792D01*
X632586Y349872D01*
X632585Y349953D01*
X632572Y350033D01*
X632546Y350110D01*
X632509Y350181D01*
X632461Y350246D01*
X632403Y350303D01*
X632337Y350350D01*
X632265Y350386D01*
X632188Y350410D01*
X632108Y350421D01*
X630881Y350548D01*
X629673Y350798D01*
X628492Y351155D01*
X627347Y351616D01*
X626249Y352177D01*
X625432Y352691D01*
Y374016D01*
G37*
G36*
X342271D02*X344311D01*
X344404Y373931D01*
X345236Y373021D01*
X345984Y372040D01*
X346641Y370995D01*
X347203Y369897D01*
X347664Y368752D01*
X348021Y367571D01*
X348271Y366363D01*
X348412Y365137D01*
X348422Y365060D01*
X348446Y364984D01*
X348481Y364914D01*
X348527Y364850D01*
X348582Y364794D01*
X348645Y364747D01*
X348715Y364711D01*
X348789Y364686D01*
X348867Y364673D01*
X348946Y364672D01*
X349024Y364684D01*
X349099Y364707D01*
X349169Y364743D01*
X349233Y364788D01*
X349289Y364843D01*
X349336Y364907D01*
X349372Y364977D01*
X349397Y365051D01*
X349410Y365129D01*
X349409Y365207D01*
X349273Y366524D01*
X349004Y367821D01*
X348621Y369089D01*
X348126Y370318D01*
X347524Y371497D01*
X346818Y372618D01*
X346015Y373671D01*
X345700Y374016D01*
X622016D01*
X621701Y373671D01*
X620899Y372618D01*
X620193Y371497D01*
X619590Y370318D01*
X619095Y369089D01*
X618712Y367821D01*
X618444Y366524D01*
X618292Y365208D01*
X618292Y365128D01*
X618306Y365048D01*
X618331Y364971D01*
X618369Y364899D01*
X618417Y364834D01*
X618474Y364778D01*
X618540Y364731D01*
X618613Y364695D01*
X618690Y364670D01*
X618770Y364658D01*
X618851Y364659D01*
X618930Y364672D01*
X619007Y364698D01*
X619079Y364735D01*
X619144Y364783D01*
X619201Y364841D01*
X619248Y364907D01*
X619284Y364979D01*
X619308Y365056D01*
X619318Y365137D01*
X619446Y366363D01*
X619696Y367571D01*
X620053Y368752D01*
X620514Y369897D01*
X621075Y370995D01*
X621732Y372040D01*
X622480Y373021D01*
X623313Y373931D01*
X623405Y374016D01*
X625432D01*
Y352691D01*
X625205Y352835D01*
X624223Y353583D01*
X623313Y354415D01*
X622480Y355326D01*
X621732Y356307D01*
X621075Y357351D01*
X620514Y358450D01*
X620053Y359594D01*
X619696Y360775D01*
X619446Y361983D01*
X619305Y363209D01*
X619294Y363287D01*
X619271Y363362D01*
X619236Y363432D01*
X619190Y363496D01*
X619135Y363553D01*
X619072Y363599D01*
X619002Y363636D01*
X618927Y363661D01*
X618849Y363674D01*
X618771Y363674D01*
X618693Y363663D01*
X618618Y363639D01*
X618547Y363604D01*
X618483Y363558D01*
X618427Y363503D01*
X618380Y363440D01*
X618344Y363370D01*
X618319Y363295D01*
X618306Y363218D01*
X618307Y363139D01*
X618444Y361822D01*
X618712Y360525D01*
X619095Y359257D01*
X619590Y358029D01*
X620193Y356849D01*
X620899Y355728D01*
X621701Y354675D01*
X622595Y353698D01*
X623573Y352804D01*
X624626Y352001D01*
X625432Y351494D01*
Y42207D01*
X624626Y41700D01*
X623573Y40897D01*
X622595Y40003D01*
X621701Y39026D01*
X620899Y37972D01*
X620193Y36851D01*
X619590Y35672D01*
X619095Y34443D01*
X618712Y33176D01*
X618444Y31879D01*
X618292Y30563D01*
X618292Y30482D01*
X618306Y30402D01*
X618331Y30325D01*
X618369Y30254D01*
X618417Y30189D01*
X618474Y30132D01*
X618540Y30085D01*
X618613Y30049D01*
X618690Y30025D01*
X618770Y30013D01*
X618851Y30013D01*
X618930Y30027D01*
X619007Y30052D01*
X619079Y30090D01*
X619144Y30138D01*
X619201Y30195D01*
X619248Y30261D01*
X619284Y30334D01*
X619308Y30411D01*
X619318Y30491D01*
X619446Y31717D01*
X619696Y32926D01*
X620053Y34107D01*
X620514Y35251D01*
X621075Y36350D01*
X621732Y37394D01*
X622480Y38375D01*
X623313Y39286D01*
X624223Y40118D01*
X625205Y40866D01*
X625432Y41009D01*
Y19685D01*
X623405D01*
X623313Y19769D01*
X622480Y20680D01*
X621732Y21661D01*
X621075Y22705D01*
X620514Y23804D01*
X620053Y24948D01*
X619696Y26129D01*
X619446Y27338D01*
X619305Y28563D01*
X619294Y28641D01*
X619271Y28716D01*
X619236Y28787D01*
X619190Y28851D01*
X619135Y28907D01*
X619072Y28954D01*
X619002Y28990D01*
X618927Y29015D01*
X618849Y29028D01*
X618771Y29029D01*
X618693Y29017D01*
X618618Y28993D01*
X618547Y28958D01*
X618483Y28913D01*
X618427Y28857D01*
X618380Y28794D01*
X618344Y28724D01*
X618319Y28650D01*
X618306Y28572D01*
X618307Y28493D01*
X618444Y27177D01*
X618712Y25880D01*
X619095Y24612D01*
X619590Y23383D01*
X620193Y22204D01*
X620899Y21083D01*
X621701Y20029D01*
X622016Y19685D01*
X345700D01*
X346015Y20029D01*
X346818Y21083D01*
X347524Y22204D01*
X348126Y23383D01*
X348621Y24612D01*
X349004Y25880D01*
X349273Y27177D01*
X349424Y28492D01*
X349424Y28573D01*
X349411Y28653D01*
X349385Y28730D01*
X349348Y28801D01*
X349300Y28866D01*
X349242Y28923D01*
X349176Y28970D01*
X349104Y29006D01*
X349027Y29031D01*
X348947Y29042D01*
X348866Y29042D01*
X348786Y29028D01*
X348709Y29003D01*
X348638Y28965D01*
X348573Y28917D01*
X348516Y28860D01*
X348469Y28794D01*
X348433Y28721D01*
X348409Y28644D01*
X348398Y28564D01*
X348271Y27338D01*
X348021Y26129D01*
X347664Y24948D01*
X347203Y23804D01*
X346641Y22705D01*
X345984Y21661D01*
X345236Y20680D01*
X344404Y19769D01*
X344311Y19685D01*
X342271D01*
Y41018D01*
X342512Y40866D01*
X343493Y40118D01*
X344404Y39286D01*
X345236Y38375D01*
X345984Y37394D01*
X346641Y36350D01*
X347203Y35251D01*
X347664Y34107D01*
X348021Y32926D01*
X348271Y31717D01*
X348412Y30492D01*
X348422Y30414D01*
X348446Y30339D01*
X348481Y30268D01*
X348527Y30204D01*
X348582Y30148D01*
X348645Y30101D01*
X348715Y30065D01*
X348789Y30040D01*
X348867Y30027D01*
X348946Y30026D01*
X349024Y30038D01*
X349099Y30062D01*
X349169Y30097D01*
X349233Y30143D01*
X349289Y30198D01*
X349336Y30261D01*
X349372Y30331D01*
X349397Y30405D01*
X349410Y30483D01*
X349409Y30562D01*
X349273Y31879D01*
X349004Y33176D01*
X348621Y34443D01*
X348126Y35672D01*
X347524Y36851D01*
X346818Y37972D01*
X346015Y39026D01*
X345121Y40003D01*
X344144Y40897D01*
X343090Y41700D01*
X342271Y42216D01*
Y351485D01*
X343090Y352001D01*
X344144Y352804D01*
X345121Y353698D01*
X346015Y354675D01*
X346818Y355728D01*
X347524Y356849D01*
X348126Y358029D01*
X348621Y359257D01*
X349004Y360525D01*
X349273Y361822D01*
X349424Y363138D01*
X349424Y363219D01*
X349411Y363299D01*
X349385Y363375D01*
X349348Y363447D01*
X349300Y363512D01*
X349242Y363569D01*
X349176Y363616D01*
X349104Y363652D01*
X349027Y363676D01*
X348947Y363688D01*
X348866Y363687D01*
X348786Y363674D01*
X348709Y363648D01*
X348638Y363611D01*
X348573Y363563D01*
X348516Y363505D01*
X348469Y363440D01*
X348433Y363367D01*
X348409Y363290D01*
X348398Y363210D01*
X348271Y361983D01*
X348021Y360775D01*
X347664Y359594D01*
X347203Y358450D01*
X346641Y357351D01*
X345984Y356307D01*
X345236Y355326D01*
X344404Y354415D01*
X343493Y353583D01*
X342512Y352835D01*
X342271Y352683D01*
Y374016D01*
G37*
G36*
X327007D02*X342271D01*
Y352683D01*
X341468Y352177D01*
X340369Y351616D01*
X339225Y351155D01*
X338044Y350798D01*
X336836Y350548D01*
X335610Y350407D01*
X335532Y350397D01*
X335457Y350373D01*
X335386Y350338D01*
X335322Y350292D01*
X335266Y350237D01*
X335220Y350174D01*
X335183Y350104D01*
X335158Y350029D01*
X335145Y349952D01*
X335145Y349873D01*
X335156Y349795D01*
X335180Y349720D01*
X335215Y349650D01*
X335261Y349586D01*
X335316Y349530D01*
X335379Y349483D01*
X335449Y349446D01*
X335524Y349422D01*
X335601Y349409D01*
X335680Y349409D01*
X336997Y349546D01*
X338294Y349815D01*
X339561Y350198D01*
X340790Y350693D01*
X341970Y351295D01*
X342271Y351485D01*
Y42216D01*
X341970Y42405D01*
X340790Y43008D01*
X339561Y43503D01*
X338294Y43886D01*
X336997Y44155D01*
X335681Y44306D01*
X335600Y44306D01*
X335520Y44293D01*
X335444Y44267D01*
X335372Y44230D01*
X335307Y44182D01*
X335250Y44124D01*
X335203Y44058D01*
X335167Y43986D01*
X335143Y43909D01*
X335131Y43829D01*
X335131Y43748D01*
X335145Y43668D01*
X335170Y43591D01*
X335208Y43520D01*
X335256Y43455D01*
X335314Y43398D01*
X335379Y43351D01*
X335452Y43315D01*
X335529Y43290D01*
X335609Y43280D01*
X336836Y43153D01*
X338044Y42903D01*
X339225Y42546D01*
X340369Y42085D01*
X341468Y41523D01*
X342271Y41018D01*
Y19685D01*
X327007D01*
Y41009D01*
X327824Y41523D01*
X328922Y42085D01*
X330067Y42546D01*
X331248Y42903D01*
X332456Y43153D01*
X333681Y43294D01*
X333759Y43304D01*
X333834Y43328D01*
X333905Y43363D01*
X333969Y43408D01*
X334025Y43464D01*
X334072Y43527D01*
X334108Y43597D01*
X334133Y43671D01*
X334146Y43749D01*
X334147Y43828D01*
X334135Y43905D01*
X334111Y43981D01*
X334076Y44051D01*
X334031Y44115D01*
X333975Y44171D01*
X333912Y44218D01*
X333842Y44254D01*
X333768Y44279D01*
X333690Y44292D01*
X333612Y44291D01*
X332295Y44155D01*
X330998Y43886D01*
X329730Y43503D01*
X328501Y43008D01*
X327322Y42405D01*
X327007Y42207D01*
Y351494D01*
X327322Y351295D01*
X328501Y350693D01*
X329730Y350198D01*
X330998Y349815D01*
X332295Y349546D01*
X333611Y349395D01*
X333691Y349395D01*
X333771Y349408D01*
X333848Y349434D01*
X333920Y349471D01*
X333985Y349519D01*
X334041Y349577D01*
X334088Y349643D01*
X334124Y349715D01*
X334149Y349792D01*
X334161Y349872D01*
X334160Y349953D01*
X334147Y350033D01*
X334121Y350110D01*
X334084Y350181D01*
X334035Y350246D01*
X333978Y350303D01*
X333912Y350350D01*
X333840Y350386D01*
X333762Y350410D01*
X333682Y350421D01*
X332456Y350548D01*
X331248Y350798D01*
X330067Y351155D01*
X328922Y351616D01*
X327824Y352177D01*
X327007Y352691D01*
Y374016D01*
G37*
G36*
X45026D02*X47067D01*
X47160Y373931D01*
X47992Y373021D01*
X48740Y372040D01*
X49397Y370995D01*
X49959Y369897D01*
X50420Y368752D01*
X50777Y367571D01*
X51027Y366363D01*
X51168Y365137D01*
X51178Y365060D01*
X51202Y364984D01*
X51237Y364914D01*
X51282Y364850D01*
X51338Y364794D01*
X51401Y364747D01*
X51471Y364711D01*
X51545Y364686D01*
X51623Y364673D01*
X51702Y364672D01*
X51779Y364684D01*
X51855Y364707D01*
X51925Y364743D01*
X51989Y364788D01*
X52045Y364843D01*
X52092Y364907D01*
X52128Y364977D01*
X52153Y365051D01*
X52166Y365129D01*
X52165Y365207D01*
X52029Y366524D01*
X51760Y367821D01*
X51377Y369089D01*
X50882Y370318D01*
X50279Y371497D01*
X49574Y372618D01*
X48771Y373671D01*
X48456Y374016D01*
X323591D01*
X323276Y373671D01*
X322473Y372618D01*
X321768Y371497D01*
X321165Y370318D01*
X320670Y369089D01*
X320287Y367821D01*
X320019Y366524D01*
X319867Y365208D01*
X319867Y365128D01*
X319881Y365048D01*
X319906Y364971D01*
X319944Y364899D01*
X319992Y364834D01*
X320049Y364778D01*
X320115Y364731D01*
X320187Y364695D01*
X320265Y364670D01*
X320345Y364658D01*
X320425Y364659D01*
X320505Y364672D01*
X320582Y364698D01*
X320654Y364735D01*
X320719Y364783D01*
X320775Y364841D01*
X320822Y364907D01*
X320858Y364979D01*
X320883Y365056D01*
X320893Y365137D01*
X321021Y366363D01*
X321271Y367571D01*
X321628Y368752D01*
X322089Y369897D01*
X322650Y370995D01*
X323307Y372040D01*
X324055Y373021D01*
X324888Y373931D01*
X324980Y374016D01*
X327007D01*
Y352691D01*
X326779Y352835D01*
X325798Y353583D01*
X324888Y354415D01*
X324055Y355326D01*
X323307Y356307D01*
X322650Y357351D01*
X322089Y358450D01*
X321628Y359594D01*
X321271Y360775D01*
X321021Y361983D01*
X320879Y363209D01*
X320869Y363287D01*
X320846Y363362D01*
X320810Y363432D01*
X320765Y363496D01*
X320710Y363553D01*
X320646Y363599D01*
X320577Y363636D01*
X320502Y363661D01*
X320424Y363674D01*
X320346Y363674D01*
X320268Y363663D01*
X320193Y363639D01*
X320122Y363604D01*
X320058Y363558D01*
X320002Y363503D01*
X319955Y363440D01*
X319919Y363370D01*
X319894Y363295D01*
X319881Y363218D01*
X319882Y363139D01*
X320019Y361822D01*
X320287Y360525D01*
X320670Y359257D01*
X321165Y358029D01*
X321768Y356849D01*
X322473Y355728D01*
X323276Y354675D01*
X324170Y353698D01*
X325148Y352804D01*
X326201Y352001D01*
X327007Y351494D01*
Y42207D01*
X326201Y41700D01*
X325148Y40897D01*
X324170Y40003D01*
X323276Y39026D01*
X322473Y37972D01*
X321768Y36851D01*
X321165Y35672D01*
X320670Y34443D01*
X320287Y33176D01*
X320019Y31879D01*
X319867Y30563D01*
X319867Y30482D01*
X319881Y30402D01*
X319906Y30325D01*
X319944Y30254D01*
X319992Y30189D01*
X320049Y30132D01*
X320115Y30085D01*
X320187Y30049D01*
X320265Y30025D01*
X320345Y30013D01*
X320425Y30013D01*
X320505Y30027D01*
X320582Y30052D01*
X320654Y30090D01*
X320719Y30138D01*
X320775Y30195D01*
X320822Y30261D01*
X320858Y30334D01*
X320883Y30411D01*
X320893Y30491D01*
X321021Y31717D01*
X321271Y32926D01*
X321628Y34107D01*
X322089Y35251D01*
X322650Y36350D01*
X323307Y37394D01*
X324055Y38375D01*
X324888Y39286D01*
X325798Y40118D01*
X326779Y40866D01*
X327007Y41009D01*
Y19685D01*
X324980D01*
X324888Y19769D01*
X324055Y20680D01*
X323307Y21661D01*
X322650Y22705D01*
X322089Y23804D01*
X321628Y24948D01*
X321271Y26129D01*
X321021Y27338D01*
X320879Y28563D01*
X320869Y28641D01*
X320846Y28716D01*
X320810Y28787D01*
X320765Y28851D01*
X320710Y28907D01*
X320646Y28954D01*
X320577Y28990D01*
X320502Y29015D01*
X320424Y29028D01*
X320346Y29029D01*
X320268Y29017D01*
X320193Y28993D01*
X320122Y28958D01*
X320058Y28913D01*
X320002Y28857D01*
X319955Y28794D01*
X319919Y28724D01*
X319894Y28650D01*
X319881Y28572D01*
X319882Y28493D01*
X320019Y27177D01*
X320287Y25880D01*
X320670Y24612D01*
X321165Y23383D01*
X321768Y22204D01*
X322473Y21083D01*
X323276Y20029D01*
X323591Y19685D01*
X48456D01*
X48771Y20029D01*
X49574Y21083D01*
X50279Y22204D01*
X50882Y23383D01*
X51377Y24612D01*
X51760Y25880D01*
X52029Y27177D01*
X52180Y28492D01*
X52180Y28573D01*
X52167Y28653D01*
X52141Y28730D01*
X52104Y28801D01*
X52056Y28866D01*
X51998Y28923D01*
X51932Y28970D01*
X51860Y29006D01*
X51783Y29031D01*
X51703Y29042D01*
X51622Y29042D01*
X51542Y29028D01*
X51465Y29003D01*
X51394Y28965D01*
X51329Y28917D01*
X51272Y28860D01*
X51225Y28794D01*
X51189Y28721D01*
X51164Y28644D01*
X51154Y28564D01*
X51027Y27338D01*
X50777Y26129D01*
X50420Y24948D01*
X49959Y23804D01*
X49397Y22705D01*
X48740Y21661D01*
X47992Y20680D01*
X47160Y19769D01*
X47067Y19685D01*
X45026D01*
Y41018D01*
X45268Y40866D01*
X46249Y40118D01*
X47160Y39286D01*
X47992Y38375D01*
X48740Y37394D01*
X49397Y36350D01*
X49959Y35251D01*
X50420Y34107D01*
X50777Y32926D01*
X51027Y31717D01*
X51168Y30492D01*
X51178Y30414D01*
X51202Y30339D01*
X51237Y30268D01*
X51282Y30204D01*
X51338Y30148D01*
X51401Y30101D01*
X51471Y30065D01*
X51545Y30040D01*
X51623Y30027D01*
X51702Y30026D01*
X51779Y30038D01*
X51855Y30062D01*
X51925Y30097D01*
X51989Y30143D01*
X52045Y30198D01*
X52092Y30261D01*
X52128Y30331D01*
X52153Y30405D01*
X52166Y30483D01*
X52165Y30562D01*
X52029Y31879D01*
X51760Y33176D01*
X51377Y34443D01*
X50882Y35672D01*
X50279Y36851D01*
X49574Y37972D01*
X48771Y39026D01*
X47877Y40003D01*
X46900Y40897D01*
X45846Y41700D01*
X45026Y42216D01*
Y351485D01*
X45846Y352001D01*
X46900Y352804D01*
X47877Y353698D01*
X48771Y354675D01*
X49574Y355728D01*
X50279Y356849D01*
X50882Y358029D01*
X51377Y359257D01*
X51760Y360525D01*
X52029Y361822D01*
X52180Y363138D01*
X52180Y363219D01*
X52167Y363299D01*
X52141Y363375D01*
X52104Y363447D01*
X52056Y363512D01*
X51998Y363569D01*
X51932Y363616D01*
X51860Y363652D01*
X51783Y363676D01*
X51703Y363688D01*
X51622Y363687D01*
X51542Y363674D01*
X51465Y363648D01*
X51394Y363611D01*
X51329Y363563D01*
X51272Y363505D01*
X51225Y363440D01*
X51189Y363367D01*
X51164Y363290D01*
X51154Y363210D01*
X51027Y361983D01*
X50777Y360775D01*
X50420Y359594D01*
X49959Y358450D01*
X49397Y357351D01*
X48740Y356307D01*
X47992Y355326D01*
X47160Y354415D01*
X46249Y353583D01*
X45268Y352835D01*
X45026Y352683D01*
Y374016D01*
G37*
G36*
X29763D02*X45026D01*
Y352683D01*
X44224Y352177D01*
X43125Y351616D01*
X41981Y351155D01*
X40800Y350798D01*
X39591Y350548D01*
X38366Y350407D01*
X38288Y350397D01*
X38213Y350373D01*
X38142Y350338D01*
X38078Y350292D01*
X38022Y350237D01*
X37975Y350174D01*
X37939Y350104D01*
X37914Y350029D01*
X37901Y349952D01*
X37900Y349873D01*
X37912Y349795D01*
X37936Y349720D01*
X37971Y349650D01*
X38017Y349586D01*
X38072Y349530D01*
X38135Y349483D01*
X38205Y349446D01*
X38279Y349422D01*
X38357Y349409D01*
X38436Y349409D01*
X39753Y349546D01*
X41050Y349815D01*
X42317Y350198D01*
X43546Y350693D01*
X44725Y351295D01*
X45026Y351485D01*
Y42216D01*
X44725Y42405D01*
X43546Y43008D01*
X42317Y43503D01*
X41050Y43886D01*
X39753Y44155D01*
X38437Y44306D01*
X38356Y44306D01*
X38276Y44293D01*
X38199Y44267D01*
X38128Y44230D01*
X38063Y44182D01*
X38006Y44124D01*
X37959Y44058D01*
X37923Y43986D01*
X37899Y43909D01*
X37887Y43829D01*
X37887Y43748D01*
X37901Y43668D01*
X37926Y43591D01*
X37964Y43520D01*
X38012Y43455D01*
X38069Y43398D01*
X38135Y43351D01*
X38208Y43315D01*
X38285Y43290D01*
X38365Y43280D01*
X39591Y43153D01*
X40800Y42903D01*
X41981Y42546D01*
X43125Y42085D01*
X44224Y41523D01*
X45026Y41018D01*
Y19685D01*
X29763D01*
Y41009D01*
X30579Y41523D01*
X31678Y42085D01*
X32822Y42546D01*
X34003Y42903D01*
X35212Y43153D01*
X36437Y43294D01*
X36515Y43304D01*
X36590Y43328D01*
X36661Y43363D01*
X36725Y43408D01*
X36781Y43464D01*
X36828Y43527D01*
X36864Y43597D01*
X36889Y43671D01*
X36902Y43749D01*
X36903Y43828D01*
X36891Y43905D01*
X36867Y43981D01*
X36832Y44051D01*
X36787Y44115D01*
X36731Y44171D01*
X36668Y44218D01*
X36598Y44254D01*
X36524Y44279D01*
X36446Y44292D01*
X36367Y44291D01*
X35051Y44155D01*
X33754Y43886D01*
X32486Y43503D01*
X31257Y43008D01*
X30078Y42405D01*
X29763Y42207D01*
Y351494D01*
X30078Y351295D01*
X31257Y350693D01*
X32486Y350198D01*
X33754Y349815D01*
X35051Y349546D01*
X36366Y349395D01*
X36447Y349395D01*
X36527Y349408D01*
X36604Y349434D01*
X36675Y349471D01*
X36740Y349519D01*
X36797Y349577D01*
X36844Y349643D01*
X36880Y349715D01*
X36905Y349792D01*
X36917Y349872D01*
X36916Y349953D01*
X36902Y350033D01*
X36877Y350110D01*
X36839Y350181D01*
X36791Y350246D01*
X36734Y350303D01*
X36668Y350350D01*
X36596Y350386D01*
X36518Y350410D01*
X36438Y350421D01*
X35212Y350548D01*
X34003Y350798D01*
X32822Y351155D01*
X31678Y351616D01*
X30579Y352177D01*
X29763Y352691D01*
Y374016D01*
G37*
G36*
X19685D02*X26347D01*
X26032Y373671D01*
X25229Y372618D01*
X24524Y371497D01*
X23921Y370318D01*
X23426Y369089D01*
X23043Y367821D01*
X22774Y366524D01*
X22623Y365208D01*
X22623Y365128D01*
X22636Y365048D01*
X22662Y364971D01*
X22699Y364899D01*
X22748Y364834D01*
X22805Y364778D01*
X22871Y364731D01*
X22943Y364695D01*
X23021Y364670D01*
X23101Y364658D01*
X23181Y364659D01*
X23261Y364672D01*
X23338Y364698D01*
X23410Y364735D01*
X23475Y364783D01*
X23531Y364841D01*
X23578Y364907D01*
X23614Y364979D01*
X23639Y365056D01*
X23649Y365137D01*
X23776Y366363D01*
X24026Y367571D01*
X24383Y368752D01*
X24844Y369897D01*
X25406Y370995D01*
X26063Y372040D01*
X26811Y373021D01*
X27644Y373931D01*
X27736Y374016D01*
X29763D01*
Y352691D01*
X29535Y352835D01*
X28554Y353583D01*
X27644Y354415D01*
X26811Y355326D01*
X26063Y356307D01*
X25406Y357351D01*
X24844Y358450D01*
X24383Y359594D01*
X24026Y360775D01*
X23776Y361983D01*
X23635Y363209D01*
X23625Y363287D01*
X23602Y363362D01*
X23566Y363432D01*
X23521Y363496D01*
X23466Y363553D01*
X23402Y363599D01*
X23332Y363636D01*
X23258Y363661D01*
X23180Y363674D01*
X23101Y363674D01*
X23024Y363663D01*
X22949Y363639D01*
X22878Y363604D01*
X22814Y363558D01*
X22758Y363503D01*
X22711Y363440D01*
X22675Y363370D01*
X22650Y363295D01*
X22637Y363218D01*
X22638Y363139D01*
X22774Y361822D01*
X23043Y360525D01*
X23426Y359257D01*
X23921Y358029D01*
X24524Y356849D01*
X25229Y355728D01*
X26032Y354675D01*
X26926Y353698D01*
X27903Y352804D01*
X28957Y352001D01*
X29763Y351494D01*
Y42207D01*
X28957Y41700D01*
X27903Y40897D01*
X26926Y40003D01*
X26032Y39026D01*
X25229Y37972D01*
X24524Y36851D01*
X23921Y35672D01*
X23426Y34443D01*
X23043Y33176D01*
X22774Y31879D01*
X22623Y30563D01*
X22623Y30482D01*
X22636Y30402D01*
X22662Y30325D01*
X22699Y30254D01*
X22748Y30189D01*
X22805Y30132D01*
X22871Y30085D01*
X22943Y30049D01*
X23021Y30025D01*
X23101Y30013D01*
X23181Y30013D01*
X23261Y30027D01*
X23338Y30052D01*
X23410Y30090D01*
X23475Y30138D01*
X23531Y30195D01*
X23578Y30261D01*
X23614Y30334D01*
X23639Y30411D01*
X23649Y30491D01*
X23776Y31717D01*
X24026Y32926D01*
X24383Y34107D01*
X24844Y35251D01*
X25406Y36350D01*
X26063Y37394D01*
X26811Y38375D01*
X27644Y39286D01*
X28554Y40118D01*
X29535Y40866D01*
X29763Y41009D01*
Y19685D01*
X27736D01*
X27644Y19769D01*
X26811Y20680D01*
X26063Y21661D01*
X25406Y22705D01*
X24844Y23804D01*
X24383Y24948D01*
X24026Y26129D01*
X23776Y27338D01*
X23635Y28563D01*
X23625Y28641D01*
X23602Y28716D01*
X23566Y28787D01*
X23521Y28851D01*
X23466Y28907D01*
X23402Y28954D01*
X23332Y28990D01*
X23258Y29015D01*
X23180Y29028D01*
X23101Y29029D01*
X23024Y29017D01*
X22949Y28993D01*
X22878Y28958D01*
X22814Y28913D01*
X22758Y28857D01*
X22711Y28794D01*
X22675Y28724D01*
X22650Y28650D01*
X22637Y28572D01*
X22638Y28493D01*
X22774Y27177D01*
X23043Y25880D01*
X23426Y24612D01*
X23921Y23383D01*
X24524Y22204D01*
X25229Y21083D01*
X26032Y20029D01*
X26347Y19685D01*
X19685D01*
Y374016D01*
G37*
G54D12*X334646Y29528D03*
Y364173D03*
X633071Y29528D03*
Y364173D03*
X37402Y29528D03*
Y364173D03*
G54D13*M02*
