G04 start of page 2 for group 0 idx 0 *
G04 Title: 26.002.00.01.01.pcb, top *
G04 Creator: pcb 4.1.2 *
G04 CreationDate: Tue Aug  7 21:16:31 2018 UTC *
G04 For: bert *
G04 Format: Gerber/RS-274X *
G04 PCB-Dimensions (mil): 2440.94 4527.56 *
G04 PCB-Coordinate-Origin: lower left *
%MOIN*%
%FSLAX25Y25*%
%LNGTL*%
%ADD29C,0.0670*%
%ADD28C,0.0200*%
%ADD27C,0.0420*%
%ADD26C,0.0460*%
%ADD25C,0.1100*%
%ADD24C,0.1457*%
%ADD23C,0.0400*%
%ADD22C,0.0350*%
%ADD21C,0.0750*%
%ADD20C,0.0600*%
%ADD19C,0.0900*%
%ADD18C,0.0500*%
%ADD17C,0.1260*%
%ADD16C,0.0720*%
%ADD15C,0.0660*%
%ADD14C,0.2760*%
%ADD13C,0.0650*%
%ADD12C,0.0250*%
%ADD11C,0.0001*%
G54D11*G36*
X184606Y413386D02*X204725D01*
Y39371D01*
X184606Y39371D01*
Y283893D01*
X187842Y283900D01*
X188071Y283955D01*
X188289Y284045D01*
X188491Y284169D01*
X188670Y284322D01*
X188824Y284501D01*
X188947Y284703D01*
X189037Y284921D01*
X189092Y285150D01*
X189106Y285386D01*
X189092Y291621D01*
X189037Y291851D01*
X188947Y292069D01*
X188824Y292270D01*
X188670Y292450D01*
X188491Y292603D01*
X188289Y292726D01*
X188071Y292817D01*
X187842Y292872D01*
X187606Y292886D01*
X184606Y292879D01*
Y413386D01*
G37*
G36*
X174599D02*X184606D01*
Y292879D01*
X181371Y292872D01*
X181141Y292817D01*
X180923Y292726D01*
X180722Y292603D01*
X180542Y292450D01*
X180389Y292270D01*
X180266Y292069D01*
X180175Y291851D01*
X180120Y291621D01*
X180106Y291386D01*
X180120Y285150D01*
X180175Y284921D01*
X180266Y284703D01*
X180389Y284501D01*
X180542Y284322D01*
X180722Y284169D01*
X180923Y284045D01*
X181141Y283955D01*
X181371Y283900D01*
X181606Y283886D01*
X184606Y283893D01*
Y39371D01*
X174599Y39371D01*
Y157924D01*
X174747Y158165D01*
X175078Y158965D01*
X175281Y159807D01*
X175331Y160670D01*
X175281Y161533D01*
X175078Y162375D01*
X174747Y163174D01*
X174599Y163415D01*
Y302573D01*
X174606Y302573D01*
X175312Y302628D01*
X176001Y302794D01*
X176656Y303065D01*
X177259Y303435D01*
X177798Y303895D01*
X178258Y304433D01*
X178628Y305037D01*
X178899Y305692D01*
X179065Y306380D01*
X179106Y307087D01*
X179065Y307793D01*
X178899Y308481D01*
X178628Y309136D01*
X178258Y309740D01*
X177798Y310278D01*
X177259Y310738D01*
X176656Y311109D01*
X176001Y311380D01*
X175312Y311545D01*
X174606Y311600D01*
X174599Y311600D01*
Y413386D01*
G37*
G36*
Y39371D02*X169823Y39371D01*
Y155153D01*
X169831Y155153D01*
X170695Y155221D01*
X171536Y155423D01*
X172336Y155754D01*
X173074Y156206D01*
X173733Y156769D01*
X174295Y157427D01*
X174599Y157924D01*
Y39371D01*
G37*
G36*
X169823Y413386D02*X174599D01*
Y311600D01*
X173900Y311545D01*
X173211Y311380D01*
X172557Y311109D01*
X171953Y310738D01*
X171415Y310278D01*
X170954Y309740D01*
X170584Y309136D01*
X170313Y308481D01*
X170148Y307793D01*
X170092Y307087D01*
X170148Y306380D01*
X170313Y305692D01*
X170584Y305037D01*
X170954Y304433D01*
X171415Y303895D01*
X171953Y303435D01*
X172557Y303065D01*
X173211Y302794D01*
X173900Y302628D01*
X174599Y302573D01*
Y163415D01*
X174295Y163912D01*
X173733Y164571D01*
X173074Y165133D01*
X172336Y165585D01*
X171536Y165917D01*
X170695Y166119D01*
X169831Y166187D01*
X169823Y166186D01*
Y413386D01*
G37*
G36*
X159601D02*X169823D01*
Y166186D01*
X168968Y166119D01*
X168127Y165917D01*
X167327Y165585D01*
X166589Y165133D01*
X165930Y164571D01*
X165368Y163912D01*
X164916Y163174D01*
X164585Y162375D01*
X164382Y161533D01*
X164315Y160670D01*
X164382Y159807D01*
X164585Y158965D01*
X164916Y158165D01*
X165368Y157427D01*
X165930Y156769D01*
X166589Y156206D01*
X167327Y155754D01*
X168127Y155423D01*
X168968Y155221D01*
X169823Y155153D01*
Y39371D01*
X159601Y39371D01*
Y325477D01*
X159607Y325476D01*
X160235Y325526D01*
X160847Y325673D01*
X161429Y325914D01*
X161965Y326243D01*
X162444Y326651D01*
X162853Y327130D01*
X163182Y327667D01*
X163423Y328249D01*
X163570Y328861D01*
X163607Y329489D01*
X163570Y330116D01*
X163423Y330728D01*
X163182Y331310D01*
X162853Y331847D01*
X162444Y332326D01*
X161965Y332735D01*
X161429Y333064D01*
X160847Y333305D01*
X160235Y333452D01*
X159607Y333501D01*
X159601Y333500D01*
Y340477D01*
X159607Y340476D01*
X160235Y340526D01*
X160847Y340673D01*
X161429Y340914D01*
X161965Y341243D01*
X162444Y341651D01*
X162853Y342130D01*
X163182Y342667D01*
X163423Y343249D01*
X163570Y343861D01*
X163607Y344489D01*
X163570Y345116D01*
X163423Y345728D01*
X163182Y346310D01*
X162853Y346847D01*
X162444Y347326D01*
X161965Y347735D01*
X161429Y348064D01*
X160847Y348305D01*
X160235Y348452D01*
X159607Y348501D01*
X159601Y348500D01*
Y355477D01*
X159607Y355476D01*
X160235Y355526D01*
X160847Y355673D01*
X161429Y355914D01*
X161965Y356243D01*
X162444Y356651D01*
X162853Y357130D01*
X163182Y357667D01*
X163423Y358249D01*
X163570Y358861D01*
X163607Y359489D01*
X163570Y360116D01*
X163423Y360728D01*
X163182Y361310D01*
X162853Y361847D01*
X162444Y362326D01*
X161965Y362735D01*
X161429Y363064D01*
X160847Y363305D01*
X160235Y363452D01*
X159607Y363501D01*
X159601Y363500D01*
Y413386D01*
G37*
G36*
Y39371D02*X153107Y39370D01*
Y44949D01*
X153138Y44966D01*
X153200Y45014D01*
X153254Y45071D01*
X153297Y45137D01*
X153484Y45492D01*
X153631Y45865D01*
X153743Y46250D01*
X153819Y46644D01*
X153856Y47044D01*
Y47445D01*
X153819Y47844D01*
X153743Y48238D01*
X153631Y48623D01*
X153484Y48996D01*
X153301Y49354D01*
X153257Y49419D01*
X153203Y49477D01*
X153140Y49526D01*
X153107Y49544D01*
Y101851D01*
X153911Y102344D01*
X154785Y103090D01*
X155531Y103964D01*
X156131Y104943D01*
X156571Y106005D01*
X156839Y107122D01*
X156907Y108268D01*
X156839Y109413D01*
X156571Y110530D01*
X156131Y111592D01*
X155531Y112572D01*
X154785Y113446D01*
X153911Y114192D01*
X153107Y114684D01*
Y153235D01*
X153733Y153769D01*
X154295Y154427D01*
X154747Y155165D01*
X155078Y155965D01*
X155281Y156807D01*
X155331Y157670D01*
X155281Y158533D01*
X155078Y159375D01*
X154747Y160174D01*
X154295Y160912D01*
X153733Y161571D01*
X153107Y162105D01*
Y334964D01*
X153171Y335018D01*
X153228Y335086D01*
X158728Y340586D01*
X158979Y340526D01*
X159601Y340477D01*
Y333500D01*
X158979Y333452D01*
X158367Y333305D01*
X157786Y333064D01*
X157249Y332735D01*
X156770Y332326D01*
X156361Y331847D01*
X156032Y331310D01*
X155791Y330728D01*
X155644Y330116D01*
X155595Y329489D01*
X155644Y328861D01*
X155791Y328249D01*
X156032Y327667D01*
X156361Y327130D01*
X156770Y326651D01*
X157249Y326243D01*
X157786Y325914D01*
X158367Y325673D01*
X158979Y325526D01*
X159601Y325477D01*
Y39371D01*
G37*
G36*
X153107Y413386D02*X159601D01*
Y363500D01*
X158979Y363452D01*
X158367Y363305D01*
X157786Y363064D01*
X157249Y362735D01*
X156770Y362326D01*
X156361Y361847D01*
X156032Y361310D01*
X155791Y360728D01*
X155644Y360116D01*
X155595Y359489D01*
X155644Y358861D01*
X155791Y358249D01*
X156032Y357667D01*
X156361Y357130D01*
X156770Y356651D01*
X157249Y356243D01*
X157786Y355914D01*
X158367Y355673D01*
X158979Y355526D01*
X159601Y355477D01*
Y348500D01*
X158979Y348452D01*
X158367Y348305D01*
X157786Y348064D01*
X157249Y347735D01*
X156770Y347326D01*
X156361Y346847D01*
X156032Y346310D01*
X155791Y345728D01*
X155644Y345116D01*
X155595Y344489D01*
X155644Y343865D01*
X153107Y341329D01*
Y403216D01*
X153138Y403233D01*
X153200Y403282D01*
X153254Y403339D01*
X153297Y403405D01*
X153484Y403760D01*
X153631Y404133D01*
X153743Y404518D01*
X153819Y404912D01*
X153856Y405311D01*
Y405712D01*
X153819Y406112D01*
X153743Y406506D01*
X153631Y406891D01*
X153484Y407264D01*
X153301Y407621D01*
X153257Y407687D01*
X153203Y407745D01*
X153140Y407793D01*
X153107Y407811D01*
Y413386D01*
G37*
G36*
Y162105D02*X153074Y162133D01*
X152336Y162585D01*
X151536Y162917D01*
X150695Y163119D01*
X149831Y163187D01*
X149608Y163169D01*
Y334364D01*
X151487D01*
X151575Y334357D01*
X151928Y334385D01*
X151928Y334385D01*
X152272Y334468D01*
X152599Y334603D01*
X152901Y334788D01*
X153107Y334964D01*
Y162105D01*
G37*
G36*
Y114684D02*X152931Y114792D01*
X151870Y115232D01*
X150753Y115500D01*
X149608Y115590D01*
Y152170D01*
X149831Y152153D01*
X150695Y152221D01*
X151536Y152423D01*
X152336Y152754D01*
X153074Y153206D01*
X153107Y153235D01*
Y114684D01*
G37*
G36*
Y39370D02*X149608Y39370D01*
Y42994D01*
X149807D01*
X150206Y43032D01*
X150600Y43107D01*
X150985Y43219D01*
X151358Y43367D01*
X151716Y43549D01*
X151781Y43593D01*
X151839Y43648D01*
X151888Y43710D01*
X151926Y43780D01*
X151953Y43854D01*
X151968Y43932D01*
X151970Y44011D01*
X151960Y44090D01*
X151938Y44166D01*
X151904Y44238D01*
X151860Y44303D01*
X151805Y44361D01*
X151743Y44410D01*
X151673Y44448D01*
X151599Y44475D01*
X151521Y44490D01*
X151441Y44492D01*
X151363Y44482D01*
X151287Y44460D01*
X151216Y44425D01*
X150945Y44282D01*
X150660Y44170D01*
X150366Y44084D01*
X150065Y44027D01*
X149760Y43998D01*
X149608D01*
Y50490D01*
X149760D01*
X150065Y50462D01*
X150366Y50404D01*
X150660Y50319D01*
X150945Y50206D01*
X151218Y50067D01*
X151288Y50032D01*
X151364Y50010D01*
X151442Y50000D01*
X151520Y50002D01*
X151598Y50017D01*
X151672Y50044D01*
X151741Y50081D01*
X151803Y50130D01*
X151857Y50187D01*
X151901Y50252D01*
X151935Y50323D01*
X151957Y50399D01*
X151966Y50477D01*
X151964Y50556D01*
X151949Y50633D01*
X151923Y50707D01*
X151885Y50776D01*
X151837Y50838D01*
X151779Y50892D01*
X151713Y50935D01*
X151358Y51121D01*
X150985Y51269D01*
X150600Y51381D01*
X150206Y51456D01*
X149807Y51494D01*
X149608D01*
Y100945D01*
X150753Y101035D01*
X151870Y101304D01*
X152931Y101743D01*
X153107Y101851D01*
Y49544D01*
X153071Y49564D01*
X152996Y49591D01*
X152918Y49605D01*
X152839Y49608D01*
X152760Y49598D01*
X152684Y49576D01*
X152613Y49542D01*
X152547Y49497D01*
X152489Y49443D01*
X152441Y49380D01*
X152402Y49311D01*
X152376Y49236D01*
X152361Y49159D01*
X152358Y49079D01*
X152368Y49001D01*
X152390Y48925D01*
X152426Y48854D01*
X152568Y48582D01*
X152681Y48298D01*
X152766Y48003D01*
X152824Y47702D01*
X152853Y47397D01*
Y47091D01*
X152824Y46786D01*
X152766Y46485D01*
X152681Y46191D01*
X152568Y45906D01*
X152429Y45633D01*
X152394Y45562D01*
X152372Y45487D01*
X152362Y45409D01*
X152364Y45330D01*
X152379Y45253D01*
X152406Y45179D01*
X152444Y45110D01*
X152492Y45048D01*
X152549Y44994D01*
X152614Y44949D01*
X152686Y44916D01*
X152761Y44894D01*
X152839Y44884D01*
X152918Y44886D01*
X152995Y44901D01*
X153069Y44928D01*
X153107Y44949D01*
Y39370D01*
G37*
G36*
X149608Y413386D02*X153107D01*
Y407811D01*
X153071Y407831D01*
X152996Y407858D01*
X152918Y407873D01*
X152839Y407876D01*
X152760Y407866D01*
X152684Y407843D01*
X152613Y407810D01*
X152547Y407765D01*
X152489Y407711D01*
X152441Y407648D01*
X152402Y407579D01*
X152376Y407504D01*
X152361Y407426D01*
X152358Y407347D01*
X152368Y407268D01*
X152390Y407192D01*
X152426Y407121D01*
X152568Y406850D01*
X152681Y406565D01*
X152766Y406271D01*
X152824Y405970D01*
X152853Y405665D01*
Y405359D01*
X152824Y405054D01*
X152766Y404753D01*
X152681Y404458D01*
X152568Y404173D01*
X152429Y403901D01*
X152394Y403830D01*
X152372Y403755D01*
X152362Y403676D01*
X152364Y403598D01*
X152379Y403520D01*
X152406Y403446D01*
X152444Y403377D01*
X152492Y403315D01*
X152549Y403261D01*
X152614Y403217D01*
X152686Y403184D01*
X152761Y403162D01*
X152839Y403152D01*
X152918Y403154D01*
X152995Y403169D01*
X153069Y403195D01*
X153107Y403216D01*
Y341329D01*
X150643Y338864D01*
X149608D01*
Y401262D01*
X149807D01*
X150206Y401300D01*
X150600Y401375D01*
X150985Y401487D01*
X151358Y401635D01*
X151716Y401817D01*
X151781Y401861D01*
X151839Y401915D01*
X151888Y401978D01*
X151926Y402047D01*
X151953Y402122D01*
X151968Y402200D01*
X151970Y402279D01*
X151960Y402358D01*
X151938Y402434D01*
X151904Y402506D01*
X151860Y402571D01*
X151805Y402629D01*
X151743Y402677D01*
X151673Y402716D01*
X151599Y402742D01*
X151521Y402757D01*
X151441Y402760D01*
X151363Y402750D01*
X151287Y402728D01*
X151216Y402692D01*
X150945Y402550D01*
X150660Y402437D01*
X150366Y402352D01*
X150065Y402294D01*
X149760Y402265D01*
X149608D01*
Y408758D01*
X149760D01*
X150065Y408729D01*
X150366Y408672D01*
X150660Y408586D01*
X150945Y408473D01*
X151218Y408334D01*
X151288Y408299D01*
X151364Y408277D01*
X151442Y408268D01*
X151520Y408270D01*
X151598Y408285D01*
X151672Y408311D01*
X151741Y408349D01*
X151803Y408397D01*
X151857Y408455D01*
X151901Y408520D01*
X151935Y408591D01*
X151957Y408667D01*
X151966Y408745D01*
X151964Y408823D01*
X151949Y408901D01*
X151923Y408975D01*
X151885Y409044D01*
X151837Y409106D01*
X151779Y409160D01*
X151713Y409203D01*
X151358Y409389D01*
X150985Y409537D01*
X150600Y409649D01*
X150206Y409724D01*
X149807Y409762D01*
X149608D01*
Y413386D01*
G37*
G36*
X146105Y153619D02*X146589Y153206D01*
X147327Y152754D01*
X148127Y152423D01*
X148968Y152221D01*
X149608Y152170D01*
Y115590D01*
X149607Y115590D01*
X148462Y115500D01*
X147344Y115232D01*
X146283Y114792D01*
X146105Y114683D01*
Y153619D01*
G37*
G36*
Y334364D02*X149608D01*
Y163169D01*
X148968Y163119D01*
X148127Y162917D01*
X147327Y162585D01*
X146589Y162133D01*
X146105Y161720D01*
Y334364D01*
G37*
G36*
X149608Y39370D02*X146105Y39370D01*
Y44945D01*
X146142Y44924D01*
X146216Y44898D01*
X146294Y44883D01*
X146374Y44880D01*
X146452Y44890D01*
X146528Y44912D01*
X146600Y44946D01*
X146666Y44991D01*
X146723Y45045D01*
X146772Y45108D01*
X146810Y45177D01*
X146837Y45252D01*
X146852Y45330D01*
X146854Y45409D01*
X146844Y45488D01*
X146822Y45564D01*
X146787Y45635D01*
X146645Y45906D01*
X146532Y46191D01*
X146446Y46485D01*
X146389Y46786D01*
X146360Y47091D01*
Y47397D01*
X146389Y47702D01*
X146446Y48003D01*
X146532Y48298D01*
X146645Y48582D01*
X146784Y48855D01*
X146819Y48926D01*
X146841Y49001D01*
X146851Y49079D01*
X146848Y49158D01*
X146833Y49235D01*
X146807Y49309D01*
X146769Y49378D01*
X146721Y49441D01*
X146663Y49495D01*
X146598Y49539D01*
X146527Y49572D01*
X146452Y49594D01*
X146373Y49604D01*
X146295Y49602D01*
X146217Y49587D01*
X146143Y49560D01*
X146105Y49540D01*
Y101852D01*
X146283Y101743D01*
X147344Y101304D01*
X148462Y101035D01*
X149607Y100945D01*
X149608Y100945D01*
Y51494D01*
X149406D01*
X149006Y51456D01*
X148612Y51381D01*
X148227Y51269D01*
X147854Y51121D01*
X147497Y50939D01*
X147431Y50895D01*
X147373Y50841D01*
X147325Y50778D01*
X147287Y50708D01*
X147260Y50634D01*
X147245Y50556D01*
X147243Y50477D01*
X147252Y50398D01*
X147275Y50322D01*
X147308Y50250D01*
X147353Y50185D01*
X147407Y50127D01*
X147470Y50078D01*
X147539Y50040D01*
X147614Y50013D01*
X147692Y49999D01*
X147771Y49996D01*
X147850Y50006D01*
X147926Y50028D01*
X147997Y50063D01*
X148268Y50206D01*
X148553Y50319D01*
X148847Y50404D01*
X149148Y50462D01*
X149453Y50490D01*
X149608D01*
Y43998D01*
X149453D01*
X149148Y44027D01*
X148847Y44084D01*
X148553Y44170D01*
X148268Y44282D01*
X147995Y44422D01*
X147925Y44457D01*
X147849Y44478D01*
X147771Y44488D01*
X147692Y44486D01*
X147615Y44471D01*
X147541Y44445D01*
X147472Y44407D01*
X147410Y44358D01*
X147356Y44301D01*
X147312Y44236D01*
X147278Y44165D01*
X147256Y44089D01*
X147246Y44011D01*
X147249Y43933D01*
X147263Y43855D01*
X147290Y43781D01*
X147328Y43712D01*
X147376Y43650D01*
X147433Y43596D01*
X147499Y43553D01*
X147854Y43367D01*
X148227Y43219D01*
X148612Y43107D01*
X149006Y43032D01*
X149406Y42994D01*
X149608D01*
Y39370D01*
G37*
G36*
X146105Y39370D02*X139601Y39370D01*
Y325477D01*
X139607Y325476D01*
X140235Y325526D01*
X140847Y325673D01*
X141429Y325914D01*
X141965Y326243D01*
X142444Y326651D01*
X142853Y327130D01*
X143182Y327667D01*
X143423Y328249D01*
X143570Y328861D01*
X143607Y329489D01*
X143570Y330116D01*
X143423Y330728D01*
X143182Y331310D01*
X142853Y331847D01*
X142444Y332326D01*
X141965Y332735D01*
X141429Y333064D01*
X140847Y333305D01*
X140235Y333452D01*
X139607Y333501D01*
X139601Y333500D01*
Y334364D01*
X146105D01*
Y161720D01*
X145930Y161571D01*
X145368Y160912D01*
X144916Y160174D01*
X144585Y159375D01*
X144382Y158533D01*
X144315Y157670D01*
X144382Y156807D01*
X144585Y155965D01*
X144916Y155165D01*
X145368Y154427D01*
X145930Y153769D01*
X146105Y153619D01*
Y114683D01*
X145303Y114192D01*
X144429Y113446D01*
X143683Y112572D01*
X143083Y111592D01*
X142643Y110530D01*
X142375Y109413D01*
X142285Y108268D01*
X142375Y107122D01*
X142643Y106005D01*
X143083Y104943D01*
X143683Y103964D01*
X144429Y103090D01*
X145303Y102344D01*
X146105Y101852D01*
Y49540D01*
X146074Y49523D01*
X146012Y49474D01*
X145958Y49417D01*
X145915Y49351D01*
X145729Y48996D01*
X145581Y48623D01*
X145469Y48238D01*
X145394Y47844D01*
X145356Y47445D01*
Y47044D01*
X145394Y46644D01*
X145469Y46250D01*
X145581Y45865D01*
X145729Y45492D01*
X145911Y45135D01*
X145955Y45069D01*
X146010Y45011D01*
X146072Y44963D01*
X146105Y44945D01*
Y39370D01*
G37*
G36*
X139601Y39370D02*X134412Y39370D01*
Y157626D01*
X134416Y157631D01*
X134675Y158053D01*
X134891Y158499D01*
X135066Y158963D01*
X135198Y159441D01*
X135287Y159928D01*
X135331Y160422D01*
Y160918D01*
X135287Y161411D01*
X135198Y161899D01*
X135066Y162377D01*
X134891Y162840D01*
X134675Y163287D01*
X134420Y163712D01*
X134412Y163722D01*
Y334364D01*
X139601D01*
Y333500D01*
X138979Y333452D01*
X138367Y333305D01*
X137786Y333064D01*
X137249Y332735D01*
X136770Y332326D01*
X136361Y331847D01*
X136032Y331310D01*
X135791Y330728D01*
X135644Y330116D01*
X135595Y329489D01*
X135644Y328861D01*
X135791Y328249D01*
X136032Y327667D01*
X136361Y327130D01*
X136770Y326651D01*
X137249Y326243D01*
X137786Y325914D01*
X138367Y325673D01*
X138979Y325526D01*
X139601Y325477D01*
Y39370D01*
G37*
G36*
X134412Y39370D02*X129834Y39370D01*
Y155170D01*
X130079D01*
X130573Y155214D01*
X131061Y155303D01*
X131538Y155435D01*
X132002Y155610D01*
X132448Y155826D01*
X132873Y156081D01*
X132936Y156129D01*
X132990Y156187D01*
X133035Y156253D01*
X133068Y156325D01*
X133090Y156402D01*
X133100Y156481D01*
X133097Y156560D01*
X133082Y156638D01*
X133055Y156712D01*
X133016Y156782D01*
X132967Y156844D01*
X132909Y156899D01*
X132843Y156943D01*
X132771Y156976D01*
X132695Y156998D01*
X132616Y157008D01*
X132536Y157005D01*
X132459Y156990D01*
X132384Y156963D01*
X132315Y156923D01*
X131970Y156711D01*
X131606Y156534D01*
X131227Y156391D01*
X130836Y156283D01*
X130438Y156211D01*
X130034Y156174D01*
X129834D01*
Y165165D01*
X130034D01*
X130438Y165129D01*
X130836Y165056D01*
X131227Y164948D01*
X131606Y164805D01*
X131970Y164629D01*
X132318Y164420D01*
X132386Y164381D01*
X132460Y164354D01*
X132537Y164339D01*
X132616Y164336D01*
X132694Y164346D01*
X132769Y164367D01*
X132841Y164400D01*
X132906Y164444D01*
X132964Y164498D01*
X133012Y164560D01*
X133050Y164629D01*
X133077Y164703D01*
X133092Y164780D01*
X133095Y164859D01*
X133086Y164937D01*
X133064Y165012D01*
X133031Y165084D01*
X132987Y165149D01*
X132933Y165207D01*
X132870Y165254D01*
X132448Y165514D01*
X132002Y165729D01*
X131538Y165904D01*
X131061Y166036D01*
X130573Y166125D01*
X130079Y166170D01*
X129834D01*
Y326186D01*
X130311Y326478D01*
X130790Y326887D01*
X131199Y327366D01*
X131528Y327903D01*
X131769Y328485D01*
X131916Y329097D01*
X131953Y329724D01*
X131916Y330352D01*
X131769Y330964D01*
X131528Y331546D01*
X131199Y332083D01*
X130790Y332562D01*
X130311Y332970D01*
X129834Y333263D01*
Y334364D01*
X134412D01*
Y163722D01*
X134372Y163775D01*
X134314Y163829D01*
X134248Y163873D01*
X134176Y163907D01*
X134100Y163928D01*
X134021Y163938D01*
X133941Y163935D01*
X133863Y163920D01*
X133789Y163893D01*
X133719Y163854D01*
X133657Y163805D01*
X133603Y163747D01*
X133558Y163681D01*
X133525Y163609D01*
X133503Y163533D01*
X133493Y163454D01*
X133496Y163375D01*
X133511Y163297D01*
X133539Y163222D01*
X133578Y163154D01*
X133791Y162809D01*
X133967Y162444D01*
X134110Y162065D01*
X134218Y161674D01*
X134290Y161276D01*
X134327Y160872D01*
Y160467D01*
X134290Y160064D01*
X134218Y159665D01*
X134110Y159275D01*
X133967Y158895D01*
X133791Y158531D01*
X133582Y158183D01*
X133543Y158115D01*
X133516Y158041D01*
X133501Y157964D01*
X133498Y157886D01*
X133507Y157807D01*
X133529Y157732D01*
X133562Y157660D01*
X133606Y157595D01*
X133660Y157538D01*
X133722Y157489D01*
X133791Y157451D01*
X133865Y157424D01*
X133942Y157409D01*
X134020Y157406D01*
X134099Y157415D01*
X134174Y157437D01*
X134246Y157470D01*
X134311Y157514D01*
X134368Y157568D01*
X134412Y157626D01*
Y39370D01*
G37*
G36*
X129834Y333263D02*X129774Y333299D01*
X129193Y333540D01*
X128580Y333687D01*
X127953Y333737D01*
X127325Y333687D01*
X126713Y333540D01*
X126131Y333299D01*
X125594Y332970D01*
X125116Y332562D01*
X124707Y332083D01*
X124378Y331546D01*
X124137Y330964D01*
X123990Y330352D01*
X123940Y329724D01*
X123990Y329097D01*
X124019Y328973D01*
X114225Y319179D01*
X110224D01*
Y334364D01*
X129834D01*
Y333263D01*
G37*
G36*
Y39370D02*X125251Y39370D01*
Y157617D01*
X125291Y157565D01*
X125349Y157511D01*
X125415Y157466D01*
X125487Y157433D01*
X125563Y157411D01*
X125642Y157401D01*
X125722Y157404D01*
X125800Y157419D01*
X125874Y157447D01*
X125944Y157485D01*
X126006Y157534D01*
X126060Y157592D01*
X126105Y157658D01*
X126138Y157730D01*
X126160Y157806D01*
X126170Y157885D01*
X126167Y157965D01*
X126152Y158043D01*
X126124Y158117D01*
X126085Y158186D01*
X125872Y158531D01*
X125696Y158895D01*
X125553Y159275D01*
X125445Y159665D01*
X125372Y160064D01*
X125336Y160467D01*
Y160872D01*
X125372Y161276D01*
X125445Y161674D01*
X125553Y162065D01*
X125696Y162444D01*
X125872Y162809D01*
X126081Y163156D01*
X126120Y163224D01*
X126147Y163298D01*
X126162Y163375D01*
X126165Y163454D01*
X126156Y163532D01*
X126134Y163608D01*
X126101Y163679D01*
X126057Y163744D01*
X126003Y163802D01*
X125941Y163850D01*
X125872Y163889D01*
X125798Y163916D01*
X125721Y163931D01*
X125643Y163933D01*
X125564Y163924D01*
X125489Y163902D01*
X125417Y163869D01*
X125352Y163825D01*
X125295Y163771D01*
X125251Y163713D01*
Y302595D01*
X127842Y302601D01*
X128071Y302656D01*
X128289Y302746D01*
X128491Y302869D01*
X128670Y303023D01*
X128824Y303202D01*
X128947Y303404D01*
X129037Y303622D01*
X129092Y303851D01*
X129106Y304087D01*
X129092Y310322D01*
X129037Y310552D01*
X128947Y310770D01*
X128824Y310971D01*
X128670Y311151D01*
X128491Y311304D01*
X128289Y311427D01*
X128071Y311518D01*
X127842Y311573D01*
X127606Y311587D01*
X125251Y311581D01*
Y323840D01*
X127201Y325791D01*
X127325Y325761D01*
X127953Y325712D01*
X128580Y325761D01*
X129193Y325908D01*
X129774Y326149D01*
X129834Y326186D01*
Y166170D01*
X129584D01*
X129090Y166125D01*
X128602Y166036D01*
X128125Y165904D01*
X127661Y165729D01*
X127215Y165514D01*
X126789Y165259D01*
X126727Y165210D01*
X126673Y165152D01*
X126628Y165086D01*
X126595Y165014D01*
X126573Y164938D01*
X126563Y164859D01*
X126566Y164779D01*
X126581Y164702D01*
X126608Y164627D01*
X126647Y164558D01*
X126696Y164495D01*
X126754Y164441D01*
X126820Y164396D01*
X126892Y164363D01*
X126968Y164341D01*
X127047Y164331D01*
X127126Y164334D01*
X127204Y164350D01*
X127279Y164377D01*
X127348Y164417D01*
X127693Y164629D01*
X128057Y164805D01*
X128436Y164948D01*
X128827Y165056D01*
X129225Y165129D01*
X129629Y165165D01*
X129834D01*
Y156174D01*
X129629D01*
X129225Y156211D01*
X128827Y156283D01*
X128436Y156391D01*
X128057Y156534D01*
X127693Y156711D01*
X127345Y156919D01*
X127277Y156958D01*
X127203Y156985D01*
X127126Y157000D01*
X127047Y157003D01*
X126969Y156994D01*
X126894Y156972D01*
X126822Y156939D01*
X126757Y156895D01*
X126699Y156841D01*
X126651Y156779D01*
X126613Y156711D01*
X126586Y156637D01*
X126571Y156559D01*
X126568Y156481D01*
X126577Y156403D01*
X126599Y156327D01*
X126632Y156256D01*
X126676Y156190D01*
X126730Y156133D01*
X126793Y156085D01*
X127215Y155826D01*
X127661Y155610D01*
X128125Y155435D01*
X128602Y155303D01*
X129090Y155214D01*
X129584Y155170D01*
X129834D01*
Y39370D01*
G37*
G36*
X125251Y39370D02*X110224Y39370D01*
Y56653D01*
X110237Y56652D01*
X111537Y56754D01*
X112805Y57058D01*
X114009Y57557D01*
X115121Y58238D01*
X116112Y59085D01*
X116959Y60077D01*
X117640Y61188D01*
X118139Y62393D01*
X118444Y63661D01*
X118521Y64961D01*
X118444Y66260D01*
X118139Y67528D01*
X117640Y68733D01*
X116959Y69845D01*
X116112Y70836D01*
X115121Y71683D01*
X114009Y72364D01*
X112805Y72863D01*
X111537Y73167D01*
X110237Y73270D01*
X110224Y73269D01*
Y287362D01*
X110313Y286991D01*
X110584Y286337D01*
X110954Y285733D01*
X111415Y285194D01*
X111953Y284734D01*
X112557Y284364D01*
X113211Y284093D01*
X113900Y283928D01*
X114606Y283872D01*
X115312Y283928D01*
X116001Y284093D01*
X116656Y284364D01*
X117259Y284734D01*
X117798Y285194D01*
X118258Y285733D01*
X118628Y286337D01*
X118899Y286991D01*
X119065Y287680D01*
X119106Y288386D01*
X119065Y289092D01*
X118899Y289781D01*
X118628Y290435D01*
X118258Y291039D01*
X117798Y291578D01*
X117259Y292038D01*
X116656Y292408D01*
X116001Y292679D01*
X115312Y292844D01*
X114606Y292900D01*
X113900Y292844D01*
X113211Y292679D01*
X112557Y292408D01*
X111953Y292038D01*
X111415Y291578D01*
X110954Y291039D01*
X110584Y290435D01*
X110313Y289781D01*
X110224Y289410D01*
Y314679D01*
X115069D01*
X115157Y314672D01*
X115510Y314700D01*
X115511Y314700D01*
X115855Y314783D01*
X116182Y314918D01*
X116484Y315103D01*
X116753Y315333D01*
X116811Y315401D01*
X125251Y323840D01*
Y311581D01*
X121371Y311573D01*
X121141Y311518D01*
X120923Y311427D01*
X120722Y311304D01*
X120542Y311151D01*
X120389Y310971D01*
X120266Y310770D01*
X120175Y310552D01*
X120120Y310322D01*
X120106Y310087D01*
X120120Y303851D01*
X120175Y303622D01*
X120266Y303404D01*
X120389Y303202D01*
X120542Y303023D01*
X120722Y302869D01*
X120923Y302746D01*
X121141Y302656D01*
X121371Y302601D01*
X121606Y302587D01*
X125251Y302595D01*
Y163713D01*
X125247Y163709D01*
X124988Y163287D01*
X124772Y162840D01*
X124597Y162377D01*
X124465Y161899D01*
X124376Y161411D01*
X124332Y160918D01*
Y160422D01*
X124376Y159928D01*
X124465Y159441D01*
X124597Y158963D01*
X124772Y158499D01*
X124988Y158053D01*
X125243Y157628D01*
X125251Y157617D01*
Y39370D01*
G37*
G36*
X110224Y319179D02*X101883D01*
Y334364D01*
X110224D01*
Y319179D01*
G37*
G36*
Y39370D02*X101883Y39370D01*
Y121827D01*
X107066Y121841D01*
X107296Y121896D01*
X107514Y121986D01*
X107715Y122110D01*
X107895Y122263D01*
X108048Y122442D01*
X108171Y122644D01*
X108262Y122862D01*
X108317Y123091D01*
X108331Y123327D01*
X108317Y128562D01*
X108262Y128792D01*
X108171Y129010D01*
X108048Y129211D01*
X107895Y129391D01*
X107715Y129544D01*
X107514Y129667D01*
X107296Y129758D01*
X107066Y129813D01*
X106831Y129827D01*
X101883Y129814D01*
Y142657D01*
X101972Y142581D01*
X102509Y142252D01*
X103091Y142011D01*
X103703Y141864D01*
X104331Y141814D01*
X104958Y141864D01*
X105571Y142011D01*
X106152Y142252D01*
X106689Y142581D01*
X107168Y142990D01*
X107577Y143468D01*
X107906Y144005D01*
X108147Y144587D01*
X108294Y145199D01*
X108331Y145827D01*
X108294Y146454D01*
X108147Y147067D01*
X107906Y147648D01*
X107577Y148185D01*
X107168Y148664D01*
X106689Y149073D01*
X106152Y149402D01*
X105571Y149643D01*
X104958Y149790D01*
X104331Y149839D01*
X103703Y149790D01*
X103091Y149643D01*
X102509Y149402D01*
X101972Y149073D01*
X101883Y148997D01*
Y314679D01*
X110224D01*
Y289410D01*
X110148Y289092D01*
X110092Y288386D01*
X110148Y287680D01*
X110224Y287362D01*
Y73269D01*
X108937Y73167D01*
X107669Y72863D01*
X106465Y72364D01*
X105353Y71683D01*
X104362Y70836D01*
X103515Y69845D01*
X102834Y68733D01*
X102335Y67528D01*
X102030Y66260D01*
X101928Y64961D01*
X102030Y63661D01*
X102335Y62393D01*
X102834Y61188D01*
X103515Y60077D01*
X104362Y59085D01*
X105353Y58238D01*
X106465Y57557D01*
X107669Y57058D01*
X108937Y56754D01*
X110224Y56653D01*
Y39370D01*
G37*
G36*
X146105Y413386D02*X149608D01*
Y409762D01*
X149406D01*
X149006Y409724D01*
X148612Y409649D01*
X148227Y409537D01*
X147854Y409389D01*
X147497Y409207D01*
X147431Y409163D01*
X147373Y409108D01*
X147325Y409046D01*
X147287Y408976D01*
X147260Y408902D01*
X147245Y408824D01*
X147243Y408745D01*
X147252Y408666D01*
X147275Y408590D01*
X147308Y408518D01*
X147353Y408452D01*
X147407Y408395D01*
X147470Y408346D01*
X147539Y408308D01*
X147614Y408281D01*
X147692Y408266D01*
X147771Y408264D01*
X147850Y408274D01*
X147926Y408296D01*
X147997Y408331D01*
X148268Y408473D01*
X148553Y408586D01*
X148847Y408672D01*
X149148Y408729D01*
X149453Y408758D01*
X149608D01*
Y402265D01*
X149453D01*
X149148Y402294D01*
X148847Y402352D01*
X148553Y402437D01*
X148268Y402550D01*
X147995Y402689D01*
X147925Y402724D01*
X147849Y402746D01*
X147771Y402756D01*
X147692Y402754D01*
X147615Y402739D01*
X147541Y402712D01*
X147472Y402674D01*
X147410Y402626D01*
X147356Y402569D01*
X147312Y402504D01*
X147278Y402433D01*
X147256Y402357D01*
X147246Y402279D01*
X147249Y402200D01*
X147263Y402123D01*
X147290Y402049D01*
X147328Y401980D01*
X147376Y401918D01*
X147433Y401864D01*
X147499Y401821D01*
X147854Y401635D01*
X148227Y401487D01*
X148612Y401375D01*
X149006Y401300D01*
X149406Y401262D01*
X149608D01*
Y338864D01*
X146105D01*
Y403212D01*
X146142Y403192D01*
X146216Y403165D01*
X146294Y403151D01*
X146374Y403148D01*
X146452Y403158D01*
X146528Y403180D01*
X146600Y403214D01*
X146666Y403259D01*
X146723Y403313D01*
X146772Y403375D01*
X146810Y403445D01*
X146837Y403520D01*
X146852Y403597D01*
X146854Y403677D01*
X146844Y403755D01*
X146822Y403831D01*
X146787Y403902D01*
X146645Y404173D01*
X146532Y404458D01*
X146446Y404753D01*
X146389Y405054D01*
X146360Y405359D01*
Y405665D01*
X146389Y405970D01*
X146446Y406271D01*
X146532Y406565D01*
X146645Y406850D01*
X146784Y407123D01*
X146819Y407194D01*
X146841Y407269D01*
X146851Y407347D01*
X146848Y407426D01*
X146833Y407503D01*
X146807Y407577D01*
X146769Y407646D01*
X146721Y407708D01*
X146663Y407762D01*
X146598Y407807D01*
X146527Y407840D01*
X146452Y407862D01*
X146373Y407872D01*
X146295Y407870D01*
X146217Y407855D01*
X146143Y407828D01*
X146105Y407807D01*
Y413386D01*
G37*
G36*
X139607D02*X146105D01*
Y407807D01*
X146074Y407790D01*
X146012Y407742D01*
X145958Y407685D01*
X145915Y407619D01*
X145729Y407264D01*
X145581Y406891D01*
X145469Y406506D01*
X145394Y406112D01*
X145356Y405712D01*
Y405311D01*
X145394Y404912D01*
X145469Y404518D01*
X145581Y404133D01*
X145729Y403760D01*
X145911Y403402D01*
X145955Y403337D01*
X146010Y403279D01*
X146072Y403230D01*
X146105Y403212D01*
Y338864D01*
X139607D01*
Y340493D01*
X142764Y340498D01*
X142917Y340535D01*
X143062Y340595D01*
X143197Y340677D01*
X143316Y340779D01*
X143419Y340899D01*
X143501Y341033D01*
X143561Y341179D01*
X143598Y341332D01*
X143607Y341489D01*
X143598Y347646D01*
X143561Y347799D01*
X143501Y347944D01*
X143419Y348078D01*
X143316Y348198D01*
X143197Y348300D01*
X143062Y348382D01*
X142917Y348443D01*
X142764Y348479D01*
X142607Y348489D01*
X139607Y348484D01*
Y355476D01*
X140235Y355526D01*
X140847Y355673D01*
X141429Y355914D01*
X141965Y356243D01*
X142444Y356651D01*
X142853Y357130D01*
X143182Y357667D01*
X143423Y358249D01*
X143570Y358861D01*
X143607Y359489D01*
X143570Y360116D01*
X143423Y360728D01*
X143182Y361310D01*
X142853Y361847D01*
X142444Y362326D01*
X141965Y362735D01*
X141429Y363064D01*
X140847Y363305D01*
X140235Y363452D01*
X139607Y363501D01*
Y413386D01*
G37*
G36*
Y338864D02*X119487D01*
Y341237D01*
X119565Y341243D01*
X119642Y341262D01*
X119715Y341292D01*
X119782Y341333D01*
X119842Y341384D01*
X119893Y341444D01*
X119934Y341511D01*
X119964Y341584D01*
X119982Y341660D01*
X119987Y341739D01*
Y347239D01*
X119982Y347317D01*
X119964Y347394D01*
X119934Y347466D01*
X119893Y347533D01*
X119842Y347593D01*
X119782Y347644D01*
X119715Y347685D01*
X119642Y347716D01*
X119565Y347734D01*
X119487Y347740D01*
Y357002D01*
X136471D01*
X136770Y356651D01*
X137249Y356243D01*
X137786Y355914D01*
X138367Y355673D01*
X138979Y355526D01*
X139607Y355476D01*
Y348484D01*
X136450Y348479D01*
X136297Y348443D01*
X136152Y348382D01*
X136017Y348300D01*
X135898Y348198D01*
X135796Y348078D01*
X135713Y347944D01*
X135653Y347799D01*
X135616Y347646D01*
X135607Y347489D01*
X135616Y341332D01*
X135653Y341179D01*
X135713Y341033D01*
X135796Y340899D01*
X135898Y340779D01*
X136017Y340677D01*
X136152Y340595D01*
X136297Y340535D01*
X136450Y340498D01*
X136607Y340489D01*
X139607Y340493D01*
Y338864D01*
G37*
G36*
X119487D02*X115237D01*
Y339739D01*
X117987D01*
X118065Y339743D01*
X118142Y339762D01*
X118215Y339792D01*
X118282Y339833D01*
X118342Y339884D01*
X118393Y339944D01*
X118434Y340011D01*
X118464Y340084D01*
X118482Y340160D01*
X118489Y340239D01*
X118482Y340317D01*
X118464Y340394D01*
X118434Y340466D01*
X118393Y340533D01*
X118342Y340593D01*
X118282Y340644D01*
X118215Y340685D01*
X118142Y340716D01*
X118065Y340734D01*
X117987Y340739D01*
X115237D01*
Y348239D01*
X117987D01*
X118065Y348243D01*
X118142Y348262D01*
X118215Y348292D01*
X118282Y348333D01*
X118342Y348384D01*
X118393Y348444D01*
X118434Y348511D01*
X118464Y348584D01*
X118482Y348660D01*
X118489Y348739D01*
X118482Y348817D01*
X118464Y348894D01*
X118434Y348966D01*
X118393Y349033D01*
X118342Y349093D01*
X118282Y349144D01*
X118215Y349185D01*
X118142Y349216D01*
X118065Y349234D01*
X117987Y349239D01*
X115237D01*
Y357002D01*
X119487D01*
Y347740D01*
X119409Y347734D01*
X119332Y347716D01*
X119259Y347685D01*
X119192Y347644D01*
X119132Y347593D01*
X119081Y347533D01*
X119040Y347466D01*
X119010Y347394D01*
X118992Y347317D01*
X118987Y347239D01*
Y341739D01*
X118992Y341660D01*
X119010Y341584D01*
X119040Y341511D01*
X119081Y341444D01*
X119132Y341384D01*
X119192Y341333D01*
X119259Y341292D01*
X119332Y341262D01*
X119409Y341243D01*
X119487Y341237D01*
Y338864D01*
G37*
G36*
X115237D02*X110987D01*
Y341237D01*
X111065Y341243D01*
X111142Y341262D01*
X111215Y341292D01*
X111282Y341333D01*
X111342Y341384D01*
X111393Y341444D01*
X111434Y341511D01*
X111464Y341584D01*
X111482Y341660D01*
X111487Y341739D01*
Y347239D01*
X111482Y347317D01*
X111464Y347394D01*
X111434Y347466D01*
X111393Y347533D01*
X111342Y347593D01*
X111282Y347644D01*
X111215Y347685D01*
X111142Y347716D01*
X111065Y347734D01*
X110987Y347740D01*
Y357002D01*
X115237D01*
Y349239D01*
X112487D01*
X112409Y349234D01*
X112332Y349216D01*
X112259Y349185D01*
X112192Y349144D01*
X112132Y349093D01*
X112081Y349033D01*
X112040Y348966D01*
X112010Y348894D01*
X111992Y348817D01*
X111985Y348739D01*
X111992Y348660D01*
X112010Y348584D01*
X112040Y348511D01*
X112081Y348444D01*
X112132Y348384D01*
X112192Y348333D01*
X112259Y348292D01*
X112332Y348262D01*
X112409Y348243D01*
X112487Y348239D01*
X115237D01*
Y340739D01*
X112487D01*
X112409Y340734D01*
X112332Y340716D01*
X112259Y340685D01*
X112192Y340644D01*
X112132Y340593D01*
X112081Y340533D01*
X112040Y340466D01*
X112010Y340394D01*
X111992Y340317D01*
X111985Y340239D01*
X111992Y340160D01*
X112010Y340084D01*
X112040Y340011D01*
X112081Y339944D01*
X112132Y339884D01*
X112192Y339833D01*
X112259Y339792D01*
X112332Y339762D01*
X112409Y339743D01*
X112487Y339739D01*
X115237D01*
Y338864D01*
G37*
G36*
X110987D02*X101883D01*
Y341106D01*
X102436Y340634D01*
X103074Y340243D01*
X103765Y339957D01*
X104492Y339783D01*
X105237Y339724D01*
X105982Y339783D01*
X106709Y339957D01*
X107400Y340243D01*
X108038Y340634D01*
X108606Y341119D01*
X109092Y341688D01*
X109482Y342325D01*
X109768Y343016D01*
X109943Y343743D01*
X109987Y344489D01*
X109943Y345234D01*
X109768Y345961D01*
X109482Y346652D01*
X109092Y347289D01*
X108606Y347858D01*
X108038Y348343D01*
X107400Y348734D01*
X106709Y349020D01*
X105982Y349195D01*
X105237Y349253D01*
X104492Y349195D01*
X103765Y349020D01*
X103074Y348734D01*
X102436Y348343D01*
X101883Y347871D01*
Y357002D01*
X110987D01*
Y347740D01*
X110909Y347734D01*
X110832Y347716D01*
X110759Y347685D01*
X110692Y347644D01*
X110632Y347593D01*
X110581Y347533D01*
X110540Y347466D01*
X110510Y347394D01*
X110492Y347317D01*
X110487Y347239D01*
Y341739D01*
X110492Y341660D01*
X110510Y341584D01*
X110540Y341511D01*
X110581Y341444D01*
X110632Y341384D01*
X110692Y341333D01*
X110759Y341292D01*
X110832Y341262D01*
X110909Y341243D01*
X110987Y341237D01*
Y338864D01*
G37*
G36*
X110224Y413386D02*X139607D01*
Y363501D01*
X138979Y363452D01*
X138367Y363305D01*
X137786Y363064D01*
X137249Y362735D01*
X136770Y362326D01*
X136361Y361847D01*
X136150Y361502D01*
X110224D01*
Y379488D01*
X110237Y379487D01*
X111537Y379589D01*
X112805Y379893D01*
X114009Y380392D01*
X115121Y381074D01*
X116112Y381920D01*
X116959Y382912D01*
X117640Y384023D01*
X118139Y385228D01*
X118444Y386496D01*
X118521Y387796D01*
X118444Y389095D01*
X118139Y390363D01*
X117640Y391568D01*
X116959Y392680D01*
X116112Y393671D01*
X115121Y394518D01*
X114009Y395199D01*
X112805Y395698D01*
X111537Y396002D01*
X110237Y396105D01*
X110224Y396104D01*
Y413386D01*
G37*
G36*
X101883D02*X110224D01*
Y396104D01*
X108937Y396002D01*
X107669Y395698D01*
X106465Y395199D01*
X105353Y394518D01*
X104362Y393671D01*
X103515Y392680D01*
X102834Y391568D01*
X102335Y390363D01*
X102030Y389095D01*
X101928Y387796D01*
X102030Y386496D01*
X102335Y385228D01*
X102834Y384023D01*
X103515Y382912D01*
X104362Y381920D01*
X105353Y381074D01*
X106465Y380392D01*
X107669Y379893D01*
X108937Y379589D01*
X110224Y379488D01*
Y361502D01*
X101883D01*
Y413386D01*
G37*
G36*
X74367Y314679D02*X101883D01*
Y148997D01*
X101494Y148664D01*
X101085Y148185D01*
X100756Y147648D01*
X100515Y147067D01*
X100368Y146454D01*
X100318Y145827D01*
X100368Y145199D01*
X100515Y144587D01*
X100756Y144005D01*
X101085Y143468D01*
X101494Y142990D01*
X101883Y142657D01*
Y129814D01*
X101595Y129813D01*
X101366Y129758D01*
X101148Y129667D01*
X100946Y129544D01*
X100767Y129391D01*
X100613Y129211D01*
X100490Y129010D01*
X100400Y128792D01*
X100345Y128562D01*
X100331Y128327D01*
X100345Y123091D01*
X100400Y122862D01*
X100490Y122644D01*
X100613Y122442D01*
X100767Y122263D01*
X100946Y122110D01*
X101148Y121986D01*
X101366Y121896D01*
X101595Y121841D01*
X101831Y121827D01*
X101883Y121827D01*
Y39370D01*
X74367Y39370D01*
Y44949D01*
X74398Y44966D01*
X74460Y45014D01*
X74514Y45071D01*
X74557Y45137D01*
X74743Y45492D01*
X74891Y45865D01*
X75003Y46250D01*
X75078Y46644D01*
X75116Y47044D01*
Y47445D01*
X75078Y47844D01*
X75003Y48238D01*
X74891Y48623D01*
X74743Y48996D01*
X74561Y49354D01*
X74517Y49419D01*
X74463Y49477D01*
X74400Y49526D01*
X74367Y49544D01*
Y70573D01*
X74533Y70504D01*
X75191Y70346D01*
X75866Y70293D01*
X76541Y70346D01*
X77199Y70504D01*
X77824Y70763D01*
X78401Y71117D01*
X78916Y71556D01*
X79356Y72071D01*
X79709Y72648D01*
X79968Y73273D01*
X80126Y73932D01*
X80166Y74606D01*
X80126Y75281D01*
X79968Y75939D01*
X79709Y76564D01*
X79356Y77142D01*
X78916Y77656D01*
X78401Y78096D01*
X77824Y78449D01*
X77199Y78708D01*
X76541Y78866D01*
X75866Y78920D01*
X75191Y78866D01*
X74533Y78708D01*
X74367Y78640D01*
Y80573D01*
X74533Y80504D01*
X75191Y80346D01*
X75866Y80293D01*
X76541Y80346D01*
X77199Y80504D01*
X77824Y80763D01*
X78401Y81117D01*
X78916Y81556D01*
X79356Y82071D01*
X79709Y82648D01*
X79968Y83273D01*
X80126Y83932D01*
X80166Y84606D01*
X80126Y85281D01*
X79968Y85939D01*
X79709Y86564D01*
X79356Y87142D01*
X78916Y87656D01*
X78401Y88096D01*
X77824Y88449D01*
X77199Y88708D01*
X76541Y88866D01*
X75866Y88920D01*
X75191Y88866D01*
X74533Y88708D01*
X74367Y88640D01*
Y90573D01*
X74533Y90504D01*
X75191Y90346D01*
X75866Y90293D01*
X76541Y90346D01*
X77199Y90504D01*
X77824Y90763D01*
X78401Y91117D01*
X78916Y91556D01*
X79356Y92071D01*
X79709Y92648D01*
X79968Y93273D01*
X80126Y93932D01*
X80166Y94606D01*
X80126Y95281D01*
X79968Y95939D01*
X79709Y96564D01*
X79356Y97142D01*
X78916Y97656D01*
X78401Y98096D01*
X77824Y98449D01*
X77199Y98708D01*
X76541Y98866D01*
X75866Y98920D01*
X75191Y98866D01*
X74533Y98708D01*
X74367Y98640D01*
Y100573D01*
X74533Y100504D01*
X75191Y100346D01*
X75866Y100293D01*
X76541Y100346D01*
X77199Y100504D01*
X77824Y100763D01*
X78401Y101117D01*
X78916Y101556D01*
X79356Y102071D01*
X79709Y102648D01*
X79968Y103273D01*
X80126Y103932D01*
X80166Y104606D01*
X80126Y105281D01*
X79968Y105939D01*
X79709Y106564D01*
X79356Y107142D01*
X78916Y107656D01*
X78401Y108096D01*
X77824Y108449D01*
X77199Y108708D01*
X76541Y108866D01*
X75866Y108920D01*
X75191Y108866D01*
X74533Y108708D01*
X74367Y108640D01*
Y110573D01*
X74533Y110504D01*
X75191Y110346D01*
X75866Y110293D01*
X76541Y110346D01*
X77199Y110504D01*
X77824Y110763D01*
X78401Y111117D01*
X78916Y111556D01*
X79356Y112071D01*
X79709Y112648D01*
X79968Y113273D01*
X80126Y113932D01*
X80166Y114606D01*
X80126Y115281D01*
X79968Y115939D01*
X79709Y116564D01*
X79356Y117142D01*
X78916Y117656D01*
X78401Y118096D01*
X77824Y118449D01*
X77199Y118708D01*
X76541Y118866D01*
X75866Y118920D01*
X75191Y118866D01*
X74533Y118708D01*
X74367Y118640D01*
Y120573D01*
X74533Y120504D01*
X75191Y120346D01*
X75866Y120293D01*
X76541Y120346D01*
X77199Y120504D01*
X77824Y120763D01*
X78401Y121117D01*
X78916Y121556D01*
X79356Y122071D01*
X79709Y122648D01*
X79968Y123273D01*
X80126Y123932D01*
X80166Y124606D01*
X80126Y125281D01*
X79968Y125939D01*
X79709Y126564D01*
X79356Y127142D01*
X78916Y127656D01*
X78401Y128096D01*
X77824Y128449D01*
X77199Y128708D01*
X76541Y128866D01*
X75866Y128920D01*
X75191Y128866D01*
X74533Y128708D01*
X74367Y128640D01*
Y130573D01*
X74533Y130504D01*
X75191Y130346D01*
X75866Y130293D01*
X76541Y130346D01*
X77199Y130504D01*
X77824Y130763D01*
X78401Y131117D01*
X78916Y131556D01*
X79356Y132071D01*
X79709Y132648D01*
X79968Y133273D01*
X80126Y133932D01*
X80166Y134606D01*
X80126Y135281D01*
X79968Y135939D01*
X79709Y136564D01*
X79356Y137142D01*
X78916Y137656D01*
X78401Y138096D01*
X77824Y138449D01*
X77199Y138708D01*
X76541Y138866D01*
X75866Y138920D01*
X75191Y138866D01*
X74533Y138708D01*
X74367Y138640D01*
Y140573D01*
X74533Y140504D01*
X75191Y140346D01*
X75866Y140293D01*
X76541Y140346D01*
X77199Y140504D01*
X77824Y140763D01*
X78401Y141117D01*
X78916Y141556D01*
X79356Y142071D01*
X79709Y142648D01*
X79968Y143273D01*
X80126Y143932D01*
X80166Y144606D01*
X80126Y145281D01*
X79968Y145939D01*
X79709Y146564D01*
X79356Y147142D01*
X78916Y147656D01*
X78401Y148096D01*
X77824Y148449D01*
X77199Y148708D01*
X76541Y148866D01*
X75866Y148920D01*
X75191Y148866D01*
X74533Y148708D01*
X74367Y148640D01*
Y150573D01*
X74533Y150504D01*
X75191Y150346D01*
X75866Y150293D01*
X76541Y150346D01*
X77199Y150504D01*
X77824Y150763D01*
X78401Y151117D01*
X78916Y151556D01*
X79356Y152071D01*
X79709Y152648D01*
X79968Y153273D01*
X80126Y153932D01*
X80166Y154606D01*
X80126Y155281D01*
X79968Y155939D01*
X79709Y156564D01*
X79356Y157142D01*
X78916Y157656D01*
X78401Y158096D01*
X77824Y158449D01*
X77199Y158708D01*
X76541Y158866D01*
X75866Y158920D01*
X75191Y158866D01*
X74533Y158708D01*
X74367Y158640D01*
Y160573D01*
X74533Y160504D01*
X75191Y160346D01*
X75866Y160293D01*
X76541Y160346D01*
X77199Y160504D01*
X77824Y160763D01*
X78401Y161117D01*
X78916Y161556D01*
X79356Y162071D01*
X79709Y162648D01*
X79968Y163273D01*
X80126Y163932D01*
X80166Y164606D01*
X80126Y165281D01*
X79968Y165939D01*
X79709Y166564D01*
X79356Y167142D01*
X78916Y167656D01*
X78401Y168096D01*
X77824Y168449D01*
X77199Y168708D01*
X76541Y168866D01*
X75866Y168920D01*
X75191Y168866D01*
X74533Y168708D01*
X74367Y168640D01*
Y170573D01*
X74533Y170504D01*
X75191Y170346D01*
X75866Y170293D01*
X76541Y170346D01*
X77199Y170504D01*
X77824Y170763D01*
X78401Y171117D01*
X78916Y171556D01*
X79356Y172071D01*
X79709Y172648D01*
X79968Y173273D01*
X80126Y173932D01*
X80166Y174606D01*
X80126Y175281D01*
X79968Y175939D01*
X79709Y176564D01*
X79356Y177142D01*
X78916Y177656D01*
X78401Y178096D01*
X77824Y178449D01*
X77199Y178708D01*
X76541Y178866D01*
X75866Y178920D01*
X75191Y178866D01*
X74533Y178708D01*
X74367Y178640D01*
Y180573D01*
X74533Y180504D01*
X75191Y180346D01*
X75866Y180293D01*
X76541Y180346D01*
X77199Y180504D01*
X77824Y180763D01*
X78401Y181117D01*
X78916Y181556D01*
X79356Y182071D01*
X79709Y182648D01*
X79968Y183273D01*
X80126Y183932D01*
X80166Y184606D01*
X80126Y185281D01*
X79968Y185939D01*
X79709Y186564D01*
X79356Y187142D01*
X78916Y187656D01*
X78401Y188096D01*
X77824Y188449D01*
X77199Y188708D01*
X76541Y188866D01*
X75866Y188920D01*
X75191Y188866D01*
X74533Y188708D01*
X74367Y188640D01*
Y190573D01*
X74533Y190504D01*
X75191Y190346D01*
X75866Y190293D01*
X76541Y190346D01*
X77199Y190504D01*
X77824Y190763D01*
X78401Y191117D01*
X78916Y191556D01*
X79356Y192071D01*
X79709Y192648D01*
X79968Y193273D01*
X80126Y193932D01*
X80166Y194606D01*
X80126Y195281D01*
X79968Y195939D01*
X79709Y196564D01*
X79356Y197142D01*
X78916Y197656D01*
X78401Y198096D01*
X77824Y198449D01*
X77199Y198708D01*
X76541Y198866D01*
X75866Y198920D01*
X75191Y198866D01*
X74533Y198708D01*
X74367Y198640D01*
Y200573D01*
X74533Y200504D01*
X75191Y200346D01*
X75866Y200293D01*
X76541Y200346D01*
X77199Y200504D01*
X77824Y200763D01*
X78401Y201117D01*
X78916Y201556D01*
X79356Y202071D01*
X79709Y202648D01*
X79968Y203273D01*
X80126Y203932D01*
X80166Y204606D01*
X80126Y205281D01*
X79968Y205939D01*
X79709Y206564D01*
X79356Y207142D01*
X78916Y207656D01*
X78401Y208096D01*
X77824Y208449D01*
X77199Y208708D01*
X76541Y208866D01*
X75866Y208920D01*
X75191Y208866D01*
X74533Y208708D01*
X74367Y208640D01*
Y210573D01*
X74533Y210504D01*
X75191Y210346D01*
X75866Y210293D01*
X76541Y210346D01*
X77199Y210504D01*
X77824Y210763D01*
X78401Y211117D01*
X78916Y211556D01*
X79356Y212071D01*
X79709Y212648D01*
X79968Y213273D01*
X80126Y213932D01*
X80166Y214606D01*
X80126Y215281D01*
X79968Y215939D01*
X79709Y216564D01*
X79356Y217142D01*
X78916Y217656D01*
X78401Y218096D01*
X77824Y218449D01*
X77199Y218708D01*
X76541Y218866D01*
X75866Y218920D01*
X75191Y218866D01*
X74533Y218708D01*
X74367Y218640D01*
Y220573D01*
X74533Y220504D01*
X75191Y220346D01*
X75866Y220293D01*
X76541Y220346D01*
X77199Y220504D01*
X77824Y220763D01*
X78401Y221117D01*
X78916Y221556D01*
X79356Y222071D01*
X79709Y222648D01*
X79968Y223273D01*
X80126Y223932D01*
X80166Y224606D01*
X80126Y225281D01*
X79968Y225939D01*
X79709Y226564D01*
X79356Y227142D01*
X78916Y227656D01*
X78401Y228096D01*
X77824Y228449D01*
X77199Y228708D01*
X76541Y228866D01*
X75866Y228920D01*
X75191Y228866D01*
X74533Y228708D01*
X74367Y228640D01*
Y314679D01*
G37*
G36*
X70868D02*X74367D01*
Y228640D01*
X73908Y228449D01*
X73331Y228096D01*
X72816Y227656D01*
X72377Y227142D01*
X72023Y226564D01*
X71764Y225939D01*
X71606Y225281D01*
X71553Y224606D01*
X71606Y223932D01*
X71764Y223273D01*
X72023Y222648D01*
X72377Y222071D01*
X72816Y221556D01*
X73331Y221117D01*
X73908Y220763D01*
X74367Y220573D01*
Y218640D01*
X73908Y218449D01*
X73331Y218096D01*
X72816Y217656D01*
X72377Y217142D01*
X72023Y216564D01*
X71764Y215939D01*
X71606Y215281D01*
X71553Y214606D01*
X71606Y213932D01*
X71764Y213273D01*
X72023Y212648D01*
X72377Y212071D01*
X72816Y211556D01*
X73331Y211117D01*
X73908Y210763D01*
X74367Y210573D01*
Y208640D01*
X73908Y208449D01*
X73331Y208096D01*
X72816Y207656D01*
X72377Y207142D01*
X72023Y206564D01*
X71764Y205939D01*
X71606Y205281D01*
X71553Y204606D01*
X71606Y203932D01*
X71764Y203273D01*
X72023Y202648D01*
X72377Y202071D01*
X72816Y201556D01*
X73331Y201117D01*
X73908Y200763D01*
X74367Y200573D01*
Y198640D01*
X73908Y198449D01*
X73331Y198096D01*
X72816Y197656D01*
X72377Y197142D01*
X72023Y196564D01*
X71764Y195939D01*
X71606Y195281D01*
X71553Y194606D01*
X71606Y193932D01*
X71764Y193273D01*
X72023Y192648D01*
X72377Y192071D01*
X72816Y191556D01*
X73331Y191117D01*
X73908Y190763D01*
X74367Y190573D01*
Y188640D01*
X73908Y188449D01*
X73331Y188096D01*
X72816Y187656D01*
X72377Y187142D01*
X72023Y186564D01*
X71764Y185939D01*
X71606Y185281D01*
X71553Y184606D01*
X71606Y183932D01*
X71764Y183273D01*
X72023Y182648D01*
X72377Y182071D01*
X72816Y181556D01*
X73331Y181117D01*
X73908Y180763D01*
X74367Y180573D01*
Y178640D01*
X73908Y178449D01*
X73331Y178096D01*
X72816Y177656D01*
X72377Y177142D01*
X72023Y176564D01*
X71764Y175939D01*
X71606Y175281D01*
X71553Y174606D01*
X71606Y173932D01*
X71764Y173273D01*
X72023Y172648D01*
X72377Y172071D01*
X72816Y171556D01*
X73331Y171117D01*
X73908Y170763D01*
X74367Y170573D01*
Y168640D01*
X73908Y168449D01*
X73331Y168096D01*
X72816Y167656D01*
X72377Y167142D01*
X72023Y166564D01*
X71764Y165939D01*
X71606Y165281D01*
X71553Y164606D01*
X71606Y163932D01*
X71764Y163273D01*
X72023Y162648D01*
X72377Y162071D01*
X72816Y161556D01*
X73331Y161117D01*
X73908Y160763D01*
X74367Y160573D01*
Y158640D01*
X73908Y158449D01*
X73331Y158096D01*
X72816Y157656D01*
X72377Y157142D01*
X72023Y156564D01*
X71764Y155939D01*
X71606Y155281D01*
X71553Y154606D01*
X71606Y153932D01*
X71764Y153273D01*
X72023Y152648D01*
X72377Y152071D01*
X72816Y151556D01*
X73331Y151117D01*
X73908Y150763D01*
X74367Y150573D01*
Y148640D01*
X73908Y148449D01*
X73331Y148096D01*
X72816Y147656D01*
X72377Y147142D01*
X72023Y146564D01*
X71764Y145939D01*
X71606Y145281D01*
X71553Y144606D01*
X71606Y143932D01*
X71764Y143273D01*
X72023Y142648D01*
X72377Y142071D01*
X72816Y141556D01*
X73331Y141117D01*
X73908Y140763D01*
X74367Y140573D01*
Y138640D01*
X73908Y138449D01*
X73331Y138096D01*
X72816Y137656D01*
X72377Y137142D01*
X72023Y136564D01*
X71764Y135939D01*
X71606Y135281D01*
X71553Y134606D01*
X71606Y133932D01*
X71764Y133273D01*
X72023Y132648D01*
X72377Y132071D01*
X72816Y131556D01*
X73331Y131117D01*
X73908Y130763D01*
X74367Y130573D01*
Y128640D01*
X73908Y128449D01*
X73331Y128096D01*
X72816Y127656D01*
X72377Y127142D01*
X72023Y126564D01*
X71764Y125939D01*
X71606Y125281D01*
X71553Y124606D01*
X71606Y123932D01*
X71764Y123273D01*
X72023Y122648D01*
X72377Y122071D01*
X72816Y121556D01*
X73331Y121117D01*
X73908Y120763D01*
X74367Y120573D01*
Y118640D01*
X73908Y118449D01*
X73331Y118096D01*
X72816Y117656D01*
X72377Y117142D01*
X72023Y116564D01*
X71764Y115939D01*
X71606Y115281D01*
X71553Y114606D01*
X71606Y113932D01*
X71764Y113273D01*
X72023Y112648D01*
X72377Y112071D01*
X72816Y111556D01*
X73331Y111117D01*
X73908Y110763D01*
X74367Y110573D01*
Y108640D01*
X73908Y108449D01*
X73331Y108096D01*
X72816Y107656D01*
X72377Y107142D01*
X72023Y106564D01*
X71764Y105939D01*
X71606Y105281D01*
X71553Y104606D01*
X71606Y103932D01*
X71764Y103273D01*
X72023Y102648D01*
X72377Y102071D01*
X72816Y101556D01*
X73331Y101117D01*
X73908Y100763D01*
X74367Y100573D01*
Y98640D01*
X73908Y98449D01*
X73331Y98096D01*
X72816Y97656D01*
X72377Y97142D01*
X72023Y96564D01*
X71764Y95939D01*
X71606Y95281D01*
X71553Y94606D01*
X71606Y93932D01*
X71764Y93273D01*
X72023Y92648D01*
X72377Y92071D01*
X72816Y91556D01*
X73331Y91117D01*
X73908Y90763D01*
X74367Y90573D01*
Y88640D01*
X73908Y88449D01*
X73331Y88096D01*
X72816Y87656D01*
X72377Y87142D01*
X72023Y86564D01*
X71764Y85939D01*
X71606Y85281D01*
X71553Y84606D01*
X71606Y83932D01*
X71764Y83273D01*
X72023Y82648D01*
X72377Y82071D01*
X72816Y81556D01*
X73331Y81117D01*
X73908Y80763D01*
X74367Y80573D01*
Y78640D01*
X73908Y78449D01*
X73331Y78096D01*
X72816Y77656D01*
X72377Y77142D01*
X72023Y76564D01*
X71764Y75939D01*
X71606Y75281D01*
X71553Y74606D01*
X71606Y73932D01*
X71764Y73273D01*
X72023Y72648D01*
X72377Y72071D01*
X72816Y71556D01*
X73331Y71117D01*
X73908Y70763D01*
X74367Y70573D01*
Y49544D01*
X74331Y49564D01*
X74256Y49591D01*
X74178Y49605D01*
X74099Y49608D01*
X74020Y49598D01*
X73944Y49576D01*
X73872Y49542D01*
X73807Y49497D01*
X73749Y49443D01*
X73700Y49380D01*
X73662Y49311D01*
X73636Y49236D01*
X73621Y49159D01*
X73618Y49079D01*
X73628Y49001D01*
X73650Y48925D01*
X73685Y48854D01*
X73828Y48582D01*
X73941Y48298D01*
X74026Y48003D01*
X74084Y47702D01*
X74113Y47397D01*
Y47091D01*
X74084Y46786D01*
X74026Y46485D01*
X73941Y46191D01*
X73828Y45906D01*
X73689Y45633D01*
X73654Y45562D01*
X73632Y45487D01*
X73622Y45409D01*
X73624Y45330D01*
X73639Y45253D01*
X73666Y45179D01*
X73704Y45110D01*
X73752Y45048D01*
X73809Y44994D01*
X73874Y44949D01*
X73945Y44916D01*
X74021Y44894D01*
X74099Y44884D01*
X74178Y44886D01*
X74255Y44901D01*
X74329Y44928D01*
X74367Y44949D01*
Y39370D01*
X70868Y39370D01*
Y42994D01*
X71067D01*
X71466Y43032D01*
X71860Y43107D01*
X72245Y43219D01*
X72618Y43367D01*
X72976Y43549D01*
X73041Y43593D01*
X73099Y43648D01*
X73148Y43710D01*
X73186Y43780D01*
X73213Y43854D01*
X73227Y43932D01*
X73230Y44011D01*
X73220Y44090D01*
X73198Y44166D01*
X73164Y44238D01*
X73119Y44303D01*
X73065Y44361D01*
X73003Y44410D01*
X72933Y44448D01*
X72858Y44475D01*
X72781Y44490D01*
X72701Y44492D01*
X72623Y44482D01*
X72547Y44460D01*
X72476Y44425D01*
X72204Y44282D01*
X71920Y44170D01*
X71625Y44084D01*
X71324Y44027D01*
X71019Y43998D01*
X70868D01*
Y50490D01*
X71019D01*
X71324Y50462D01*
X71625Y50404D01*
X71920Y50319D01*
X72204Y50206D01*
X72477Y50067D01*
X72548Y50032D01*
X72623Y50010D01*
X72702Y50000D01*
X72780Y50002D01*
X72857Y50017D01*
X72932Y50044D01*
X73001Y50081D01*
X73063Y50130D01*
X73117Y50187D01*
X73161Y50252D01*
X73194Y50323D01*
X73216Y50399D01*
X73226Y50477D01*
X73224Y50556D01*
X73209Y50633D01*
X73182Y50707D01*
X73145Y50776D01*
X73096Y50838D01*
X73039Y50892D01*
X72973Y50935D01*
X72618Y51121D01*
X72245Y51269D01*
X71860Y51381D01*
X71466Y51456D01*
X71067Y51494D01*
X70868D01*
Y314679D01*
G37*
G36*
X80861Y334364D02*X101883D01*
Y319179D01*
X80861D01*
Y325477D01*
X80867Y325476D01*
X81495Y325526D01*
X82107Y325673D01*
X82689Y325914D01*
X83225Y326243D01*
X83704Y326651D01*
X84113Y327130D01*
X84442Y327667D01*
X84683Y328249D01*
X84830Y328861D01*
X84867Y329489D01*
X84830Y330116D01*
X84683Y330728D01*
X84442Y331310D01*
X84113Y331847D01*
X83704Y332326D01*
X83225Y332735D01*
X82689Y333064D01*
X82107Y333305D01*
X81495Y333452D01*
X80867Y333501D01*
X80861Y333500D01*
Y334364D01*
G37*
G36*
X70868D02*X80861D01*
Y333500D01*
X80239Y333452D01*
X79627Y333305D01*
X79045Y333064D01*
X78509Y332735D01*
X78030Y332326D01*
X77621Y331847D01*
X77292Y331310D01*
X77051Y330728D01*
X76904Y330116D01*
X76855Y329489D01*
X76904Y328861D01*
X77051Y328249D01*
X77292Y327667D01*
X77621Y327130D01*
X78030Y326651D01*
X78509Y326243D01*
X79045Y325914D01*
X79627Y325673D01*
X80239Y325526D01*
X80861Y325477D01*
Y319179D01*
X70868D01*
Y334364D01*
G37*
G36*
X80861Y413386D02*X101883D01*
Y361502D01*
X96404D01*
X93785Y364121D01*
Y367751D01*
X93894Y367817D01*
X94373Y368226D01*
X94781Y368705D01*
X95110Y369241D01*
X95351Y369823D01*
X95498Y370435D01*
X95535Y371063D01*
X95498Y371691D01*
X95351Y372303D01*
X95110Y372885D01*
X94781Y373421D01*
X94373Y373900D01*
X93894Y374309D01*
X93357Y374638D01*
X92775Y374879D01*
X92163Y375026D01*
X91535Y375075D01*
X90908Y375026D01*
X90296Y374879D01*
X89714Y374638D01*
X89177Y374309D01*
X88698Y373900D01*
X88289Y373421D01*
X87960Y372885D01*
X87719Y372303D01*
X87572Y371691D01*
X87523Y371063D01*
X87572Y370435D01*
X87719Y369823D01*
X87960Y369241D01*
X88289Y368705D01*
X88698Y368226D01*
X89177Y367817D01*
X89285Y367751D01*
Y363277D01*
X89278Y363189D01*
X89306Y362836D01*
Y362836D01*
X89389Y362492D01*
X89524Y362164D01*
X89595Y362050D01*
X89710Y361862D01*
X89710Y361862D01*
X89940Y361593D01*
X90007Y361536D01*
X93819Y357723D01*
X93877Y357656D01*
X94146Y357426D01*
X94146Y357426D01*
X94333Y357311D01*
X94448Y357241D01*
X94775Y357105D01*
X95119Y357023D01*
X95119D01*
X95472Y356995D01*
X95561Y357002D01*
X101883D01*
Y347871D01*
X101868Y347858D01*
X101382Y347289D01*
X100992Y346652D01*
X100706Y345961D01*
X100531Y345234D01*
X100472Y344489D01*
X100531Y343743D01*
X100706Y343016D01*
X100992Y342325D01*
X101382Y341688D01*
X101868Y341119D01*
X101883Y341106D01*
Y338864D01*
X80861D01*
Y340477D01*
X80867Y340476D01*
X81495Y340526D01*
X82107Y340673D01*
X82689Y340914D01*
X83225Y341243D01*
X83704Y341651D01*
X84113Y342130D01*
X84442Y342667D01*
X84683Y343249D01*
X84830Y343861D01*
X84867Y344489D01*
X84830Y345116D01*
X84683Y345728D01*
X84442Y346310D01*
X84113Y346847D01*
X83704Y347326D01*
X83225Y347735D01*
X82689Y348064D01*
X82107Y348305D01*
X81495Y348452D01*
X80867Y348501D01*
X80861Y348500D01*
Y355477D01*
X80867Y355476D01*
X81495Y355526D01*
X82107Y355673D01*
X82689Y355914D01*
X83225Y356243D01*
X83704Y356651D01*
X84113Y357130D01*
X84442Y357667D01*
X84683Y358249D01*
X84830Y358861D01*
X84867Y359489D01*
X84830Y360116D01*
X84683Y360728D01*
X84442Y361310D01*
X84113Y361847D01*
X83704Y362326D01*
X83225Y362735D01*
X82689Y363064D01*
X82107Y363305D01*
X81495Y363452D01*
X80867Y363501D01*
X80861Y363500D01*
Y413386D01*
G37*
G36*
X74367D02*X80861D01*
Y363500D01*
X80239Y363452D01*
X79627Y363305D01*
X79045Y363064D01*
X78509Y362735D01*
X78030Y362326D01*
X77621Y361847D01*
X77292Y361310D01*
X77051Y360728D01*
X76904Y360116D01*
X76855Y359489D01*
X76904Y358861D01*
X77051Y358249D01*
X77292Y357667D01*
X77621Y357130D01*
X78030Y356651D01*
X78509Y356243D01*
X79045Y355914D01*
X79627Y355673D01*
X80239Y355526D01*
X80861Y355477D01*
Y348500D01*
X80239Y348452D01*
X79627Y348305D01*
X79045Y348064D01*
X78509Y347735D01*
X78030Y347326D01*
X77621Y346847D01*
X77292Y346310D01*
X77051Y345728D01*
X76904Y345116D01*
X76855Y344489D01*
X76904Y343861D01*
X77051Y343249D01*
X77292Y342667D01*
X77621Y342130D01*
X78030Y341651D01*
X78509Y341243D01*
X79045Y340914D01*
X79627Y340673D01*
X80239Y340526D01*
X80861Y340477D01*
Y338864D01*
X74367D01*
Y403216D01*
X74398Y403233D01*
X74460Y403282D01*
X74514Y403339D01*
X74557Y403405D01*
X74743Y403760D01*
X74891Y404133D01*
X75003Y404518D01*
X75078Y404912D01*
X75116Y405311D01*
Y405712D01*
X75078Y406112D01*
X75003Y406506D01*
X74891Y406891D01*
X74743Y407264D01*
X74561Y407621D01*
X74517Y407687D01*
X74463Y407745D01*
X74400Y407793D01*
X74367Y407811D01*
Y413386D01*
G37*
G36*
X70868D02*X74367D01*
Y407811D01*
X74331Y407831D01*
X74256Y407858D01*
X74178Y407873D01*
X74099Y407876D01*
X74020Y407866D01*
X73944Y407843D01*
X73872Y407810D01*
X73807Y407765D01*
X73749Y407711D01*
X73700Y407648D01*
X73662Y407579D01*
X73636Y407504D01*
X73621Y407426D01*
X73618Y407347D01*
X73628Y407268D01*
X73650Y407192D01*
X73685Y407121D01*
X73828Y406850D01*
X73941Y406565D01*
X74026Y406271D01*
X74084Y405970D01*
X74113Y405665D01*
Y405359D01*
X74084Y405054D01*
X74026Y404753D01*
X73941Y404458D01*
X73828Y404173D01*
X73689Y403901D01*
X73654Y403830D01*
X73632Y403755D01*
X73622Y403676D01*
X73624Y403598D01*
X73639Y403520D01*
X73666Y403446D01*
X73704Y403377D01*
X73752Y403315D01*
X73809Y403261D01*
X73874Y403217D01*
X73945Y403184D01*
X74021Y403162D01*
X74099Y403152D01*
X74178Y403154D01*
X74255Y403169D01*
X74329Y403195D01*
X74367Y403216D01*
Y338864D01*
X70868D01*
Y401262D01*
X71067D01*
X71466Y401300D01*
X71860Y401375D01*
X72245Y401487D01*
X72618Y401635D01*
X72976Y401817D01*
X73041Y401861D01*
X73099Y401915D01*
X73148Y401978D01*
X73186Y402047D01*
X73213Y402122D01*
X73227Y402200D01*
X73230Y402279D01*
X73220Y402358D01*
X73198Y402434D01*
X73164Y402506D01*
X73119Y402571D01*
X73065Y402629D01*
X73003Y402677D01*
X72933Y402716D01*
X72858Y402742D01*
X72781Y402757D01*
X72701Y402760D01*
X72623Y402750D01*
X72547Y402728D01*
X72476Y402692D01*
X72204Y402550D01*
X71920Y402437D01*
X71625Y402352D01*
X71324Y402294D01*
X71019Y402265D01*
X70868D01*
Y408758D01*
X71019D01*
X71324Y408729D01*
X71625Y408672D01*
X71920Y408586D01*
X72204Y408473D01*
X72477Y408334D01*
X72548Y408299D01*
X72623Y408277D01*
X72702Y408268D01*
X72780Y408270D01*
X72857Y408285D01*
X72932Y408311D01*
X73001Y408349D01*
X73063Y408397D01*
X73117Y408455D01*
X73161Y408520D01*
X73194Y408591D01*
X73216Y408667D01*
X73226Y408745D01*
X73224Y408823D01*
X73209Y408901D01*
X73182Y408975D01*
X73145Y409044D01*
X73096Y409106D01*
X73039Y409160D01*
X72973Y409203D01*
X72618Y409389D01*
X72245Y409537D01*
X71860Y409649D01*
X71466Y409724D01*
X71067Y409762D01*
X70868D01*
Y413386D01*
G37*
G36*
X69666Y43167D02*X69872Y43107D01*
X70266Y43032D01*
X70666Y42994D01*
X70868D01*
Y39370D01*
X69666Y39370D01*
Y43167D01*
G37*
G36*
Y50261D02*X69813Y50319D01*
X70107Y50404D01*
X70408Y50462D01*
X70713Y50490D01*
X70868D01*
Y43998D01*
X70713D01*
X70408Y44027D01*
X70107Y44084D01*
X69813Y44170D01*
X69666Y44228D01*
Y50261D01*
G37*
G36*
Y314679D02*X70868D01*
Y51494D01*
X70666D01*
X70266Y51456D01*
X69872Y51381D01*
X69666Y51321D01*
Y72600D01*
X69784Y72822D01*
X69935Y73202D01*
X70050Y73594D01*
X70127Y73995D01*
X70166Y74402D01*
Y74811D01*
X70127Y75217D01*
X70050Y75619D01*
X69935Y76011D01*
X69784Y76390D01*
X69666Y76619D01*
Y82600D01*
X69784Y82822D01*
X69935Y83202D01*
X70050Y83594D01*
X70127Y83995D01*
X70166Y84402D01*
Y84811D01*
X70127Y85217D01*
X70050Y85619D01*
X69935Y86011D01*
X69784Y86390D01*
X69666Y86619D01*
Y92600D01*
X69784Y92822D01*
X69935Y93202D01*
X70050Y93594D01*
X70127Y93995D01*
X70166Y94402D01*
Y94811D01*
X70127Y95217D01*
X70050Y95619D01*
X69935Y96011D01*
X69784Y96390D01*
X69666Y96619D01*
Y102600D01*
X69784Y102822D01*
X69935Y103202D01*
X70050Y103594D01*
X70127Y103995D01*
X70166Y104402D01*
Y104811D01*
X70127Y105217D01*
X70050Y105619D01*
X69935Y106011D01*
X69784Y106390D01*
X69666Y106619D01*
Y112600D01*
X69784Y112822D01*
X69935Y113202D01*
X70050Y113594D01*
X70127Y113995D01*
X70166Y114402D01*
Y114811D01*
X70127Y115217D01*
X70050Y115619D01*
X69935Y116011D01*
X69784Y116390D01*
X69666Y116619D01*
Y122600D01*
X69784Y122822D01*
X69935Y123202D01*
X70050Y123594D01*
X70127Y123995D01*
X70166Y124402D01*
Y124811D01*
X70127Y125217D01*
X70050Y125619D01*
X69935Y126011D01*
X69784Y126390D01*
X69666Y126619D01*
Y132600D01*
X69784Y132822D01*
X69935Y133202D01*
X70050Y133594D01*
X70127Y133995D01*
X70166Y134402D01*
Y134811D01*
X70127Y135217D01*
X70050Y135619D01*
X69935Y136011D01*
X69784Y136390D01*
X69666Y136619D01*
Y142600D01*
X69784Y142822D01*
X69935Y143202D01*
X70050Y143594D01*
X70127Y143995D01*
X70166Y144402D01*
Y144811D01*
X70127Y145217D01*
X70050Y145619D01*
X69935Y146011D01*
X69784Y146390D01*
X69666Y146619D01*
Y152600D01*
X69784Y152822D01*
X69935Y153202D01*
X70050Y153594D01*
X70127Y153995D01*
X70166Y154402D01*
Y154811D01*
X70127Y155217D01*
X70050Y155619D01*
X69935Y156011D01*
X69784Y156390D01*
X69666Y156619D01*
Y162600D01*
X69784Y162822D01*
X69935Y163202D01*
X70050Y163594D01*
X70127Y163995D01*
X70166Y164402D01*
Y164811D01*
X70127Y165217D01*
X70050Y165619D01*
X69935Y166011D01*
X69784Y166390D01*
X69666Y166619D01*
Y172600D01*
X69784Y172822D01*
X69935Y173202D01*
X70050Y173594D01*
X70127Y173995D01*
X70166Y174402D01*
Y174811D01*
X70127Y175217D01*
X70050Y175619D01*
X69935Y176011D01*
X69784Y176390D01*
X69666Y176619D01*
Y182600D01*
X69784Y182822D01*
X69935Y183202D01*
X70050Y183594D01*
X70127Y183995D01*
X70166Y184402D01*
Y184811D01*
X70127Y185217D01*
X70050Y185619D01*
X69935Y186011D01*
X69784Y186390D01*
X69666Y186619D01*
Y192600D01*
X69784Y192822D01*
X69935Y193202D01*
X70050Y193594D01*
X70127Y193995D01*
X70166Y194402D01*
Y194811D01*
X70127Y195217D01*
X70050Y195619D01*
X69935Y196011D01*
X69784Y196390D01*
X69666Y196619D01*
Y202600D01*
X69784Y202822D01*
X69935Y203202D01*
X70050Y203594D01*
X70127Y203995D01*
X70166Y204402D01*
Y204811D01*
X70127Y205217D01*
X70050Y205619D01*
X69935Y206011D01*
X69784Y206390D01*
X69666Y206619D01*
Y212600D01*
X69784Y212822D01*
X69935Y213202D01*
X70050Y213594D01*
X70127Y213995D01*
X70166Y214402D01*
Y214811D01*
X70127Y215217D01*
X70050Y215619D01*
X69935Y216011D01*
X69784Y216390D01*
X69666Y216619D01*
Y221805D01*
X69745Y221811D01*
X69821Y221829D01*
X69894Y221859D01*
X69961Y221901D01*
X70021Y221952D01*
X70072Y222011D01*
X70113Y222079D01*
X70143Y222151D01*
X70162Y222228D01*
X70166Y222306D01*
Y226906D01*
X70162Y226985D01*
X70143Y227061D01*
X70113Y227134D01*
X70072Y227201D01*
X70021Y227261D01*
X69961Y227312D01*
X69894Y227353D01*
X69821Y227383D01*
X69745Y227402D01*
X69666Y227408D01*
Y314679D01*
G37*
G36*
X67365D02*X69666D01*
Y227408D01*
X69588Y227402D01*
X69511Y227383D01*
X69438Y227353D01*
X69371Y227312D01*
X69311Y227261D01*
X69260Y227201D01*
X69219Y227134D01*
X69189Y227061D01*
X69171Y226985D01*
X69166Y226906D01*
Y222306D01*
X69171Y222228D01*
X69189Y222151D01*
X69219Y222079D01*
X69260Y222011D01*
X69311Y221952D01*
X69371Y221901D01*
X69438Y221859D01*
X69511Y221829D01*
X69588Y221811D01*
X69666Y221805D01*
Y216619D01*
X69597Y216754D01*
X69553Y216819D01*
X69498Y216877D01*
X69435Y216925D01*
X69366Y216963D01*
X69291Y216990D01*
X69213Y217004D01*
X69134Y217006D01*
X69055Y216996D01*
X68979Y216974D01*
X68908Y216940D01*
X68842Y216895D01*
X68785Y216840D01*
X68736Y216778D01*
X68698Y216708D01*
X68672Y216633D01*
X68657Y216555D01*
X68655Y216476D01*
X68665Y216397D01*
X68688Y216321D01*
X68723Y216251D01*
X68869Y215974D01*
X68986Y215683D01*
X69074Y215382D01*
X69133Y215075D01*
X69162Y214763D01*
Y214450D01*
X69133Y214138D01*
X69074Y213830D01*
X68986Y213530D01*
X68869Y213239D01*
X68726Y212960D01*
X68691Y212890D01*
X68669Y212814D01*
X68659Y212736D01*
X68661Y212658D01*
X68675Y212580D01*
X68702Y212506D01*
X68739Y212437D01*
X68787Y212375D01*
X68845Y212321D01*
X68909Y212276D01*
X68981Y212242D01*
X69056Y212220D01*
X69134Y212210D01*
X69213Y212212D01*
X69290Y212227D01*
X69364Y212253D01*
X69433Y212291D01*
X69496Y212339D01*
X69550Y212396D01*
X69593Y212461D01*
X69666Y212600D01*
Y206619D01*
X69597Y206754D01*
X69553Y206819D01*
X69498Y206877D01*
X69435Y206925D01*
X69366Y206963D01*
X69291Y206990D01*
X69213Y207004D01*
X69134Y207006D01*
X69055Y206996D01*
X68979Y206974D01*
X68908Y206940D01*
X68842Y206895D01*
X68785Y206840D01*
X68736Y206778D01*
X68698Y206708D01*
X68672Y206633D01*
X68657Y206555D01*
X68655Y206476D01*
X68665Y206397D01*
X68688Y206321D01*
X68723Y206251D01*
X68869Y205974D01*
X68986Y205683D01*
X69074Y205382D01*
X69133Y205075D01*
X69162Y204763D01*
Y204450D01*
X69133Y204138D01*
X69074Y203830D01*
X68986Y203530D01*
X68869Y203239D01*
X68726Y202960D01*
X68691Y202890D01*
X68669Y202814D01*
X68659Y202736D01*
X68661Y202658D01*
X68675Y202580D01*
X68702Y202506D01*
X68739Y202437D01*
X68787Y202375D01*
X68845Y202321D01*
X68909Y202276D01*
X68981Y202242D01*
X69056Y202220D01*
X69134Y202210D01*
X69213Y202212D01*
X69290Y202227D01*
X69364Y202253D01*
X69433Y202291D01*
X69496Y202339D01*
X69550Y202396D01*
X69593Y202461D01*
X69666Y202600D01*
Y196619D01*
X69597Y196754D01*
X69553Y196819D01*
X69498Y196877D01*
X69435Y196925D01*
X69366Y196963D01*
X69291Y196990D01*
X69213Y197004D01*
X69134Y197006D01*
X69055Y196996D01*
X68979Y196974D01*
X68908Y196940D01*
X68842Y196895D01*
X68785Y196840D01*
X68736Y196778D01*
X68698Y196708D01*
X68672Y196633D01*
X68657Y196555D01*
X68655Y196476D01*
X68665Y196397D01*
X68688Y196321D01*
X68723Y196251D01*
X68869Y195974D01*
X68986Y195683D01*
X69074Y195382D01*
X69133Y195075D01*
X69162Y194763D01*
Y194450D01*
X69133Y194138D01*
X69074Y193830D01*
X68986Y193530D01*
X68869Y193239D01*
X68726Y192960D01*
X68691Y192890D01*
X68669Y192814D01*
X68659Y192736D01*
X68661Y192658D01*
X68675Y192580D01*
X68702Y192506D01*
X68739Y192437D01*
X68787Y192375D01*
X68845Y192321D01*
X68909Y192276D01*
X68981Y192242D01*
X69056Y192220D01*
X69134Y192210D01*
X69213Y192212D01*
X69290Y192227D01*
X69364Y192253D01*
X69433Y192291D01*
X69496Y192339D01*
X69550Y192396D01*
X69593Y192461D01*
X69666Y192600D01*
Y186619D01*
X69597Y186754D01*
X69553Y186819D01*
X69498Y186877D01*
X69435Y186925D01*
X69366Y186963D01*
X69291Y186990D01*
X69213Y187004D01*
X69134Y187006D01*
X69055Y186996D01*
X68979Y186974D01*
X68908Y186940D01*
X68842Y186895D01*
X68785Y186840D01*
X68736Y186778D01*
X68698Y186708D01*
X68672Y186633D01*
X68657Y186555D01*
X68655Y186476D01*
X68665Y186397D01*
X68688Y186321D01*
X68723Y186251D01*
X68869Y185974D01*
X68986Y185683D01*
X69074Y185382D01*
X69133Y185075D01*
X69162Y184763D01*
Y184450D01*
X69133Y184138D01*
X69074Y183830D01*
X68986Y183530D01*
X68869Y183239D01*
X68726Y182960D01*
X68691Y182890D01*
X68669Y182814D01*
X68659Y182736D01*
X68661Y182658D01*
X68675Y182580D01*
X68702Y182506D01*
X68739Y182437D01*
X68787Y182375D01*
X68845Y182321D01*
X68909Y182276D01*
X68981Y182242D01*
X69056Y182220D01*
X69134Y182210D01*
X69213Y182212D01*
X69290Y182227D01*
X69364Y182253D01*
X69433Y182291D01*
X69496Y182339D01*
X69550Y182396D01*
X69593Y182461D01*
X69666Y182600D01*
Y176619D01*
X69597Y176754D01*
X69553Y176819D01*
X69498Y176877D01*
X69435Y176925D01*
X69366Y176963D01*
X69291Y176990D01*
X69213Y177004D01*
X69134Y177006D01*
X69055Y176996D01*
X68979Y176974D01*
X68908Y176940D01*
X68842Y176895D01*
X68785Y176840D01*
X68736Y176778D01*
X68698Y176708D01*
X68672Y176633D01*
X68657Y176555D01*
X68655Y176476D01*
X68665Y176397D01*
X68688Y176321D01*
X68723Y176251D01*
X68869Y175974D01*
X68986Y175683D01*
X69074Y175382D01*
X69133Y175075D01*
X69162Y174763D01*
Y174450D01*
X69133Y174138D01*
X69074Y173830D01*
X68986Y173530D01*
X68869Y173239D01*
X68726Y172960D01*
X68691Y172890D01*
X68669Y172814D01*
X68659Y172736D01*
X68661Y172658D01*
X68675Y172580D01*
X68702Y172506D01*
X68739Y172437D01*
X68787Y172375D01*
X68845Y172321D01*
X68909Y172276D01*
X68981Y172242D01*
X69056Y172220D01*
X69134Y172210D01*
X69213Y172212D01*
X69290Y172227D01*
X69364Y172253D01*
X69433Y172291D01*
X69496Y172339D01*
X69550Y172396D01*
X69593Y172461D01*
X69666Y172600D01*
Y166619D01*
X69597Y166754D01*
X69553Y166819D01*
X69498Y166877D01*
X69435Y166925D01*
X69366Y166963D01*
X69291Y166990D01*
X69213Y167004D01*
X69134Y167006D01*
X69055Y166996D01*
X68979Y166974D01*
X68908Y166940D01*
X68842Y166895D01*
X68785Y166840D01*
X68736Y166778D01*
X68698Y166708D01*
X68672Y166633D01*
X68657Y166555D01*
X68655Y166476D01*
X68665Y166397D01*
X68688Y166321D01*
X68723Y166251D01*
X68869Y165974D01*
X68986Y165683D01*
X69074Y165382D01*
X69133Y165075D01*
X69162Y164763D01*
Y164450D01*
X69133Y164138D01*
X69074Y163830D01*
X68986Y163530D01*
X68869Y163239D01*
X68726Y162960D01*
X68691Y162890D01*
X68669Y162814D01*
X68659Y162736D01*
X68661Y162658D01*
X68675Y162580D01*
X68702Y162506D01*
X68739Y162437D01*
X68787Y162375D01*
X68845Y162321D01*
X68909Y162276D01*
X68981Y162242D01*
X69056Y162220D01*
X69134Y162210D01*
X69213Y162212D01*
X69290Y162227D01*
X69364Y162253D01*
X69433Y162291D01*
X69496Y162339D01*
X69550Y162396D01*
X69593Y162461D01*
X69666Y162600D01*
Y156619D01*
X69597Y156754D01*
X69553Y156819D01*
X69498Y156877D01*
X69435Y156925D01*
X69366Y156963D01*
X69291Y156990D01*
X69213Y157004D01*
X69134Y157006D01*
X69055Y156996D01*
X68979Y156974D01*
X68908Y156940D01*
X68842Y156895D01*
X68785Y156840D01*
X68736Y156778D01*
X68698Y156708D01*
X68672Y156633D01*
X68657Y156555D01*
X68655Y156476D01*
X68665Y156397D01*
X68688Y156321D01*
X68723Y156251D01*
X68869Y155974D01*
X68986Y155683D01*
X69074Y155382D01*
X69133Y155075D01*
X69162Y154763D01*
Y154450D01*
X69133Y154138D01*
X69074Y153830D01*
X68986Y153530D01*
X68869Y153239D01*
X68726Y152960D01*
X68691Y152890D01*
X68669Y152814D01*
X68659Y152736D01*
X68661Y152658D01*
X68675Y152580D01*
X68702Y152506D01*
X68739Y152437D01*
X68787Y152375D01*
X68845Y152321D01*
X68909Y152276D01*
X68981Y152242D01*
X69056Y152220D01*
X69134Y152210D01*
X69213Y152212D01*
X69290Y152227D01*
X69364Y152253D01*
X69433Y152291D01*
X69496Y152339D01*
X69550Y152396D01*
X69593Y152461D01*
X69666Y152600D01*
Y146619D01*
X69597Y146754D01*
X69553Y146819D01*
X69498Y146877D01*
X69435Y146925D01*
X69366Y146963D01*
X69291Y146990D01*
X69213Y147004D01*
X69134Y147006D01*
X69055Y146996D01*
X68979Y146974D01*
X68908Y146940D01*
X68842Y146895D01*
X68785Y146840D01*
X68736Y146778D01*
X68698Y146708D01*
X68672Y146633D01*
X68657Y146555D01*
X68655Y146476D01*
X68665Y146397D01*
X68688Y146321D01*
X68723Y146251D01*
X68869Y145974D01*
X68986Y145683D01*
X69074Y145382D01*
X69133Y145075D01*
X69162Y144763D01*
Y144450D01*
X69133Y144138D01*
X69074Y143830D01*
X68986Y143530D01*
X68869Y143239D01*
X68726Y142960D01*
X68691Y142890D01*
X68669Y142814D01*
X68659Y142736D01*
X68661Y142658D01*
X68675Y142580D01*
X68702Y142506D01*
X68739Y142437D01*
X68787Y142375D01*
X68845Y142321D01*
X68909Y142276D01*
X68981Y142242D01*
X69056Y142220D01*
X69134Y142210D01*
X69213Y142212D01*
X69290Y142227D01*
X69364Y142253D01*
X69433Y142291D01*
X69496Y142339D01*
X69550Y142396D01*
X69593Y142461D01*
X69666Y142600D01*
Y136619D01*
X69597Y136754D01*
X69553Y136819D01*
X69498Y136877D01*
X69435Y136925D01*
X69366Y136963D01*
X69291Y136990D01*
X69213Y137004D01*
X69134Y137006D01*
X69055Y136996D01*
X68979Y136974D01*
X68908Y136940D01*
X68842Y136895D01*
X68785Y136840D01*
X68736Y136778D01*
X68698Y136708D01*
X68672Y136633D01*
X68657Y136555D01*
X68655Y136476D01*
X68665Y136397D01*
X68688Y136321D01*
X68723Y136251D01*
X68869Y135974D01*
X68986Y135683D01*
X69074Y135382D01*
X69133Y135075D01*
X69162Y134763D01*
Y134450D01*
X69133Y134138D01*
X69074Y133830D01*
X68986Y133530D01*
X68869Y133239D01*
X68726Y132960D01*
X68691Y132890D01*
X68669Y132814D01*
X68659Y132736D01*
X68661Y132658D01*
X68675Y132580D01*
X68702Y132506D01*
X68739Y132437D01*
X68787Y132375D01*
X68845Y132321D01*
X68909Y132276D01*
X68981Y132242D01*
X69056Y132220D01*
X69134Y132210D01*
X69213Y132212D01*
X69290Y132227D01*
X69364Y132253D01*
X69433Y132291D01*
X69496Y132339D01*
X69550Y132396D01*
X69593Y132461D01*
X69666Y132600D01*
Y126619D01*
X69597Y126754D01*
X69553Y126819D01*
X69498Y126877D01*
X69435Y126925D01*
X69366Y126963D01*
X69291Y126990D01*
X69213Y127004D01*
X69134Y127006D01*
X69055Y126996D01*
X68979Y126974D01*
X68908Y126940D01*
X68842Y126895D01*
X68785Y126840D01*
X68736Y126778D01*
X68698Y126708D01*
X68672Y126633D01*
X68657Y126555D01*
X68655Y126476D01*
X68665Y126397D01*
X68688Y126321D01*
X68723Y126251D01*
X68869Y125974D01*
X68986Y125683D01*
X69074Y125382D01*
X69133Y125075D01*
X69162Y124763D01*
Y124450D01*
X69133Y124138D01*
X69074Y123830D01*
X68986Y123530D01*
X68869Y123239D01*
X68726Y122960D01*
X68691Y122890D01*
X68669Y122814D01*
X68659Y122736D01*
X68661Y122658D01*
X68675Y122580D01*
X68702Y122506D01*
X68739Y122437D01*
X68787Y122375D01*
X68845Y122321D01*
X68909Y122276D01*
X68981Y122242D01*
X69056Y122220D01*
X69134Y122210D01*
X69213Y122212D01*
X69290Y122227D01*
X69364Y122253D01*
X69433Y122291D01*
X69496Y122339D01*
X69550Y122396D01*
X69593Y122461D01*
X69666Y122600D01*
Y116619D01*
X69597Y116754D01*
X69553Y116819D01*
X69498Y116877D01*
X69435Y116925D01*
X69366Y116963D01*
X69291Y116990D01*
X69213Y117004D01*
X69134Y117006D01*
X69055Y116996D01*
X68979Y116974D01*
X68908Y116940D01*
X68842Y116895D01*
X68785Y116840D01*
X68736Y116778D01*
X68698Y116708D01*
X68672Y116633D01*
X68657Y116555D01*
X68655Y116476D01*
X68665Y116397D01*
X68688Y116321D01*
X68723Y116251D01*
X68869Y115974D01*
X68986Y115683D01*
X69074Y115382D01*
X69133Y115075D01*
X69162Y114763D01*
Y114450D01*
X69133Y114138D01*
X69074Y113830D01*
X68986Y113530D01*
X68869Y113239D01*
X68726Y112960D01*
X68691Y112890D01*
X68669Y112814D01*
X68659Y112736D01*
X68661Y112658D01*
X68675Y112580D01*
X68702Y112506D01*
X68739Y112437D01*
X68787Y112375D01*
X68845Y112321D01*
X68909Y112276D01*
X68981Y112242D01*
X69056Y112220D01*
X69134Y112210D01*
X69213Y112212D01*
X69290Y112227D01*
X69364Y112253D01*
X69433Y112291D01*
X69496Y112339D01*
X69550Y112396D01*
X69593Y112461D01*
X69666Y112600D01*
Y106619D01*
X69597Y106754D01*
X69553Y106819D01*
X69498Y106877D01*
X69435Y106925D01*
X69366Y106963D01*
X69291Y106990D01*
X69213Y107004D01*
X69134Y107006D01*
X69055Y106996D01*
X68979Y106974D01*
X68908Y106940D01*
X68842Y106895D01*
X68785Y106840D01*
X68736Y106778D01*
X68698Y106708D01*
X68672Y106633D01*
X68657Y106555D01*
X68655Y106476D01*
X68665Y106397D01*
X68688Y106321D01*
X68723Y106251D01*
X68869Y105974D01*
X68986Y105683D01*
X69074Y105382D01*
X69133Y105075D01*
X69162Y104763D01*
Y104450D01*
X69133Y104138D01*
X69074Y103830D01*
X68986Y103530D01*
X68869Y103239D01*
X68726Y102960D01*
X68691Y102890D01*
X68669Y102814D01*
X68659Y102736D01*
X68661Y102658D01*
X68675Y102580D01*
X68702Y102506D01*
X68739Y102437D01*
X68787Y102375D01*
X68845Y102321D01*
X68909Y102276D01*
X68981Y102242D01*
X69056Y102220D01*
X69134Y102210D01*
X69213Y102212D01*
X69290Y102227D01*
X69364Y102253D01*
X69433Y102291D01*
X69496Y102339D01*
X69550Y102396D01*
X69593Y102461D01*
X69666Y102600D01*
Y96619D01*
X69597Y96754D01*
X69553Y96819D01*
X69498Y96877D01*
X69435Y96925D01*
X69366Y96963D01*
X69291Y96990D01*
X69213Y97004D01*
X69134Y97006D01*
X69055Y96996D01*
X68979Y96974D01*
X68908Y96940D01*
X68842Y96895D01*
X68785Y96840D01*
X68736Y96778D01*
X68698Y96708D01*
X68672Y96633D01*
X68657Y96555D01*
X68655Y96476D01*
X68665Y96397D01*
X68688Y96321D01*
X68723Y96251D01*
X68869Y95974D01*
X68986Y95683D01*
X69074Y95382D01*
X69133Y95075D01*
X69162Y94763D01*
Y94450D01*
X69133Y94138D01*
X69074Y93830D01*
X68986Y93530D01*
X68869Y93239D01*
X68726Y92960D01*
X68691Y92890D01*
X68669Y92814D01*
X68659Y92736D01*
X68661Y92658D01*
X68675Y92580D01*
X68702Y92506D01*
X68739Y92437D01*
X68787Y92375D01*
X68845Y92321D01*
X68909Y92276D01*
X68981Y92242D01*
X69056Y92220D01*
X69134Y92210D01*
X69213Y92212D01*
X69290Y92227D01*
X69364Y92253D01*
X69433Y92291D01*
X69496Y92339D01*
X69550Y92396D01*
X69593Y92461D01*
X69666Y92600D01*
Y86619D01*
X69597Y86754D01*
X69553Y86819D01*
X69498Y86877D01*
X69435Y86925D01*
X69366Y86963D01*
X69291Y86990D01*
X69213Y87004D01*
X69134Y87006D01*
X69055Y86996D01*
X68979Y86974D01*
X68908Y86940D01*
X68842Y86895D01*
X68785Y86840D01*
X68736Y86778D01*
X68698Y86708D01*
X68672Y86633D01*
X68657Y86555D01*
X68655Y86476D01*
X68665Y86397D01*
X68688Y86321D01*
X68723Y86251D01*
X68869Y85974D01*
X68986Y85683D01*
X69074Y85382D01*
X69133Y85075D01*
X69162Y84763D01*
Y84450D01*
X69133Y84138D01*
X69074Y83830D01*
X68986Y83530D01*
X68869Y83239D01*
X68726Y82960D01*
X68691Y82890D01*
X68669Y82814D01*
X68659Y82736D01*
X68661Y82658D01*
X68675Y82580D01*
X68702Y82506D01*
X68739Y82437D01*
X68787Y82375D01*
X68845Y82321D01*
X68909Y82276D01*
X68981Y82242D01*
X69056Y82220D01*
X69134Y82210D01*
X69213Y82212D01*
X69290Y82227D01*
X69364Y82253D01*
X69433Y82291D01*
X69496Y82339D01*
X69550Y82396D01*
X69593Y82461D01*
X69666Y82600D01*
Y76619D01*
X69597Y76754D01*
X69553Y76819D01*
X69498Y76877D01*
X69435Y76925D01*
X69366Y76963D01*
X69291Y76990D01*
X69213Y77004D01*
X69134Y77006D01*
X69055Y76996D01*
X68979Y76974D01*
X68908Y76940D01*
X68842Y76895D01*
X68785Y76840D01*
X68736Y76778D01*
X68698Y76708D01*
X68672Y76633D01*
X68657Y76555D01*
X68655Y76476D01*
X68665Y76397D01*
X68688Y76321D01*
X68723Y76251D01*
X68869Y75974D01*
X68986Y75683D01*
X69074Y75382D01*
X69133Y75075D01*
X69162Y74763D01*
Y74450D01*
X69133Y74138D01*
X69074Y73830D01*
X68986Y73530D01*
X68869Y73239D01*
X68726Y72960D01*
X68691Y72890D01*
X68669Y72814D01*
X68659Y72736D01*
X68661Y72658D01*
X68675Y72580D01*
X68702Y72506D01*
X68739Y72437D01*
X68787Y72375D01*
X68845Y72321D01*
X68909Y72276D01*
X68981Y72242D01*
X69056Y72220D01*
X69134Y72210D01*
X69213Y72212D01*
X69290Y72227D01*
X69364Y72253D01*
X69433Y72291D01*
X69496Y72339D01*
X69550Y72396D01*
X69593Y72461D01*
X69666Y72600D01*
Y51321D01*
X69487Y51269D01*
X69114Y51121D01*
X68757Y50939D01*
X68691Y50895D01*
X68633Y50841D01*
X68585Y50778D01*
X68546Y50708D01*
X68520Y50634D01*
X68505Y50556D01*
X68502Y50477D01*
X68512Y50398D01*
X68534Y50322D01*
X68568Y50250D01*
X68613Y50185D01*
X68667Y50127D01*
X68730Y50078D01*
X68799Y50040D01*
X68874Y50013D01*
X68952Y49999D01*
X69031Y49996D01*
X69110Y50006D01*
X69186Y50028D01*
X69257Y50063D01*
X69528Y50206D01*
X69666Y50261D01*
Y44228D01*
X69528Y44282D01*
X69255Y44422D01*
X69184Y44457D01*
X69109Y44478D01*
X69031Y44488D01*
X68952Y44486D01*
X68875Y44471D01*
X68801Y44445D01*
X68732Y44407D01*
X68670Y44358D01*
X68616Y44301D01*
X68571Y44236D01*
X68538Y44165D01*
X68516Y44089D01*
X68506Y44011D01*
X68508Y43933D01*
X68523Y43855D01*
X68550Y43781D01*
X68588Y43712D01*
X68636Y43650D01*
X68693Y43596D01*
X68759Y43553D01*
X69114Y43367D01*
X69487Y43219D01*
X69666Y43167D01*
Y39370D01*
X67365Y39370D01*
Y44945D01*
X67402Y44924D01*
X67476Y44898D01*
X67554Y44883D01*
X67633Y44880D01*
X67712Y44890D01*
X67788Y44912D01*
X67860Y44946D01*
X67925Y44991D01*
X67983Y45045D01*
X68032Y45108D01*
X68070Y45177D01*
X68097Y45252D01*
X68112Y45330D01*
X68114Y45409D01*
X68104Y45488D01*
X68082Y45564D01*
X68047Y45635D01*
X67904Y45906D01*
X67792Y46191D01*
X67706Y46485D01*
X67649Y46786D01*
X67620Y47091D01*
Y47397D01*
X67649Y47702D01*
X67706Y48003D01*
X67792Y48298D01*
X67904Y48582D01*
X68044Y48855D01*
X68079Y48926D01*
X68101Y49001D01*
X68110Y49079D01*
X68108Y49158D01*
X68093Y49235D01*
X68067Y49309D01*
X68029Y49378D01*
X67981Y49441D01*
X67923Y49495D01*
X67858Y49539D01*
X67787Y49572D01*
X67711Y49594D01*
X67633Y49604D01*
X67555Y49602D01*
X67477Y49587D01*
X67403Y49560D01*
X67365Y49540D01*
Y70575D01*
X67650Y70688D01*
X68013Y70875D01*
X68079Y70920D01*
X68137Y70974D01*
X68185Y71037D01*
X68223Y71107D01*
X68250Y71181D01*
X68264Y71259D01*
X68266Y71339D01*
X68256Y71417D01*
X68234Y71493D01*
X68200Y71565D01*
X68155Y71630D01*
X68100Y71688D01*
X68037Y71736D01*
X67968Y71774D01*
X67893Y71801D01*
X67815Y71815D01*
X67736Y71817D01*
X67657Y71807D01*
X67581Y71785D01*
X67510Y71749D01*
X67365Y71673D01*
Y77542D01*
X67512Y77466D01*
X67583Y77431D01*
X67658Y77409D01*
X67736Y77399D01*
X67815Y77401D01*
X67892Y77416D01*
X67966Y77442D01*
X68035Y77480D01*
X68098Y77528D01*
X68152Y77585D01*
X68196Y77650D01*
X68230Y77721D01*
X68252Y77796D01*
X68263Y77874D01*
X68260Y77953D01*
X68246Y78030D01*
X68220Y78104D01*
X68182Y78174D01*
X68134Y78236D01*
X68077Y78290D01*
X68011Y78333D01*
X67650Y78524D01*
X67365Y78638D01*
Y80575D01*
X67650Y80688D01*
X68013Y80875D01*
X68079Y80920D01*
X68137Y80974D01*
X68185Y81037D01*
X68223Y81107D01*
X68250Y81181D01*
X68264Y81259D01*
X68266Y81339D01*
X68256Y81417D01*
X68234Y81493D01*
X68200Y81565D01*
X68155Y81630D01*
X68100Y81688D01*
X68037Y81736D01*
X67968Y81774D01*
X67893Y81801D01*
X67815Y81815D01*
X67736Y81817D01*
X67657Y81807D01*
X67581Y81785D01*
X67510Y81749D01*
X67365Y81673D01*
Y87542D01*
X67512Y87466D01*
X67583Y87431D01*
X67658Y87409D01*
X67736Y87399D01*
X67815Y87401D01*
X67892Y87416D01*
X67966Y87442D01*
X68035Y87480D01*
X68098Y87528D01*
X68152Y87585D01*
X68196Y87650D01*
X68230Y87721D01*
X68252Y87796D01*
X68263Y87874D01*
X68260Y87953D01*
X68246Y88030D01*
X68220Y88104D01*
X68182Y88174D01*
X68134Y88236D01*
X68077Y88290D01*
X68011Y88333D01*
X67650Y88524D01*
X67365Y88638D01*
Y90575D01*
X67650Y90688D01*
X68013Y90875D01*
X68079Y90920D01*
X68137Y90974D01*
X68185Y91037D01*
X68223Y91107D01*
X68250Y91181D01*
X68264Y91259D01*
X68266Y91339D01*
X68256Y91417D01*
X68234Y91493D01*
X68200Y91565D01*
X68155Y91630D01*
X68100Y91688D01*
X68037Y91736D01*
X67968Y91774D01*
X67893Y91801D01*
X67815Y91815D01*
X67736Y91817D01*
X67657Y91807D01*
X67581Y91785D01*
X67510Y91749D01*
X67365Y91673D01*
Y97542D01*
X67512Y97466D01*
X67583Y97431D01*
X67658Y97409D01*
X67736Y97399D01*
X67815Y97401D01*
X67892Y97416D01*
X67966Y97442D01*
X68035Y97480D01*
X68098Y97528D01*
X68152Y97585D01*
X68196Y97650D01*
X68230Y97721D01*
X68252Y97796D01*
X68263Y97874D01*
X68260Y97953D01*
X68246Y98030D01*
X68220Y98104D01*
X68182Y98174D01*
X68134Y98236D01*
X68077Y98290D01*
X68011Y98333D01*
X67650Y98524D01*
X67365Y98638D01*
Y100575D01*
X67650Y100688D01*
X68013Y100875D01*
X68079Y100920D01*
X68137Y100974D01*
X68185Y101037D01*
X68223Y101107D01*
X68250Y101181D01*
X68264Y101259D01*
X68266Y101339D01*
X68256Y101417D01*
X68234Y101493D01*
X68200Y101565D01*
X68155Y101630D01*
X68100Y101688D01*
X68037Y101736D01*
X67968Y101774D01*
X67893Y101801D01*
X67815Y101815D01*
X67736Y101817D01*
X67657Y101807D01*
X67581Y101785D01*
X67510Y101749D01*
X67365Y101673D01*
Y107542D01*
X67512Y107466D01*
X67583Y107431D01*
X67658Y107409D01*
X67736Y107399D01*
X67815Y107401D01*
X67892Y107416D01*
X67966Y107442D01*
X68035Y107480D01*
X68098Y107528D01*
X68152Y107585D01*
X68196Y107650D01*
X68230Y107721D01*
X68252Y107796D01*
X68263Y107874D01*
X68260Y107953D01*
X68246Y108030D01*
X68220Y108104D01*
X68182Y108174D01*
X68134Y108236D01*
X68077Y108290D01*
X68011Y108333D01*
X67650Y108524D01*
X67365Y108638D01*
Y110575D01*
X67650Y110688D01*
X68013Y110875D01*
X68079Y110920D01*
X68137Y110974D01*
X68185Y111037D01*
X68223Y111107D01*
X68250Y111181D01*
X68264Y111259D01*
X68266Y111339D01*
X68256Y111417D01*
X68234Y111493D01*
X68200Y111565D01*
X68155Y111630D01*
X68100Y111688D01*
X68037Y111736D01*
X67968Y111774D01*
X67893Y111801D01*
X67815Y111815D01*
X67736Y111817D01*
X67657Y111807D01*
X67581Y111785D01*
X67510Y111749D01*
X67365Y111673D01*
Y117542D01*
X67512Y117466D01*
X67583Y117431D01*
X67658Y117409D01*
X67736Y117399D01*
X67815Y117401D01*
X67892Y117416D01*
X67966Y117442D01*
X68035Y117480D01*
X68098Y117528D01*
X68152Y117585D01*
X68196Y117650D01*
X68230Y117721D01*
X68252Y117796D01*
X68263Y117874D01*
X68260Y117953D01*
X68246Y118030D01*
X68220Y118104D01*
X68182Y118174D01*
X68134Y118236D01*
X68077Y118290D01*
X68011Y118333D01*
X67650Y118524D01*
X67365Y118638D01*
Y120575D01*
X67650Y120688D01*
X68013Y120875D01*
X68079Y120920D01*
X68137Y120974D01*
X68185Y121037D01*
X68223Y121107D01*
X68250Y121181D01*
X68264Y121259D01*
X68266Y121339D01*
X68256Y121417D01*
X68234Y121493D01*
X68200Y121565D01*
X68155Y121630D01*
X68100Y121688D01*
X68037Y121736D01*
X67968Y121774D01*
X67893Y121801D01*
X67815Y121815D01*
X67736Y121817D01*
X67657Y121807D01*
X67581Y121785D01*
X67510Y121749D01*
X67365Y121673D01*
Y127542D01*
X67512Y127466D01*
X67583Y127431D01*
X67658Y127409D01*
X67736Y127399D01*
X67815Y127401D01*
X67892Y127416D01*
X67966Y127442D01*
X68035Y127480D01*
X68098Y127528D01*
X68152Y127585D01*
X68196Y127650D01*
X68230Y127721D01*
X68252Y127796D01*
X68263Y127874D01*
X68260Y127953D01*
X68246Y128030D01*
X68220Y128104D01*
X68182Y128174D01*
X68134Y128236D01*
X68077Y128290D01*
X68011Y128333D01*
X67650Y128524D01*
X67365Y128638D01*
Y130575D01*
X67650Y130688D01*
X68013Y130875D01*
X68079Y130920D01*
X68137Y130974D01*
X68185Y131037D01*
X68223Y131107D01*
X68250Y131181D01*
X68264Y131259D01*
X68266Y131339D01*
X68256Y131417D01*
X68234Y131493D01*
X68200Y131565D01*
X68155Y131630D01*
X68100Y131688D01*
X68037Y131736D01*
X67968Y131774D01*
X67893Y131801D01*
X67815Y131815D01*
X67736Y131817D01*
X67657Y131807D01*
X67581Y131785D01*
X67510Y131749D01*
X67365Y131673D01*
Y137542D01*
X67512Y137466D01*
X67583Y137431D01*
X67658Y137409D01*
X67736Y137399D01*
X67815Y137401D01*
X67892Y137416D01*
X67966Y137442D01*
X68035Y137480D01*
X68098Y137528D01*
X68152Y137585D01*
X68196Y137650D01*
X68230Y137721D01*
X68252Y137796D01*
X68263Y137874D01*
X68260Y137953D01*
X68246Y138030D01*
X68220Y138104D01*
X68182Y138174D01*
X68134Y138236D01*
X68077Y138290D01*
X68011Y138333D01*
X67650Y138524D01*
X67365Y138638D01*
Y140575D01*
X67650Y140688D01*
X68013Y140875D01*
X68079Y140920D01*
X68137Y140974D01*
X68185Y141037D01*
X68223Y141107D01*
X68250Y141181D01*
X68264Y141259D01*
X68266Y141339D01*
X68256Y141417D01*
X68234Y141493D01*
X68200Y141565D01*
X68155Y141630D01*
X68100Y141688D01*
X68037Y141736D01*
X67968Y141774D01*
X67893Y141801D01*
X67815Y141815D01*
X67736Y141817D01*
X67657Y141807D01*
X67581Y141785D01*
X67510Y141749D01*
X67365Y141673D01*
Y147542D01*
X67512Y147466D01*
X67583Y147431D01*
X67658Y147409D01*
X67736Y147399D01*
X67815Y147401D01*
X67892Y147416D01*
X67966Y147442D01*
X68035Y147480D01*
X68098Y147528D01*
X68152Y147585D01*
X68196Y147650D01*
X68230Y147721D01*
X68252Y147796D01*
X68263Y147874D01*
X68260Y147953D01*
X68246Y148030D01*
X68220Y148104D01*
X68182Y148174D01*
X68134Y148236D01*
X68077Y148290D01*
X68011Y148333D01*
X67650Y148524D01*
X67365Y148638D01*
Y150575D01*
X67650Y150688D01*
X68013Y150875D01*
X68079Y150920D01*
X68137Y150974D01*
X68185Y151037D01*
X68223Y151107D01*
X68250Y151181D01*
X68264Y151259D01*
X68266Y151339D01*
X68256Y151417D01*
X68234Y151493D01*
X68200Y151565D01*
X68155Y151630D01*
X68100Y151688D01*
X68037Y151736D01*
X67968Y151774D01*
X67893Y151801D01*
X67815Y151815D01*
X67736Y151817D01*
X67657Y151807D01*
X67581Y151785D01*
X67510Y151749D01*
X67365Y151673D01*
Y157542D01*
X67512Y157466D01*
X67583Y157431D01*
X67658Y157409D01*
X67736Y157399D01*
X67815Y157401D01*
X67892Y157416D01*
X67966Y157442D01*
X68035Y157480D01*
X68098Y157528D01*
X68152Y157585D01*
X68196Y157650D01*
X68230Y157721D01*
X68252Y157796D01*
X68263Y157874D01*
X68260Y157953D01*
X68246Y158030D01*
X68220Y158104D01*
X68182Y158174D01*
X68134Y158236D01*
X68077Y158290D01*
X68011Y158333D01*
X67650Y158524D01*
X67365Y158638D01*
Y160575D01*
X67650Y160688D01*
X68013Y160875D01*
X68079Y160920D01*
X68137Y160974D01*
X68185Y161037D01*
X68223Y161107D01*
X68250Y161181D01*
X68264Y161259D01*
X68266Y161339D01*
X68256Y161417D01*
X68234Y161493D01*
X68200Y161565D01*
X68155Y161630D01*
X68100Y161688D01*
X68037Y161736D01*
X67968Y161774D01*
X67893Y161801D01*
X67815Y161815D01*
X67736Y161817D01*
X67657Y161807D01*
X67581Y161785D01*
X67510Y161749D01*
X67365Y161673D01*
Y167542D01*
X67512Y167466D01*
X67583Y167431D01*
X67658Y167409D01*
X67736Y167399D01*
X67815Y167401D01*
X67892Y167416D01*
X67966Y167442D01*
X68035Y167480D01*
X68098Y167528D01*
X68152Y167585D01*
X68196Y167650D01*
X68230Y167721D01*
X68252Y167796D01*
X68263Y167874D01*
X68260Y167953D01*
X68246Y168030D01*
X68220Y168104D01*
X68182Y168174D01*
X68134Y168236D01*
X68077Y168290D01*
X68011Y168333D01*
X67650Y168524D01*
X67365Y168638D01*
Y170575D01*
X67650Y170688D01*
X68013Y170875D01*
X68079Y170920D01*
X68137Y170974D01*
X68185Y171037D01*
X68223Y171107D01*
X68250Y171181D01*
X68264Y171259D01*
X68266Y171339D01*
X68256Y171417D01*
X68234Y171493D01*
X68200Y171565D01*
X68155Y171630D01*
X68100Y171688D01*
X68037Y171736D01*
X67968Y171774D01*
X67893Y171801D01*
X67815Y171815D01*
X67736Y171817D01*
X67657Y171807D01*
X67581Y171785D01*
X67510Y171749D01*
X67365Y171673D01*
Y177542D01*
X67512Y177466D01*
X67583Y177431D01*
X67658Y177409D01*
X67736Y177399D01*
X67815Y177401D01*
X67892Y177416D01*
X67966Y177442D01*
X68035Y177480D01*
X68098Y177528D01*
X68152Y177585D01*
X68196Y177650D01*
X68230Y177721D01*
X68252Y177796D01*
X68263Y177874D01*
X68260Y177953D01*
X68246Y178030D01*
X68220Y178104D01*
X68182Y178174D01*
X68134Y178236D01*
X68077Y178290D01*
X68011Y178333D01*
X67650Y178524D01*
X67365Y178638D01*
Y180575D01*
X67650Y180688D01*
X68013Y180875D01*
X68079Y180920D01*
X68137Y180974D01*
X68185Y181037D01*
X68223Y181107D01*
X68250Y181181D01*
X68264Y181259D01*
X68266Y181339D01*
X68256Y181417D01*
X68234Y181493D01*
X68200Y181565D01*
X68155Y181630D01*
X68100Y181688D01*
X68037Y181736D01*
X67968Y181774D01*
X67893Y181801D01*
X67815Y181815D01*
X67736Y181817D01*
X67657Y181807D01*
X67581Y181785D01*
X67510Y181749D01*
X67365Y181673D01*
Y187542D01*
X67512Y187466D01*
X67583Y187431D01*
X67658Y187409D01*
X67736Y187399D01*
X67815Y187401D01*
X67892Y187416D01*
X67966Y187442D01*
X68035Y187480D01*
X68098Y187528D01*
X68152Y187585D01*
X68196Y187650D01*
X68230Y187721D01*
X68252Y187796D01*
X68263Y187874D01*
X68260Y187953D01*
X68246Y188030D01*
X68220Y188104D01*
X68182Y188174D01*
X68134Y188236D01*
X68077Y188290D01*
X68011Y188333D01*
X67650Y188524D01*
X67365Y188638D01*
Y190575D01*
X67650Y190688D01*
X68013Y190875D01*
X68079Y190920D01*
X68137Y190974D01*
X68185Y191037D01*
X68223Y191107D01*
X68250Y191181D01*
X68264Y191259D01*
X68266Y191339D01*
X68256Y191417D01*
X68234Y191493D01*
X68200Y191565D01*
X68155Y191630D01*
X68100Y191688D01*
X68037Y191736D01*
X67968Y191774D01*
X67893Y191801D01*
X67815Y191815D01*
X67736Y191817D01*
X67657Y191807D01*
X67581Y191785D01*
X67510Y191749D01*
X67365Y191673D01*
Y197542D01*
X67512Y197466D01*
X67583Y197431D01*
X67658Y197409D01*
X67736Y197399D01*
X67815Y197401D01*
X67892Y197416D01*
X67966Y197442D01*
X68035Y197480D01*
X68098Y197528D01*
X68152Y197585D01*
X68196Y197650D01*
X68230Y197721D01*
X68252Y197796D01*
X68263Y197874D01*
X68260Y197953D01*
X68246Y198030D01*
X68220Y198104D01*
X68182Y198174D01*
X68134Y198236D01*
X68077Y198290D01*
X68011Y198333D01*
X67650Y198524D01*
X67365Y198638D01*
Y200575D01*
X67650Y200688D01*
X68013Y200875D01*
X68079Y200920D01*
X68137Y200974D01*
X68185Y201037D01*
X68223Y201107D01*
X68250Y201181D01*
X68264Y201259D01*
X68266Y201339D01*
X68256Y201417D01*
X68234Y201493D01*
X68200Y201565D01*
X68155Y201630D01*
X68100Y201688D01*
X68037Y201736D01*
X67968Y201774D01*
X67893Y201801D01*
X67815Y201815D01*
X67736Y201817D01*
X67657Y201807D01*
X67581Y201785D01*
X67510Y201749D01*
X67365Y201673D01*
Y207542D01*
X67512Y207466D01*
X67583Y207431D01*
X67658Y207409D01*
X67736Y207399D01*
X67815Y207401D01*
X67892Y207416D01*
X67966Y207442D01*
X68035Y207480D01*
X68098Y207528D01*
X68152Y207585D01*
X68196Y207650D01*
X68230Y207721D01*
X68252Y207796D01*
X68263Y207874D01*
X68260Y207953D01*
X68246Y208030D01*
X68220Y208104D01*
X68182Y208174D01*
X68134Y208236D01*
X68077Y208290D01*
X68011Y208333D01*
X67650Y208524D01*
X67365Y208638D01*
Y210575D01*
X67650Y210688D01*
X68013Y210875D01*
X68079Y210920D01*
X68137Y210974D01*
X68185Y211037D01*
X68223Y211107D01*
X68250Y211181D01*
X68264Y211259D01*
X68266Y211339D01*
X68256Y211417D01*
X68234Y211493D01*
X68200Y211565D01*
X68155Y211630D01*
X68100Y211688D01*
X68037Y211736D01*
X67968Y211774D01*
X67893Y211801D01*
X67815Y211815D01*
X67736Y211817D01*
X67657Y211807D01*
X67581Y211785D01*
X67510Y211749D01*
X67365Y211673D01*
Y217542D01*
X67512Y217466D01*
X67583Y217431D01*
X67658Y217409D01*
X67736Y217399D01*
X67815Y217401D01*
X67892Y217416D01*
X67966Y217442D01*
X68035Y217480D01*
X68098Y217528D01*
X68152Y217585D01*
X68196Y217650D01*
X68230Y217721D01*
X68252Y217796D01*
X68263Y217874D01*
X68260Y217953D01*
X68246Y218030D01*
X68220Y218104D01*
X68182Y218174D01*
X68134Y218236D01*
X68077Y218290D01*
X68011Y218333D01*
X67650Y218524D01*
X67365Y218638D01*
Y220306D01*
X68166D01*
X68245Y220311D01*
X68321Y220329D01*
X68394Y220359D01*
X68461Y220401D01*
X68521Y220452D01*
X68572Y220511D01*
X68613Y220579D01*
X68643Y220651D01*
X68662Y220728D01*
X68668Y220806D01*
X68662Y220885D01*
X68643Y220961D01*
X68613Y221034D01*
X68572Y221101D01*
X68521Y221161D01*
X68461Y221212D01*
X68394Y221253D01*
X68321Y221283D01*
X68245Y221302D01*
X68166Y221306D01*
X67365D01*
Y227906D01*
X68166D01*
X68245Y227911D01*
X68321Y227929D01*
X68394Y227959D01*
X68461Y228001D01*
X68521Y228052D01*
X68572Y228111D01*
X68613Y228179D01*
X68643Y228251D01*
X68662Y228328D01*
X68668Y228406D01*
X68662Y228485D01*
X68643Y228561D01*
X68613Y228634D01*
X68572Y228701D01*
X68521Y228761D01*
X68461Y228812D01*
X68394Y228853D01*
X68321Y228883D01*
X68245Y228902D01*
X68166Y228906D01*
X67365D01*
Y314679D01*
G37*
G36*
Y334364D02*X70868D01*
Y319179D01*
X67365D01*
Y334364D01*
G37*
G36*
Y413386D02*X70868D01*
Y409762D01*
X70666D01*
X70266Y409724D01*
X69872Y409649D01*
X69487Y409537D01*
X69114Y409389D01*
X68757Y409207D01*
X68691Y409163D01*
X68633Y409108D01*
X68585Y409046D01*
X68546Y408976D01*
X68520Y408902D01*
X68505Y408824D01*
X68502Y408745D01*
X68512Y408666D01*
X68534Y408590D01*
X68568Y408518D01*
X68613Y408452D01*
X68667Y408395D01*
X68730Y408346D01*
X68799Y408308D01*
X68874Y408281D01*
X68952Y408266D01*
X69031Y408264D01*
X69110Y408274D01*
X69186Y408296D01*
X69257Y408331D01*
X69528Y408473D01*
X69813Y408586D01*
X70107Y408672D01*
X70408Y408729D01*
X70713Y408758D01*
X70868D01*
Y402265D01*
X70713D01*
X70408Y402294D01*
X70107Y402352D01*
X69813Y402437D01*
X69528Y402550D01*
X69255Y402689D01*
X69184Y402724D01*
X69109Y402746D01*
X69031Y402756D01*
X68952Y402754D01*
X68875Y402739D01*
X68801Y402712D01*
X68732Y402674D01*
X68670Y402626D01*
X68616Y402569D01*
X68571Y402504D01*
X68538Y402433D01*
X68516Y402357D01*
X68506Y402279D01*
X68508Y402200D01*
X68523Y402123D01*
X68550Y402049D01*
X68588Y401980D01*
X68636Y401918D01*
X68693Y401864D01*
X68759Y401821D01*
X69114Y401635D01*
X69487Y401487D01*
X69872Y401375D01*
X70266Y401300D01*
X70666Y401262D01*
X70868D01*
Y338864D01*
X67365D01*
Y403212D01*
X67402Y403192D01*
X67476Y403165D01*
X67554Y403151D01*
X67633Y403148D01*
X67712Y403158D01*
X67788Y403180D01*
X67860Y403214D01*
X67925Y403259D01*
X67983Y403313D01*
X68032Y403375D01*
X68070Y403445D01*
X68097Y403520D01*
X68112Y403597D01*
X68114Y403677D01*
X68104Y403755D01*
X68082Y403831D01*
X68047Y403902D01*
X67904Y404173D01*
X67792Y404458D01*
X67706Y404753D01*
X67649Y405054D01*
X67620Y405359D01*
Y405665D01*
X67649Y405970D01*
X67706Y406271D01*
X67792Y406565D01*
X67904Y406850D01*
X68044Y407123D01*
X68079Y407194D01*
X68101Y407269D01*
X68110Y407347D01*
X68108Y407426D01*
X68093Y407503D01*
X68067Y407577D01*
X68029Y407646D01*
X67981Y407708D01*
X67923Y407762D01*
X67858Y407807D01*
X67787Y407840D01*
X67711Y407862D01*
X67633Y407872D01*
X67555Y407870D01*
X67477Y407855D01*
X67403Y407828D01*
X67365Y407807D01*
Y413386D01*
G37*
G36*
X62066Y314679D02*X67365D01*
Y228906D01*
X63566D01*
X63488Y228902D01*
X63411Y228883D01*
X63338Y228853D01*
X63271Y228812D01*
X63211Y228761D01*
X63160Y228701D01*
X63119Y228634D01*
X63089Y228561D01*
X63071Y228485D01*
X63065Y228406D01*
X63071Y228328D01*
X63089Y228251D01*
X63119Y228179D01*
X63160Y228111D01*
X63211Y228052D01*
X63271Y228001D01*
X63338Y227959D01*
X63411Y227929D01*
X63488Y227911D01*
X63566Y227906D01*
X67365D01*
Y221306D01*
X63566D01*
X63488Y221302D01*
X63411Y221283D01*
X63338Y221253D01*
X63271Y221212D01*
X63211Y221161D01*
X63160Y221101D01*
X63119Y221034D01*
X63089Y220961D01*
X63071Y220885D01*
X63065Y220806D01*
X63071Y220728D01*
X63089Y220651D01*
X63119Y220579D01*
X63160Y220511D01*
X63211Y220452D01*
X63271Y220401D01*
X63338Y220359D01*
X63411Y220329D01*
X63488Y220311D01*
X63566Y220306D01*
X67365D01*
Y218638D01*
X67271Y218676D01*
X66878Y218790D01*
X66477Y218868D01*
X66070Y218906D01*
X65662D01*
X65255Y218868D01*
X64854Y218790D01*
X64462Y218676D01*
X64082Y218524D01*
X63719Y218337D01*
X63653Y218293D01*
X63596Y218238D01*
X63547Y218176D01*
X63509Y218106D01*
X63483Y218031D01*
X63468Y217953D01*
X63466Y217874D01*
X63476Y217795D01*
X63499Y217719D01*
X63533Y217648D01*
X63578Y217582D01*
X63632Y217525D01*
X63695Y217476D01*
X63764Y217438D01*
X63839Y217412D01*
X63917Y217397D01*
X63996Y217395D01*
X64075Y217405D01*
X64151Y217428D01*
X64222Y217463D01*
X64499Y217610D01*
X64790Y217726D01*
X65090Y217814D01*
X65398Y217873D01*
X65710Y217903D01*
X66023D01*
X66335Y217873D01*
X66642Y217814D01*
X66943Y217726D01*
X67234Y217610D01*
X67365Y217542D01*
Y211673D01*
X67234Y211603D01*
X66943Y211487D01*
X66642Y211399D01*
X66335Y211340D01*
X66023Y211310D01*
X65710D01*
X65398Y211340D01*
X65090Y211399D01*
X64790Y211487D01*
X64499Y211603D01*
X64220Y211746D01*
X64150Y211781D01*
X64074Y211804D01*
X63996Y211814D01*
X63918Y211812D01*
X63840Y211797D01*
X63766Y211771D01*
X63697Y211733D01*
X63635Y211685D01*
X63580Y211628D01*
X63536Y211563D01*
X63502Y211492D01*
X63480Y211416D01*
X63470Y211338D01*
X63472Y211260D01*
X63486Y211182D01*
X63513Y211108D01*
X63550Y211039D01*
X63598Y210977D01*
X63656Y210923D01*
X63721Y210879D01*
X64082Y210688D01*
X64462Y210537D01*
X64854Y210422D01*
X65255Y210345D01*
X65662Y210306D01*
X66070D01*
X66477Y210345D01*
X66878Y210422D01*
X67271Y210537D01*
X67365Y210575D01*
Y208638D01*
X67271Y208676D01*
X66878Y208790D01*
X66477Y208868D01*
X66070Y208906D01*
X65662D01*
X65255Y208868D01*
X64854Y208790D01*
X64462Y208676D01*
X64082Y208524D01*
X63719Y208337D01*
X63653Y208293D01*
X63596Y208238D01*
X63547Y208176D01*
X63509Y208106D01*
X63483Y208031D01*
X63468Y207953D01*
X63466Y207874D01*
X63476Y207795D01*
X63499Y207719D01*
X63533Y207648D01*
X63578Y207582D01*
X63632Y207525D01*
X63695Y207476D01*
X63764Y207438D01*
X63839Y207412D01*
X63917Y207397D01*
X63996Y207395D01*
X64075Y207405D01*
X64151Y207428D01*
X64222Y207463D01*
X64499Y207610D01*
X64790Y207726D01*
X65090Y207814D01*
X65398Y207873D01*
X65710Y207903D01*
X66023D01*
X66335Y207873D01*
X66642Y207814D01*
X66943Y207726D01*
X67234Y207610D01*
X67365Y207542D01*
Y201673D01*
X67234Y201603D01*
X66943Y201487D01*
X66642Y201399D01*
X66335Y201340D01*
X66023Y201310D01*
X65710D01*
X65398Y201340D01*
X65090Y201399D01*
X64790Y201487D01*
X64499Y201603D01*
X64220Y201746D01*
X64150Y201781D01*
X64074Y201804D01*
X63996Y201814D01*
X63918Y201812D01*
X63840Y201797D01*
X63766Y201771D01*
X63697Y201733D01*
X63635Y201685D01*
X63580Y201628D01*
X63536Y201563D01*
X63502Y201492D01*
X63480Y201416D01*
X63470Y201338D01*
X63472Y201260D01*
X63486Y201182D01*
X63513Y201108D01*
X63550Y201039D01*
X63598Y200977D01*
X63656Y200923D01*
X63721Y200879D01*
X64082Y200688D01*
X64462Y200537D01*
X64854Y200422D01*
X65255Y200345D01*
X65662Y200306D01*
X66070D01*
X66477Y200345D01*
X66878Y200422D01*
X67271Y200537D01*
X67365Y200575D01*
Y198638D01*
X67271Y198676D01*
X66878Y198790D01*
X66477Y198868D01*
X66070Y198906D01*
X65662D01*
X65255Y198868D01*
X64854Y198790D01*
X64462Y198676D01*
X64082Y198524D01*
X63719Y198337D01*
X63653Y198293D01*
X63596Y198238D01*
X63547Y198176D01*
X63509Y198106D01*
X63483Y198031D01*
X63468Y197953D01*
X63466Y197874D01*
X63476Y197795D01*
X63499Y197719D01*
X63533Y197648D01*
X63578Y197582D01*
X63632Y197525D01*
X63695Y197476D01*
X63764Y197438D01*
X63839Y197412D01*
X63917Y197397D01*
X63996Y197395D01*
X64075Y197405D01*
X64151Y197428D01*
X64222Y197463D01*
X64499Y197610D01*
X64790Y197726D01*
X65090Y197814D01*
X65398Y197873D01*
X65710Y197903D01*
X66023D01*
X66335Y197873D01*
X66642Y197814D01*
X66943Y197726D01*
X67234Y197610D01*
X67365Y197542D01*
Y191673D01*
X67234Y191603D01*
X66943Y191487D01*
X66642Y191399D01*
X66335Y191340D01*
X66023Y191310D01*
X65710D01*
X65398Y191340D01*
X65090Y191399D01*
X64790Y191487D01*
X64499Y191603D01*
X64220Y191746D01*
X64150Y191781D01*
X64074Y191804D01*
X63996Y191814D01*
X63918Y191812D01*
X63840Y191797D01*
X63766Y191771D01*
X63697Y191733D01*
X63635Y191685D01*
X63580Y191628D01*
X63536Y191563D01*
X63502Y191492D01*
X63480Y191416D01*
X63470Y191338D01*
X63472Y191260D01*
X63486Y191182D01*
X63513Y191108D01*
X63550Y191039D01*
X63598Y190977D01*
X63656Y190923D01*
X63721Y190879D01*
X64082Y190688D01*
X64462Y190537D01*
X64854Y190422D01*
X65255Y190345D01*
X65662Y190306D01*
X66070D01*
X66477Y190345D01*
X66878Y190422D01*
X67271Y190537D01*
X67365Y190575D01*
Y188638D01*
X67271Y188676D01*
X66878Y188790D01*
X66477Y188868D01*
X66070Y188906D01*
X65662D01*
X65255Y188868D01*
X64854Y188790D01*
X64462Y188676D01*
X64082Y188524D01*
X63719Y188337D01*
X63653Y188293D01*
X63596Y188238D01*
X63547Y188176D01*
X63509Y188106D01*
X63483Y188031D01*
X63468Y187953D01*
X63466Y187874D01*
X63476Y187795D01*
X63499Y187719D01*
X63533Y187648D01*
X63578Y187582D01*
X63632Y187525D01*
X63695Y187476D01*
X63764Y187438D01*
X63839Y187412D01*
X63917Y187397D01*
X63996Y187395D01*
X64075Y187405D01*
X64151Y187428D01*
X64222Y187463D01*
X64499Y187610D01*
X64790Y187726D01*
X65090Y187814D01*
X65398Y187873D01*
X65710Y187903D01*
X66023D01*
X66335Y187873D01*
X66642Y187814D01*
X66943Y187726D01*
X67234Y187610D01*
X67365Y187542D01*
Y181673D01*
X67234Y181603D01*
X66943Y181487D01*
X66642Y181399D01*
X66335Y181340D01*
X66023Y181310D01*
X65710D01*
X65398Y181340D01*
X65090Y181399D01*
X64790Y181487D01*
X64499Y181603D01*
X64220Y181746D01*
X64150Y181781D01*
X64074Y181804D01*
X63996Y181814D01*
X63918Y181812D01*
X63840Y181797D01*
X63766Y181771D01*
X63697Y181733D01*
X63635Y181685D01*
X63580Y181628D01*
X63536Y181563D01*
X63502Y181492D01*
X63480Y181416D01*
X63470Y181338D01*
X63472Y181260D01*
X63486Y181182D01*
X63513Y181108D01*
X63550Y181039D01*
X63598Y180977D01*
X63656Y180923D01*
X63721Y180879D01*
X64082Y180688D01*
X64462Y180537D01*
X64854Y180422D01*
X65255Y180345D01*
X65662Y180306D01*
X66070D01*
X66477Y180345D01*
X66878Y180422D01*
X67271Y180537D01*
X67365Y180575D01*
Y178638D01*
X67271Y178676D01*
X66878Y178790D01*
X66477Y178868D01*
X66070Y178906D01*
X65662D01*
X65255Y178868D01*
X64854Y178790D01*
X64462Y178676D01*
X64082Y178524D01*
X63719Y178337D01*
X63653Y178293D01*
X63596Y178238D01*
X63547Y178176D01*
X63509Y178106D01*
X63483Y178031D01*
X63468Y177953D01*
X63466Y177874D01*
X63476Y177795D01*
X63499Y177719D01*
X63533Y177648D01*
X63578Y177582D01*
X63632Y177525D01*
X63695Y177476D01*
X63764Y177438D01*
X63839Y177412D01*
X63917Y177397D01*
X63996Y177395D01*
X64075Y177405D01*
X64151Y177428D01*
X64222Y177463D01*
X64499Y177610D01*
X64790Y177726D01*
X65090Y177814D01*
X65398Y177873D01*
X65710Y177903D01*
X66023D01*
X66335Y177873D01*
X66642Y177814D01*
X66943Y177726D01*
X67234Y177610D01*
X67365Y177542D01*
Y171673D01*
X67234Y171603D01*
X66943Y171487D01*
X66642Y171399D01*
X66335Y171340D01*
X66023Y171310D01*
X65710D01*
X65398Y171340D01*
X65090Y171399D01*
X64790Y171487D01*
X64499Y171603D01*
X64220Y171746D01*
X64150Y171781D01*
X64074Y171804D01*
X63996Y171814D01*
X63918Y171812D01*
X63840Y171797D01*
X63766Y171771D01*
X63697Y171733D01*
X63635Y171685D01*
X63580Y171628D01*
X63536Y171563D01*
X63502Y171492D01*
X63480Y171416D01*
X63470Y171338D01*
X63472Y171260D01*
X63486Y171182D01*
X63513Y171108D01*
X63550Y171039D01*
X63598Y170977D01*
X63656Y170923D01*
X63721Y170879D01*
X64082Y170688D01*
X64462Y170537D01*
X64854Y170422D01*
X65255Y170345D01*
X65662Y170306D01*
X66070D01*
X66477Y170345D01*
X66878Y170422D01*
X67271Y170537D01*
X67365Y170575D01*
Y168638D01*
X67271Y168676D01*
X66878Y168790D01*
X66477Y168868D01*
X66070Y168906D01*
X65662D01*
X65255Y168868D01*
X64854Y168790D01*
X64462Y168676D01*
X64082Y168524D01*
X63719Y168337D01*
X63653Y168293D01*
X63596Y168238D01*
X63547Y168176D01*
X63509Y168106D01*
X63483Y168031D01*
X63468Y167953D01*
X63466Y167874D01*
X63476Y167795D01*
X63499Y167719D01*
X63533Y167648D01*
X63578Y167582D01*
X63632Y167525D01*
X63695Y167476D01*
X63764Y167438D01*
X63839Y167412D01*
X63917Y167397D01*
X63996Y167395D01*
X64075Y167405D01*
X64151Y167428D01*
X64222Y167463D01*
X64499Y167610D01*
X64790Y167726D01*
X65090Y167814D01*
X65398Y167873D01*
X65710Y167903D01*
X66023D01*
X66335Y167873D01*
X66642Y167814D01*
X66943Y167726D01*
X67234Y167610D01*
X67365Y167542D01*
Y161673D01*
X67234Y161603D01*
X66943Y161487D01*
X66642Y161399D01*
X66335Y161340D01*
X66023Y161310D01*
X65710D01*
X65398Y161340D01*
X65090Y161399D01*
X64790Y161487D01*
X64499Y161603D01*
X64220Y161746D01*
X64150Y161781D01*
X64074Y161804D01*
X63996Y161814D01*
X63918Y161812D01*
X63840Y161797D01*
X63766Y161771D01*
X63697Y161733D01*
X63635Y161685D01*
X63580Y161628D01*
X63536Y161563D01*
X63502Y161492D01*
X63480Y161416D01*
X63470Y161338D01*
X63472Y161260D01*
X63486Y161182D01*
X63513Y161108D01*
X63550Y161039D01*
X63598Y160977D01*
X63656Y160923D01*
X63721Y160879D01*
X64082Y160688D01*
X64462Y160537D01*
X64854Y160422D01*
X65255Y160345D01*
X65662Y160306D01*
X66070D01*
X66477Y160345D01*
X66878Y160422D01*
X67271Y160537D01*
X67365Y160575D01*
Y158638D01*
X67271Y158676D01*
X66878Y158790D01*
X66477Y158868D01*
X66070Y158906D01*
X65662D01*
X65255Y158868D01*
X64854Y158790D01*
X64462Y158676D01*
X64082Y158524D01*
X63719Y158337D01*
X63653Y158293D01*
X63596Y158238D01*
X63547Y158176D01*
X63509Y158106D01*
X63483Y158031D01*
X63468Y157953D01*
X63466Y157874D01*
X63476Y157795D01*
X63499Y157719D01*
X63533Y157648D01*
X63578Y157582D01*
X63632Y157525D01*
X63695Y157476D01*
X63764Y157438D01*
X63839Y157412D01*
X63917Y157397D01*
X63996Y157395D01*
X64075Y157405D01*
X64151Y157428D01*
X64222Y157463D01*
X64499Y157610D01*
X64790Y157726D01*
X65090Y157814D01*
X65398Y157873D01*
X65710Y157903D01*
X66023D01*
X66335Y157873D01*
X66642Y157814D01*
X66943Y157726D01*
X67234Y157610D01*
X67365Y157542D01*
Y151673D01*
X67234Y151603D01*
X66943Y151487D01*
X66642Y151399D01*
X66335Y151340D01*
X66023Y151310D01*
X65710D01*
X65398Y151340D01*
X65090Y151399D01*
X64790Y151487D01*
X64499Y151603D01*
X64220Y151746D01*
X64150Y151781D01*
X64074Y151804D01*
X63996Y151814D01*
X63918Y151812D01*
X63840Y151797D01*
X63766Y151771D01*
X63697Y151733D01*
X63635Y151685D01*
X63580Y151628D01*
X63536Y151563D01*
X63502Y151492D01*
X63480Y151416D01*
X63470Y151338D01*
X63472Y151260D01*
X63486Y151182D01*
X63513Y151108D01*
X63550Y151039D01*
X63598Y150977D01*
X63656Y150923D01*
X63721Y150879D01*
X64082Y150688D01*
X64462Y150537D01*
X64854Y150422D01*
X65255Y150345D01*
X65662Y150306D01*
X66070D01*
X66477Y150345D01*
X66878Y150422D01*
X67271Y150537D01*
X67365Y150575D01*
Y148638D01*
X67271Y148676D01*
X66878Y148790D01*
X66477Y148868D01*
X66070Y148906D01*
X65662D01*
X65255Y148868D01*
X64854Y148790D01*
X64462Y148676D01*
X64082Y148524D01*
X63719Y148337D01*
X63653Y148293D01*
X63596Y148238D01*
X63547Y148176D01*
X63509Y148106D01*
X63483Y148031D01*
X63468Y147953D01*
X63466Y147874D01*
X63476Y147795D01*
X63499Y147719D01*
X63533Y147648D01*
X63578Y147582D01*
X63632Y147525D01*
X63695Y147476D01*
X63764Y147438D01*
X63839Y147412D01*
X63917Y147397D01*
X63996Y147395D01*
X64075Y147405D01*
X64151Y147428D01*
X64222Y147463D01*
X64499Y147610D01*
X64790Y147726D01*
X65090Y147814D01*
X65398Y147873D01*
X65710Y147903D01*
X66023D01*
X66335Y147873D01*
X66642Y147814D01*
X66943Y147726D01*
X67234Y147610D01*
X67365Y147542D01*
Y141673D01*
X67234Y141603D01*
X66943Y141487D01*
X66642Y141399D01*
X66335Y141340D01*
X66023Y141310D01*
X65710D01*
X65398Y141340D01*
X65090Y141399D01*
X64790Y141487D01*
X64499Y141603D01*
X64220Y141746D01*
X64150Y141781D01*
X64074Y141804D01*
X63996Y141814D01*
X63918Y141812D01*
X63840Y141797D01*
X63766Y141771D01*
X63697Y141733D01*
X63635Y141685D01*
X63580Y141628D01*
X63536Y141563D01*
X63502Y141492D01*
X63480Y141416D01*
X63470Y141338D01*
X63472Y141260D01*
X63486Y141182D01*
X63513Y141108D01*
X63550Y141039D01*
X63598Y140977D01*
X63656Y140923D01*
X63721Y140879D01*
X64082Y140688D01*
X64462Y140537D01*
X64854Y140422D01*
X65255Y140345D01*
X65662Y140306D01*
X66070D01*
X66477Y140345D01*
X66878Y140422D01*
X67271Y140537D01*
X67365Y140575D01*
Y138638D01*
X67271Y138676D01*
X66878Y138790D01*
X66477Y138868D01*
X66070Y138906D01*
X65662D01*
X65255Y138868D01*
X64854Y138790D01*
X64462Y138676D01*
X64082Y138524D01*
X63719Y138337D01*
X63653Y138293D01*
X63596Y138238D01*
X63547Y138176D01*
X63509Y138106D01*
X63483Y138031D01*
X63468Y137953D01*
X63466Y137874D01*
X63476Y137795D01*
X63499Y137719D01*
X63533Y137648D01*
X63578Y137582D01*
X63632Y137525D01*
X63695Y137476D01*
X63764Y137438D01*
X63839Y137412D01*
X63917Y137397D01*
X63996Y137395D01*
X64075Y137405D01*
X64151Y137428D01*
X64222Y137463D01*
X64499Y137610D01*
X64790Y137726D01*
X65090Y137814D01*
X65398Y137873D01*
X65710Y137903D01*
X66023D01*
X66335Y137873D01*
X66642Y137814D01*
X66943Y137726D01*
X67234Y137610D01*
X67365Y137542D01*
Y131673D01*
X67234Y131603D01*
X66943Y131487D01*
X66642Y131399D01*
X66335Y131340D01*
X66023Y131310D01*
X65710D01*
X65398Y131340D01*
X65090Y131399D01*
X64790Y131487D01*
X64499Y131603D01*
X64220Y131746D01*
X64150Y131781D01*
X64074Y131804D01*
X63996Y131814D01*
X63918Y131812D01*
X63840Y131797D01*
X63766Y131771D01*
X63697Y131733D01*
X63635Y131685D01*
X63580Y131628D01*
X63536Y131563D01*
X63502Y131492D01*
X63480Y131416D01*
X63470Y131338D01*
X63472Y131260D01*
X63486Y131182D01*
X63513Y131108D01*
X63550Y131039D01*
X63598Y130977D01*
X63656Y130923D01*
X63721Y130879D01*
X64082Y130688D01*
X64462Y130537D01*
X64854Y130422D01*
X65255Y130345D01*
X65662Y130306D01*
X66070D01*
X66477Y130345D01*
X66878Y130422D01*
X67271Y130537D01*
X67365Y130575D01*
Y128638D01*
X67271Y128676D01*
X66878Y128790D01*
X66477Y128868D01*
X66070Y128906D01*
X65662D01*
X65255Y128868D01*
X64854Y128790D01*
X64462Y128676D01*
X64082Y128524D01*
X63719Y128337D01*
X63653Y128293D01*
X63596Y128238D01*
X63547Y128176D01*
X63509Y128106D01*
X63483Y128031D01*
X63468Y127953D01*
X63466Y127874D01*
X63476Y127795D01*
X63499Y127719D01*
X63533Y127648D01*
X63578Y127582D01*
X63632Y127525D01*
X63695Y127476D01*
X63764Y127438D01*
X63839Y127412D01*
X63917Y127397D01*
X63996Y127395D01*
X64075Y127405D01*
X64151Y127428D01*
X64222Y127463D01*
X64499Y127610D01*
X64790Y127726D01*
X65090Y127814D01*
X65398Y127873D01*
X65710Y127903D01*
X66023D01*
X66335Y127873D01*
X66642Y127814D01*
X66943Y127726D01*
X67234Y127610D01*
X67365Y127542D01*
Y121673D01*
X67234Y121603D01*
X66943Y121487D01*
X66642Y121399D01*
X66335Y121340D01*
X66023Y121310D01*
X65710D01*
X65398Y121340D01*
X65090Y121399D01*
X64790Y121487D01*
X64499Y121603D01*
X64220Y121746D01*
X64150Y121781D01*
X64074Y121804D01*
X63996Y121814D01*
X63918Y121812D01*
X63840Y121797D01*
X63766Y121771D01*
X63697Y121733D01*
X63635Y121685D01*
X63580Y121628D01*
X63536Y121563D01*
X63502Y121492D01*
X63480Y121416D01*
X63470Y121338D01*
X63472Y121260D01*
X63486Y121182D01*
X63513Y121108D01*
X63550Y121039D01*
X63598Y120977D01*
X63656Y120923D01*
X63721Y120879D01*
X64082Y120688D01*
X64462Y120537D01*
X64854Y120422D01*
X65255Y120345D01*
X65662Y120306D01*
X66070D01*
X66477Y120345D01*
X66878Y120422D01*
X67271Y120537D01*
X67365Y120575D01*
Y118638D01*
X67271Y118676D01*
X66878Y118790D01*
X66477Y118868D01*
X66070Y118906D01*
X65662D01*
X65255Y118868D01*
X64854Y118790D01*
X64462Y118676D01*
X64082Y118524D01*
X63719Y118337D01*
X63653Y118293D01*
X63596Y118238D01*
X63547Y118176D01*
X63509Y118106D01*
X63483Y118031D01*
X63468Y117953D01*
X63466Y117874D01*
X63476Y117795D01*
X63499Y117719D01*
X63533Y117648D01*
X63578Y117582D01*
X63632Y117525D01*
X63695Y117476D01*
X63764Y117438D01*
X63839Y117412D01*
X63917Y117397D01*
X63996Y117395D01*
X64075Y117405D01*
X64151Y117428D01*
X64222Y117463D01*
X64499Y117610D01*
X64790Y117726D01*
X65090Y117814D01*
X65398Y117873D01*
X65710Y117903D01*
X66023D01*
X66335Y117873D01*
X66642Y117814D01*
X66943Y117726D01*
X67234Y117610D01*
X67365Y117542D01*
Y111673D01*
X67234Y111603D01*
X66943Y111487D01*
X66642Y111399D01*
X66335Y111340D01*
X66023Y111310D01*
X65710D01*
X65398Y111340D01*
X65090Y111399D01*
X64790Y111487D01*
X64499Y111603D01*
X64220Y111746D01*
X64150Y111781D01*
X64074Y111804D01*
X63996Y111814D01*
X63918Y111812D01*
X63840Y111797D01*
X63766Y111771D01*
X63697Y111733D01*
X63635Y111685D01*
X63580Y111628D01*
X63536Y111563D01*
X63502Y111492D01*
X63480Y111416D01*
X63470Y111338D01*
X63472Y111260D01*
X63486Y111182D01*
X63513Y111108D01*
X63550Y111039D01*
X63598Y110977D01*
X63656Y110923D01*
X63721Y110879D01*
X64082Y110688D01*
X64462Y110537D01*
X64854Y110422D01*
X65255Y110345D01*
X65662Y110306D01*
X66070D01*
X66477Y110345D01*
X66878Y110422D01*
X67271Y110537D01*
X67365Y110575D01*
Y108638D01*
X67271Y108676D01*
X66878Y108790D01*
X66477Y108868D01*
X66070Y108906D01*
X65662D01*
X65255Y108868D01*
X64854Y108790D01*
X64462Y108676D01*
X64082Y108524D01*
X63719Y108337D01*
X63653Y108293D01*
X63596Y108238D01*
X63547Y108176D01*
X63509Y108106D01*
X63483Y108031D01*
X63468Y107953D01*
X63466Y107874D01*
X63476Y107795D01*
X63499Y107719D01*
X63533Y107648D01*
X63578Y107582D01*
X63632Y107525D01*
X63695Y107476D01*
X63764Y107438D01*
X63839Y107412D01*
X63917Y107397D01*
X63996Y107395D01*
X64075Y107405D01*
X64151Y107428D01*
X64222Y107463D01*
X64499Y107610D01*
X64790Y107726D01*
X65090Y107814D01*
X65398Y107873D01*
X65710Y107903D01*
X66023D01*
X66335Y107873D01*
X66642Y107814D01*
X66943Y107726D01*
X67234Y107610D01*
X67365Y107542D01*
Y101673D01*
X67234Y101603D01*
X66943Y101487D01*
X66642Y101399D01*
X66335Y101340D01*
X66023Y101310D01*
X65710D01*
X65398Y101340D01*
X65090Y101399D01*
X64790Y101487D01*
X64499Y101603D01*
X64220Y101746D01*
X64150Y101781D01*
X64074Y101804D01*
X63996Y101814D01*
X63918Y101812D01*
X63840Y101797D01*
X63766Y101771D01*
X63697Y101733D01*
X63635Y101685D01*
X63580Y101628D01*
X63536Y101563D01*
X63502Y101492D01*
X63480Y101416D01*
X63470Y101338D01*
X63472Y101260D01*
X63486Y101182D01*
X63513Y101108D01*
X63550Y101039D01*
X63598Y100977D01*
X63656Y100923D01*
X63721Y100879D01*
X64082Y100688D01*
X64462Y100537D01*
X64854Y100422D01*
X65255Y100345D01*
X65662Y100306D01*
X66070D01*
X66477Y100345D01*
X66878Y100422D01*
X67271Y100537D01*
X67365Y100575D01*
Y98638D01*
X67271Y98676D01*
X66878Y98790D01*
X66477Y98868D01*
X66070Y98906D01*
X65662D01*
X65255Y98868D01*
X64854Y98790D01*
X64462Y98676D01*
X64082Y98524D01*
X63719Y98337D01*
X63653Y98293D01*
X63596Y98238D01*
X63547Y98176D01*
X63509Y98106D01*
X63483Y98031D01*
X63468Y97953D01*
X63466Y97874D01*
X63476Y97795D01*
X63499Y97719D01*
X63533Y97648D01*
X63578Y97582D01*
X63632Y97525D01*
X63695Y97476D01*
X63764Y97438D01*
X63839Y97412D01*
X63917Y97397D01*
X63996Y97395D01*
X64075Y97405D01*
X64151Y97428D01*
X64222Y97463D01*
X64499Y97610D01*
X64790Y97726D01*
X65090Y97814D01*
X65398Y97873D01*
X65710Y97903D01*
X66023D01*
X66335Y97873D01*
X66642Y97814D01*
X66943Y97726D01*
X67234Y97610D01*
X67365Y97542D01*
Y91673D01*
X67234Y91603D01*
X66943Y91487D01*
X66642Y91399D01*
X66335Y91340D01*
X66023Y91310D01*
X65710D01*
X65398Y91340D01*
X65090Y91399D01*
X64790Y91487D01*
X64499Y91603D01*
X64220Y91746D01*
X64150Y91781D01*
X64074Y91804D01*
X63996Y91814D01*
X63918Y91812D01*
X63840Y91797D01*
X63766Y91771D01*
X63697Y91733D01*
X63635Y91685D01*
X63580Y91628D01*
X63536Y91563D01*
X63502Y91492D01*
X63480Y91416D01*
X63470Y91338D01*
X63472Y91260D01*
X63486Y91182D01*
X63513Y91108D01*
X63550Y91039D01*
X63598Y90977D01*
X63656Y90923D01*
X63721Y90879D01*
X64082Y90688D01*
X64462Y90537D01*
X64854Y90422D01*
X65255Y90345D01*
X65662Y90306D01*
X66070D01*
X66477Y90345D01*
X66878Y90422D01*
X67271Y90537D01*
X67365Y90575D01*
Y88638D01*
X67271Y88676D01*
X66878Y88790D01*
X66477Y88868D01*
X66070Y88906D01*
X65662D01*
X65255Y88868D01*
X64854Y88790D01*
X64462Y88676D01*
X64082Y88524D01*
X63719Y88337D01*
X63653Y88293D01*
X63596Y88238D01*
X63547Y88176D01*
X63509Y88106D01*
X63483Y88031D01*
X63468Y87953D01*
X63466Y87874D01*
X63476Y87795D01*
X63499Y87719D01*
X63533Y87648D01*
X63578Y87582D01*
X63632Y87525D01*
X63695Y87476D01*
X63764Y87438D01*
X63839Y87412D01*
X63917Y87397D01*
X63996Y87395D01*
X64075Y87405D01*
X64151Y87428D01*
X64222Y87463D01*
X64499Y87610D01*
X64790Y87726D01*
X65090Y87814D01*
X65398Y87873D01*
X65710Y87903D01*
X66023D01*
X66335Y87873D01*
X66642Y87814D01*
X66943Y87726D01*
X67234Y87610D01*
X67365Y87542D01*
Y81673D01*
X67234Y81603D01*
X66943Y81487D01*
X66642Y81399D01*
X66335Y81340D01*
X66023Y81310D01*
X65710D01*
X65398Y81340D01*
X65090Y81399D01*
X64790Y81487D01*
X64499Y81603D01*
X64220Y81746D01*
X64150Y81781D01*
X64074Y81804D01*
X63996Y81814D01*
X63918Y81812D01*
X63840Y81797D01*
X63766Y81771D01*
X63697Y81733D01*
X63635Y81685D01*
X63580Y81628D01*
X63536Y81563D01*
X63502Y81492D01*
X63480Y81416D01*
X63470Y81338D01*
X63472Y81260D01*
X63486Y81182D01*
X63513Y81108D01*
X63550Y81039D01*
X63598Y80977D01*
X63656Y80923D01*
X63721Y80879D01*
X64082Y80688D01*
X64462Y80537D01*
X64854Y80422D01*
X65255Y80345D01*
X65662Y80306D01*
X66070D01*
X66477Y80345D01*
X66878Y80422D01*
X67271Y80537D01*
X67365Y80575D01*
Y78638D01*
X67271Y78676D01*
X66878Y78790D01*
X66477Y78868D01*
X66070Y78906D01*
X65662D01*
X65255Y78868D01*
X64854Y78790D01*
X64462Y78676D01*
X64082Y78524D01*
X63719Y78337D01*
X63653Y78293D01*
X63596Y78238D01*
X63547Y78176D01*
X63509Y78106D01*
X63483Y78031D01*
X63468Y77953D01*
X63466Y77874D01*
X63476Y77795D01*
X63499Y77719D01*
X63533Y77648D01*
X63578Y77582D01*
X63632Y77525D01*
X63695Y77476D01*
X63764Y77438D01*
X63839Y77412D01*
X63917Y77397D01*
X63996Y77395D01*
X64075Y77405D01*
X64151Y77428D01*
X64222Y77463D01*
X64499Y77610D01*
X64790Y77726D01*
X65090Y77814D01*
X65398Y77873D01*
X65710Y77903D01*
X66023D01*
X66335Y77873D01*
X66642Y77814D01*
X66943Y77726D01*
X67234Y77610D01*
X67365Y77542D01*
Y71673D01*
X67234Y71603D01*
X66943Y71487D01*
X66642Y71399D01*
X66335Y71340D01*
X66023Y71310D01*
X65710D01*
X65398Y71340D01*
X65090Y71399D01*
X64790Y71487D01*
X64499Y71603D01*
X64220Y71746D01*
X64150Y71781D01*
X64074Y71804D01*
X63996Y71814D01*
X63918Y71812D01*
X63840Y71797D01*
X63766Y71771D01*
X63697Y71733D01*
X63635Y71685D01*
X63580Y71628D01*
X63536Y71563D01*
X63502Y71492D01*
X63480Y71416D01*
X63470Y71338D01*
X63472Y71260D01*
X63486Y71182D01*
X63513Y71108D01*
X63550Y71039D01*
X63598Y70977D01*
X63656Y70923D01*
X63721Y70879D01*
X64082Y70688D01*
X64462Y70537D01*
X64854Y70422D01*
X65255Y70345D01*
X65662Y70306D01*
X66070D01*
X66477Y70345D01*
X66878Y70422D01*
X67271Y70537D01*
X67365Y70575D01*
Y49540D01*
X67334Y49523D01*
X67272Y49474D01*
X67218Y49417D01*
X67175Y49351D01*
X66989Y48996D01*
X66841Y48623D01*
X66729Y48238D01*
X66654Y47844D01*
X66616Y47445D01*
Y47044D01*
X66654Y46644D01*
X66729Y46250D01*
X66841Y45865D01*
X66989Y45492D01*
X67171Y45135D01*
X67215Y45069D01*
X67270Y45011D01*
X67332Y44963D01*
X67365Y44945D01*
Y39370D01*
X62066Y39370D01*
Y72593D01*
X62135Y72459D01*
X62180Y72393D01*
X62234Y72336D01*
X62297Y72287D01*
X62367Y72249D01*
X62441Y72223D01*
X62519Y72208D01*
X62598Y72206D01*
X62677Y72216D01*
X62753Y72239D01*
X62825Y72273D01*
X62890Y72318D01*
X62948Y72372D01*
X62996Y72435D01*
X63034Y72505D01*
X63061Y72579D01*
X63075Y72657D01*
X63077Y72737D01*
X63067Y72815D01*
X63045Y72891D01*
X63009Y72962D01*
X62863Y73239D01*
X62747Y73530D01*
X62659Y73830D01*
X62600Y74138D01*
X62570Y74450D01*
Y74763D01*
X62600Y75075D01*
X62659Y75382D01*
X62747Y75683D01*
X62863Y75974D01*
X63006Y76252D01*
X63041Y76323D01*
X63063Y76398D01*
X63074Y76476D01*
X63071Y76555D01*
X63057Y76632D01*
X63031Y76706D01*
X62993Y76776D01*
X62945Y76838D01*
X62888Y76892D01*
X62823Y76937D01*
X62752Y76970D01*
X62676Y76993D01*
X62598Y77003D01*
X62520Y77001D01*
X62442Y76986D01*
X62368Y76960D01*
X62299Y76922D01*
X62237Y76874D01*
X62182Y76817D01*
X62139Y76751D01*
X62066Y76613D01*
Y82593D01*
X62135Y82459D01*
X62180Y82393D01*
X62234Y82336D01*
X62297Y82287D01*
X62367Y82249D01*
X62441Y82223D01*
X62519Y82208D01*
X62598Y82206D01*
X62677Y82216D01*
X62753Y82239D01*
X62825Y82273D01*
X62890Y82318D01*
X62948Y82372D01*
X62996Y82435D01*
X63034Y82505D01*
X63061Y82579D01*
X63075Y82657D01*
X63077Y82737D01*
X63067Y82815D01*
X63045Y82891D01*
X63009Y82962D01*
X62863Y83239D01*
X62747Y83530D01*
X62659Y83830D01*
X62600Y84138D01*
X62570Y84450D01*
Y84763D01*
X62600Y85075D01*
X62659Y85382D01*
X62747Y85683D01*
X62863Y85974D01*
X63006Y86252D01*
X63041Y86323D01*
X63063Y86398D01*
X63074Y86476D01*
X63071Y86555D01*
X63057Y86632D01*
X63031Y86706D01*
X62993Y86776D01*
X62945Y86838D01*
X62888Y86892D01*
X62823Y86937D01*
X62752Y86970D01*
X62676Y86993D01*
X62598Y87003D01*
X62520Y87001D01*
X62442Y86986D01*
X62368Y86960D01*
X62299Y86922D01*
X62237Y86874D01*
X62182Y86817D01*
X62139Y86751D01*
X62066Y86613D01*
Y92593D01*
X62135Y92459D01*
X62180Y92393D01*
X62234Y92336D01*
X62297Y92287D01*
X62367Y92249D01*
X62441Y92223D01*
X62519Y92208D01*
X62598Y92206D01*
X62677Y92216D01*
X62753Y92239D01*
X62825Y92273D01*
X62890Y92318D01*
X62948Y92372D01*
X62996Y92435D01*
X63034Y92505D01*
X63061Y92579D01*
X63075Y92657D01*
X63077Y92737D01*
X63067Y92815D01*
X63045Y92891D01*
X63009Y92962D01*
X62863Y93239D01*
X62747Y93530D01*
X62659Y93830D01*
X62600Y94138D01*
X62570Y94450D01*
Y94763D01*
X62600Y95075D01*
X62659Y95382D01*
X62747Y95683D01*
X62863Y95974D01*
X63006Y96252D01*
X63041Y96323D01*
X63063Y96398D01*
X63074Y96476D01*
X63071Y96555D01*
X63057Y96632D01*
X63031Y96706D01*
X62993Y96776D01*
X62945Y96838D01*
X62888Y96892D01*
X62823Y96937D01*
X62752Y96970D01*
X62676Y96993D01*
X62598Y97003D01*
X62520Y97001D01*
X62442Y96986D01*
X62368Y96960D01*
X62299Y96922D01*
X62237Y96874D01*
X62182Y96817D01*
X62139Y96751D01*
X62066Y96613D01*
Y102593D01*
X62135Y102459D01*
X62180Y102393D01*
X62234Y102336D01*
X62297Y102287D01*
X62367Y102249D01*
X62441Y102223D01*
X62519Y102208D01*
X62598Y102206D01*
X62677Y102216D01*
X62753Y102239D01*
X62825Y102273D01*
X62890Y102318D01*
X62948Y102372D01*
X62996Y102435D01*
X63034Y102505D01*
X63061Y102579D01*
X63075Y102657D01*
X63077Y102737D01*
X63067Y102815D01*
X63045Y102891D01*
X63009Y102962D01*
X62863Y103239D01*
X62747Y103530D01*
X62659Y103830D01*
X62600Y104138D01*
X62570Y104450D01*
Y104763D01*
X62600Y105075D01*
X62659Y105382D01*
X62747Y105683D01*
X62863Y105974D01*
X63006Y106252D01*
X63041Y106323D01*
X63063Y106398D01*
X63074Y106476D01*
X63071Y106555D01*
X63057Y106632D01*
X63031Y106706D01*
X62993Y106776D01*
X62945Y106838D01*
X62888Y106892D01*
X62823Y106937D01*
X62752Y106970D01*
X62676Y106993D01*
X62598Y107003D01*
X62520Y107001D01*
X62442Y106986D01*
X62368Y106960D01*
X62299Y106922D01*
X62237Y106874D01*
X62182Y106817D01*
X62139Y106751D01*
X62066Y106613D01*
Y112593D01*
X62135Y112459D01*
X62180Y112393D01*
X62234Y112336D01*
X62297Y112287D01*
X62367Y112249D01*
X62441Y112223D01*
X62519Y112208D01*
X62598Y112206D01*
X62677Y112216D01*
X62753Y112239D01*
X62825Y112273D01*
X62890Y112318D01*
X62948Y112372D01*
X62996Y112435D01*
X63034Y112505D01*
X63061Y112579D01*
X63075Y112657D01*
X63077Y112737D01*
X63067Y112815D01*
X63045Y112891D01*
X63009Y112962D01*
X62863Y113239D01*
X62747Y113530D01*
X62659Y113830D01*
X62600Y114138D01*
X62570Y114450D01*
Y114763D01*
X62600Y115075D01*
X62659Y115382D01*
X62747Y115683D01*
X62863Y115974D01*
X63006Y116252D01*
X63041Y116323D01*
X63063Y116398D01*
X63074Y116476D01*
X63071Y116555D01*
X63057Y116632D01*
X63031Y116706D01*
X62993Y116776D01*
X62945Y116838D01*
X62888Y116892D01*
X62823Y116937D01*
X62752Y116970D01*
X62676Y116993D01*
X62598Y117003D01*
X62520Y117001D01*
X62442Y116986D01*
X62368Y116960D01*
X62299Y116922D01*
X62237Y116874D01*
X62182Y116817D01*
X62139Y116751D01*
X62066Y116613D01*
Y122593D01*
X62135Y122459D01*
X62180Y122393D01*
X62234Y122336D01*
X62297Y122287D01*
X62367Y122249D01*
X62441Y122223D01*
X62519Y122208D01*
X62598Y122206D01*
X62677Y122216D01*
X62753Y122239D01*
X62825Y122273D01*
X62890Y122318D01*
X62948Y122372D01*
X62996Y122435D01*
X63034Y122505D01*
X63061Y122579D01*
X63075Y122657D01*
X63077Y122737D01*
X63067Y122815D01*
X63045Y122891D01*
X63009Y122962D01*
X62863Y123239D01*
X62747Y123530D01*
X62659Y123830D01*
X62600Y124138D01*
X62570Y124450D01*
Y124763D01*
X62600Y125075D01*
X62659Y125382D01*
X62747Y125683D01*
X62863Y125974D01*
X63006Y126252D01*
X63041Y126323D01*
X63063Y126398D01*
X63074Y126476D01*
X63071Y126555D01*
X63057Y126632D01*
X63031Y126706D01*
X62993Y126776D01*
X62945Y126838D01*
X62888Y126892D01*
X62823Y126937D01*
X62752Y126970D01*
X62676Y126993D01*
X62598Y127003D01*
X62520Y127001D01*
X62442Y126986D01*
X62368Y126960D01*
X62299Y126922D01*
X62237Y126874D01*
X62182Y126817D01*
X62139Y126751D01*
X62066Y126613D01*
Y132593D01*
X62135Y132459D01*
X62180Y132393D01*
X62234Y132336D01*
X62297Y132287D01*
X62367Y132249D01*
X62441Y132223D01*
X62519Y132208D01*
X62598Y132206D01*
X62677Y132216D01*
X62753Y132239D01*
X62825Y132273D01*
X62890Y132318D01*
X62948Y132372D01*
X62996Y132435D01*
X63034Y132505D01*
X63061Y132579D01*
X63075Y132657D01*
X63077Y132737D01*
X63067Y132815D01*
X63045Y132891D01*
X63009Y132962D01*
X62863Y133239D01*
X62747Y133530D01*
X62659Y133830D01*
X62600Y134138D01*
X62570Y134450D01*
Y134763D01*
X62600Y135075D01*
X62659Y135382D01*
X62747Y135683D01*
X62863Y135974D01*
X63006Y136252D01*
X63041Y136323D01*
X63063Y136398D01*
X63074Y136476D01*
X63071Y136555D01*
X63057Y136632D01*
X63031Y136706D01*
X62993Y136776D01*
X62945Y136838D01*
X62888Y136892D01*
X62823Y136937D01*
X62752Y136970D01*
X62676Y136993D01*
X62598Y137003D01*
X62520Y137001D01*
X62442Y136986D01*
X62368Y136960D01*
X62299Y136922D01*
X62237Y136874D01*
X62182Y136817D01*
X62139Y136751D01*
X62066Y136613D01*
Y142593D01*
X62135Y142459D01*
X62180Y142393D01*
X62234Y142336D01*
X62297Y142287D01*
X62367Y142249D01*
X62441Y142223D01*
X62519Y142208D01*
X62598Y142206D01*
X62677Y142216D01*
X62753Y142239D01*
X62825Y142273D01*
X62890Y142318D01*
X62948Y142372D01*
X62996Y142435D01*
X63034Y142505D01*
X63061Y142579D01*
X63075Y142657D01*
X63077Y142737D01*
X63067Y142815D01*
X63045Y142891D01*
X63009Y142962D01*
X62863Y143239D01*
X62747Y143530D01*
X62659Y143830D01*
X62600Y144138D01*
X62570Y144450D01*
Y144763D01*
X62600Y145075D01*
X62659Y145382D01*
X62747Y145683D01*
X62863Y145974D01*
X63006Y146252D01*
X63041Y146323D01*
X63063Y146398D01*
X63074Y146476D01*
X63071Y146555D01*
X63057Y146632D01*
X63031Y146706D01*
X62993Y146776D01*
X62945Y146838D01*
X62888Y146892D01*
X62823Y146937D01*
X62752Y146970D01*
X62676Y146993D01*
X62598Y147003D01*
X62520Y147001D01*
X62442Y146986D01*
X62368Y146960D01*
X62299Y146922D01*
X62237Y146874D01*
X62182Y146817D01*
X62139Y146751D01*
X62066Y146613D01*
Y152593D01*
X62135Y152459D01*
X62180Y152393D01*
X62234Y152336D01*
X62297Y152287D01*
X62367Y152249D01*
X62441Y152223D01*
X62519Y152208D01*
X62598Y152206D01*
X62677Y152216D01*
X62753Y152239D01*
X62825Y152273D01*
X62890Y152318D01*
X62948Y152372D01*
X62996Y152435D01*
X63034Y152505D01*
X63061Y152579D01*
X63075Y152657D01*
X63077Y152737D01*
X63067Y152815D01*
X63045Y152891D01*
X63009Y152962D01*
X62863Y153239D01*
X62747Y153530D01*
X62659Y153830D01*
X62600Y154138D01*
X62570Y154450D01*
Y154763D01*
X62600Y155075D01*
X62659Y155382D01*
X62747Y155683D01*
X62863Y155974D01*
X63006Y156252D01*
X63041Y156323D01*
X63063Y156398D01*
X63074Y156476D01*
X63071Y156555D01*
X63057Y156632D01*
X63031Y156706D01*
X62993Y156776D01*
X62945Y156838D01*
X62888Y156892D01*
X62823Y156937D01*
X62752Y156970D01*
X62676Y156993D01*
X62598Y157003D01*
X62520Y157001D01*
X62442Y156986D01*
X62368Y156960D01*
X62299Y156922D01*
X62237Y156874D01*
X62182Y156817D01*
X62139Y156751D01*
X62066Y156613D01*
Y162593D01*
X62135Y162459D01*
X62180Y162393D01*
X62234Y162336D01*
X62297Y162287D01*
X62367Y162249D01*
X62441Y162223D01*
X62519Y162208D01*
X62598Y162206D01*
X62677Y162216D01*
X62753Y162239D01*
X62825Y162273D01*
X62890Y162318D01*
X62948Y162372D01*
X62996Y162435D01*
X63034Y162505D01*
X63061Y162579D01*
X63075Y162657D01*
X63077Y162737D01*
X63067Y162815D01*
X63045Y162891D01*
X63009Y162962D01*
X62863Y163239D01*
X62747Y163530D01*
X62659Y163830D01*
X62600Y164138D01*
X62570Y164450D01*
Y164763D01*
X62600Y165075D01*
X62659Y165382D01*
X62747Y165683D01*
X62863Y165974D01*
X63006Y166252D01*
X63041Y166323D01*
X63063Y166398D01*
X63074Y166476D01*
X63071Y166555D01*
X63057Y166632D01*
X63031Y166706D01*
X62993Y166776D01*
X62945Y166838D01*
X62888Y166892D01*
X62823Y166937D01*
X62752Y166970D01*
X62676Y166993D01*
X62598Y167003D01*
X62520Y167001D01*
X62442Y166986D01*
X62368Y166960D01*
X62299Y166922D01*
X62237Y166874D01*
X62182Y166817D01*
X62139Y166751D01*
X62066Y166613D01*
Y172593D01*
X62135Y172459D01*
X62180Y172393D01*
X62234Y172336D01*
X62297Y172287D01*
X62367Y172249D01*
X62441Y172223D01*
X62519Y172208D01*
X62598Y172206D01*
X62677Y172216D01*
X62753Y172239D01*
X62825Y172273D01*
X62890Y172318D01*
X62948Y172372D01*
X62996Y172435D01*
X63034Y172505D01*
X63061Y172579D01*
X63075Y172657D01*
X63077Y172737D01*
X63067Y172815D01*
X63045Y172891D01*
X63009Y172962D01*
X62863Y173239D01*
X62747Y173530D01*
X62659Y173830D01*
X62600Y174138D01*
X62570Y174450D01*
Y174763D01*
X62600Y175075D01*
X62659Y175382D01*
X62747Y175683D01*
X62863Y175974D01*
X63006Y176252D01*
X63041Y176323D01*
X63063Y176398D01*
X63074Y176476D01*
X63071Y176555D01*
X63057Y176632D01*
X63031Y176706D01*
X62993Y176776D01*
X62945Y176838D01*
X62888Y176892D01*
X62823Y176937D01*
X62752Y176970D01*
X62676Y176993D01*
X62598Y177003D01*
X62520Y177001D01*
X62442Y176986D01*
X62368Y176960D01*
X62299Y176922D01*
X62237Y176874D01*
X62182Y176817D01*
X62139Y176751D01*
X62066Y176613D01*
Y182593D01*
X62135Y182459D01*
X62180Y182393D01*
X62234Y182336D01*
X62297Y182287D01*
X62367Y182249D01*
X62441Y182223D01*
X62519Y182208D01*
X62598Y182206D01*
X62677Y182216D01*
X62753Y182239D01*
X62825Y182273D01*
X62890Y182318D01*
X62948Y182372D01*
X62996Y182435D01*
X63034Y182505D01*
X63061Y182579D01*
X63075Y182657D01*
X63077Y182737D01*
X63067Y182815D01*
X63045Y182891D01*
X63009Y182962D01*
X62863Y183239D01*
X62747Y183530D01*
X62659Y183830D01*
X62600Y184138D01*
X62570Y184450D01*
Y184763D01*
X62600Y185075D01*
X62659Y185382D01*
X62747Y185683D01*
X62863Y185974D01*
X63006Y186252D01*
X63041Y186323D01*
X63063Y186398D01*
X63074Y186476D01*
X63071Y186555D01*
X63057Y186632D01*
X63031Y186706D01*
X62993Y186776D01*
X62945Y186838D01*
X62888Y186892D01*
X62823Y186937D01*
X62752Y186970D01*
X62676Y186993D01*
X62598Y187003D01*
X62520Y187001D01*
X62442Y186986D01*
X62368Y186960D01*
X62299Y186922D01*
X62237Y186874D01*
X62182Y186817D01*
X62139Y186751D01*
X62066Y186613D01*
Y192593D01*
X62135Y192459D01*
X62180Y192393D01*
X62234Y192336D01*
X62297Y192287D01*
X62367Y192249D01*
X62441Y192223D01*
X62519Y192208D01*
X62598Y192206D01*
X62677Y192216D01*
X62753Y192239D01*
X62825Y192273D01*
X62890Y192318D01*
X62948Y192372D01*
X62996Y192435D01*
X63034Y192505D01*
X63061Y192579D01*
X63075Y192657D01*
X63077Y192737D01*
X63067Y192815D01*
X63045Y192891D01*
X63009Y192962D01*
X62863Y193239D01*
X62747Y193530D01*
X62659Y193830D01*
X62600Y194138D01*
X62570Y194450D01*
Y194763D01*
X62600Y195075D01*
X62659Y195382D01*
X62747Y195683D01*
X62863Y195974D01*
X63006Y196252D01*
X63041Y196323D01*
X63063Y196398D01*
X63074Y196476D01*
X63071Y196555D01*
X63057Y196632D01*
X63031Y196706D01*
X62993Y196776D01*
X62945Y196838D01*
X62888Y196892D01*
X62823Y196937D01*
X62752Y196970D01*
X62676Y196993D01*
X62598Y197003D01*
X62520Y197001D01*
X62442Y196986D01*
X62368Y196960D01*
X62299Y196922D01*
X62237Y196874D01*
X62182Y196817D01*
X62139Y196751D01*
X62066Y196613D01*
Y202593D01*
X62135Y202459D01*
X62180Y202393D01*
X62234Y202336D01*
X62297Y202287D01*
X62367Y202249D01*
X62441Y202223D01*
X62519Y202208D01*
X62598Y202206D01*
X62677Y202216D01*
X62753Y202239D01*
X62825Y202273D01*
X62890Y202318D01*
X62948Y202372D01*
X62996Y202435D01*
X63034Y202505D01*
X63061Y202579D01*
X63075Y202657D01*
X63077Y202737D01*
X63067Y202815D01*
X63045Y202891D01*
X63009Y202962D01*
X62863Y203239D01*
X62747Y203530D01*
X62659Y203830D01*
X62600Y204138D01*
X62570Y204450D01*
Y204763D01*
X62600Y205075D01*
X62659Y205382D01*
X62747Y205683D01*
X62863Y205974D01*
X63006Y206252D01*
X63041Y206323D01*
X63063Y206398D01*
X63074Y206476D01*
X63071Y206555D01*
X63057Y206632D01*
X63031Y206706D01*
X62993Y206776D01*
X62945Y206838D01*
X62888Y206892D01*
X62823Y206937D01*
X62752Y206970D01*
X62676Y206993D01*
X62598Y207003D01*
X62520Y207001D01*
X62442Y206986D01*
X62368Y206960D01*
X62299Y206922D01*
X62237Y206874D01*
X62182Y206817D01*
X62139Y206751D01*
X62066Y206613D01*
Y212593D01*
X62135Y212459D01*
X62180Y212393D01*
X62234Y212336D01*
X62297Y212287D01*
X62367Y212249D01*
X62441Y212223D01*
X62519Y212208D01*
X62598Y212206D01*
X62677Y212216D01*
X62753Y212239D01*
X62825Y212273D01*
X62890Y212318D01*
X62948Y212372D01*
X62996Y212435D01*
X63034Y212505D01*
X63061Y212579D01*
X63075Y212657D01*
X63077Y212737D01*
X63067Y212815D01*
X63045Y212891D01*
X63009Y212962D01*
X62863Y213239D01*
X62747Y213530D01*
X62659Y213830D01*
X62600Y214138D01*
X62570Y214450D01*
Y214763D01*
X62600Y215075D01*
X62659Y215382D01*
X62747Y215683D01*
X62863Y215974D01*
X63006Y216252D01*
X63041Y216323D01*
X63063Y216398D01*
X63074Y216476D01*
X63071Y216555D01*
X63057Y216632D01*
X63031Y216706D01*
X62993Y216776D01*
X62945Y216838D01*
X62888Y216892D01*
X62823Y216937D01*
X62752Y216970D01*
X62676Y216993D01*
X62598Y217003D01*
X62520Y217001D01*
X62442Y216986D01*
X62368Y216960D01*
X62299Y216922D01*
X62237Y216874D01*
X62182Y216817D01*
X62139Y216751D01*
X62066Y216613D01*
Y221805D01*
X62145Y221811D01*
X62221Y221829D01*
X62294Y221859D01*
X62361Y221901D01*
X62421Y221952D01*
X62472Y222011D01*
X62513Y222079D01*
X62543Y222151D01*
X62562Y222228D01*
X62566Y222306D01*
Y226906D01*
X62562Y226985D01*
X62543Y227061D01*
X62513Y227134D01*
X62472Y227201D01*
X62421Y227261D01*
X62361Y227312D01*
X62294Y227353D01*
X62221Y227383D01*
X62145Y227402D01*
X62066Y227408D01*
Y314679D01*
G37*
G36*
Y334364D02*X67365D01*
Y319179D01*
X62066D01*
Y325663D01*
X62107Y325673D01*
X62689Y325914D01*
X63225Y326243D01*
X63704Y326651D01*
X64113Y327130D01*
X64442Y327667D01*
X64683Y328249D01*
X64830Y328861D01*
X64867Y329489D01*
X64830Y330116D01*
X64683Y330728D01*
X64442Y331310D01*
X64113Y331847D01*
X63704Y332326D01*
X63225Y332735D01*
X62689Y333064D01*
X62107Y333305D01*
X62066Y333314D01*
Y334364D01*
G37*
G36*
Y413386D02*X67365D01*
Y407807D01*
X67334Y407790D01*
X67272Y407742D01*
X67218Y407685D01*
X67175Y407619D01*
X66989Y407264D01*
X66841Y406891D01*
X66729Y406506D01*
X66654Y406112D01*
X66616Y405712D01*
Y405311D01*
X66654Y404912D01*
X66729Y404518D01*
X66841Y404133D01*
X66989Y403760D01*
X67171Y403402D01*
X67215Y403337D01*
X67270Y403279D01*
X67332Y403230D01*
X67365Y403212D01*
Y338864D01*
X62066D01*
Y340495D01*
X64024Y340498D01*
X64177Y340535D01*
X64322Y340595D01*
X64457Y340677D01*
X64576Y340779D01*
X64679Y340899D01*
X64761Y341033D01*
X64821Y341179D01*
X64858Y341332D01*
X64867Y341489D01*
X64858Y347646D01*
X64821Y347799D01*
X64761Y347944D01*
X64679Y348078D01*
X64576Y348198D01*
X64457Y348300D01*
X64322Y348382D01*
X64177Y348443D01*
X64024Y348479D01*
X63867Y348489D01*
X62066Y348486D01*
Y355663D01*
X62107Y355673D01*
X62689Y355914D01*
X63225Y356243D01*
X63704Y356651D01*
X64113Y357130D01*
X64442Y357667D01*
X64683Y358249D01*
X64830Y358861D01*
X64867Y359489D01*
X64830Y360116D01*
X64683Y360728D01*
X64442Y361310D01*
X64113Y361847D01*
X63704Y362326D01*
X63225Y362735D01*
X62689Y363064D01*
X62107Y363305D01*
X62066Y363314D01*
Y413386D01*
G37*
G36*
X49418Y333376D02*X49834Y334055D01*
X49962Y334364D01*
X62066D01*
Y333314D01*
X61495Y333452D01*
X60867Y333501D01*
X60239Y333452D01*
X59627Y333305D01*
X59045Y333064D01*
X58509Y332735D01*
X58030Y332326D01*
X57621Y331847D01*
X57292Y331310D01*
X57051Y330728D01*
X56904Y330116D01*
X56855Y329489D01*
X56904Y328861D01*
X57051Y328249D01*
X57292Y327667D01*
X57621Y327130D01*
X58030Y326651D01*
X58509Y326243D01*
X59045Y325914D01*
X59627Y325673D01*
X60239Y325526D01*
X60867Y325476D01*
X61495Y325526D01*
X62066Y325663D01*
Y319179D01*
X59415D01*
X59348Y319288D01*
X58940Y319766D01*
X58461Y320175D01*
X57924Y320504D01*
X57342Y320745D01*
X56730Y320892D01*
X56102Y320941D01*
X55475Y320892D01*
X54862Y320745D01*
X54281Y320504D01*
X53744Y320175D01*
X53265Y319766D01*
X52856Y319288D01*
X52527Y318751D01*
X52286Y318169D01*
X52139Y317557D01*
X52090Y316929D01*
X52139Y316301D01*
X52286Y315689D01*
X52527Y315108D01*
X52856Y314571D01*
X53265Y314092D01*
X53744Y313683D01*
X54281Y313354D01*
X54862Y313113D01*
X55475Y312966D01*
X56102Y312917D01*
X56730Y312966D01*
X57342Y313113D01*
X57924Y313354D01*
X58461Y313683D01*
X58940Y314092D01*
X59348Y314571D01*
X59415Y314679D01*
X62066D01*
Y227408D01*
X61988Y227402D01*
X61911Y227383D01*
X61838Y227353D01*
X61771Y227312D01*
X61711Y227261D01*
X61660Y227201D01*
X61619Y227134D01*
X61589Y227061D01*
X61571Y226985D01*
X61566Y226906D01*
Y222306D01*
X61571Y222228D01*
X61589Y222151D01*
X61619Y222079D01*
X61660Y222011D01*
X61711Y221952D01*
X61771Y221901D01*
X61838Y221859D01*
X61911Y221829D01*
X61988Y221811D01*
X62066Y221805D01*
Y216613D01*
X61948Y216390D01*
X61797Y216011D01*
X61682Y215619D01*
X61605Y215217D01*
X61566Y214811D01*
Y214402D01*
X61605Y213995D01*
X61682Y213594D01*
X61797Y213202D01*
X61948Y212822D01*
X62066Y212593D01*
Y206613D01*
X61948Y206390D01*
X61797Y206011D01*
X61682Y205619D01*
X61605Y205217D01*
X61566Y204811D01*
Y204402D01*
X61605Y203995D01*
X61682Y203594D01*
X61797Y203202D01*
X61948Y202822D01*
X62066Y202593D01*
Y196613D01*
X61948Y196390D01*
X61797Y196011D01*
X61682Y195619D01*
X61605Y195217D01*
X61566Y194811D01*
Y194402D01*
X61605Y193995D01*
X61682Y193594D01*
X61797Y193202D01*
X61948Y192822D01*
X62066Y192593D01*
Y186613D01*
X61948Y186390D01*
X61797Y186011D01*
X61682Y185619D01*
X61605Y185217D01*
X61566Y184811D01*
Y184402D01*
X61605Y183995D01*
X61682Y183594D01*
X61797Y183202D01*
X61948Y182822D01*
X62066Y182593D01*
Y176613D01*
X61948Y176390D01*
X61797Y176011D01*
X61682Y175619D01*
X61605Y175217D01*
X61566Y174811D01*
Y174402D01*
X61605Y173995D01*
X61682Y173594D01*
X61797Y173202D01*
X61948Y172822D01*
X62066Y172593D01*
Y166613D01*
X61948Y166390D01*
X61797Y166011D01*
X61682Y165619D01*
X61605Y165217D01*
X61566Y164811D01*
Y164402D01*
X61605Y163995D01*
X61682Y163594D01*
X61797Y163202D01*
X61948Y162822D01*
X62066Y162593D01*
Y156613D01*
X61948Y156390D01*
X61797Y156011D01*
X61682Y155619D01*
X61605Y155217D01*
X61566Y154811D01*
Y154402D01*
X61605Y153995D01*
X61682Y153594D01*
X61797Y153202D01*
X61948Y152822D01*
X62066Y152593D01*
Y146613D01*
X61948Y146390D01*
X61797Y146011D01*
X61682Y145619D01*
X61605Y145217D01*
X61566Y144811D01*
Y144402D01*
X61605Y143995D01*
X61682Y143594D01*
X61797Y143202D01*
X61948Y142822D01*
X62066Y142593D01*
Y136613D01*
X61948Y136390D01*
X61797Y136011D01*
X61682Y135619D01*
X61605Y135217D01*
X61566Y134811D01*
Y134402D01*
X61605Y133995D01*
X61682Y133594D01*
X61797Y133202D01*
X61948Y132822D01*
X62066Y132593D01*
Y126613D01*
X61948Y126390D01*
X61797Y126011D01*
X61682Y125619D01*
X61605Y125217D01*
X61566Y124811D01*
Y124402D01*
X61605Y123995D01*
X61682Y123594D01*
X61797Y123202D01*
X61948Y122822D01*
X62066Y122593D01*
Y116613D01*
X61948Y116390D01*
X61797Y116011D01*
X61682Y115619D01*
X61605Y115217D01*
X61566Y114811D01*
Y114402D01*
X61605Y113995D01*
X61682Y113594D01*
X61797Y113202D01*
X61948Y112822D01*
X62066Y112593D01*
Y106613D01*
X61948Y106390D01*
X61797Y106011D01*
X61682Y105619D01*
X61605Y105217D01*
X61566Y104811D01*
Y104402D01*
X61605Y103995D01*
X61682Y103594D01*
X61797Y103202D01*
X61948Y102822D01*
X62066Y102593D01*
Y96613D01*
X61948Y96390D01*
X61797Y96011D01*
X61682Y95619D01*
X61605Y95217D01*
X61566Y94811D01*
Y94402D01*
X61605Y93995D01*
X61682Y93594D01*
X61797Y93202D01*
X61948Y92822D01*
X62066Y92593D01*
Y86613D01*
X61948Y86390D01*
X61797Y86011D01*
X61682Y85619D01*
X61605Y85217D01*
X61566Y84811D01*
Y84402D01*
X61605Y83995D01*
X61682Y83594D01*
X61797Y83202D01*
X61948Y82822D01*
X62066Y82593D01*
Y76613D01*
X61948Y76390D01*
X61797Y76011D01*
X61682Y75619D01*
X61605Y75217D01*
X61566Y74811D01*
Y74402D01*
X61605Y73995D01*
X61682Y73594D01*
X61797Y73202D01*
X61948Y72822D01*
X62066Y72593D01*
Y39370D01*
X49418Y39370D01*
Y73376D01*
X49834Y74055D01*
X50141Y74797D01*
X50328Y75578D01*
X50376Y76378D01*
X50328Y77178D01*
X50141Y77959D01*
X49834Y78700D01*
X49418Y79379D01*
Y83376D01*
X49834Y84055D01*
X50141Y84797D01*
X50328Y85578D01*
X50376Y86378D01*
X50328Y87178D01*
X50141Y87959D01*
X49834Y88700D01*
X49418Y89379D01*
Y93376D01*
X49834Y94055D01*
X50141Y94797D01*
X50328Y95578D01*
X50376Y96378D01*
X50328Y97178D01*
X50141Y97959D01*
X49834Y98700D01*
X49418Y99379D01*
Y103376D01*
X49834Y104055D01*
X50141Y104797D01*
X50328Y105578D01*
X50376Y106378D01*
X50328Y107178D01*
X50141Y107959D01*
X49834Y108700D01*
X49418Y109379D01*
Y113376D01*
X49834Y114055D01*
X50141Y114797D01*
X50328Y115578D01*
X50376Y116378D01*
X50328Y117178D01*
X50141Y117959D01*
X49834Y118700D01*
X49418Y119379D01*
Y123376D01*
X49834Y124055D01*
X50141Y124797D01*
X50328Y125578D01*
X50376Y126378D01*
X50328Y127178D01*
X50141Y127959D01*
X49834Y128700D01*
X49418Y129379D01*
Y133376D01*
X49834Y134055D01*
X50141Y134797D01*
X50328Y135578D01*
X50376Y136378D01*
X50328Y137178D01*
X50141Y137959D01*
X49834Y138700D01*
X49418Y139379D01*
Y143376D01*
X49834Y144055D01*
X50141Y144797D01*
X50328Y145578D01*
X50376Y146378D01*
X50328Y147178D01*
X50141Y147959D01*
X49834Y148700D01*
X49418Y149379D01*
Y153376D01*
X49834Y154055D01*
X50141Y154797D01*
X50328Y155578D01*
X50376Y156378D01*
X50328Y157178D01*
X50141Y157959D01*
X49834Y158700D01*
X49418Y159379D01*
Y163376D01*
X49834Y164055D01*
X50141Y164797D01*
X50328Y165578D01*
X50376Y166378D01*
X50328Y167178D01*
X50141Y167959D01*
X49834Y168700D01*
X49418Y169379D01*
Y173376D01*
X49834Y174055D01*
X50141Y174797D01*
X50328Y175578D01*
X50376Y176378D01*
X50328Y177178D01*
X50141Y177959D01*
X49834Y178700D01*
X49418Y179379D01*
Y183376D01*
X49834Y184055D01*
X50141Y184797D01*
X50328Y185578D01*
X50376Y186378D01*
X50328Y187178D01*
X50141Y187959D01*
X49834Y188700D01*
X49418Y189379D01*
Y193376D01*
X49834Y194055D01*
X50141Y194797D01*
X50328Y195578D01*
X50376Y196378D01*
X50328Y197178D01*
X50141Y197959D01*
X49834Y198700D01*
X49418Y199379D01*
Y203376D01*
X49834Y204055D01*
X50141Y204797D01*
X50328Y205578D01*
X50376Y206378D01*
X50328Y207178D01*
X50141Y207959D01*
X49834Y208700D01*
X49418Y209379D01*
Y213376D01*
X49834Y214055D01*
X50141Y214797D01*
X50328Y215578D01*
X50376Y216378D01*
X50328Y217178D01*
X50141Y217959D01*
X49834Y218700D01*
X49418Y219379D01*
Y221379D01*
X49559Y221437D01*
X49760Y221561D01*
X49940Y221714D01*
X50093Y221894D01*
X50216Y222095D01*
X50307Y222313D01*
X50362Y222543D01*
X50376Y222778D01*
X50362Y230213D01*
X50307Y230443D01*
X50216Y230661D01*
X50093Y230862D01*
X49940Y231042D01*
X49760Y231195D01*
X49559Y231319D01*
X49418Y231377D01*
Y233376D01*
X49834Y234055D01*
X50141Y234797D01*
X50328Y235578D01*
X50376Y236378D01*
X50328Y237178D01*
X50141Y237959D01*
X49834Y238700D01*
X49418Y239379D01*
Y243376D01*
X49834Y244055D01*
X50141Y244797D01*
X50328Y245578D01*
X50376Y246378D01*
X50328Y247178D01*
X50141Y247959D01*
X49834Y248700D01*
X49418Y249379D01*
Y253376D01*
X49834Y254055D01*
X50141Y254797D01*
X50328Y255578D01*
X50376Y256378D01*
X50328Y257178D01*
X50141Y257959D01*
X49834Y258700D01*
X49418Y259379D01*
Y263376D01*
X49834Y264055D01*
X50141Y264797D01*
X50328Y265578D01*
X50376Y266378D01*
X50328Y267178D01*
X50141Y267959D01*
X49834Y268700D01*
X49418Y269379D01*
Y273376D01*
X49834Y274055D01*
X50141Y274797D01*
X50328Y275578D01*
X50376Y276378D01*
X50328Y277178D01*
X50141Y277959D01*
X49834Y278700D01*
X49418Y279379D01*
Y283376D01*
X49834Y284055D01*
X50141Y284797D01*
X50328Y285578D01*
X50376Y286378D01*
X50328Y287178D01*
X50141Y287959D01*
X49834Y288700D01*
X49418Y289379D01*
Y293376D01*
X49834Y294055D01*
X50141Y294797D01*
X50328Y295578D01*
X50376Y296378D01*
X50328Y297178D01*
X50141Y297959D01*
X49834Y298700D01*
X49418Y299379D01*
Y303376D01*
X49834Y304055D01*
X50141Y304797D01*
X50328Y305578D01*
X50376Y306378D01*
X50328Y307178D01*
X50141Y307959D01*
X49834Y308700D01*
X49418Y309379D01*
Y313376D01*
X49834Y314055D01*
X50141Y314797D01*
X50328Y315578D01*
X50376Y316378D01*
X50328Y317178D01*
X50141Y317959D01*
X49834Y318700D01*
X49418Y319379D01*
Y323802D01*
X49465Y323815D01*
X49572Y323863D01*
X49671Y323928D01*
X49758Y324007D01*
X49832Y324100D01*
X49889Y324203D01*
X50067Y324616D01*
X50203Y325044D01*
X50301Y325483D01*
X50361Y325929D01*
X50381Y326378D01*
X50361Y326827D01*
X50301Y327273D01*
X50203Y327712D01*
X50067Y328140D01*
X49893Y328555D01*
X49835Y328658D01*
X49761Y328751D01*
X49673Y328831D01*
X49574Y328896D01*
X49466Y328944D01*
X49418Y328957D01*
Y333376D01*
G37*
G36*
Y413386D02*X62066D01*
Y363314D01*
X61495Y363452D01*
X60867Y363501D01*
X60239Y363452D01*
X59627Y363305D01*
X59045Y363064D01*
X58509Y362735D01*
X58030Y362326D01*
X57621Y361847D01*
X57292Y361310D01*
X57051Y360728D01*
X56904Y360116D01*
X56855Y359489D01*
X56904Y358861D01*
X57051Y358249D01*
X57292Y357667D01*
X57621Y357130D01*
X58030Y356651D01*
X58509Y356243D01*
X59045Y355914D01*
X59627Y355673D01*
X60239Y355526D01*
X60867Y355476D01*
X61495Y355526D01*
X62066Y355663D01*
Y348486D01*
X57710Y348479D01*
X57557Y348443D01*
X57412Y348382D01*
X57277Y348300D01*
X57158Y348198D01*
X57055Y348078D01*
X56973Y347944D01*
X56913Y347799D01*
X56876Y347646D01*
X56867Y347489D01*
X56876Y341332D01*
X56913Y341179D01*
X56973Y341033D01*
X57055Y340899D01*
X57158Y340779D01*
X57277Y340677D01*
X57412Y340595D01*
X57557Y340535D01*
X57710Y340498D01*
X57867Y340489D01*
X62066Y340495D01*
Y338864D01*
X49733D01*
X49418Y339379D01*
Y343376D01*
X49834Y344055D01*
X50141Y344797D01*
X50328Y345578D01*
X50376Y346378D01*
X50328Y347178D01*
X50141Y347959D01*
X49834Y348700D01*
X49418Y349379D01*
Y353376D01*
X49834Y354055D01*
X50141Y354797D01*
X50328Y355578D01*
X50376Y356378D01*
X50328Y357178D01*
X50141Y357959D01*
X49834Y358700D01*
X49418Y359379D01*
Y363376D01*
X49834Y364055D01*
X50141Y364797D01*
X50328Y365578D01*
X50376Y366378D01*
X50328Y367178D01*
X50141Y367959D01*
X49834Y368700D01*
X49418Y369379D01*
Y373376D01*
X49834Y374055D01*
X50141Y374797D01*
X50328Y375578D01*
X50376Y376378D01*
X50328Y377178D01*
X50141Y377959D01*
X49834Y378700D01*
X49418Y379379D01*
Y413386D01*
G37*
G36*
Y309379D02*X49414Y309385D01*
X48893Y309995D01*
X48283Y310517D01*
X47598Y310936D01*
X46856Y311243D01*
X46296Y311378D01*
X46856Y311513D01*
X47598Y311820D01*
X48283Y312239D01*
X48893Y312761D01*
X49414Y313371D01*
X49418Y313376D01*
Y309379D01*
G37*
G36*
Y299379D02*X49414Y299385D01*
X48893Y299995D01*
X48283Y300517D01*
X47598Y300936D01*
X46856Y301243D01*
X46296Y301378D01*
X46856Y301513D01*
X47598Y301820D01*
X48283Y302239D01*
X48893Y302761D01*
X49414Y303371D01*
X49418Y303376D01*
Y299379D01*
G37*
G36*
Y289379D02*X49414Y289385D01*
X48893Y289995D01*
X48283Y290517D01*
X47598Y290936D01*
X46856Y291243D01*
X46296Y291378D01*
X46856Y291513D01*
X47598Y291820D01*
X48283Y292239D01*
X48893Y292761D01*
X49414Y293371D01*
X49418Y293376D01*
Y289379D01*
G37*
G36*
Y279379D02*X49414Y279385D01*
X48893Y279995D01*
X48283Y280517D01*
X47598Y280936D01*
X46856Y281243D01*
X46296Y281378D01*
X46856Y281513D01*
X47598Y281820D01*
X48283Y282239D01*
X48893Y282761D01*
X49414Y283371D01*
X49418Y283376D01*
Y279379D01*
G37*
G36*
Y269379D02*X49414Y269385D01*
X48893Y269995D01*
X48283Y270517D01*
X47598Y270936D01*
X46856Y271243D01*
X46296Y271378D01*
X46856Y271513D01*
X47598Y271820D01*
X48283Y272239D01*
X48893Y272761D01*
X49414Y273371D01*
X49418Y273376D01*
Y269379D01*
G37*
G36*
Y259379D02*X49414Y259385D01*
X48893Y259995D01*
X48283Y260517D01*
X47598Y260936D01*
X46856Y261243D01*
X46296Y261378D01*
X46856Y261513D01*
X47598Y261820D01*
X48283Y262239D01*
X48893Y262761D01*
X49414Y263371D01*
X49418Y263376D01*
Y259379D01*
G37*
G36*
Y249379D02*X49414Y249385D01*
X48893Y249995D01*
X48283Y250517D01*
X47598Y250936D01*
X46856Y251243D01*
X46296Y251378D01*
X46856Y251513D01*
X47598Y251820D01*
X48283Y252239D01*
X48893Y252761D01*
X49414Y253371D01*
X49418Y253376D01*
Y249379D01*
G37*
G36*
Y239379D02*X49414Y239385D01*
X48893Y239995D01*
X48283Y240517D01*
X47598Y240936D01*
X46856Y241243D01*
X46296Y241378D01*
X46856Y241513D01*
X47598Y241820D01*
X48283Y242239D01*
X48893Y242761D01*
X49414Y243371D01*
X49418Y243376D01*
Y239379D01*
G37*
G36*
Y231377D02*X49341Y231409D01*
X49111Y231464D01*
X48876Y231478D01*
X46695Y231474D01*
X46856Y231513D01*
X47598Y231820D01*
X48283Y232239D01*
X48893Y232761D01*
X49414Y233371D01*
X49418Y233376D01*
Y231377D01*
G37*
G36*
Y219379D02*X49414Y219385D01*
X48893Y219995D01*
X48283Y220517D01*
X47598Y220936D01*
X46856Y221243D01*
X46673Y221287D01*
X49111Y221292D01*
X49341Y221347D01*
X49418Y221379D01*
Y219379D01*
G37*
G36*
Y209379D02*X49414Y209385D01*
X48893Y209995D01*
X48283Y210517D01*
X47598Y210936D01*
X46856Y211243D01*
X46296Y211378D01*
X46856Y211513D01*
X47598Y211820D01*
X48283Y212239D01*
X48893Y212761D01*
X49414Y213371D01*
X49418Y213376D01*
Y209379D01*
G37*
G36*
Y199379D02*X49414Y199385D01*
X48893Y199995D01*
X48283Y200517D01*
X47598Y200936D01*
X46856Y201243D01*
X46296Y201378D01*
X46856Y201513D01*
X47598Y201820D01*
X48283Y202239D01*
X48893Y202761D01*
X49414Y203371D01*
X49418Y203376D01*
Y199379D01*
G37*
G36*
Y189379D02*X49414Y189385D01*
X48893Y189995D01*
X48283Y190517D01*
X47598Y190936D01*
X46856Y191243D01*
X46296Y191378D01*
X46856Y191513D01*
X47598Y191820D01*
X48283Y192239D01*
X48893Y192761D01*
X49414Y193371D01*
X49418Y193376D01*
Y189379D01*
G37*
G36*
Y179379D02*X49414Y179385D01*
X48893Y179995D01*
X48283Y180517D01*
X47598Y180936D01*
X46856Y181243D01*
X46296Y181378D01*
X46856Y181513D01*
X47598Y181820D01*
X48283Y182239D01*
X48893Y182761D01*
X49414Y183371D01*
X49418Y183376D01*
Y179379D01*
G37*
G36*
Y169379D02*X49414Y169385D01*
X48893Y169995D01*
X48283Y170517D01*
X47598Y170936D01*
X46856Y171243D01*
X46296Y171378D01*
X46856Y171513D01*
X47598Y171820D01*
X48283Y172239D01*
X48893Y172761D01*
X49414Y173371D01*
X49418Y173376D01*
Y169379D01*
G37*
G36*
Y159379D02*X49414Y159385D01*
X48893Y159995D01*
X48283Y160517D01*
X47598Y160936D01*
X46856Y161243D01*
X46296Y161378D01*
X46856Y161513D01*
X47598Y161820D01*
X48283Y162239D01*
X48893Y162761D01*
X49414Y163371D01*
X49418Y163376D01*
Y159379D01*
G37*
G36*
Y149379D02*X49414Y149385D01*
X48893Y149995D01*
X48283Y150517D01*
X47598Y150936D01*
X46856Y151243D01*
X46296Y151378D01*
X46856Y151513D01*
X47598Y151820D01*
X48283Y152239D01*
X48893Y152761D01*
X49414Y153371D01*
X49418Y153376D01*
Y149379D01*
G37*
G36*
Y139379D02*X49414Y139385D01*
X48893Y139995D01*
X48283Y140517D01*
X47598Y140936D01*
X46856Y141243D01*
X46296Y141378D01*
X46856Y141513D01*
X47598Y141820D01*
X48283Y142239D01*
X48893Y142761D01*
X49414Y143371D01*
X49418Y143376D01*
Y139379D01*
G37*
G36*
Y129379D02*X49414Y129385D01*
X48893Y129995D01*
X48283Y130517D01*
X47598Y130936D01*
X46856Y131243D01*
X46296Y131378D01*
X46856Y131513D01*
X47598Y131820D01*
X48283Y132239D01*
X48893Y132761D01*
X49414Y133371D01*
X49418Y133376D01*
Y129379D01*
G37*
G36*
Y119379D02*X49414Y119385D01*
X48893Y119995D01*
X48283Y120517D01*
X47598Y120936D01*
X46856Y121243D01*
X46296Y121378D01*
X46856Y121513D01*
X47598Y121820D01*
X48283Y122239D01*
X48893Y122761D01*
X49414Y123371D01*
X49418Y123376D01*
Y119379D01*
G37*
G36*
Y109379D02*X49414Y109385D01*
X48893Y109995D01*
X48283Y110517D01*
X47598Y110936D01*
X46856Y111243D01*
X46296Y111378D01*
X46856Y111513D01*
X47598Y111820D01*
X48283Y112239D01*
X48893Y112761D01*
X49414Y113371D01*
X49418Y113376D01*
Y109379D01*
G37*
G36*
Y99379D02*X49414Y99385D01*
X48893Y99995D01*
X48283Y100517D01*
X47598Y100936D01*
X46856Y101243D01*
X46296Y101378D01*
X46856Y101513D01*
X47598Y101820D01*
X48283Y102239D01*
X48893Y102761D01*
X49414Y103371D01*
X49418Y103376D01*
Y99379D01*
G37*
G36*
Y89379D02*X49414Y89385D01*
X48893Y89995D01*
X48283Y90517D01*
X47598Y90936D01*
X46856Y91243D01*
X46296Y91378D01*
X46856Y91513D01*
X47598Y91820D01*
X48283Y92239D01*
X48893Y92761D01*
X49414Y93371D01*
X49418Y93376D01*
Y89379D01*
G37*
G36*
Y79379D02*X49414Y79385D01*
X48893Y79995D01*
X48283Y80517D01*
X47598Y80936D01*
X46856Y81243D01*
X46296Y81378D01*
X46856Y81513D01*
X47598Y81820D01*
X48283Y82239D01*
X48893Y82761D01*
X49414Y83371D01*
X49418Y83376D01*
Y79379D01*
G37*
G36*
Y369379D02*X49414Y369385D01*
X48893Y369995D01*
X48283Y370517D01*
X47598Y370936D01*
X46856Y371243D01*
X46296Y371378D01*
X46856Y371513D01*
X47598Y371820D01*
X48283Y372239D01*
X48893Y372761D01*
X49414Y373371D01*
X49418Y373376D01*
Y369379D01*
G37*
G36*
Y359379D02*X49414Y359385D01*
X48893Y359995D01*
X48283Y360517D01*
X47598Y360936D01*
X46856Y361243D01*
X46296Y361378D01*
X46856Y361513D01*
X47598Y361820D01*
X48283Y362239D01*
X48893Y362761D01*
X49414Y363371D01*
X49418Y363376D01*
Y359379D01*
G37*
G36*
Y349379D02*X49414Y349385D01*
X48893Y349995D01*
X48283Y350517D01*
X47598Y350936D01*
X46856Y351243D01*
X46296Y351378D01*
X46856Y351513D01*
X47598Y351820D01*
X48283Y352239D01*
X48893Y352761D01*
X49414Y353371D01*
X49418Y353376D01*
Y349379D01*
G37*
G36*
Y339379D02*X49414Y339385D01*
X48893Y339995D01*
X48283Y340517D01*
X47598Y340936D01*
X46856Y341243D01*
X46296Y341378D01*
X46856Y341513D01*
X47598Y341820D01*
X48283Y342239D01*
X48893Y342761D01*
X49414Y343371D01*
X49418Y343376D01*
Y339379D01*
G37*
G36*
X41134Y73376D02*X41137Y73371D01*
X41658Y72761D01*
X42269Y72239D01*
X42953Y71820D01*
X43695Y71513D01*
X44475Y71325D01*
X45276Y71262D01*
X46076Y71325D01*
X46856Y71513D01*
X47598Y71820D01*
X48283Y72239D01*
X48893Y72761D01*
X49414Y73371D01*
X49418Y73376D01*
Y39370D01*
X41134Y39370D01*
Y73376D01*
G37*
G36*
Y83376D02*X41137Y83371D01*
X41658Y82761D01*
X42269Y82239D01*
X42953Y81820D01*
X43695Y81513D01*
X44256Y81378D01*
X43695Y81243D01*
X42953Y80936D01*
X42269Y80517D01*
X41658Y79995D01*
X41137Y79385D01*
X41134Y79379D01*
Y83376D01*
G37*
G36*
Y93376D02*X41137Y93371D01*
X41658Y92761D01*
X42269Y92239D01*
X42953Y91820D01*
X43695Y91513D01*
X44256Y91378D01*
X43695Y91243D01*
X42953Y90936D01*
X42269Y90517D01*
X41658Y89995D01*
X41137Y89385D01*
X41134Y89379D01*
Y93376D01*
G37*
G36*
Y103376D02*X41137Y103371D01*
X41658Y102761D01*
X42269Y102239D01*
X42953Y101820D01*
X43695Y101513D01*
X44256Y101378D01*
X43695Y101243D01*
X42953Y100936D01*
X42269Y100517D01*
X41658Y99995D01*
X41137Y99385D01*
X41134Y99379D01*
Y103376D01*
G37*
G36*
Y113376D02*X41137Y113371D01*
X41658Y112761D01*
X42269Y112239D01*
X42953Y111820D01*
X43695Y111513D01*
X44256Y111378D01*
X43695Y111243D01*
X42953Y110936D01*
X42269Y110517D01*
X41658Y109995D01*
X41137Y109385D01*
X41134Y109379D01*
Y113376D01*
G37*
G36*
Y123376D02*X41137Y123371D01*
X41658Y122761D01*
X42269Y122239D01*
X42953Y121820D01*
X43695Y121513D01*
X44256Y121378D01*
X43695Y121243D01*
X42953Y120936D01*
X42269Y120517D01*
X41658Y119995D01*
X41137Y119385D01*
X41134Y119379D01*
Y123376D01*
G37*
G36*
Y133376D02*X41137Y133371D01*
X41658Y132761D01*
X42269Y132239D01*
X42953Y131820D01*
X43695Y131513D01*
X44256Y131378D01*
X43695Y131243D01*
X42953Y130936D01*
X42269Y130517D01*
X41658Y129995D01*
X41137Y129385D01*
X41134Y129379D01*
Y133376D01*
G37*
G36*
Y143376D02*X41137Y143371D01*
X41658Y142761D01*
X42269Y142239D01*
X42953Y141820D01*
X43695Y141513D01*
X44256Y141378D01*
X43695Y141243D01*
X42953Y140936D01*
X42269Y140517D01*
X41658Y139995D01*
X41137Y139385D01*
X41134Y139379D01*
Y143376D01*
G37*
G36*
Y153376D02*X41137Y153371D01*
X41658Y152761D01*
X42269Y152239D01*
X42953Y151820D01*
X43695Y151513D01*
X44256Y151378D01*
X43695Y151243D01*
X42953Y150936D01*
X42269Y150517D01*
X41658Y149995D01*
X41137Y149385D01*
X41134Y149379D01*
Y153376D01*
G37*
G36*
Y163376D02*X41137Y163371D01*
X41658Y162761D01*
X42269Y162239D01*
X42953Y161820D01*
X43695Y161513D01*
X44256Y161378D01*
X43695Y161243D01*
X42953Y160936D01*
X42269Y160517D01*
X41658Y159995D01*
X41137Y159385D01*
X41134Y159379D01*
Y163376D01*
G37*
G36*
Y173376D02*X41137Y173371D01*
X41658Y172761D01*
X42269Y172239D01*
X42953Y171820D01*
X43695Y171513D01*
X44256Y171378D01*
X43695Y171243D01*
X42953Y170936D01*
X42269Y170517D01*
X41658Y169995D01*
X41137Y169385D01*
X41134Y169379D01*
Y173376D01*
G37*
G36*
Y183376D02*X41137Y183371D01*
X41658Y182761D01*
X42269Y182239D01*
X42953Y181820D01*
X43695Y181513D01*
X44256Y181378D01*
X43695Y181243D01*
X42953Y180936D01*
X42269Y180517D01*
X41658Y179995D01*
X41137Y179385D01*
X41134Y179379D01*
Y183376D01*
G37*
G36*
Y193376D02*X41137Y193371D01*
X41658Y192761D01*
X42269Y192239D01*
X42953Y191820D01*
X43695Y191513D01*
X44256Y191378D01*
X43695Y191243D01*
X42953Y190936D01*
X42269Y190517D01*
X41658Y189995D01*
X41137Y189385D01*
X41134Y189379D01*
Y193376D01*
G37*
G36*
Y203376D02*X41137Y203371D01*
X41658Y202761D01*
X42269Y202239D01*
X42953Y201820D01*
X43695Y201513D01*
X44256Y201378D01*
X43695Y201243D01*
X42953Y200936D01*
X42269Y200517D01*
X41658Y199995D01*
X41137Y199385D01*
X41134Y199379D01*
Y203376D01*
G37*
G36*
Y213376D02*X41137Y213371D01*
X41658Y212761D01*
X42269Y212239D01*
X42953Y211820D01*
X43695Y211513D01*
X44256Y211378D01*
X43695Y211243D01*
X42953Y210936D01*
X42269Y210517D01*
X41658Y209995D01*
X41137Y209385D01*
X41134Y209379D01*
Y213376D01*
G37*
G36*
Y221379D02*X41211Y221347D01*
X41440Y221292D01*
X41676Y221278D01*
X43856Y221282D01*
X43695Y221243D01*
X42953Y220936D01*
X42269Y220517D01*
X41658Y219995D01*
X41137Y219385D01*
X41134Y219379D01*
Y221379D01*
G37*
G36*
Y233376D02*X41137Y233371D01*
X41658Y232761D01*
X42269Y232239D01*
X42953Y231820D01*
X43695Y231513D01*
X43878Y231469D01*
X41440Y231464D01*
X41211Y231409D01*
X41134Y231377D01*
Y233376D01*
G37*
G36*
Y243376D02*X41137Y243371D01*
X41658Y242761D01*
X42269Y242239D01*
X42953Y241820D01*
X43695Y241513D01*
X44256Y241378D01*
X43695Y241243D01*
X42953Y240936D01*
X42269Y240517D01*
X41658Y239995D01*
X41137Y239385D01*
X41134Y239379D01*
Y243376D01*
G37*
G36*
Y253376D02*X41137Y253371D01*
X41658Y252761D01*
X42269Y252239D01*
X42953Y251820D01*
X43695Y251513D01*
X44256Y251378D01*
X43695Y251243D01*
X42953Y250936D01*
X42269Y250517D01*
X41658Y249995D01*
X41137Y249385D01*
X41134Y249379D01*
Y253376D01*
G37*
G36*
Y263376D02*X41137Y263371D01*
X41658Y262761D01*
X42269Y262239D01*
X42953Y261820D01*
X43695Y261513D01*
X44256Y261378D01*
X43695Y261243D01*
X42953Y260936D01*
X42269Y260517D01*
X41658Y259995D01*
X41137Y259385D01*
X41134Y259379D01*
Y263376D01*
G37*
G36*
Y273376D02*X41137Y273371D01*
X41658Y272761D01*
X42269Y272239D01*
X42953Y271820D01*
X43695Y271513D01*
X44256Y271378D01*
X43695Y271243D01*
X42953Y270936D01*
X42269Y270517D01*
X41658Y269995D01*
X41137Y269385D01*
X41134Y269379D01*
Y273376D01*
G37*
G36*
Y283376D02*X41137Y283371D01*
X41658Y282761D01*
X42269Y282239D01*
X42953Y281820D01*
X43695Y281513D01*
X44256Y281378D01*
X43695Y281243D01*
X42953Y280936D01*
X42269Y280517D01*
X41658Y279995D01*
X41137Y279385D01*
X41134Y279379D01*
Y283376D01*
G37*
G36*
Y293376D02*X41137Y293371D01*
X41658Y292761D01*
X42269Y292239D01*
X42953Y291820D01*
X43695Y291513D01*
X44256Y291378D01*
X43695Y291243D01*
X42953Y290936D01*
X42269Y290517D01*
X41658Y289995D01*
X41137Y289385D01*
X41134Y289379D01*
Y293376D01*
G37*
G36*
Y303376D02*X41137Y303371D01*
X41658Y302761D01*
X42269Y302239D01*
X42953Y301820D01*
X43695Y301513D01*
X44256Y301378D01*
X43695Y301243D01*
X42953Y300936D01*
X42269Y300517D01*
X41658Y299995D01*
X41137Y299385D01*
X41134Y299379D01*
Y303376D01*
G37*
G36*
Y313376D02*X41137Y313371D01*
X41658Y312761D01*
X42269Y312239D01*
X42953Y311820D01*
X43695Y311513D01*
X44256Y311378D01*
X43695Y311243D01*
X42953Y310936D01*
X42269Y310517D01*
X41658Y309995D01*
X41137Y309385D01*
X41134Y309379D01*
Y313376D01*
G37*
G36*
Y333376D02*X41137Y333371D01*
X41658Y332761D01*
X42269Y332239D01*
X42953Y331820D01*
X43695Y331513D01*
X44260Y331377D01*
X43942Y331306D01*
X43513Y331169D01*
X43099Y330995D01*
X42995Y330937D01*
X42903Y330863D01*
X42823Y330775D01*
X42758Y330676D01*
X42709Y330568D01*
X42678Y330454D01*
X42665Y330336D01*
X42671Y330217D01*
X42695Y330101D01*
X42737Y329990D01*
X42796Y329887D01*
X42870Y329795D01*
X42958Y329715D01*
X43057Y329650D01*
X43165Y329601D01*
X43279Y329570D01*
X43397Y329557D01*
X43516Y329563D01*
X43632Y329587D01*
X43742Y329631D01*
X44033Y329757D01*
X44335Y329853D01*
X44644Y329922D01*
X44959Y329964D01*
X45276Y329978D01*
X45592Y329964D01*
X45907Y329922D01*
X46216Y329853D01*
X46518Y329757D01*
X46811Y329634D01*
X46920Y329590D01*
X47036Y329566D01*
X47154Y329561D01*
X47271Y329573D01*
X47385Y329605D01*
X47493Y329653D01*
X47591Y329718D01*
X47679Y329797D01*
X47753Y329889D01*
X47811Y329992D01*
X47853Y330102D01*
X47877Y330218D01*
X47883Y330336D01*
X47870Y330453D01*
X47839Y330567D01*
X47790Y330674D01*
X47725Y330773D01*
X47646Y330861D01*
X47554Y330934D01*
X47451Y330991D01*
X47038Y331169D01*
X46609Y331306D01*
X46291Y331377D01*
X46856Y331513D01*
X47598Y331820D01*
X48283Y332239D01*
X48893Y332761D01*
X49414Y333371D01*
X49418Y333376D01*
Y328957D01*
X49351Y328976D01*
X49233Y328988D01*
X49115Y328983D01*
X48999Y328959D01*
X48888Y328917D01*
X48785Y328858D01*
X48692Y328784D01*
X48613Y328696D01*
X48548Y328597D01*
X48499Y328489D01*
X48468Y328374D01*
X48455Y328256D01*
X48460Y328138D01*
X48485Y328022D01*
X48529Y327912D01*
X48654Y327621D01*
X48751Y327319D01*
X48820Y327009D01*
X48862Y326695D01*
X48876Y326378D01*
X48862Y326061D01*
X48820Y325747D01*
X48751Y325437D01*
X48654Y325135D01*
X48532Y324843D01*
X48488Y324733D01*
X48464Y324618D01*
X48458Y324500D01*
X48471Y324382D01*
X48502Y324269D01*
X48551Y324161D01*
X48615Y324062D01*
X48695Y323975D01*
X48787Y323901D01*
X48889Y323842D01*
X49000Y323801D01*
X49115Y323777D01*
X49233Y323771D01*
X49351Y323784D01*
X49418Y323802D01*
Y319379D01*
X49414Y319385D01*
X48893Y319995D01*
X48283Y320517D01*
X47598Y320936D01*
X46856Y321243D01*
X46291Y321379D01*
X46609Y321450D01*
X47038Y321587D01*
X47453Y321760D01*
X47556Y321819D01*
X47648Y321893D01*
X47728Y321981D01*
X47793Y322080D01*
X47842Y322188D01*
X47873Y322302D01*
X47886Y322420D01*
X47880Y322539D01*
X47856Y322655D01*
X47814Y322766D01*
X47755Y322869D01*
X47681Y322961D01*
X47593Y323041D01*
X47494Y323106D01*
X47386Y323155D01*
X47272Y323186D01*
X47154Y323199D01*
X47035Y323193D01*
X46919Y323169D01*
X46809Y323125D01*
X46518Y322999D01*
X46216Y322903D01*
X45907Y322834D01*
X45592Y322792D01*
X45276Y322778D01*
X44959Y322792D01*
X44644Y322834D01*
X44335Y322903D01*
X44033Y322999D01*
X43740Y323122D01*
X43631Y323166D01*
X43515Y323190D01*
X43397Y323195D01*
X43280Y323182D01*
X43166Y323151D01*
X43059Y323103D01*
X42960Y323038D01*
X42872Y322959D01*
X42799Y322867D01*
X42740Y322764D01*
X42698Y322654D01*
X42674Y322538D01*
X42669Y322420D01*
X42681Y322303D01*
X42712Y322189D01*
X42761Y322081D01*
X42826Y321983D01*
X42905Y321895D01*
X42997Y321821D01*
X43101Y321765D01*
X43513Y321587D01*
X43942Y321450D01*
X44260Y321379D01*
X43695Y321243D01*
X42953Y320936D01*
X42269Y320517D01*
X41658Y319995D01*
X41137Y319385D01*
X41134Y319379D01*
Y323798D01*
X41200Y323780D01*
X41318Y323767D01*
X41436Y323773D01*
X41552Y323797D01*
X41663Y323839D01*
X41766Y323898D01*
X41859Y323972D01*
X41939Y324060D01*
X42004Y324159D01*
X42052Y324267D01*
X42084Y324382D01*
X42096Y324500D01*
X42091Y324618D01*
X42067Y324734D01*
X42023Y324844D01*
X41897Y325135D01*
X41801Y325437D01*
X41731Y325747D01*
X41690Y326061D01*
X41676Y326378D01*
X41690Y326695D01*
X41731Y327009D01*
X41801Y327319D01*
X41897Y327621D01*
X42019Y327913D01*
X42063Y328023D01*
X42087Y328138D01*
X42093Y328256D01*
X42080Y328373D01*
X42049Y328487D01*
X42001Y328595D01*
X41936Y328694D01*
X41856Y328781D01*
X41764Y328855D01*
X41662Y328914D01*
X41551Y328955D01*
X41436Y328979D01*
X41318Y328985D01*
X41201Y328972D01*
X41134Y328954D01*
Y333376D01*
G37*
G36*
Y343376D02*X41137Y343371D01*
X41658Y342761D01*
X42269Y342239D01*
X42953Y341820D01*
X43695Y341513D01*
X44256Y341378D01*
X43695Y341243D01*
X42953Y340936D01*
X42269Y340517D01*
X41658Y339995D01*
X41137Y339385D01*
X41134Y339379D01*
Y343376D01*
G37*
G36*
Y353376D02*X41137Y353371D01*
X41658Y352761D01*
X42269Y352239D01*
X42953Y351820D01*
X43695Y351513D01*
X44256Y351378D01*
X43695Y351243D01*
X42953Y350936D01*
X42269Y350517D01*
X41658Y349995D01*
X41137Y349385D01*
X41134Y349379D01*
Y353376D01*
G37*
G36*
Y363376D02*X41137Y363371D01*
X41658Y362761D01*
X42269Y362239D01*
X42953Y361820D01*
X43695Y361513D01*
X44256Y361378D01*
X43695Y361243D01*
X42953Y360936D01*
X42269Y360517D01*
X41658Y359995D01*
X41137Y359385D01*
X41134Y359379D01*
Y363376D01*
G37*
G36*
Y373376D02*X41137Y373371D01*
X41658Y372761D01*
X42269Y372239D01*
X42953Y371820D01*
X43695Y371513D01*
X44256Y371378D01*
X43695Y371243D01*
X42953Y370936D01*
X42269Y370517D01*
X41658Y369995D01*
X41137Y369385D01*
X41134Y369379D01*
Y373376D01*
G37*
G36*
Y413386D02*X49418D01*
Y379379D01*
X49414Y379385D01*
X48893Y379995D01*
X48283Y380517D01*
X47598Y380936D01*
X46856Y381243D01*
X46076Y381431D01*
X45276Y381494D01*
X44475Y381431D01*
X43695Y381243D01*
X42953Y380936D01*
X42269Y380517D01*
X41658Y379995D01*
X41137Y379385D01*
X41134Y379379D01*
Y413386D01*
G37*
G36*
X39371D02*X41134D01*
Y379379D01*
X40717Y378700D01*
X40410Y377959D01*
X40223Y377178D01*
X40160Y376378D01*
X40223Y375578D01*
X40410Y374797D01*
X40717Y374055D01*
X41134Y373376D01*
Y369379D01*
X40717Y368700D01*
X40410Y367959D01*
X40223Y367178D01*
X40160Y366378D01*
X40223Y365578D01*
X40410Y364797D01*
X40717Y364055D01*
X41134Y363376D01*
Y359379D01*
X40717Y358700D01*
X40410Y357959D01*
X40223Y357178D01*
X40160Y356378D01*
X40223Y355578D01*
X40410Y354797D01*
X40717Y354055D01*
X41134Y353376D01*
Y349379D01*
X40717Y348700D01*
X40410Y347959D01*
X40223Y347178D01*
X40160Y346378D01*
X40223Y345578D01*
X40410Y344797D01*
X40717Y344055D01*
X41134Y343376D01*
Y339379D01*
X40717Y338700D01*
X40410Y337959D01*
X40223Y337178D01*
X40160Y336378D01*
X40223Y335578D01*
X40410Y334797D01*
X40717Y334055D01*
X41134Y333376D01*
Y328954D01*
X41087Y328941D01*
X40979Y328893D01*
X40880Y328828D01*
X40793Y328748D01*
X40719Y328656D01*
X40663Y328553D01*
X40484Y328140D01*
X40348Y327712D01*
X40250Y327273D01*
X40190Y326827D01*
X40171Y326378D01*
X40190Y325929D01*
X40250Y325483D01*
X40348Y325044D01*
X40484Y324616D01*
X40658Y324201D01*
X40716Y324098D01*
X40790Y324005D01*
X40878Y323925D01*
X40977Y323860D01*
X41085Y323812D01*
X41134Y323798D01*
Y319379D01*
X40717Y318700D01*
X40410Y317959D01*
X40223Y317178D01*
X40160Y316378D01*
X40223Y315578D01*
X40410Y314797D01*
X40717Y314055D01*
X41134Y313376D01*
Y309379D01*
X40717Y308700D01*
X40410Y307959D01*
X40223Y307178D01*
X40160Y306378D01*
X40223Y305578D01*
X40410Y304797D01*
X40717Y304055D01*
X41134Y303376D01*
Y299379D01*
X40717Y298700D01*
X40410Y297959D01*
X40223Y297178D01*
X40160Y296378D01*
X40223Y295578D01*
X40410Y294797D01*
X40717Y294055D01*
X41134Y293376D01*
Y289379D01*
X40717Y288700D01*
X40410Y287959D01*
X40223Y287178D01*
X40160Y286378D01*
X40223Y285578D01*
X40410Y284797D01*
X40717Y284055D01*
X41134Y283376D01*
Y279379D01*
X40717Y278700D01*
X40410Y277959D01*
X40223Y277178D01*
X40160Y276378D01*
X40223Y275578D01*
X40410Y274797D01*
X40717Y274055D01*
X41134Y273376D01*
Y269379D01*
X40717Y268700D01*
X40410Y267959D01*
X40223Y267178D01*
X40160Y266378D01*
X40223Y265578D01*
X40410Y264797D01*
X40717Y264055D01*
X41134Y263376D01*
Y259379D01*
X40717Y258700D01*
X40410Y257959D01*
X40223Y257178D01*
X40160Y256378D01*
X40223Y255578D01*
X40410Y254797D01*
X40717Y254055D01*
X41134Y253376D01*
Y249379D01*
X40717Y248700D01*
X40410Y247959D01*
X40223Y247178D01*
X40160Y246378D01*
X40223Y245578D01*
X40410Y244797D01*
X40717Y244055D01*
X41134Y243376D01*
Y239379D01*
X40717Y238700D01*
X40410Y237959D01*
X40223Y237178D01*
X40160Y236378D01*
X40223Y235578D01*
X40410Y234797D01*
X40717Y234055D01*
X41134Y233376D01*
Y231377D01*
X40993Y231319D01*
X40791Y231195D01*
X40612Y231042D01*
X40458Y230862D01*
X40335Y230661D01*
X40245Y230443D01*
X40189Y230213D01*
X40176Y229978D01*
X40189Y222543D01*
X40245Y222313D01*
X40335Y222095D01*
X40458Y221894D01*
X40612Y221714D01*
X40791Y221561D01*
X40993Y221437D01*
X41134Y221379D01*
Y219379D01*
X40717Y218700D01*
X40410Y217959D01*
X40223Y217178D01*
X40160Y216378D01*
X40223Y215578D01*
X40410Y214797D01*
X40717Y214055D01*
X41134Y213376D01*
Y209379D01*
X40717Y208700D01*
X40410Y207959D01*
X40223Y207178D01*
X40160Y206378D01*
X40223Y205578D01*
X40410Y204797D01*
X40717Y204055D01*
X41134Y203376D01*
Y199379D01*
X40717Y198700D01*
X40410Y197959D01*
X40223Y197178D01*
X40160Y196378D01*
X40223Y195578D01*
X40410Y194797D01*
X40717Y194055D01*
X41134Y193376D01*
Y189379D01*
X40717Y188700D01*
X40410Y187959D01*
X40223Y187178D01*
X40160Y186378D01*
X40223Y185578D01*
X40410Y184797D01*
X40717Y184055D01*
X41134Y183376D01*
Y179379D01*
X40717Y178700D01*
X40410Y177959D01*
X40223Y177178D01*
X40160Y176378D01*
X40223Y175578D01*
X40410Y174797D01*
X40717Y174055D01*
X41134Y173376D01*
Y169379D01*
X40717Y168700D01*
X40410Y167959D01*
X40223Y167178D01*
X40160Y166378D01*
X40223Y165578D01*
X40410Y164797D01*
X40717Y164055D01*
X41134Y163376D01*
Y159379D01*
X40717Y158700D01*
X40410Y157959D01*
X40223Y157178D01*
X40160Y156378D01*
X40223Y155578D01*
X40410Y154797D01*
X40717Y154055D01*
X41134Y153376D01*
Y149379D01*
X40717Y148700D01*
X40410Y147959D01*
X40223Y147178D01*
X40160Y146378D01*
X40223Y145578D01*
X40410Y144797D01*
X40717Y144055D01*
X41134Y143376D01*
Y139379D01*
X40717Y138700D01*
X40410Y137959D01*
X40223Y137178D01*
X40160Y136378D01*
X40223Y135578D01*
X40410Y134797D01*
X40717Y134055D01*
X41134Y133376D01*
Y129379D01*
X40717Y128700D01*
X40410Y127959D01*
X40223Y127178D01*
X40160Y126378D01*
X40223Y125578D01*
X40410Y124797D01*
X40717Y124055D01*
X41134Y123376D01*
Y119379D01*
X40717Y118700D01*
X40410Y117959D01*
X40223Y117178D01*
X40160Y116378D01*
X40223Y115578D01*
X40410Y114797D01*
X40717Y114055D01*
X41134Y113376D01*
Y109379D01*
X40717Y108700D01*
X40410Y107959D01*
X40223Y107178D01*
X40160Y106378D01*
X40223Y105578D01*
X40410Y104797D01*
X40717Y104055D01*
X41134Y103376D01*
Y99379D01*
X40717Y98700D01*
X40410Y97959D01*
X40223Y97178D01*
X40160Y96378D01*
X40223Y95578D01*
X40410Y94797D01*
X40717Y94055D01*
X41134Y93376D01*
Y89379D01*
X40717Y88700D01*
X40410Y87959D01*
X40223Y87178D01*
X40160Y86378D01*
X40223Y85578D01*
X40410Y84797D01*
X40717Y84055D01*
X41134Y83376D01*
Y79379D01*
X40717Y78700D01*
X40410Y77959D01*
X40223Y77178D01*
X40160Y76378D01*
X40223Y75578D01*
X40410Y74797D01*
X40717Y74055D01*
X41134Y73376D01*
Y39370D01*
X39371Y39370D01*
Y413386D01*
G37*
G54D12*X115157Y316929D02*X127953Y329724D01*
X95472Y359252D02*X139764D01*
X151575Y336614D02*X159449Y344488D01*
X56102Y316929D02*X115157D01*
X91535Y371063D02*Y363189D01*
X95472Y359252D01*
X45276Y336614D02*X151575D01*
G54D13*X70866Y47244D03*
X149606D03*
G54D14*X174607Y83268D03*
G54D15*X75866Y84606D03*
Y74606D03*
G54D16*X45276Y246378D03*
Y236378D03*
G54D11*G36*
X41676Y229978D02*Y222778D01*
X48876D01*
Y229978D01*
X41676D01*
G37*
G54D16*X45276Y216378D03*
Y206378D03*
Y196378D03*
Y186378D03*
Y176378D03*
Y166378D03*
Y156378D03*
Y146378D03*
Y136378D03*
Y126378D03*
Y116378D03*
Y106378D03*
Y96378D03*
Y86378D03*
Y76378D03*
G54D11*G36*
X62566Y227906D02*Y221306D01*
X69166D01*
Y227906D01*
X62566D01*
G37*
G54D15*X75866Y224606D03*
Y214606D03*
Y204606D03*
X65866Y214606D03*
Y204606D03*
Y194606D03*
Y184606D03*
Y174606D03*
Y164606D03*
X75866Y194606D03*
Y184606D03*
Y174606D03*
Y164606D03*
G54D17*X149607Y108268D03*
G54D14*X174607Y133268D03*
X124607D03*
G54D11*G36*
X101831Y128327D02*Y123327D01*
X106831D01*
Y128327D01*
X101831D01*
G37*
G54D18*X104331Y145827D03*
G54D19*X169831Y160670D03*
X149831Y157670D03*
X129831Y160670D03*
G54D15*X75866Y154606D03*
Y144606D03*
Y134606D03*
Y124606D03*
Y114606D03*
X65866Y154606D03*
Y144606D03*
Y134606D03*
Y124606D03*
Y114606D03*
Y104606D03*
X75866D03*
X65866Y94606D03*
X75866D03*
X65866Y84606D03*
Y74606D03*
G54D11*G36*
X181606Y291386D02*Y285386D01*
X187606D01*
Y291386D01*
X181606D01*
G37*
G54D20*X114606Y288386D03*
G54D11*G36*
X121606Y310087D02*Y304087D01*
X127606D01*
Y310087D01*
X121606D01*
G37*
G54D20*X174606Y307087D03*
G54D11*G36*
X57867Y347489D02*Y341489D01*
X63867D01*
Y347489D01*
X57867D01*
G37*
G54D16*X45276Y346378D03*
Y336378D03*
G54D20*X60867Y359489D03*
G54D16*X45276Y376378D03*
Y366378D03*
Y356378D03*
G54D13*X70866Y405512D03*
G54D20*X80867Y344489D03*
Y359489D03*
X60867Y329489D03*
X80867D03*
X139607D03*
X159607D03*
G54D13*X149606Y405512D03*
G54D11*G36*
X136607Y347489D02*Y341489D01*
X142607D01*
Y347489D01*
X136607D01*
G37*
G54D20*X139607Y359489D03*
X159607Y344489D03*
Y359489D03*
G54D11*G36*
X111487Y348239D02*Y340739D01*
X118987D01*
Y348239D01*
X111487D01*
G37*
G54D21*X105237Y344489D03*
G54D16*X45276Y326378D03*
Y316378D03*
Y306378D03*
Y296378D03*
Y286378D03*
Y276378D03*
Y266378D03*
Y256378D03*
G54D20*X127953Y329724D03*
X91535Y371063D03*
X56102Y316929D03*
G54D22*G54D23*G54D24*G54D25*G54D26*G54D27*G54D26*G54D15*G54D25*G54D28*G54D29*G54D26*G54D27*G54D23*G54D27*G54D23*G54D27*G54D23*G54D24*G54D26*G54D27*M02*
