G04 start of page 10 for group -4079 idx -4079 *
G04 Title: 26.003.00.01.01.pcb, topsilk *
G04 Creator: pcb 4.2.2 *
G04 CreationDate: Sat Feb 13 13:51:23 2021 UTC *
G04 For: bert *
G04 Format: Gerber/RS-274X *
G04 PCB-Dimensions (mil): 6896.06 4633.86 *
G04 PCB-Coordinate-Origin: lower left *
%MOIN*%
%FSLAX25Y25*%
%LNGTO*%
%ADD148C,0.0046*%
%ADD147C,0.0047*%
%ADD146C,0.0040*%
%ADD145C,0.0046*%
%ADD144C,0.0048*%
%ADD143C,0.0041*%
%ADD142C,0.0041*%
%ADD141C,0.0041*%
%ADD140C,0.0042*%
%ADD139C,0.0042*%
%ADD138C,0.0042*%
%ADD137C,0.0041*%
%ADD136C,0.0043*%
%ADD135C,0.0042*%
%ADD134C,0.0041*%
%ADD133C,0.0042*%
%ADD132C,0.0041*%
%ADD131C,0.0041*%
%ADD130C,0.0041*%
%ADD129C,0.0046*%
%ADD128C,0.0047*%
%ADD127C,0.0043*%
%ADD126C,0.0044*%
%ADD125C,0.0044*%
%ADD124C,0.0043*%
%ADD123C,0.0045*%
%ADD122C,0.0045*%
%ADD121C,0.0045*%
%ADD120C,0.0045*%
%ADD119C,0.0044*%
%ADD118C,0.0043*%
%ADD117C,0.0043*%
%ADD116C,0.0042*%
%ADD115C,0.0043*%
%ADD114C,0.0044*%
%ADD113C,0.0044*%
%ADD112C,0.0044*%
%ADD111C,0.0044*%
%ADD110C,0.0044*%
%ADD109C,0.0044*%
%ADD108C,0.0043*%
%ADD107C,0.0043*%
%ADD106C,0.0043*%
%ADD105C,0.0043*%
%ADD104C,0.0042*%
%ADD103C,0.0042*%
%ADD102C,0.0042*%
%ADD101C,0.0049*%
%ADD100C,0.0000*%
%ADD99C,0.0120*%
%ADD98C,0.0080*%
%ADD97C,0.0100*%
G54D97*X61181Y443543D02*X232441D01*
X67480Y437244D02*X232441D01*
Y443543D02*Y437244D01*
X10000Y453386D02*X640000D01*
G54D98*X105000Y388386D02*X365000D01*
Y363386D01*
Y328386D02*Y303386D01*
Y268386D02*Y243386D01*
Y208386D02*Y183386D01*
Y148386D02*Y123386D01*
G54D97*X640000Y453386D02*Y60886D01*
G54D98*X365000Y363386D02*X185000D01*
X105000Y328386D02*X365000D01*
Y303386D02*X185000D01*
X105000Y268386D02*X365000D01*
Y243386D02*X185000D01*
X105000Y208386D02*X365000D01*
Y183386D02*X185000D01*
G54D97*X10000Y60886D02*Y453386D01*
G54D98*X105000Y148386D02*X365000D01*
Y123386D02*X185000D01*
G54D97*X640000Y60886D02*X10000D01*
X232441Y69528D02*Y75827D01*
X61181Y69528D02*X232441D01*
X67480Y75827D02*X232441D01*
X67480Y443543D02*Y69528D01*
X61181Y443543D02*Y69528D01*
G54D98*X105000Y373386D02*Y388386D01*
Y313386D02*Y328386D01*
Y253386D02*Y268386D01*
Y193386D02*Y208386D01*
Y133386D02*Y148386D01*
X392700Y156786D02*Y156586D01*
Y156786D02*X392900Y157186D01*
X393100Y157386D01*
X393500Y157586D01*
X394300D01*
X394700Y157386D01*
X394900Y157186D01*
X395100Y156786D01*
Y156386D01*
X394900Y155986D01*
X394500Y155386D01*
X392500Y153386D01*
X395300D01*
X398900Y156986D02*X398700Y157386D01*
X398100Y157586D01*
X397700D02*X398100D01*
X397700D02*X397100Y157386D01*
X396700Y156786D01*
X396500Y155786D01*
Y154786D01*
X396700Y153986D01*
X397100Y153586D01*
X397700Y153386D01*
X397900D01*
X398500Y153586D01*
X398900Y153986D01*
X399100Y154586D01*
Y154786D02*Y154586D01*
Y154786D02*X398900Y155386D01*
X398500Y155786D01*
X397900Y155986D01*
X397700D02*X397900D01*
X397700D02*X397100Y155786D01*
X396700Y155386D01*
X396500Y154786D01*
X400500Y153786D02*X400300Y153586D01*
X400500Y153386D01*
X400700Y153586D01*
X400500Y153786D01*
X403100Y157586D02*X402500Y157386D01*
X402100Y156786D01*
X401900Y155786D01*
Y155186D01*
X402100Y154186D01*
X402500Y153586D01*
X403100Y153386D01*
X403500D01*
X404100Y153586D01*
X404500Y154186D01*
X404700Y155186D01*
Y155786D02*Y155186D01*
Y155786D02*X404500Y156786D01*
X404100Y157386D01*
X403500Y157586D01*
X403100D02*X403500D01*
X407100D02*X406500Y157386D01*
X406100Y156786D01*
X405900Y155786D01*
Y155186D01*
X406100Y154186D01*
X406500Y153586D01*
X407100Y153386D01*
X407500D01*
X408100Y153586D01*
X408500Y154186D01*
X408700Y155186D01*
Y155786D02*Y155186D01*
Y155786D02*X408500Y156786D01*
X408100Y157386D01*
X407500Y157586D01*
X407100D02*X407500D01*
X410300D02*X412500D01*
X411300Y155986D01*
X411900D01*
X412300Y155786D01*
X412500Y155586D01*
X412700Y154986D01*
Y154586D01*
X412500Y153986D01*
X412100Y153586D01*
X411500Y153386D01*
X410900D02*X411500D01*
X410900D02*X410300Y153586D01*
X410100Y153786D01*
X409900Y154186D01*
X414100Y153786D02*X413900Y153586D01*
X414100Y153386D01*
X414300Y153586D01*
X414100Y153786D01*
X416700Y157586D02*X416100Y157386D01*
X415700Y156786D01*
X415500Y155786D01*
Y155186D01*
X415700Y154186D01*
X416100Y153586D01*
X416700Y153386D01*
X417100D01*
X417700Y153586D01*
X418100Y154186D01*
X418300Y155186D01*
Y155786D02*Y155186D01*
Y155786D02*X418100Y156786D01*
X417700Y157386D01*
X417100Y157586D01*
X416700D02*X417100D01*
X420700D02*X420100Y157386D01*
X419700Y156786D01*
X419500Y155786D01*
Y155186D01*
X419700Y154186D01*
X420100Y153586D01*
X420700Y153386D01*
X421100D01*
X421700Y153586D01*
X422100Y154186D01*
X422300Y155186D01*
Y155786D02*Y155186D01*
Y155786D02*X422100Y156786D01*
X421700Y157386D01*
X421100Y157586D01*
X420700D02*X421100D01*
X423700Y153786D02*X423500Y153586D01*
X423700Y153386D01*
X423900Y153586D01*
X423700Y153786D01*
X426300Y157586D02*X425700Y157386D01*
X425300Y156786D01*
X425100Y155786D01*
Y155186D01*
X425300Y154186D01*
X425700Y153586D01*
X426300Y153386D01*
X426700D01*
X427300Y153586D01*
X427700Y154186D01*
X427900Y155186D01*
Y155786D02*Y155186D01*
Y155786D02*X427700Y156786D01*
X427300Y157386D01*
X426700Y157586D01*
X426300D02*X426700D01*
X429100Y156786D02*X429500Y156986D01*
X430100Y157586D01*
Y153386D01*
X431500Y153786D02*X431300Y153586D01*
X431500Y153386D01*
X431700Y153586D01*
X431500Y153786D01*
X434100Y157586D02*X433500Y157386D01*
X433100Y156786D01*
X432900Y155786D01*
Y155186D01*
X433100Y154186D01*
X433500Y153586D01*
X434100Y153386D01*
X434500D01*
X435100Y153586D01*
X435500Y154186D01*
X435700Y155186D01*
Y155786D02*Y155186D01*
Y155786D02*X435500Y156786D01*
X435100Y157386D01*
X434500Y157586D01*
X434100D02*X434500D01*
X436900Y156786D02*X437300Y156986D01*
X437900Y157586D01*
Y153386D01*
X395500Y149086D02*X395300Y149486D01*
X394900Y149886D01*
X394500Y150086D01*
X393700D02*X394500D01*
X393700D02*X393300Y149886D01*
X392900Y149486D01*
X392700Y149086D01*
X392500Y148486D01*
Y147486D01*
X392700Y146886D01*
X392900Y146486D01*
X393300Y146086D01*
X393700Y145886D01*
X394500D01*
X394900Y146086D01*
X395300Y146486D01*
X395500Y146886D01*
X397700Y148686D02*X397300Y148486D01*
X396900Y148086D01*
X396700Y147486D01*
Y147086D01*
X396900Y146486D01*
X397300Y146086D01*
X397700Y145886D01*
X398300D01*
X398700Y146086D01*
X399100Y146486D01*
X399300Y147086D01*
Y147486D02*Y147086D01*
Y147486D02*X399100Y148086D01*
X398700Y148486D01*
X398300Y148686D01*
X397700D02*X398300D01*
X400500D02*Y144486D01*
Y148086D02*X400900Y148486D01*
X401300Y148686D01*
X401900D01*
X402300Y148486D01*
X402700Y148086D01*
X402900Y147486D01*
Y147086D01*
X402700Y146486D01*
X402300Y146086D01*
X401900Y145886D01*
X401300D02*X401900D01*
X401300D02*X400900Y146086D01*
X400500Y146486D01*
X404300Y148686D02*X405500Y145886D01*
X406700Y148686D02*X405500Y145886D01*
X405100Y145086D01*
X404700Y144686D01*
X404300Y144486D01*
X404100D02*X404300D01*
X407900Y148686D02*Y145886D01*
Y147486D02*X408100Y148086D01*
X408500Y148486D01*
X408900Y148686D01*
X409500D01*
X410700Y150086D02*X410900Y149886D01*
X411100Y150086D01*
X410900Y150286D01*
X410700Y150086D01*
X410900Y148686D02*Y145886D01*
X414700Y148686D02*Y145486D01*
X414500Y144886D01*
X414300Y144686D01*
X413900Y144486D01*
X413300D02*X413900D01*
X413300D02*X412900Y144686D01*
X414700Y148086D02*X414300Y148486D01*
X413900Y148686D01*
X413300D02*X413900D01*
X413300D02*X412900Y148486D01*
X412500Y148086D01*
X412300Y147486D01*
Y147086D01*
X412500Y146486D01*
X412900Y146086D01*
X413300Y145886D01*
X413900D01*
X414300Y146086D01*
X414700Y146486D01*
X415900Y150086D02*Y145886D01*
Y147886D02*X416500Y148486D01*
X416900Y148686D01*
X417500D01*
X417900Y148486D01*
X418100Y147886D01*
Y145886D01*
X419900Y150086D02*Y146686D01*
X420100Y146086D01*
X420500Y145886D01*
X420900D01*
X419300Y148686D02*X420700D01*
X424700Y150886D02*X424300Y150486D01*
X423900Y149886D01*
X423500Y149086D01*
X423300Y148086D01*
Y147286D01*
X423500Y146286D01*
X423900Y145486D01*
X424300Y144886D01*
X424700Y144486D01*
X428900Y149086D02*X428700Y149486D01*
X428300Y149886D01*
X427900Y150086D01*
X427100D02*X427900D01*
X427100D02*X426700Y149886D01*
X426300Y149486D01*
X426100Y149086D01*
X425900Y148486D01*
Y147486D01*
X426100Y146886D01*
X426300Y146486D01*
X426700Y146086D01*
X427100Y145886D01*
X427900D01*
X428300Y146086D01*
X428700Y146486D01*
X428900Y146886D01*
X430100Y150886D02*X430500Y150486D01*
X430900Y149886D01*
X431300Y149086D01*
X431500Y148086D01*
Y147286D01*
X431300Y146286D01*
X430900Y145486D01*
X430500Y144886D01*
X430100Y144486D01*
X434100Y149286D02*Y149086D01*
Y149286D02*X434300Y149686D01*
X434500Y149886D01*
X434900Y150086D01*
X435700D01*
X436100Y149886D01*
X436300Y149686D01*
X436500Y149286D01*
Y148886D01*
X436300Y148486D01*
X435900Y147886D01*
X433900Y145886D01*
X436700D01*
X439100Y150086D02*X438500Y149886D01*
X438100Y149286D01*
X437900Y148286D01*
Y147686D01*
X438100Y146686D01*
X438500Y146086D01*
X439100Y145886D01*
X439500D01*
X440100Y146086D01*
X440500Y146686D01*
X440700Y147686D01*
Y148286D02*Y147686D01*
Y148286D02*X440500Y149286D01*
X440100Y149886D01*
X439500Y150086D01*
X439100D02*X439500D01*
X442100Y149286D02*Y149086D01*
Y149286D02*X442300Y149686D01*
X442500Y149886D01*
X442900Y150086D01*
X443700D01*
X444100Y149886D01*
X444300Y149686D01*
X444500Y149286D01*
Y148886D01*
X444300Y148486D01*
X443900Y147886D01*
X441900Y145886D01*
X444700D01*
X447100Y150086D02*X446500Y149886D01*
X446100Y149286D01*
X445900Y148286D01*
Y147686D01*
X446100Y146686D01*
X446500Y146086D01*
X447100Y145886D01*
X447500D01*
X448100Y146086D01*
X448500Y146686D01*
X448700Y147686D01*
Y148286D02*Y147686D01*
Y148286D02*X448500Y149286D01*
X448100Y149886D01*
X447500Y150086D01*
X447100D02*X447500D01*
X451100D02*Y145886D01*
Y150086D02*X452900D01*
X453500Y149886D01*
X453700Y149686D01*
X453900Y149286D01*
Y148886D01*
X453700Y148486D01*
X453500Y148286D01*
X452900Y148086D01*
X451100D02*X452900D01*
X453500Y147886D01*
X453700Y147686D01*
X453900Y147286D01*
Y146686D01*
X453700Y146286D01*
X453500Y146086D01*
X452900Y145886D01*
X451100D02*X452900D01*
X455100Y147486D02*X457500D01*
Y147886D02*Y147486D01*
Y147886D02*X457300Y148286D01*
X457100Y148486D01*
X456700Y148686D01*
X456100D02*X456700D01*
X456100D02*X455700Y148486D01*
X455300Y148086D01*
X455100Y147486D01*
Y147086D01*
X455300Y146486D01*
X455700Y146086D01*
X456100Y145886D01*
X456700D01*
X457100Y146086D01*
X457500Y146486D01*
X458700Y148686D02*Y145886D01*
Y147486D02*X458900Y148086D01*
X459300Y148486D01*
X459700Y148686D01*
X460300D01*
X462100Y150086D02*Y146686D01*
X462300Y146086D01*
X462700Y145886D01*
X463100D01*
X461500Y148686D02*X462900D01*
X466900Y150086D02*Y145886D01*
X465500Y150086D02*X468300D01*
X469500D02*X469700Y149886D01*
X469900Y150086D01*
X469700Y150286D01*
X469500Y150086D01*
X469700Y148686D02*Y145886D01*
X471100Y148686D02*Y145886D01*
Y147886D02*X471700Y148486D01*
X472100Y148686D01*
X472700D01*
X473100Y148486D01*
X473300Y147886D01*
Y145886D01*
Y147886D02*X473900Y148486D01*
X474300Y148686D01*
X474900D01*
X475300Y148486D01*
X475500Y147886D01*
Y145886D01*
X476700Y148686D02*Y145886D01*
Y147886D02*X477300Y148486D01*
X477700Y148686D01*
X478300D01*
X478700Y148486D01*
X478900Y147886D01*
Y145886D01*
Y147886D02*X479500Y148486D01*
X479900Y148686D01*
X480500D01*
X480900Y148486D01*
X481100Y147886D01*
Y145886D01*
X482300Y147486D02*X484700D01*
Y147886D02*Y147486D01*
Y147886D02*X484500Y148286D01*
X484300Y148486D01*
X483900Y148686D01*
X483300D02*X483900D01*
X483300D02*X482900Y148486D01*
X482500Y148086D01*
X482300Y147486D01*
Y147086D01*
X482500Y146486D01*
X482900Y146086D01*
X483300Y145886D01*
X483900D01*
X484300Y146086D01*
X484700Y146486D01*
X485900Y148686D02*Y145886D01*
Y147486D02*X486100Y148086D01*
X486500Y148486D01*
X486900Y148686D01*
X487500D01*
X488700D02*Y145886D01*
Y147886D02*X489300Y148486D01*
X489700Y148686D01*
X490300D01*
X490700Y148486D01*
X490900Y147886D01*
Y145886D01*
Y147886D02*X491500Y148486D01*
X491900Y148686D01*
X492500D01*
X492900Y148486D01*
X493100Y147886D01*
Y145886D01*
X496700Y148686D02*Y145886D01*
Y148086D02*X496300Y148486D01*
X495900Y148686D01*
X495300D02*X495900D01*
X495300D02*X494900Y148486D01*
X494500Y148086D01*
X494300Y147486D01*
Y147086D01*
X494500Y146486D01*
X494900Y146086D01*
X495300Y145886D01*
X495900D01*
X496300Y146086D01*
X496700Y146486D01*
X497900Y148686D02*Y145886D01*
Y147886D02*X498500Y148486D01*
X498900Y148686D01*
X499500D01*
X499900Y148486D01*
X500100Y147886D01*
Y145886D01*
X392500Y165086D02*Y160886D01*
Y165086D02*X394100Y160886D01*
X395700Y165086D02*X394100Y160886D01*
X395700Y165086D02*Y160886D01*
X399300Y163686D02*Y160886D01*
Y163086D02*X398900Y163486D01*
X398500Y163686D01*
X397900D02*X398500D01*
X397900D02*X397500Y163486D01*
X397100Y163086D01*
X396900Y162486D01*
Y162086D01*
X397100Y161486D01*
X397500Y161086D01*
X397900Y160886D01*
X398500D01*
X398900Y161086D01*
X399300Y161486D01*
X400500Y165086D02*X400700Y164886D01*
X400900Y165086D01*
X400700Y165286D01*
X400500Y165086D01*
X400700Y163686D02*Y160886D01*
X402100Y163686D02*Y160886D01*
Y162886D02*X402700Y163486D01*
X403100Y163686D01*
X403700D01*
X404100Y163486D01*
X404300Y162886D01*
Y160886D01*
X395500Y174086D02*X395300Y174486D01*
X394900Y174886D01*
X394500Y175086D01*
X393700D02*X394500D01*
X393700D02*X393300Y174886D01*
X392900Y174486D01*
X392700Y174086D01*
X392500Y173486D01*
Y172486D01*
X392700Y171886D01*
X392900Y171486D01*
X393300Y171086D01*
X393700Y170886D01*
X394500D01*
X394900Y171086D01*
X395300Y171486D01*
X395500Y171886D01*
X399700Y174086D02*X399500Y174486D01*
X399100Y174886D01*
X398700Y175086D01*
X397900D02*X398700D01*
X397900D02*X397500Y174886D01*
X397100Y174486D01*
X396900Y174086D01*
X396700Y173486D01*
Y172486D01*
X396900Y171886D01*
X397100Y171486D01*
X397500Y171086D01*
X397900Y170886D01*
X398700D01*
X399100Y171086D01*
X399500Y171486D01*
X399700Y171886D01*
X400900Y172686D02*X404500D01*
X405700Y175086D02*Y170886D01*
Y175086D02*X407500D01*
X408100Y174886D01*
X408300Y174686D01*
X408500Y174286D01*
Y173886D01*
X408300Y173486D01*
X408100Y173286D01*
X407500Y173086D01*
X405700D02*X407500D01*
X408100Y172886D01*
X408300Y172686D01*
X408500Y172286D01*
Y171686D01*
X408300Y171286D01*
X408100Y171086D01*
X407500Y170886D01*
X405700D02*X407500D01*
X409700Y175086D02*X411300Y173086D01*
Y170886D01*
X412900Y175086D02*X411300Y173086D01*
X414100Y172686D02*X417700D01*
X421700Y174486D02*X421300Y174886D01*
X420700Y175086D01*
X419900D02*X420700D01*
X419900D02*X419300Y174886D01*
X418900Y174486D01*
Y174086D01*
X419100Y173686D01*
X419300Y173486D01*
X419700Y173286D01*
X420900Y172886D01*
X421300Y172686D01*
X421500Y172486D01*
X421700Y172086D01*
Y171486D01*
X421300Y171086D01*
X420700Y170886D01*
X419900D02*X420700D01*
X419900D02*X419300Y171086D01*
X418900Y171486D01*
X424500Y175086D02*X422900Y170886D01*
X424500Y175086D02*X426100Y170886D01*
X423500Y172286D02*X425500D01*
X430500Y175086D02*X428500Y172286D01*
X431500D01*
X430500Y175086D02*Y170886D01*
X432900Y171286D02*X432700Y171086D01*
X432900Y170886D01*
X433100Y171086D01*
X432900Y171286D01*
X435500Y175086D02*X434900Y174886D01*
X434500Y174286D01*
X434300Y173286D01*
Y172686D01*
X434500Y171686D01*
X434900Y171086D01*
X435500Y170886D01*
X435900D01*
X436500Y171086D01*
X436900Y171686D01*
X437100Y172686D01*
Y173286D02*Y172686D01*
Y173286D02*X436900Y174286D01*
X436500Y174886D01*
X435900Y175086D01*
X435500D02*X435900D01*
G54D97*X565669Y390827D02*X573543D01*
X569606Y394764D02*Y386890D01*
G54D99*Y398701D02*G75*G03X569606Y398701I0J19685D01*G01*
G54D97*X463100Y413886D02*X486900D01*
X463100Y422886D02*X486900D01*
Y413886D01*
X463100Y422886D02*Y413886D01*
X486900Y418386D02*X495300D01*
X454700D02*X463100D01*
Y393886D02*X486900D01*
X463100Y402886D02*X486900D01*
Y393886D01*
X463100Y402886D02*Y393886D01*
X486900Y398386D02*X495300D01*
X463100D02*X454700D01*
X528400Y428386D02*X535300D01*
X504700D02*X511600D01*
X528400Y432086D02*Y424686D01*
X511600Y432086D02*Y424686D01*
X528400D01*
X511600Y432086D02*X528400D01*
X527900D02*Y424686D01*
X527400Y432086D02*Y424686D01*
X526900Y432086D02*Y424686D01*
X526400Y432086D02*Y424686D01*
G54D100*X543700Y433086D02*Y423686D01*
X496300Y433086D02*Y423686D01*
X543700D01*
X496300Y433086D02*X543700D01*
G54D97*X468400Y428386D02*X475300D01*
X444700D02*X451600D01*
X468400Y432086D02*Y424686D01*
X451600Y432086D02*Y424686D01*
X468400D01*
X451600Y432086D02*X468400D01*
X467900D02*Y424686D01*
X467400Y432086D02*Y424686D01*
X466900Y432086D02*Y424686D01*
X466400Y432086D02*Y424686D01*
G54D100*X483700Y433086D02*Y423686D01*
X436300Y433086D02*Y423686D01*
X483700D01*
X436300Y433086D02*X483700D01*
G54D97*X561063Y103602D02*X568937D01*
X565000Y107539D02*Y99665D01*
Y95728D02*G75*G03X565000Y95728I0J-9843D01*G01*
X576063Y100670D02*X583937D01*
X580000Y104607D02*Y96733D01*
Y108544D02*G75*G03X580000Y108544I0J9843D01*G01*
X607242Y100237D02*X639132D01*
X607242D02*Y78190D01*
X639132D01*
X607242Y412836D02*X639132D01*
X607242Y434883D02*Y412836D01*
Y434883D02*X639132D01*
X612360Y108899D02*X626140D01*
X602518Y118741D02*X626140D01*
X625746Y148269D02*X626140Y147875D01*
X612360Y148269D02*X625746D01*
X602518Y354961D02*X626139D01*
X612360Y364804D02*X626140D01*
X612360Y384489D02*X626140D01*
X602518Y394332D02*X626140D01*
X602518Y138426D02*X626140D01*
X612360Y128584D02*X626140D01*
X602518Y177796D02*X626140D01*
X612360Y167954D02*X626140D01*
X602518Y158111D02*X626140D01*
X612360Y207324D02*X626140D01*
X602518Y197481D02*X626140D01*
X612360Y187639D02*X626140D01*
X602518Y236852D02*X626140D01*
X612360Y227009D02*X626140D01*
X602518Y217167D02*X626140D01*
X612360Y266379D02*X626140D01*
X602518Y256537D02*X626140D01*
X612360Y246694D02*X626140D01*
X612360Y286064D02*X626140D01*
X602518Y335276D02*X626139D01*
X626140Y335277D01*
X612360Y345119D02*X626140D01*
X626139Y354961D02*X626140Y354962D01*
X602518Y295906D02*X626139D01*
X626140Y295907D01*
X612360Y305749D02*X626140D01*
X626139Y315591D02*X626140Y315592D01*
X626139Y276221D02*X626140Y276222D01*
X602518Y315591D02*X626139D01*
X612360Y325434D02*X626140D01*
X602518Y276221D02*X626139D01*
X612360Y404174D02*X626140D01*
X602518Y374647D02*X626140D01*
Y412836D02*Y100237D01*
X639132Y434883D02*Y78190D01*
X590000Y256486D02*Y248086D01*
Y288686D02*Y280286D01*
X585500Y256486D02*X594500D01*
X585500Y280286D02*X594500D01*
X585500D02*Y256486D01*
X594500Y280286D02*Y256486D01*
X573858Y343386D02*G75*G03X573858Y343386I-8858J0D01*G01*
X569700Y281586D02*X580300D01*
X569700Y282086D02*X580300D01*
X569700Y282586D02*X580300D01*
X569700Y283086D02*X580300D01*
X569700Y283586D02*Y263186D01*
X580300Y283586D02*Y263186D01*
X569700D02*X580300D01*
X569700Y283586D02*X580300D01*
X575000Y263186D02*Y258086D01*
Y288686D02*Y283586D01*
X506142Y303386D02*G75*G03X506142Y303386I8858J0D01*G01*
X540000Y358386D02*X555000D01*
X515000D02*X530000D01*
X555000Y318386D02*Y358386D01*
X515000Y318386D02*X555000D01*
X515000Y358386D02*Y318386D01*
X530000Y358386D02*G75*G03X540000Y358386I5000J0D01*G01*
X458100Y348886D02*X481900D01*
X458100Y357886D02*X481900D01*
Y348886D01*
X458100Y357886D02*Y348886D01*
X481900Y353386D02*X490300D01*
X449700D02*X458100D01*
Y328886D02*X481900D01*
X458100Y337886D02*X481900D01*
Y328886D01*
X458100Y337886D02*Y328886D01*
X481900Y333386D02*X490300D01*
X449700D02*X458100D01*
X463100Y378886D02*X486900D01*
X463100Y387886D02*X486900D01*
Y378886D01*
X463100Y387886D02*Y378886D01*
X486900Y383386D02*X495300D01*
X463100D02*X454700D01*
X371378Y404606D02*X390000D01*
X400000D02*X418622D01*
X371378Y422165D02*Y404606D01*
X381378Y432165D02*X408622D01*
X418622Y422165D02*Y404606D01*
G54D100*X370000Y403386D02*X420000D01*
X370000Y433386D02*Y403386D01*
Y433386D02*X420000D01*
Y403386D01*
G54D101*X392746Y195148D03*
Y180385D03*
G54D102*X393238Y194164D03*
G54D103*Y193672D03*
G54D104*Y193180D03*
G54D105*Y192688D03*
G54D106*Y192196D03*
G54D107*Y191703D03*
G54D108*Y191211D03*
G54D109*Y190719D03*
G54D110*Y190227D03*
G54D111*Y189735D03*
G54D112*Y189243D03*
G54D113*Y188751D03*
G54D114*Y188259D03*
Y187766D03*
G54D113*Y187274D03*
G54D112*Y186782D03*
G54D111*Y186290D03*
G54D110*Y185798D03*
G54D115*Y185306D03*
G54D108*Y184814D03*
G54D102*X393730Y194656D03*
G54D103*Y194164D03*
G54D116*Y193672D03*
G54D117*Y193180D03*
G54D118*Y192688D03*
G54D108*Y192196D03*
G54D109*Y191703D03*
G54D110*Y191211D03*
G54D113*Y190719D03*
G54D119*Y190227D03*
G54D120*Y189735D03*
G54D121*Y189243D03*
G54D122*Y188751D03*
G54D123*Y188259D03*
Y187766D03*
G54D122*Y187274D03*
G54D121*Y186782D03*
G54D120*Y186290D03*
G54D119*Y185798D03*
G54D113*Y185306D03*
G54D110*Y184814D03*
G54D103*X394222Y194656D03*
G54D116*Y194164D03*
G54D117*Y193672D03*
G54D107*Y193180D03*
G54D124*Y192688D03*
G54D125*Y192196D03*
G54D112*Y191703D03*
G54D126*Y191211D03*
G54D121*Y190719D03*
Y185306D03*
G54D126*Y184814D03*
G54D112*Y184322D03*
G54D104*X394714Y194656D03*
G54D117*Y194164D03*
G54D107*Y193672D03*
G54D124*Y193180D03*
G54D110*Y192688D03*
G54D114*Y192196D03*
G54D120*Y191703D03*
Y184322D03*
G54D113*Y183829D03*
G54D105*X395206Y194656D03*
G54D118*Y194164D03*
G54D124*Y193672D03*
G54D110*Y193180D03*
G54D114*Y192688D03*
G54D121*Y192196D03*
G54D127*Y188259D03*
Y187766D03*
G54D121*Y183829D03*
G54D114*Y183337D03*
G54D106*X395698Y194656D03*
G54D108*Y194164D03*
G54D125*Y193672D03*
G54D114*Y193180D03*
G54D121*Y192688D03*
G54D128*Y189735D03*
G54D101*Y189243D03*
Y188751D03*
Y188259D03*
Y187766D03*
Y187274D03*
Y186782D03*
Y186290D03*
G54D121*Y183337D03*
G54D113*Y182845D03*
G54D107*X396190Y194656D03*
G54D109*Y194164D03*
G54D112*Y193672D03*
G54D120*Y193180D03*
G54D114*Y190719D03*
G54D101*Y190227D03*
Y189735D03*
Y189243D03*
Y188751D03*
Y188259D03*
Y187766D03*
Y187274D03*
Y186782D03*
Y186290D03*
Y185798D03*
G54D129*Y185306D03*
G54D120*Y182845D03*
G54D112*Y182353D03*
G54D108*X396683Y194656D03*
G54D111*Y194164D03*
G54D126*Y193672D03*
G54D128*Y191211D03*
G54D101*Y190719D03*
Y190227D03*
Y189735D03*
G54D127*Y189243D03*
G54D130*Y186782D03*
G54D101*Y186290D03*
Y185798D03*
Y185306D03*
G54D128*Y184814D03*
G54D126*Y182353D03*
G54D131*Y181861D03*
G54D109*X397175Y194656D03*
G54D113*Y194164D03*
G54D121*Y193672D03*
G54D129*Y191703D03*
G54D101*Y191211D03*
Y190719D03*
Y190227D03*
G54D127*Y189735D03*
Y186290D03*
G54D101*Y185798D03*
Y185306D03*
Y184814D03*
G54D114*Y184322D03*
G54D121*Y182353D03*
G54D113*Y181861D03*
G54D110*X397667Y194656D03*
G54D126*Y194164D03*
G54D101*Y191703D03*
Y191211D03*
Y190719D03*
Y190227D03*
Y185798D03*
Y185306D03*
Y184814D03*
Y184322D03*
G54D119*Y181861D03*
G54D111*X398159Y194656D03*
G54D120*Y194164D03*
G54D128*Y192196D03*
G54D101*Y191703D03*
Y191211D03*
Y190719D03*
Y190227D03*
G54D129*Y188751D03*
G54D101*Y188259D03*
Y187766D03*
G54D128*Y187274D03*
G54D101*Y185798D03*
Y185306D03*
Y184814D03*
Y184322D03*
G54D128*Y183829D03*
G54D120*Y181861D03*
G54D127*Y181369D03*
G54D112*X398651Y194656D03*
G54D121*Y194164D03*
G54D101*Y192196D03*
Y191703D03*
Y191211D03*
Y190719D03*
Y190227D03*
G54D127*Y188751D03*
G54D101*Y188259D03*
Y187766D03*
G54D114*Y187274D03*
G54D101*Y185798D03*
Y185306D03*
Y184814D03*
Y184322D03*
Y183829D03*
G54D121*Y181861D03*
G54D112*Y181369D03*
G54D113*X399143Y194656D03*
G54D122*Y194164D03*
G54D101*Y192196D03*
Y191703D03*
Y191211D03*
Y190719D03*
Y190227D03*
Y188259D03*
Y187766D03*
Y185798D03*
Y185306D03*
Y184814D03*
Y184322D03*
Y183829D03*
G54D122*Y181861D03*
G54D113*Y181369D03*
G54D114*X399635Y194656D03*
G54D123*Y194164D03*
G54D127*Y192688D03*
G54D101*Y192196D03*
Y191703D03*
Y191211D03*
Y190719D03*
Y190227D03*
Y189735D03*
Y188259D03*
Y187766D03*
Y186290D03*
Y185798D03*
Y185306D03*
Y184814D03*
Y184322D03*
Y183829D03*
G54D127*Y183337D03*
G54D123*Y181861D03*
G54D114*Y181369D03*
X400127Y194656D03*
G54D123*Y194164D03*
G54D127*Y192688D03*
G54D101*Y192196D03*
Y191703D03*
Y191211D03*
Y190719D03*
Y190227D03*
Y189735D03*
G54D130*Y189243D03*
Y186782D03*
G54D101*Y186290D03*
Y185798D03*
Y185306D03*
Y184814D03*
Y184322D03*
Y183829D03*
G54D127*Y183337D03*
G54D123*Y181861D03*
G54D114*Y181369D03*
G54D113*X400620Y194656D03*
G54D122*Y194164D03*
G54D101*Y192196D03*
Y191703D03*
Y191211D03*
Y190719D03*
Y190227D03*
G54D127*Y189735D03*
G54D130*Y186290D03*
G54D101*Y185798D03*
Y185306D03*
Y184814D03*
Y184322D03*
Y183829D03*
G54D122*Y181861D03*
G54D113*Y181369D03*
X401112Y194656D03*
G54D121*Y194164D03*
G54D101*Y192196D03*
Y191703D03*
Y191211D03*
Y190719D03*
Y190227D03*
Y185798D03*
Y185306D03*
Y184814D03*
Y184322D03*
Y183829D03*
G54D121*Y181861D03*
G54D112*Y181369D03*
G54D111*X401604Y194656D03*
G54D120*Y194164D03*
G54D101*Y192196D03*
Y191703D03*
Y191211D03*
Y190719D03*
Y190227D03*
G54D129*Y188751D03*
G54D101*Y188259D03*
Y187766D03*
G54D128*Y187274D03*
G54D101*Y185798D03*
Y185306D03*
Y184814D03*
Y184322D03*
G54D128*Y183829D03*
G54D120*Y181861D03*
G54D127*Y181369D03*
G54D110*X402096Y194656D03*
G54D126*Y194164D03*
G54D101*Y191703D03*
Y191211D03*
Y190719D03*
Y190227D03*
G54D130*Y188751D03*
G54D101*Y188259D03*
Y187766D03*
G54D114*Y187274D03*
G54D101*Y185798D03*
Y185306D03*
Y184814D03*
Y184322D03*
G54D126*Y181861D03*
G54D109*X402588Y194656D03*
G54D113*Y194164D03*
G54D121*Y193672D03*
G54D128*Y191703D03*
G54D101*Y191211D03*
Y190719D03*
Y190227D03*
Y188259D03*
Y187766D03*
Y185798D03*
Y185306D03*
Y184814D03*
G54D129*Y184322D03*
G54D121*Y182353D03*
G54D113*Y181861D03*
G54D124*X403080Y194656D03*
G54D111*Y194164D03*
G54D126*Y193672D03*
G54D128*Y191211D03*
G54D101*Y190719D03*
Y190227D03*
Y189735D03*
Y188259D03*
Y187766D03*
Y186290D03*
Y185798D03*
Y185306D03*
G54D128*Y184814D03*
G54D126*Y182353D03*
G54D132*Y181861D03*
G54D107*X403572Y194656D03*
G54D109*Y194164D03*
G54D113*Y193672D03*
G54D120*Y193180D03*
G54D128*Y190719D03*
G54D101*Y190227D03*
Y189735D03*
Y189243D03*
Y188751D03*
Y188259D03*
Y187766D03*
Y187274D03*
Y186782D03*
Y186290D03*
Y185798D03*
G54D128*Y185306D03*
G54D120*Y182845D03*
G54D112*Y182353D03*
G54D106*X404064Y194656D03*
G54D108*Y194164D03*
G54D110*Y193672D03*
G54D114*Y193180D03*
G54D108*Y192688D03*
G54D101*Y189735D03*
Y189243D03*
Y188751D03*
Y188259D03*
Y187766D03*
Y187274D03*
Y186782D03*
Y186290D03*
G54D121*Y183337D03*
G54D114*Y182845D03*
G54D105*X404557Y194656D03*
G54D107*Y194164D03*
G54D124*Y193672D03*
G54D111*Y193180D03*
G54D119*Y192688D03*
G54D108*Y192196D03*
G54D127*Y188259D03*
Y187766D03*
G54D121*Y183829D03*
G54D119*Y183337D03*
G54D104*X405049Y194656D03*
G54D117*Y194164D03*
G54D107*Y193672D03*
G54D115*Y193180D03*
G54D111*Y192688D03*
G54D114*Y192196D03*
G54D120*Y191703D03*
Y184322D03*
G54D114*Y183829D03*
G54D103*X405541Y194656D03*
G54D116*Y194164D03*
G54D117*Y193672D03*
G54D107*Y193180D03*
G54D124*Y192688D03*
G54D110*Y192196D03*
G54D113*Y191703D03*
G54D126*Y191211D03*
G54D121*Y190719D03*
Y185306D03*
G54D126*Y184814D03*
G54D112*Y184322D03*
G54D102*X406033Y194656D03*
G54D103*Y194164D03*
G54D116*Y193672D03*
G54D117*Y193180D03*
G54D107*Y192688D03*
G54D108*Y192196D03*
G54D109*Y191703D03*
G54D111*Y191211D03*
G54D113*Y190719D03*
G54D126*Y190227D03*
G54D120*Y189735D03*
G54D121*Y189243D03*
G54D122*Y188751D03*
G54D123*Y188259D03*
Y187766D03*
G54D122*Y187274D03*
G54D121*Y186782D03*
G54D120*Y186290D03*
G54D126*Y185798D03*
G54D113*Y185306D03*
G54D111*Y184814D03*
G54D133*X406525Y194656D03*
G54D102*Y194164D03*
G54D103*Y193672D03*
G54D104*Y193180D03*
G54D105*Y192688D03*
G54D106*Y192196D03*
G54D107*Y191703D03*
G54D124*Y191211D03*
G54D109*Y190719D03*
G54D110*Y190227D03*
G54D111*Y189735D03*
G54D113*Y189243D03*
Y188751D03*
G54D114*Y188259D03*
Y187766D03*
G54D113*Y187274D03*
G54D112*Y186782D03*
G54D111*Y186290D03*
G54D110*Y185798D03*
G54D109*Y185306D03*
G54D108*Y184814D03*
G54D134*X407017Y194656D03*
G54D133*Y194164D03*
G54D102*Y193672D03*
G54D103*Y193180D03*
G54D104*Y192688D03*
G54D135*Y192196D03*
G54D117*Y191703D03*
G54D118*Y191211D03*
G54D107*Y190719D03*
G54D108*Y190227D03*
G54D124*Y189735D03*
G54D115*Y189243D03*
G54D109*Y188751D03*
Y188259D03*
Y187766D03*
Y187274D03*
G54D115*Y186782D03*
G54D124*Y186290D03*
G54D136*Y185798D03*
G54D107*Y185306D03*
G54D106*Y184814D03*
G54D137*X407509Y194656D03*
G54D134*Y194164D03*
G54D133*Y193672D03*
G54D138*Y193180D03*
G54D139*Y192688D03*
G54D140*Y192196D03*
G54D104*Y191703D03*
G54D135*Y191211D03*
G54D105*Y190719D03*
G54D117*Y190227D03*
G54D118*Y189735D03*
G54D107*Y189243D03*
Y188751D03*
Y188259D03*
Y187766D03*
Y187274D03*
Y186782D03*
G54D118*Y186290D03*
G54D117*Y185798D03*
G54D105*Y185306D03*
G54D135*Y184814D03*
G54D141*X408001Y194656D03*
G54D137*Y194164D03*
G54D142*Y193672D03*
G54D134*Y193180D03*
G54D133*Y192688D03*
G54D102*Y192196D03*
G54D139*Y191703D03*
G54D103*Y191211D03*
G54D104*Y190719D03*
G54D116*Y190227D03*
G54D135*Y189735D03*
G54D127*Y189243D03*
G54D105*Y188751D03*
Y188259D03*
Y187766D03*
Y187274D03*
G54D127*Y186782D03*
G54D116*Y186290D03*
G54D104*Y185798D03*
Y185306D03*
G54D103*Y184814D03*
G54D131*X408494Y194656D03*
G54D141*Y194164D03*
G54D137*Y193672D03*
G54D142*Y193180D03*
G54D134*Y192688D03*
Y192196D03*
G54D133*Y191703D03*
G54D138*Y191211D03*
G54D102*Y190719D03*
G54D139*Y190227D03*
G54D103*Y189735D03*
G54D140*Y189243D03*
Y188751D03*
Y188259D03*
Y187766D03*
Y187274D03*
Y186782D03*
G54D103*Y186290D03*
G54D139*Y185798D03*
G54D102*Y185306D03*
G54D138*Y184814D03*
G54D131*X408986Y194656D03*
Y194164D03*
G54D132*Y193672D03*
G54D141*Y193180D03*
G54D137*Y192688D03*
G54D142*Y192196D03*
Y191703D03*
G54D134*Y191211D03*
G54D133*Y190719D03*
Y190227D03*
G54D138*Y189735D03*
Y189243D03*
G54D102*Y188751D03*
Y188259D03*
Y187766D03*
Y187274D03*
G54D138*Y186782D03*
Y186290D03*
G54D133*Y185798D03*
Y185306D03*
G54D134*Y184814D03*
G54D143*X409478Y194656D03*
Y194164D03*
G54D131*Y193672D03*
Y193180D03*
G54D132*Y192688D03*
G54D141*Y192196D03*
Y191703D03*
G54D137*Y191211D03*
G54D142*Y190719D03*
Y190227D03*
G54D134*Y189735D03*
Y189243D03*
Y188751D03*
Y188259D03*
Y187766D03*
Y187274D03*
Y186782D03*
Y186290D03*
G54D142*Y185798D03*
Y185306D03*
G54D137*Y184814D03*
G54D130*X409970Y194656D03*
G54D143*Y194164D03*
Y193672D03*
Y193180D03*
G54D131*Y192688D03*
Y192196D03*
Y191703D03*
G54D132*Y191211D03*
G54D141*Y190719D03*
Y190227D03*
Y189735D03*
G54D137*Y189243D03*
Y188751D03*
Y188259D03*
Y187766D03*
Y187274D03*
Y186782D03*
G54D141*Y186290D03*
Y185798D03*
Y185306D03*
G54D132*Y184814D03*
G54D130*X410462Y194656D03*
Y194164D03*
Y193672D03*
G54D143*Y193180D03*
Y192688D03*
Y192196D03*
Y191703D03*
Y191211D03*
G54D131*Y190719D03*
Y190227D03*
Y189735D03*
Y189243D03*
Y188751D03*
Y188259D03*
Y187766D03*
Y187274D03*
Y186782D03*
Y186290D03*
Y185798D03*
Y185306D03*
G54D143*Y184814D03*
G54D130*X410954Y194656D03*
Y194164D03*
Y193672D03*
Y193180D03*
Y192688D03*
Y192196D03*
G54D143*Y191703D03*
Y191211D03*
Y190719D03*
Y190227D03*
Y189735D03*
Y189243D03*
Y188751D03*
Y188259D03*
Y187766D03*
Y187274D03*
Y186782D03*
Y186290D03*
Y185798D03*
Y185306D03*
Y184814D03*
G54D130*X411446Y194656D03*
Y194164D03*
Y193672D03*
Y193180D03*
Y192688D03*
Y192196D03*
Y187766D03*
Y187274D03*
Y186782D03*
Y186290D03*
Y185798D03*
Y185306D03*
Y184814D03*
X411938Y194656D03*
Y194164D03*
Y193672D03*
Y193180D03*
Y186782D03*
Y186290D03*
Y185798D03*
Y185306D03*
Y184814D03*
X412431Y194656D03*
Y194164D03*
Y193672D03*
G54D129*Y191211D03*
G54D101*Y190719D03*
Y190227D03*
Y189735D03*
Y189243D03*
G54D129*Y188751D03*
G54D130*Y186290D03*
Y185798D03*
Y185306D03*
Y184814D03*
X412923Y194656D03*
Y194164D03*
Y193672D03*
G54D123*Y191703D03*
G54D101*Y191211D03*
Y190719D03*
Y190227D03*
Y189735D03*
Y189243D03*
Y188751D03*
Y188259D03*
G54D130*Y186290D03*
Y185798D03*
Y185306D03*
Y184814D03*
G54D101*Y183337D03*
Y182845D03*
Y182353D03*
Y181861D03*
Y181369D03*
G54D130*X413415Y194656D03*
Y194164D03*
G54D101*Y192196D03*
Y191703D03*
Y191211D03*
Y190719D03*
Y190227D03*
Y189735D03*
Y189243D03*
Y188751D03*
Y188259D03*
Y187766D03*
G54D130*Y185798D03*
Y185306D03*
Y184814D03*
G54D101*Y183337D03*
Y182353D03*
Y181369D03*
G54D130*X413907Y194656D03*
Y194164D03*
G54D129*Y192688D03*
G54D101*Y192196D03*
Y191703D03*
Y191211D03*
Y190719D03*
Y190227D03*
Y189735D03*
Y189243D03*
Y188751D03*
Y188259D03*
Y187766D03*
G54D129*Y187274D03*
G54D130*Y185798D03*
Y185306D03*
Y184814D03*
G54D101*Y183337D03*
Y182353D03*
Y181369D03*
G54D130*X414399Y194656D03*
Y194164D03*
G54D101*Y192688D03*
Y192196D03*
Y191703D03*
Y191211D03*
Y188751D03*
Y188259D03*
Y187766D03*
Y187274D03*
G54D130*Y185798D03*
Y185306D03*
Y184814D03*
G54D101*Y182845D03*
Y181861D03*
G54D130*X414891Y194656D03*
Y194164D03*
G54D101*Y192688D03*
Y191211D03*
Y187274D03*
G54D130*Y185798D03*
Y185306D03*
Y184814D03*
X415383Y194656D03*
Y194164D03*
G54D101*Y192688D03*
Y191211D03*
Y187274D03*
G54D130*Y185798D03*
Y185306D03*
Y184814D03*
G54D101*Y183337D03*
G54D130*X415875Y194656D03*
Y194164D03*
G54D101*Y192688D03*
Y192196D03*
Y191703D03*
Y191211D03*
Y188751D03*
Y188259D03*
Y187766D03*
Y187274D03*
G54D130*Y185798D03*
Y185306D03*
Y184814D03*
G54D101*Y182845D03*
G54D130*X416368Y194656D03*
Y194164D03*
G54D129*Y192688D03*
G54D101*Y192196D03*
Y191703D03*
Y191211D03*
Y190719D03*
Y190227D03*
Y189735D03*
Y189243D03*
Y188751D03*
Y188259D03*
Y187766D03*
G54D129*Y187274D03*
G54D130*Y185798D03*
Y185306D03*
Y184814D03*
G54D101*Y182353D03*
Y181861D03*
Y181369D03*
G54D130*X416860Y194656D03*
Y194164D03*
G54D101*Y192196D03*
Y191703D03*
Y191211D03*
Y190719D03*
Y190227D03*
Y189735D03*
Y189243D03*
Y188751D03*
Y188259D03*
Y187766D03*
G54D130*Y185798D03*
Y185306D03*
Y184814D03*
G54D101*Y182845D03*
G54D130*X417352Y194656D03*
Y194164D03*
Y193672D03*
G54D101*Y191703D03*
Y191211D03*
Y190719D03*
Y190227D03*
Y189735D03*
Y189243D03*
Y188751D03*
Y188259D03*
G54D130*Y186290D03*
Y185798D03*
Y185306D03*
Y184814D03*
G54D101*Y183337D03*
G54D130*X417844Y194656D03*
Y194164D03*
Y193672D03*
G54D129*Y191211D03*
G54D101*Y190719D03*
Y190227D03*
Y189735D03*
Y189243D03*
G54D129*Y188751D03*
G54D130*Y186290D03*
Y185798D03*
Y185306D03*
Y184814D03*
X418336Y194656D03*
Y194164D03*
Y193672D03*
Y193180D03*
Y186782D03*
Y186290D03*
Y185798D03*
Y185306D03*
Y184814D03*
X418828Y194656D03*
Y194164D03*
Y193672D03*
Y193180D03*
Y192688D03*
Y192196D03*
Y187766D03*
Y187274D03*
Y186782D03*
Y186290D03*
Y185798D03*
Y185306D03*
Y184814D03*
X419320Y194656D03*
Y194164D03*
Y193672D03*
Y193180D03*
Y192688D03*
Y192196D03*
Y191703D03*
Y191211D03*
Y190719D03*
Y190227D03*
Y189735D03*
Y189243D03*
Y188751D03*
Y188259D03*
Y187766D03*
Y187274D03*
Y186782D03*
Y186290D03*
Y185798D03*
Y185306D03*
Y184814D03*
X419812Y194656D03*
Y194164D03*
Y193672D03*
Y193180D03*
Y192688D03*
Y192196D03*
Y191703D03*
Y191211D03*
Y190719D03*
Y190227D03*
Y189735D03*
Y189243D03*
Y188751D03*
Y188259D03*
Y187766D03*
Y187274D03*
Y186782D03*
Y186290D03*
Y185798D03*
Y185306D03*
Y184814D03*
X420305Y194656D03*
Y194164D03*
Y193672D03*
Y193180D03*
Y192688D03*
Y192196D03*
Y191703D03*
Y191211D03*
Y190719D03*
Y190227D03*
Y189735D03*
Y189243D03*
Y188751D03*
Y188259D03*
Y187766D03*
Y187274D03*
Y186782D03*
Y186290D03*
Y185798D03*
Y185306D03*
Y184814D03*
X420797Y194656D03*
Y194164D03*
Y193672D03*
Y193180D03*
Y192688D03*
Y192196D03*
Y191703D03*
Y191211D03*
Y190719D03*
Y190227D03*
Y189735D03*
Y189243D03*
Y188751D03*
Y188259D03*
Y187766D03*
Y187274D03*
Y186782D03*
Y186290D03*
Y185798D03*
Y185306D03*
Y184814D03*
X421289Y194656D03*
Y194164D03*
Y193672D03*
Y193180D03*
Y192688D03*
Y192196D03*
Y191703D03*
Y191211D03*
Y190719D03*
Y190227D03*
Y189735D03*
Y189243D03*
Y188751D03*
Y188259D03*
Y187766D03*
Y187274D03*
Y186782D03*
Y186290D03*
Y185798D03*
Y185306D03*
Y184814D03*
X421781Y194656D03*
Y194164D03*
Y193672D03*
Y193180D03*
Y192688D03*
Y192196D03*
Y191703D03*
Y191211D03*
Y190719D03*
Y190227D03*
Y189735D03*
Y189243D03*
Y188751D03*
Y188259D03*
Y187766D03*
Y187274D03*
Y186782D03*
Y186290D03*
Y185798D03*
Y185306D03*
Y184814D03*
X422273Y194656D03*
Y194164D03*
Y193672D03*
Y193180D03*
Y192688D03*
Y192196D03*
Y191703D03*
Y191211D03*
Y190719D03*
Y190227D03*
Y189735D03*
Y189243D03*
Y188751D03*
Y188259D03*
Y187766D03*
Y187274D03*
Y186782D03*
Y186290D03*
Y185798D03*
Y185306D03*
Y184814D03*
X422765Y194656D03*
Y194164D03*
Y193672D03*
Y193180D03*
Y192688D03*
Y192196D03*
Y191703D03*
Y191211D03*
Y190719D03*
Y190227D03*
Y189735D03*
Y189243D03*
Y188751D03*
Y188259D03*
Y187766D03*
Y187274D03*
Y186782D03*
Y186290D03*
Y185798D03*
Y185306D03*
Y184814D03*
X423257Y194656D03*
Y194164D03*
Y193672D03*
Y193180D03*
Y192688D03*
Y192196D03*
Y187766D03*
Y187274D03*
Y186782D03*
Y186290D03*
Y185798D03*
Y185306D03*
Y184814D03*
X423750Y194656D03*
Y194164D03*
Y193672D03*
Y193180D03*
Y186782D03*
Y186290D03*
Y185798D03*
Y185306D03*
Y184814D03*
X424242Y194656D03*
Y194164D03*
Y193672D03*
G54D129*Y191211D03*
G54D101*Y190719D03*
Y190227D03*
Y189735D03*
Y189243D03*
G54D129*Y188751D03*
G54D130*Y186290D03*
Y185798D03*
Y185306D03*
Y184814D03*
X424734Y194656D03*
Y194164D03*
Y193672D03*
G54D123*Y191703D03*
G54D101*Y191211D03*
G54D144*Y190719D03*
Y190227D03*
G54D101*Y189735D03*
Y189243D03*
Y188751D03*
Y188259D03*
G54D130*Y186290D03*
Y185798D03*
Y185306D03*
Y184814D03*
G54D101*Y182845D03*
Y181369D03*
G54D130*X425226Y194656D03*
Y194164D03*
G54D101*Y192196D03*
Y191703D03*
G54D124*Y191211D03*
G54D134*Y189735D03*
G54D139*Y189243D03*
G54D101*Y188259D03*
Y187766D03*
G54D130*Y185798D03*
Y185306D03*
Y184814D03*
G54D101*Y183337D03*
Y182353D03*
Y181369D03*
G54D130*X425718Y194656D03*
Y194164D03*
G54D129*Y192688D03*
G54D101*Y192196D03*
Y187766D03*
G54D129*Y187274D03*
G54D130*Y185798D03*
Y185306D03*
Y184814D03*
G54D101*Y183337D03*
Y182353D03*
Y181369D03*
G54D130*X426210Y194656D03*
Y194164D03*
G54D101*Y192688D03*
G54D145*Y192196D03*
G54D127*Y189735D03*
G54D115*Y189243D03*
G54D125*Y187766D03*
G54D101*Y187274D03*
G54D130*Y185798D03*
Y185306D03*
Y184814D03*
G54D101*Y183337D03*
Y181861D03*
G54D130*X426702Y194656D03*
Y194164D03*
G54D101*Y192688D03*
G54D124*Y192196D03*
G54D101*Y190719D03*
Y190227D03*
Y189735D03*
Y189243D03*
G54D146*Y187766D03*
G54D101*Y187274D03*
G54D130*Y185798D03*
Y185306D03*
Y184814D03*
X427194Y194656D03*
Y194164D03*
G54D101*Y192688D03*
G54D124*Y192196D03*
G54D101*Y190719D03*
Y190227D03*
Y189735D03*
Y189243D03*
G54D146*Y187766D03*
G54D101*Y187274D03*
G54D130*Y185798D03*
Y185306D03*
Y184814D03*
G54D101*Y182845D03*
Y182353D03*
Y181861D03*
Y181369D03*
G54D130*X427687Y194656D03*
Y194164D03*
G54D101*Y192688D03*
G54D145*Y192196D03*
Y190227D03*
Y189735D03*
G54D146*Y189243D03*
G54D123*Y187766D03*
G54D101*Y187274D03*
G54D130*Y185798D03*
Y185306D03*
Y184814D03*
G54D101*Y183337D03*
Y182353D03*
G54D130*X428179Y194656D03*
Y194164D03*
G54D129*Y192688D03*
G54D101*Y192196D03*
G54D139*Y191703D03*
G54D101*Y187766D03*
G54D129*Y187274D03*
G54D130*Y185798D03*
Y185306D03*
Y184814D03*
G54D101*Y183337D03*
Y182353D03*
G54D130*X428671Y194656D03*
Y194164D03*
G54D101*Y192196D03*
Y191703D03*
G54D144*Y188259D03*
G54D101*Y187766D03*
G54D130*Y185798D03*
Y185306D03*
Y184814D03*
G54D101*Y182845D03*
Y182353D03*
Y181861D03*
Y181369D03*
G54D130*X429163Y194656D03*
Y194164D03*
Y193672D03*
G54D101*Y191703D03*
Y191211D03*
Y190719D03*
G54D147*Y190227D03*
G54D148*Y189735D03*
G54D101*Y189243D03*
Y188751D03*
Y188259D03*
G54D130*Y186290D03*
Y185798D03*
Y185306D03*
Y184814D03*
X429655Y194656D03*
Y194164D03*
Y193672D03*
G54D129*Y191211D03*
G54D101*Y190719D03*
Y190227D03*
Y189735D03*
Y189243D03*
G54D129*Y188751D03*
G54D130*Y186290D03*
Y185798D03*
Y185306D03*
Y184814D03*
X430147Y194656D03*
Y194164D03*
Y193672D03*
Y193180D03*
Y186782D03*
Y186290D03*
Y185798D03*
Y185306D03*
Y184814D03*
X430639Y194656D03*
Y194164D03*
Y193672D03*
Y193180D03*
Y192688D03*
Y192196D03*
Y187766D03*
Y187274D03*
Y186782D03*
Y186290D03*
Y185798D03*
Y185306D03*
Y184814D03*
X431131Y194656D03*
Y194164D03*
Y193672D03*
Y193180D03*
Y192688D03*
Y192196D03*
Y191703D03*
Y191211D03*
Y190719D03*
Y190227D03*
Y189735D03*
Y189243D03*
Y188751D03*
Y188259D03*
Y187766D03*
Y187274D03*
Y186782D03*
Y186290D03*
Y185798D03*
Y185306D03*
Y184814D03*
X431624Y194656D03*
Y194164D03*
Y193672D03*
Y193180D03*
Y192688D03*
Y192196D03*
Y191703D03*
Y191211D03*
Y190719D03*
Y190227D03*
Y189735D03*
Y189243D03*
Y188751D03*
Y188259D03*
Y187766D03*
Y187274D03*
Y186782D03*
Y186290D03*
Y185798D03*
Y185306D03*
Y184814D03*
X432116Y194656D03*
Y194164D03*
Y193672D03*
Y193180D03*
Y192688D03*
Y192196D03*
Y191703D03*
Y191211D03*
Y190719D03*
Y190227D03*
Y189735D03*
Y189243D03*
Y188751D03*
Y188259D03*
Y187766D03*
Y187274D03*
Y186782D03*
Y186290D03*
Y185798D03*
Y185306D03*
Y184814D03*
X432608Y194656D03*
Y194164D03*
Y193672D03*
Y193180D03*
Y192688D03*
Y192196D03*
Y191703D03*
Y191211D03*
Y190719D03*
Y190227D03*
Y189735D03*
Y189243D03*
Y188751D03*
Y188259D03*
Y187766D03*
Y187274D03*
Y186782D03*
Y186290D03*
Y185798D03*
Y185306D03*
Y184814D03*
X433100Y194656D03*
Y194164D03*
Y193672D03*
Y193180D03*
Y192688D03*
Y192196D03*
Y191703D03*
Y191211D03*
Y190719D03*
Y190227D03*
Y189735D03*
Y189243D03*
Y188751D03*
Y188259D03*
Y187766D03*
Y187274D03*
Y186782D03*
Y186290D03*
Y185798D03*
Y185306D03*
Y184814D03*
X433592Y194656D03*
Y194164D03*
Y193672D03*
Y193180D03*
Y192688D03*
Y192196D03*
Y191703D03*
Y191211D03*
Y190719D03*
Y190227D03*
Y189735D03*
Y189243D03*
Y188751D03*
Y188259D03*
Y187766D03*
Y187274D03*
Y186782D03*
Y186290D03*
Y185798D03*
Y185306D03*
Y184814D03*
X434084Y194656D03*
Y194164D03*
Y193672D03*
Y193180D03*
Y192688D03*
Y192196D03*
Y191703D03*
Y191211D03*
Y190719D03*
Y190227D03*
Y189735D03*
Y189243D03*
Y188751D03*
Y188259D03*
Y187766D03*
Y187274D03*
Y186782D03*
Y186290D03*
Y185798D03*
Y185306D03*
Y184814D03*
X434576Y194656D03*
Y194164D03*
Y193672D03*
Y193180D03*
Y192688D03*
Y192196D03*
Y191703D03*
Y191211D03*
Y190719D03*
Y190227D03*
Y189735D03*
Y189243D03*
Y188751D03*
Y188259D03*
Y187766D03*
Y187274D03*
Y186782D03*
Y186290D03*
Y185798D03*
Y185306D03*
Y184814D03*
X435068Y194164D03*
Y193672D03*
Y193180D03*
Y192688D03*
Y192196D03*
Y191703D03*
Y191211D03*
Y190719D03*
Y190227D03*
Y189735D03*
Y189243D03*
Y188751D03*
Y188259D03*
Y187766D03*
Y187274D03*
Y186782D03*
Y186290D03*
Y185798D03*
Y185306D03*
Y184814D03*
G54D101*X435561Y195148D03*
Y180385D03*
G54D97*X498100Y366386D02*X521900D01*
X498100Y375386D02*X521900D01*
Y366386D01*
X498100Y375386D02*Y366386D01*
X521900Y370886D02*X530300D01*
X489700D02*X498100D01*
X185000Y373386D02*Y363386D01*
X105000Y373386D02*X185000D01*
X105000Y363386D02*X185000D01*
X115000Y373386D02*Y363386D01*
X105000Y373386D02*Y363386D01*
X50000Y100886D02*X60000D01*
Y410886D02*Y100886D01*
X50000Y410886D02*Y100886D01*
Y400886D02*X60000D01*
X50000Y410886D02*X60000D01*
X153858Y173386D02*G75*G03X153858Y173386I-8858J0D01*G01*
Y353386D02*G75*G03X153858Y353386I-8858J0D01*G01*
Y293386D02*G75*G03X153858Y293386I-8858J0D01*G01*
Y233386D02*G75*G03X153858Y233386I-8858J0D01*G01*
Y113386D02*G75*G03X153858Y113386I-8858J0D01*G01*
X133858Y173386D02*G75*G03X133858Y173386I-8858J0D01*G01*
Y353386D02*G75*G03X133858Y353386I-8858J0D01*G01*
Y293386D02*G75*G03X133858Y293386I-8858J0D01*G01*
Y233386D02*G75*G03X133858Y233386I-8858J0D01*G01*
Y113386D02*G75*G03X133858Y113386I-8858J0D01*G01*
X185000Y313386D02*Y303386D01*
X105000Y313386D02*X185000D01*
X105000Y303386D02*X185000D01*
X115000Y313386D02*Y303386D01*
X105000Y313386D02*Y303386D01*
X185000Y253386D02*Y243386D01*
X105000Y253386D02*X185000D01*
X105000Y243386D02*X185000D01*
X115000Y253386D02*Y243386D01*
X105000Y253386D02*Y243386D01*
X185000Y193386D02*Y183386D01*
X105000Y193386D02*X185000D01*
X105000Y183386D02*X185000D01*
X115000Y193386D02*Y183386D01*
X105000Y193386D02*Y183386D01*
X185000Y133386D02*Y123386D01*
X105000Y133386D02*X185000D01*
X105000Y123386D02*X185000D01*
X115000Y133386D02*Y123386D01*
X105000Y133386D02*Y123386D01*
G54D98*X580500Y86586D02*X580300Y86986D01*
X579900Y87386D01*
X579500Y87586D01*
X578700D02*X579500D01*
X578700D02*X578300Y87386D01*
X577900Y86986D01*
X577700Y86586D01*
X577500Y85986D01*
Y84986D01*
X577700Y84386D01*
X577900Y83986D01*
X578300Y83586D01*
X578700Y83386D01*
X579500D01*
X579900Y83586D01*
X580300Y83986D01*
X580500Y84386D01*
X582100Y87586D02*X584300D01*
X583100Y85986D01*
X583700D01*
X584100Y85786D01*
X584300Y85586D01*
X584500Y84986D01*
Y84586D01*
X584300Y83986D01*
X583900Y83586D01*
X583300Y83386D01*
X582700D02*X583300D01*
X582700D02*X582100Y83586D01*
X581900Y83786D01*
X581700Y84186D01*
X585700Y86786D02*X586100Y86986D01*
X586700Y87586D01*
Y83386D01*
X589900Y87586D02*X587900Y84786D01*
X590900D01*
X589900Y87586D02*Y83386D01*
X558000Y119086D02*X557800Y119486D01*
X557400Y119886D01*
X557000Y120086D01*
X556200D02*X557000D01*
X556200D02*X555800Y119886D01*
X555400Y119486D01*
X555200Y119086D01*
X555000Y118486D01*
Y117486D01*
X555200Y116886D01*
X555400Y116486D01*
X555800Y116086D01*
X556200Y115886D01*
X557000D01*
X557400Y116086D01*
X557800Y116486D01*
X558000Y116886D01*
X559600Y120086D02*X561800D01*
X560600Y118486D01*
X561200D01*
X561600Y118286D01*
X561800Y118086D01*
X562000Y117486D01*
Y117086D01*
X561800Y116486D01*
X561400Y116086D01*
X560800Y115886D01*
X560200D02*X560800D01*
X560200D02*X559600Y116086D01*
X559400Y116286D01*
X559200Y116686D01*
X563200Y119286D02*X563600Y119486D01*
X564200Y120086D01*
Y115886D01*
X565800Y120086D02*X568000D01*
X566800Y118486D01*
X567400D01*
X567800Y118286D01*
X568000Y118086D01*
X568200Y117486D01*
Y117086D01*
X568000Y116486D01*
X567600Y116086D01*
X567000Y115886D01*
X566400D02*X567000D01*
X566400D02*X565800Y116086D01*
X565600Y116286D01*
X565400Y116686D01*
X348000Y99086D02*X347800Y99486D01*
X347400Y99886D01*
X347000Y100086D01*
X346200D02*X347000D01*
X346200D02*X345800Y99886D01*
X345400Y99486D01*
X345200Y99086D01*
X345000Y98486D01*
Y97486D01*
X345200Y96886D01*
X345400Y96486D01*
X345800Y96086D01*
X346200Y95886D01*
X347000D01*
X347400Y96086D01*
X347800Y96486D01*
X348000Y96886D01*
Y97486D02*Y96886D01*
X347000Y97486D02*X348000D01*
X349200Y100086D02*Y95886D01*
Y100086D02*X352000Y95886D01*
Y100086D02*Y95886D01*
X353200Y100086D02*Y95886D01*
Y100086D02*X354600D01*
X355200Y99886D01*
X355600Y99486D01*
X355800Y99086D01*
X356000Y98486D01*
Y97486D01*
X355800Y96886D01*
X355600Y96486D01*
X355200Y96086D01*
X354600Y95886D01*
X353200D02*X354600D01*
X2500Y90086D02*Y85886D01*
Y90086D02*X4300D01*
X4900Y89886D01*
X5100Y89686D01*
X5300Y89286D01*
Y88886D01*
X5100Y88486D01*
X4900Y88286D01*
X4300Y88086D01*
X2500D02*X4300D01*
X4900Y87886D01*
X5100Y87686D01*
X5300Y87286D01*
Y86686D01*
X5100Y86286D01*
X4900Y86086D01*
X4300Y85886D01*
X2500D02*X4300D01*
X159500Y114086D02*X159300Y114486D01*
X158900Y114886D01*
X158500Y115086D01*
X157700D02*X158500D01*
X157700D02*X157300Y114886D01*
X156900Y114486D01*
X156700Y114086D01*
X156500Y113486D01*
Y112486D01*
X156700Y111886D01*
X156900Y111486D01*
X157300Y111086D01*
X157700Y110886D01*
X158500D01*
X158900Y111086D01*
X159300Y111486D01*
X159500Y111886D01*
X161100Y115086D02*X163300D01*
X162100Y113486D01*
X162700D01*
X163100Y113286D01*
X163300Y113086D01*
X163500Y112486D01*
Y112086D01*
X163300Y111486D01*
X162900Y111086D01*
X162300Y110886D01*
X161700D02*X162300D01*
X161700D02*X161100Y111086D01*
X160900Y111286D01*
X160700Y111686D01*
X164700Y114286D02*X165100Y114486D01*
X165700Y115086D01*
Y110886D01*
X168100Y115086D02*X167500Y114886D01*
X167100Y114286D01*
X166900Y113286D01*
Y112686D01*
X167100Y111686D01*
X167500Y111086D01*
X168100Y110886D01*
X168500D01*
X169100Y111086D01*
X169500Y111686D01*
X169700Y112686D01*
Y113286D02*Y112686D01*
Y113286D02*X169500Y114286D01*
X169100Y114886D01*
X168500Y115086D01*
X168100D02*X168500D01*
X105500Y114086D02*X105300Y114486D01*
X104900Y114886D01*
X104500Y115086D01*
X103700D02*X104500D01*
X103700D02*X103300Y114886D01*
X102900Y114486D01*
X102700Y114086D01*
X102500Y113486D01*
Y112486D01*
X102700Y111886D01*
X102900Y111486D01*
X103300Y111086D01*
X103700Y110886D01*
X104500D01*
X104900Y111086D01*
X105300Y111486D01*
X105500Y111886D01*
X107100Y115086D02*X109300D01*
X108100Y113486D01*
X108700D01*
X109100Y113286D01*
X109300Y113086D01*
X109500Y112486D01*
Y112086D01*
X109300Y111486D01*
X108900Y111086D01*
X108300Y110886D01*
X107700D02*X108300D01*
X107700D02*X107100Y111086D01*
X106900Y111286D01*
X106700Y111686D01*
X110700Y114286D02*X111100Y114486D01*
X111700Y115086D01*
Y110886D01*
X112900Y114286D02*X113300Y114486D01*
X113900Y115086D01*
Y110886D01*
X459000Y363586D02*Y359386D01*
Y363586D02*X460800D01*
X461400Y363386D01*
X461600Y363186D01*
X461800Y362786D01*
Y362386D01*
X461600Y361986D01*
X461400Y361786D01*
X460800Y361586D01*
X459000D02*X460800D01*
X460400D02*X461800Y359386D01*
X463400Y363586D02*X465600D01*
X464400Y361986D01*
X465000D01*
X465400Y361786D01*
X465600Y361586D01*
X465800Y360986D01*
Y360586D01*
X465600Y359986D01*
X465200Y359586D01*
X464600Y359386D01*
X464000D02*X464600D01*
X464000D02*X463400Y359586D01*
X463200Y359786D01*
X463000Y360186D01*
X468200Y363586D02*X467600Y363386D01*
X467200Y362786D01*
X467000Y361786D01*
Y361186D01*
X467200Y360186D01*
X467600Y359586D01*
X468200Y359386D01*
X468600D01*
X469200Y359586D01*
X469600Y360186D01*
X469800Y361186D01*
Y361786D02*Y361186D01*
Y361786D02*X469600Y362786D01*
X469200Y363386D01*
X468600Y363586D01*
X468200D02*X468600D01*
X473000D02*X471000Y360786D01*
X474000D01*
X473000Y363586D02*Y359386D01*
X505000Y385086D02*Y380886D01*
Y385086D02*X506800D01*
X507400Y384886D01*
X507600Y384686D01*
X507800Y384286D01*
Y383886D01*
X507600Y383486D01*
X507400Y383286D01*
X506800Y383086D01*
X505000D02*X506800D01*
X506400D02*X507800Y380886D01*
X509400Y385086D02*X511600D01*
X510400Y383486D01*
X511000D01*
X511400Y383286D01*
X511600Y383086D01*
X511800Y382486D01*
Y382086D01*
X511600Y381486D01*
X511200Y381086D01*
X510600Y380886D01*
X510000D02*X510600D01*
X510000D02*X509400Y381086D01*
X509200Y381286D01*
X509000Y381686D01*
X514200Y385086D02*X513600Y384886D01*
X513200Y384286D01*
X513000Y383286D01*
Y382686D01*
X513200Y381686D01*
X513600Y381086D01*
X514200Y380886D01*
X514600D01*
X515200Y381086D01*
X515600Y381686D01*
X515800Y382686D01*
Y383286D02*Y382686D01*
Y383286D02*X515600Y384286D01*
X515200Y384886D01*
X514600Y385086D01*
X514200D02*X514600D01*
X517400D02*X519400D01*
X517400D02*X517200Y383286D01*
X517400Y383486D01*
X518000Y383686D01*
X518600D01*
X519200Y383486D01*
X519600Y383086D01*
X519800Y382486D01*
Y382086D01*
X519600Y381486D01*
X519200Y381086D01*
X518600Y380886D01*
X518000D02*X518600D01*
X518000D02*X517400Y381086D01*
X517200Y381286D01*
X517000Y381686D01*
X505000Y400086D02*Y395886D01*
Y400086D02*X506800D01*
X507400Y399886D01*
X507600Y399686D01*
X507800Y399286D01*
Y398886D01*
X507600Y398486D01*
X507400Y398286D01*
X506800Y398086D01*
X505000D02*X506800D01*
X506400D02*X507800Y395886D01*
X509400Y400086D02*X511600D01*
X510400Y398486D01*
X511000D01*
X511400Y398286D01*
X511600Y398086D01*
X511800Y397486D01*
Y397086D01*
X511600Y396486D01*
X511200Y396086D01*
X510600Y395886D01*
X510000D02*X510600D01*
X510000D02*X509400Y396086D01*
X509200Y396286D01*
X509000Y396686D01*
X514200Y400086D02*X513600Y399886D01*
X513200Y399286D01*
X513000Y398286D01*
Y397686D01*
X513200Y396686D01*
X513600Y396086D01*
X514200Y395886D01*
X514600D01*
X515200Y396086D01*
X515600Y396686D01*
X515800Y397686D01*
Y398286D02*Y397686D01*
Y398286D02*X515600Y399286D01*
X515200Y399886D01*
X514600Y400086D01*
X514200D02*X514600D01*
X519400Y399486D02*X519200Y399886D01*
X518600Y400086D01*
X518200D02*X518600D01*
X518200D02*X517600Y399886D01*
X517200Y399286D01*
X517000Y398286D01*
Y397286D01*
X517200Y396486D01*
X517600Y396086D01*
X518200Y395886D01*
X518400D01*
X519000Y396086D01*
X519400Y396486D01*
X519600Y397086D01*
Y397286D02*Y397086D01*
Y397286D02*X519400Y397886D01*
X519000Y398286D01*
X518400Y398486D01*
X518200D02*X518400D01*
X518200D02*X517600Y398286D01*
X517200Y397886D01*
X517000Y397286D01*
X499000Y363086D02*Y358886D01*
Y363086D02*X500800D01*
X501400Y362886D01*
X501600Y362686D01*
X501800Y362286D01*
Y361886D01*
X501600Y361486D01*
X501400Y361286D01*
X500800Y361086D01*
X499000D02*X500800D01*
X500400D02*X501800Y358886D01*
X503400Y363086D02*X505600D01*
X504400Y361486D01*
X505000D01*
X505400Y361286D01*
X505600Y361086D01*
X505800Y360486D01*
Y360086D01*
X505600Y359486D01*
X505200Y359086D01*
X504600Y358886D01*
X504000D02*X504600D01*
X504000D02*X503400Y359086D01*
X503200Y359286D01*
X503000Y359686D01*
X508200Y363086D02*X507600Y362886D01*
X507200Y362286D01*
X507000Y361286D01*
Y360686D01*
X507200Y359686D01*
X507600Y359086D01*
X508200Y358886D01*
X508600D01*
X509200Y359086D01*
X509600Y359686D01*
X509800Y360686D01*
Y361286D02*Y360686D01*
Y361286D02*X509600Y362286D01*
X509200Y362886D01*
X508600Y363086D01*
X508200D02*X508600D01*
X511400D02*X513600D01*
X512400Y361486D01*
X513000D01*
X513400Y361286D01*
X513600Y361086D01*
X513800Y360486D01*
Y360086D01*
X513600Y359486D01*
X513200Y359086D01*
X512600Y358886D01*
X512000D02*X512600D01*
X512000D02*X511400Y359086D01*
X511200Y359286D01*
X511000Y359686D01*
X459000Y344086D02*Y339886D01*
Y344086D02*X460800D01*
X461400Y343886D01*
X461600Y343686D01*
X461800Y343286D01*
Y342886D01*
X461600Y342486D01*
X461400Y342286D01*
X460800Y342086D01*
X459000D02*X460800D01*
X460400D02*X461800Y339886D01*
X463400Y344086D02*X465600D01*
X464400Y342486D01*
X465000D01*
X465400Y342286D01*
X465600Y342086D01*
X465800Y341486D01*
Y341086D01*
X465600Y340486D01*
X465200Y340086D01*
X464600Y339886D01*
X464000D02*X464600D01*
X464000D02*X463400Y340086D01*
X463200Y340286D01*
X463000Y340686D01*
X468200Y344086D02*X467600Y343886D01*
X467200Y343286D01*
X467000Y342286D01*
Y341686D01*
X467200Y340686D01*
X467600Y340086D01*
X468200Y339886D01*
X468600D01*
X469200Y340086D01*
X469600Y340686D01*
X469800Y341686D01*
Y342286D02*Y341686D01*
Y342286D02*X469600Y343286D01*
X469200Y343886D01*
X468600Y344086D01*
X468200D02*X468600D01*
X471200Y343286D02*Y343086D01*
Y343286D02*X471400Y343686D01*
X471600Y343886D01*
X472000Y344086D01*
X472800D01*
X473200Y343886D01*
X473400Y343686D01*
X473600Y343286D01*
Y342886D01*
X473400Y342486D01*
X473000Y341886D01*
X471000Y339886D01*
X473800D01*
X109000Y319086D02*Y315886D01*
X108800Y315286D01*
X108600Y315086D01*
X108200Y314886D01*
X107800D02*X108200D01*
X107800D02*X107400Y315086D01*
X107200Y315286D01*
X107000Y315886D01*
Y316286D02*Y315886D01*
X110600Y319086D02*X112800D01*
X111600Y317486D01*
X112200D01*
X112600Y317286D01*
X112800Y317086D01*
X113000Y316486D01*
Y316086D01*
X112800Y315486D01*
X112400Y315086D01*
X111800Y314886D01*
X111200D02*X111800D01*
X111200D02*X110600Y315086D01*
X110400Y315286D01*
X110200Y315686D01*
X115400Y319086D02*X114800Y318886D01*
X114400Y318286D01*
X114200Y317286D01*
Y316686D01*
X114400Y315686D01*
X114800Y315086D01*
X115400Y314886D01*
X115800D01*
X116400Y315086D01*
X116800Y315686D01*
X117000Y316686D01*
Y317286D02*Y316686D01*
Y317286D02*X116800Y318286D01*
X116400Y318886D01*
X115800Y319086D01*
X115400D02*X115800D01*
X118400Y318286D02*Y318086D01*
Y318286D02*X118600Y318686D01*
X118800Y318886D01*
X119200Y319086D01*
X120000D01*
X120400Y318886D01*
X120600Y318686D01*
X120800Y318286D01*
Y317886D01*
X120600Y317486D01*
X120200Y316886D01*
X118200Y314886D01*
X121000D01*
X109000Y259086D02*Y255886D01*
X108800Y255286D01*
X108600Y255086D01*
X108200Y254886D01*
X107800D02*X108200D01*
X107800D02*X107400Y255086D01*
X107200Y255286D01*
X107000Y255886D01*
Y256286D02*Y255886D01*
X110600Y259086D02*X112800D01*
X111600Y257486D01*
X112200D01*
X112600Y257286D01*
X112800Y257086D01*
X113000Y256486D01*
Y256086D01*
X112800Y255486D01*
X112400Y255086D01*
X111800Y254886D01*
X111200D02*X111800D01*
X111200D02*X110600Y255086D01*
X110400Y255286D01*
X110200Y255686D01*
X115400Y259086D02*X114800Y258886D01*
X114400Y258286D01*
X114200Y257286D01*
Y256686D01*
X114400Y255686D01*
X114800Y255086D01*
X115400Y254886D01*
X115800D01*
X116400Y255086D01*
X116800Y255686D01*
X117000Y256686D01*
Y257286D02*Y256686D01*
Y257286D02*X116800Y258286D01*
X116400Y258886D01*
X115800Y259086D01*
X115400D02*X115800D01*
X118600D02*X120800D01*
X119600Y257486D01*
X120200D01*
X120600Y257286D01*
X120800Y257086D01*
X121000Y256486D01*
Y256086D01*
X120800Y255486D01*
X120400Y255086D01*
X119800Y254886D01*
X119200D02*X119800D01*
X119200D02*X118600Y255086D01*
X118400Y255286D01*
X118200Y255686D01*
X109000Y199086D02*Y195886D01*
X108800Y195286D01*
X108600Y195086D01*
X108200Y194886D01*
X107800D02*X108200D01*
X107800D02*X107400Y195086D01*
X107200Y195286D01*
X107000Y195886D01*
Y196286D02*Y195886D01*
X110600Y199086D02*X112800D01*
X111600Y197486D01*
X112200D01*
X112600Y197286D01*
X112800Y197086D01*
X113000Y196486D01*
Y196086D01*
X112800Y195486D01*
X112400Y195086D01*
X111800Y194886D01*
X111200D02*X111800D01*
X111200D02*X110600Y195086D01*
X110400Y195286D01*
X110200Y195686D01*
X115400Y199086D02*X114800Y198886D01*
X114400Y198286D01*
X114200Y197286D01*
Y196686D01*
X114400Y195686D01*
X114800Y195086D01*
X115400Y194886D01*
X115800D01*
X116400Y195086D01*
X116800Y195686D01*
X117000Y196686D01*
Y197286D02*Y196686D01*
Y197286D02*X116800Y198286D01*
X116400Y198886D01*
X115800Y199086D01*
X115400D02*X115800D01*
X120200D02*X118200Y196286D01*
X121200D01*
X120200Y199086D02*Y194886D01*
X109000Y139086D02*Y135886D01*
X108800Y135286D01*
X108600Y135086D01*
X108200Y134886D01*
X107800D02*X108200D01*
X107800D02*X107400Y135086D01*
X107200Y135286D01*
X107000Y135886D01*
Y136286D02*Y135886D01*
X110600Y139086D02*X112800D01*
X111600Y137486D01*
X112200D01*
X112600Y137286D01*
X112800Y137086D01*
X113000Y136486D01*
Y136086D01*
X112800Y135486D01*
X112400Y135086D01*
X111800Y134886D01*
X111200D02*X111800D01*
X111200D02*X110600Y135086D01*
X110400Y135286D01*
X110200Y135686D01*
X115400Y139086D02*X114800Y138886D01*
X114400Y138286D01*
X114200Y137286D01*
Y136686D01*
X114400Y135686D01*
X114800Y135086D01*
X115400Y134886D01*
X115800D01*
X116400Y135086D01*
X116800Y135686D01*
X117000Y136686D01*
Y137286D02*Y136686D01*
Y137286D02*X116800Y138286D01*
X116400Y138886D01*
X115800Y139086D01*
X115400D02*X115800D01*
X118600D02*X120600D01*
X118600D02*X118400Y137286D01*
X118600Y137486D01*
X119200Y137686D01*
X119800D01*
X120400Y137486D01*
X120800Y137086D01*
X121000Y136486D01*
Y136086D01*
X120800Y135486D01*
X120400Y135086D01*
X119800Y134886D01*
X119200D02*X119800D01*
X119200D02*X118600Y135086D01*
X118400Y135286D01*
X118200Y135686D01*
X590500Y434086D02*X590300Y434486D01*
X589900Y434886D01*
X589500Y435086D01*
X588700D02*X589500D01*
X588700D02*X588300Y434886D01*
X587900Y434486D01*
X587700Y434086D01*
X587500Y433486D01*
Y432486D01*
X587700Y431886D01*
X587900Y431486D01*
X588300Y431086D01*
X588700Y430886D01*
X589500D01*
X589900Y431086D01*
X590300Y431486D01*
X590500Y431886D01*
X592100Y435086D02*X594300D01*
X593100Y433486D01*
X593700D01*
X594100Y433286D01*
X594300Y433086D01*
X594500Y432486D01*
Y432086D01*
X594300Y431486D01*
X593900Y431086D01*
X593300Y430886D01*
X592700D02*X593300D01*
X592700D02*X592100Y431086D01*
X591900Y431286D01*
X591700Y431686D01*
X595700Y434286D02*X596100Y434486D01*
X596700Y435086D01*
Y430886D01*
X598100Y434286D02*Y434086D01*
Y434286D02*X598300Y434686D01*
X598500Y434886D01*
X598900Y435086D01*
X599700D01*
X600100Y434886D01*
X600300Y434686D01*
X600500Y434286D01*
Y433886D01*
X600300Y433486D01*
X599900Y432886D01*
X597900Y430886D01*
X600700D01*
X505000Y420086D02*Y415886D01*
Y420086D02*X506800D01*
X507400Y419886D01*
X507600Y419686D01*
X507800Y419286D01*
Y418886D01*
X507600Y418486D01*
X507400Y418286D01*
X506800Y418086D01*
X505000D02*X506800D01*
X506400D02*X507800Y415886D01*
X509400Y420086D02*X511600D01*
X510400Y418486D01*
X511000D01*
X511400Y418286D01*
X511600Y418086D01*
X511800Y417486D01*
Y417086D01*
X511600Y416486D01*
X511200Y416086D01*
X510600Y415886D01*
X510000D02*X510600D01*
X510000D02*X509400Y416086D01*
X509200Y416286D01*
X509000Y416686D01*
X514200Y420086D02*X513600Y419886D01*
X513200Y419286D01*
X513000Y418286D01*
Y417686D01*
X513200Y416686D01*
X513600Y416086D01*
X514200Y415886D01*
X514600D01*
X515200Y416086D01*
X515600Y416686D01*
X515800Y417686D01*
Y418286D02*Y417686D01*
Y418286D02*X515600Y419286D01*
X515200Y419886D01*
X514600Y420086D01*
X514200D02*X514600D01*
X519600Y418686D02*X519400Y418086D01*
X519000Y417686D01*
X518400Y417486D01*
X518200D02*X518400D01*
X518200D02*X517600Y417686D01*
X517200Y418086D01*
X517000Y418686D01*
Y418886D02*Y418686D01*
Y418886D02*X517200Y419486D01*
X517600Y419886D01*
X518200Y420086D01*
X518400D01*
X519000Y419886D01*
X519400Y419486D01*
X519600Y418686D01*
Y417686D01*
X519400Y416686D01*
X519000Y416086D01*
X518400Y415886D01*
X518000D02*X518400D01*
X518000D02*X517400Y416086D01*
X517200Y416486D01*
X600800Y400886D02*X605000D01*
X600800Y402686D02*Y400886D01*
Y402686D02*X601000Y403286D01*
X601200Y403486D01*
X601600Y403686D01*
X602200D01*
X602600Y403486D01*
X602800Y403286D01*
X603000Y402686D01*
Y400886D01*
X600800Y407486D02*Y405286D01*
Y407486D02*X602400Y406286D01*
Y406886D02*Y406286D01*
Y406886D02*X602600Y407286D01*
X602800Y407486D01*
X603400Y407686D01*
X603800D01*
X604400Y407486D01*
X604800Y407086D01*
X605000Y406486D01*
Y405886D01*
X604800Y405286D01*
X604600Y405086D01*
X604200Y404886D01*
X600800Y410086D02*X601000Y409486D01*
X601600Y409086D01*
X602600Y408886D01*
X603200D01*
X604200Y409086D01*
X604800Y409486D01*
X605000Y410086D01*
Y410486D02*Y410086D01*
Y410486D02*X604800Y411086D01*
X604200Y411486D01*
X603200Y411686D01*
X602600D02*X603200D01*
X602600D02*X601600Y411486D01*
X601000Y411086D01*
X600800Y410486D01*
Y410086D01*
Y414086D02*X601000Y413486D01*
X601600Y413086D01*
X602600Y412886D01*
X603200D01*
X604200Y413086D01*
X604800Y413486D01*
X605000Y414086D01*
Y414486D02*Y414086D01*
Y414486D02*X604800Y415086D01*
X604200Y415486D01*
X603200Y415686D01*
X602600D02*X603200D01*
X602600D02*X601600Y415486D01*
X601000Y415086D01*
X600800Y414486D01*
Y414086D01*
X325500Y461586D02*X325300Y461986D01*
X324900Y462386D01*
X324500Y462586D01*
X323700D02*X324500D01*
X323700D02*X323300Y462386D01*
X322900Y461986D01*
X322700Y461586D01*
X322500Y460986D01*
Y459986D01*
X322700Y459386D01*
X322900Y458986D01*
X323300Y458586D01*
X323700Y458386D01*
X324500D01*
X324900Y458586D01*
X325300Y458986D01*
X325500Y459386D01*
X579500Y343586D02*X579300Y343986D01*
X578900Y344386D01*
X578500Y344586D01*
X577700D02*X578500D01*
X577700D02*X577300Y344386D01*
X576900Y343986D01*
X576700Y343586D01*
X576500Y342986D01*
Y341986D01*
X576700Y341386D01*
X576900Y340986D01*
X577300Y340586D01*
X577700Y340386D01*
X578500D01*
X578900Y340586D01*
X579300Y340986D01*
X579500Y341386D01*
X581100Y344586D02*X583300D01*
X582100Y342986D01*
X582700D01*
X583100Y342786D01*
X583300Y342586D01*
X583500Y341986D01*
Y341586D01*
X583300Y340986D01*
X582900Y340586D01*
X582300Y340386D01*
X581700D02*X582300D01*
X581700D02*X581100Y340586D01*
X580900Y340786D01*
X580700Y341186D01*
X584700Y343786D02*X585100Y343986D01*
X585700Y344586D01*
Y340386D01*
X587300Y344586D02*X589300D01*
X587300D02*X587100Y342786D01*
X587300Y342986D01*
X587900Y343186D01*
X588500D01*
X589100Y342986D01*
X589500Y342586D01*
X589700Y341986D01*
Y341586D01*
X589500Y340986D01*
X589100Y340586D01*
X588500Y340386D01*
X587900D02*X588500D01*
X587900D02*X587300Y340586D01*
X587100Y340786D01*
X586900Y341186D01*
X563800Y264386D02*X568000D01*
X563800Y265786D02*Y264386D01*
Y265786D02*X564000Y266386D01*
X564400Y266786D01*
X564800Y266986D01*
X565400Y267186D01*
X566400D01*
X567000Y266986D01*
X567400Y266786D01*
X567800Y266386D01*
X568000Y265786D01*
Y264386D01*
X563800Y270986D02*Y268786D01*
Y270986D02*X565400Y269786D01*
Y270386D02*Y269786D01*
Y270386D02*X565600Y270786D01*
X565800Y270986D01*
X566400Y271186D01*
X566800D01*
X567400Y270986D01*
X567800Y270586D01*
X568000Y269986D01*
Y269386D01*
X567800Y268786D01*
X567600Y268586D01*
X567200Y268386D01*
X563800Y273586D02*X564000Y272986D01*
X564600Y272586D01*
X565600Y272386D01*
X566200D01*
X567200Y272586D01*
X567800Y272986D01*
X568000Y273586D01*
Y273986D02*Y273586D01*
Y273986D02*X567800Y274586D01*
X567200Y274986D01*
X566200Y275186D01*
X565600D02*X566200D01*
X565600D02*X564600Y274986D01*
X564000Y274586D01*
X563800Y273986D01*
Y273586D01*
X564600Y276386D02*X564400Y276786D01*
X563800Y277386D01*
X568000D01*
X530500Y304086D02*X530300Y304486D01*
X529900Y304886D01*
X529500Y305086D01*
X528700D02*X529500D01*
X528700D02*X528300Y304886D01*
X527900Y304486D01*
X527700Y304086D01*
X527500Y303486D01*
Y302486D01*
X527700Y301886D01*
X527900Y301486D01*
X528300Y301086D01*
X528700Y300886D01*
X529500D01*
X529900Y301086D01*
X530300Y301486D01*
X530500Y301886D01*
X532100Y305086D02*X534300D01*
X533100Y303486D01*
X533700D01*
X534100Y303286D01*
X534300Y303086D01*
X534500Y302486D01*
Y302086D01*
X534300Y301486D01*
X533900Y301086D01*
X533300Y300886D01*
X532700D02*X533300D01*
X532700D02*X532100Y301086D01*
X531900Y301286D01*
X531700Y301686D01*
X535700Y304286D02*X536100Y304486D01*
X536700Y305086D01*
Y300886D01*
X540300Y304486D02*X540100Y304886D01*
X539500Y305086D01*
X539100D02*X539500D01*
X539100D02*X538500Y304886D01*
X538100Y304286D01*
X537900Y303286D01*
Y302286D01*
X538100Y301486D01*
X538500Y301086D01*
X539100Y300886D01*
X539300D01*
X539900Y301086D01*
X540300Y301486D01*
X540500Y302086D01*
Y302286D02*Y302086D01*
Y302286D02*X540300Y302886D01*
X539900Y303286D01*
X539300Y303486D01*
X539100D02*X539300D01*
X539100D02*X538500Y303286D01*
X538100Y302886D01*
X537900Y302286D01*
X542500Y364086D02*Y361086D01*
X542700Y360486D01*
X543100Y360086D01*
X543700Y359886D01*
X544100D01*
X544700Y360086D01*
X545100Y360486D01*
X545300Y361086D01*
Y364086D02*Y361086D01*
X546900Y364086D02*X549100D01*
X547900Y362486D01*
X548500D01*
X548900Y362286D01*
X549100Y362086D01*
X549300Y361486D01*
Y361086D01*
X549100Y360486D01*
X548700Y360086D01*
X548100Y359886D01*
X547500D02*X548100D01*
X547500D02*X546900Y360086D01*
X546700Y360286D01*
X546500Y360686D01*
X551700Y364086D02*X551100Y363886D01*
X550700Y363286D01*
X550500Y362286D01*
Y361686D01*
X550700Y360686D01*
X551100Y360086D01*
X551700Y359886D01*
X552100D01*
X552700Y360086D01*
X553100Y360686D01*
X553300Y361686D01*
Y362286D02*Y361686D01*
Y362286D02*X553100Y363286D01*
X552700Y363886D01*
X552100Y364086D01*
X551700D02*X552100D01*
X554500Y363286D02*X554900Y363486D01*
X555500Y364086D01*
Y359886D01*
X371000Y438586D02*Y434386D01*
Y438586D02*X372800D01*
X373400Y438386D01*
X373600Y438186D01*
X373800Y437786D01*
Y437386D01*
X373600Y436986D01*
X373400Y436786D01*
X372800Y436586D01*
X371000D02*X372800D01*
X372400D02*X373800Y434386D01*
X375400Y438586D02*X377600D01*
X376400Y436986D01*
X377000D01*
X377400Y436786D01*
X377600Y436586D01*
X377800Y435986D01*
Y435586D01*
X377600Y434986D01*
X377200Y434586D01*
X376600Y434386D01*
X376000D02*X376600D01*
X376000D02*X375400Y434586D01*
X375200Y434786D01*
X375000Y435186D01*
X379000Y437786D02*X379400Y437986D01*
X380000Y438586D01*
Y434386D01*
X382400Y438586D02*X381800Y438386D01*
X381400Y437786D01*
X381200Y436786D01*
Y436186D01*
X381400Y435186D01*
X381800Y434586D01*
X382400Y434386D01*
X382800D01*
X383400Y434586D01*
X383800Y435186D01*
X384000Y436186D01*
Y436786D02*Y436186D01*
Y436786D02*X383800Y437786D01*
X383400Y438386D01*
X382800Y438586D01*
X382400D02*X382800D01*
X588800Y298886D02*X593000D01*
X588800Y300686D02*Y298886D01*
Y300686D02*X589000Y301286D01*
X589200Y301486D01*
X589600Y301686D01*
X590000D01*
X590400Y301486D01*
X590600Y301286D01*
X590800Y300686D01*
Y298886D01*
Y300286D02*X593000Y301686D01*
X588800Y305486D02*Y303286D01*
Y305486D02*X590400Y304286D01*
Y304886D02*Y304286D01*
Y304886D02*X590600Y305286D01*
X590800Y305486D01*
X591400Y305686D01*
X591800D01*
X592400Y305486D01*
X592800Y305086D01*
X593000Y304486D01*
Y303886D01*
X592800Y303286D01*
X592600Y303086D01*
X592200Y302886D01*
X588800Y308086D02*X589000Y307486D01*
X589600Y307086D01*
X590600Y306886D01*
X591200D01*
X592200Y307086D01*
X592800Y307486D01*
X593000Y308086D01*
Y308486D02*Y308086D01*
Y308486D02*X592800Y309086D01*
X592200Y309486D01*
X591200Y309686D01*
X590600D02*X591200D01*
X590600D02*X589600Y309486D01*
X589000Y309086D01*
X588800Y308486D01*
Y308086D01*
Y311886D02*X589000Y311286D01*
X589400Y311086D01*
X589800D01*
X590200Y311286D01*
X590400Y311686D01*
X590600Y312486D01*
X590800Y313086D01*
X591200Y313486D01*
X591600Y313686D01*
X592200D01*
X592600Y313486D01*
X592800Y313286D01*
X593000Y312686D01*
Y311886D01*
X592800Y311286D01*
X592600Y311086D01*
X592200Y310886D01*
X591600D02*X592200D01*
X591600D02*X591200Y311086D01*
X590800Y311486D01*
X590600Y312086D01*
X590400Y312886D01*
X590200Y313286D01*
X589800Y313486D01*
X589400D02*X589800D01*
X589400D02*X589000Y313286D01*
X588800Y312686D01*
Y311886D01*
X512000Y438086D02*Y433886D01*
Y438086D02*X513400D01*
X514000Y437886D01*
X514400Y437486D01*
X514600Y437086D01*
X514800Y436486D01*
Y435486D01*
X514600Y434886D01*
X514400Y434486D01*
X514000Y434086D01*
X513400Y433886D01*
X512000D02*X513400D01*
X516400Y438086D02*X518600D01*
X517400Y436486D01*
X518000D01*
X518400Y436286D01*
X518600Y436086D01*
X518800Y435486D01*
Y435086D01*
X518600Y434486D01*
X518200Y434086D01*
X517600Y433886D01*
X517000D02*X517600D01*
X517000D02*X516400Y434086D01*
X516200Y434286D01*
X516000Y434686D01*
X521200Y438086D02*X520600Y437886D01*
X520200Y437286D01*
X520000Y436286D01*
Y435686D01*
X520200Y434686D01*
X520600Y434086D01*
X521200Y433886D01*
X521600D01*
X522200Y434086D01*
X522600Y434686D01*
X522800Y435686D01*
Y436286D02*Y435686D01*
Y436286D02*X522600Y437286D01*
X522200Y437886D01*
X521600Y438086D01*
X521200D02*X521600D01*
X524400D02*X526600D01*
X525400Y436486D01*
X526000D01*
X526400Y436286D01*
X526600Y436086D01*
X526800Y435486D01*
Y435086D01*
X526600Y434486D01*
X526200Y434086D01*
X525600Y433886D01*
X525000D02*X525600D01*
X525000D02*X524400Y434086D01*
X524200Y434286D01*
X524000Y434686D01*
X452500Y438086D02*Y433886D01*
Y438086D02*X453900D01*
X454500Y437886D01*
X454900Y437486D01*
X455100Y437086D01*
X455300Y436486D01*
Y435486D01*
X455100Y434886D01*
X454900Y434486D01*
X454500Y434086D01*
X453900Y433886D01*
X452500D02*X453900D01*
X456900Y438086D02*X459100D01*
X457900Y436486D01*
X458500D01*
X458900Y436286D01*
X459100Y436086D01*
X459300Y435486D01*
Y435086D01*
X459100Y434486D01*
X458700Y434086D01*
X458100Y433886D01*
X457500D02*X458100D01*
X457500D02*X456900Y434086D01*
X456700Y434286D01*
X456500Y434686D01*
X461700Y438086D02*X461100Y437886D01*
X460700Y437286D01*
X460500Y436286D01*
Y435686D01*
X460700Y434686D01*
X461100Y434086D01*
X461700Y433886D01*
X462100D01*
X462700Y434086D01*
X463100Y434686D01*
X463300Y435686D01*
Y436286D02*Y435686D01*
Y436286D02*X463100Y437286D01*
X462700Y437886D01*
X462100Y438086D01*
X461700D02*X462100D01*
X464700Y437286D02*Y437086D01*
Y437286D02*X464900Y437686D01*
X465100Y437886D01*
X465500Y438086D01*
X466300D01*
X466700Y437886D01*
X466900Y437686D01*
X467100Y437286D01*
Y436886D01*
X466900Y436486D01*
X466500Y435886D01*
X464500Y433886D01*
X467300D01*
X107500Y461186D02*Y456986D01*
Y460586D02*X107900Y460986D01*
X108300Y461186D01*
X108900D01*
X109300Y460986D01*
X109700Y460586D01*
X109900Y459986D01*
Y459586D01*
X109700Y458986D01*
X109300Y458586D01*
X108900Y458386D01*
X108300D02*X108900D01*
X108300D02*X107900Y458586D01*
X107500Y458986D01*
X111100Y461786D02*X111500Y461986D01*
X112100Y462586D01*
Y458386D01*
X104000Y354086D02*X103800Y354486D01*
X103400Y354886D01*
X103000Y355086D01*
X102200D02*X103000D01*
X102200D02*X101800Y354886D01*
X101400Y354486D01*
X101200Y354086D01*
X101000Y353486D01*
Y352486D01*
X101200Y351886D01*
X101400Y351486D01*
X101800Y351086D01*
X102200Y350886D01*
X103000D01*
X103400Y351086D01*
X103800Y351486D01*
X104000Y351886D01*
X105600Y355086D02*X107800D01*
X106600Y353486D01*
X107200D01*
X107600Y353286D01*
X107800Y353086D01*
X108000Y352486D01*
Y352086D01*
X107800Y351486D01*
X107400Y351086D01*
X106800Y350886D01*
X106200D02*X106800D01*
X106200D02*X105600Y351086D01*
X105400Y351286D01*
X105200Y351686D01*
X110400Y355086D02*X109800Y354886D01*
X109400Y354286D01*
X109200Y353286D01*
Y352686D01*
X109400Y351686D01*
X109800Y351086D01*
X110400Y350886D01*
X110800D01*
X111400Y351086D01*
X111800Y351686D01*
X112000Y352686D01*
Y353286D02*Y352686D01*
Y353286D02*X111800Y354286D01*
X111400Y354886D01*
X110800Y355086D01*
X110400D02*X110800D01*
X113600D02*X115800D01*
X114600Y353486D01*
X115200D01*
X115600Y353286D01*
X115800Y353086D01*
X116000Y352486D01*
Y352086D01*
X115800Y351486D01*
X115400Y351086D01*
X114800Y350886D01*
X114200D02*X114800D01*
X114200D02*X113600Y351086D01*
X113400Y351286D01*
X113200Y351686D01*
X109000Y379086D02*Y375886D01*
X108800Y375286D01*
X108600Y375086D01*
X108200Y374886D01*
X107800D02*X108200D01*
X107800D02*X107400Y375086D01*
X107200Y375286D01*
X107000Y375886D01*
Y376286D02*Y375886D01*
X110600Y379086D02*X112800D01*
X111600Y377486D01*
X112200D01*
X112600Y377286D01*
X112800Y377086D01*
X113000Y376486D01*
Y376086D01*
X112800Y375486D01*
X112400Y375086D01*
X111800Y374886D01*
X111200D02*X111800D01*
X111200D02*X110600Y375086D01*
X110400Y375286D01*
X110200Y375686D01*
X115400Y379086D02*X114800Y378886D01*
X114400Y378286D01*
X114200Y377286D01*
Y376686D01*
X114400Y375686D01*
X114800Y375086D01*
X115400Y374886D01*
X115800D01*
X116400Y375086D01*
X116800Y375686D01*
X117000Y376686D01*
Y377286D02*Y376686D01*
Y377286D02*X116800Y378286D01*
X116400Y378886D01*
X115800Y379086D01*
X115400D02*X115800D01*
X118200Y378286D02*X118600Y378486D01*
X119200Y379086D01*
Y374886D01*
X182500Y461186D02*Y456986D01*
Y460586D02*X182900Y460986D01*
X183300Y461186D01*
X183900D01*
X184300Y460986D01*
X184700Y460586D01*
X184900Y459986D01*
Y459586D01*
X184700Y458986D01*
X184300Y458586D01*
X183900Y458386D01*
X183300D02*X183900D01*
X183300D02*X182900Y458586D01*
X182500Y458986D01*
X186300Y461786D02*Y461586D01*
Y461786D02*X186500Y462186D01*
X186700Y462386D01*
X187100Y462586D01*
X187900D01*
X188300Y462386D01*
X188500Y462186D01*
X188700Y461786D01*
Y461386D01*
X188500Y460986D01*
X188100Y460386D01*
X186100Y458386D01*
X188900D01*
X159500Y174086D02*X159300Y174486D01*
X158900Y174886D01*
X158500Y175086D01*
X157700D02*X158500D01*
X157700D02*X157300Y174886D01*
X156900Y174486D01*
X156700Y174086D01*
X156500Y173486D01*
Y172486D01*
X156700Y171886D01*
X156900Y171486D01*
X157300Y171086D01*
X157700Y170886D01*
X158500D01*
X158900Y171086D01*
X159300Y171486D01*
X159500Y171886D01*
X161100Y175086D02*X163300D01*
X162100Y173486D01*
X162700D01*
X163100Y173286D01*
X163300Y173086D01*
X163500Y172486D01*
Y172086D01*
X163300Y171486D01*
X162900Y171086D01*
X162300Y170886D01*
X161700D02*X162300D01*
X161700D02*X161100Y171086D01*
X160900Y171286D01*
X160700Y171686D01*
X165900Y175086D02*X165300Y174886D01*
X164900Y174286D01*
X164700Y173286D01*
Y172686D01*
X164900Y171686D01*
X165300Y171086D01*
X165900Y170886D01*
X166300D01*
X166900Y171086D01*
X167300Y171686D01*
X167500Y172686D01*
Y173286D02*Y172686D01*
Y173286D02*X167300Y174286D01*
X166900Y174886D01*
X166300Y175086D01*
X165900D02*X166300D01*
X169700D02*X169100Y174886D01*
X168900Y174486D01*
Y174086D01*
X169100Y173686D01*
X169500Y173486D01*
X170300Y173286D01*
X170900Y173086D01*
X171300Y172686D01*
X171500Y172286D01*
Y171686D01*
X171300Y171286D01*
X171100Y171086D01*
X170500Y170886D01*
X169700D02*X170500D01*
X169700D02*X169100Y171086D01*
X168900Y171286D01*
X168700Y171686D01*
Y172286D02*Y171686D01*
Y172286D02*X168900Y172686D01*
X169300Y173086D01*
X169900Y173286D01*
X170700Y173486D01*
X171100Y173686D01*
X171300Y174086D01*
Y174486D02*Y174086D01*
Y174486D02*X171100Y174886D01*
X170500Y175086D01*
X169700D02*X170500D01*
X159500Y354086D02*X159300Y354486D01*
X158900Y354886D01*
X158500Y355086D01*
X157700D02*X158500D01*
X157700D02*X157300Y354886D01*
X156900Y354486D01*
X156700Y354086D01*
X156500Y353486D01*
Y352486D01*
X156700Y351886D01*
X156900Y351486D01*
X157300Y351086D01*
X157700Y350886D01*
X158500D01*
X158900Y351086D01*
X159300Y351486D01*
X159500Y351886D01*
X161100Y355086D02*X163300D01*
X162100Y353486D01*
X162700D01*
X163100Y353286D01*
X163300Y353086D01*
X163500Y352486D01*
Y352086D01*
X163300Y351486D01*
X162900Y351086D01*
X162300Y350886D01*
X161700D02*X162300D01*
X161700D02*X161100Y351086D01*
X160900Y351286D01*
X160700Y351686D01*
X165900Y355086D02*X165300Y354886D01*
X164900Y354286D01*
X164700Y353286D01*
Y352686D01*
X164900Y351686D01*
X165300Y351086D01*
X165900Y350886D01*
X166300D01*
X166900Y351086D01*
X167300Y351686D01*
X167500Y352686D01*
Y353286D02*Y352686D01*
Y353286D02*X167300Y354286D01*
X166900Y354886D01*
X166300Y355086D01*
X165900D02*X166300D01*
X168900Y354286D02*Y354086D01*
Y354286D02*X169100Y354686D01*
X169300Y354886D01*
X169700Y355086D01*
X170500D01*
X170900Y354886D01*
X171100Y354686D01*
X171300Y354286D01*
Y353886D01*
X171100Y353486D01*
X170700Y352886D01*
X168700Y350886D01*
X171500D01*
X159500Y294086D02*X159300Y294486D01*
X158900Y294886D01*
X158500Y295086D01*
X157700D02*X158500D01*
X157700D02*X157300Y294886D01*
X156900Y294486D01*
X156700Y294086D01*
X156500Y293486D01*
Y292486D01*
X156700Y291886D01*
X156900Y291486D01*
X157300Y291086D01*
X157700Y290886D01*
X158500D01*
X158900Y291086D01*
X159300Y291486D01*
X159500Y291886D01*
X161100Y295086D02*X163300D01*
X162100Y293486D01*
X162700D01*
X163100Y293286D01*
X163300Y293086D01*
X163500Y292486D01*
Y292086D01*
X163300Y291486D01*
X162900Y291086D01*
X162300Y290886D01*
X161700D02*X162300D01*
X161700D02*X161100Y291086D01*
X160900Y291286D01*
X160700Y291686D01*
X165900Y295086D02*X165300Y294886D01*
X164900Y294286D01*
X164700Y293286D01*
Y292686D01*
X164900Y291686D01*
X165300Y291086D01*
X165900Y290886D01*
X166300D01*
X166900Y291086D01*
X167300Y291686D01*
X167500Y292686D01*
Y293286D02*Y292686D01*
Y293286D02*X167300Y294286D01*
X166900Y294886D01*
X166300Y295086D01*
X165900D02*X166300D01*
X170700D02*X168700Y292286D01*
X171700D01*
X170700Y295086D02*Y290886D01*
X159500Y234086D02*X159300Y234486D01*
X158900Y234886D01*
X158500Y235086D01*
X157700D02*X158500D01*
X157700D02*X157300Y234886D01*
X156900Y234486D01*
X156700Y234086D01*
X156500Y233486D01*
Y232486D01*
X156700Y231886D01*
X156900Y231486D01*
X157300Y231086D01*
X157700Y230886D01*
X158500D01*
X158900Y231086D01*
X159300Y231486D01*
X159500Y231886D01*
X161100Y235086D02*X163300D01*
X162100Y233486D01*
X162700D01*
X163100Y233286D01*
X163300Y233086D01*
X163500Y232486D01*
Y232086D01*
X163300Y231486D01*
X162900Y231086D01*
X162300Y230886D01*
X161700D02*X162300D01*
X161700D02*X161100Y231086D01*
X160900Y231286D01*
X160700Y231686D01*
X165900Y235086D02*X165300Y234886D01*
X164900Y234286D01*
X164700Y233286D01*
Y232686D01*
X164900Y231686D01*
X165300Y231086D01*
X165900Y230886D01*
X166300D01*
X166900Y231086D01*
X167300Y231686D01*
X167500Y232686D01*
Y233286D02*Y232686D01*
Y233286D02*X167300Y234286D01*
X166900Y234886D01*
X166300Y235086D01*
X165900D02*X166300D01*
X171100Y234486D02*X170900Y234886D01*
X170300Y235086D01*
X169900D02*X170300D01*
X169900D02*X169300Y234886D01*
X168900Y234286D01*
X168700Y233286D01*
Y232286D01*
X168900Y231486D01*
X169300Y231086D01*
X169900Y230886D01*
X170100D01*
X170700Y231086D01*
X171100Y231486D01*
X171300Y232086D01*
Y232286D02*Y232086D01*
Y232286D02*X171100Y232886D01*
X170700Y233286D01*
X170100Y233486D01*
X169900D02*X170100D01*
X169900D02*X169300Y233286D01*
X168900Y232886D01*
X168700Y232286D01*
X44300Y400886D02*X47500D01*
X48100Y400686D01*
X48300Y400486D01*
X48500Y400086D01*
Y399686D01*
X48300Y399286D01*
X48100Y399086D01*
X47500Y398886D01*
X47100D02*X47500D01*
X44300Y404686D02*Y402486D01*
Y404686D02*X45900Y403486D01*
Y404086D02*Y403486D01*
Y404086D02*X46100Y404486D01*
X46300Y404686D01*
X46900Y404886D01*
X47300D01*
X47900Y404686D01*
X48300Y404286D01*
X48500Y403686D01*
Y403086D01*
X48300Y402486D01*
X48100Y402286D01*
X47700Y402086D01*
X44300Y407286D02*X44500Y406686D01*
X45100Y406286D01*
X46100Y406086D01*
X46700D01*
X47700Y406286D01*
X48300Y406686D01*
X48500Y407286D01*
Y407686D02*Y407286D01*
Y407686D02*X48300Y408286D01*
X47700Y408686D01*
X46700Y408886D01*
X46100D02*X46700D01*
X46100D02*X45100Y408686D01*
X44500Y408286D01*
X44300Y407686D01*
Y407286D01*
Y411286D02*X44500Y410686D01*
X45100Y410286D01*
X46100Y410086D01*
X46700D01*
X47700Y410286D01*
X48300Y410686D01*
X48500Y411286D01*
Y411686D02*Y411286D01*
Y411686D02*X48300Y412286D01*
X47700Y412686D01*
X46700Y412886D01*
X46100D02*X46700D01*
X46100D02*X45100Y412686D01*
X44500Y412286D01*
X44300Y411686D01*
Y411286D01*
X4100Y425086D02*X2500Y420886D01*
X4100Y425086D02*X5700Y420886D01*
X3100Y422286D02*X5100D01*
X105000Y53686D02*Y49486D01*
Y53086D02*X105400Y53486D01*
X105800Y53686D01*
X106400D01*
X106800Y53486D01*
X107200Y53086D01*
X107400Y52486D01*
Y52086D01*
X107200Y51486D01*
X106800Y51086D01*
X106400Y50886D01*
X105800D02*X106400D01*
X105800D02*X105400Y51086D01*
X105000Y51486D01*
X109000Y55086D02*X111200D01*
X110000Y53486D01*
X110600D01*
X111000Y53286D01*
X111200Y53086D01*
X111400Y52486D01*
Y52086D01*
X111200Y51486D01*
X110800Y51086D01*
X110200Y50886D01*
X109600D02*X110200D01*
X109600D02*X109000Y51086D01*
X108800Y51286D01*
X108600Y51686D01*
X104000Y174086D02*X103800Y174486D01*
X103400Y174886D01*
X103000Y175086D01*
X102200D02*X103000D01*
X102200D02*X101800Y174886D01*
X101400Y174486D01*
X101200Y174086D01*
X101000Y173486D01*
Y172486D01*
X101200Y171886D01*
X101400Y171486D01*
X101800Y171086D01*
X102200Y170886D01*
X103000D01*
X103400Y171086D01*
X103800Y171486D01*
X104000Y171886D01*
X105600Y175086D02*X107800D01*
X106600Y173486D01*
X107200D01*
X107600Y173286D01*
X107800Y173086D01*
X108000Y172486D01*
Y172086D01*
X107800Y171486D01*
X107400Y171086D01*
X106800Y170886D01*
X106200D02*X106800D01*
X106200D02*X105600Y171086D01*
X105400Y171286D01*
X105200Y171686D01*
X110400Y175086D02*X109800Y174886D01*
X109400Y174286D01*
X109200Y173286D01*
Y172686D01*
X109400Y171686D01*
X109800Y171086D01*
X110400Y170886D01*
X110800D01*
X111400Y171086D01*
X111800Y171686D01*
X112000Y172686D01*
Y173286D02*Y172686D01*
Y173286D02*X111800Y174286D01*
X111400Y174886D01*
X110800Y175086D01*
X110400D02*X110800D01*
X115800Y173686D02*X115600Y173086D01*
X115200Y172686D01*
X114600Y172486D01*
X114400D02*X114600D01*
X114400D02*X113800Y172686D01*
X113400Y173086D01*
X113200Y173686D01*
Y173886D02*Y173686D01*
Y173886D02*X113400Y174486D01*
X113800Y174886D01*
X114400Y175086D01*
X114600D01*
X115200Y174886D01*
X115600Y174486D01*
X115800Y173686D01*
Y172686D01*
X115600Y171686D01*
X115200Y171086D01*
X114600Y170886D01*
X114200D02*X114600D01*
X114200D02*X113600Y171086D01*
X113400Y171486D01*
X104000Y294086D02*X103800Y294486D01*
X103400Y294886D01*
X103000Y295086D01*
X102200D02*X103000D01*
X102200D02*X101800Y294886D01*
X101400Y294486D01*
X101200Y294086D01*
X101000Y293486D01*
Y292486D01*
X101200Y291886D01*
X101400Y291486D01*
X101800Y291086D01*
X102200Y290886D01*
X103000D01*
X103400Y291086D01*
X103800Y291486D01*
X104000Y291886D01*
X105600Y295086D02*X107800D01*
X106600Y293486D01*
X107200D01*
X107600Y293286D01*
X107800Y293086D01*
X108000Y292486D01*
Y292086D01*
X107800Y291486D01*
X107400Y291086D01*
X106800Y290886D01*
X106200D02*X106800D01*
X106200D02*X105600Y291086D01*
X105400Y291286D01*
X105200Y291686D01*
X110400Y295086D02*X109800Y294886D01*
X109400Y294286D01*
X109200Y293286D01*
Y292686D01*
X109400Y291686D01*
X109800Y291086D01*
X110400Y290886D01*
X110800D01*
X111400Y291086D01*
X111800Y291686D01*
X112000Y292686D01*
Y293286D02*Y292686D01*
Y293286D02*X111800Y294286D01*
X111400Y294886D01*
X110800Y295086D01*
X110400D02*X110800D01*
X113600D02*X115600D01*
X113600D02*X113400Y293286D01*
X113600Y293486D01*
X114200Y293686D01*
X114800D01*
X115400Y293486D01*
X115800Y293086D01*
X116000Y292486D01*
Y292086D01*
X115800Y291486D01*
X115400Y291086D01*
X114800Y290886D01*
X114200D02*X114800D01*
X114200D02*X113600Y291086D01*
X113400Y291286D01*
X113200Y291686D01*
X104000Y234086D02*X103800Y234486D01*
X103400Y234886D01*
X103000Y235086D01*
X102200D02*X103000D01*
X102200D02*X101800Y234886D01*
X101400Y234486D01*
X101200Y234086D01*
X101000Y233486D01*
Y232486D01*
X101200Y231886D01*
X101400Y231486D01*
X101800Y231086D01*
X102200Y230886D01*
X103000D01*
X103400Y231086D01*
X103800Y231486D01*
X104000Y231886D01*
X105600Y235086D02*X107800D01*
X106600Y233486D01*
X107200D01*
X107600Y233286D01*
X107800Y233086D01*
X108000Y232486D01*
Y232086D01*
X107800Y231486D01*
X107400Y231086D01*
X106800Y230886D01*
X106200D02*X106800D01*
X106200D02*X105600Y231086D01*
X105400Y231286D01*
X105200Y231686D01*
X110400Y235086D02*X109800Y234886D01*
X109400Y234286D01*
X109200Y233286D01*
Y232686D01*
X109400Y231686D01*
X109800Y231086D01*
X110400Y230886D01*
X110800D01*
X111400Y231086D01*
X111800Y231686D01*
X112000Y232686D01*
Y233286D02*Y232686D01*
Y233286D02*X111800Y234286D01*
X111400Y234886D01*
X110800Y235086D01*
X110400D02*X110800D01*
X116000D02*X114000Y230886D01*
X113200Y235086D02*X116000D01*
X182500Y53686D02*Y49486D01*
Y53086D02*X182900Y53486D01*
X183300Y53686D01*
X183900D01*
X184300Y53486D01*
X184700Y53086D01*
X184900Y52486D01*
Y52086D01*
X184700Y51486D01*
X184300Y51086D01*
X183900Y50886D01*
X183300D02*X183900D01*
X183300D02*X182900Y51086D01*
X182500Y51486D01*
X188100Y55086D02*X186100Y52286D01*
X189100D01*
X188100Y55086D02*Y50886D01*
M02*
