G04 start of page 11 for group -3984 idx -3984 *
G04 Title: 26.002.00.01.01.pcb, fab *
G04 Creator: pcb 4.1.2 *
G04 CreationDate: Fri Aug 10 20:06:22 2018 UTC *
G04 For: bert *
G04 Format: Gerber/RS-274X *
G04 PCB-Dimensions (mil): 2440.94 4527.56 *
G04 PCB-Coordinate-Origin: lower left *
%MOIN*%
%FSLAX25Y25*%
%LNFAB*%
%ADD109C,0.0100*%
%ADD108C,0.0060*%
%ADD107C,0.0080*%
G54D107*X109437Y64961D02*G75*G03X111037Y64961I800J0D01*G01*
G75*G03X109437Y64961I-800J0D01*G01*
X107837D02*G75*G03X112637Y64961I2400J0D01*G01*
G75*G03X107837Y64961I-2400J0D01*G01*
X109437Y387796D02*G75*G03X111037Y387796I800J0D01*G01*
G75*G03X109437Y387796I-800J0D01*G01*
X107837D02*G75*G03X112637Y387796I2400J0D01*G01*
G75*G03X107837Y387796I-2400J0D01*G01*
X14200Y464006D02*G75*G03X15800Y464006I800J0D01*G01*
G75*G03X14200Y464006I-800J0D01*G01*
X12600D02*G75*G03X17400Y464006I2400J0D01*G01*
G75*G03X12600Y464006I-2400J0D01*G01*
G54D108*X140000Y467756D02*Y461756D01*
Y467756D02*Y467006D01*
X143750Y463256D01*
Y467756D02*Y461756D01*
X145550Y467006D02*Y462506D01*
Y467006D02*X146300Y467756D01*
X147800D01*
X148550Y467006D01*
Y462506D01*
X147800Y461756D02*X148550Y462506D01*
X146300Y461756D02*X147800D01*
X145550Y462506D02*X146300Y461756D01*
X98000Y467006D02*X98750Y467756D01*
X101000D01*
X101750Y467006D01*
Y465506D01*
X98000Y461756D02*X101750Y465506D01*
X98000Y461756D02*X101750D01*
X45000Y462506D02*X45750Y461756D01*
X45000Y467006D02*Y462506D01*
Y467006D02*X45750Y467756D01*
X47250D01*
X48000Y467006D01*
Y462506D01*
X47250Y461756D02*X48000Y462506D01*
X45750Y461756D02*X47250D01*
X45000Y463256D02*X48000Y466256D01*
X49800Y461756D02*X50550D01*
X53100D02*X54600D01*
X53850Y467756D02*Y461756D01*
X52350Y466256D02*X53850Y467756D01*
X56400Y464756D02*X59400Y467756D01*
X56400Y464756D02*X60150D01*
X59400Y467756D02*Y461756D01*
X64200Y467756D02*X64950Y467006D01*
X62700Y467756D02*X64200D01*
X61950Y467006D02*X62700Y467756D01*
X61950Y467006D02*Y462506D01*
X62700Y461756D01*
X64200Y464756D02*X64950Y464006D01*
X61950Y464756D02*X64200D01*
X62700Y461756D02*X64200D01*
X64950Y462506D01*
Y464006D02*Y462506D01*
X172207Y85668D02*X177007Y80868D01*
X172207D02*X177007Y85668D01*
X173007Y84868D02*X176207D01*
X173007D02*Y81668D01*
X176207D01*
Y84868D02*Y81668D01*
X172207Y135668D02*X177007Y130868D01*
X172207D02*X177007Y135668D01*
X173007Y134868D02*X176207D01*
X173007D02*Y131668D01*
X176207D01*
Y134868D02*Y131668D01*
X122207Y135668D02*X127007Y130868D01*
X122207D02*X127007Y135668D01*
X123007Y134868D02*X126207D01*
X123007D02*Y131668D01*
X126207D01*
Y134868D02*Y131668D01*
X12600Y481406D02*X17400Y476606D01*
X12600D02*X17400Y481406D01*
X13400Y480606D02*X16600D01*
X13400D02*Y477406D01*
X16600D01*
Y480606D02*Y477406D01*
X135000Y482756D02*Y482006D01*
X136500Y480506D01*
X138000Y482006D01*
Y482756D02*Y482006D01*
X136500Y480506D02*Y476756D01*
X139800Y479756D02*X142050D01*
X139800Y476756D02*X142800D01*
X139800Y482756D02*Y476756D01*
Y482756D02*X142800D01*
X147600D02*X148350Y482006D01*
X145350Y482756D02*X147600D01*
X144600Y482006D02*X145350Y482756D01*
X144600Y482006D02*Y480506D01*
X145350Y479756D01*
X147600D01*
X148350Y479006D01*
Y477506D01*
X147600Y476756D02*X148350Y477506D01*
X145350Y476756D02*X147600D01*
X144600Y477506D02*X145350Y476756D01*
X98000Y482006D02*X98750Y482756D01*
X100250D01*
X101000Y482006D01*
Y477506D01*
X100250Y476756D02*X101000Y477506D01*
X98750Y476756D02*X100250D01*
X98000Y477506D02*X98750Y476756D01*
Y479756D02*X101000D01*
X45000Y477506D02*X45750Y476756D01*
X45000Y482006D02*Y477506D01*
Y482006D02*X45750Y482756D01*
X47250D01*
X48000Y482006D01*
Y477506D01*
X47250Y476756D02*X48000Y477506D01*
X45750Y476756D02*X47250D01*
X45000Y478256D02*X48000Y481256D01*
X49800Y476756D02*X50550D01*
X53100D02*X54600D01*
X53850Y482756D02*Y476756D01*
X52350Y481256D02*X53850Y482756D01*
X57150Y476756D02*X58650D01*
X57900Y482756D02*Y476756D01*
X56400Y481256D02*X57900Y482756D01*
X60450Y477506D02*X61200Y476756D01*
X60450Y482006D02*Y477506D01*
Y482006D02*X61200Y482756D01*
X62700D01*
X63450Y482006D01*
Y477506D01*
X62700Y476756D02*X63450Y477506D01*
X61200Y476756D02*X62700D01*
X60450Y478256D02*X63450Y481256D01*
X169831Y163870D02*Y157470D01*
X166631Y160670D02*X173031D01*
X168231Y162270D02*X171431D01*
X168231D02*Y159070D01*
X171431D01*
Y162270D02*Y159070D01*
X149831Y160870D02*Y154470D01*
X146631Y157670D02*X153031D01*
X148231Y159270D02*X151431D01*
X148231D02*Y156070D01*
X151431D01*
Y159270D02*Y156070D01*
X129831Y163870D02*Y157470D01*
X126631Y160670D02*X133031D01*
X128231Y162270D02*X131431D01*
X128231D02*Y159070D01*
X131431D01*
Y162270D02*Y159070D01*
X15000Y497206D02*Y490806D01*
X11800Y494006D02*X18200D01*
X13400Y495606D02*X16600D01*
X13400D02*Y492406D01*
X16600D01*
Y495606D02*Y492406D01*
X135000Y497756D02*Y497006D01*
X136500Y495506D01*
X138000Y497006D01*
Y497756D02*Y497006D01*
X136500Y495506D02*Y491756D01*
X139800Y494756D02*X142050D01*
X139800Y491756D02*X142800D01*
X139800Y497756D02*Y491756D01*
Y497756D02*X142800D01*
X147600D02*X148350Y497006D01*
X145350Y497756D02*X147600D01*
X144600Y497006D02*X145350Y497756D01*
X144600Y497006D02*Y495506D01*
X145350Y494756D01*
X147600D01*
X148350Y494006D01*
Y492506D01*
X147600Y491756D02*X148350Y492506D01*
X145350Y491756D02*X147600D01*
X144600Y492506D02*X145350Y491756D01*
X98000Y497006D02*X98750Y497756D01*
X100250D01*
X101000Y497006D01*
Y492506D01*
X100250Y491756D02*X101000Y492506D01*
X98750Y491756D02*X100250D01*
X98000Y492506D02*X98750Y491756D01*
Y494756D02*X101000D01*
X45000Y492506D02*X45750Y491756D01*
X45000Y497006D02*Y492506D01*
Y497006D02*X45750Y497756D01*
X47250D01*
X48000Y497006D01*
Y492506D01*
X47250Y491756D02*X48000Y492506D01*
X45750Y491756D02*X47250D01*
X45000Y493256D02*X48000Y496256D01*
X49800Y491756D02*X50550D01*
X52350Y492506D02*X53100Y491756D01*
X52350Y497006D02*Y492506D01*
Y497006D02*X53100Y497756D01*
X54600D01*
X55350Y497006D01*
Y492506D01*
X54600Y491756D02*X55350Y492506D01*
X53100Y491756D02*X54600D01*
X52350Y493256D02*X55350Y496256D01*
X59400Y497756D02*X60150Y497006D01*
X57900Y497756D02*X59400D01*
X57150Y497006D02*X57900Y497756D01*
X57150Y497006D02*Y492506D01*
X57900Y491756D01*
X59400Y494756D02*X60150Y494006D01*
X57150Y494756D02*X59400D01*
X57900Y491756D02*X59400D01*
X60150Y492506D01*
Y494006D02*Y492506D01*
X61950Y491756D02*X65700Y495506D01*
Y497756D02*Y495506D01*
X61950Y497756D02*X65700D01*
X149607Y108268D02*Y105068D01*
Y108268D02*X152380Y109868D01*
X149607Y108268D02*X146834Y109868D01*
X148007Y108268D02*G75*G03X151207Y108268I1600J0D01*G01*
G75*G03X148007Y108268I-1600J0D01*G01*
X15000Y509006D02*Y505806D01*
Y509006D02*X17773Y510606D01*
X15000Y509006D02*X12227Y510606D01*
X13400Y509006D02*G75*G03X16600Y509006I1600J0D01*G01*
G75*G03X13400Y509006I-1600J0D01*G01*
X135000Y512756D02*Y512006D01*
X136500Y510506D01*
X138000Y512006D01*
Y512756D02*Y512006D01*
X136500Y510506D02*Y506756D01*
X139800Y509756D02*X142050D01*
X139800Y506756D02*X142800D01*
X139800Y512756D02*Y506756D01*
Y512756D02*X142800D01*
X147600D02*X148350Y512006D01*
X145350Y512756D02*X147600D01*
X144600Y512006D02*X145350Y512756D01*
X144600Y512006D02*Y510506D01*
X145350Y509756D01*
X147600D01*
X148350Y509006D01*
Y507506D01*
X147600Y506756D02*X148350Y507506D01*
X145350Y506756D02*X147600D01*
X144600Y507506D02*X145350Y506756D01*
X98750D02*X100250D01*
X99500Y512756D02*Y506756D01*
X98000Y511256D02*X99500Y512756D01*
X45000Y507506D02*X45750Y506756D01*
X45000Y512006D02*Y507506D01*
Y512006D02*X45750Y512756D01*
X47250D01*
X48000Y512006D01*
Y507506D01*
X47250Y506756D02*X48000Y507506D01*
X45750Y506756D02*X47250D01*
X45000Y508256D02*X48000Y511256D01*
X49800Y506756D02*X50550D01*
X52350Y507506D02*X53100Y506756D01*
X52350Y512006D02*Y507506D01*
Y512006D02*X53100Y512756D01*
X54600D01*
X55350Y512006D01*
Y507506D01*
X54600Y506756D02*X55350Y507506D01*
X53100Y506756D02*X54600D01*
X52350Y508256D02*X55350Y511256D01*
X59400Y512756D02*X60150Y512006D01*
X57900Y512756D02*X59400D01*
X57150Y512006D02*X57900Y512756D01*
X57150Y512006D02*Y507506D01*
X57900Y506756D01*
X59400Y509756D02*X60150Y509006D01*
X57150Y509756D02*X59400D01*
X57900Y506756D02*X59400D01*
X60150Y507506D01*
Y509006D02*Y507506D01*
X64200Y512756D02*X64950Y512006D01*
X62700Y512756D02*X64200D01*
X61950Y512006D02*X62700Y512756D01*
X61950Y512006D02*Y507506D01*
X62700Y506756D01*
X64200Y509756D02*X64950Y509006D01*
X61950Y509756D02*X64200D01*
X62700Y506756D02*X64200D01*
X64950Y507506D01*
Y509006D02*Y507506D01*
X113637Y346089D02*X116837D01*
X113637D02*Y342889D01*
X116837D01*
Y346089D02*Y342889D01*
X103637Y346089D02*X106837D01*
X103637D02*Y342889D01*
X106837D01*
Y346089D02*Y342889D01*
X64266Y237112D02*X67466D01*
X64266D02*Y233912D01*
X67466D01*
Y237112D02*Y233912D01*
X74266Y237112D02*X77466D01*
X74266D02*Y233912D01*
X77466D01*
Y237112D02*Y233912D01*
X64266Y227112D02*X67466D01*
X64266D02*Y223912D01*
X67466D01*
Y227112D02*Y223912D01*
X74266Y227112D02*X77466D01*
X74266D02*Y223912D01*
X77466D01*
Y227112D02*Y223912D01*
X64266Y217112D02*X67466D01*
X64266D02*Y213912D01*
X67466D01*
Y217112D02*Y213912D01*
X74266Y217112D02*X77466D01*
X74266D02*Y213912D01*
X77466D01*
Y217112D02*Y213912D01*
X64266Y207112D02*X67466D01*
X64266D02*Y203912D01*
X67466D01*
Y207112D02*Y203912D01*
X74266Y207112D02*X77466D01*
X74266D02*Y203912D01*
X77466D01*
Y207112D02*Y203912D01*
X64266Y197112D02*X67466D01*
X64266D02*Y193912D01*
X67466D01*
Y197112D02*Y193912D01*
X74266Y197112D02*X77466D01*
X74266D02*Y193912D01*
X77466D01*
Y197112D02*Y193912D01*
X64266Y187112D02*X67466D01*
X64266D02*Y183912D01*
X67466D01*
Y187112D02*Y183912D01*
X74266Y187112D02*X77466D01*
X74266D02*Y183912D01*
X77466D01*
Y187112D02*Y183912D01*
X64266Y177112D02*X67466D01*
X64266D02*Y173912D01*
X67466D01*
Y177112D02*Y173912D01*
X74266Y177112D02*X77466D01*
X74266D02*Y173912D01*
X77466D01*
Y177112D02*Y173912D01*
X64266Y167112D02*X67466D01*
X64266D02*Y163912D01*
X67466D01*
Y167112D02*Y163912D01*
X74266Y167112D02*X77466D01*
X74266D02*Y163912D01*
X77466D01*
Y167112D02*Y163912D01*
X64266Y157112D02*X67466D01*
X64266D02*Y153912D01*
X67466D01*
Y157112D02*Y153912D01*
X74266Y157112D02*X77466D01*
X74266D02*Y153912D01*
X77466D01*
Y157112D02*Y153912D01*
X64266Y147112D02*X67466D01*
X64266D02*Y143912D01*
X67466D01*
Y147112D02*Y143912D01*
X74266Y147112D02*X77466D01*
X74266D02*Y143912D01*
X77466D01*
Y147112D02*Y143912D01*
X64266Y137112D02*X67466D01*
X64266D02*Y133912D01*
X67466D01*
Y137112D02*Y133912D01*
X74266Y137112D02*X77466D01*
X74266D02*Y133912D01*
X77466D01*
Y137112D02*Y133912D01*
X64266Y127112D02*X67466D01*
X64266D02*Y123912D01*
X67466D01*
Y127112D02*Y123912D01*
X74266Y127112D02*X77466D01*
X74266D02*Y123912D01*
X77466D01*
Y127112D02*Y123912D01*
X64266Y117112D02*X67466D01*
X64266D02*Y113912D01*
X67466D01*
Y117112D02*Y113912D01*
X74266Y117112D02*X77466D01*
X74266D02*Y113912D01*
X77466D01*
Y117112D02*Y113912D01*
X64266Y107112D02*X67466D01*
X64266D02*Y103912D01*
X67466D01*
Y107112D02*Y103912D01*
X74266Y107112D02*X77466D01*
X74266D02*Y103912D01*
X77466D01*
Y107112D02*Y103912D01*
X64266Y97112D02*X67466D01*
X64266D02*Y93912D01*
X67466D01*
Y97112D02*Y93912D01*
X74266Y97112D02*X77466D01*
X74266D02*Y93912D01*
X77466D01*
Y97112D02*Y93912D01*
X64266Y87112D02*X67466D01*
X64266D02*Y83912D01*
X67466D01*
Y87112D02*Y83912D01*
X74266Y87112D02*X77466D01*
X74266D02*Y83912D01*
X77466D01*
Y87112D02*Y83912D01*
X64266Y77112D02*X67466D01*
X64266D02*Y73912D01*
X67466D01*
Y77112D02*Y73912D01*
X74266Y77112D02*X77466D01*
X74266D02*Y73912D01*
X77466D01*
Y77112D02*Y73912D01*
X13400Y525606D02*X16600D01*
X13400D02*Y522406D01*
X16600D01*
Y525606D02*Y522406D01*
X135000Y527756D02*Y527006D01*
X136500Y525506D01*
X138000Y527006D01*
Y527756D02*Y527006D01*
X136500Y525506D02*Y521756D01*
X139800Y524756D02*X142050D01*
X139800Y521756D02*X142800D01*
X139800Y527756D02*Y521756D01*
Y527756D02*X142800D01*
X147600D02*X148350Y527006D01*
X145350Y527756D02*X147600D01*
X144600Y527006D02*X145350Y527756D01*
X144600Y527006D02*Y525506D01*
X145350Y524756D01*
X147600D01*
X148350Y524006D01*
Y522506D01*
X147600Y521756D02*X148350Y522506D01*
X145350Y521756D02*X147600D01*
X144600Y522506D02*X145350Y521756D01*
X98000Y527006D02*X98750Y527756D01*
X100250D01*
X101000Y527006D01*
Y522506D01*
X100250Y521756D02*X101000Y522506D01*
X98750Y521756D02*X100250D01*
X98000Y522506D02*X98750Y521756D01*
Y524756D02*X101000D01*
X105050Y527756D02*X105800Y527006D01*
X103550Y527756D02*X105050D01*
X102800Y527006D02*X103550Y527756D01*
X102800Y527006D02*Y522506D01*
X103550Y521756D01*
X105050Y524756D02*X105800Y524006D01*
X102800Y524756D02*X105050D01*
X103550Y521756D02*X105050D01*
X105800Y522506D01*
Y524006D02*Y522506D01*
X45000D02*X45750Y521756D01*
X45000Y527006D02*Y522506D01*
Y527006D02*X45750Y527756D01*
X47250D01*
X48000Y527006D01*
Y522506D01*
X47250Y521756D02*X48000Y522506D01*
X45750Y521756D02*X47250D01*
X45000Y523256D02*X48000Y526256D01*
X49800Y521756D02*X50550D01*
X52350Y522506D02*X53100Y521756D01*
X52350Y527006D02*Y522506D01*
Y527006D02*X53100Y527756D01*
X54600D01*
X55350Y527006D01*
Y522506D01*
X54600Y521756D02*X55350Y522506D01*
X53100Y521756D02*X54600D01*
X52350Y523256D02*X55350Y526256D01*
X57150Y524756D02*X60150Y527756D01*
X57150Y524756D02*X60900D01*
X60150Y527756D02*Y521756D01*
X64950Y527756D02*X65700Y527006D01*
X63450Y527756D02*X64950D01*
X62700Y527006D02*X63450Y527756D01*
X62700Y527006D02*Y522506D01*
X63450Y521756D01*
X64950Y524756D02*X65700Y524006D01*
X62700Y524756D02*X64950D01*
X63450Y521756D02*X64950D01*
X65700Y522506D01*
Y524006D02*Y522506D01*
X44476Y376378D02*G75*G03X46076Y376378I800J0D01*G01*
G75*G03X44476Y376378I-800J0D01*G01*
Y366378D02*G75*G03X46076Y366378I800J0D01*G01*
G75*G03X44476Y366378I-800J0D01*G01*
Y356378D02*G75*G03X46076Y356378I800J0D01*G01*
G75*G03X44476Y356378I-800J0D01*G01*
Y346378D02*G75*G03X46076Y346378I800J0D01*G01*
G75*G03X44476Y346378I-800J0D01*G01*
Y336378D02*G75*G03X46076Y336378I800J0D01*G01*
G75*G03X44476Y336378I-800J0D01*G01*
Y326378D02*G75*G03X46076Y326378I800J0D01*G01*
G75*G03X44476Y326378I-800J0D01*G01*
Y316378D02*G75*G03X46076Y316378I800J0D01*G01*
G75*G03X44476Y316378I-800J0D01*G01*
Y306378D02*G75*G03X46076Y306378I800J0D01*G01*
G75*G03X44476Y306378I-800J0D01*G01*
Y296378D02*G75*G03X46076Y296378I800J0D01*G01*
G75*G03X44476Y296378I-800J0D01*G01*
Y286378D02*G75*G03X46076Y286378I800J0D01*G01*
G75*G03X44476Y286378I-800J0D01*G01*
Y276378D02*G75*G03X46076Y276378I800J0D01*G01*
G75*G03X44476Y276378I-800J0D01*G01*
Y266378D02*G75*G03X46076Y266378I800J0D01*G01*
G75*G03X44476Y266378I-800J0D01*G01*
Y256378D02*G75*G03X46076Y256378I800J0D01*G01*
G75*G03X44476Y256378I-800J0D01*G01*
Y246378D02*G75*G03X46076Y246378I800J0D01*G01*
G75*G03X44476Y246378I-800J0D01*G01*
Y236378D02*G75*G03X46076Y236378I800J0D01*G01*
G75*G03X44476Y236378I-800J0D01*G01*
Y226378D02*G75*G03X46076Y226378I800J0D01*G01*
G75*G03X44476Y226378I-800J0D01*G01*
Y216378D02*G75*G03X46076Y216378I800J0D01*G01*
G75*G03X44476Y216378I-800J0D01*G01*
Y206378D02*G75*G03X46076Y206378I800J0D01*G01*
G75*G03X44476Y206378I-800J0D01*G01*
Y196378D02*G75*G03X46076Y196378I800J0D01*G01*
G75*G03X44476Y196378I-800J0D01*G01*
Y186378D02*G75*G03X46076Y186378I800J0D01*G01*
G75*G03X44476Y186378I-800J0D01*G01*
Y176378D02*G75*G03X46076Y176378I800J0D01*G01*
G75*G03X44476Y176378I-800J0D01*G01*
Y166378D02*G75*G03X46076Y166378I800J0D01*G01*
G75*G03X44476Y166378I-800J0D01*G01*
Y156378D02*G75*G03X46076Y156378I800J0D01*G01*
G75*G03X44476Y156378I-800J0D01*G01*
Y146378D02*G75*G03X46076Y146378I800J0D01*G01*
G75*G03X44476Y146378I-800J0D01*G01*
Y136378D02*G75*G03X46076Y136378I800J0D01*G01*
G75*G03X44476Y136378I-800J0D01*G01*
Y126378D02*G75*G03X46076Y126378I800J0D01*G01*
G75*G03X44476Y126378I-800J0D01*G01*
Y116378D02*G75*G03X46076Y116378I800J0D01*G01*
G75*G03X44476Y116378I-800J0D01*G01*
Y106378D02*G75*G03X46076Y106378I800J0D01*G01*
G75*G03X44476Y106378I-800J0D01*G01*
Y96378D02*G75*G03X46076Y96378I800J0D01*G01*
G75*G03X44476Y96378I-800J0D01*G01*
Y86378D02*G75*G03X46076Y86378I800J0D01*G01*
G75*G03X44476Y86378I-800J0D01*G01*
Y76378D02*G75*G03X46076Y76378I800J0D01*G01*
G75*G03X44476Y76378I-800J0D01*G01*
X183806Y288386D02*G75*G03X185406Y288386I800J0D01*G01*
G75*G03X183806Y288386I-800J0D01*G01*
X113806D02*G75*G03X115406Y288386I800J0D01*G01*
G75*G03X113806Y288386I-800J0D01*G01*
X14200Y539006D02*G75*G03X15800Y539006I800J0D01*G01*
G75*G03X14200Y539006I-800J0D01*G01*
X135000Y542756D02*Y542006D01*
X136500Y540506D01*
X138000Y542006D01*
Y542756D02*Y542006D01*
X136500Y540506D02*Y536756D01*
X139800Y539756D02*X142050D01*
X139800Y536756D02*X142800D01*
X139800Y542756D02*Y536756D01*
Y542756D02*X142800D01*
X147600D02*X148350Y542006D01*
X145350Y542756D02*X147600D01*
X144600Y542006D02*X145350Y542756D01*
X144600Y542006D02*Y540506D01*
X145350Y539756D01*
X147600D01*
X148350Y539006D01*
Y537506D01*
X147600Y536756D02*X148350Y537506D01*
X145350Y536756D02*X147600D01*
X144600Y537506D02*X145350Y536756D01*
X98000Y542006D02*X98750Y542756D01*
X100250D01*
X101000Y542006D01*
Y537506D01*
X100250Y536756D02*X101000Y537506D01*
X98750Y536756D02*X100250D01*
X98000Y537506D02*X98750Y536756D01*
Y539756D02*X101000D01*
X102800Y542006D02*X103550Y542756D01*
X105050D01*
X105800Y542006D01*
Y537506D01*
X105050Y536756D02*X105800Y537506D01*
X103550Y536756D02*X105050D01*
X102800Y537506D02*X103550Y536756D01*
Y539756D02*X105800D01*
X45000Y537506D02*X45750Y536756D01*
X45000Y542006D02*Y537506D01*
Y542006D02*X45750Y542756D01*
X47250D01*
X48000Y542006D01*
Y537506D01*
X47250Y536756D02*X48000Y537506D01*
X45750Y536756D02*X47250D01*
X45000Y538256D02*X48000Y541256D01*
X49800Y536756D02*X50550D01*
X52350Y537506D02*X53100Y536756D01*
X52350Y542006D02*Y537506D01*
Y542006D02*X53100Y542756D01*
X54600D01*
X55350Y542006D01*
Y537506D01*
X54600Y536756D02*X55350Y537506D01*
X53100Y536756D02*X54600D01*
X52350Y538256D02*X55350Y541256D01*
X57150Y539756D02*X60150Y542756D01*
X57150Y539756D02*X60900D01*
X60150Y542756D02*Y536756D01*
X62700Y542006D02*X63450Y542756D01*
X65700D01*
X66450Y542006D01*
Y540506D01*
X62700Y536756D02*X66450Y540506D01*
X62700Y536756D02*X66450D01*
X69666Y48444D02*X72066Y46044D01*
X69666D02*X72066Y48444D01*
X148406D02*X150806Y46044D01*
X148406D02*X150806Y48444D01*
X69666Y406712D02*X72066Y404312D01*
X69666D02*X72066Y406712D01*
X148406D02*X150806Y404312D01*
X148406D02*X150806Y406712D01*
X59667Y345689D02*X62067Y343289D01*
X59667D02*X62067Y345689D01*
X59667Y360689D02*X62067Y358289D01*
X59667D02*X62067Y360689D01*
X59667Y330689D02*X62067Y328289D01*
X59667D02*X62067Y330689D01*
X79667Y345689D02*X82067Y343289D01*
X79667D02*X82067Y345689D01*
X79667Y360689D02*X82067Y358289D01*
X79667D02*X82067Y360689D01*
X79667Y330689D02*X82067Y328289D01*
X79667D02*X82067Y330689D01*
X138407Y345689D02*X140807Y343289D01*
X138407D02*X140807Y345689D01*
X138407Y360689D02*X140807Y358289D01*
X138407D02*X140807Y360689D01*
X138407Y330689D02*X140807Y328289D01*
X138407D02*X140807Y330689D01*
X158407Y345689D02*X160807Y343289D01*
X158407D02*X160807Y345689D01*
X158407Y360689D02*X160807Y358289D01*
X158407D02*X160807Y360689D01*
X158407Y330689D02*X160807Y328289D01*
X158407D02*X160807Y330689D01*
X123406Y308287D02*X125806Y305887D01*
X123406D02*X125806Y308287D01*
X173406D02*X175806Y305887D01*
X173406D02*X175806Y308287D01*
X13800Y555206D02*X16200Y552806D01*
X13800D02*X16200Y555206D01*
X135000Y557756D02*Y557006D01*
X136500Y555506D01*
X138000Y557006D01*
Y557756D02*Y557006D01*
X136500Y555506D02*Y551756D01*
X139800Y554756D02*X142050D01*
X139800Y551756D02*X142800D01*
X139800Y557756D02*Y551756D01*
Y557756D02*X142800D01*
X147600D02*X148350Y557006D01*
X145350Y557756D02*X147600D01*
X144600Y557006D02*X145350Y557756D01*
X144600Y557006D02*Y555506D01*
X145350Y554756D01*
X147600D01*
X148350Y554006D01*
Y552506D01*
X147600Y551756D02*X148350Y552506D01*
X145350Y551756D02*X147600D01*
X144600Y552506D02*X145350Y551756D01*
X98750D02*X100250D01*
X99500Y557756D02*Y551756D01*
X98000Y556256D02*X99500Y557756D01*
X102050Y552506D02*X102800Y551756D01*
X102050Y554006D02*Y552506D01*
Y554006D02*X102800Y554756D01*
X104300D01*
X105050Y554006D01*
Y552506D01*
X104300Y551756D02*X105050Y552506D01*
X102800Y551756D02*X104300D01*
X102050Y555506D02*X102800Y554756D01*
X102050Y557006D02*Y555506D01*
Y557006D02*X102800Y557756D01*
X104300D01*
X105050Y557006D01*
Y555506D01*
X104300Y554756D02*X105050Y555506D01*
X45000Y552506D02*X45750Y551756D01*
X45000Y557006D02*Y552506D01*
Y557006D02*X45750Y557756D01*
X47250D01*
X48000Y557006D01*
Y552506D01*
X47250Y551756D02*X48000Y552506D01*
X45750Y551756D02*X47250D01*
X45000Y553256D02*X48000Y556256D01*
X49800Y551756D02*X50550D01*
X52350Y552506D02*X53100Y551756D01*
X52350Y557006D02*Y552506D01*
Y557006D02*X53100Y557756D01*
X54600D01*
X55350Y557006D01*
Y552506D01*
X54600Y551756D02*X55350Y552506D01*
X53100Y551756D02*X54600D01*
X52350Y553256D02*X55350Y556256D01*
X57150Y554756D02*X60150Y557756D01*
X57150Y554756D02*X60900D01*
X60150Y557756D02*Y551756D01*
X62700Y552506D02*X63450Y551756D01*
X62700Y557006D02*Y552506D01*
Y557006D02*X63450Y557756D01*
X64950D01*
X65700Y557006D01*
Y552506D01*
X64950Y551756D02*X65700Y552506D01*
X63450Y551756D02*X64950D01*
X62700Y553256D02*X65700Y556256D01*
X127953Y331324D02*Y328124D01*
X126353Y329724D02*X129553D01*
X91535Y372663D02*Y369463D01*
X89935Y371063D02*X93135D01*
X56102Y318529D02*Y315329D01*
X54502Y316929D02*X57702D01*
X15000Y570606D02*Y567406D01*
X13400Y569006D02*X16600D01*
X135000Y572756D02*Y572006D01*
X136500Y570506D01*
X138000Y572006D01*
Y572756D02*Y572006D01*
X136500Y570506D02*Y566756D01*
X139800Y569756D02*X142050D01*
X139800Y566756D02*X142800D01*
X139800Y572756D02*Y566756D01*
Y572756D02*X142800D01*
X147600D02*X148350Y572006D01*
X145350Y572756D02*X147600D01*
X144600Y572006D02*X145350Y572756D01*
X144600Y572006D02*Y570506D01*
X145350Y569756D01*
X147600D01*
X148350Y569006D01*
Y567506D01*
X147600Y566756D02*X148350Y567506D01*
X145350Y566756D02*X147600D01*
X144600Y567506D02*X145350Y566756D01*
X98000Y572006D02*X98750Y572756D01*
X100250D01*
X101000Y572006D01*
Y567506D01*
X100250Y566756D02*X101000Y567506D01*
X98750Y566756D02*X100250D01*
X98000Y567506D02*X98750Y566756D01*
Y569756D02*X101000D01*
X45000Y567506D02*X45750Y566756D01*
X45000Y572006D02*Y567506D01*
Y572006D02*X45750Y572756D01*
X47250D01*
X48000Y572006D01*
Y567506D01*
X47250Y566756D02*X48000Y567506D01*
X45750Y566756D02*X47250D01*
X45000Y568256D02*X48000Y571256D01*
X49800Y566756D02*X50550D01*
X52350Y567506D02*X53100Y566756D01*
X52350Y572006D02*Y567506D01*
Y572006D02*X53100Y572756D01*
X54600D01*
X55350Y572006D01*
Y567506D01*
X54600Y566756D02*X55350Y567506D01*
X53100Y566756D02*X54600D01*
X52350Y568256D02*X55350Y571256D01*
X57150Y572006D02*X57900Y572756D01*
X59400D01*
X60150Y572006D01*
Y567506D01*
X59400Y566756D02*X60150Y567506D01*
X57900Y566756D02*X59400D01*
X57150Y567506D02*X57900Y566756D01*
Y569756D02*X60150D01*
X61950Y572756D02*X64950D01*
X61950D02*Y569756D01*
X62700Y570506D01*
X64200D01*
X64950Y569756D01*
Y567506D01*
X64200Y566756D02*X64950Y567506D01*
X62700Y566756D02*X64200D01*
X61950Y567506D02*X62700Y566756D01*
X104331Y125827D02*Y124227D01*
Y125827D02*X105717Y126627D01*
X104331Y125827D02*X102944Y126627D01*
X104331Y145827D02*Y144227D01*
Y145827D02*X105717Y146627D01*
X104331Y145827D02*X102944Y146627D01*
X15000Y584006D02*Y582406D01*
Y584006D02*X16387Y584806D01*
X15000Y584006D02*X13613Y584806D01*
X135000Y587756D02*Y587006D01*
X136500Y585506D01*
X138000Y587006D01*
Y587756D02*Y587006D01*
X136500Y585506D02*Y581756D01*
X139800Y584756D02*X142050D01*
X139800Y581756D02*X142800D01*
X139800Y587756D02*Y581756D01*
Y587756D02*X142800D01*
X147600D02*X148350Y587006D01*
X145350Y587756D02*X147600D01*
X144600Y587006D02*X145350Y587756D01*
X144600Y587006D02*Y585506D01*
X145350Y584756D01*
X147600D01*
X148350Y584006D01*
Y582506D01*
X147600Y581756D02*X148350Y582506D01*
X145350Y581756D02*X147600D01*
X144600Y582506D02*X145350Y581756D01*
X98000Y587006D02*X98750Y587756D01*
X101000D01*
X101750Y587006D01*
Y585506D01*
X98000Y581756D02*X101750Y585506D01*
X98000Y581756D02*X101750D01*
X45000Y582506D02*X45750Y581756D01*
X45000Y587006D02*Y582506D01*
Y587006D02*X45750Y587756D01*
X47250D01*
X48000Y587006D01*
Y582506D01*
X47250Y581756D02*X48000Y582506D01*
X45750Y581756D02*X47250D01*
X45000Y583256D02*X48000Y586256D01*
X49800Y581756D02*X50550D01*
X52350Y582506D02*X53100Y581756D01*
X52350Y587006D02*Y582506D01*
Y587006D02*X53100Y587756D01*
X54600D01*
X55350Y587006D01*
Y582506D01*
X54600Y581756D02*X55350Y582506D01*
X53100Y581756D02*X54600D01*
X52350Y583256D02*X55350Y586256D01*
X57150Y587006D02*X57900Y587756D01*
X60150D01*
X60900Y587006D01*
Y585506D01*
X57150Y581756D02*X60900Y585506D01*
X57150Y581756D02*X60900D01*
X62700Y582506D02*X63450Y581756D01*
X62700Y587006D02*Y582506D01*
Y587006D02*X63450Y587756D01*
X64950D01*
X65700Y587006D01*
Y582506D01*
X64950Y581756D02*X65700Y582506D01*
X63450Y581756D02*X64950D01*
X62700Y583256D02*X65700Y586256D01*
X3000Y602756D02*X3750Y602006D01*
X750Y602756D02*X3000D01*
X0Y602006D02*X750Y602756D01*
X0Y602006D02*Y600506D01*
X750Y599756D01*
X3000D01*
X3750Y599006D01*
Y597506D01*
X3000Y596756D02*X3750Y597506D01*
X750Y596756D02*X3000D01*
X0Y597506D02*X750Y596756D01*
X5550Y599756D02*Y597506D01*
X6300Y596756D01*
X8550Y599756D02*Y595256D01*
X7800Y594506D02*X8550Y595256D01*
X6300Y594506D02*X7800D01*
X5550Y595256D02*X6300Y594506D01*
Y596756D02*X7800D01*
X8550Y597506D01*
X11100Y599006D02*Y596756D01*
Y599006D02*X11850Y599756D01*
X12600D01*
X13350Y599006D01*
Y596756D01*
Y599006D02*X14100Y599756D01*
X14850D01*
X15600Y599006D01*
Y596756D01*
X10350Y599756D02*X11100Y599006D01*
X17400Y602756D02*Y596756D01*
Y597506D02*X18150Y596756D01*
X19650D01*
X20400Y597506D01*
Y599006D02*Y597506D01*
X19650Y599756D02*X20400Y599006D01*
X18150Y599756D02*X19650D01*
X17400Y599006D02*X18150Y599756D01*
X22200Y599006D02*Y597506D01*
Y599006D02*X22950Y599756D01*
X24450D01*
X25200Y599006D01*
Y597506D01*
X24450Y596756D02*X25200Y597506D01*
X22950Y596756D02*X24450D01*
X22200Y597506D02*X22950Y596756D01*
X27000Y602756D02*Y597506D01*
X27750Y596756D01*
X0Y593506D02*X29250D01*
X41750Y602756D02*Y596756D01*
X44000Y602756D02*X44750Y602006D01*
Y597506D01*
X44000Y596756D02*X44750Y597506D01*
X41000Y596756D02*X44000D01*
X41000Y602756D02*X44000D01*
X46550Y601256D02*Y600506D01*
Y599006D02*Y596756D01*
X50300Y599756D02*X51050Y599006D01*
X48800Y599756D02*X50300D01*
X48050Y599006D02*X48800Y599756D01*
X48050Y599006D02*Y597506D01*
X48800Y596756D01*
X51050Y599756D02*Y597506D01*
X51800Y596756D01*
X48800D02*X50300D01*
X51050Y597506D01*
X54350Y599006D02*Y596756D01*
Y599006D02*X55100Y599756D01*
X55850D01*
X56600Y599006D01*
Y596756D01*
Y599006D02*X57350Y599756D01*
X58100D01*
X58850Y599006D01*
Y596756D01*
X53600Y599756D02*X54350Y599006D01*
X60650Y596756D02*X61400D01*
X65900Y597506D02*X66650Y596756D01*
X65900Y602006D02*X66650Y602756D01*
X65900Y602006D02*Y597506D01*
X68450Y602756D02*X69950D01*
X69200D02*Y596756D01*
X68450D02*X69950D01*
X72500Y599006D02*Y596756D01*
Y599006D02*X73250Y599756D01*
X74000D01*
X74750Y599006D01*
Y596756D01*
X71750Y599756D02*X72500Y599006D01*
X77300Y599756D02*X79550D01*
X76550Y599006D02*X77300Y599756D01*
X76550Y599006D02*Y597506D01*
X77300Y596756D01*
X79550D01*
X81350Y602756D02*Y596756D01*
Y599006D02*X82100Y599756D01*
X83600D01*
X84350Y599006D01*
Y596756D01*
X86150Y602756D02*X86900Y602006D01*
Y597506D01*
X86150Y596756D02*X86900Y597506D01*
X41000Y593506D02*X88700D01*
X95750Y596756D02*X98000D01*
X95000Y597506D02*X95750Y596756D01*
X95000Y602006D02*Y597506D01*
Y602006D02*X95750Y602756D01*
X98000D01*
X99800Y599006D02*Y597506D01*
Y599006D02*X100550Y599756D01*
X102050D01*
X102800Y599006D01*
Y597506D01*
X102050Y596756D02*X102800Y597506D01*
X100550Y596756D02*X102050D01*
X99800Y597506D02*X100550Y596756D01*
X104600Y599756D02*Y597506D01*
X105350Y596756D01*
X106850D01*
X107600Y597506D01*
Y599756D02*Y597506D01*
X110150Y599006D02*Y596756D01*
Y599006D02*X110900Y599756D01*
X111650D01*
X112400Y599006D01*
Y596756D01*
X109400Y599756D02*X110150Y599006D01*
X114950Y602756D02*Y597506D01*
X115700Y596756D01*
X114200Y600506D02*X115700D01*
X95000Y593506D02*X117200D01*
X130750Y602756D02*Y596756D01*
X130000Y602756D02*X133000D01*
X133750Y602006D01*
Y600506D01*
X133000Y599756D02*X133750Y600506D01*
X130750Y599756D02*X133000D01*
X135550Y602756D02*Y597506D01*
X136300Y596756D01*
X140050Y599756D02*X140800Y599006D01*
X138550Y599756D02*X140050D01*
X137800Y599006D02*X138550Y599756D01*
X137800Y599006D02*Y597506D01*
X138550Y596756D01*
X140800Y599756D02*Y597506D01*
X141550Y596756D01*
X138550D02*X140050D01*
X140800Y597506D01*
X144100Y602756D02*Y597506D01*
X144850Y596756D01*
X143350Y600506D02*X144850D01*
X147100Y596756D02*X149350D01*
X146350Y597506D02*X147100Y596756D01*
X146350Y599006D02*Y597506D01*
Y599006D02*X147100Y599756D01*
X148600D01*
X149350Y599006D01*
X146350Y598256D02*X149350D01*
Y599006D02*Y598256D01*
X154150Y602756D02*Y596756D01*
X153400D02*X154150Y597506D01*
X151900Y596756D02*X153400D01*
X151150Y597506D02*X151900Y596756D01*
X151150Y599006D02*Y597506D01*
Y599006D02*X151900Y599756D01*
X153400D01*
X154150Y599006D01*
X157450Y599756D02*Y599006D01*
Y597506D02*Y596756D01*
X155950Y602006D02*Y601256D01*
Y602006D02*X156700Y602756D01*
X158200D01*
X158950Y602006D01*
Y601256D01*
X157450Y599756D02*X158950Y601256D01*
X130000Y593506D02*X160750D01*
X0Y617756D02*X3000D01*
X1500D02*Y611756D01*
X4800Y617756D02*Y611756D01*
Y614006D02*X5550Y614756D01*
X7050D01*
X7800Y614006D01*
Y611756D01*
X10350D02*X12600D01*
X9600Y612506D02*X10350Y611756D01*
X9600Y614006D02*Y612506D01*
Y614006D02*X10350Y614756D01*
X11850D01*
X12600Y614006D01*
X9600Y613256D02*X12600D01*
Y614006D02*Y613256D01*
X15150Y614006D02*Y611756D01*
Y614006D02*X15900Y614756D01*
X17400D01*
X14400D02*X15150Y614006D01*
X19950Y611756D02*X22200D01*
X19200Y612506D02*X19950Y611756D01*
X19200Y614006D02*Y612506D01*
Y614006D02*X19950Y614756D01*
X21450D01*
X22200Y614006D01*
X19200Y613256D02*X22200D01*
Y614006D02*Y613256D01*
X28950Y614756D02*X29700Y614006D01*
X27450Y614756D02*X28950D01*
X26700Y614006D02*X27450Y614756D01*
X26700Y614006D02*Y612506D01*
X27450Y611756D01*
X29700Y614756D02*Y612506D01*
X30450Y611756D01*
X27450D02*X28950D01*
X29700Y612506D01*
X33000Y614006D02*Y611756D01*
Y614006D02*X33750Y614756D01*
X35250D01*
X32250D02*X33000Y614006D01*
X37800Y611756D02*X40050D01*
X37050Y612506D02*X37800Y611756D01*
X37050Y614006D02*Y612506D01*
Y614006D02*X37800Y614756D01*
X39300D01*
X40050Y614006D01*
X37050Y613256D02*X40050D01*
Y614006D02*Y613256D01*
X44550Y611756D02*X47550Y614756D01*
Y617006D02*Y614756D01*
X46800Y617756D02*X47550Y617006D01*
X45300Y617756D02*X46800D01*
X44550Y617006D02*X45300Y617756D01*
X44550Y617006D02*Y615506D01*
X45300Y614756D01*
X47550D01*
X55050Y617756D02*Y611756D01*
X54300D02*X55050Y612506D01*
X52800Y611756D02*X54300D01*
X52050Y612506D02*X52800Y611756D01*
X52050Y614006D02*Y612506D01*
Y614006D02*X52800Y614756D01*
X54300D01*
X55050Y614006D01*
X56850Y616256D02*Y615506D01*
Y614006D02*Y611756D01*
X59100Y617006D02*Y611756D01*
Y617006D02*X59850Y617756D01*
X60600D01*
X58350Y614756D02*X59850D01*
X62850Y617006D02*Y611756D01*
Y617006D02*X63600Y617756D01*
X64350D01*
X62100Y614756D02*X63600D01*
X66600Y611756D02*X68850D01*
X65850Y612506D02*X66600Y611756D01*
X65850Y614006D02*Y612506D01*
Y614006D02*X66600Y614756D01*
X68100D01*
X68850Y614006D01*
X65850Y613256D02*X68850D01*
Y614006D02*Y613256D01*
X71400Y614006D02*Y611756D01*
Y614006D02*X72150Y614756D01*
X73650D01*
X70650D02*X71400Y614006D01*
X76200Y611756D02*X78450D01*
X75450Y612506D02*X76200Y611756D01*
X75450Y614006D02*Y612506D01*
Y614006D02*X76200Y614756D01*
X77700D01*
X78450Y614006D01*
X75450Y613256D02*X78450D01*
Y614006D02*Y613256D01*
X81000Y614006D02*Y611756D01*
Y614006D02*X81750Y614756D01*
X82500D01*
X83250Y614006D01*
Y611756D01*
X80250Y614756D02*X81000Y614006D01*
X85800Y617756D02*Y612506D01*
X86550Y611756D01*
X85050Y615506D02*X86550D01*
X93750Y617756D02*Y611756D01*
X93000D02*X93750Y612506D01*
X91500Y611756D02*X93000D01*
X90750Y612506D02*X91500Y611756D01*
X90750Y614006D02*Y612506D01*
Y614006D02*X91500Y614756D01*
X93000D01*
X93750Y614006D01*
X96300D02*Y611756D01*
Y614006D02*X97050Y614756D01*
X98550D01*
X95550D02*X96300Y614006D01*
X100350Y616256D02*Y615506D01*
Y614006D02*Y611756D01*
X101850Y617756D02*Y612506D01*
X102600Y611756D01*
X104100Y617756D02*Y612506D01*
X104850Y611756D01*
X109800D02*X112050D01*
X112800Y612506D01*
X112050Y613256D02*X112800Y612506D01*
X109800Y613256D02*X112050D01*
X109050Y614006D02*X109800Y613256D01*
X109050Y614006D02*X109800Y614756D01*
X112050D01*
X112800Y614006D01*
X109050Y612506D02*X109800Y611756D01*
X114600Y616256D02*Y615506D01*
Y614006D02*Y611756D01*
X116100Y614756D02*X119100D01*
X116100Y611756D02*X119100Y614756D01*
X116100Y611756D02*X119100D01*
X121650D02*X123900D01*
X120900Y612506D02*X121650Y611756D01*
X120900Y614006D02*Y612506D01*
Y614006D02*X121650Y614756D01*
X123150D01*
X123900Y614006D01*
X120900Y613256D02*X123900D01*
Y614006D02*Y613256D01*
X126450Y611756D02*X128700D01*
X129450Y612506D01*
X128700Y613256D02*X129450Y612506D01*
X126450Y613256D02*X128700D01*
X125700Y614006D02*X126450Y613256D01*
X125700Y614006D02*X126450Y614756D01*
X128700D01*
X129450Y614006D01*
X125700Y612506D02*X126450Y611756D01*
X133950Y614756D02*Y612506D01*
X134700Y611756D01*
X136200D01*
X136950Y612506D01*
Y614756D02*Y612506D01*
X139500Y611756D02*X141750D01*
X142500Y612506D01*
X141750Y613256D02*X142500Y612506D01*
X139500Y613256D02*X141750D01*
X138750Y614006D02*X139500Y613256D01*
X138750Y614006D02*X139500Y614756D01*
X141750D01*
X142500Y614006D01*
X138750Y612506D02*X139500Y611756D01*
X145050D02*X147300D01*
X144300Y612506D02*X145050Y611756D01*
X144300Y614006D02*Y612506D01*
Y614006D02*X145050Y614756D01*
X146550D01*
X147300Y614006D01*
X144300Y613256D02*X147300D01*
Y614006D02*Y613256D01*
X152100Y617756D02*Y611756D01*
X151350D02*X152100Y612506D01*
X149850Y611756D02*X151350D01*
X149100Y612506D02*X149850Y611756D01*
X149100Y614006D02*Y612506D01*
Y614006D02*X149850Y614756D01*
X151350D01*
X152100Y614006D01*
X156600Y616256D02*Y615506D01*
Y614006D02*Y611756D01*
X158850Y614006D02*Y611756D01*
Y614006D02*X159600Y614756D01*
X160350D01*
X161100Y614006D01*
Y611756D01*
X158100Y614756D02*X158850Y614006D01*
X166350Y617756D02*Y612506D01*
X167100Y611756D01*
X165600Y615506D02*X167100D01*
X168600Y617756D02*Y611756D01*
Y614006D02*X169350Y614756D01*
X170850D01*
X171600Y614006D01*
Y611756D01*
X173400Y616256D02*Y615506D01*
Y614006D02*Y611756D01*
X175650D02*X177900D01*
X178650Y612506D01*
X177900Y613256D02*X178650Y612506D01*
X175650Y613256D02*X177900D01*
X174900Y614006D02*X175650Y613256D01*
X174900Y614006D02*X175650Y614756D01*
X177900D01*
X178650Y614006D01*
X174900Y612506D02*X175650Y611756D01*
X183150Y617756D02*Y612506D01*
X183900Y611756D01*
X187650Y614756D02*X188400Y614006D01*
X186150Y614756D02*X187650D01*
X185400Y614006D02*X186150Y614756D01*
X185400Y614006D02*Y612506D01*
X186150Y611756D01*
X188400Y614756D02*Y612506D01*
X189150Y611756D01*
X186150D02*X187650D01*
X188400Y612506D01*
X190950Y614756D02*Y612506D01*
X191700Y611756D01*
X193950Y614756D02*Y610256D01*
X193200Y609506D02*X193950Y610256D01*
X191700Y609506D02*X193200D01*
X190950Y610256D02*X191700Y609506D01*
Y611756D02*X193200D01*
X193950Y612506D01*
X195750Y614006D02*Y612506D01*
Y614006D02*X196500Y614756D01*
X198000D01*
X198750Y614006D01*
Y612506D01*
X198000Y611756D02*X198750Y612506D01*
X196500Y611756D02*X198000D01*
X195750Y612506D02*X196500Y611756D01*
X200550Y614756D02*Y612506D01*
X201300Y611756D01*
X202800D01*
X203550Y612506D01*
Y614756D02*Y612506D01*
X206100Y617756D02*Y612506D01*
X206850Y611756D01*
X205350Y615506D02*X206850D01*
X208350Y610256D02*X209850Y611756D01*
X215100D02*X216600D01*
X215850Y617756D02*Y611756D01*
X214350Y616256D02*X215850Y617756D01*
X218400Y612506D02*X219150Y611756D01*
X218400Y617006D02*Y612506D01*
Y617006D02*X219150Y617756D01*
X220650D01*
X221400Y617006D01*
Y612506D01*
X220650Y611756D02*X221400Y612506D01*
X219150Y611756D02*X220650D01*
X218400Y613256D02*X221400Y616256D01*
X223950Y611756D02*X225450D01*
X224700Y617756D02*Y611756D01*
X223200Y616256D02*X224700Y617756D01*
X229950D02*Y611756D01*
Y614006D02*X230700Y614756D01*
X232200D01*
X232950Y614006D01*
Y611756D01*
X234750Y614006D02*Y612506D01*
Y614006D02*X235500Y614756D01*
X237000D01*
X237750Y614006D01*
Y612506D01*
X237000Y611756D02*X237750Y612506D01*
X235500Y611756D02*X237000D01*
X234750Y612506D02*X235500Y611756D01*
X239550Y617756D02*Y612506D01*
X240300Y611756D01*
X242550D02*X244800D01*
X241800Y612506D02*X242550Y611756D01*
X241800Y614006D02*Y612506D01*
Y614006D02*X242550Y614756D01*
X244050D01*
X244800Y614006D01*
X241800Y613256D02*X244800D01*
Y614006D02*Y613256D01*
X247350Y611756D02*X249600D01*
X250350Y612506D01*
X249600Y613256D02*X250350Y612506D01*
X247350Y613256D02*X249600D01*
X246600Y614006D02*X247350Y613256D01*
X246600Y614006D02*X247350Y614756D01*
X249600D01*
X250350Y614006D01*
X246600Y612506D02*X247350Y611756D01*
X255600Y617756D02*Y612506D01*
X256350Y611756D01*
X254850Y615506D02*X256350D01*
X257850Y614006D02*Y612506D01*
Y614006D02*X258600Y614756D01*
X260100D01*
X260850Y614006D01*
Y612506D01*
X260100Y611756D02*X260850Y612506D01*
X258600Y611756D02*X260100D01*
X257850Y612506D02*X258600Y611756D01*
X263400Y617756D02*Y612506D01*
X264150Y611756D01*
X262650Y615506D02*X264150D01*
X267900Y614756D02*X268650Y614006D01*
X266400Y614756D02*X267900D01*
X265650Y614006D02*X266400Y614756D01*
X265650Y614006D02*Y612506D01*
X266400Y611756D01*
X268650Y614756D02*Y612506D01*
X269400Y611756D01*
X266400D02*X267900D01*
X268650Y612506D01*
X271200Y617756D02*Y612506D01*
X271950Y611756D01*
G54D109*X39371Y413386D02*X204725D01*
X39371Y39370D02*Y413386D01*
X204725Y39370D02*X39371D01*
X204725Y413386D02*Y39371D01*
G54D108*X35722Y-8000D02*X38722D01*
X39472Y-7250D01*
Y-5750D02*Y-7250D01*
X38722Y-5000D02*X39472Y-5750D01*
X36472Y-5000D02*X38722D01*
X36472Y-2000D02*Y-8000D01*
X35722Y-2000D02*X38722D01*
X39472Y-2750D01*
Y-4250D01*
X38722Y-5000D02*X39472Y-4250D01*
X41272Y-5750D02*Y-7250D01*
Y-5750D02*X42022Y-5000D01*
X43522D01*
X44272Y-5750D01*
Y-7250D01*
X43522Y-8000D02*X44272Y-7250D01*
X42022Y-8000D02*X43522D01*
X41272Y-7250D02*X42022Y-8000D01*
X48322Y-5000D02*X49072Y-5750D01*
X46822Y-5000D02*X48322D01*
X46072Y-5750D02*X46822Y-5000D01*
X46072Y-5750D02*Y-7250D01*
X46822Y-8000D01*
X49072Y-5000D02*Y-7250D01*
X49822Y-8000D01*
X46822D02*X48322D01*
X49072Y-7250D01*
X52372Y-5750D02*Y-8000D01*
Y-5750D02*X53122Y-5000D01*
X54622D01*
X51622D02*X52372Y-5750D01*
X59422Y-2000D02*Y-8000D01*
X58672D02*X59422Y-7250D01*
X57172Y-8000D02*X58672D01*
X56422Y-7250D02*X57172Y-8000D01*
X56422Y-5750D02*Y-7250D01*
Y-5750D02*X57172Y-5000D01*
X58672D01*
X59422Y-5750D01*
X63922D02*Y-7250D01*
Y-5750D02*X64672Y-5000D01*
X66172D01*
X66922Y-5750D01*
Y-7250D01*
X66172Y-8000D02*X66922Y-7250D01*
X64672Y-8000D02*X66172D01*
X63922Y-7250D02*X64672Y-8000D01*
X68722Y-5000D02*Y-7250D01*
X69472Y-8000D01*
X70972D01*
X71722Y-7250D01*
Y-5000D02*Y-7250D01*
X74272Y-2000D02*Y-7250D01*
X75022Y-8000D01*
X73522Y-4250D02*X75022D01*
X76522Y-2000D02*Y-7250D01*
X77272Y-8000D01*
X78772Y-3500D02*Y-4250D01*
Y-5750D02*Y-8000D01*
X81022Y-5750D02*Y-8000D01*
Y-5750D02*X81772Y-5000D01*
X82522D01*
X83272Y-5750D01*
Y-8000D01*
X80272Y-5000D02*X81022Y-5750D01*
X85822Y-8000D02*X88072D01*
X85072Y-7250D02*X85822Y-8000D01*
X85072Y-5750D02*Y-7250D01*
Y-5750D02*X85822Y-5000D01*
X87322D01*
X88072Y-5750D01*
X85072Y-6500D02*X88072D01*
Y-5750D02*Y-6500D01*
X92572Y-3500D02*Y-4250D01*
Y-5750D02*Y-8000D01*
X94822D02*X97072D01*
X97822Y-7250D01*
X97072Y-6500D02*X97822Y-7250D01*
X94822Y-6500D02*X97072D01*
X94072Y-5750D02*X94822Y-6500D01*
X94072Y-5750D02*X94822Y-5000D01*
X97072D01*
X97822Y-5750D01*
X94072Y-7250D02*X94822Y-8000D01*
X103072Y-2000D02*Y-7250D01*
X103822Y-8000D01*
X102322Y-4250D02*X103822D01*
X105322Y-2000D02*Y-8000D01*
Y-5750D02*X106072Y-5000D01*
X107572D01*
X108322Y-5750D01*
Y-8000D01*
X110872D02*X113122D01*
X110122Y-7250D02*X110872Y-8000D01*
X110122Y-5750D02*Y-7250D01*
Y-5750D02*X110872Y-5000D01*
X112372D01*
X113122Y-5750D01*
X110122Y-6500D02*X113122D01*
Y-5750D02*Y-6500D01*
X118372Y-5000D02*X120622D01*
X117622Y-5750D02*X118372Y-5000D01*
X117622Y-5750D02*Y-7250D01*
X118372Y-8000D01*
X120622D01*
X123172D02*X125422D01*
X122422Y-7250D02*X123172Y-8000D01*
X122422Y-5750D02*Y-7250D01*
Y-5750D02*X123172Y-5000D01*
X124672D01*
X125422Y-5750D01*
X122422Y-6500D02*X125422D01*
Y-5750D02*Y-6500D01*
X127972Y-5750D02*Y-8000D01*
Y-5750D02*X128722Y-5000D01*
X129472D01*
X130222Y-5750D01*
Y-8000D01*
X127222Y-5000D02*X127972Y-5750D01*
X132772Y-2000D02*Y-7250D01*
X133522Y-8000D01*
X132022Y-4250D02*X133522D01*
X135772Y-8000D02*X138022D01*
X135022Y-7250D02*X135772Y-8000D01*
X135022Y-5750D02*Y-7250D01*
Y-5750D02*X135772Y-5000D01*
X137272D01*
X138022Y-5750D01*
X135022Y-6500D02*X138022D01*
Y-5750D02*Y-6500D01*
X140572Y-5750D02*Y-8000D01*
Y-5750D02*X141322Y-5000D01*
X142822D01*
X139822D02*X140572Y-5750D01*
X144622Y-2000D02*Y-7250D01*
X145372Y-8000D01*
X146872Y-3500D02*Y-4250D01*
Y-5750D02*Y-8000D01*
X149122Y-5750D02*Y-8000D01*
Y-5750D02*X149872Y-5000D01*
X150622D01*
X151372Y-5750D01*
Y-8000D01*
X148372Y-5000D02*X149122Y-5750D01*
X153922Y-8000D02*X156172D01*
X153172Y-7250D02*X153922Y-8000D01*
X153172Y-5750D02*Y-7250D01*
Y-5750D02*X153922Y-5000D01*
X155422D01*
X156172Y-5750D01*
X153172Y-6500D02*X156172D01*
Y-5750D02*Y-6500D01*
X160672Y-5750D02*Y-7250D01*
Y-5750D02*X161422Y-5000D01*
X162922D01*
X163672Y-5750D01*
Y-7250D01*
X162922Y-8000D02*X163672Y-7250D01*
X161422Y-8000D02*X162922D01*
X160672Y-7250D02*X161422Y-8000D01*
X166222Y-2750D02*Y-8000D01*
Y-2750D02*X166972Y-2000D01*
X167722D01*
X165472Y-5000D02*X166972D01*
X172672Y-2000D02*Y-7250D01*
X173422Y-8000D01*
X171922Y-4250D02*X173422D01*
X174922Y-2000D02*Y-8000D01*
Y-5750D02*X175672Y-5000D01*
X177172D01*
X177922Y-5750D01*
Y-8000D01*
X179722Y-3500D02*Y-4250D01*
Y-5750D02*Y-8000D01*
X181972D02*X184222D01*
X184972Y-7250D01*
X184222Y-6500D02*X184972Y-7250D01*
X181972Y-6500D02*X184222D01*
X181222Y-5750D02*X181972Y-6500D01*
X181222Y-5750D02*X181972Y-5000D01*
X184222D01*
X184972Y-5750D01*
X181222Y-7250D02*X181972Y-8000D01*
X190222Y-5750D02*Y-10250D01*
X189472Y-5000D02*X190222Y-5750D01*
X190972Y-5000D01*
X192472D01*
X193222Y-5750D01*
Y-7250D01*
X192472Y-8000D02*X193222Y-7250D01*
X190972Y-8000D02*X192472D01*
X190222Y-7250D02*X190972Y-8000D01*
X197272Y-5000D02*X198022Y-5750D01*
X195772Y-5000D02*X197272D01*
X195022Y-5750D02*X195772Y-5000D01*
X195022Y-5750D02*Y-7250D01*
X195772Y-8000D01*
X198022Y-5000D02*Y-7250D01*
X198772Y-8000D01*
X195772D02*X197272D01*
X198022Y-7250D01*
X201322Y-2000D02*Y-7250D01*
X202072Y-8000D01*
X200572Y-4250D02*X202072D01*
X203572Y-2000D02*Y-8000D01*
Y-5750D02*X204322Y-5000D01*
X205822D01*
X206572Y-5750D01*
Y-8000D01*
X200750Y482756D02*Y476756D01*
X203000Y482756D02*X203750Y482006D01*
Y477506D01*
X203000Y476756D02*X203750Y477506D01*
X200000Y476756D02*X203000D01*
X200000Y482756D02*X203000D01*
X207800Y479756D02*X208550Y479006D01*
X206300Y479756D02*X207800D01*
X205550Y479006D02*X206300Y479756D01*
X205550Y479006D02*Y477506D01*
X206300Y476756D01*
X208550Y479756D02*Y477506D01*
X209300Y476756D01*
X206300D02*X207800D01*
X208550Y477506D01*
X211850Y482756D02*Y477506D01*
X212600Y476756D01*
X211100Y480506D02*X212600D01*
X214850Y476756D02*X217100D01*
X214100Y477506D02*X214850Y476756D01*
X214100Y479006D02*Y477506D01*
Y479006D02*X214850Y479756D01*
X216350D01*
X217100Y479006D01*
X214100Y478256D02*X217100D01*
Y479006D02*Y478256D01*
X218900Y480506D02*X219650D01*
X218900Y479006D02*X219650D01*
X224150Y482756D02*Y476756D01*
Y482756D02*X227150D01*
X224150Y479756D02*X226400D01*
X229700Y479006D02*Y476756D01*
Y479006D02*X230450Y479756D01*
X231950D01*
X228950D02*X229700Y479006D01*
X233750Y481256D02*Y480506D01*
Y479006D02*Y476756D01*
X237950Y482006D02*Y476756D01*
Y482006D02*X238700Y482756D01*
X240950D01*
X241700Y482006D01*
Y476756D01*
X237950Y479756D02*X241700D01*
X243500D02*Y477506D01*
X244250Y476756D01*
X245750D01*
X246500Y477506D01*
Y479756D02*Y477506D01*
X250550Y479756D02*X251300Y479006D01*
X249050Y479756D02*X250550D01*
X248300Y479006D02*X249050Y479756D01*
X248300Y479006D02*Y477506D01*
X249050Y476756D01*
X250550D01*
X251300Y477506D01*
X248300Y475256D02*X249050Y474506D01*
X250550D01*
X251300Y475256D01*
Y479756D02*Y475256D01*
X256550Y476756D02*X258050D01*
X257300Y482756D02*Y476756D01*
X255800Y481256D02*X257300Y482756D01*
X259850Y477506D02*X260600Y476756D01*
X259850Y482006D02*Y477506D01*
Y482006D02*X260600Y482756D01*
X262100D01*
X262850Y482006D01*
Y477506D01*
X262100Y476756D02*X262850Y477506D01*
X260600Y476756D02*X262100D01*
X259850Y478256D02*X262850Y481256D01*
X267350Y482006D02*X268100Y482756D01*
X270350D01*
X271100Y482006D01*
Y480506D01*
X267350Y476756D02*X271100Y480506D01*
X267350Y476756D02*X271100D01*
X272900Y477506D02*X273650Y476756D01*
X272900Y482006D02*Y477506D01*
Y482006D02*X273650Y482756D01*
X275150D01*
X275900Y482006D01*
Y477506D01*
X275150Y476756D02*X275900Y477506D01*
X273650Y476756D02*X275150D01*
X272900Y478256D02*X275900Y481256D01*
X277700Y480506D02*X278450D01*
X277700Y479006D02*X278450D01*
X280250Y477506D02*X281000Y476756D01*
X280250Y482006D02*Y477506D01*
Y482006D02*X281000Y482756D01*
X282500D01*
X283250Y482006D01*
Y477506D01*
X282500Y476756D02*X283250Y477506D01*
X281000Y476756D02*X282500D01*
X280250Y478256D02*X283250Y481256D01*
X287300Y482756D02*X288050Y482006D01*
X285800Y482756D02*X287300D01*
X285050Y482006D02*X285800Y482756D01*
X285050Y482006D02*Y477506D01*
X285800Y476756D01*
X287300Y479756D02*X288050Y479006D01*
X285050Y479756D02*X287300D01*
X285800Y476756D02*X287300D01*
X288050Y477506D01*
Y479006D02*Y477506D01*
X289850Y480506D02*X290600D01*
X289850Y479006D02*X290600D01*
X292400Y482006D02*X293150Y482756D01*
X295400D01*
X296150Y482006D01*
Y480506D01*
X292400Y476756D02*X296150Y480506D01*
X292400Y476756D02*X296150D01*
X297950Y482006D02*X298700Y482756D01*
X300950D01*
X301700Y482006D01*
Y480506D01*
X297950Y476756D02*X301700Y480506D01*
X297950Y476756D02*X301700D01*
X306200Y482006D02*X306950Y482756D01*
X309200D01*
X309950Y482006D01*
Y480506D01*
X306200Y476756D02*X309950Y480506D01*
X306200Y476756D02*X309950D01*
X311750Y477506D02*X312500Y476756D01*
X311750Y482006D02*Y477506D01*
Y482006D02*X312500Y482756D01*
X314000D01*
X314750Y482006D01*
Y477506D01*
X314000Y476756D02*X314750Y477506D01*
X312500Y476756D02*X314000D01*
X311750Y478256D02*X314750Y481256D01*
X317300Y476756D02*X318800D01*
X318050Y482756D02*Y476756D01*
X316550Y481256D02*X318050Y482756D01*
X320600Y477506D02*X321350Y476756D01*
X320600Y479006D02*Y477506D01*
Y479006D02*X321350Y479756D01*
X322850D01*
X323600Y479006D01*
Y477506D01*
X322850Y476756D02*X323600Y477506D01*
X321350Y476756D02*X322850D01*
X320600Y480506D02*X321350Y479756D01*
X320600Y482006D02*Y480506D01*
Y482006D02*X321350Y482756D01*
X322850D01*
X323600Y482006D01*
Y480506D01*
X322850Y479756D02*X323600Y480506D01*
X328100Y482756D02*Y477506D01*
X328850Y476756D01*
X330350D01*
X331100Y477506D01*
Y482756D02*Y477506D01*
X332900Y482756D02*X335900D01*
X334400D02*Y476756D01*
X338450D02*X340700D01*
X337700Y477506D02*X338450Y476756D01*
X337700Y482006D02*Y477506D01*
Y482006D02*X338450Y482756D01*
X340700D01*
X200000Y497006D02*Y491756D01*
Y497006D02*X200750Y497756D01*
X203000D01*
X203750Y497006D01*
Y491756D01*
X200000Y494756D02*X203750D01*
X205550D02*Y492506D01*
X206300Y491756D01*
X207800D01*
X208550Y492506D01*
Y494756D02*Y492506D01*
X211100Y497756D02*Y492506D01*
X211850Y491756D01*
X210350Y495506D02*X211850D01*
X213350Y497756D02*Y491756D01*
Y494006D02*X214100Y494756D01*
X215600D01*
X216350Y494006D01*
Y491756D01*
X218150Y494006D02*Y492506D01*
Y494006D02*X218900Y494756D01*
X220400D01*
X221150Y494006D01*
Y492506D01*
X220400Y491756D02*X221150Y492506D01*
X218900Y491756D02*X220400D01*
X218150Y492506D02*X218900Y491756D01*
X223700Y494006D02*Y491756D01*
Y494006D02*X224450Y494756D01*
X225950D01*
X222950D02*X223700Y494006D01*
X227750Y495506D02*X228500D01*
X227750Y494006D02*X228500D01*
X233000Y491756D02*X236000D01*
X236750Y492506D01*
Y494006D02*Y492506D01*
X236000Y494756D02*X236750Y494006D01*
X233750Y494756D02*X236000D01*
X233750Y497756D02*Y491756D01*
X233000Y497756D02*X236000D01*
X236750Y497006D01*
Y495506D01*
X236000Y494756D02*X236750Y495506D01*
X239300Y491756D02*X241550D01*
X238550Y492506D02*X239300Y491756D01*
X238550Y494006D02*Y492506D01*
Y494006D02*X239300Y494756D01*
X240800D01*
X241550Y494006D01*
X238550Y493256D02*X241550D01*
Y494006D02*Y493256D01*
X244100Y494006D02*Y491756D01*
Y494006D02*X244850Y494756D01*
X246350D01*
X243350D02*X244100Y494006D01*
X248900Y497756D02*Y492506D01*
X249650Y491756D01*
X248150Y495506D02*X249650D01*
X253850Y497756D02*X256850D01*
X255350D02*Y491756D01*
X258650Y496256D02*Y495506D01*
Y494006D02*Y491756D01*
X260900Y494006D02*Y491756D01*
Y494006D02*X261650Y494756D01*
X262400D01*
X263150Y494006D01*
Y491756D01*
Y494006D02*X263900Y494756D01*
X264650D01*
X265400Y494006D01*
Y491756D01*
X260150Y494756D02*X260900Y494006D01*
X267950D02*Y491756D01*
Y494006D02*X268700Y494756D01*
X269450D01*
X270200Y494006D01*
Y491756D01*
Y494006D02*X270950Y494756D01*
X271700D01*
X272450Y494006D01*
Y491756D01*
X267200Y494756D02*X267950Y494006D01*
X275000Y491756D02*X277250D01*
X274250Y492506D02*X275000Y491756D01*
X274250Y494006D02*Y492506D01*
Y494006D02*X275000Y494756D01*
X276500D01*
X277250Y494006D01*
X274250Y493256D02*X277250D01*
Y494006D02*Y493256D01*
X279800Y494006D02*Y491756D01*
Y494006D02*X280550Y494756D01*
X282050D01*
X279050D02*X279800Y494006D01*
X284600D02*Y491756D01*
Y494006D02*X285350Y494756D01*
X286100D01*
X286850Y494006D01*
Y491756D01*
Y494006D02*X287600Y494756D01*
X288350D01*
X289100Y494006D01*
Y491756D01*
X283850Y494756D02*X284600Y494006D01*
X293150Y494756D02*X293900Y494006D01*
X291650Y494756D02*X293150D01*
X290900Y494006D02*X291650Y494756D01*
X290900Y494006D02*Y492506D01*
X291650Y491756D01*
X293900Y494756D02*Y492506D01*
X294650Y491756D01*
X291650D02*X293150D01*
X293900Y492506D01*
X297200Y494006D02*Y491756D01*
Y494006D02*X297950Y494756D01*
X298700D01*
X299450Y494006D01*
Y491756D01*
X296450Y494756D02*X297200Y494006D01*
X200000Y512756D02*X203000D01*
X201500D02*Y506756D01*
X204800Y511256D02*Y510506D01*
Y509006D02*Y506756D01*
X207050Y512756D02*Y507506D01*
X207800Y506756D01*
X206300Y510506D02*X207800D01*
X209300Y512756D02*Y507506D01*
X210050Y506756D01*
X212300D02*X214550D01*
X211550Y507506D02*X212300Y506756D01*
X211550Y509006D02*Y507506D01*
Y509006D02*X212300Y509756D01*
X213800D01*
X214550Y509006D01*
X211550Y508256D02*X214550D01*
Y509006D02*Y508256D01*
X216350Y510506D02*X217100D01*
X216350Y509006D02*X217100D01*
X221600Y512006D02*X222350Y512756D01*
X224600D01*
X225350Y512006D01*
Y510506D01*
X221600Y506756D02*X225350Y510506D01*
X221600Y506756D02*X225350D01*
X229400Y512756D02*X230150Y512006D01*
X227900Y512756D02*X229400D01*
X227150Y512006D02*X227900Y512756D01*
X227150Y512006D02*Y507506D01*
X227900Y506756D01*
X229400Y509756D02*X230150Y509006D01*
X227150Y509756D02*X229400D01*
X227900Y506756D02*X229400D01*
X230150Y507506D01*
Y509006D02*Y507506D01*
X231950Y506756D02*X232700D01*
X234500Y507506D02*X235250Y506756D01*
X234500Y512006D02*Y507506D01*
Y512006D02*X235250Y512756D01*
X236750D01*
X237500Y512006D01*
Y507506D01*
X236750Y506756D02*X237500Y507506D01*
X235250Y506756D02*X236750D01*
X234500Y508256D02*X237500Y511256D01*
X239300Y507506D02*X240050Y506756D01*
X239300Y512006D02*Y507506D01*
Y512006D02*X240050Y512756D01*
X241550D01*
X242300Y512006D01*
Y507506D01*
X241550Y506756D02*X242300Y507506D01*
X240050Y506756D02*X241550D01*
X239300Y508256D02*X242300Y511256D01*
X244100Y512006D02*X244850Y512756D01*
X247100D01*
X247850Y512006D01*
Y510506D01*
X244100Y506756D02*X247850Y510506D01*
X244100Y506756D02*X247850D01*
X249650D02*X250400D01*
X252200Y507506D02*X252950Y506756D01*
X252200Y512006D02*Y507506D01*
Y512006D02*X252950Y512756D01*
X254450D01*
X255200Y512006D01*
Y507506D01*
X254450Y506756D02*X255200Y507506D01*
X252950Y506756D02*X254450D01*
X252200Y508256D02*X255200Y511256D01*
X257000Y507506D02*X257750Y506756D01*
X257000Y512006D02*Y507506D01*
Y512006D02*X257750Y512756D01*
X259250D01*
X260000Y512006D01*
Y507506D01*
X259250Y506756D02*X260000Y507506D01*
X257750Y506756D02*X259250D01*
X257000Y508256D02*X260000Y511256D01*
X261800Y506756D02*X262550D01*
X264350Y507506D02*X265100Y506756D01*
X264350Y512006D02*Y507506D01*
Y512006D02*X265100Y512756D01*
X266600D01*
X267350Y512006D01*
Y507506D01*
X266600Y506756D02*X267350Y507506D01*
X265100Y506756D02*X266600D01*
X264350Y508256D02*X267350Y511256D01*
X269900Y506756D02*X271400D01*
X270650Y512756D02*Y506756D01*
X269150Y511256D02*X270650Y512756D01*
X273200Y506756D02*X273950D01*
X275750Y507506D02*X276500Y506756D01*
X275750Y512006D02*Y507506D01*
Y512006D02*X276500Y512756D01*
X278000D01*
X278750Y512006D01*
Y507506D01*
X278000Y506756D02*X278750Y507506D01*
X276500Y506756D02*X278000D01*
X275750Y508256D02*X278750Y511256D01*
X281300Y506756D02*X282800D01*
X282050Y512756D02*Y506756D01*
X280550Y511256D02*X282050Y512756D01*
X284600Y506756D02*X285350D01*
X287900Y509006D02*Y504506D01*
X287150Y509756D02*X287900Y509006D01*
X288650Y509756D01*
X290150D01*
X290900Y509006D01*
Y507506D01*
X290150Y506756D02*X290900Y507506D01*
X288650Y506756D02*X290150D01*
X287900Y507506D02*X288650Y506756D01*
X293450Y509756D02*X295700D01*
X292700Y509006D02*X293450Y509756D01*
X292700Y509006D02*Y507506D01*
X293450Y506756D01*
X295700D01*
X297500Y512756D02*Y506756D01*
Y507506D02*X298250Y506756D01*
X299750D01*
X300500Y507506D01*
Y509006D02*Y507506D01*
X299750Y509756D02*X300500Y509006D01*
X298250Y509756D02*X299750D01*
X297500Y509006D02*X298250Y509756D01*
X305000D02*X308000D01*
X312500Y512756D02*Y506756D01*
Y512756D02*X315500D01*
X312500Y509756D02*X314750D01*
X319550D02*X320300Y509006D01*
X318050Y509756D02*X319550D01*
X317300Y509006D02*X318050Y509756D01*
X317300Y509006D02*Y507506D01*
X318050Y506756D01*
X320300Y509756D02*Y507506D01*
X321050Y506756D01*
X318050D02*X319550D01*
X320300Y507506D01*
X322850Y512756D02*Y506756D01*
Y507506D02*X323600Y506756D01*
X325100D01*
X325850Y507506D01*
Y509006D02*Y507506D01*
X325100Y509756D02*X325850Y509006D01*
X323600Y509756D02*X325100D01*
X322850Y509006D02*X323600Y509756D01*
X328400Y509006D02*Y506756D01*
Y509006D02*X329150Y509756D01*
X330650D01*
X327650D02*X328400Y509006D01*
X332450Y511256D02*Y510506D01*
Y509006D02*Y506756D01*
X334700Y509756D02*X336950D01*
X333950Y509006D02*X334700Y509756D01*
X333950Y509006D02*Y507506D01*
X334700Y506756D01*
X336950D01*
X341000Y509756D02*X341750Y509006D01*
X339500Y509756D02*X341000D01*
X338750Y509006D02*X339500Y509756D01*
X338750Y509006D02*Y507506D01*
X339500Y506756D01*
X341750Y509756D02*Y507506D01*
X342500Y506756D01*
X339500D02*X341000D01*
X341750Y507506D01*
X345050Y512756D02*Y507506D01*
X345800Y506756D01*
X344300Y510506D02*X345800D01*
X347300Y511256D02*Y510506D01*
Y509006D02*Y506756D01*
X348800Y509006D02*Y507506D01*
Y509006D02*X349550Y509756D01*
X351050D01*
X351800Y509006D01*
Y507506D01*
X351050Y506756D02*X351800Y507506D01*
X349550Y506756D02*X351050D01*
X348800Y507506D02*X349550Y506756D01*
X354350Y509006D02*Y506756D01*
Y509006D02*X355100Y509756D01*
X355850D01*
X356600Y509006D01*
Y506756D01*
X353600Y509756D02*X354350Y509006D01*
X361850Y512756D02*Y506756D01*
X364100Y512756D02*X364850Y512006D01*
Y507506D01*
X364100Y506756D02*X364850Y507506D01*
X361100Y506756D02*X364100D01*
X361100Y512756D02*X364100D01*
X367400Y509006D02*Y506756D01*
Y509006D02*X368150Y509756D01*
X369650D01*
X366650D02*X367400Y509006D01*
X373700Y509756D02*X374450Y509006D01*
X372200Y509756D02*X373700D01*
X371450Y509006D02*X372200Y509756D01*
X371450Y509006D02*Y507506D01*
X372200Y506756D01*
X374450Y509756D02*Y507506D01*
X375200Y506756D01*
X372200D02*X373700D01*
X374450Y507506D01*
X377000Y509756D02*Y507506D01*
X377750Y506756D01*
X378500D01*
X379250Y507506D01*
Y509756D02*Y507506D01*
X380000Y506756D01*
X380750D01*
X381500Y507506D01*
Y509756D02*Y507506D01*
X383300Y511256D02*Y510506D01*
Y509006D02*Y506756D01*
X385550Y509006D02*Y506756D01*
Y509006D02*X386300Y509756D01*
X387050D01*
X387800Y509006D01*
Y506756D01*
X384800Y509756D02*X385550Y509006D01*
X391850Y509756D02*X392600Y509006D01*
X390350Y509756D02*X391850D01*
X389600Y509006D02*X390350Y509756D01*
X389600Y509006D02*Y507506D01*
X390350Y506756D01*
X391850D01*
X392600Y507506D01*
X389600Y505256D02*X390350Y504506D01*
X391850D01*
X392600Y505256D01*
Y509756D02*Y505256D01*
M02*
