G04 start of page 8 for group -4062 idx -4062 *
G04 Title: 26.002.00.01.01.pcb, soldermask *
G04 Creator: pcb 4.1.2 *
G04 CreationDate: Sun Jul 29 08:17:15 2018 UTC *
G04 For: bert *
G04 Format: Gerber/RS-274X *
G04 PCB-Dimensions (mil): 1968.50 3937.01 *
G04 PCB-Coordinate-Origin: lower left *
%MOIN*%
%FSLAX25Y25*%
%LNGBS*%
%ADD66C,0.0560*%
%ADD65C,0.2760*%
%ADD64C,0.0860*%
%ADD63C,0.0950*%
%ADD62C,0.0600*%
%ADD61C,0.0710*%
%ADD60C,0.1260*%
%ADD59C,0.0001*%
%ADD58C,0.0660*%
G54D58*X15748Y265748D03*
Y255906D03*
Y246063D03*
Y236221D03*
Y226378D03*
X64961Y246654D03*
X88583Y226811D03*
X15748Y314961D03*
Y305118D03*
Y295276D03*
Y285433D03*
G54D59*G36*
X12448Y347788D02*Y341188D01*
X19048D01*
Y347788D01*
X12448D01*
G37*
G54D58*X15748Y334646D03*
Y324803D03*
G54D60*X80709Y358268D03*
G54D61*X120079Y377953D03*
X41339D03*
G54D58*X15748Y275591D03*
G54D59*G36*
X28339Y317961D02*Y311961D01*
X34339D01*
Y317961D01*
X28339D01*
G37*
G54D62*X51339Y314961D03*
G54D59*G36*
X107079Y317961D02*Y311961D01*
X113079D01*
Y317961D01*
X107079D01*
G37*
G54D62*X130079Y314961D03*
G54D59*G36*
X80959Y319711D02*Y310211D01*
X90459D01*
Y319711D01*
X80959D01*
G37*
G54D63*X75709Y314961D03*
G54D62*X31339Y329961D03*
X51339D03*
X110079D03*
X130079D03*
X31339Y299961D03*
X51339D03*
X110079D03*
X130079D03*
G54D59*G36*
X61661Y299954D02*Y293354D01*
X68261D01*
Y299954D01*
X61661D01*
G37*
G36*
X85283Y300111D02*Y293511D01*
X91883D01*
Y300111D01*
X85283D01*
G37*
G54D58*X15748Y216536D03*
Y206693D03*
Y196851D03*
Y187008D03*
Y177166D03*
Y167323D03*
Y157481D03*
Y147638D03*
Y137795D03*
Y127953D03*
Y118110D03*
Y108268D03*
Y98425D03*
Y88583D03*
Y78740D03*
Y68898D03*
Y59055D03*
Y49213D03*
G54D59*G36*
X30070Y204812D02*Y196212D01*
X38670D01*
Y204812D01*
X30070D01*
G37*
G54D64*X44370Y200512D03*
Y190512D03*
Y180512D03*
X34370Y190512D03*
Y180512D03*
Y170512D03*
Y160512D03*
Y150512D03*
Y140512D03*
X44370Y170512D03*
Y160512D03*
Y150512D03*
Y140512D03*
X34370Y130512D03*
Y120512D03*
Y110512D03*
X44370Y130512D03*
Y120512D03*
Y110512D03*
G54D61*X41339Y15748D03*
G54D60*X80709Y35433D03*
X120079Y78740D03*
G54D65*X145079Y53740D03*
Y103740D03*
X95079D03*
G54D59*G36*
X117279Y140438D02*Y134838D01*
X122879D01*
Y140438D01*
X117279D01*
G37*
G54D66*X120079Y157638D03*
G54D61*Y15748D03*
M02*
