G04 start of page 3 for group 1 idx 1 *
G04 Title: 26.002.00.01.01.pcb, bottom *
G04 Creator: pcb 4.1.2 *
G04 CreationDate: Fri Aug 10 20:06:22 2018 UTC *
G04 For: bert *
G04 Format: Gerber/RS-274X *
G04 PCB-Dimensions (mil): 2440.94 4527.56 *
G04 PCB-Coordinate-Origin: lower left *
%MOIN*%
%FSLAX25Y25*%
%LNGBL*%
%ADD49C,0.0670*%
%ADD48C,0.0200*%
%ADD47C,0.1100*%
%ADD46C,0.0420*%
%ADD45C,0.0460*%
%ADD44C,0.1457*%
%ADD43C,0.0400*%
%ADD42C,0.0350*%
%ADD41C,0.0900*%
%ADD40C,0.0500*%
%ADD39C,0.1260*%
%ADD38C,0.0660*%
%ADD37C,0.2760*%
%ADD36C,0.0720*%
%ADD35C,0.0750*%
%ADD34C,0.0600*%
%ADD33C,0.0001*%
%ADD32C,0.0650*%
%ADD31C,0.0100*%
%ADD30C,0.0250*%
G54D30*X104331Y163386D02*X110236Y169291D01*
X167323D02*X169291Y167323D01*
Y160670D01*
G54D31*X149831Y157670D02*X155512Y151989D01*
X185039D01*
G54D30*X110236Y169291D02*X167323D01*
G54D31*X185039Y151989D02*X190945Y158465D01*
G54D30*X104331Y112205D02*X108268Y108268D01*
X149606D01*
X104331Y145827D02*Y163386D01*
Y125827D02*Y112205D01*
G54D31*X45276Y306102D02*X58071D01*
X61024Y309055D01*
X45276Y296260D02*X59055D01*
X66929Y304134D01*
X61024Y309055D02*Y329724D01*
X66929Y304134D02*Y338583D01*
X61024Y344488D01*
X45276Y346457D02*X51181D01*
X53150Y348425D01*
Y351378D01*
G54D30*X56102Y316929D02*X45276D01*
X94488Y339567D02*Y294291D01*
G54D31*X61024Y359252D02*X80709D01*
X57087Y365157D02*X146654D01*
X149606Y362205D01*
Y358268D01*
X153543Y354331D01*
X184055D01*
X190945Y347441D01*
G54D30*X146654Y344488D02*X130906D01*
X80709D02*X89567D01*
X94488Y339567D01*
X130906Y344488D02*X127953Y341535D01*
Y329724D01*
G54D31*X105315Y344488D02*Y313976D01*
X112205Y307087D01*
X124606D01*
X45276Y356299D02*X51181D01*
G54D30*X45276Y375984D02*Y394685D01*
X49213Y398622D02*X45276Y394685D01*
X52165Y366142D02*X45276D01*
G54D31*X51181Y356299D02*X55118Y360236D01*
X53150Y351378D02*X61024Y359252D01*
X55118Y360236D02*Y363189D01*
X57087Y365157D01*
G54D30*Y371063D02*X52165Y366142D01*
X57087Y371063D02*X91535D01*
X87598Y398622D02*X49213D01*
X97441Y408465D02*X87598Y398622D01*
X135827D02*X125984Y408465D01*
X97441D02*X125984D01*
X153543Y398622D02*X135827D01*
X159449Y392717D02*X153543Y398622D01*
X159449Y392717D02*Y360236D01*
X75866Y75512D02*Y95512D01*
X87598Y98425D02*X84646Y95472D01*
X75945D01*
X75866Y95551D01*
G54D31*Y105512D02*X70945Y100591D01*
X61024Y98622D02*Y78740D01*
X58661Y76378D01*
X45276D01*
X59055Y88386D02*X57087Y86417D01*
X45276D01*
X55118Y96457D02*X45276D01*
X53150Y106299D02*X45276D01*
G54D30*X87598Y202756D02*Y98425D01*
G54D31*X75787Y145472D02*X70866Y140551D01*
X75787Y155512D02*X70866Y150591D01*
X75787Y165354D02*X70866Y160433D01*
Y150591D02*X62992D01*
X70866Y160433D02*X62992D01*
X75787Y175591D02*X70669Y170472D01*
X63189D01*
X75787Y185433D02*X70866Y180512D01*
X62992D01*
X75984Y195669D02*X70866Y190551D01*
X62992D01*
X70945Y100591D02*X62992D01*
X61024Y98622D01*
X62992Y110630D02*X59055Y106693D01*
Y88386D01*
X57087Y114567D02*Y98425D01*
X55118Y96457D01*
Y122638D02*Y108268D01*
X53150Y106299D01*
X62992Y120472D02*X57087Y114567D01*
X53150Y123622D02*Y120079D01*
X49409Y116339D01*
X45276D01*
X62992Y130512D02*X55118Y122638D01*
X61220Y131693D02*X53150Y123622D01*
X59055Y133858D02*X51575Y126378D01*
X45276D01*
X54724Y136417D02*X45276D01*
X52953Y146457D02*X45276D01*
X50000Y156299D02*X45276D01*
X75984Y115551D02*X71063Y110630D01*
X62992D01*
X75787Y125394D02*X70866Y120472D01*
X62992D01*
X75787Y135433D02*X70866Y130512D01*
X62992D01*
X70866Y140551D02*X62992D01*
X61220Y138780D01*
Y131693D01*
X62992Y150591D02*X59055Y146654D01*
Y133858D01*
X62992Y160433D02*X57087Y154528D01*
X63189Y170472D02*X55118Y162402D01*
X59055Y171260D02*X53150Y165354D01*
Y159449D01*
X57087Y154528D02*Y138780D01*
X54724Y136417D01*
X55118Y162402D02*Y148622D01*
X52953Y146457D01*
X53150Y159449D02*X50000Y156299D01*
X62992Y180512D02*X59055Y176575D01*
Y171260D01*
X63189Y190748D02*X57087Y184646D01*
X55118Y179134D02*X52362Y176378D01*
X45276D01*
X190945Y158465D02*Y347441D01*
X159449Y344488D02*X170276D01*
X174213Y340551D01*
Y307480D01*
X174606Y307087D01*
G54D30*X146654Y344488D02*X152559Y350394D01*
X176181D01*
X184606Y288386D02*Y341969D01*
Y342087D02*X184488D01*
X176181Y350394D01*
X94488Y294291D02*X100394Y288386D01*
X114606D01*
X75866Y205512D02*Y225512D01*
Y205512D02*X84843D01*
X87598Y202756D01*
G54D31*X75787Y235433D02*Y243110D01*
X75866Y205512D02*X70748Y200394D01*
X62992D01*
X75787Y243110D02*X73819Y245079D01*
X55118D01*
X53150Y243110D01*
Y208661D01*
X51181Y206693D01*
X45276D01*
X57087Y184646D02*Y177165D01*
X53150Y173228D01*
Y169488D01*
X50000Y166339D01*
X45276D01*
X62992Y200394D02*X55118Y192520D01*
Y179134D01*
G54D32*X70866Y405512D03*
G54D33*G36*
X57867Y347489D02*Y341489D01*
X63867D01*
Y347489D01*
X57867D01*
G37*
G54D34*X60867Y359489D03*
X80867Y344489D03*
Y359489D03*
G54D32*X149606Y405512D03*
G54D34*X80867Y329489D03*
G54D33*G36*
X136607Y347489D02*Y341489D01*
X142607D01*
Y347489D01*
X136607D01*
G37*
G54D34*X139607Y359489D03*
Y329489D03*
X159607Y344489D03*
Y359489D03*
G54D33*G36*
X111487Y348239D02*Y340739D01*
X118987D01*
Y348239D01*
X111487D01*
G37*
G54D35*X105237Y344489D03*
G54D33*G36*
X121606Y310087D02*Y304087D01*
X127606D01*
Y310087D01*
X121606D01*
G37*
G54D34*X159607Y329489D03*
X174606Y307087D03*
G54D33*G36*
X181606Y291386D02*Y285386D01*
X187606D01*
Y291386D01*
X181606D01*
G37*
G54D34*X114606Y288386D03*
X60867Y329489D03*
G54D36*X45276Y376378D03*
Y366378D03*
Y356378D03*
Y346378D03*
Y336378D03*
Y326378D03*
Y316378D03*
Y306378D03*
Y296378D03*
Y286378D03*
Y276378D03*
Y266378D03*
Y256378D03*
Y246378D03*
Y236378D03*
G54D33*G36*
X41676Y229978D02*Y222778D01*
X48876D01*
Y229978D01*
X41676D01*
G37*
G54D32*X70866Y47244D03*
X149606D03*
G54D37*X174607Y83268D03*
G54D38*X75866Y85512D03*
Y75512D03*
G54D36*X45276Y216378D03*
Y206378D03*
Y196378D03*
Y186378D03*
Y176378D03*
Y166378D03*
Y156378D03*
Y146378D03*
Y136378D03*
Y126378D03*
Y116378D03*
Y106378D03*
Y96378D03*
Y86378D03*
Y76378D03*
G54D33*G36*
X62566Y238812D02*Y232212D01*
X69166D01*
Y238812D01*
X62566D01*
G37*
G54D38*X75866Y235512D03*
X65866Y225512D03*
Y215512D03*
Y205512D03*
X75866Y225512D03*
Y215512D03*
Y205512D03*
Y195512D03*
Y185512D03*
Y175512D03*
X65866Y195512D03*
Y185512D03*
Y175512D03*
X75866Y165512D03*
G54D39*X149607Y108268D03*
G54D37*X174607Y133268D03*
X124607D03*
G54D33*G36*
X101831Y128327D02*Y123327D01*
X106831D01*
Y128327D01*
X101831D01*
G37*
G54D40*X104331Y145827D03*
G54D41*X169831Y160670D03*
X149831Y157670D03*
X129831Y160670D03*
G54D38*X75866Y155512D03*
Y145512D03*
Y135512D03*
Y125512D03*
Y115512D03*
X65866Y165512D03*
Y155512D03*
Y145512D03*
Y135512D03*
Y125512D03*
Y115512D03*
Y105512D03*
X75866D03*
X65866Y95512D03*
X75866D03*
X65866Y85512D03*
Y75512D03*
G54D34*X127953Y329724D03*
X91535Y371063D03*
X56102Y316929D03*
G54D42*G54D43*G54D44*G54D43*G54D45*G54D43*G54D46*G54D43*G54D46*G54D43*G54D44*G54D47*G54D45*G54D46*G54D45*G54D38*G54D47*G54D48*G54D49*G54D45*M02*
