G04 start of page 8 for group -4079 idx -4079 *
G04 Title: 26.005.00.01.01, topsilk *
G04 Creator: pcb 4.2.2 *
G04 CreationDate: Sat Feb 13 13:51:23 2021 UTC *
G04 For: bert *
G04 Format: Gerber/RS-274X *
G04 PCB-Dimensions (mil): 2047.24 2047.24 *
G04 PCB-Coordinate-Origin: lower left *
%MOIN*%
%FSLAX25Y25*%
%LNGTO*%
%ADD70C,0.0046*%
%ADD69C,0.0047*%
%ADD68C,0.0040*%
%ADD67C,0.0046*%
%ADD66C,0.0048*%
%ADD65C,0.0041*%
%ADD64C,0.0041*%
%ADD63C,0.0041*%
%ADD62C,0.0042*%
%ADD61C,0.0042*%
%ADD60C,0.0042*%
%ADD59C,0.0041*%
%ADD58C,0.0043*%
%ADD57C,0.0042*%
%ADD56C,0.0041*%
%ADD55C,0.0042*%
%ADD54C,0.0041*%
%ADD53C,0.0041*%
%ADD52C,0.0041*%
%ADD51C,0.0046*%
%ADD50C,0.0047*%
%ADD49C,0.0043*%
%ADD48C,0.0044*%
%ADD47C,0.0044*%
%ADD46C,0.0043*%
%ADD45C,0.0045*%
%ADD44C,0.0045*%
%ADD43C,0.0045*%
%ADD42C,0.0045*%
%ADD41C,0.0044*%
%ADD40C,0.0043*%
%ADD39C,0.0043*%
%ADD38C,0.0042*%
%ADD37C,0.0043*%
%ADD36C,0.0044*%
%ADD35C,0.0044*%
%ADD34C,0.0044*%
%ADD33C,0.0044*%
%ADD32C,0.0044*%
%ADD31C,0.0044*%
%ADD30C,0.0043*%
%ADD29C,0.0043*%
%ADD28C,0.0043*%
%ADD27C,0.0043*%
%ADD26C,0.0042*%
%ADD25C,0.0042*%
%ADD24C,0.0042*%
%ADD23C,0.0049*%
%ADD22C,0.0098*%
%ADD21C,0.0001*%
G54D21*G36*
X57540Y122540D02*X60117D01*
X60200Y122508D01*
X60247Y122432D01*
X60296Y122193D01*
X60340Y121971D01*
X60731Y119839D01*
X60778Y119751D01*
X60861Y119693D01*
X60964Y119649D01*
X61754Y119378D01*
X62504Y119020D01*
X62510D01*
X62597Y118982D01*
X62694Y118968D01*
X62792Y118999D01*
X64565Y120218D01*
X64756Y120343D01*
X64957Y120479D01*
X65043Y120504D01*
X65125Y120468D01*
X65456Y120138D01*
X65960Y119638D01*
X66118Y119475D01*
X66617Y118977D01*
X66779Y118820D01*
X66947Y118646D01*
X66986Y118561D01*
X66964Y118472D01*
X66828Y118271D01*
X66699Y118081D01*
X65510Y116345D01*
X65478Y116253D01*
X65493Y116156D01*
X65538Y116057D01*
X66221Y114451D01*
X66258Y114360D01*
X66321Y114282D01*
X66411Y114235D01*
X68450Y113854D01*
X68674Y113811D01*
X68917Y113768D01*
X68992Y113721D01*
X69021Y113638D01*
Y111061D01*
X68992Y110972D01*
X68917Y110925D01*
X68674Y110882D01*
X68450Y110839D01*
X66471Y110470D01*
X66383Y110422D01*
X66329Y110339D01*
X66301Y110279D01*
Y110268D01*
X65586Y108495D01*
X65581Y108483D01*
X65564Y108440D01*
X65547Y108339D01*
X65575Y108245D01*
X66704Y106613D01*
X66828Y106422D01*
X66969Y106221D01*
X66988Y106135D01*
X66947Y106053D01*
X66779Y105874D01*
X66617Y105717D01*
X65299Y104399D01*
X65125Y104231D01*
X65043Y104190D01*
X64957Y104208D01*
X64756Y104350D01*
X64565Y104474D01*
X62971Y105571D01*
X62872Y105600D01*
X62775Y105581D01*
X62444Y105397D01*
X62250Y105288D01*
X61903Y105110D01*
X61818Y105104D01*
X61756Y105164D01*
X61610Y105521D01*
X61522Y105728D01*
X60139Y109086D01*
X60051Y109292D01*
X59954Y109525D01*
X59950Y109620D01*
X60003Y109693D01*
X60226Y109824D01*
X60367Y109932D01*
X60903Y110378D01*
X61318Y110942D01*
X61585Y111601D01*
X61679Y112331D01*
X61621Y112906D01*
X61456Y113440D01*
X61193Y113925D01*
X60844Y114347D01*
X60424Y114696D01*
X59940Y114960D01*
X59406Y115125D01*
X58832Y115183D01*
X58257Y115125D01*
X57722Y114960D01*
X57239Y114696D01*
X56817Y114347D01*
X56469Y113925D01*
X56207Y113440D01*
X56042Y112906D01*
X55983Y112331D01*
X56076Y111601D01*
X56343Y110942D01*
X56757Y110378D01*
X57296Y109932D01*
X57432Y109824D01*
X57654Y109693D01*
X57708Y109620D01*
X57703Y109525D01*
X57606Y109292D01*
X57518Y109086D01*
X56135Y105728D01*
X56049Y105521D01*
X55901Y105164D01*
X55840Y105104D01*
X55756Y105110D01*
X55414Y105288D01*
X55213Y105397D01*
X54882Y105581D01*
X54783Y105600D01*
X54686Y105571D01*
X53092Y104474D01*
X52907Y104350D01*
X52701Y104208D01*
X52614Y104190D01*
X52532Y104231D01*
X52358Y104399D01*
X52201Y104561D01*
X51703Y105060D01*
X51540Y105218D01*
X51040Y105717D01*
X50878Y105874D01*
X50710Y106053D01*
X50671Y106135D01*
X50693Y106221D01*
X50829Y106422D01*
X50960Y106613D01*
X52082Y108245D01*
X52110Y108339D01*
X52093Y108440D01*
X52071Y108500D01*
X51361Y110274D01*
X51328Y110339D01*
X51274Y110422D01*
X51188Y110470D01*
X49207Y110839D01*
X48985Y110882D01*
X48746Y110925D01*
X48667Y110975D01*
X48638Y111061D01*
Y113638D01*
X48667Y113721D01*
X48746Y113768D01*
X48985Y113817D01*
X49207Y113854D01*
X51247Y114235D01*
X51336Y114282D01*
X51399Y114365D01*
X51436Y114451D01*
X52125Y116057D01*
X52164Y116156D01*
X52181Y116253D01*
X52153Y116345D01*
X50960Y118086D01*
X50829Y118271D01*
X50693Y118472D01*
X50671Y118561D01*
X50710Y118646D01*
X50878Y118820D01*
X51040Y118977D01*
X52532Y120468D01*
X52614Y120504D01*
X52701Y120485D01*
X52907Y120349D01*
X53092Y120218D01*
X54865Y118999D01*
X54963Y118970D01*
X55061Y118988D01*
X55147Y119020D01*
X55158Y119025D01*
X55904Y119379D01*
X56694Y119654D01*
X56797Y119693D01*
X56881Y119751D01*
X56926Y119839D01*
X57324Y121971D01*
X57361Y122193D01*
X57410Y122432D01*
X57457Y122508D01*
X57540Y122540D01*
G37*
G54D22*X42119Y52734D02*X41719Y53134D01*
X41119Y53334D01*
X40319D02*X41119D01*
X40319D02*X39719Y53134D01*
X39319Y52734D01*
Y52334D01*
X39519Y51934D01*
X39719Y51734D01*
X40119Y51534D01*
X41319Y51134D01*
X41719Y50934D01*
X41919Y50734D01*
X42119Y50334D01*
Y49734D01*
X41719Y49334D01*
X41119Y49134D01*
X40319D02*X41119D01*
X40319D02*X39719Y49334D01*
X39319Y49734D01*
X43919Y53334D02*Y49934D01*
X44119Y49334D01*
X44519Y49134D01*
X44919D01*
X43319Y51934D02*X44719D01*
X46119D02*Y49134D01*
Y50734D02*X46319Y51334D01*
X46719Y51734D01*
X47119Y51934D01*
X47719D01*
X48919D02*Y49934D01*
X49119Y49334D01*
X49519Y49134D01*
X50119D01*
X50519Y49334D01*
X51119Y49934D01*
Y51934D02*Y49134D01*
X52919Y53334D02*Y49934D01*
X53119Y49334D01*
X53519Y49134D01*
X53919D01*
X52319Y51934D02*X53719D01*
X42319Y36834D02*X42119Y37234D01*
X41719Y37634D01*
X41319Y37834D01*
X40519D02*X41319D01*
X40519D02*X40119Y37634D01*
X39719Y37234D01*
X39519Y36834D01*
X39319Y36234D01*
Y35234D01*
X39519Y34634D01*
X39719Y34234D01*
X40119Y33834D01*
X40519Y33634D01*
X41319D01*
X41719Y33834D01*
X42119Y34234D01*
X42319Y34634D01*
X44519Y36434D02*X44119Y36234D01*
X43719Y35834D01*
X43519Y35234D01*
Y34834D01*
X43719Y34234D01*
X44119Y33834D01*
X44519Y33634D01*
X45119D01*
X45519Y33834D01*
X45919Y34234D01*
X46119Y34834D01*
Y35234D02*Y34834D01*
Y35234D02*X45919Y35834D01*
X45519Y36234D01*
X45119Y36434D01*
X44519D02*X45119D01*
X47319D02*Y32234D01*
Y35834D02*X47719Y36234D01*
X48119Y36434D01*
X48719D01*
X49119Y36234D01*
X49519Y35834D01*
X49719Y35234D01*
Y34834D01*
X49519Y34234D01*
X49119Y33834D01*
X48719Y33634D01*
X48119D02*X48719D01*
X48119D02*X47719Y33834D01*
X47319Y34234D01*
X51119Y36434D02*X52319Y33634D01*
X53519Y36434D02*X52319Y33634D01*
X51919Y32834D01*
X51519Y32434D01*
X51119Y32234D01*
X50919D02*X51119D01*
X54719Y36434D02*Y33634D01*
Y35234D02*X54919Y35834D01*
X55319Y36234D01*
X55719Y36434D01*
X56319D01*
X57519Y37834D02*X57719Y37634D01*
X57919Y37834D01*
X57719Y38034D01*
X57519Y37834D01*
X57719Y36434D02*Y33634D01*
X61519Y36434D02*Y33234D01*
X61319Y32634D01*
X61119Y32434D01*
X60719Y32234D01*
X60119D02*X60719D01*
X60119D02*X59719Y32434D01*
X61519Y35834D02*X61119Y36234D01*
X60719Y36434D01*
X60119D02*X60719D01*
X60119D02*X59719Y36234D01*
X59319Y35834D01*
X59119Y35234D01*
Y34834D01*
X59319Y34234D01*
X59719Y33834D01*
X60119Y33634D01*
X60719D01*
X61119Y33834D01*
X61519Y34234D01*
X62719Y37834D02*Y33634D01*
Y35634D02*X63319Y36234D01*
X63719Y36434D01*
X64319D01*
X64719Y36234D01*
X64919Y35634D01*
Y33634D01*
X66719Y37834D02*Y34434D01*
X66919Y33834D01*
X67319Y33634D01*
X67719D01*
X66119Y36434D02*X67519D01*
X71519Y38634D02*X71119Y38234D01*
X70719Y37634D01*
X70319Y36834D01*
X70119Y35834D01*
Y35034D01*
X70319Y34034D01*
X70719Y33234D01*
X71119Y32634D01*
X71519Y32234D01*
X75719Y36834D02*X75519Y37234D01*
X75119Y37634D01*
X74719Y37834D01*
X73919D02*X74719D01*
X73919D02*X73519Y37634D01*
X73119Y37234D01*
X72919Y36834D01*
X72719Y36234D01*
Y35234D01*
X72919Y34634D01*
X73119Y34234D01*
X73519Y33834D01*
X73919Y33634D01*
X74719D01*
X75119Y33834D01*
X75519Y34234D01*
X75719Y34634D01*
X76919Y38634D02*X77319Y38234D01*
X77719Y37634D01*
X78119Y36834D01*
X78319Y35834D01*
Y35034D01*
X78119Y34034D01*
X77719Y33234D01*
X77319Y32634D01*
X76919Y32234D01*
X80919Y37034D02*Y36834D01*
Y37034D02*X81119Y37434D01*
X81319Y37634D01*
X81719Y37834D01*
X82519D01*
X82919Y37634D01*
X83119Y37434D01*
X83319Y37034D01*
Y36634D01*
X83119Y36234D01*
X82719Y35634D01*
X80719Y33634D01*
X83519D01*
X85919Y37834D02*X85319Y37634D01*
X84919Y37034D01*
X84719Y36034D01*
Y35434D01*
X84919Y34434D01*
X85319Y33834D01*
X85919Y33634D01*
X86319D01*
X86919Y33834D01*
X87319Y34434D01*
X87519Y35434D01*
Y36034D02*Y35434D01*
Y36034D02*X87319Y37034D01*
X86919Y37634D01*
X86319Y37834D01*
X85919D02*X86319D01*
X88919Y37034D02*Y36834D01*
Y37034D02*X89119Y37434D01*
X89319Y37634D01*
X89719Y37834D01*
X90519D01*
X90919Y37634D01*
X91119Y37434D01*
X91319Y37034D01*
Y36634D01*
X91119Y36234D01*
X90719Y35634D01*
X88719Y33634D01*
X91519D01*
X93919Y37834D02*X93319Y37634D01*
X92919Y37034D01*
X92719Y36034D01*
Y35434D01*
X92919Y34434D01*
X93319Y33834D01*
X93919Y33634D01*
X94319D01*
X94919Y33834D01*
X95319Y34434D01*
X95519Y35434D01*
Y36034D02*Y35434D01*
Y36034D02*X95319Y37034D01*
X94919Y37634D01*
X94319Y37834D01*
X93919D02*X94319D01*
X97919D02*Y33634D01*
Y37834D02*X99719D01*
X100319Y37634D01*
X100519Y37434D01*
X100719Y37034D01*
Y36634D01*
X100519Y36234D01*
X100319Y36034D01*
X99719Y35834D01*
X97919D02*X99719D01*
X100319Y35634D01*
X100519Y35434D01*
X100719Y35034D01*
Y34434D01*
X100519Y34034D01*
X100319Y33834D01*
X99719Y33634D01*
X97919D02*X99719D01*
X101919Y35234D02*X104319D01*
Y35634D02*Y35234D01*
Y35634D02*X104119Y36034D01*
X103919Y36234D01*
X103519Y36434D01*
X102919D02*X103519D01*
X102919D02*X102519Y36234D01*
X102119Y35834D01*
X101919Y35234D01*
Y34834D01*
X102119Y34234D01*
X102519Y33834D01*
X102919Y33634D01*
X103519D01*
X103919Y33834D01*
X104319Y34234D01*
X105519Y36434D02*Y33634D01*
Y35234D02*X105719Y35834D01*
X106119Y36234D01*
X106519Y36434D01*
X107119D01*
X108919Y37834D02*Y34434D01*
X109119Y33834D01*
X109519Y33634D01*
X109919D01*
X108319Y36434D02*X109719D01*
X113719Y37834D02*Y33634D01*
X112319Y37834D02*X115119D01*
X116319D02*X116519Y37634D01*
X116719Y37834D01*
X116519Y38034D01*
X116319Y37834D01*
X116519Y36434D02*Y33634D01*
X117919Y36434D02*Y33634D01*
Y35634D02*X118519Y36234D01*
X118919Y36434D01*
X119519D01*
X119919Y36234D01*
X120119Y35634D01*
Y33634D01*
Y35634D02*X120719Y36234D01*
X121119Y36434D01*
X121719D01*
X122119Y36234D01*
X122319Y35634D01*
Y33634D01*
X123519Y36434D02*Y33634D01*
Y35634D02*X124119Y36234D01*
X124519Y36434D01*
X125119D01*
X125519Y36234D01*
X125719Y35634D01*
Y33634D01*
Y35634D02*X126319Y36234D01*
X126719Y36434D01*
X127319D01*
X127719Y36234D01*
X127919Y35634D01*
Y33634D01*
X129119Y35234D02*X131519D01*
Y35634D02*Y35234D01*
Y35634D02*X131319Y36034D01*
X131119Y36234D01*
X130719Y36434D01*
X130119D02*X130719D01*
X130119D02*X129719Y36234D01*
X129319Y35834D01*
X129119Y35234D01*
Y34834D01*
X129319Y34234D01*
X129719Y33834D01*
X130119Y33634D01*
X130719D01*
X131119Y33834D01*
X131519Y34234D01*
X132719Y36434D02*Y33634D01*
Y35234D02*X132919Y35834D01*
X133319Y36234D01*
X133719Y36434D01*
X134319D01*
X135519D02*Y33634D01*
Y35634D02*X136119Y36234D01*
X136519Y36434D01*
X137119D01*
X137519Y36234D01*
X137719Y35634D01*
Y33634D01*
Y35634D02*X138319Y36234D01*
X138719Y36434D01*
X139319D01*
X139719Y36234D01*
X139919Y35634D01*
Y33634D01*
X143519Y36434D02*Y33634D01*
Y35834D02*X143119Y36234D01*
X142719Y36434D01*
X142119D02*X142719D01*
X142119D02*X141719Y36234D01*
X141319Y35834D01*
X141119Y35234D01*
Y34834D01*
X141319Y34234D01*
X141719Y33834D01*
X142119Y33634D01*
X142719D01*
X143119Y33834D01*
X143519Y34234D01*
X144719Y36434D02*Y33634D01*
Y35634D02*X145319Y36234D01*
X145719Y36434D01*
X146319D01*
X146719Y36234D01*
X146919Y35634D01*
Y33634D01*
X39519Y44534D02*Y44334D01*
Y44534D02*X39719Y44934D01*
X39919Y45134D01*
X40319Y45334D01*
X41119D01*
X41519Y45134D01*
X41719Y44934D01*
X41919Y44534D01*
Y44134D01*
X41719Y43734D01*
X41319Y43134D01*
X39319Y41134D01*
X42119D01*
X45719Y44734D02*X45519Y45134D01*
X44919Y45334D01*
X44519D02*X44919D01*
X44519D02*X43919Y45134D01*
X43519Y44534D01*
X43319Y43534D01*
Y42534D01*
X43519Y41734D01*
X43919Y41334D01*
X44519Y41134D01*
X44719D01*
X45319Y41334D01*
X45719Y41734D01*
X45919Y42334D01*
Y42534D02*Y42334D01*
Y42534D02*X45719Y43134D01*
X45319Y43534D01*
X44719Y43734D01*
X44519D02*X44719D01*
X44519D02*X43919Y43534D01*
X43519Y43134D01*
X43319Y42534D01*
X47319Y41534D02*X47119Y41334D01*
X47319Y41134D01*
X47519Y41334D01*
X47319Y41534D01*
X49919Y45334D02*X49319Y45134D01*
X48919Y44534D01*
X48719Y43534D01*
Y42934D01*
X48919Y41934D01*
X49319Y41334D01*
X49919Y41134D01*
X50319D01*
X50919Y41334D01*
X51319Y41934D01*
X51519Y42934D01*
Y43534D02*Y42934D01*
Y43534D02*X51319Y44534D01*
X50919Y45134D01*
X50319Y45334D01*
X49919D02*X50319D01*
X53919D02*X53319Y45134D01*
X52919Y44534D01*
X52719Y43534D01*
Y42934D01*
X52919Y41934D01*
X53319Y41334D01*
X53919Y41134D01*
X54319D01*
X54919Y41334D01*
X55319Y41934D01*
X55519Y42934D01*
Y43534D02*Y42934D01*
Y43534D02*X55319Y44534D01*
X54919Y45134D01*
X54319Y45334D01*
X53919D02*X54319D01*
X57119D02*X59119D01*
X57119D02*X56919Y43534D01*
X57119Y43734D01*
X57719Y43934D01*
X58319D01*
X58919Y43734D01*
X59319Y43334D01*
X59519Y42734D01*
Y42334D01*
X59319Y41734D01*
X58919Y41334D01*
X58319Y41134D01*
X57719D02*X58319D01*
X57719D02*X57119Y41334D01*
X56919Y41534D01*
X56719Y41934D01*
X60919Y41534D02*X60719Y41334D01*
X60919Y41134D01*
X61119Y41334D01*
X60919Y41534D01*
X63519Y45334D02*X62919Y45134D01*
X62519Y44534D01*
X62319Y43534D01*
Y42934D01*
X62519Y41934D01*
X62919Y41334D01*
X63519Y41134D01*
X63919D01*
X64519Y41334D01*
X64919Y41934D01*
X65119Y42934D01*
Y43534D02*Y42934D01*
Y43534D02*X64919Y44534D01*
X64519Y45134D01*
X63919Y45334D01*
X63519D02*X63919D01*
X67519D02*X66919Y45134D01*
X66519Y44534D01*
X66319Y43534D01*
Y42934D01*
X66519Y41934D01*
X66919Y41334D01*
X67519Y41134D01*
X67919D01*
X68519Y41334D01*
X68919Y41934D01*
X69119Y42934D01*
Y43534D02*Y42934D01*
Y43534D02*X68919Y44534D01*
X68519Y45134D01*
X67919Y45334D01*
X67519D02*X67919D01*
X70519Y41534D02*X70319Y41334D01*
X70519Y41134D01*
X70719Y41334D01*
X70519Y41534D01*
X73119Y45334D02*X72519Y45134D01*
X72119Y44534D01*
X71919Y43534D01*
Y42934D01*
X72119Y41934D01*
X72519Y41334D01*
X73119Y41134D01*
X73519D01*
X74119Y41334D01*
X74519Y41934D01*
X74719Y42934D01*
Y43534D02*Y42934D01*
Y43534D02*X74519Y44534D01*
X74119Y45134D01*
X73519Y45334D01*
X73119D02*X73519D01*
X75919Y44534D02*X76319Y44734D01*
X76919Y45334D01*
Y41134D01*
X78319Y41534D02*X78119Y41334D01*
X78319Y41134D01*
X78519Y41334D01*
X78319Y41534D01*
X80919Y45334D02*X80319Y45134D01*
X79919Y44534D01*
X79719Y43534D01*
Y42934D01*
X79919Y41934D01*
X80319Y41334D01*
X80919Y41134D01*
X81319D01*
X81919Y41334D01*
X82319Y41934D01*
X82519Y42934D01*
Y43534D02*Y42934D01*
Y43534D02*X82319Y44534D01*
X81919Y45134D01*
X81319Y45334D01*
X80919D02*X81319D01*
X83719Y44534D02*X84119Y44734D01*
X84719Y45334D01*
Y41134D01*
X42370Y63161D02*X42170Y63561D01*
X41770Y63961D01*
X41370Y64161D01*
X40570D02*X41370D01*
X40570D02*X40170Y63961D01*
X39770Y63561D01*
X39570Y63161D01*
X39370Y62561D01*
Y61561D01*
X39570Y60961D01*
X39770Y60561D01*
X40170Y60161D01*
X40570Y59961D01*
X41370D01*
X41770Y60161D01*
X42170Y60561D01*
X42370Y60961D01*
X46570Y63161D02*X46370Y63561D01*
X45970Y63961D01*
X45570Y64161D01*
X44770D02*X45570D01*
X44770D02*X44370Y63961D01*
X43970Y63561D01*
X43770Y63161D01*
X43570Y62561D01*
Y61561D01*
X43770Y60961D01*
X43970Y60561D01*
X44370Y60161D01*
X44770Y59961D01*
X45570D01*
X45970Y60161D01*
X46370Y60561D01*
X46570Y60961D01*
X47770Y61761D02*X51370D01*
X52570Y64161D02*Y59961D01*
Y64161D02*X54370D01*
X54970Y63961D01*
X55170Y63761D01*
X55370Y63361D01*
Y62961D01*
X55170Y62561D01*
X54970Y62361D01*
X54370Y62161D01*
X52570D02*X54370D01*
X54970Y61961D01*
X55170Y61761D01*
X55370Y61361D01*
Y60761D01*
X55170Y60361D01*
X54970Y60161D01*
X54370Y59961D01*
X52570D02*X54370D01*
X56570Y64161D02*X58170Y62161D01*
Y59961D01*
X59770Y64161D02*X58170Y62161D01*
X60970Y61761D02*X64570D01*
X68570Y63561D02*X68170Y63961D01*
X67570Y64161D01*
X66770D02*X67570D01*
X66770D02*X66170Y63961D01*
X65770Y63561D01*
Y63161D01*
X65970Y62761D01*
X66170Y62561D01*
X66570Y62361D01*
X67770Y61961D01*
X68170Y61761D01*
X68370Y61561D01*
X68570Y61161D01*
Y60561D01*
X68170Y60161D01*
X67570Y59961D01*
X66770D02*X67570D01*
X66770D02*X66170Y60161D01*
X65770Y60561D01*
X71370Y64161D02*X69770Y59961D01*
X71370Y64161D02*X72970Y59961D01*
X70370Y61361D02*X72370D01*
X77370Y64161D02*X75370Y61361D01*
X78370D01*
X77370Y64161D02*Y59961D01*
X79770Y60361D02*X79570Y60161D01*
X79770Y59961D01*
X79970Y60161D01*
X79770Y60361D01*
X82370Y64161D02*X81770Y63961D01*
X81370Y63361D01*
X81170Y62361D01*
Y61761D01*
X81370Y60761D01*
X81770Y60161D01*
X82370Y59961D01*
X82770D01*
X83370Y60161D01*
X83770Y60761D01*
X83970Y61761D01*
Y62361D02*Y61761D01*
Y62361D02*X83770Y63361D01*
X83370Y63961D01*
X82770Y64161D01*
X82370D02*X82770D01*
X42063Y99926D02*X41663Y99726D01*
X41263Y99326D01*
X41063Y98726D01*
Y98326D01*
X41263Y97726D01*
X41663Y97326D01*
X42063Y97126D01*
X42663D01*
X43063Y97326D01*
X43463Y97726D01*
X43663Y98326D01*
Y98726D02*Y98326D01*
Y98726D02*X43463Y99326D01*
X43063Y99726D01*
X42663Y99926D01*
X42063D02*X42663D01*
X44863D02*Y95726D01*
Y99326D02*X45263Y99726D01*
X45663Y99926D01*
X46263D01*
X46663Y99726D01*
X47063Y99326D01*
X47263Y98726D01*
Y98326D01*
X47063Y97726D01*
X46663Y97326D01*
X46263Y97126D01*
X45663D02*X46263D01*
X45663D02*X45263Y97326D01*
X44863Y97726D01*
X48463Y98726D02*X50863D01*
Y99126D02*Y98726D01*
Y99126D02*X50663Y99526D01*
X50463Y99726D01*
X50063Y99926D01*
X49463D02*X50063D01*
X49463D02*X49063Y99726D01*
X48663Y99326D01*
X48463Y98726D01*
Y98326D01*
X48663Y97726D01*
X49063Y97326D01*
X49463Y97126D01*
X50063D01*
X50463Y97326D01*
X50863Y97726D01*
X52063Y99926D02*Y97126D01*
Y99126D02*X52663Y99726D01*
X53063Y99926D01*
X53663D01*
X54063Y99726D01*
X54263Y99126D01*
Y97126D01*
X58863Y99326D02*X58663Y99726D01*
X58063Y99926D01*
X57463D02*X58063D01*
X57463D02*X56863Y99726D01*
X56663Y99326D01*
X56863Y98926D01*
X57263Y98726D01*
X58263Y98526D01*
X58663Y98326D01*
X58863Y97926D01*
Y97726D01*
X58663Y97326D01*
X58063Y97126D01*
X57463D02*X58063D01*
X57463D02*X56863Y97326D01*
X56663Y97726D01*
X61063Y99926D02*X60663Y99726D01*
X60263Y99326D01*
X60063Y98726D01*
Y98326D01*
X60263Y97726D01*
X60663Y97326D01*
X61063Y97126D01*
X61663D01*
X62063Y97326D01*
X62463Y97726D01*
X62663Y98326D01*
Y98726D02*Y98326D01*
Y98726D02*X62463Y99326D01*
X62063Y99726D01*
X61663Y99926D01*
X61063D02*X61663D01*
X63863D02*Y97926D01*
X64063Y97326D01*
X64463Y97126D01*
X65063D01*
X65463Y97326D01*
X66063Y97926D01*
Y99926D02*Y97126D01*
X67263Y99926D02*Y97126D01*
Y98726D02*X67463Y99326D01*
X67863Y99726D01*
X68263Y99926D01*
X68863D01*
X72463Y99326D02*X72063Y99726D01*
X71663Y99926D01*
X71063D02*X71663D01*
X71063D02*X70663Y99726D01*
X70263Y99326D01*
X70063Y98726D01*
Y98326D01*
X70263Y97726D01*
X70663Y97326D01*
X71063Y97126D01*
X71663D01*
X72063Y97326D01*
X72463Y97726D01*
X73663Y98726D02*X76063D01*
Y99126D02*Y98726D01*
Y99126D02*X75863Y99526D01*
X75663Y99726D01*
X75263Y99926D01*
X74663D02*X75263D01*
X74663D02*X74263Y99726D01*
X73863Y99326D01*
X73663Y98726D01*
Y98326D01*
X73863Y97726D01*
X74263Y97326D01*
X74663Y97126D01*
X75263D01*
X75663Y97326D01*
X76063Y97726D01*
X46063Y91826D02*Y87626D01*
Y89626D02*X46663Y90226D01*
X47063Y90426D01*
X47663D01*
X48063Y90226D01*
X48263Y89626D01*
Y87626D01*
X51863Y90426D02*Y87626D01*
Y89826D02*X51463Y90226D01*
X51063Y90426D01*
X50463D02*X51063D01*
X50463D02*X50063Y90226D01*
X49663Y89826D01*
X49463Y89226D01*
Y88826D01*
X49663Y88226D01*
X50063Y87826D01*
X50463Y87626D01*
X51063D01*
X51463Y87826D01*
X51863Y88226D01*
X53063Y90426D02*Y87626D01*
Y89226D02*X53263Y89826D01*
X53663Y90226D01*
X54063Y90426D01*
X54663D01*
X58263Y91826D02*Y87626D01*
Y89826D02*X57863Y90226D01*
X57463Y90426D01*
X56863D02*X57463D01*
X56863D02*X56463Y90226D01*
X56063Y89826D01*
X55863Y89226D01*
Y88826D01*
X56063Y88226D01*
X56463Y87826D01*
X56863Y87626D01*
X57463D01*
X57863Y87826D01*
X58263Y88226D01*
X59463Y90426D02*X60263Y87626D01*
X61063Y90426D02*X60263Y87626D01*
X61063Y90426D02*X61863Y87626D01*
X62663Y90426D02*X61863Y87626D01*
X66263Y90426D02*Y87626D01*
Y89826D02*X65863Y90226D01*
X65463Y90426D01*
X64863D02*X65463D01*
X64863D02*X64463Y90226D01*
X64063Y89826D01*
X63863Y89226D01*
Y88826D01*
X64063Y88226D01*
X64463Y87826D01*
X64863Y87626D01*
X65463D01*
X65863Y87826D01*
X66263Y88226D01*
X67463Y90426D02*Y87626D01*
Y89226D02*X67663Y89826D01*
X68063Y90226D01*
X68463Y90426D01*
X69063D01*
X70263Y89226D02*X72663D01*
Y89626D02*Y89226D01*
Y89626D02*X72463Y90026D01*
X72263Y90226D01*
X71863Y90426D01*
X71263D02*X71863D01*
X71263D02*X70863Y90226D01*
X70463Y89826D01*
X70263Y89226D01*
Y88826D01*
X70463Y88226D01*
X70863Y87826D01*
X71263Y87626D01*
X71863D01*
X72263Y87826D01*
X72663Y88226D01*
G54D23*X39616Y81939D03*
Y67176D03*
G54D24*X40108Y80955D03*
G54D25*Y80463D03*
G54D26*Y79971D03*
G54D27*Y79479D03*
G54D28*Y78987D03*
G54D29*Y78494D03*
G54D30*Y78002D03*
G54D31*Y77510D03*
G54D32*Y77018D03*
G54D33*Y76526D03*
G54D34*Y76034D03*
G54D35*Y75542D03*
G54D36*Y75050D03*
Y74557D03*
G54D35*Y74065D03*
G54D34*Y73573D03*
G54D33*Y73081D03*
G54D32*Y72589D03*
G54D37*Y72097D03*
G54D30*Y71605D03*
G54D24*X40600Y81447D03*
G54D25*Y80955D03*
G54D38*Y80463D03*
G54D39*Y79971D03*
G54D40*Y79479D03*
G54D30*Y78987D03*
G54D31*Y78494D03*
G54D32*Y78002D03*
G54D35*Y77510D03*
G54D41*Y77018D03*
G54D42*Y76526D03*
G54D43*Y76034D03*
G54D44*Y75542D03*
G54D45*Y75050D03*
Y74557D03*
G54D44*Y74065D03*
G54D43*Y73573D03*
G54D42*Y73081D03*
G54D41*Y72589D03*
G54D35*Y72097D03*
G54D32*Y71605D03*
G54D25*X41092Y81447D03*
G54D38*Y80955D03*
G54D39*Y80463D03*
G54D29*Y79971D03*
G54D46*Y79479D03*
G54D47*Y78987D03*
G54D34*Y78494D03*
G54D48*Y78002D03*
G54D43*Y77510D03*
Y72097D03*
G54D48*Y71605D03*
G54D34*Y71113D03*
G54D26*X41584Y81447D03*
G54D39*Y80955D03*
G54D29*Y80463D03*
G54D46*Y79971D03*
G54D32*Y79479D03*
G54D36*Y78987D03*
G54D42*Y78494D03*
Y71113D03*
G54D35*Y70620D03*
G54D27*X42076Y81447D03*
G54D40*Y80955D03*
G54D46*Y80463D03*
G54D32*Y79971D03*
G54D36*Y79479D03*
G54D43*Y78987D03*
G54D49*Y75050D03*
Y74557D03*
G54D43*Y70620D03*
G54D36*Y70128D03*
G54D28*X42568Y81447D03*
G54D30*Y80955D03*
G54D47*Y80463D03*
G54D36*Y79971D03*
G54D43*Y79479D03*
G54D50*Y76526D03*
G54D23*Y76034D03*
Y75542D03*
Y75050D03*
Y74557D03*
Y74065D03*
Y73573D03*
Y73081D03*
G54D43*Y70128D03*
G54D35*Y69636D03*
G54D29*X43060Y81447D03*
G54D31*Y80955D03*
G54D34*Y80463D03*
G54D42*Y79971D03*
G54D36*Y77510D03*
G54D23*Y77018D03*
Y76526D03*
Y76034D03*
Y75542D03*
Y75050D03*
Y74557D03*
Y74065D03*
Y73573D03*
Y73081D03*
Y72589D03*
G54D51*Y72097D03*
G54D42*Y69636D03*
G54D34*Y69144D03*
G54D30*X43553Y81447D03*
G54D33*Y80955D03*
G54D48*Y80463D03*
G54D50*Y78002D03*
G54D23*Y77510D03*
Y77018D03*
Y76526D03*
G54D49*Y76034D03*
G54D52*Y73573D03*
G54D23*Y73081D03*
Y72589D03*
Y72097D03*
G54D50*Y71605D03*
G54D48*Y69144D03*
G54D53*Y68652D03*
G54D31*X44045Y81447D03*
G54D35*Y80955D03*
G54D43*Y80463D03*
G54D51*Y78494D03*
G54D23*Y78002D03*
Y77510D03*
Y77018D03*
G54D49*Y76526D03*
Y73081D03*
G54D23*Y72589D03*
Y72097D03*
Y71605D03*
G54D36*Y71113D03*
G54D43*Y69144D03*
G54D35*Y68652D03*
G54D32*X44537Y81447D03*
G54D48*Y80955D03*
G54D23*Y78494D03*
Y78002D03*
Y77510D03*
Y77018D03*
Y72589D03*
Y72097D03*
Y71605D03*
Y71113D03*
G54D41*Y68652D03*
G54D33*X45029Y81447D03*
G54D42*Y80955D03*
G54D50*Y78987D03*
G54D23*Y78494D03*
Y78002D03*
Y77510D03*
Y77018D03*
G54D51*Y75542D03*
G54D23*Y75050D03*
Y74557D03*
G54D50*Y74065D03*
G54D23*Y72589D03*
Y72097D03*
Y71605D03*
Y71113D03*
G54D50*Y70620D03*
G54D42*Y68652D03*
G54D49*Y68160D03*
G54D34*X45521Y81447D03*
G54D43*Y80955D03*
G54D23*Y78987D03*
Y78494D03*
Y78002D03*
Y77510D03*
Y77018D03*
G54D49*Y75542D03*
G54D23*Y75050D03*
Y74557D03*
G54D36*Y74065D03*
G54D23*Y72589D03*
Y72097D03*
Y71605D03*
Y71113D03*
Y70620D03*
G54D43*Y68652D03*
G54D34*Y68160D03*
G54D35*X46013Y81447D03*
G54D44*Y80955D03*
G54D23*Y78987D03*
Y78494D03*
Y78002D03*
Y77510D03*
Y77018D03*
Y75050D03*
Y74557D03*
Y72589D03*
Y72097D03*
Y71605D03*
Y71113D03*
Y70620D03*
G54D44*Y68652D03*
G54D35*Y68160D03*
G54D36*X46505Y81447D03*
G54D45*Y80955D03*
G54D49*Y79479D03*
G54D23*Y78987D03*
Y78494D03*
Y78002D03*
Y77510D03*
Y77018D03*
Y76526D03*
Y75050D03*
Y74557D03*
Y73081D03*
Y72589D03*
Y72097D03*
Y71605D03*
Y71113D03*
Y70620D03*
G54D49*Y70128D03*
G54D45*Y68652D03*
G54D36*Y68160D03*
X46997Y81447D03*
G54D45*Y80955D03*
G54D49*Y79479D03*
G54D23*Y78987D03*
Y78494D03*
Y78002D03*
Y77510D03*
Y77018D03*
Y76526D03*
G54D52*Y76034D03*
Y73573D03*
G54D23*Y73081D03*
Y72589D03*
Y72097D03*
Y71605D03*
Y71113D03*
Y70620D03*
G54D49*Y70128D03*
G54D45*Y68652D03*
G54D36*Y68160D03*
G54D35*X47490Y81447D03*
G54D44*Y80955D03*
G54D23*Y78987D03*
Y78494D03*
Y78002D03*
Y77510D03*
Y77018D03*
G54D49*Y76526D03*
G54D52*Y73081D03*
G54D23*Y72589D03*
Y72097D03*
Y71605D03*
Y71113D03*
Y70620D03*
G54D44*Y68652D03*
G54D35*Y68160D03*
X47982Y81447D03*
G54D43*Y80955D03*
G54D23*Y78987D03*
Y78494D03*
Y78002D03*
Y77510D03*
Y77018D03*
Y72589D03*
Y72097D03*
Y71605D03*
Y71113D03*
Y70620D03*
G54D43*Y68652D03*
G54D34*Y68160D03*
G54D33*X48474Y81447D03*
G54D42*Y80955D03*
G54D23*Y78987D03*
Y78494D03*
Y78002D03*
Y77510D03*
Y77018D03*
G54D51*Y75542D03*
G54D23*Y75050D03*
Y74557D03*
G54D50*Y74065D03*
G54D23*Y72589D03*
Y72097D03*
Y71605D03*
Y71113D03*
G54D50*Y70620D03*
G54D42*Y68652D03*
G54D49*Y68160D03*
G54D32*X48966Y81447D03*
G54D48*Y80955D03*
G54D23*Y78494D03*
Y78002D03*
Y77510D03*
Y77018D03*
G54D52*Y75542D03*
G54D23*Y75050D03*
Y74557D03*
G54D36*Y74065D03*
G54D23*Y72589D03*
Y72097D03*
Y71605D03*
Y71113D03*
G54D48*Y68652D03*
G54D31*X49458Y81447D03*
G54D35*Y80955D03*
G54D43*Y80463D03*
G54D50*Y78494D03*
G54D23*Y78002D03*
Y77510D03*
Y77018D03*
Y75050D03*
Y74557D03*
Y72589D03*
Y72097D03*
Y71605D03*
G54D51*Y71113D03*
G54D43*Y69144D03*
G54D35*Y68652D03*
G54D46*X49950Y81447D03*
G54D33*Y80955D03*
G54D48*Y80463D03*
G54D50*Y78002D03*
G54D23*Y77510D03*
Y77018D03*
Y76526D03*
Y75050D03*
Y74557D03*
Y73081D03*
Y72589D03*
Y72097D03*
G54D50*Y71605D03*
G54D48*Y69144D03*
G54D54*Y68652D03*
G54D29*X50442Y81447D03*
G54D31*Y80955D03*
G54D35*Y80463D03*
G54D42*Y79971D03*
G54D50*Y77510D03*
G54D23*Y77018D03*
Y76526D03*
Y76034D03*
Y75542D03*
Y75050D03*
Y74557D03*
Y74065D03*
Y73573D03*
Y73081D03*
Y72589D03*
G54D50*Y72097D03*
G54D42*Y69636D03*
G54D34*Y69144D03*
G54D28*X50934Y81447D03*
G54D30*Y80955D03*
G54D32*Y80463D03*
G54D36*Y79971D03*
G54D30*Y79479D03*
G54D23*Y76526D03*
Y76034D03*
Y75542D03*
Y75050D03*
Y74557D03*
Y74065D03*
Y73573D03*
Y73081D03*
G54D43*Y70128D03*
G54D36*Y69636D03*
G54D27*X51427Y81447D03*
G54D29*Y80955D03*
G54D46*Y80463D03*
G54D33*Y79971D03*
G54D41*Y79479D03*
G54D30*Y78987D03*
G54D49*Y75050D03*
Y74557D03*
G54D43*Y70620D03*
G54D41*Y70128D03*
G54D26*X51919Y81447D03*
G54D39*Y80955D03*
G54D29*Y80463D03*
G54D37*Y79971D03*
G54D33*Y79479D03*
G54D36*Y78987D03*
G54D42*Y78494D03*
Y71113D03*
G54D36*Y70620D03*
G54D25*X52411Y81447D03*
G54D38*Y80955D03*
G54D39*Y80463D03*
G54D29*Y79971D03*
G54D46*Y79479D03*
G54D32*Y78987D03*
G54D35*Y78494D03*
G54D48*Y78002D03*
G54D43*Y77510D03*
Y72097D03*
G54D48*Y71605D03*
G54D34*Y71113D03*
G54D24*X52903Y81447D03*
G54D25*Y80955D03*
G54D38*Y80463D03*
G54D39*Y79971D03*
G54D29*Y79479D03*
G54D30*Y78987D03*
G54D31*Y78494D03*
G54D33*Y78002D03*
G54D35*Y77510D03*
G54D48*Y77018D03*
G54D42*Y76526D03*
G54D43*Y76034D03*
G54D44*Y75542D03*
G54D45*Y75050D03*
Y74557D03*
G54D44*Y74065D03*
G54D43*Y73573D03*
G54D42*Y73081D03*
G54D48*Y72589D03*
G54D35*Y72097D03*
G54D33*Y71605D03*
G54D55*X53395Y81447D03*
G54D24*Y80955D03*
G54D25*Y80463D03*
G54D26*Y79971D03*
G54D27*Y79479D03*
G54D28*Y78987D03*
G54D29*Y78494D03*
G54D46*Y78002D03*
G54D31*Y77510D03*
G54D32*Y77018D03*
G54D33*Y76526D03*
G54D35*Y76034D03*
Y75542D03*
G54D36*Y75050D03*
Y74557D03*
G54D35*Y74065D03*
G54D34*Y73573D03*
G54D33*Y73081D03*
G54D32*Y72589D03*
G54D31*Y72097D03*
G54D30*Y71605D03*
G54D56*X53887Y81447D03*
G54D55*Y80955D03*
G54D24*Y80463D03*
G54D25*Y79971D03*
G54D26*Y79479D03*
G54D57*Y78987D03*
G54D39*Y78494D03*
G54D40*Y78002D03*
G54D29*Y77510D03*
G54D30*Y77018D03*
G54D46*Y76526D03*
G54D37*Y76034D03*
G54D31*Y75542D03*
Y75050D03*
Y74557D03*
Y74065D03*
G54D37*Y73573D03*
G54D46*Y73081D03*
G54D58*Y72589D03*
G54D29*Y72097D03*
G54D28*Y71605D03*
G54D59*X54379Y81447D03*
G54D56*Y80955D03*
G54D55*Y80463D03*
G54D60*Y79971D03*
G54D61*Y79479D03*
G54D62*Y78987D03*
G54D26*Y78494D03*
G54D57*Y78002D03*
G54D27*Y77510D03*
G54D39*Y77018D03*
G54D40*Y76526D03*
G54D29*Y76034D03*
Y75542D03*
Y75050D03*
Y74557D03*
Y74065D03*
Y73573D03*
G54D40*Y73081D03*
G54D39*Y72589D03*
G54D27*Y72097D03*
G54D57*Y71605D03*
G54D63*X54871Y81447D03*
G54D59*Y80955D03*
G54D64*Y80463D03*
G54D56*Y79971D03*
G54D55*Y79479D03*
G54D24*Y78987D03*
G54D61*Y78494D03*
G54D25*Y78002D03*
G54D26*Y77510D03*
G54D38*Y77018D03*
G54D57*Y76526D03*
G54D49*Y76034D03*
G54D27*Y75542D03*
Y75050D03*
Y74557D03*
Y74065D03*
G54D49*Y73573D03*
G54D38*Y73081D03*
G54D26*Y72589D03*
Y72097D03*
G54D25*Y71605D03*
G54D53*X55364Y81447D03*
G54D63*Y80955D03*
G54D59*Y80463D03*
G54D64*Y79971D03*
G54D56*Y79479D03*
Y78987D03*
G54D55*Y78494D03*
G54D60*Y78002D03*
G54D24*Y77510D03*
G54D61*Y77018D03*
G54D25*Y76526D03*
G54D62*Y76034D03*
Y75542D03*
Y75050D03*
Y74557D03*
Y74065D03*
Y73573D03*
G54D25*Y73081D03*
G54D61*Y72589D03*
G54D24*Y72097D03*
G54D60*Y71605D03*
G54D53*X55856Y81447D03*
Y80955D03*
G54D54*Y80463D03*
G54D63*Y79971D03*
G54D59*Y79479D03*
G54D64*Y78987D03*
Y78494D03*
G54D56*Y78002D03*
G54D55*Y77510D03*
Y77018D03*
G54D60*Y76526D03*
Y76034D03*
G54D24*Y75542D03*
Y75050D03*
Y74557D03*
Y74065D03*
G54D60*Y73573D03*
Y73081D03*
G54D55*Y72589D03*
Y72097D03*
G54D56*Y71605D03*
G54D65*X56348Y81447D03*
Y80955D03*
G54D53*Y80463D03*
Y79971D03*
G54D54*Y79479D03*
G54D63*Y78987D03*
Y78494D03*
G54D59*Y78002D03*
G54D64*Y77510D03*
Y77018D03*
G54D56*Y76526D03*
Y76034D03*
Y75542D03*
Y75050D03*
Y74557D03*
Y74065D03*
Y73573D03*
Y73081D03*
G54D64*Y72589D03*
Y72097D03*
G54D59*Y71605D03*
G54D52*X56840Y81447D03*
G54D65*Y80955D03*
Y80463D03*
Y79971D03*
G54D53*Y79479D03*
Y78987D03*
Y78494D03*
G54D54*Y78002D03*
G54D63*Y77510D03*
Y77018D03*
Y76526D03*
G54D59*Y76034D03*
Y75542D03*
Y75050D03*
Y74557D03*
Y74065D03*
Y73573D03*
G54D63*Y73081D03*
Y72589D03*
Y72097D03*
G54D54*Y71605D03*
G54D52*X57332Y81447D03*
Y80955D03*
Y80463D03*
G54D65*Y79971D03*
Y79479D03*
Y78987D03*
Y78494D03*
Y78002D03*
G54D53*Y77510D03*
Y77018D03*
Y76526D03*
Y76034D03*
Y75542D03*
Y75050D03*
Y74557D03*
Y74065D03*
Y73573D03*
Y73081D03*
Y72589D03*
Y72097D03*
G54D65*Y71605D03*
G54D52*X57824Y81447D03*
Y80955D03*
Y80463D03*
Y79971D03*
Y79479D03*
Y78987D03*
G54D65*Y78494D03*
Y78002D03*
Y77510D03*
Y77018D03*
Y76526D03*
Y76034D03*
Y75542D03*
Y75050D03*
Y74557D03*
Y74065D03*
Y73573D03*
Y73081D03*
Y72589D03*
Y72097D03*
Y71605D03*
G54D52*X58316Y81447D03*
Y80955D03*
Y80463D03*
Y79971D03*
Y79479D03*
Y78987D03*
Y74557D03*
Y74065D03*
Y73573D03*
Y73081D03*
Y72589D03*
Y72097D03*
Y71605D03*
X58808Y81447D03*
Y80955D03*
Y80463D03*
Y79971D03*
Y73573D03*
Y73081D03*
Y72589D03*
Y72097D03*
Y71605D03*
X59301Y81447D03*
Y80955D03*
Y80463D03*
G54D51*Y78002D03*
G54D23*Y77510D03*
Y77018D03*
Y76526D03*
Y76034D03*
G54D51*Y75542D03*
G54D52*Y73081D03*
Y72589D03*
Y72097D03*
Y71605D03*
X59793Y81447D03*
Y80955D03*
Y80463D03*
G54D45*Y78494D03*
G54D23*Y78002D03*
Y77510D03*
Y77018D03*
Y76526D03*
Y76034D03*
Y75542D03*
Y75050D03*
G54D52*Y73081D03*
Y72589D03*
Y72097D03*
Y71605D03*
G54D23*Y70128D03*
Y69636D03*
Y69144D03*
Y68652D03*
Y68160D03*
G54D52*X60285Y81447D03*
Y80955D03*
G54D23*Y78987D03*
Y78494D03*
Y78002D03*
Y77510D03*
Y77018D03*
Y76526D03*
Y76034D03*
Y75542D03*
Y75050D03*
Y74557D03*
G54D52*Y72589D03*
Y72097D03*
Y71605D03*
G54D23*Y70128D03*
Y69144D03*
Y68160D03*
G54D52*X60777Y81447D03*
Y80955D03*
G54D51*Y79479D03*
G54D23*Y78987D03*
Y78494D03*
Y78002D03*
Y77510D03*
Y77018D03*
Y76526D03*
Y76034D03*
Y75542D03*
Y75050D03*
Y74557D03*
G54D51*Y74065D03*
G54D52*Y72589D03*
Y72097D03*
Y71605D03*
G54D23*Y70128D03*
Y69144D03*
Y68160D03*
G54D52*X61269Y81447D03*
Y80955D03*
G54D23*Y79479D03*
Y78987D03*
Y78494D03*
Y78002D03*
Y75542D03*
Y75050D03*
Y74557D03*
Y74065D03*
G54D52*Y72589D03*
Y72097D03*
Y71605D03*
G54D23*Y69636D03*
Y68652D03*
G54D52*X61761Y81447D03*
Y80955D03*
G54D23*Y79479D03*
Y78002D03*
Y74065D03*
G54D52*Y72589D03*
Y72097D03*
Y71605D03*
X62253Y81447D03*
Y80955D03*
G54D23*Y79479D03*
Y78002D03*
Y74065D03*
G54D52*Y72589D03*
Y72097D03*
Y71605D03*
G54D23*Y70128D03*
G54D52*X62745Y81447D03*
Y80955D03*
G54D23*Y79479D03*
Y78987D03*
Y78494D03*
Y78002D03*
Y75542D03*
Y75050D03*
Y74557D03*
Y74065D03*
G54D52*Y72589D03*
Y72097D03*
Y71605D03*
G54D23*Y69636D03*
G54D52*X63238Y81447D03*
Y80955D03*
G54D51*Y79479D03*
G54D23*Y78987D03*
Y78494D03*
Y78002D03*
Y77510D03*
Y77018D03*
Y76526D03*
Y76034D03*
Y75542D03*
Y75050D03*
Y74557D03*
G54D51*Y74065D03*
G54D52*Y72589D03*
Y72097D03*
Y71605D03*
G54D23*Y69144D03*
Y68652D03*
Y68160D03*
G54D52*X63730Y81447D03*
Y80955D03*
G54D23*Y78987D03*
Y78494D03*
Y78002D03*
Y77510D03*
Y77018D03*
Y76526D03*
Y76034D03*
Y75542D03*
Y75050D03*
Y74557D03*
G54D52*Y72589D03*
Y72097D03*
Y71605D03*
G54D23*Y69636D03*
G54D52*X64222Y81447D03*
Y80955D03*
Y80463D03*
G54D23*Y78494D03*
Y78002D03*
Y77510D03*
Y77018D03*
Y76526D03*
Y76034D03*
Y75542D03*
Y75050D03*
G54D52*Y73081D03*
Y72589D03*
Y72097D03*
Y71605D03*
G54D23*Y70128D03*
G54D52*X64714Y81447D03*
Y80955D03*
Y80463D03*
G54D51*Y78002D03*
G54D23*Y77510D03*
Y77018D03*
Y76526D03*
Y76034D03*
G54D51*Y75542D03*
G54D52*Y73081D03*
Y72589D03*
Y72097D03*
Y71605D03*
X65206Y81447D03*
Y80955D03*
Y80463D03*
Y79971D03*
Y73573D03*
Y73081D03*
Y72589D03*
Y72097D03*
Y71605D03*
X65698Y81447D03*
Y80955D03*
Y80463D03*
Y79971D03*
Y79479D03*
Y78987D03*
Y74557D03*
Y74065D03*
Y73573D03*
Y73081D03*
Y72589D03*
Y72097D03*
Y71605D03*
X66190Y81447D03*
Y80955D03*
Y80463D03*
Y79971D03*
Y79479D03*
Y78987D03*
Y78494D03*
Y78002D03*
Y77510D03*
Y77018D03*
Y76526D03*
Y76034D03*
Y75542D03*
Y75050D03*
Y74557D03*
Y74065D03*
Y73573D03*
Y73081D03*
Y72589D03*
Y72097D03*
Y71605D03*
X66682Y81447D03*
Y80955D03*
Y80463D03*
Y79971D03*
Y79479D03*
Y78987D03*
Y78494D03*
Y78002D03*
Y77510D03*
Y77018D03*
Y76526D03*
Y76034D03*
Y75542D03*
Y75050D03*
Y74557D03*
Y74065D03*
Y73573D03*
Y73081D03*
Y72589D03*
Y72097D03*
Y71605D03*
X67175Y81447D03*
Y80955D03*
Y80463D03*
Y79971D03*
Y79479D03*
Y78987D03*
Y78494D03*
Y78002D03*
Y77510D03*
Y77018D03*
Y76526D03*
Y76034D03*
Y75542D03*
Y75050D03*
Y74557D03*
Y74065D03*
Y73573D03*
Y73081D03*
Y72589D03*
Y72097D03*
Y71605D03*
X67667Y81447D03*
Y80955D03*
Y80463D03*
Y79971D03*
Y79479D03*
Y78987D03*
Y78494D03*
Y78002D03*
Y77510D03*
Y77018D03*
Y76526D03*
Y76034D03*
Y75542D03*
Y75050D03*
Y74557D03*
Y74065D03*
Y73573D03*
Y73081D03*
Y72589D03*
Y72097D03*
Y71605D03*
X68159Y81447D03*
Y80955D03*
Y80463D03*
Y79971D03*
Y79479D03*
Y78987D03*
Y78494D03*
Y78002D03*
Y77510D03*
Y77018D03*
Y76526D03*
Y76034D03*
Y75542D03*
Y75050D03*
Y74557D03*
Y74065D03*
Y73573D03*
Y73081D03*
Y72589D03*
Y72097D03*
Y71605D03*
X68651Y81447D03*
Y80955D03*
Y80463D03*
Y79971D03*
Y79479D03*
Y78987D03*
Y78494D03*
Y78002D03*
Y77510D03*
Y77018D03*
Y76526D03*
Y76034D03*
Y75542D03*
Y75050D03*
Y74557D03*
Y74065D03*
Y73573D03*
Y73081D03*
Y72589D03*
Y72097D03*
Y71605D03*
X69143Y81447D03*
Y80955D03*
Y80463D03*
Y79971D03*
Y79479D03*
Y78987D03*
Y78494D03*
Y78002D03*
Y77510D03*
Y77018D03*
Y76526D03*
Y76034D03*
Y75542D03*
Y75050D03*
Y74557D03*
Y74065D03*
Y73573D03*
Y73081D03*
Y72589D03*
Y72097D03*
Y71605D03*
X69635Y81447D03*
Y80955D03*
Y80463D03*
Y79971D03*
Y79479D03*
Y78987D03*
Y78494D03*
Y78002D03*
Y77510D03*
Y77018D03*
Y76526D03*
Y76034D03*
Y75542D03*
Y75050D03*
Y74557D03*
Y74065D03*
Y73573D03*
Y73081D03*
Y72589D03*
Y72097D03*
Y71605D03*
X70127Y81447D03*
Y80955D03*
Y80463D03*
Y79971D03*
Y79479D03*
Y78987D03*
Y74557D03*
Y74065D03*
Y73573D03*
Y73081D03*
Y72589D03*
Y72097D03*
Y71605D03*
X70620Y81447D03*
Y80955D03*
Y80463D03*
Y79971D03*
Y73573D03*
Y73081D03*
Y72589D03*
Y72097D03*
Y71605D03*
X71112Y81447D03*
Y80955D03*
Y80463D03*
G54D51*Y78002D03*
G54D23*Y77510D03*
Y77018D03*
Y76526D03*
Y76034D03*
G54D51*Y75542D03*
G54D52*Y73081D03*
Y72589D03*
Y72097D03*
Y71605D03*
X71604Y81447D03*
Y80955D03*
Y80463D03*
G54D45*Y78494D03*
G54D23*Y78002D03*
G54D66*Y77510D03*
Y77018D03*
G54D23*Y76526D03*
Y76034D03*
Y75542D03*
Y75050D03*
G54D52*Y73081D03*
Y72589D03*
Y72097D03*
Y71605D03*
G54D23*Y69636D03*
Y68160D03*
G54D52*X72096Y81447D03*
Y80955D03*
G54D23*Y78987D03*
Y78494D03*
G54D46*Y78002D03*
G54D56*Y76526D03*
G54D61*Y76034D03*
G54D23*Y75050D03*
Y74557D03*
G54D52*Y72589D03*
Y72097D03*
Y71605D03*
G54D23*Y70128D03*
Y69144D03*
Y68160D03*
G54D52*X72588Y81447D03*
Y80955D03*
G54D51*Y79479D03*
G54D23*Y78987D03*
Y74557D03*
G54D51*Y74065D03*
G54D52*Y72589D03*
Y72097D03*
Y71605D03*
G54D23*Y70128D03*
Y69144D03*
Y68160D03*
G54D52*X73080Y81447D03*
Y80955D03*
G54D23*Y79479D03*
G54D67*Y78987D03*
G54D49*Y76526D03*
G54D37*Y76034D03*
G54D47*Y74557D03*
G54D23*Y74065D03*
G54D52*Y72589D03*
Y72097D03*
Y71605D03*
G54D23*Y70128D03*
Y68652D03*
G54D52*X73572Y81447D03*
Y80955D03*
G54D23*Y79479D03*
G54D46*Y78987D03*
G54D23*Y77510D03*
Y77018D03*
Y76526D03*
Y76034D03*
G54D68*Y74557D03*
G54D23*Y74065D03*
G54D52*Y72589D03*
Y72097D03*
Y71605D03*
X74064Y81447D03*
Y80955D03*
G54D23*Y79479D03*
G54D46*Y78987D03*
G54D23*Y77510D03*
Y77018D03*
Y76526D03*
Y76034D03*
G54D68*Y74557D03*
G54D23*Y74065D03*
G54D52*Y72589D03*
Y72097D03*
Y71605D03*
G54D23*Y69636D03*
Y69144D03*
Y68652D03*
Y68160D03*
G54D52*X74557Y81447D03*
Y80955D03*
G54D23*Y79479D03*
G54D67*Y78987D03*
Y77018D03*
Y76526D03*
G54D68*Y76034D03*
G54D45*Y74557D03*
G54D23*Y74065D03*
G54D52*Y72589D03*
Y72097D03*
Y71605D03*
G54D23*Y70128D03*
Y69144D03*
G54D52*X75049Y81447D03*
Y80955D03*
G54D51*Y79479D03*
G54D23*Y78987D03*
G54D61*Y78494D03*
G54D23*Y74557D03*
G54D51*Y74065D03*
G54D52*Y72589D03*
Y72097D03*
Y71605D03*
G54D23*Y70128D03*
Y69144D03*
G54D52*X75541Y81447D03*
Y80955D03*
G54D23*Y78987D03*
Y78494D03*
G54D66*Y75050D03*
G54D23*Y74557D03*
G54D52*Y72589D03*
Y72097D03*
Y71605D03*
G54D23*Y69636D03*
Y69144D03*
Y68652D03*
Y68160D03*
G54D52*X76033Y81447D03*
Y80955D03*
Y80463D03*
G54D23*Y78494D03*
Y78002D03*
Y77510D03*
G54D69*Y77018D03*
G54D70*Y76526D03*
G54D23*Y76034D03*
Y75542D03*
Y75050D03*
G54D52*Y73081D03*
Y72589D03*
Y72097D03*
Y71605D03*
X76525Y81447D03*
Y80955D03*
Y80463D03*
G54D51*Y78002D03*
G54D23*Y77510D03*
Y77018D03*
Y76526D03*
Y76034D03*
G54D51*Y75542D03*
G54D52*Y73081D03*
Y72589D03*
Y72097D03*
Y71605D03*
X77017Y81447D03*
Y80955D03*
Y80463D03*
Y79971D03*
Y73573D03*
Y73081D03*
Y72589D03*
Y72097D03*
Y71605D03*
X77509Y81447D03*
Y80955D03*
Y80463D03*
Y79971D03*
Y79479D03*
Y78987D03*
Y74557D03*
Y74065D03*
Y73573D03*
Y73081D03*
Y72589D03*
Y72097D03*
Y71605D03*
X78001Y81447D03*
Y80955D03*
Y80463D03*
Y79971D03*
Y79479D03*
Y78987D03*
Y78494D03*
Y78002D03*
Y77510D03*
Y77018D03*
Y76526D03*
Y76034D03*
Y75542D03*
Y75050D03*
Y74557D03*
Y74065D03*
Y73573D03*
Y73081D03*
Y72589D03*
Y72097D03*
Y71605D03*
X78494Y81447D03*
Y80955D03*
Y80463D03*
Y79971D03*
Y79479D03*
Y78987D03*
Y78494D03*
Y78002D03*
Y77510D03*
Y77018D03*
Y76526D03*
Y76034D03*
Y75542D03*
Y75050D03*
Y74557D03*
Y74065D03*
Y73573D03*
Y73081D03*
Y72589D03*
Y72097D03*
Y71605D03*
X78986Y81447D03*
Y80955D03*
Y80463D03*
Y79971D03*
Y79479D03*
Y78987D03*
Y78494D03*
Y78002D03*
Y77510D03*
Y77018D03*
Y76526D03*
Y76034D03*
Y75542D03*
Y75050D03*
Y74557D03*
Y74065D03*
Y73573D03*
Y73081D03*
Y72589D03*
Y72097D03*
Y71605D03*
X79478Y81447D03*
Y80955D03*
Y80463D03*
Y79971D03*
Y79479D03*
Y78987D03*
Y78494D03*
Y78002D03*
Y77510D03*
Y77018D03*
Y76526D03*
Y76034D03*
Y75542D03*
Y75050D03*
Y74557D03*
Y74065D03*
Y73573D03*
Y73081D03*
Y72589D03*
Y72097D03*
Y71605D03*
X79970Y81447D03*
Y80955D03*
Y80463D03*
Y79971D03*
Y79479D03*
Y78987D03*
Y78494D03*
Y78002D03*
Y77510D03*
Y77018D03*
Y76526D03*
Y76034D03*
Y75542D03*
Y75050D03*
Y74557D03*
Y74065D03*
Y73573D03*
Y73081D03*
Y72589D03*
Y72097D03*
Y71605D03*
X80462Y81447D03*
Y80955D03*
Y80463D03*
Y79971D03*
Y79479D03*
Y78987D03*
Y78494D03*
Y78002D03*
Y77510D03*
Y77018D03*
Y76526D03*
Y76034D03*
Y75542D03*
Y75050D03*
Y74557D03*
Y74065D03*
Y73573D03*
Y73081D03*
Y72589D03*
Y72097D03*
Y71605D03*
X80954Y81447D03*
Y80955D03*
Y80463D03*
Y79971D03*
Y79479D03*
Y78987D03*
Y78494D03*
Y78002D03*
Y77510D03*
Y77018D03*
Y76526D03*
Y76034D03*
Y75542D03*
Y75050D03*
Y74557D03*
Y74065D03*
Y73573D03*
Y73081D03*
Y72589D03*
Y72097D03*
Y71605D03*
X81446Y81447D03*
Y80955D03*
Y80463D03*
Y79971D03*
Y79479D03*
Y78987D03*
Y78494D03*
Y78002D03*
Y77510D03*
Y77018D03*
Y76526D03*
Y76034D03*
Y75542D03*
Y75050D03*
Y74557D03*
Y74065D03*
Y73573D03*
Y73081D03*
Y72589D03*
Y72097D03*
Y71605D03*
X81938Y80955D03*
Y80463D03*
Y79971D03*
Y79479D03*
Y78987D03*
Y78494D03*
Y78002D03*
Y77510D03*
Y77018D03*
Y76526D03*
Y76034D03*
Y75542D03*
Y75050D03*
Y74557D03*
Y74065D03*
Y73573D03*
Y73081D03*
Y72589D03*
Y72097D03*
Y71605D03*
G54D23*X82431Y81939D03*
Y67176D03*
G54D22*X7969Y166186D02*Y161986D01*
Y165586D02*X8369Y165986D01*
X8769Y166186D01*
X9369D01*
X9769Y165986D01*
X10169Y165586D01*
X10369Y164986D01*
Y164586D01*
X10169Y163986D01*
X9769Y163586D01*
X9369Y163386D01*
X8769D02*X9369D01*
X8769D02*X8369Y163586D01*
X7969Y163986D01*
X11969Y167586D02*X14169D01*
X12969Y165986D01*
X13569D01*
X13969Y165786D01*
X14169Y165586D01*
X14369Y164986D01*
Y164586D01*
X14169Y163986D01*
X13769Y163586D01*
X13169Y163386D01*
X12569D02*X13169D01*
X12569D02*X11969Y163586D01*
X11769Y163786D01*
X11569Y164186D01*
X7969Y53981D02*Y49781D01*
Y53381D02*X8369Y53781D01*
X8769Y53981D01*
X9369D01*
X9769Y53781D01*
X10169Y53381D01*
X10369Y52781D01*
Y52381D01*
X10169Y51781D01*
X9769Y51381D01*
X9369Y51181D01*
X8769D02*X9369D01*
X8769D02*X8369Y51381D01*
X7969Y51781D01*
X13569Y55381D02*X11569Y52581D01*
X14569D01*
X13569Y55381D02*Y51181D01*
X49307Y12643D02*Y8443D01*
Y12043D02*X49707Y12443D01*
X50107Y12643D01*
X50707D01*
X51107Y12443D01*
X51507Y12043D01*
X51707Y11443D01*
Y11043D01*
X51507Y10443D01*
X51107Y10043D01*
X50707Y9843D01*
X50107D02*X50707D01*
X50107D02*X49707Y10043D01*
X49307Y10443D01*
X52907Y13243D02*X53307Y13443D01*
X53907Y14043D01*
Y9843D01*
X163480Y12643D02*Y8443D01*
Y12043D02*X163880Y12443D01*
X164280Y12643D01*
X164880D01*
X165280Y12443D01*
X165680Y12043D01*
X165880Y11443D01*
Y11043D01*
X165680Y10443D01*
X165280Y10043D01*
X164880Y9843D01*
X164280D02*X164880D01*
X164280D02*X163880Y10043D01*
X163480Y10443D01*
X167280Y13243D02*Y13043D01*
Y13243D02*X167480Y13643D01*
X167680Y13843D01*
X168080Y14043D01*
X168880D01*
X169280Y13843D01*
X169480Y13643D01*
X169680Y13243D01*
Y12843D01*
X169480Y12443D01*
X169080Y11843D01*
X167080Y9843D01*
X169880D01*
M02*
