G04 start of page 10 for group -4079 idx -4079 *
G04 Title: 26.002.00.01.01.pcb, topsilk *
G04 Creator: pcb 4.1.2 *
G04 CreationDate: Tue Aug  7 21:16:31 2018 UTC *
G04 For: bert *
G04 Format: Gerber/RS-274X *
G04 PCB-Dimensions (mil): 2440.94 4527.56 *
G04 PCB-Coordinate-Origin: lower left *
%MOIN*%
%FSLAX25Y25*%
%LNGTO*%
%ADD105C,0.0000*%
%ADD104C,0.0100*%
%ADD103C,0.0080*%
G54D103*X39371Y39370D02*X204725Y39370D01*
Y413386D02*X39371D01*
X204725D02*Y39370D01*
X39371Y39370D02*X39370Y413386D01*
G54D104*X129606Y296086D02*X169606D01*
X129606Y280686D02*X169606D01*
X129606Y296086D02*Y280686D01*
X169606Y296086D02*Y280686D01*
X119306Y288386D02*X129606D01*
X169606D02*X179906D01*
X124241Y191670D02*Y181670D01*
X175421Y191670D02*Y181670D01*
X169831Y178170D02*Y166670D01*
G54D105*Y178170D02*Y166670D01*
G54D104*X189231Y225670D02*G75*G03X189231Y225670I-39400J0D01*G01*
X115207Y118268D02*Y98268D01*
X139607Y73868D02*X159607D01*
X184007Y98268D02*Y118268D01*
X139607Y142668D02*X159607D01*
X115207Y98268D02*X139607Y73868D01*
G54D105*X109607Y148268D02*Y96268D01*
X137607Y68268D02*X189607D01*
Y148268D01*
X109607D01*
X137607Y68268D02*X109607Y96268D01*
G54D104*X130907Y108268D02*G75*G03X130907Y108268I18700J0D01*G01*
X133607D02*G75*G03X133607Y108268I16000J0D01*G01*
X104331Y128327D02*Y125827D01*
Y145827D02*Y143327D01*
X101831D02*Y128327D01*
Y143327D02*X106831D01*
Y128327D01*
X101831D02*X106831D01*
X40276Y381378D02*X50276D01*
X40276Y71378D02*X50276D01*
X40276Y381378D02*Y71378D01*
X50276Y381378D02*Y71378D01*
X60866Y229106D02*X80866D01*
Y70106D01*
X60866D02*X80866D01*
X60866Y229106D02*Y70106D01*
X55867Y324489D02*X85867D01*
Y364489D01*
X55867D01*
Y324489D01*
X134607D02*X164607D01*
Y364489D01*
X134607D01*
Y324489D01*
X120237Y338789D02*Y350189D01*
X120196Y350239D02*G75*G03X120196Y338739I-9959J-5750D01*G01*
X129306Y307087D02*X137706D01*
X161506D02*X169906D01*
X137706Y311587D02*Y302587D01*
X161506Y311587D02*Y302587D01*
X137706Y311587D02*X161506D01*
X137706Y302587D02*X161506D01*
G54D103*X113859Y299885D02*X115859D01*
X116359Y299385D01*
Y298385D01*
X115859Y297885D02*X116359Y298385D01*
X114359Y297885D02*X115859D01*
X114359Y299885D02*Y295885D01*
Y297885D02*X116359Y295885D01*
X117559Y299385D02*X118059Y299885D01*
X119559D01*
X120059Y299385D01*
Y298385D01*
X117559Y295885D02*X120059Y298385D01*
X117559Y295885D02*X120059D01*
X121259Y296385D02*X121759Y295885D01*
X121259Y299385D02*Y296385D01*
Y299385D02*X121759Y299885D01*
X122759D01*
X123259Y299385D01*
Y296385D01*
X122759Y295885D02*X123259Y296385D01*
X121759Y295885D02*X122759D01*
X121259Y296885D02*X123259Y298885D01*
X124459Y295885D02*X126959Y298385D01*
Y299885D02*Y298385D01*
X124459Y299885D02*X126959D01*
X143733Y320867D02*X144233Y320367D01*
X142233Y320867D02*X143733D01*
X141733Y320367D02*X142233Y320867D01*
X141733Y320367D02*Y319367D01*
X142233Y318867D01*
X143733D01*
X144233Y318367D01*
Y317367D01*
X143733Y316867D02*X144233Y317367D01*
X142233Y316867D02*X143733D01*
X141733Y317367D02*X142233Y316867D01*
X145433Y320367D02*X145933Y320867D01*
X147433D01*
X147933Y320367D01*
Y319367D01*
X145433Y316867D02*X147933Y319367D01*
X145433Y316867D02*X147933D01*
X149133Y317367D02*X149633Y316867D01*
X149133Y320367D02*Y317367D01*
Y320367D02*X149633Y320867D01*
X150633D01*
X151133Y320367D01*
Y317367D01*
X150633Y316867D02*X151133Y317367D01*
X149633Y316867D02*X150633D01*
X149133Y317867D02*X151133Y319867D01*
X152833Y316867D02*X153833D01*
X153333Y320867D02*Y316867D01*
X152333Y319867D02*X153333Y320867D01*
X123700Y316619D02*X125700D01*
X126200Y316119D01*
Y315119D01*
X125700Y314619D02*X126200Y315119D01*
X124200Y314619D02*X125700D01*
X124200Y316619D02*Y312619D01*
Y314619D02*X126200Y312619D01*
X127400Y316119D02*X127900Y316619D01*
X129400D01*
X129900Y316119D01*
Y315119D01*
X127400Y312619D02*X129900Y315119D01*
X127400Y312619D02*X129900D01*
X131600D02*X132600D01*
X132100Y316619D02*Y312619D01*
X131100Y315619D02*X132100Y316619D01*
X134300Y312619D02*X135300D01*
X134800Y316619D02*Y312619D01*
X133800Y315619D02*X134800Y316619D01*
X75398Y32028D02*Y29028D01*
X74898Y32528D02*X75398Y32028D01*
X75898Y32528D01*
X76898D01*
X77398Y32028D01*
Y31028D01*
X76898Y30528D02*X77398Y31028D01*
X75898Y30528D02*X76898D01*
X75398Y31028D02*X75898Y30528D01*
X78598Y34028D02*X79098Y34528D01*
X80098D01*
X80598Y34028D01*
Y31028D01*
X80098Y30528D02*X80598Y31028D01*
X79098Y30528D02*X80098D01*
X78598Y31028D02*X79098Y30528D01*
Y32528D02*X80598D01*
X154138Y32028D02*Y29028D01*
X153638Y32528D02*X154138Y32028D01*
X154638Y32528D01*
X155638D01*
X156138Y32028D01*
Y31028D01*
X155638Y30528D02*X156138Y31028D01*
X154638Y30528D02*X155638D01*
X154138Y31028D02*X154638Y30528D01*
X157338Y32528D02*X159338Y34528D01*
X157338Y32528D02*X159838D01*
X159338Y34528D02*Y30528D01*
X113189Y30449D02*X115189D01*
X115689Y30949D01*
Y31949D02*Y30949D01*
X115189Y32449D02*X115689Y31949D01*
X113689Y32449D02*X115189D01*
X113689Y34449D02*Y30449D01*
X113189Y34449D02*X115189D01*
X115689Y33949D01*
Y32949D01*
X115189Y32449D02*X115689Y32949D01*
X64993Y320867D02*X65493Y320367D01*
X63493Y320867D02*X64993D01*
X62993Y320367D02*X63493Y320867D01*
X62993Y320367D02*Y319367D01*
X63493Y318867D01*
X64993D01*
X65493Y318367D01*
Y317367D01*
X64993Y316867D02*X65493Y317367D01*
X63493Y316867D02*X64993D01*
X62993Y317367D02*X63493Y316867D01*
X66693Y320367D02*X67193Y320867D01*
X68693D01*
X69193Y320367D01*
Y319367D01*
X66693Y316867D02*X69193Y319367D01*
X66693Y316867D02*X69193D01*
X70393Y317367D02*X70893Y316867D01*
X70393Y320367D02*Y317367D01*
Y320367D02*X70893Y320867D01*
X71893D01*
X72393Y320367D01*
Y317367D01*
X71893Y316867D02*X72393Y317367D01*
X70893Y316867D02*X71893D01*
X70393Y317867D02*X72393Y319867D01*
X73593Y320367D02*X74093Y320867D01*
X75593D01*
X76093Y320367D01*
Y319367D01*
X73593Y316867D02*X76093Y319367D01*
X73593Y316867D02*X76093D01*
X87866Y199106D02*Y197606D01*
X84366D02*X87866D01*
X83866Y198106D02*X84366Y197606D01*
X83866Y198606D02*Y198106D01*
X84366Y199106D02*X83866Y198606D01*
X85366Y195406D02*X85866D01*
X83866D02*X84366D01*
X86866Y196406D02*X87366D01*
X87866Y195906D01*
Y194906D01*
X87366Y194406D01*
X86866D02*X87366D01*
X85866Y195406D02*X86866Y194406D01*
X75398Y419823D02*Y416823D01*
X74898Y420323D02*X75398Y419823D01*
X75898Y420323D01*
X76898D01*
X77398Y419823D01*
Y418823D01*
X76898Y418323D02*X77398Y418823D01*
X75898Y418323D02*X76898D01*
X75398Y418823D02*X75898Y418323D01*
X79098D02*X80098D01*
X79598Y422323D02*Y418323D01*
X78598Y421323D02*X79598Y422323D01*
X154138Y419823D02*Y416823D01*
X153638Y420323D02*X154138Y419823D01*
X154638Y420323D01*
X155638D01*
X156138Y419823D01*
Y418823D01*
X155638Y418323D02*X156138Y418823D01*
X154638Y418323D02*X155638D01*
X154138Y418823D02*X154638Y418323D01*
X157338Y421823D02*X157838Y422323D01*
X159338D01*
X159838Y421823D01*
Y420823D01*
X157338Y418323D02*X159838Y420823D01*
X157338Y418323D02*X159838D01*
X114173Y419776D02*Y416276D01*
Y419776D02*X114673Y420276D01*
X116173D01*
X116673Y419776D01*
Y416276D01*
X114173Y418276D02*X116673D01*
X103052Y365269D02*Y361269D01*
X104552Y365269D02*X105052Y364769D01*
Y361769D01*
X104552Y361269D02*X105052Y361769D01*
X102552Y361269D02*X104552D01*
X102552Y365269D02*X104552D01*
X106252Y364769D02*X106752Y365269D01*
X108252D01*
X108752Y364769D01*
Y363769D01*
X106252Y361269D02*X108752Y363769D01*
X106252Y361269D02*X108752D01*
X109952Y361769D02*X110452Y361269D01*
X109952Y364769D02*Y361769D01*
Y364769D02*X110452Y365269D01*
X111452D01*
X111952Y364769D01*
Y361769D01*
X111452Y361269D02*X111952Y361769D01*
X110452Y361269D02*X111452D01*
X109952Y362269D02*X111952Y364269D01*
X113152Y363269D02*X115152Y365269D01*
X113152Y363269D02*X115652D01*
X115152Y365269D02*Y361269D01*
X53650Y379921D02*Y375921D01*
X53150Y379921D02*X55150D01*
X55650Y379421D01*
Y378421D01*
X55150Y377921D02*X55650Y378421D01*
X53650Y377921D02*X55150D01*
X56850Y379421D02*X57350Y379921D01*
X58850D01*
X59350Y379421D01*
Y378421D01*
X56850Y375921D02*X59350Y378421D01*
X56850Y375921D02*X59350D01*
X60550Y376421D02*X61050Y375921D01*
X60550Y379421D02*Y376421D01*
Y379421D02*X61050Y379921D01*
X62050D01*
X62550Y379421D01*
Y376421D01*
X62050Y375921D02*X62550Y376421D01*
X61050Y375921D02*X62050D01*
X60550Y376921D02*X62550Y378921D01*
X63750Y379421D02*X64250Y379921D01*
X65750D01*
X66250Y379421D01*
Y378421D01*
X63750Y375921D02*X66250Y378421D01*
X63750Y375921D02*X66250D01*
X143702Y64962D02*X145202D01*
Y61462D01*
X144702Y60962D02*X145202Y61462D01*
X144202Y60962D02*X144702D01*
X143702Y61462D02*X144202Y60962D01*
X146402Y64462D02*X146902Y64962D01*
X148402D01*
X148902Y64462D01*
Y63462D01*
X146402Y60962D02*X148902Y63462D01*
X146402Y60962D02*X148902D01*
X150102Y61462D02*X150602Y60962D01*
X150102Y64462D02*Y61462D01*
Y64462D02*X150602Y64962D01*
X151602D01*
X152102Y64462D01*
Y61462D01*
X151602Y60962D02*X152102Y61462D01*
X150602Y60962D02*X151602D01*
X150102Y61962D02*X152102Y63962D01*
X154802Y64962D02*X155302Y64462D01*
X153802Y64962D02*X154802D01*
X153302Y64462D02*X153802Y64962D01*
X153302Y64462D02*Y61462D01*
X153802Y60962D01*
X154802Y62962D02*X155302Y62462D01*
X153302Y62962D02*X154802D01*
X153802Y60962D02*X154802D01*
X155302Y61462D01*
Y62462D02*Y61462D01*
X101441Y111252D02*Y109752D01*
X100941Y109252D02*X101441Y109752D01*
X97941Y109252D02*X100941D01*
X97941D02*X97441Y109752D01*
Y111252D02*Y109752D01*
X97941Y112452D02*X97441Y112952D01*
Y114452D02*Y112952D01*
Y114452D02*X97941Y114952D01*
X98941D01*
X101441Y112452D02*X98941Y114952D01*
X101441D02*Y112452D01*
X100941Y116152D02*X101441Y116652D01*
X97941Y116152D02*X100941D01*
X97941D02*X97441Y116652D01*
Y117652D02*Y116652D01*
Y117652D02*X97941Y118152D01*
X100941D01*
X101441Y117652D02*X100941Y118152D01*
X101441Y117652D02*Y116652D01*
X100441Y116152D02*X98441Y118152D01*
X101441Y120852D02*Y119852D01*
X97441Y120352D02*X101441D01*
X98441Y119352D02*X97441Y120352D01*
X170877Y267893D02*X172877D01*
X173377Y267393D01*
Y266393D01*
X172877Y265893D02*X173377Y266393D01*
X171377Y265893D02*X172877D01*
X171377Y267893D02*Y263893D01*
Y265893D02*X173377Y263893D01*
X174577Y267393D02*X175077Y267893D01*
X176577D01*
X177077Y267393D01*
Y266393D01*
X174577Y263893D02*X177077Y266393D01*
X174577Y263893D02*X177077D01*
X178277Y264393D02*X178777Y263893D01*
X178277Y267393D02*Y264393D01*
Y267393D02*X178777Y267893D01*
X179777D01*
X180277Y267393D01*
Y264393D01*
X179777Y263893D02*X180277Y264393D01*
X178777Y263893D02*X179777D01*
X178277Y264893D02*X180277Y266893D01*
X181977Y263893D02*X182977D01*
X182477Y267893D02*Y263893D01*
X181477Y266893D02*X182477Y267893D01*
M02*
