G04 start of page 2 for group 0 idx 0 *
G04 Title: 26.002.00.01.01.pcb, top *
G04 Creator: pcb 4.1.2 *
G04 CreationDate: Sun Jul 29 08:17:15 2018 UTC *
G04 For: bert *
G04 Format: Gerber/RS-274X *
G04 PCB-Dimensions (mil): 1968.50 3937.01 *
G04 PCB-Coordinate-Origin: lower left *
%MOIN*%
%FSLAX25Y25*%
%LNGTL*%
%ADD24C,0.0200*%
%ADD23C,0.1100*%
%ADD22C,0.0460*%
%ADD21C,0.0420*%
%ADD20C,0.0400*%
%ADD19C,0.0350*%
%ADD18C,0.0500*%
%ADD17C,0.2760*%
%ADD16C,0.1260*%
%ADD15C,0.0660*%
%ADD14C,0.0750*%
%ADD13C,0.0650*%
%ADD12C,0.0001*%
%ADD11C,0.0600*%
G54D11*X15748Y265748D03*
Y255906D03*
Y246063D03*
Y236221D03*
Y226378D03*
X64961Y246654D03*
X88583Y226811D03*
X15748Y314961D03*
Y305118D03*
Y295276D03*
Y285433D03*
G54D12*G36*
X12748Y347488D02*Y341488D01*
X18748D01*
Y347488D01*
X12748D01*
G37*
G54D11*X15748Y334646D03*
Y324803D03*
G54D13*X120079Y377953D03*
X41339D03*
G54D11*X15748Y275591D03*
G54D12*G36*
X28339Y317961D02*Y311961D01*
X34339D01*
Y317961D01*
X28339D01*
G37*
G54D11*X51339Y314961D03*
G54D12*G36*
X107079Y317961D02*Y311961D01*
X113079D01*
Y317961D01*
X107079D01*
G37*
G54D11*X130079Y314961D03*
G54D12*G36*
X81959Y318711D02*Y311211D01*
X89459D01*
Y318711D01*
X81959D01*
G37*
G54D14*X75709Y314961D03*
G54D11*X31339Y329961D03*
X51339D03*
X110079D03*
X130079D03*
X31339Y299961D03*
X51339D03*
X110079D03*
X130079D03*
G54D12*G36*
X61961Y299654D02*Y293654D01*
X67961D01*
Y299654D01*
X61961D01*
G37*
G36*
X85583Y299811D02*Y293811D01*
X91583D01*
Y299811D01*
X85583D01*
G37*
G54D11*X15748Y216536D03*
Y206693D03*
Y196851D03*
Y187008D03*
Y177166D03*
Y167323D03*
Y157481D03*
Y147638D03*
Y137795D03*
Y127953D03*
Y118110D03*
Y108268D03*
Y98425D03*
Y88583D03*
Y78740D03*
Y68898D03*
Y59055D03*
Y49213D03*
G54D12*G36*
X31070Y203812D02*Y197212D01*
X37670D01*
Y203812D01*
X31070D01*
G37*
G54D15*X44370Y200512D03*
Y190512D03*
Y180512D03*
X34370Y190512D03*
Y180512D03*
Y170512D03*
Y160512D03*
Y150512D03*
Y140512D03*
X44370Y170512D03*
Y160512D03*
Y150512D03*
Y140512D03*
X34370Y130512D03*
Y120512D03*
Y110512D03*
X44370Y130512D03*
Y120512D03*
Y110512D03*
G54D13*X41339Y15748D03*
G54D16*X120079Y78740D03*
G54D17*X145079Y53740D03*
Y103740D03*
X95079D03*
G54D12*G36*
X117579Y140138D02*Y135138D01*
X122579D01*
Y140138D01*
X117579D01*
G37*
G54D18*X120079Y157638D03*
G54D13*Y15748D03*
G54D19*G54D20*G54D21*G54D19*G54D16*G54D20*G54D19*G54D20*G54D22*G54D20*G54D21*G54D19*G54D22*G54D20*G54D16*G54D15*G54D23*G54D24*G54D20*M02*
