G04 start of page 10 for group -4078 idx -4078 *
G04 Title: 26.001.00.01.01.pcb, bottomsilk *
G04 Creator: pcb 4.1.2 *
G04 CreationDate: Fri Aug 10 20:06:22 2018 UTC *
G04 For: bert *
G04 Format: Gerber/RS-274X *
G04 PCB-Dimensions (mil): 3937.01 5905.51 *
G04 PCB-Coordinate-Origin: lower left *
%MOIN*%
%FSLAX25Y25*%
%LNGBO*%
%ADD57C,0.0080*%
%ADD56C,0.0001*%
G54D56*G36*
X197304Y523131D02*X199881D01*
X199964Y523098D01*
X200011Y523022D01*
X200060Y522783D01*
X200104Y522561D01*
X200495Y520430D01*
X200542Y520342D01*
X200625Y520283D01*
X200728Y520239D01*
X201518Y519969D01*
X202268Y519611D01*
X202274D01*
X202361Y519572D01*
X202458Y519559D01*
X202556Y519589D01*
X204329Y520809D01*
X204520Y520933D01*
X204721Y521070D01*
X204807Y521094D01*
X204889Y521059D01*
X205220Y520728D01*
X205724Y520228D01*
X205882Y520065D01*
X206381Y519568D01*
X206543Y519411D01*
X206711Y519237D01*
X206750Y519152D01*
X206728Y519063D01*
X206592Y518861D01*
X206463Y518672D01*
X205274Y516935D01*
X205242Y516844D01*
X205257Y516746D01*
X205302Y516648D01*
X205985Y515041D01*
X206022Y514950D01*
X206085Y514872D01*
X206175Y514826D01*
X208214Y514444D01*
X208438Y514402D01*
X208681Y514359D01*
X208756Y514311D01*
X208785Y514228D01*
Y511652D01*
X208756Y511563D01*
X208681Y511515D01*
X208438Y511472D01*
X208214Y511430D01*
X206235Y511061D01*
X206147Y511013D01*
X206093Y510930D01*
X206065Y510870D01*
Y510859D01*
X205350Y509085D01*
X205345Y509074D01*
X205328Y509030D01*
X205311Y508930D01*
X205339Y508835D01*
X206468Y507204D01*
X206592Y507013D01*
X206733Y506811D01*
X206752Y506726D01*
X206711Y506644D01*
X206543Y506465D01*
X206381Y506307D01*
X205063Y504989D01*
X204889Y504822D01*
X204807Y504780D01*
X204721Y504798D01*
X204520Y504941D01*
X204329Y505065D01*
X202735Y506161D01*
X202636Y506191D01*
X202539Y506172D01*
X202208Y505987D01*
X202014Y505878D01*
X201667Y505700D01*
X201582Y505694D01*
X201520Y505755D01*
X201374Y506111D01*
X201286Y506319D01*
X199903Y509676D01*
X199815Y509883D01*
X199718Y510115D01*
X199714Y510211D01*
X199767Y510283D01*
X199990Y510415D01*
X200131Y510522D01*
X200667Y510969D01*
X201082Y511533D01*
X201349Y512191D01*
X201443Y512922D01*
X201385Y513496D01*
X201220Y514031D01*
X200957Y514515D01*
X200608Y514937D01*
X200188Y515287D01*
X199704Y515550D01*
X199170Y515715D01*
X198596Y515774D01*
X198021Y515715D01*
X197486Y515550D01*
X197003Y515287D01*
X196581Y514937D01*
X196233Y514515D01*
X195971Y514031D01*
X195806Y513496D01*
X195747Y512922D01*
X195840Y512191D01*
X196107Y511533D01*
X196521Y510969D01*
X197060Y510522D01*
X197196Y510415D01*
X197418Y510283D01*
X197472Y510211D01*
X197467Y510115D01*
X197370Y509883D01*
X197282Y509676D01*
X195899Y506319D01*
X195813Y506111D01*
X195665Y505755D01*
X195604Y505694D01*
X195520Y505700D01*
X195178Y505878D01*
X194977Y505987D01*
X194646Y506172D01*
X194547Y506191D01*
X194450Y506161D01*
X192856Y505065D01*
X192671Y504941D01*
X192465Y504798D01*
X192378Y504780D01*
X192296Y504822D01*
X192122Y504989D01*
X191965Y505152D01*
X191467Y505650D01*
X191304Y505809D01*
X190804Y506307D01*
X190642Y506465D01*
X190474Y506644D01*
X190435Y506726D01*
X190457Y506811D01*
X190593Y507013D01*
X190724Y507204D01*
X191846Y508835D01*
X191874Y508930D01*
X191857Y509030D01*
X191835Y509091D01*
X191125Y510865D01*
X191092Y510930D01*
X191038Y511013D01*
X190952Y511061D01*
X188971Y511430D01*
X188749Y511472D01*
X188510Y511515D01*
X188431Y511565D01*
X188402Y511652D01*
Y514228D01*
X188431Y514311D01*
X188510Y514359D01*
X188749Y514407D01*
X188971Y514444D01*
X191011Y514826D01*
X191100Y514872D01*
X191163Y514956D01*
X191200Y515041D01*
X191889Y516648D01*
X191928Y516746D01*
X191945Y516844D01*
X191917Y516935D01*
X190724Y518676D01*
X190593Y518861D01*
X190457Y519063D01*
X190435Y519152D01*
X190474Y519237D01*
X190642Y519411D01*
X190804Y519568D01*
X192296Y521059D01*
X192378Y521094D01*
X192465Y521076D01*
X192671Y520939D01*
X192856Y520809D01*
X194629Y519589D01*
X194727Y519561D01*
X194825Y519578D01*
X194911Y519611D01*
X194922Y519615D01*
X195668Y519970D01*
X196458Y520244D01*
X196561Y520283D01*
X196645Y520342D01*
X196690Y520430D01*
X197088Y522561D01*
X197125Y522783D01*
X197174Y523022D01*
X197221Y523098D01*
X197304Y523131D01*
G37*
G54D57*X162401Y514264D02*X161901Y514764D01*
X160401D02*X161901D01*
X160401D02*X159901Y514264D01*
Y513264D02*Y514264D01*
X162401Y510764D02*X159901Y513264D01*
Y510764D02*X162401D01*
X157201Y514764D02*X156701Y514264D01*
X157201Y514764D02*X158201D01*
X158701Y514264D02*X158201Y514764D01*
X158701Y511264D02*Y514264D01*
Y511264D02*X158201Y510764D01*
X157201Y512764D02*X156701Y512264D01*
X157201Y512764D02*X158701D01*
X157201Y510764D02*X158201D01*
X157201D02*X156701Y511264D01*
Y512264D01*
X155001Y510764D02*X155501D01*
X153801Y511264D02*X153301Y510764D01*
X153801Y511264D02*Y514264D01*
X153301Y514764D01*
X152301D02*X153301D01*
X152301D02*X151801Y514264D01*
Y511264D02*Y514264D01*
X152301Y510764D02*X151801Y511264D01*
X152301Y510764D02*X153301D01*
X153801Y511764D02*X151801Y513764D01*
X150601Y511264D02*X150101Y510764D01*
X150601Y511264D02*Y514264D01*
X150101Y514764D01*
X149101D02*X150101D01*
X149101D02*X148601Y514264D01*
Y511264D02*Y514264D01*
X149101Y510764D02*X148601Y511264D01*
X149101Y510764D02*X150101D01*
X150601Y511764D02*X148601Y513764D01*
X145901Y510764D02*X146901D01*
X146401D02*Y514764D01*
X147401Y513764D02*X146401Y514764D01*
X144201Y510764D02*X144701D01*
X143001Y511264D02*X142501Y510764D01*
X143001Y511264D02*Y514264D01*
X142501Y514764D01*
X141501D02*X142501D01*
X141501D02*X141001Y514264D01*
Y511264D02*Y514264D01*
X141501Y510764D02*X141001Y511264D01*
X141501Y510764D02*X142501D01*
X143001Y511764D02*X141001Y513764D01*
X139801Y511264D02*X139301Y510764D01*
X139801Y511264D02*Y514264D01*
X139301Y514764D01*
X138301D02*X139301D01*
X138301D02*X137801Y514264D01*
Y511264D02*Y514264D01*
X138301Y510764D02*X137801Y511264D01*
X138301Y510764D02*X139301D01*
X139801Y511764D02*X137801Y513764D01*
X136101Y510764D02*X136601D01*
X134901Y511264D02*X134401Y510764D01*
X134901Y511264D02*Y514264D01*
X134401Y514764D01*
X133401D02*X134401D01*
X133401D02*X132901Y514264D01*
Y511264D02*Y514264D01*
X133401Y510764D02*X132901Y511264D01*
X133401Y510764D02*X134401D01*
X134901Y511764D02*X132901Y513764D01*
X130201Y510764D02*X131201D01*
X130701D02*Y514764D01*
X131701Y513764D02*X130701Y514764D01*
X128501Y510764D02*X129001D01*
X127301Y511264D02*X126801Y510764D01*
X127301Y511264D02*Y514264D01*
X126801Y514764D01*
X125801D02*X126801D01*
X125801D02*X125301Y514264D01*
Y511264D02*Y514264D01*
X125801Y510764D02*X125301Y511264D01*
X125801Y510764D02*X126801D01*
X127301Y511764D02*X125301Y513764D01*
X122601Y510764D02*X123601D01*
X123101D02*Y514764D01*
X124101Y513764D02*X123101Y514764D01*
X159964Y494732D02*X161464D01*
X161964Y495232D02*X161464Y494732D01*
X161964Y495232D02*Y498232D01*
X161464Y498732D01*
X159964D02*X161464D01*
X158764Y495232D02*Y496232D01*
X158264Y496732D01*
X157264D02*X158264D01*
X157264D02*X156764Y496232D01*
Y495232D02*Y496232D01*
X157264Y494732D02*X156764Y495232D01*
X157264Y494732D02*X158264D01*
X158764Y495232D02*X158264Y494732D01*
X155064Y493232D02*Y496232D01*
X155564Y496732D02*X155064Y496232D01*
X154564Y496732D01*
X153564D02*X154564D01*
X153564D02*X153064Y496232D01*
Y495232D02*Y496232D01*
X153564Y494732D02*X153064Y495232D01*
X153564Y494732D02*X154564D01*
X155064Y495232D02*X154564Y494732D01*
X151864Y495232D02*Y496732D01*
Y495232D02*X151364Y494732D01*
X149864Y493732D02*Y496732D01*
X150364Y493232D02*X149864Y493732D01*
X150364Y493232D02*X151364D01*
X151864Y493732D02*X151364Y493232D01*
X150364Y494732D02*X151364D01*
X150364D02*X149864Y495232D01*
X148164Y494732D02*Y496232D01*
X147664Y496732D01*
X146664D02*X147664D01*
X148664D02*X148164Y496232D01*
X145464Y497232D02*Y497732D01*
Y494732D02*Y496232D01*
X142964Y496732D02*X142464Y496232D01*
X142964Y496732D02*X143964D01*
X144464Y496232D02*X143964Y496732D01*
X144464Y495232D02*Y496232D01*
Y495232D02*X143964Y494732D01*
X142964D02*X143964D01*
X142964D02*X142464Y495232D01*
X144464Y493732D02*X143964Y493232D01*
X142964D02*X143964D01*
X142964D02*X142464Y493732D01*
Y496732D01*
X141264Y494732D02*Y498732D01*
Y496232D02*X140764Y496732D01*
X139764D02*X140764D01*
X139764D02*X139264Y496232D01*
Y494732D02*Y496232D01*
X137564Y495232D02*Y498732D01*
Y495232D02*X137064Y494732D01*
Y497232D02*X138064D01*
X134264Y495232D02*X133764Y494732D01*
X134264Y498232D02*X133764Y498732D01*
X134264Y495232D02*Y498232D01*
X130564Y494732D02*X132064D01*
X132564Y495232D02*X132064Y494732D01*
X132564Y495232D02*Y498232D01*
X132064Y498732D01*
X130564D02*X132064D01*
X129364D02*X128864Y498232D01*
Y495232D02*Y498232D01*
X129364Y494732D02*X128864Y495232D01*
X125864Y498232D02*X125364Y498732D01*
X123864D02*X125364D01*
X123864D02*X123364Y498232D01*
Y497232D02*Y498232D01*
X125864Y494732D02*X123364Y497232D01*
Y494732D02*X125864D01*
X122164Y495232D02*X121664Y494732D01*
X122164Y495232D02*Y498232D01*
X121664Y498732D01*
X120664D02*X121664D01*
X120664D02*X120164Y498232D01*
Y495232D02*Y498232D01*
X120664Y494732D02*X120164Y495232D01*
X120664Y494732D02*X121664D01*
X122164Y495732D02*X120164Y497732D01*
X117464Y494732D02*X118464D01*
X117964D02*Y498732D01*
X118964Y497732D02*X117964Y498732D01*
X116264Y495232D02*X115764Y494732D01*
X116264Y495232D02*Y496232D01*
X115764Y496732D01*
X114764D02*X115764D01*
X114764D02*X114264Y496232D01*
Y495232D02*Y496232D01*
X114764Y494732D02*X114264Y495232D01*
X114764Y494732D02*X115764D01*
X116264Y497232D02*X115764Y496732D01*
X116264Y497232D02*Y498232D01*
X115764Y498732D01*
X114764D02*X115764D01*
X114764D02*X114264Y498232D01*
Y497232D02*Y498232D01*
X114764Y496732D02*X114264Y497232D01*
X109264Y494732D02*X111264D01*
X109264D02*X108764Y495232D01*
Y496232D01*
X109264Y496732D02*X108764Y496232D01*
X109264Y496732D02*X110764D01*
Y494732D02*Y498732D01*
X109264D02*X111264D01*
X109264D02*X108764Y498232D01*
Y497232D02*Y498232D01*
X109264Y496732D02*X108764Y497232D01*
X105564Y494732D02*X107064D01*
X107564Y495232D02*X107064Y494732D01*
X107564Y495232D02*Y496232D01*
X107064Y496732D01*
X106064D02*X107064D01*
X106064D02*X105564Y496232D01*
Y495732D02*X107564D01*
X105564D02*Y496232D01*
X103864Y494732D02*Y496232D01*
X103364Y496732D01*
X102364D02*X103364D01*
X104364D02*X103864Y496232D01*
X100664Y495232D02*Y498732D01*
Y495232D02*X100164Y494732D01*
Y497232D02*X101164D01*
X95364Y498732D02*X97364D01*
X96364Y494732D02*Y498732D01*
X94164Y497232D02*Y497732D01*
Y494732D02*Y496232D01*
X92664Y494732D02*Y496232D01*
X92164Y496732D01*
X91664D02*X92164D01*
X91664D02*X91164Y496232D01*
Y494732D02*Y496232D01*
X90664Y496732D01*
X90164D02*X90664D01*
X90164D02*X89664Y496232D01*
Y494732D02*Y496232D01*
X93164Y496732D02*X92664Y496232D01*
X87964Y494732D02*Y496232D01*
X87464Y496732D01*
X86964D02*X87464D01*
X86964D02*X86464Y496232D01*
Y494732D02*Y496232D01*
X85964Y496732D01*
X85464D02*X85964D01*
X85464D02*X84964Y496232D01*
Y494732D02*Y496232D01*
X88464Y496732D02*X87964Y496232D01*
X81764Y494732D02*X83264D01*
X83764Y495232D02*X83264Y494732D01*
X83764Y495232D02*Y496232D01*
X83264Y496732D01*
X82264D02*X83264D01*
X82264D02*X81764Y496232D01*
Y495732D02*X83764D01*
X81764D02*Y496232D01*
X80064Y494732D02*Y496232D01*
X79564Y496732D01*
X78564D02*X79564D01*
X80564D02*X80064Y496232D01*
X76864Y494732D02*Y496232D01*
X76364Y496732D01*
X75864D02*X76364D01*
X75864D02*X75364Y496232D01*
Y494732D02*Y496232D01*
X74864Y496732D01*
X74364D02*X74864D01*
X74364D02*X73864Y496232D01*
Y494732D02*Y496232D01*
X77364Y496732D02*X76864Y496232D01*
X71164Y496732D02*X70664Y496232D01*
X71164Y496732D02*X72164D01*
X72664Y496232D02*X72164Y496732D01*
X72664Y495232D02*Y496232D01*
Y495232D02*X72164Y494732D01*
X70664Y495232D02*Y496732D01*
Y495232D02*X70164Y494732D01*
X71164D02*X72164D01*
X71164D02*X70664Y495232D01*
X68464Y494732D02*Y496232D01*
X67964Y496732D01*
X67464D02*X67964D01*
X67464D02*X66964Y496232D01*
Y494732D02*Y496232D01*
X68964Y496732D02*X68464Y496232D01*
X213583Y499453D02*Y500453D01*
X213083Y500953D01*
X212083D02*X213083D01*
X212083D02*X211583Y500453D01*
Y499453D02*Y500453D01*
X212083Y498953D02*X211583Y499453D01*
X212083Y498953D02*X213083D01*
X213583Y499453D02*X213083Y498953D01*
X209883Y497453D02*Y500453D01*
X210383Y500953D02*X209883Y500453D01*
X209383Y500953D01*
X208383D02*X209383D01*
X208383D02*X207883Y500453D01*
Y499453D02*Y500453D01*
X208383Y498953D02*X207883Y499453D01*
X208383Y498953D02*X209383D01*
X209883Y499453D02*X209383Y498953D01*
X204683D02*X206183D01*
X206683Y499453D02*X206183Y498953D01*
X206683Y499453D02*Y500453D01*
X206183Y500953D01*
X205183D02*X206183D01*
X205183D02*X204683Y500453D01*
Y499953D02*X206683D01*
X204683D02*Y500453D01*
X202983Y498953D02*Y500453D01*
X202483Y500953D01*
X201983D02*X202483D01*
X201983D02*X201483Y500453D01*
Y498953D02*Y500453D01*
X203483Y500953D02*X202983Y500453D01*
X196483Y498953D02*X197983D01*
X196483D02*X195983Y499453D01*
X196483Y499953D02*X195983Y499453D01*
X196483Y499953D02*X197983D01*
X198483Y500453D02*X197983Y499953D01*
X198483Y500453D02*X197983Y500953D01*
X196483D02*X197983D01*
X196483D02*X195983Y500453D01*
X198483Y499453D02*X197983Y498953D01*
X194783Y499453D02*Y500453D01*
X194283Y500953D01*
X193283D02*X194283D01*
X193283D02*X192783Y500453D01*
Y499453D02*Y500453D01*
X193283Y498953D02*X192783Y499453D01*
X193283Y498953D02*X194283D01*
X194783Y499453D02*X194283Y498953D01*
X191583Y499453D02*Y500953D01*
Y499453D02*X191083Y498953D01*
X190083D02*X191083D01*
X190083D02*X189583Y499453D01*
Y500953D01*
X187883Y498953D02*Y500453D01*
X187383Y500953D01*
X186383D02*X187383D01*
X188383D02*X187883Y500453D01*
X183183Y500953D02*X184683D01*
X185183Y500453D02*X184683Y500953D01*
X185183Y499453D02*Y500453D01*
Y499453D02*X184683Y498953D01*
X183183D02*X184683D01*
X179983D02*X181483D01*
X181983Y499453D02*X181483Y498953D01*
X181983Y499453D02*Y500453D01*
X181483Y500953D01*
X180483D02*X181483D01*
X180483D02*X179983Y500453D01*
Y499953D02*X181983D01*
X179983D02*Y500453D01*
X210630Y490094D02*Y494094D01*
Y491594D02*X210130Y492094D01*
X209130D02*X210130D01*
X209130D02*X208630Y491594D01*
Y490094D02*Y491594D01*
X205930Y492094D02*X205430Y491594D01*
X205930Y492094D02*X206930D01*
X207430Y491594D02*X206930Y492094D01*
X207430Y490594D02*Y491594D01*
Y490594D02*X206930Y490094D01*
X205430Y490594D02*Y492094D01*
Y490594D02*X204930Y490094D01*
X205930D02*X206930D01*
X205930D02*X205430Y490594D01*
X203230Y490094D02*Y491594D01*
X202730Y492094D01*
X201730D02*X202730D01*
X203730D02*X203230Y491594D01*
X198530Y490094D02*Y494094D01*
X199030Y490094D02*X198530Y490594D01*
X199030Y490094D02*X200030D01*
X200530Y490594D02*X200030Y490094D01*
X200530Y490594D02*Y491594D01*
X200030Y492094D01*
X199030D02*X200030D01*
X199030D02*X198530Y491594D01*
X197330Y490594D02*Y492094D01*
Y490594D02*X196830Y490094D01*
X196330D02*X196830D01*
X196330D02*X195830Y490594D01*
Y492094D01*
Y490594D02*X195330Y490094D01*
X194830D02*X195330D01*
X194830D02*X194330Y490594D01*
Y492094D01*
X191630D02*X191130Y491594D01*
X191630Y492094D02*X192630D01*
X193130Y491594D02*X192630Y492094D01*
X193130Y490594D02*Y491594D01*
Y490594D02*X192630Y490094D01*
X191130Y490594D02*Y492094D01*
Y490594D02*X190630Y490094D01*
X191630D02*X192630D01*
X191630D02*X191130Y490594D01*
X188930Y490094D02*Y491594D01*
X188430Y492094D01*
X187430D02*X188430D01*
X189430D02*X188930Y491594D01*
X184230Y490094D02*X185730D01*
X186230Y490594D02*X185730Y490094D01*
X186230Y490594D02*Y491594D01*
X185730Y492094D01*
X184730D02*X185730D01*
X184730D02*X184230Y491594D01*
Y491094D02*X186230D01*
X184230D02*Y491594D01*
X162402Y502890D02*Y506890D01*
X160402D02*X162402D01*
X160902Y504890D02*X162402D01*
X158702Y502890D02*Y504390D01*
X158202Y504890D01*
X157202D02*X158202D01*
X159202D02*X158702Y504390D01*
X156002Y503390D02*Y504390D01*
X155502Y504890D01*
X154502D02*X155502D01*
X154502D02*X154002Y504390D01*
Y503390D02*Y504390D01*
X154502Y502890D02*X154002Y503390D01*
X154502Y502890D02*X155502D01*
X156002Y503390D02*X155502Y502890D01*
X152302D02*Y504390D01*
X151802Y504890D01*
X151302D02*X151802D01*
X151302D02*X150802Y504390D01*
Y502890D02*Y504390D01*
X152802Y504890D02*X152302Y504390D01*
X149102Y503390D02*Y506890D01*
Y503390D02*X148602Y502890D01*
Y505390D02*X149602D01*
X145302Y502890D02*Y506890D01*
X143802D02*X145802D01*
X143802D02*X143302Y506390D01*
Y505390D02*Y506390D01*
X143802Y504890D02*X143302Y505390D01*
X143802Y504890D02*X145302D01*
X140602D02*X140102Y504390D01*
X140602Y504890D02*X141602D01*
X142102Y504390D02*X141602Y504890D01*
X142102Y503390D02*Y504390D01*
Y503390D02*X141602Y502890D01*
X140102Y503390D02*Y504890D01*
Y503390D02*X139602Y502890D01*
X140602D02*X141602D01*
X140602D02*X140102Y503390D01*
X137902Y502890D02*Y504390D01*
X137402Y504890D01*
X136902D02*X137402D01*
X136902D02*X136402Y504390D01*
Y502890D02*Y504390D01*
X138402Y504890D02*X137902Y504390D01*
X133202Y502890D02*X134702D01*
X135202Y503390D02*X134702Y502890D01*
X135202Y503390D02*Y504390D01*
X134702Y504890D01*
X133702D02*X134702D01*
X133702D02*X133202Y504390D01*
Y503890D02*X135202D01*
X133202D02*Y504390D01*
X132002Y503390D02*Y506890D01*
Y503390D02*X131502Y502890D01*
X12521Y418957D02*X12021Y418457D01*
X12521Y418957D02*X14021D01*
X14521Y418457D02*X14021Y418957D01*
X14521Y417457D02*Y418457D01*
Y417457D02*X14021Y416957D01*
X12521D02*X14021D01*
X12521D02*X12021Y416457D01*
Y415457D02*Y416457D01*
X12521Y414957D02*X12021Y415457D01*
X12521Y414957D02*X14021D01*
X14521Y415457D02*X14021Y414957D01*
X9321D02*X10321D01*
X9821D02*Y418957D01*
X10821Y417957D02*X9821Y418957D01*
X8121Y415457D02*X7621Y414957D01*
X8121Y415457D02*Y418457D01*
X7621Y418957D01*
X6621D02*X7621D01*
X6621D02*X6121Y418457D01*
Y415457D02*Y418457D01*
X6621Y414957D02*X6121Y415457D01*
X6621Y414957D02*X7621D01*
X8121Y415957D02*X6121Y417957D01*
X4921Y418457D02*X4421Y418957D01*
X2921D02*X4421D01*
X2921D02*X2421Y418457D01*
Y417457D02*Y418457D01*
X4921Y414957D02*X2421Y417457D01*
Y414957D02*X4921D01*
X290230Y419070D02*X289730Y418570D01*
X290230Y419070D02*X291730D01*
X292230Y418570D02*X291730Y419070D01*
X292230Y417570D02*Y418570D01*
Y417570D02*X291730Y417070D01*
X290230D02*X291730D01*
X290230D02*X289730Y416570D01*
Y415570D02*Y416570D01*
X290230Y415070D02*X289730Y415570D01*
X290230Y415070D02*X291730D01*
X292230Y415570D02*X291730Y415070D01*
X287030D02*X288030D01*
X287530D02*Y419070D01*
X288530Y418070D02*X287530Y419070D01*
X285830Y415570D02*X285330Y415070D01*
X285830Y415570D02*Y418570D01*
X285330Y419070D01*
X284330D02*X285330D01*
X284330D02*X283830Y418570D01*
Y415570D02*Y418570D01*
X284330Y415070D02*X283830Y415570D01*
X284330Y415070D02*X285330D01*
X285830Y416070D02*X283830Y418070D01*
X281130Y415070D02*X282130D01*
X281630D02*Y419070D01*
X282630Y418070D02*X281630Y419070D01*
X290809Y301302D02*X292809D01*
X290809D02*X290309Y300802D01*
Y299802D02*Y300802D01*
X290809Y299302D02*X290309Y299802D01*
X290809Y299302D02*X292309D01*
Y297302D02*Y301302D01*
Y299302D02*X290309Y297302D01*
X287609D02*X288609D01*
X288109D02*Y301302D01*
X289109Y300302D02*X288109Y301302D01*
X286409Y297802D02*X285909Y297302D01*
X286409Y297802D02*Y300802D01*
X285909Y301302D01*
X284909D02*X285909D01*
X284909D02*X284409Y300802D01*
Y297802D02*Y300802D01*
X284909Y297302D02*X284409Y297802D01*
X284909Y297302D02*X285909D01*
X286409Y298302D02*X284409Y300302D01*
X281709Y297302D02*X282709D01*
X282209D02*Y301302D01*
X283209Y300302D02*X282209Y301302D01*
M02*
