G04 start of page 10 for group -4078 idx -4078 *
G04 Title: 26.001.00.01.01.pcb, bottomsilk *
G04 Creator: pcb 4.1.2 *
G04 CreationDate: Sat Aug 11 09:36:15 2018 UTC *
G04 For: bert *
G04 Format: Gerber/RS-274X *
G04 PCB-Dimensions (mil): 3937.01 5905.51 *
G04 PCB-Coordinate-Origin: lower left *
%MOIN*%
%FSLAX25Y25*%
%LNGBO*%
%ADD57C,0.0080*%
%ADD56C,0.0001*%
G54D56*G36*
X197304Y523131D02*X199881D01*
X199964Y523098D01*
X200011Y523022D01*
X200060Y522783D01*
X200104Y522561D01*
X200495Y520430D01*
X200542Y520342D01*
X200625Y520283D01*
X200728Y520239D01*
X201518Y519969D01*
X202268Y519611D01*
X202274D01*
X202361Y519572D01*
X202458Y519559D01*
X202556Y519589D01*
X204329Y520809D01*
X204520Y520933D01*
X204721Y521070D01*
X204807Y521094D01*
X204889Y521059D01*
X205220Y520728D01*
X205724Y520228D01*
X205882Y520065D01*
X206381Y519568D01*
X206543Y519411D01*
X206711Y519237D01*
X206750Y519152D01*
X206728Y519063D01*
X206592Y518861D01*
X206463Y518672D01*
X205274Y516935D01*
X205242Y516844D01*
X205257Y516746D01*
X205302Y516648D01*
X205985Y515041D01*
X206022Y514950D01*
X206085Y514872D01*
X206175Y514826D01*
X208214Y514444D01*
X208438Y514402D01*
X208681Y514359D01*
X208756Y514311D01*
X208785Y514228D01*
Y511652D01*
X208756Y511563D01*
X208681Y511515D01*
X208438Y511472D01*
X208214Y511430D01*
X206235Y511061D01*
X206147Y511013D01*
X206093Y510930D01*
X206065Y510870D01*
Y510859D01*
X205350Y509085D01*
X205345Y509074D01*
X205328Y509030D01*
X205311Y508930D01*
X205339Y508835D01*
X206468Y507204D01*
X206592Y507013D01*
X206733Y506811D01*
X206752Y506726D01*
X206711Y506644D01*
X206543Y506465D01*
X206381Y506307D01*
X205063Y504989D01*
X204889Y504822D01*
X204807Y504780D01*
X204721Y504798D01*
X204520Y504941D01*
X204329Y505065D01*
X202735Y506161D01*
X202636Y506191D01*
X202539Y506172D01*
X202208Y505987D01*
X202014Y505878D01*
X201667Y505700D01*
X201582Y505694D01*
X201520Y505755D01*
X201374Y506111D01*
X201286Y506319D01*
X199903Y509676D01*
X199815Y509883D01*
X199718Y510115D01*
X199714Y510211D01*
X199767Y510283D01*
X199990Y510415D01*
X200131Y510522D01*
X200667Y510969D01*
X201082Y511533D01*
X201349Y512191D01*
X201443Y512922D01*
X201385Y513496D01*
X201220Y514031D01*
X200957Y514515D01*
X200608Y514937D01*
X200188Y515287D01*
X199704Y515550D01*
X199170Y515715D01*
X198596Y515774D01*
X198021Y515715D01*
X197486Y515550D01*
X197003Y515287D01*
X196581Y514937D01*
X196233Y514515D01*
X195971Y514031D01*
X195806Y513496D01*
X195747Y512922D01*
X195840Y512191D01*
X196107Y511533D01*
X196521Y510969D01*
X197060Y510522D01*
X197196Y510415D01*
X197418Y510283D01*
X197472Y510211D01*
X197467Y510115D01*
X197370Y509883D01*
X197282Y509676D01*
X195899Y506319D01*
X195813Y506111D01*
X195665Y505755D01*
X195604Y505694D01*
X195520Y505700D01*
X195178Y505878D01*
X194977Y505987D01*
X194646Y506172D01*
X194547Y506191D01*
X194450Y506161D01*
X192856Y505065D01*
X192671Y504941D01*
X192465Y504798D01*
X192378Y504780D01*
X192296Y504822D01*
X192122Y504989D01*
X191965Y505152D01*
X191467Y505650D01*
X191304Y505809D01*
X190804Y506307D01*
X190642Y506465D01*
X190474Y506644D01*
X190435Y506726D01*
X190457Y506811D01*
X190593Y507013D01*
X190724Y507204D01*
X191846Y508835D01*
X191874Y508930D01*
X191857Y509030D01*
X191835Y509091D01*
X191125Y510865D01*
X191092Y510930D01*
X191038Y511013D01*
X190952Y511061D01*
X188971Y511430D01*
X188749Y511472D01*
X188510Y511515D01*
X188431Y511565D01*
X188402Y511652D01*
Y514228D01*
X188431Y514311D01*
X188510Y514359D01*
X188749Y514407D01*
X188971Y514444D01*
X191011Y514826D01*
X191100Y514872D01*
X191163Y514956D01*
X191200Y515041D01*
X191889Y516648D01*
X191928Y516746D01*
X191945Y516844D01*
X191917Y516935D01*
X190724Y518676D01*
X190593Y518861D01*
X190457Y519063D01*
X190435Y519152D01*
X190474Y519237D01*
X190642Y519411D01*
X190804Y519568D01*
X192296Y521059D01*
X192378Y521094D01*
X192465Y521076D01*
X192671Y520939D01*
X192856Y520809D01*
X194629Y519589D01*
X194727Y519561D01*
X194825Y519578D01*
X194911Y519611D01*
X194922Y519615D01*
X195668Y519970D01*
X196458Y520244D01*
X196561Y520283D01*
X196645Y520342D01*
X196690Y520430D01*
X197088Y522561D01*
X197125Y522783D01*
X197174Y523022D01*
X197221Y523098D01*
X197304Y523131D01*
G37*
G54D57*X161217Y505090D02*Y505290D01*
X161017Y505690D01*
X160817Y505890D01*
X160417Y506090D01*
X159617D02*X160417D01*
X159617D02*X159217Y505890D01*
X159017Y505690D01*
X158817Y505290D01*
Y504890D02*Y505290D01*
Y504890D02*X159017Y504490D01*
X159417Y503890D01*
X161417Y501890D01*
X158617D02*X161417D01*
X155017Y505490D02*X155217Y505890D01*
X155817Y506090D01*
X156217D01*
X156817Y505890D01*
X157217Y505290D01*
X157417Y504290D01*
Y503290D02*Y504290D01*
Y503290D02*X157217Y502490D01*
X156817Y502090D01*
X156217Y501890D01*
X156017D02*X156217D01*
X156017D02*X155417Y502090D01*
X155017Y502490D01*
X154817Y503090D01*
Y503290D01*
X155017Y503890D01*
X155417Y504290D01*
X156017Y504490D01*
X156217D01*
X156817Y504290D01*
X157217Y503890D01*
X157417Y503290D01*
X153417Y502290D02*X153617Y502090D01*
X153417Y501890D01*
X153217Y502090D01*
X153417Y502290D01*
X150817Y506090D02*X151417Y505890D01*
X151817Y505290D01*
X152017Y504290D01*
Y503690D02*Y504290D01*
Y503690D02*X151817Y502690D01*
X151417Y502090D01*
X150817Y501890D01*
X150417D02*X150817D01*
X150417D02*X149817Y502090D01*
X149417Y502690D01*
X149217Y503690D01*
Y504290D01*
X149417Y505290D01*
X149817Y505890D01*
X150417Y506090D01*
X150817D01*
X146817D02*X147417Y505890D01*
X147817Y505290D01*
X148017Y504290D01*
Y503690D02*Y504290D01*
Y503690D02*X147817Y502690D01*
X147417Y502090D01*
X146817Y501890D01*
X146417D02*X146817D01*
X146417D02*X145817Y502090D01*
X145417Y502690D01*
X145217Y503690D01*
Y504290D01*
X145417Y505290D01*
X145817Y505890D01*
X146417Y506090D01*
X146817D01*
X144017Y505290D02*X143617Y505490D01*
X143017Y506090D01*
Y501890D02*Y506090D01*
X141617Y502290D02*X141817Y502090D01*
X141617Y501890D01*
X141417Y502090D01*
X141617Y502290D01*
X139017Y506090D02*X139617Y505890D01*
X140017Y505290D01*
X140217Y504290D01*
Y503690D02*Y504290D01*
Y503690D02*X140017Y502690D01*
X139617Y502090D01*
X139017Y501890D01*
X138617D02*X139017D01*
X138617D02*X138017Y502090D01*
X137617Y502690D01*
X137417Y503690D01*
Y504290D01*
X137617Y505290D01*
X138017Y505890D01*
X138617Y506090D01*
X139017D01*
X135017D02*X135617Y505890D01*
X136017Y505290D01*
X136217Y504290D01*
Y503690D02*Y504290D01*
Y503690D02*X136017Y502690D01*
X135617Y502090D01*
X135017Y501890D01*
X134617D02*X135017D01*
X134617D02*X134017Y502090D01*
X133617Y502690D01*
X133417Y503690D01*
Y504290D01*
X133617Y505290D01*
X134017Y505890D01*
X134617Y506090D01*
X135017D01*
X132016Y502290D02*X132216Y502090D01*
X132016Y501890D01*
X131816Y502090D01*
X132016Y502290D01*
X129416Y506090D02*X130016Y505890D01*
X130416Y505290D01*
X130616Y504290D01*
Y503690D02*Y504290D01*
Y503690D02*X130416Y502690D01*
X130016Y502090D01*
X129416Y501890D01*
X129016D02*X129416D01*
X129016D02*X128416Y502090D01*
X128016Y502690D01*
X127816Y503690D01*
Y504290D01*
X128016Y505290D01*
X128416Y505890D01*
X129016Y506090D01*
X129416D01*
X126616Y505290D02*X126216Y505490D01*
X125616Y506090D01*
Y501890D02*Y506090D01*
X124216Y502290D02*X124416Y502090D01*
X124216Y501890D01*
X124016Y502090D01*
X124216Y502290D01*
X121616Y506090D02*X122216Y505890D01*
X122616Y505290D01*
X122816Y504290D01*
Y503690D02*Y504290D01*
Y503690D02*X122616Y502690D01*
X122216Y502090D01*
X121616Y501890D01*
X121216D02*X121616D01*
X121216D02*X120616Y502090D01*
X120216Y502690D01*
X120016Y503690D01*
Y504290D01*
X120216Y505290D01*
X120616Y505890D01*
X121216Y506090D01*
X121616D01*
X118816Y505290D02*X118416Y505490D01*
X117816Y506090D01*
Y501890D02*Y506090D01*
X157980Y496932D02*X158180Y497332D01*
X158580Y497732D01*
X158980Y497932D01*
X159780D01*
X160180Y497732D01*
X160580Y497332D01*
X160780Y496932D01*
X160980Y496332D01*
Y495332D02*Y496332D01*
Y495332D02*X160780Y494732D01*
X160580Y494332D01*
X160180Y493932D01*
X159780Y493732D01*
X158980D02*X159780D01*
X158980D02*X158580Y493932D01*
X158180Y494332D01*
X157980Y494732D01*
X155780Y496532D02*X156180Y496332D01*
X156580Y495932D01*
X156780Y495332D01*
Y494932D02*Y495332D01*
Y494932D02*X156580Y494332D01*
X156180Y493932D01*
X155780Y493732D01*
X155180D02*X155780D01*
X155180D02*X154780Y493932D01*
X154380Y494332D01*
X154180Y494932D01*
Y495332D01*
X154380Y495932D01*
X154780Y496332D01*
X155180Y496532D01*
X155780D01*
X152980Y492332D02*Y496532D01*
Y495932D02*X152580Y496332D01*
X152180Y496532D01*
X151580D02*X152180D01*
X151580D02*X151180Y496332D01*
X150780Y495932D01*
X150580Y495332D01*
Y494932D02*Y495332D01*
Y494932D02*X150780Y494332D01*
X151180Y493932D01*
X151580Y493732D01*
X152180D01*
X152580Y493932D01*
X152980Y494332D01*
X149180Y496532D02*X147980Y493732D01*
X146780Y496532D02*X147980Y493732D01*
X148380Y492932D01*
X148780Y492532D01*
X149180Y492332D01*
X149380D01*
X145580Y493732D02*Y496532D01*
Y495332D02*X145380Y495932D01*
X144980Y496332D01*
X144580Y496532D01*
X143980D02*X144580D01*
X142780Y497932D02*X142580Y497732D01*
X142380Y497932D01*
X142580Y498132D01*
X142780Y497932D01*
X142580Y493732D02*Y496532D01*
X138780Y493332D02*Y496532D01*
Y493332D02*X138980Y492732D01*
X139180Y492532D01*
X139580Y492332D01*
X140180D01*
X140580Y492532D01*
X138780Y495932D02*X139180Y496332D01*
X139580Y496532D01*
X140180D01*
X140580Y496332D01*
X140980Y495932D01*
X141180Y495332D01*
Y494932D02*Y495332D01*
Y494932D02*X140980Y494332D01*
X140580Y493932D01*
X140180Y493732D01*
X139580D02*X140180D01*
X139580D02*X139180Y493932D01*
X138780Y494332D01*
X137580Y493732D02*Y497932D01*
Y495732D02*X136980Y496332D01*
X136580Y496532D01*
X135980D02*X136580D01*
X135980D02*X135580Y496332D01*
X135380Y495732D01*
Y493732D02*Y495732D01*
X133580Y494532D02*Y497932D01*
Y494532D02*X133380Y493932D01*
X132980Y493732D01*
X132580D02*X132980D01*
X132780Y496532D02*X134180D01*
X128780Y498732D02*X129180Y498332D01*
X129580Y497732D01*
X129980Y496932D01*
X130180Y495932D01*
Y495132D02*Y495932D01*
Y495132D02*X129980Y494132D01*
X129580Y493332D01*
X129180Y492732D01*
X128780Y492332D01*
X124580Y496932D02*X124780Y497332D01*
X125180Y497732D01*
X125580Y497932D01*
X126380D01*
X126780Y497732D01*
X127180Y497332D01*
X127380Y496932D01*
X127580Y496332D01*
Y495332D02*Y496332D01*
Y495332D02*X127380Y494732D01*
X127180Y494332D01*
X126780Y493932D01*
X126380Y493732D01*
X125580D02*X126380D01*
X125580D02*X125180Y493932D01*
X124780Y494332D01*
X124580Y494732D01*
X123380Y498732D02*X122980Y498332D01*
X122580Y497732D01*
X122180Y496932D01*
X121980Y495932D01*
Y495132D02*Y495932D01*
Y495132D02*X122180Y494132D01*
X122580Y493332D01*
X122980Y492732D01*
X123380Y492332D01*
X119380Y496932D02*Y497132D01*
X119180Y497532D01*
X118980Y497732D01*
X118580Y497932D01*
X117780D02*X118580D01*
X117780D02*X117380Y497732D01*
X117180Y497532D01*
X116980Y497132D01*
Y496732D02*Y497132D01*
Y496732D02*X117180Y496332D01*
X117580Y495732D01*
X119580Y493732D01*
X116780D02*X119580D01*
X114380Y497932D02*X114980Y497732D01*
X115380Y497132D01*
X115580Y496132D01*
Y495532D02*Y496132D01*
Y495532D02*X115380Y494532D01*
X114980Y493932D01*
X114380Y493732D01*
X113980D02*X114380D01*
X113980D02*X113380Y493932D01*
X112980Y494532D01*
X112780Y495532D01*
Y496132D01*
X112980Y497132D01*
X113380Y497732D01*
X113980Y497932D01*
X114380D01*
X111580Y497132D02*X111180Y497332D01*
X110580Y497932D01*
Y493732D02*Y497932D01*
X108380D02*X108980Y497732D01*
X109180Y497332D01*
Y496932D02*Y497332D01*
Y496932D02*X108980Y496532D01*
X108580Y496332D01*
X107780Y496132D01*
X107180Y495932D01*
X106780Y495532D01*
X106580Y495132D01*
Y494532D02*Y495132D01*
Y494532D02*X106780Y494132D01*
X106980Y493932D01*
X107580Y493732D01*
X108380D01*
X108980Y493932D01*
X109180Y494132D01*
X109380Y494532D01*
Y495132D01*
X109180Y495532D01*
X108780Y495932D01*
X108180Y496132D01*
X107380Y496332D01*
X106980Y496532D01*
X106780Y496932D01*
Y497332D01*
X106980Y497732D01*
X107580Y497932D01*
X108380D01*
X104180Y493732D02*Y497932D01*
X102380D02*X104180D01*
X102380D02*X101780Y497732D01*
X101580Y497532D01*
X101380Y497132D01*
Y496732D02*Y497132D01*
Y496732D02*X101580Y496332D01*
X101780Y496132D01*
X102380Y495932D01*
X104180D01*
X102380D02*X101780Y495732D01*
X101580Y495532D01*
X101380Y495132D01*
Y494532D02*Y495132D01*
Y494532D02*X101580Y494132D01*
X101780Y493932D01*
X102380Y493732D01*
X104180D01*
X97780Y495332D02*X100180D01*
X97780D02*Y495732D01*
X97980Y496132D01*
X98180Y496332D01*
X98580Y496532D01*
X99180D01*
X99580Y496332D01*
X99980Y495932D01*
X100180Y495332D01*
Y494932D02*Y495332D01*
Y494932D02*X99980Y494332D01*
X99580Y493932D01*
X99180Y493732D01*
X98580D02*X99180D01*
X98580D02*X98180Y493932D01*
X97780Y494332D01*
X96580Y493732D02*Y496532D01*
Y495332D02*X96380Y495932D01*
X95980Y496332D01*
X95580Y496532D01*
X94980D02*X95580D01*
X93180Y494532D02*Y497932D01*
Y494532D02*X92980Y493932D01*
X92580Y493732D01*
X92180D02*X92580D01*
X92380Y496532D02*X93780D01*
X88380Y493732D02*Y497932D01*
X86980D02*X89780D01*
X85780D02*X85580Y497732D01*
X85380Y497932D01*
X85580Y498132D01*
X85780Y497932D01*
X85580Y493732D02*Y496532D01*
X84180Y493732D02*Y496532D01*
Y495732D02*X83580Y496332D01*
X83180Y496532D01*
X82580D02*X83180D01*
X82580D02*X82180Y496332D01*
X81980Y495732D01*
Y493732D02*Y495732D01*
X81380Y496332D01*
X80980Y496532D01*
X80380D02*X80980D01*
X80380D02*X79980Y496332D01*
X79780Y495732D01*
Y493732D02*Y495732D01*
X78580Y493732D02*Y496532D01*
Y495732D02*X77980Y496332D01*
X77580Y496532D01*
X76980D02*X77580D01*
X76980D02*X76580Y496332D01*
X76380Y495732D01*
Y493732D02*Y495732D01*
X75780Y496332D01*
X75380Y496532D01*
X74780D02*X75380D01*
X74780D02*X74380Y496332D01*
X74180Y495732D01*
Y493732D02*Y495732D01*
X70580Y495332D02*X72980D01*
X70580D02*Y495732D01*
X70780Y496132D01*
X70980Y496332D01*
X71380Y496532D01*
X71980D01*
X72380Y496332D01*
X72780Y495932D01*
X72980Y495332D01*
Y494932D02*Y495332D01*
Y494932D02*X72780Y494332D01*
X72380Y493932D01*
X71980Y493732D01*
X71380D02*X71980D01*
X71380D02*X70980Y493932D01*
X70580Y494332D01*
X69380Y493732D02*Y496532D01*
Y495332D02*X69180Y495932D01*
X68780Y496332D01*
X68380Y496532D01*
X67780D02*X68380D01*
X66580Y493732D02*Y496532D01*
Y495732D02*X65980Y496332D01*
X65580Y496532D01*
X64980D02*X65580D01*
X64980D02*X64580Y496332D01*
X64380Y495732D01*
Y493732D02*Y495732D01*
X63780Y496332D01*
X63380Y496532D01*
X62780D02*X63380D01*
X62780D02*X62380Y496332D01*
X62180Y495732D01*
Y493732D02*Y495732D01*
X58580Y493732D02*Y496532D01*
Y495932D02*X58980Y496332D01*
X59380Y496532D01*
X59980D01*
X60380Y496332D01*
X60780Y495932D01*
X60980Y495332D01*
Y494932D02*Y495332D01*
Y494932D02*X60780Y494332D01*
X60380Y493932D01*
X59980Y493732D01*
X59380D02*X59980D01*
X59380D02*X58980Y493932D01*
X58580Y494332D01*
X57380Y493732D02*Y496532D01*
Y495732D02*X56780Y496332D01*
X56380Y496532D01*
X55780D02*X56380D01*
X55780D02*X55380Y496332D01*
X55180Y495732D01*
Y493732D02*Y495732D01*
X212583Y500753D02*X212983Y500553D01*
X213383Y500153D01*
X213583Y499553D01*
Y499153D02*Y499553D01*
Y499153D02*X213383Y498553D01*
X212983Y498153D01*
X212583Y497953D01*
X211983D02*X212583D01*
X211983D02*X211583Y498153D01*
X211183Y498553D01*
X210983Y499153D01*
Y499553D01*
X211183Y500153D01*
X211583Y500553D01*
X211983Y500753D01*
X212583D01*
X209783Y496553D02*Y500753D01*
Y500153D02*X209383Y500553D01*
X208983Y500753D01*
X208383D02*X208983D01*
X208383D02*X207983Y500553D01*
X207583Y500153D01*
X207383Y499553D01*
Y499153D02*Y499553D01*
Y499153D02*X207583Y498553D01*
X207983Y498153D01*
X208383Y497953D01*
X208983D01*
X209383Y498153D01*
X209783Y498553D01*
X203783Y499553D02*X206183D01*
X203783D02*Y499953D01*
X203983Y500353D01*
X204183Y500553D01*
X204583Y500753D01*
X205183D01*
X205583Y500553D01*
X205983Y500153D01*
X206183Y499553D01*
Y499153D02*Y499553D01*
Y499153D02*X205983Y498553D01*
X205583Y498153D01*
X205183Y497953D01*
X204583D02*X205183D01*
X204583D02*X204183Y498153D01*
X203783Y498553D01*
X202583Y497953D02*Y500753D01*
Y499953D02*X201983Y500553D01*
X201583Y500753D01*
X200983D02*X201583D01*
X200983D02*X200583Y500553D01*
X200383Y499953D01*
Y497953D02*Y499953D01*
X195783Y500153D02*X195983Y500553D01*
X196583Y500753D01*
X197183D01*
X197783Y500553D01*
X197983Y500153D01*
X197783Y499753D01*
X197383Y499553D01*
X196383Y499353D01*
X195983Y499153D01*
X195783Y498753D01*
Y498553D02*Y498753D01*
Y498553D02*X195983Y498153D01*
X196583Y497953D01*
X197183D01*
X197783Y498153D01*
X197983Y498553D01*
X193583Y500753D02*X193983Y500553D01*
X194383Y500153D01*
X194583Y499553D01*
Y499153D02*Y499553D01*
Y499153D02*X194383Y498553D01*
X193983Y498153D01*
X193583Y497953D01*
X192983D02*X193583D01*
X192983D02*X192583Y498153D01*
X192183Y498553D01*
X191983Y499153D01*
Y499553D01*
X192183Y500153D01*
X192583Y500553D01*
X192983Y500753D01*
X193583D01*
X190783Y498753D02*Y500753D01*
Y498753D02*X190583Y498153D01*
X190183Y497953D01*
X189583D02*X190183D01*
X189583D02*X189183Y498153D01*
X188583Y498753D01*
Y497953D02*Y500753D01*
X187383Y497953D02*Y500753D01*
Y499553D02*X187183Y500153D01*
X186783Y500553D01*
X186383Y500753D01*
X185783D02*X186383D01*
X182183Y500153D02*X182583Y500553D01*
X182983Y500753D01*
X183583D01*
X183983Y500553D01*
X184383Y500153D01*
X184583Y499553D01*
Y499153D02*Y499553D01*
Y499153D02*X184383Y498553D01*
X183983Y498153D01*
X183583Y497953D01*
X182983D02*X183583D01*
X182983D02*X182583Y498153D01*
X182183Y498553D01*
X178583Y499553D02*X180983D01*
X178583D02*Y499953D01*
X178783Y500353D01*
X178983Y500553D01*
X179383Y500753D01*
X179983D01*
X180383Y500553D01*
X180783Y500153D01*
X180983Y499553D01*
Y499153D02*Y499553D01*
Y499153D02*X180783Y498553D01*
X180383Y498153D01*
X179983Y497953D01*
X179383D02*X179983D01*
X179383D02*X178983Y498153D01*
X178583Y498553D01*
X210630Y489094D02*Y493294D01*
Y491094D02*X210030Y491694D01*
X209630Y491894D01*
X209030D02*X209630D01*
X209030D02*X208630Y491694D01*
X208430Y491094D01*
Y489094D02*Y491094D01*
X204830Y489094D02*Y491894D01*
Y491294D02*X205230Y491694D01*
X205630Y491894D01*
X206230D01*
X206630Y491694D01*
X207030Y491294D01*
X207230Y490694D01*
Y490294D02*Y490694D01*
Y490294D02*X207030Y489694D01*
X206630Y489294D01*
X206230Y489094D01*
X205630D02*X206230D01*
X205630D02*X205230Y489294D01*
X204830Y489694D01*
X203630Y489094D02*Y491894D01*
Y490694D02*X203430Y491294D01*
X203030Y491694D01*
X202630Y491894D01*
X202030D02*X202630D01*
X198430Y489094D02*Y493294D01*
Y491294D02*X198830Y491694D01*
X199230Y491894D01*
X199830D01*
X200230Y491694D01*
X200630Y491294D01*
X200830Y490694D01*
Y490294D02*Y490694D01*
Y490294D02*X200630Y489694D01*
X200230Y489294D01*
X199830Y489094D01*
X199230D02*X199830D01*
X199230D02*X198830Y489294D01*
X198430Y489694D01*
X197230Y491894D02*X196430Y489094D01*
X195630Y491894D02*X196430Y489094D01*
X195630Y491894D02*X194830Y489094D01*
X194030Y491894D02*X194830Y489094D01*
X190430D02*Y491894D01*
Y491294D02*X190830Y491694D01*
X191230Y491894D01*
X191830D01*
X192230Y491694D01*
X192630Y491294D01*
X192830Y490694D01*
Y490294D02*Y490694D01*
Y490294D02*X192630Y489694D01*
X192230Y489294D01*
X191830Y489094D01*
X191230D02*X191830D01*
X191230D02*X190830Y489294D01*
X190430Y489694D01*
X189230Y489094D02*Y491894D01*
Y490694D02*X189030Y491294D01*
X188630Y491694D01*
X188230Y491894D01*
X187630D02*X188230D01*
X184030Y490694D02*X186430D01*
X184030D02*Y491094D01*
X184230Y491494D01*
X184430Y491694D01*
X184830Y491894D01*
X185430D01*
X185830Y491694D01*
X186230Y491294D01*
X186430Y490694D01*
Y490294D02*Y490694D01*
Y490294D02*X186230Y489694D01*
X185830Y489294D01*
X185430Y489094D01*
X184830D02*X185430D01*
X184830D02*X184430Y489294D01*
X184030Y489694D01*
X161417Y509764D02*Y513964D01*
X158817D02*X161417D01*
X159817Y511964D02*X161417D01*
X157617Y509764D02*Y512564D01*
Y511364D02*X157417Y511964D01*
X157017Y512364D01*
X156617Y512564D01*
X156017D02*X156617D01*
X153817D02*X154217Y512364D01*
X154617Y511964D01*
X154817Y511364D01*
Y510964D02*Y511364D01*
Y510964D02*X154617Y510364D01*
X154217Y509964D01*
X153817Y509764D01*
X153217D02*X153817D01*
X153217D02*X152817Y509964D01*
X152417Y510364D01*
X152217Y510964D01*
Y511364D01*
X152417Y511964D01*
X152817Y512364D01*
X153217Y512564D01*
X153817D01*
X151017Y509764D02*Y512564D01*
Y511764D02*X150417Y512364D01*
X150017Y512564D01*
X149417D02*X150017D01*
X149417D02*X149017Y512364D01*
X148817Y511764D01*
Y509764D02*Y511764D01*
X147017Y510564D02*Y513964D01*
Y510564D02*X146817Y509964D01*
X146417Y509764D01*
X146017D02*X146417D01*
X146217Y512564D02*X147617D01*
X143617Y509764D02*Y513964D01*
X141817D02*X143617D01*
X141817D02*X141217Y513764D01*
X141017Y513564D01*
X140817Y513164D01*
Y512564D02*Y513164D01*
Y512564D02*X141017Y512164D01*
X141217Y511964D01*
X141817Y511764D01*
X143617D01*
X137217Y509764D02*Y512564D01*
Y511964D02*X137617Y512364D01*
X138017Y512564D01*
X138617D01*
X139017Y512364D01*
X139417Y511964D01*
X139617Y511364D01*
Y510964D02*Y511364D01*
Y510964D02*X139417Y510364D01*
X139017Y509964D01*
X138617Y509764D01*
X138017D02*X138617D01*
X138017D02*X137617Y509964D01*
X137217Y510364D01*
X136017Y509764D02*Y512564D01*
Y511764D02*X135417Y512364D01*
X135017Y512564D01*
X134417D02*X135017D01*
X134417D02*X134017Y512364D01*
X133817Y511764D01*
Y509764D02*Y511764D01*
X130217Y511364D02*X132617D01*
X130217D02*Y511764D01*
X130417Y512164D01*
X130617Y512364D01*
X131017Y512564D01*
X131617D01*
X132017Y512364D01*
X132417Y511964D01*
X132617Y511364D01*
Y510964D02*Y511364D01*
Y510964D02*X132417Y510364D01*
X132017Y509964D01*
X131617Y509764D01*
X131017D02*X131617D01*
X131017D02*X130617Y509964D01*
X130217Y510364D01*
X129017Y509764D02*Y513964D01*
X11721Y417557D02*X12121Y417957D01*
X12721Y418157D01*
X13521D01*
X14121Y417957D01*
X14521Y417557D01*
Y417157D02*Y417557D01*
Y417157D02*X14321Y416757D01*
X14121Y416557D01*
X13721Y416357D01*
X12521Y415957D01*
X12121Y415757D01*
X11921Y415557D01*
X11721Y415157D01*
Y414557D02*Y415157D01*
Y414557D02*X12121Y414157D01*
X12721Y413957D01*
X13521D01*
X14121Y414157D01*
X14521Y414557D01*
X10521Y417357D02*X10121Y417557D01*
X9521Y418157D01*
Y413957D02*Y418157D01*
X7121D02*X7721Y417957D01*
X8121Y417357D01*
X8321Y416357D01*
Y415757D02*Y416357D01*
Y415757D02*X8121Y414757D01*
X7721Y414157D01*
X7121Y413957D01*
X6721D02*X7121D01*
X6721D02*X6121Y414157D01*
X5721Y414757D01*
X5521Y415757D01*
Y416357D01*
X5721Y417357D01*
X6121Y417957D01*
X6721Y418157D01*
X7121D01*
X4121Y417157D02*Y417357D01*
X3921Y417757D01*
X3721Y417957D01*
X3321Y418157D01*
X2521D02*X3321D01*
X2521D02*X2121Y417957D01*
X1921Y417757D01*
X1721Y417357D01*
Y416957D02*Y417357D01*
Y416957D02*X1921Y416557D01*
X2321Y415957D01*
X4321Y413957D01*
X1521D02*X4321D01*
X289430Y417670D02*X289830Y418070D01*
X290430Y418270D01*
X291230D01*
X291830Y418070D01*
X292230Y417670D01*
Y417270D02*Y417670D01*
Y417270D02*X292030Y416870D01*
X291830Y416670D01*
X291430Y416470D01*
X290230Y416070D01*
X289830Y415870D01*
X289630Y415670D01*
X289430Y415270D01*
Y414670D02*Y415270D01*
Y414670D02*X289830Y414270D01*
X290430Y414070D01*
X291230D01*
X291830Y414270D01*
X292230Y414670D01*
X288230Y417470D02*X287830Y417670D01*
X287230Y418270D01*
Y414070D02*Y418270D01*
X284830D02*X285430Y418070D01*
X285830Y417470D01*
X286030Y416470D01*
Y415870D02*Y416470D01*
Y415870D02*X285830Y414870D01*
X285430Y414270D01*
X284830Y414070D01*
X284430D02*X284830D01*
X284430D02*X283830Y414270D01*
X283430Y414870D01*
X283230Y415870D01*
Y416470D01*
X283430Y417470D01*
X283830Y418070D01*
X284430Y418270D01*
X284830D01*
X282030Y417470D02*X281630Y417670D01*
X281030Y418270D01*
Y414070D02*Y418270D01*
X292809Y296302D02*Y300502D01*
X291009D02*X292809D01*
X291009D02*X290409Y300302D01*
X290209Y300102D01*
X290009Y299702D01*
Y299302D02*Y299702D01*
Y299302D02*X290209Y298902D01*
X290409Y298702D01*
X291009Y298502D01*
X292809D01*
X291409D02*X290009Y296302D01*
X288809Y299702D02*X288409Y299902D01*
X287809Y300502D01*
Y296302D02*Y300502D01*
X285409D02*X286009Y300302D01*
X286409Y299702D01*
X286609Y298702D01*
Y298102D02*Y298702D01*
Y298102D02*X286409Y297102D01*
X286009Y296502D01*
X285409Y296302D01*
X285009D02*X285409D01*
X285009D02*X284409Y296502D01*
X284009Y297102D01*
X283809Y298102D01*
Y298702D01*
X284009Y299702D01*
X284409Y300302D01*
X285009Y300502D01*
X285409D01*
X282609Y299702D02*X282209Y299902D01*
X281609Y300502D01*
Y296302D02*Y300502D01*
M02*
