G04 start of page 3 for group 1 idx 1 *
G04 Title: 26.002.00.01.01.pcb, bottom *
G04 Creator: pcb 4.2.2 *
G04 CreationDate: Sat Feb 13 13:51:23 2021 UTC *
G04 For: bert *
G04 Format: Gerber/RS-274X *
G04 PCB-Dimensions (mil): 2440.94 4527.56 *
G04 PCB-Coordinate-Origin: lower left *
%MOIN*%
%FSLAX25Y25*%
%LNGBL*%
%ADD49C,0.0670*%
%ADD48C,0.0200*%
%ADD47C,0.1100*%
%ADD46C,0.0420*%
%ADD45C,0.0460*%
%ADD44C,0.1457*%
%ADD43C,0.0400*%
%ADD42C,0.0350*%
%ADD41C,0.0900*%
%ADD40C,0.0500*%
%ADD39C,0.1260*%
%ADD38C,0.0660*%
%ADD37C,0.2760*%
%ADD36C,0.0720*%
%ADD35C,0.0750*%
%ADD34C,0.0600*%
%ADD33C,0.0650*%
%ADD32C,0.0100*%
%ADD31C,0.0250*%
%ADD30C,0.0001*%
G54D30*G36*
X65008Y338383D02*X65429Y337961D01*
Y304755D01*
X65008Y304334D01*
Y338383D01*
G37*
G36*
X159601Y167041D02*X166391D01*
X167041Y166391D01*
Y166257D01*
X166364Y165841D01*
X165705Y165279D01*
X165143Y164621D01*
X164691Y163883D01*
X164359Y163083D01*
X164157Y162241D01*
X164089Y161378D01*
X164157Y160515D01*
X164359Y159673D01*
X164691Y158873D01*
X165143Y158135D01*
X165705Y157477D01*
X166364Y156915D01*
X167102Y156462D01*
X167901Y156131D01*
X168743Y155929D01*
X169606Y155861D01*
X170469Y155929D01*
X171311Y156131D01*
X172111Y156462D01*
X172849Y156915D01*
X173507Y157477D01*
X174070Y158135D01*
X174522Y158873D01*
X174853Y159673D01*
X175055Y160515D01*
X175106Y161378D01*
X175055Y162241D01*
X174853Y163083D01*
X174522Y163883D01*
X174070Y164621D01*
X173507Y165279D01*
X172849Y165841D01*
X172111Y166294D01*
X171541Y166530D01*
Y167235D01*
X171548Y167323D01*
X171520Y167676D01*
X171438Y168020D01*
X171398Y168116D01*
X171302Y168347D01*
X171188Y168535D01*
X171117Y168649D01*
X171117Y168650D01*
X170887Y168919D01*
X170820Y168976D01*
X168976Y170820D01*
X168919Y170887D01*
X168650Y171117D01*
X168649Y171117D01*
X168535Y171188D01*
X168347Y171302D01*
X168116Y171398D01*
X168020Y171438D01*
X167676Y171520D01*
X167323Y171548D01*
X167235Y171541D01*
X159601D01*
Y325477D01*
X159607Y325476D01*
X160235Y325526D01*
X160847Y325673D01*
X161429Y325914D01*
X161965Y326243D01*
X162444Y326651D01*
X162853Y327130D01*
X163182Y327667D01*
X163423Y328249D01*
X163570Y328861D01*
X163607Y329489D01*
X163570Y330116D01*
X163423Y330728D01*
X163182Y331310D01*
X162853Y331847D01*
X162444Y332326D01*
X161965Y332735D01*
X161429Y333064D01*
X160847Y333305D01*
X160235Y333452D01*
X159607Y333501D01*
X159601Y333500D01*
Y340477D01*
X159607Y340476D01*
X160235Y340526D01*
X160847Y340673D01*
X161429Y340914D01*
X161965Y341243D01*
X162444Y341651D01*
X162853Y342130D01*
X163182Y342667D01*
X163315Y342988D01*
X169654D01*
X172713Y339930D01*
Y311173D01*
X172557Y311109D01*
X171953Y310738D01*
X171415Y310278D01*
X170954Y309740D01*
X170584Y309136D01*
X170313Y308481D01*
X170148Y307793D01*
X170092Y307087D01*
X170148Y306380D01*
X170313Y305692D01*
X170584Y305037D01*
X170954Y304433D01*
X171415Y303895D01*
X171953Y303435D01*
X172557Y303065D01*
X173211Y302794D01*
X173900Y302628D01*
X174606Y302573D01*
X175312Y302628D01*
X176001Y302794D01*
X176656Y303065D01*
X177259Y303435D01*
X177798Y303895D01*
X178258Y304433D01*
X178628Y305037D01*
X178899Y305692D01*
X179065Y306380D01*
X179106Y307087D01*
X179065Y307793D01*
X178899Y308481D01*
X178628Y309136D01*
X178258Y309740D01*
X177798Y310278D01*
X177259Y310738D01*
X176656Y311109D01*
X176001Y311380D01*
X175713Y311449D01*
Y340492D01*
X175717Y340551D01*
X175699Y340787D01*
X175644Y341016D01*
X175553Y341234D01*
X175430Y341436D01*
X175277Y341615D01*
X175232Y341653D01*
X171378Y345507D01*
X171340Y345552D01*
X171160Y345705D01*
X170959Y345829D01*
X170741Y345919D01*
X170511Y345974D01*
X170276Y345993D01*
X170217Y345988D01*
X163315D01*
X163182Y346310D01*
X162853Y346847D01*
X162444Y347326D01*
X161965Y347735D01*
X161429Y348064D01*
X161235Y348144D01*
X175249D01*
X182356Y341037D01*
Y292874D01*
X181371Y292872D01*
X181141Y292817D01*
X180923Y292726D01*
X180722Y292603D01*
X180542Y292450D01*
X180389Y292270D01*
X180266Y292069D01*
X180175Y291851D01*
X180120Y291621D01*
X180106Y291386D01*
X180120Y285150D01*
X180175Y284921D01*
X180266Y284703D01*
X180389Y284501D01*
X180542Y284322D01*
X180722Y284169D01*
X180923Y284045D01*
X181141Y283955D01*
X181371Y283900D01*
X181606Y283886D01*
X187842Y283900D01*
X188071Y283955D01*
X188289Y284045D01*
X188491Y284169D01*
X188670Y284322D01*
X188824Y284501D01*
X188947Y284703D01*
X189037Y284921D01*
X189092Y285150D01*
X189106Y285386D01*
X189092Y291621D01*
X189037Y291851D01*
X188947Y292069D01*
X188824Y292270D01*
X188670Y292450D01*
X188491Y292603D01*
X188289Y292726D01*
X188071Y292817D01*
X187842Y292872D01*
X187606Y292886D01*
X186856Y292884D01*
Y341969D01*
X186835Y342322D01*
X186753Y342666D01*
X186617Y342993D01*
X186432Y343295D01*
X186202Y343564D01*
X186109Y343644D01*
X186079Y343678D01*
X177834Y351922D01*
X177777Y351990D01*
X177508Y352220D01*
X177508Y352220D01*
X177393Y352290D01*
X177206Y352405D01*
X176974Y352500D01*
X176879Y352540D01*
X176534Y352623D01*
X176181Y352651D01*
X176093Y352644D01*
X159601D01*
Y352831D01*
X183434D01*
X189445Y346820D01*
Y159046D01*
X184377Y153489D01*
X159601D01*
Y167041D01*
G37*
G36*
Y352644D02*X152647D01*
X152559Y352651D01*
X152206Y352623D01*
X151862Y352540D01*
X151534Y352405D01*
X151232Y352220D01*
X151232Y352219D01*
X150963Y351990D01*
X150906Y351922D01*
X149608Y350625D01*
Y356145D01*
X152441Y353312D01*
X152479Y353267D01*
X152659Y353113D01*
X152860Y352990D01*
X153078Y352900D01*
X153308Y352845D01*
X153543Y352826D01*
X153602Y352831D01*
X159601D01*
Y352644D01*
G37*
G36*
Y171541D02*X149608D01*
Y344261D01*
X153491Y348144D01*
X157979D01*
X157786Y348064D01*
X157249Y347735D01*
X156770Y347326D01*
X156361Y346847D01*
X156032Y346310D01*
X155791Y345728D01*
X155644Y345116D01*
X155595Y344489D01*
X155644Y343861D01*
X155791Y343249D01*
X156032Y342667D01*
X156361Y342130D01*
X156770Y341651D01*
X157249Y341243D01*
X157786Y340914D01*
X158367Y340673D01*
X158979Y340526D01*
X159601Y340477D01*
Y333500D01*
X158979Y333452D01*
X158367Y333305D01*
X157786Y333064D01*
X157249Y332735D01*
X156770Y332326D01*
X156361Y331847D01*
X156032Y331310D01*
X155791Y330728D01*
X155644Y330116D01*
X155595Y329489D01*
X155644Y328861D01*
X155791Y328249D01*
X156032Y327667D01*
X156361Y327130D01*
X156770Y326651D01*
X157249Y326243D01*
X157786Y325914D01*
X158367Y325673D01*
X158979Y325526D01*
X159601Y325477D01*
Y171541D01*
G37*
G36*
X149608Y167041D02*X159601D01*
Y153489D01*
X156133D01*
X154228Y155394D01*
X154522Y155873D01*
X154853Y156673D01*
X155055Y157515D01*
X155106Y158378D01*
X155055Y159241D01*
X154853Y160083D01*
X154522Y160883D01*
X154070Y161621D01*
X153507Y162279D01*
X152849Y162841D01*
X152111Y163294D01*
X151311Y163625D01*
X150469Y163827D01*
X149608Y163895D01*
Y167041D01*
G37*
G36*
X153107Y413386D02*X204725D01*
Y39370D01*
X153107D01*
Y44823D01*
X153405Y45309D01*
X153661Y45927D01*
X153817Y46577D01*
X153856Y47244D01*
X153817Y47911D01*
X153661Y48561D01*
X153405Y49180D01*
X153107Y49665D01*
Y101851D01*
X153911Y102344D01*
X154785Y103090D01*
X155531Y103964D01*
X156131Y104943D01*
X156571Y106005D01*
X156839Y107122D01*
X156907Y108268D01*
X156839Y109413D01*
X156571Y110530D01*
X156131Y111592D01*
X155531Y112572D01*
X154785Y113446D01*
X153911Y114192D01*
X153107Y114684D01*
Y152273D01*
X154410Y150970D01*
X154448Y150925D01*
X154627Y150772D01*
X154829Y150649D01*
X155047Y150558D01*
X155276Y150503D01*
X155512Y150485D01*
X155571Y150489D01*
X185015D01*
X185109Y150486D01*
X185216Y150500D01*
X185275Y150503D01*
X185308Y150511D01*
X185343Y150516D01*
X185423Y150539D01*
X185504Y150558D01*
X185536Y150572D01*
X185570Y150581D01*
X185645Y150617D01*
X185722Y150649D01*
X185752Y150667D01*
X185783Y150682D01*
X185852Y150728D01*
X185924Y150772D01*
X185950Y150795D01*
X185979Y150814D01*
X186021Y150855D01*
X186103Y150925D01*
X186164Y150996D01*
X191990Y157385D01*
X192009Y157401D01*
X192162Y157580D01*
X192183Y157614D01*
X192202Y157637D01*
X192242Y157710D01*
X192286Y157781D01*
X192299Y157813D01*
X192316Y157844D01*
X192344Y157922D01*
X192376Y158000D01*
X192384Y158033D01*
X192396Y158066D01*
X192411Y158148D01*
X192431Y158229D01*
X192433Y158259D01*
X192440Y158298D01*
X192448Y158534D01*
X192445Y158558D01*
Y347382D01*
X192450Y347441D01*
X192431Y347676D01*
X192376Y347906D01*
X192286Y348124D01*
X192162Y348325D01*
X192009Y348505D01*
X191964Y348543D01*
X185157Y355350D01*
X185119Y355395D01*
X184940Y355548D01*
X184738Y355671D01*
X184520Y355762D01*
X184290Y355817D01*
X184055Y355835D01*
X183996Y355831D01*
X161229D01*
X161429Y355914D01*
X161965Y356243D01*
X162444Y356651D01*
X162853Y357130D01*
X163182Y357667D01*
X163423Y358249D01*
X163570Y358861D01*
X163607Y359489D01*
X163570Y360116D01*
X163423Y360728D01*
X163182Y361310D01*
X162853Y361847D01*
X162444Y362326D01*
X161965Y362735D01*
X161699Y362898D01*
Y392628D01*
X161706Y392717D01*
X161678Y393070D01*
X161595Y393414D01*
X161556Y393510D01*
X161460Y393741D01*
X161345Y393928D01*
X161275Y394043D01*
X161275Y394043D01*
X161045Y394312D01*
X160977Y394370D01*
X155197Y400151D01*
X155139Y400218D01*
X154870Y400448D01*
X154870Y400448D01*
X154755Y400518D01*
X154568Y400633D01*
X154337Y400729D01*
X154241Y400769D01*
X153896Y400851D01*
X153543Y400879D01*
X153455Y400872D01*
X153107D01*
Y403216D01*
X153138Y403233D01*
X153200Y403282D01*
X153254Y403339D01*
X153297Y403405D01*
X153484Y403760D01*
X153631Y404133D01*
X153743Y404518D01*
X153819Y404912D01*
X153856Y405311D01*
Y405712D01*
X153819Y406112D01*
X153743Y406506D01*
X153631Y406891D01*
X153484Y407264D01*
X153301Y407621D01*
X153257Y407687D01*
X153203Y407745D01*
X153140Y407793D01*
X153107Y407811D01*
Y413386D01*
G37*
G36*
Y114684D02*X152931Y114792D01*
X151870Y115232D01*
X150753Y115500D01*
X149608Y115590D01*
Y152861D01*
X150469Y152929D01*
X151311Y153131D01*
X151974Y153406D01*
X153107Y152273D01*
Y114684D01*
G37*
G36*
Y49665D02*X153055Y49750D01*
X152621Y50259D01*
X152112Y50693D01*
X151542Y51043D01*
X150924Y51299D01*
X150273Y51455D01*
X149608Y51507D01*
Y100945D01*
X150753Y101035D01*
X151870Y101304D01*
X152931Y101743D01*
X153107Y101851D01*
Y49665D01*
G37*
G36*
Y39370D02*X149608D01*
Y42981D01*
X150273Y43033D01*
X150924Y43190D01*
X151542Y43446D01*
X152112Y43795D01*
X152621Y44230D01*
X153055Y44738D01*
X153107Y44823D01*
Y39370D01*
G37*
G36*
X149608Y413386D02*X153107D01*
Y407811D01*
X153071Y407831D01*
X152996Y407858D01*
X152918Y407873D01*
X152839Y407876D01*
X152760Y407866D01*
X152684Y407843D01*
X152613Y407810D01*
X152547Y407765D01*
X152489Y407711D01*
X152441Y407648D01*
X152402Y407579D01*
X152376Y407504D01*
X152361Y407426D01*
X152358Y407347D01*
X152368Y407268D01*
X152390Y407192D01*
X152426Y407121D01*
X152568Y406850D01*
X152681Y406565D01*
X152766Y406271D01*
X152824Y405970D01*
X152853Y405665D01*
Y405359D01*
X152824Y405054D01*
X152766Y404753D01*
X152681Y404458D01*
X152568Y404173D01*
X152429Y403901D01*
X152394Y403830D01*
X152372Y403755D01*
X152362Y403676D01*
X152364Y403598D01*
X152379Y403520D01*
X152406Y403446D01*
X152444Y403377D01*
X152492Y403315D01*
X152549Y403261D01*
X152614Y403217D01*
X152686Y403184D01*
X152761Y403162D01*
X152839Y403152D01*
X152918Y403154D01*
X152995Y403169D01*
X153069Y403195D01*
X153107Y403216D01*
Y400872D01*
X149608D01*
Y401262D01*
X149807D01*
X150206Y401300D01*
X150600Y401375D01*
X150985Y401487D01*
X151358Y401635D01*
X151716Y401817D01*
X151781Y401861D01*
X151839Y401915D01*
X151888Y401978D01*
X151926Y402047D01*
X151953Y402122D01*
X151968Y402200D01*
X151970Y402279D01*
X151960Y402358D01*
X151938Y402434D01*
X151904Y402506D01*
X151860Y402571D01*
X151805Y402629D01*
X151743Y402677D01*
X151673Y402716D01*
X151599Y402742D01*
X151521Y402757D01*
X151441Y402760D01*
X151363Y402750D01*
X151287Y402728D01*
X151216Y402692D01*
X150945Y402550D01*
X150660Y402437D01*
X150366Y402352D01*
X150065Y402294D01*
X149760Y402265D01*
X149608D01*
Y408758D01*
X149760D01*
X150065Y408729D01*
X150366Y408672D01*
X150660Y408586D01*
X150945Y408473D01*
X151218Y408334D01*
X151288Y408299D01*
X151364Y408277D01*
X151442Y408268D01*
X151520Y408270D01*
X151598Y408285D01*
X151672Y408311D01*
X151741Y408349D01*
X151803Y408397D01*
X151857Y408455D01*
X151901Y408520D01*
X151935Y408591D01*
X151957Y408667D01*
X151966Y408745D01*
X151964Y408823D01*
X151949Y408901D01*
X151923Y408975D01*
X151885Y409044D01*
X151837Y409106D01*
X151779Y409160D01*
X151713Y409203D01*
X151358Y409389D01*
X150985Y409537D01*
X150600Y409649D01*
X150206Y409724D01*
X149807Y409762D01*
X149608D01*
Y413386D01*
G37*
G36*
Y350625D02*X145722Y346738D01*
X143599D01*
X143598Y347646D01*
X143561Y347799D01*
X143501Y347944D01*
X143419Y348078D01*
X143316Y348198D01*
X143197Y348300D01*
X143062Y348382D01*
X142917Y348443D01*
X142764Y348479D01*
X142607Y348489D01*
X139601Y348484D01*
Y355477D01*
X139607Y355476D01*
X140235Y355526D01*
X140847Y355673D01*
X141429Y355914D01*
X141965Y356243D01*
X142444Y356651D01*
X142853Y357130D01*
X143182Y357667D01*
X143423Y358249D01*
X143570Y358861D01*
X143607Y359489D01*
X143570Y360116D01*
X143423Y360728D01*
X143182Y361310D01*
X142853Y361847D01*
X142444Y362326D01*
X141965Y362735D01*
X141429Y363064D01*
X140847Y363305D01*
X140235Y363452D01*
X139607Y363501D01*
X139601Y363500D01*
Y363657D01*
X146032D01*
X148106Y361583D01*
Y358326D01*
X148102Y358268D01*
X148120Y358032D01*
X148175Y357803D01*
X148266Y357585D01*
X148389Y357383D01*
X148542Y357204D01*
X148587Y357165D01*
X149608Y356145D01*
Y350625D01*
G37*
G36*
X139601Y348484D02*X136450Y348479D01*
X136297Y348443D01*
X136152Y348382D01*
X136017Y348300D01*
X135898Y348198D01*
X135796Y348078D01*
X135713Y347944D01*
X135653Y347799D01*
X135616Y347646D01*
X135607Y347489D01*
X135608Y346738D01*
X130994D01*
X130906Y346745D01*
X130552Y346717D01*
X130208Y346635D01*
X129881Y346499D01*
X129579Y346314D01*
X129579Y346314D01*
X129310Y346084D01*
X129252Y346017D01*
X128619Y345384D01*
Y363657D01*
X139601D01*
Y363500D01*
X138979Y363452D01*
X138367Y363305D01*
X137786Y363064D01*
X137249Y362735D01*
X136770Y362326D01*
X136361Y361847D01*
X136032Y361310D01*
X135791Y360728D01*
X135644Y360116D01*
X135595Y359489D01*
X135644Y358861D01*
X135791Y358249D01*
X136032Y357667D01*
X136361Y357130D01*
X136770Y356651D01*
X137249Y356243D01*
X137786Y355914D01*
X138367Y355673D01*
X138979Y355526D01*
X139601Y355477D01*
Y348484D01*
G37*
G36*
X149608Y171541D02*X139601D01*
Y325477D01*
X139607Y325476D01*
X140235Y325526D01*
X140847Y325673D01*
X141429Y325914D01*
X141965Y326243D01*
X142444Y326651D01*
X142853Y327130D01*
X143182Y327667D01*
X143423Y328249D01*
X143570Y328861D01*
X143607Y329489D01*
X143570Y330116D01*
X143423Y330728D01*
X143182Y331310D01*
X142853Y331847D01*
X142444Y332326D01*
X141965Y332735D01*
X141429Y333064D01*
X140847Y333305D01*
X140235Y333452D01*
X139607Y333501D01*
X139601Y333500D01*
Y340493D01*
X142764Y340498D01*
X142917Y340535D01*
X143062Y340595D01*
X143197Y340677D01*
X143316Y340779D01*
X143419Y340899D01*
X143501Y341033D01*
X143561Y341179D01*
X143598Y341332D01*
X143607Y341489D01*
X143606Y342238D01*
X146565D01*
X146654Y342231D01*
X147006Y342259D01*
X147007Y342259D01*
X147351Y342342D01*
X147678Y342477D01*
X147980Y342662D01*
X148249Y342892D01*
X148307Y342960D01*
X149608Y344261D01*
Y171541D01*
G37*
G36*
X139601D02*X128619D01*
Y302979D01*
X128670Y303023D01*
X128824Y303202D01*
X128947Y303404D01*
X129037Y303622D01*
X129092Y303851D01*
X129106Y304087D01*
X129092Y310322D01*
X129037Y310552D01*
X128947Y310770D01*
X128824Y310971D01*
X128670Y311151D01*
X128619Y311194D01*
Y325771D01*
X129193Y325908D01*
X129774Y326149D01*
X130311Y326478D01*
X130790Y326887D01*
X131199Y327366D01*
X131528Y327903D01*
X131769Y328485D01*
X131916Y329097D01*
X131953Y329724D01*
X131916Y330352D01*
X131769Y330964D01*
X131528Y331546D01*
X131199Y332083D01*
X130790Y332562D01*
X130311Y332970D01*
X130203Y333037D01*
Y340603D01*
X131837Y342238D01*
X135615D01*
X135616Y341332D01*
X135653Y341179D01*
X135713Y341033D01*
X135796Y340899D01*
X135898Y340779D01*
X136017Y340677D01*
X136152Y340595D01*
X136297Y340535D01*
X136450Y340498D01*
X136607Y340489D01*
X139601Y340493D01*
Y333500D01*
X138979Y333452D01*
X138367Y333305D01*
X137786Y333064D01*
X137249Y332735D01*
X136770Y332326D01*
X136361Y331847D01*
X136032Y331310D01*
X135791Y330728D01*
X135644Y330116D01*
X135595Y329489D01*
X135644Y328861D01*
X135791Y328249D01*
X136032Y327667D01*
X136361Y327130D01*
X136770Y326651D01*
X137249Y326243D01*
X137786Y325914D01*
X138367Y325673D01*
X138979Y325526D01*
X139601Y325477D01*
Y171541D01*
G37*
G36*
X149608Y115590D02*X149607Y115590D01*
X148462Y115500D01*
X147344Y115232D01*
X146283Y114792D01*
X145303Y114192D01*
X144429Y113446D01*
X143683Y112572D01*
X143083Y111592D01*
X142643Y110530D01*
X142640Y110518D01*
X134187D01*
Y158335D01*
X134190Y158339D01*
X134450Y158761D01*
X134666Y159207D01*
X134841Y159671D01*
X134973Y160149D01*
X135062Y160636D01*
X135106Y161130D01*
Y161626D01*
X135062Y162119D01*
X134973Y162607D01*
X134841Y163085D01*
X134666Y163549D01*
X134450Y163995D01*
X134195Y164420D01*
X134187Y164430D01*
Y167041D01*
X149608D01*
Y163895D01*
X149606Y163895D01*
X148743Y163827D01*
X147901Y163625D01*
X147102Y163294D01*
X146364Y162841D01*
X145705Y162279D01*
X145143Y161621D01*
X144691Y160883D01*
X144359Y160083D01*
X144157Y159241D01*
X144089Y158378D01*
X144157Y157515D01*
X144359Y156673D01*
X144691Y155873D01*
X145143Y155135D01*
X145705Y154477D01*
X146364Y153915D01*
X147102Y153462D01*
X147901Y153131D01*
X148743Y152929D01*
X149606Y152861D01*
X149608Y152861D01*
Y115590D01*
G37*
G36*
X134187Y110518D02*X128619D01*
Y155967D01*
X128865Y155923D01*
X129358Y155878D01*
X129854D01*
X130348Y155923D01*
X130835Y156011D01*
X131313Y156144D01*
X131777Y156318D01*
X132223Y156534D01*
X132648Y156789D01*
X132711Y156838D01*
X132765Y156896D01*
X132810Y156962D01*
X132843Y157034D01*
X132865Y157110D01*
X132875Y157189D01*
X132872Y157268D01*
X132857Y157346D01*
X132829Y157421D01*
X132791Y157490D01*
X132742Y157553D01*
X132684Y157607D01*
X132618Y157651D01*
X132546Y157685D01*
X132470Y157707D01*
X132391Y157716D01*
X132311Y157713D01*
X132233Y157698D01*
X132159Y157671D01*
X132090Y157631D01*
X131745Y157419D01*
X131381Y157242D01*
X131001Y157100D01*
X130611Y156992D01*
X130212Y156919D01*
X129809Y156883D01*
X129404D01*
X129000Y156919D01*
X128619Y156988D01*
Y165768D01*
X129000Y165837D01*
X129404Y165873D01*
X129809D01*
X130212Y165837D01*
X130611Y165764D01*
X131001Y165656D01*
X131381Y165513D01*
X131745Y165337D01*
X132093Y165129D01*
X132161Y165089D01*
X132235Y165062D01*
X132312Y165047D01*
X132390Y165044D01*
X132469Y165054D01*
X132544Y165076D01*
X132616Y165109D01*
X132681Y165153D01*
X132738Y165206D01*
X132787Y165268D01*
X132825Y165337D01*
X132852Y165411D01*
X132867Y165488D01*
X132870Y165567D01*
X132860Y165645D01*
X132839Y165721D01*
X132806Y165792D01*
X132762Y165857D01*
X132708Y165915D01*
X132645Y165962D01*
X132223Y166222D01*
X131777Y166438D01*
X131313Y166612D01*
X130835Y166745D01*
X130348Y166833D01*
X129854Y166878D01*
X129358D01*
X128865Y166833D01*
X128619Y166789D01*
Y167041D01*
X134187D01*
Y164430D01*
X134147Y164483D01*
X134089Y164537D01*
X134023Y164581D01*
X133951Y164615D01*
X133874Y164637D01*
X133795Y164646D01*
X133716Y164643D01*
X133638Y164628D01*
X133564Y164601D01*
X133494Y164562D01*
X133432Y164514D01*
X133377Y164455D01*
X133333Y164390D01*
X133300Y164318D01*
X133278Y164241D01*
X133268Y164162D01*
X133271Y164083D01*
X133286Y164005D01*
X133313Y163930D01*
X133353Y163862D01*
X133565Y163517D01*
X133742Y163152D01*
X133885Y162773D01*
X133993Y162383D01*
X134065Y161984D01*
X134102Y161581D01*
Y161175D01*
X134065Y160772D01*
X133993Y160373D01*
X133885Y159983D01*
X133742Y159604D01*
X133565Y159239D01*
X133357Y158892D01*
X133318Y158824D01*
X133291Y158750D01*
X133275Y158672D01*
X133273Y158594D01*
X133282Y158516D01*
X133304Y158440D01*
X133337Y158369D01*
X133381Y158303D01*
X133435Y158246D01*
X133497Y158197D01*
X133565Y158159D01*
X133639Y158132D01*
X133717Y158117D01*
X133795Y158114D01*
X133873Y158124D01*
X133949Y158145D01*
X134020Y158179D01*
X134086Y158223D01*
X134143Y158276D01*
X134187Y158335D01*
Y110518D01*
G37*
G36*
X149608Y39370D02*X128619D01*
Y106018D01*
X142640D01*
X142643Y106005D01*
X143083Y104943D01*
X143683Y103964D01*
X144429Y103090D01*
X145303Y102344D01*
X146283Y101743D01*
X147344Y101304D01*
X148462Y101035D01*
X149607Y100945D01*
X149608Y100945D01*
Y51507D01*
X149606Y51507D01*
X148939Y51455D01*
X148289Y51299D01*
X147671Y51043D01*
X147101Y50693D01*
X146592Y50259D01*
X146157Y49750D01*
X145808Y49180D01*
X145552Y48561D01*
X145396Y47911D01*
X145343Y47244D01*
X145396Y46577D01*
X145552Y45927D01*
X145808Y45309D01*
X146157Y44738D01*
X146592Y44230D01*
X147101Y43795D01*
X147671Y43446D01*
X148289Y43190D01*
X148939Y43033D01*
X149606Y42981D01*
X149608Y42981D01*
Y39370D01*
G37*
G36*
X146105Y413386D02*X149608D01*
Y409762D01*
X149406D01*
X149006Y409724D01*
X148612Y409649D01*
X148227Y409537D01*
X147854Y409389D01*
X147497Y409207D01*
X147431Y409163D01*
X147373Y409108D01*
X147325Y409046D01*
X147287Y408976D01*
X147260Y408902D01*
X147245Y408824D01*
X147243Y408745D01*
X147252Y408666D01*
X147275Y408590D01*
X147308Y408518D01*
X147353Y408452D01*
X147407Y408395D01*
X147470Y408346D01*
X147539Y408308D01*
X147614Y408281D01*
X147692Y408266D01*
X147771Y408264D01*
X147850Y408274D01*
X147926Y408296D01*
X147997Y408331D01*
X148268Y408473D01*
X148553Y408586D01*
X148847Y408672D01*
X149148Y408729D01*
X149453Y408758D01*
X149608D01*
Y402265D01*
X149453D01*
X149148Y402294D01*
X148847Y402352D01*
X148553Y402437D01*
X148268Y402550D01*
X147995Y402689D01*
X147925Y402724D01*
X147849Y402746D01*
X147771Y402756D01*
X147692Y402754D01*
X147615Y402739D01*
X147541Y402712D01*
X147472Y402674D01*
X147410Y402626D01*
X147356Y402569D01*
X147312Y402504D01*
X147278Y402433D01*
X147256Y402357D01*
X147246Y402279D01*
X147249Y402200D01*
X147263Y402123D01*
X147290Y402049D01*
X147328Y401980D01*
X147376Y401918D01*
X147433Y401864D01*
X147499Y401821D01*
X147854Y401635D01*
X148227Y401487D01*
X148612Y401375D01*
X149006Y401300D01*
X149406Y401262D01*
X149608D01*
Y400872D01*
X146105D01*
Y403212D01*
X146142Y403192D01*
X146216Y403165D01*
X146294Y403151D01*
X146374Y403148D01*
X146452Y403158D01*
X146528Y403180D01*
X146600Y403214D01*
X146666Y403259D01*
X146723Y403313D01*
X146772Y403375D01*
X146810Y403445D01*
X146837Y403520D01*
X146852Y403597D01*
X146854Y403677D01*
X146844Y403755D01*
X146822Y403831D01*
X146787Y403902D01*
X146645Y404173D01*
X146532Y404458D01*
X146446Y404753D01*
X146389Y405054D01*
X146360Y405359D01*
Y405665D01*
X146389Y405970D01*
X146446Y406271D01*
X146532Y406565D01*
X146645Y406850D01*
X146784Y407123D01*
X146819Y407194D01*
X146841Y407269D01*
X146851Y407347D01*
X146848Y407426D01*
X146833Y407503D01*
X146807Y407577D01*
X146769Y407646D01*
X146721Y407708D01*
X146663Y407762D01*
X146598Y407807D01*
X146527Y407840D01*
X146452Y407862D01*
X146373Y407872D01*
X146295Y407870D01*
X146217Y407855D01*
X146143Y407828D01*
X146105Y407807D01*
Y413386D01*
G37*
G36*
X128619D02*X146105D01*
Y407807D01*
X146074Y407790D01*
X146012Y407742D01*
X145958Y407685D01*
X145915Y407619D01*
X145729Y407264D01*
X145581Y406891D01*
X145469Y406506D01*
X145394Y406112D01*
X145356Y405712D01*
Y405311D01*
X145394Y404912D01*
X145469Y404518D01*
X145581Y404133D01*
X145729Y403760D01*
X145911Y403402D01*
X145955Y403337D01*
X146010Y403279D01*
X146072Y403230D01*
X146105Y403212D01*
Y400872D01*
X136759D01*
X128619Y409012D01*
Y413386D01*
G37*
G36*
X125025Y167041D02*X128619D01*
Y166789D01*
X128377Y166745D01*
X127899Y166612D01*
X127436Y166438D01*
X126989Y166222D01*
X126564Y165967D01*
X126501Y165918D01*
X126447Y165860D01*
X126403Y165794D01*
X126369Y165722D01*
X126348Y165646D01*
X126338Y165567D01*
X126341Y165488D01*
X126356Y165410D01*
X126383Y165335D01*
X126422Y165266D01*
X126471Y165203D01*
X126529Y165149D01*
X126595Y165105D01*
X126667Y165071D01*
X126743Y165049D01*
X126822Y165040D01*
X126901Y165043D01*
X126979Y165058D01*
X127054Y165085D01*
X127122Y165125D01*
X127467Y165337D01*
X127832Y165513D01*
X128211Y165656D01*
X128602Y165764D01*
X128619Y165768D01*
Y156988D01*
X128602Y156992D01*
X128211Y157100D01*
X127832Y157242D01*
X127467Y157419D01*
X127120Y157627D01*
X127052Y157667D01*
X126978Y157694D01*
X126901Y157709D01*
X126822Y157712D01*
X126744Y157702D01*
X126668Y157680D01*
X126597Y157647D01*
X126532Y157603D01*
X126474Y157550D01*
X126426Y157488D01*
X126387Y157419D01*
X126360Y157345D01*
X126345Y157268D01*
X126343Y157189D01*
X126352Y157111D01*
X126374Y157035D01*
X126407Y156964D01*
X126451Y156899D01*
X126505Y156841D01*
X126567Y156794D01*
X126989Y156534D01*
X127436Y156318D01*
X127899Y156144D01*
X128377Y156011D01*
X128619Y155967D01*
Y110518D01*
X125025D01*
Y158326D01*
X125066Y158273D01*
X125124Y158219D01*
X125190Y158175D01*
X125262Y158141D01*
X125338Y158119D01*
X125417Y158110D01*
X125496Y158112D01*
X125574Y158128D01*
X125649Y158155D01*
X125718Y158193D01*
X125781Y158242D01*
X125835Y158301D01*
X125880Y158366D01*
X125913Y158438D01*
X125935Y158515D01*
X125944Y158594D01*
X125942Y158673D01*
X125926Y158751D01*
X125899Y158826D01*
X125859Y158894D01*
X125647Y159239D01*
X125471Y159604D01*
X125328Y159983D01*
X125220Y160373D01*
X125147Y160772D01*
X125111Y161175D01*
Y161581D01*
X125147Y161984D01*
X125220Y162383D01*
X125328Y162773D01*
X125471Y163152D01*
X125647Y163517D01*
X125856Y163864D01*
X125895Y163932D01*
X125922Y164006D01*
X125937Y164083D01*
X125940Y164162D01*
X125930Y164240D01*
X125909Y164316D01*
X125876Y164387D01*
X125832Y164453D01*
X125778Y164510D01*
X125716Y164559D01*
X125647Y164597D01*
X125573Y164624D01*
X125496Y164639D01*
X125417Y164642D01*
X125339Y164632D01*
X125264Y164611D01*
X125192Y164577D01*
X125127Y164533D01*
X125069Y164480D01*
X125025Y164421D01*
Y167041D01*
G37*
G36*
X115237D02*X125025D01*
Y164421D01*
X125022Y164417D01*
X124762Y163995D01*
X124547Y163549D01*
X124372Y163085D01*
X124240Y162607D01*
X124151Y162119D01*
X124106Y161626D01*
Y161130D01*
X124151Y160636D01*
X124240Y160149D01*
X124372Y159671D01*
X124547Y159207D01*
X124762Y158761D01*
X125017Y158336D01*
X125025Y158326D01*
Y110518D01*
X115237D01*
Y167041D01*
G37*
G36*
X119487Y363657D02*X128619D01*
Y345384D01*
X126424Y343189D01*
X126357Y343131D01*
X126127Y342862D01*
X125942Y342560D01*
X125806Y342233D01*
X125724Y341888D01*
X125724Y341888D01*
X125696Y341535D01*
X125703Y341447D01*
Y333037D01*
X125594Y332970D01*
X125116Y332562D01*
X124707Y332083D01*
X124378Y331546D01*
X124137Y330964D01*
X123990Y330352D01*
X123940Y329724D01*
X123990Y329097D01*
X124137Y328485D01*
X124378Y327903D01*
X124707Y327366D01*
X125116Y326887D01*
X125594Y326478D01*
X126131Y326149D01*
X126713Y325908D01*
X127325Y325761D01*
X127953Y325712D01*
X128580Y325761D01*
X128619Y325771D01*
Y311194D01*
X128491Y311304D01*
X128289Y311427D01*
X128071Y311518D01*
X127842Y311573D01*
X127606Y311587D01*
X121371Y311573D01*
X121141Y311518D01*
X120923Y311427D01*
X120722Y311304D01*
X120542Y311151D01*
X120389Y310971D01*
X120266Y310770D01*
X120175Y310552D01*
X120120Y310322D01*
X120106Y310087D01*
X120110Y308587D01*
X119487D01*
Y341237D01*
X119565Y341243D01*
X119642Y341262D01*
X119715Y341292D01*
X119782Y341333D01*
X119842Y341384D01*
X119893Y341444D01*
X119934Y341511D01*
X119964Y341584D01*
X119982Y341660D01*
X119987Y341739D01*
Y347239D01*
X119982Y347317D01*
X119964Y347394D01*
X119934Y347466D01*
X119893Y347533D01*
X119842Y347593D01*
X119782Y347644D01*
X119715Y347685D01*
X119642Y347716D01*
X119565Y347734D01*
X119487Y347740D01*
Y363657D01*
G37*
G36*
X115237D02*X119487D01*
Y347740D01*
X119409Y347734D01*
X119332Y347716D01*
X119259Y347685D01*
X119192Y347644D01*
X119132Y347593D01*
X119081Y347533D01*
X119040Y347466D01*
X119010Y347394D01*
X118992Y347317D01*
X118987Y347239D01*
Y341739D01*
X118992Y341660D01*
X119010Y341584D01*
X119040Y341511D01*
X119081Y341444D01*
X119132Y341384D01*
X119192Y341333D01*
X119259Y341292D01*
X119332Y341262D01*
X119409Y341243D01*
X119487Y341237D01*
Y308587D01*
X115237D01*
Y339739D01*
X117987D01*
X118065Y339743D01*
X118142Y339762D01*
X118215Y339792D01*
X118282Y339833D01*
X118342Y339884D01*
X118393Y339944D01*
X118434Y340011D01*
X118464Y340084D01*
X118482Y340160D01*
X118489Y340239D01*
X118482Y340317D01*
X118464Y340394D01*
X118434Y340466D01*
X118393Y340533D01*
X118342Y340593D01*
X118282Y340644D01*
X118215Y340685D01*
X118142Y340716D01*
X118065Y340734D01*
X117987Y340739D01*
X115237D01*
Y348239D01*
X117987D01*
X118065Y348243D01*
X118142Y348262D01*
X118215Y348292D01*
X118282Y348333D01*
X118342Y348384D01*
X118393Y348444D01*
X118434Y348511D01*
X118464Y348584D01*
X118482Y348660D01*
X118489Y348739D01*
X118482Y348817D01*
X118464Y348894D01*
X118434Y348966D01*
X118393Y349033D01*
X118342Y349093D01*
X118282Y349144D01*
X118215Y349185D01*
X118142Y349216D01*
X118065Y349234D01*
X117987Y349239D01*
X115237D01*
Y363657D01*
G37*
G36*
Y283922D02*X115312Y283928D01*
X116001Y284093D01*
X116656Y284364D01*
X117259Y284734D01*
X117798Y285194D01*
X118258Y285733D01*
X118628Y286337D01*
X118899Y286991D01*
X119065Y287680D01*
X119106Y288386D01*
X119065Y289092D01*
X118899Y289781D01*
X118628Y290435D01*
X118258Y291039D01*
X117798Y291578D01*
X117259Y292038D01*
X116656Y292408D01*
X116001Y292679D01*
X115312Y292844D01*
X115237Y292850D01*
Y305587D01*
X120116D01*
X120120Y303851D01*
X120175Y303622D01*
X120266Y303404D01*
X120389Y303202D01*
X120542Y303023D01*
X120722Y302869D01*
X120923Y302746D01*
X121141Y302656D01*
X121371Y302601D01*
X121606Y302587D01*
X127842Y302601D01*
X128071Y302656D01*
X128289Y302746D01*
X128491Y302869D01*
X128619Y302979D01*
Y171541D01*
X115237D01*
Y283922D01*
G37*
G36*
X128619Y39370D02*X115237D01*
Y58338D01*
X116112Y59085D01*
X116959Y60077D01*
X117640Y61188D01*
X118139Y62393D01*
X118444Y63661D01*
X118521Y64961D01*
X118444Y66260D01*
X118139Y67528D01*
X117640Y68733D01*
X116959Y69845D01*
X116112Y70836D01*
X115237Y71584D01*
Y106018D01*
X128619D01*
Y39370D01*
G37*
G36*
X110987Y363657D02*X115237D01*
Y349239D01*
X112487D01*
X112409Y349234D01*
X112332Y349216D01*
X112259Y349185D01*
X112192Y349144D01*
X112132Y349093D01*
X112081Y349033D01*
X112040Y348966D01*
X112010Y348894D01*
X111992Y348817D01*
X111985Y348739D01*
X111992Y348660D01*
X112010Y348584D01*
X112040Y348511D01*
X112081Y348444D01*
X112132Y348384D01*
X112192Y348333D01*
X112259Y348292D01*
X112332Y348262D01*
X112409Y348243D01*
X112487Y348239D01*
X115237D01*
Y340739D01*
X112487D01*
X112409Y340734D01*
X112332Y340716D01*
X112259Y340685D01*
X112192Y340644D01*
X112132Y340593D01*
X112081Y340533D01*
X112040Y340466D01*
X112010Y340394D01*
X111992Y340317D01*
X111985Y340239D01*
X111992Y340160D01*
X112010Y340084D01*
X112040Y340011D01*
X112081Y339944D01*
X112132Y339884D01*
X112192Y339833D01*
X112259Y339792D01*
X112332Y339762D01*
X112409Y339743D01*
X112487Y339739D01*
X115237D01*
Y308587D01*
X112826D01*
X110987Y310426D01*
Y341237D01*
X111065Y341243D01*
X111142Y341262D01*
X111215Y341292D01*
X111282Y341333D01*
X111342Y341384D01*
X111393Y341444D01*
X111434Y341511D01*
X111464Y341584D01*
X111482Y341660D01*
X111487Y341739D01*
Y347239D01*
X111482Y347317D01*
X111464Y347394D01*
X111434Y347466D01*
X111393Y347533D01*
X111342Y347593D01*
X111282Y347644D01*
X111215Y347685D01*
X111142Y347716D01*
X111065Y347734D01*
X110987Y347740D01*
Y363657D01*
G37*
G36*
X115237Y292850D02*X114606Y292900D01*
X113900Y292844D01*
X113211Y292679D01*
X112557Y292408D01*
X111953Y292038D01*
X111415Y291578D01*
X110987Y291077D01*
Y306183D01*
X111102Y306068D01*
X111141Y306023D01*
X111320Y305869D01*
X111522Y305746D01*
X111740Y305656D01*
X111969Y305601D01*
X112205Y305582D01*
X112264Y305587D01*
X115237D01*
Y292850D01*
G37*
G36*
X110987Y291077D02*X110954Y291039D01*
X110707Y290636D01*
X101326D01*
X97980Y293981D01*
Y363657D01*
X110987D01*
Y347740D01*
X110909Y347734D01*
X110832Y347716D01*
X110759Y347685D01*
X110692Y347644D01*
X110632Y347593D01*
X110581Y347533D01*
X110540Y347466D01*
X110510Y347394D01*
X110492Y347317D01*
X110487Y347239D01*
Y341739D01*
X110492Y341660D01*
X110510Y341584D01*
X110540Y341511D01*
X110581Y341444D01*
X110632Y341384D01*
X110692Y341333D01*
X110759Y341292D01*
X110832Y341262D01*
X110909Y341243D01*
X110987Y341237D01*
Y310426D01*
X106815Y314598D01*
Y340001D01*
X107400Y340243D01*
X108038Y340634D01*
X108606Y341119D01*
X109092Y341688D01*
X109482Y342325D01*
X109768Y343016D01*
X109943Y343743D01*
X109987Y344489D01*
X109943Y345234D01*
X109768Y345961D01*
X109482Y346652D01*
X109092Y347289D01*
X108606Y347858D01*
X108038Y348343D01*
X107400Y348734D01*
X106709Y349020D01*
X105982Y349195D01*
X105237Y349253D01*
X104492Y349195D01*
X103765Y349020D01*
X103074Y348734D01*
X102436Y348343D01*
X101868Y347858D01*
X101382Y347289D01*
X100992Y346652D01*
X100706Y345961D01*
X100531Y345234D01*
X100472Y344489D01*
X100531Y343743D01*
X100706Y343016D01*
X100992Y342325D01*
X101382Y341688D01*
X101868Y341119D01*
X102436Y340634D01*
X103074Y340243D01*
X103765Y339957D01*
X103815Y339945D01*
Y314035D01*
X103810Y313976D01*
X103829Y313741D01*
X103884Y313511D01*
X103974Y313293D01*
X104098Y313092D01*
X104251Y312912D01*
X104296Y312874D01*
X110987Y306183D01*
Y291077D01*
G37*
G36*
X115237Y39370D02*X97980D01*
Y287617D01*
X98740Y286857D01*
X98798Y286790D01*
X99067Y286560D01*
X99067Y286560D01*
X99254Y286445D01*
X99369Y286375D01*
X99696Y286239D01*
X100041Y286157D01*
X100041D01*
X100394Y286129D01*
X100482Y286136D01*
X110707D01*
X110954Y285733D01*
X111415Y285194D01*
X111953Y284734D01*
X112557Y284364D01*
X113211Y284093D01*
X113900Y283928D01*
X114606Y283872D01*
X115237Y283922D01*
Y171541D01*
X110324D01*
X110236Y171548D01*
X109883Y171520D01*
X109539Y171438D01*
X109212Y171302D01*
X108910Y171117D01*
X108909Y171117D01*
X108640Y170887D01*
X108583Y170820D01*
X102802Y165039D01*
X102735Y164982D01*
X102505Y164712D01*
X102320Y164410D01*
X102184Y164083D01*
X102102Y163739D01*
X102102Y163739D01*
X102074Y163386D01*
X102081Y163298D01*
Y149139D01*
X101972Y149073D01*
X101494Y148664D01*
X101085Y148185D01*
X100756Y147648D01*
X100515Y147067D01*
X100368Y146454D01*
X100318Y145827D01*
X100368Y145199D01*
X100515Y144587D01*
X100756Y144005D01*
X101085Y143468D01*
X101494Y142990D01*
X101972Y142581D01*
X102509Y142252D01*
X103091Y142011D01*
X103703Y141864D01*
X104331Y141814D01*
X104958Y141864D01*
X105571Y142011D01*
X106152Y142252D01*
X106689Y142581D01*
X107168Y142990D01*
X107577Y143468D01*
X107906Y144005D01*
X108147Y144587D01*
X108294Y145199D01*
X108331Y145827D01*
X108294Y146454D01*
X108147Y147067D01*
X107906Y147648D01*
X107577Y148185D01*
X107168Y148664D01*
X106689Y149073D01*
X106581Y149139D01*
Y162454D01*
X111168Y167041D01*
X115237D01*
Y110518D01*
X109200D01*
X106581Y113137D01*
Y121839D01*
X107066Y121841D01*
X107296Y121896D01*
X107514Y121986D01*
X107715Y122110D01*
X107895Y122263D01*
X108048Y122442D01*
X108171Y122644D01*
X108262Y122862D01*
X108317Y123091D01*
X108331Y123327D01*
X108317Y128562D01*
X108262Y128792D01*
X108171Y129010D01*
X108048Y129211D01*
X107895Y129391D01*
X107715Y129544D01*
X107514Y129667D01*
X107296Y129758D01*
X107066Y129813D01*
X106831Y129827D01*
X101595Y129813D01*
X101366Y129758D01*
X101148Y129667D01*
X100946Y129544D01*
X100767Y129391D01*
X100613Y129211D01*
X100490Y129010D01*
X100400Y128792D01*
X100345Y128562D01*
X100331Y128327D01*
X100345Y123091D01*
X100400Y122862D01*
X100490Y122644D01*
X100613Y122442D01*
X100767Y122263D01*
X100946Y122110D01*
X101148Y121986D01*
X101366Y121896D01*
X101595Y121841D01*
X101831Y121827D01*
X102081Y121827D01*
Y112293D01*
X102074Y112205D01*
X102102Y111852D01*
Y111852D01*
X102184Y111507D01*
X102320Y111180D01*
X102390Y111065D01*
X102505Y110878D01*
X102505Y110878D01*
X102735Y110609D01*
X102802Y110551D01*
X106614Y106739D01*
X106672Y106672D01*
X106941Y106442D01*
X106941Y106442D01*
X107128Y106327D01*
X107243Y106257D01*
X107570Y106121D01*
X107915Y106039D01*
X107915D01*
X108268Y106011D01*
X108356Y106018D01*
X115237D01*
Y71584D01*
X115121Y71683D01*
X114009Y72364D01*
X112805Y72863D01*
X111537Y73167D01*
X110237Y73270D01*
X108937Y73167D01*
X107669Y72863D01*
X106465Y72364D01*
X105353Y71683D01*
X104362Y70836D01*
X103515Y69845D01*
X102834Y68733D01*
X102335Y67528D01*
X102030Y66260D01*
X101928Y64961D01*
X102030Y63661D01*
X102335Y62393D01*
X102834Y61188D01*
X103515Y60077D01*
X104362Y59085D01*
X105353Y58238D01*
X106465Y57557D01*
X107669Y57058D01*
X108937Y56754D01*
X110237Y56652D01*
X111537Y56754D01*
X112805Y57058D01*
X114009Y57557D01*
X115121Y58238D01*
X115237Y58338D01*
Y39370D01*
G37*
G36*
X80861Y355477D02*X80867Y355476D01*
X81495Y355526D01*
X82107Y355673D01*
X82689Y355914D01*
X83225Y356243D01*
X83704Y356651D01*
X84113Y357130D01*
X84442Y357667D01*
X84683Y358249D01*
X84830Y358861D01*
X84867Y359489D01*
X84830Y360116D01*
X84683Y360728D01*
X84442Y361310D01*
X84113Y361847D01*
X83704Y362326D01*
X83225Y362735D01*
X82689Y363064D01*
X82107Y363305D01*
X81495Y363452D01*
X80867Y363501D01*
X80861Y363500D01*
Y363657D01*
X97980D01*
Y293981D01*
X96738Y295223D01*
Y339479D01*
X96745Y339567D01*
X96717Y339920D01*
X96635Y340264D01*
X96595Y340360D01*
X96499Y340592D01*
X96384Y340779D01*
X96314Y340894D01*
X96314Y340894D01*
X96084Y341163D01*
X96017Y341220D01*
X91220Y346017D01*
X91163Y346084D01*
X90894Y346314D01*
X90894Y346314D01*
X90779Y346384D01*
X90592Y346499D01*
X90360Y346595D01*
X90264Y346635D01*
X89920Y346717D01*
X89567Y346745D01*
X89479Y346738D01*
X84180D01*
X84113Y346847D01*
X83704Y347326D01*
X83225Y347735D01*
X82689Y348064D01*
X82107Y348305D01*
X81495Y348452D01*
X80867Y348501D01*
X80861Y348500D01*
Y355477D01*
G37*
G36*
Y203262D02*X83911D01*
X85348Y201824D01*
Y99357D01*
X83714Y97722D01*
X80861D01*
Y203262D01*
G37*
G36*
X97980Y39370D02*X80861D01*
Y93222D01*
X84558D01*
X84646Y93216D01*
X84999Y93243D01*
X84999Y93243D01*
X85343Y93326D01*
X85670Y93461D01*
X85972Y93647D01*
X86242Y93877D01*
X86299Y93944D01*
X89127Y96772D01*
X89194Y96829D01*
X89424Y97098D01*
X89424Y97099D01*
X89609Y97401D01*
X89745Y97728D01*
X89828Y98072D01*
X89855Y98425D01*
X89848Y98513D01*
Y202668D01*
X89855Y202756D01*
X89828Y203109D01*
X89745Y203453D01*
X89705Y203549D01*
X89609Y203781D01*
X89495Y203968D01*
X89424Y204083D01*
X89424Y204083D01*
X89194Y204352D01*
X89127Y204409D01*
X86496Y207040D01*
X86438Y207108D01*
X86169Y207338D01*
X86169Y207338D01*
X86054Y207408D01*
X85867Y207523D01*
X85636Y207619D01*
X85540Y207658D01*
X85196Y207741D01*
X84843Y207769D01*
X84754Y207762D01*
X80861D01*
Y325477D01*
X80867Y325476D01*
X81495Y325526D01*
X82107Y325673D01*
X82689Y325914D01*
X83225Y326243D01*
X83704Y326651D01*
X84113Y327130D01*
X84442Y327667D01*
X84683Y328249D01*
X84830Y328861D01*
X84867Y329489D01*
X84830Y330116D01*
X84683Y330728D01*
X84442Y331310D01*
X84113Y331847D01*
X83704Y332326D01*
X83225Y332735D01*
X82689Y333064D01*
X82107Y333305D01*
X81495Y333452D01*
X80867Y333501D01*
X80861Y333500D01*
Y340477D01*
X80867Y340476D01*
X81495Y340526D01*
X82107Y340673D01*
X82689Y340914D01*
X83225Y341243D01*
X83704Y341651D01*
X84113Y342130D01*
X84179Y342238D01*
X88635D01*
X92238Y338635D01*
Y294380D01*
X92231Y294291D01*
X92259Y293938D01*
Y293938D01*
X92342Y293594D01*
X92477Y293267D01*
X92548Y293152D01*
X92662Y292965D01*
X92662Y292965D01*
X92892Y292695D01*
X92960Y292638D01*
X97980Y287617D01*
Y39370D01*
G37*
G36*
X80861Y363500D02*X80239Y363452D01*
X79627Y363305D01*
X79045Y363064D01*
X78509Y362735D01*
X78030Y362326D01*
X77621Y361847D01*
X77292Y361310D01*
X77061Y360752D01*
X65008D01*
Y363657D01*
X80861D01*
Y363500D01*
G37*
G36*
Y207762D02*X79530D01*
X79356Y208047D01*
X78916Y208562D01*
X78401Y209001D01*
X78116Y209176D01*
Y211847D01*
X78401Y212022D01*
X78916Y212462D01*
X79356Y212977D01*
X79709Y213554D01*
X79968Y214179D01*
X80126Y214837D01*
X80166Y215512D01*
X80126Y216187D01*
X79968Y216845D01*
X79709Y217470D01*
X79356Y218047D01*
X78916Y218562D01*
X78401Y219001D01*
X78116Y219176D01*
Y221847D01*
X78401Y222022D01*
X78916Y222462D01*
X79356Y222977D01*
X79709Y223554D01*
X79968Y224179D01*
X80126Y224837D01*
X80166Y225512D01*
X80126Y226187D01*
X79968Y226845D01*
X79709Y227470D01*
X79356Y228047D01*
X78916Y228562D01*
X78401Y229001D01*
X77824Y229355D01*
X77199Y229614D01*
X76541Y229772D01*
X75866Y229825D01*
X75191Y229772D01*
X74533Y229614D01*
X73908Y229355D01*
X73331Y229001D01*
X72816Y228562D01*
X72377Y228047D01*
X72023Y227470D01*
X71764Y226845D01*
X71606Y226187D01*
X71553Y225512D01*
X71606Y224837D01*
X71764Y224179D01*
X72023Y223554D01*
X72377Y222977D01*
X72816Y222462D01*
X73331Y222022D01*
X73616Y221847D01*
Y219176D01*
X73331Y219001D01*
X72816Y218562D01*
X72377Y218047D01*
X72023Y217470D01*
X71764Y216845D01*
X71606Y216187D01*
X71553Y215512D01*
X71606Y214837D01*
X71764Y214179D01*
X72023Y213554D01*
X72377Y212977D01*
X72816Y212462D01*
X73331Y212022D01*
X73616Y211847D01*
Y209176D01*
X73331Y209001D01*
X72816Y208562D01*
X72377Y208047D01*
X72023Y207470D01*
X71764Y206845D01*
X71606Y206187D01*
X71553Y205512D01*
X71606Y204837D01*
X71764Y204179D01*
X71954Y203721D01*
X70127Y201894D01*
X69666D01*
Y203505D01*
X69784Y203728D01*
X69935Y204107D01*
X70050Y204499D01*
X70127Y204901D01*
X70166Y205308D01*
Y205716D01*
X70127Y206123D01*
X70050Y206524D01*
X69935Y206916D01*
X69784Y207296D01*
X69666Y207525D01*
Y213505D01*
X69784Y213728D01*
X69935Y214107D01*
X70050Y214499D01*
X70127Y214901D01*
X70166Y215308D01*
Y215716D01*
X70127Y216123D01*
X70050Y216524D01*
X69935Y216916D01*
X69784Y217296D01*
X69666Y217525D01*
Y223505D01*
X69784Y223728D01*
X69935Y224107D01*
X70050Y224499D01*
X70127Y224901D01*
X70166Y225308D01*
Y225716D01*
X70127Y226123D01*
X70050Y226524D01*
X69935Y226916D01*
X69784Y227296D01*
X69666Y227525D01*
Y232710D01*
X69745Y232716D01*
X69821Y232735D01*
X69894Y232765D01*
X69961Y232806D01*
X70021Y232857D01*
X70072Y232917D01*
X70113Y232984D01*
X70143Y233057D01*
X70162Y233133D01*
X70166Y233212D01*
Y237812D01*
X70162Y237890D01*
X70143Y237967D01*
X70113Y238040D01*
X70072Y238107D01*
X70021Y238166D01*
X69961Y238218D01*
X69894Y238259D01*
X69821Y238289D01*
X69745Y238307D01*
X69666Y238313D01*
Y243579D01*
X73198D01*
X74287Y242489D01*
Y239512D01*
X73908Y239355D01*
X73331Y239001D01*
X72816Y238562D01*
X72377Y238047D01*
X72023Y237470D01*
X71764Y236845D01*
X71606Y236187D01*
X71553Y235512D01*
X71606Y234837D01*
X71764Y234179D01*
X72023Y233554D01*
X72377Y232977D01*
X72816Y232462D01*
X73331Y232022D01*
X73908Y231669D01*
X74533Y231410D01*
X75191Y231252D01*
X75866Y231199D01*
X76541Y231252D01*
X77199Y231410D01*
X77824Y231669D01*
X78401Y232022D01*
X78916Y232462D01*
X79356Y232977D01*
X79709Y233554D01*
X79968Y234179D01*
X80126Y234837D01*
X80166Y235512D01*
X80126Y236187D01*
X79968Y236845D01*
X79709Y237470D01*
X79356Y238047D01*
X78916Y238562D01*
X78401Y239001D01*
X77824Y239355D01*
X77287Y239577D01*
Y243051D01*
X77292Y243110D01*
X77274Y243346D01*
X77218Y243575D01*
X77128Y243793D01*
X77005Y243995D01*
X76851Y244174D01*
X76806Y244212D01*
X74921Y246098D01*
X74883Y246143D01*
X74703Y246296D01*
X74502Y246419D01*
X74284Y246510D01*
X74054Y246565D01*
X73819Y246583D01*
X73760Y246579D01*
X69666D01*
Y357752D01*
X77257D01*
X77292Y357667D01*
X77621Y357130D01*
X78030Y356651D01*
X78509Y356243D01*
X79045Y355914D01*
X79627Y355673D01*
X80239Y355526D01*
X80861Y355477D01*
Y348500D01*
X80239Y348452D01*
X79627Y348305D01*
X79045Y348064D01*
X78509Y347735D01*
X78030Y347326D01*
X77621Y346847D01*
X77292Y346310D01*
X77051Y345728D01*
X76904Y345116D01*
X76855Y344489D01*
X76904Y343861D01*
X77051Y343249D01*
X77292Y342667D01*
X77621Y342130D01*
X78030Y341651D01*
X78509Y341243D01*
X79045Y340914D01*
X79627Y340673D01*
X80239Y340526D01*
X80861Y340477D01*
Y333500D01*
X80239Y333452D01*
X79627Y333305D01*
X79045Y333064D01*
X78509Y332735D01*
X78030Y332326D01*
X77621Y331847D01*
X77292Y331310D01*
X77051Y330728D01*
X76904Y330116D01*
X76855Y329489D01*
X76904Y328861D01*
X77051Y328249D01*
X77292Y327667D01*
X77621Y327130D01*
X78030Y326651D01*
X78509Y326243D01*
X79045Y325914D01*
X79627Y325673D01*
X80239Y325526D01*
X80861Y325477D01*
Y207762D01*
G37*
G36*
X69666Y246579D02*X65008D01*
Y300091D01*
X67948Y303032D01*
X67993Y303070D01*
X68146Y303249D01*
X68146Y303249D01*
X68270Y303451D01*
X68360Y303669D01*
X68415Y303898D01*
X68434Y304134D01*
X68429Y304193D01*
Y338524D01*
X68434Y338583D01*
X68415Y338818D01*
X68360Y339048D01*
X68270Y339266D01*
X68146Y339467D01*
X67993Y339647D01*
X67948Y339685D01*
X65008Y342626D01*
Y357752D01*
X69666D01*
Y246579D01*
G37*
G36*
Y201894D02*X68147D01*
X68185Y201943D01*
X68223Y202012D01*
X68250Y202087D01*
X68264Y202165D01*
X68266Y202244D01*
X68256Y202323D01*
X68234Y202399D01*
X68200Y202470D01*
X68155Y202536D01*
X68100Y202593D01*
X68037Y202642D01*
X67968Y202680D01*
X67893Y202706D01*
X67815Y202721D01*
X67736Y202723D01*
X67657Y202713D01*
X67581Y202690D01*
X67510Y202655D01*
X67234Y202509D01*
X66943Y202392D01*
X66642Y202304D01*
X66335Y202245D01*
X66023Y202216D01*
X65710D01*
X65398Y202245D01*
X65090Y202304D01*
X65008Y202329D01*
Y208695D01*
X65090Y208719D01*
X65398Y208778D01*
X65710Y208808D01*
X66023D01*
X66335Y208778D01*
X66642Y208719D01*
X66943Y208631D01*
X67234Y208515D01*
X67512Y208372D01*
X67583Y208337D01*
X67658Y208315D01*
X67736Y208304D01*
X67815Y208307D01*
X67892Y208321D01*
X67966Y208347D01*
X68035Y208385D01*
X68098Y208433D01*
X68152Y208490D01*
X68196Y208555D01*
X68230Y208626D01*
X68252Y208702D01*
X68263Y208780D01*
X68260Y208858D01*
X68246Y208936D01*
X68220Y209010D01*
X68182Y209079D01*
X68134Y209141D01*
X68077Y209195D01*
X68011Y209239D01*
X67650Y209430D01*
X67271Y209581D01*
X66878Y209696D01*
X66477Y209773D01*
X66070Y209812D01*
X65662D01*
X65255Y209773D01*
X65008Y209726D01*
Y211298D01*
X65255Y211251D01*
X65662Y211212D01*
X66070D01*
X66477Y211251D01*
X66878Y211328D01*
X67271Y211443D01*
X67650Y211594D01*
X68013Y211781D01*
X68079Y211825D01*
X68137Y211880D01*
X68185Y211943D01*
X68223Y212012D01*
X68250Y212087D01*
X68264Y212165D01*
X68266Y212244D01*
X68256Y212323D01*
X68234Y212399D01*
X68200Y212470D01*
X68155Y212536D01*
X68100Y212593D01*
X68037Y212642D01*
X67968Y212680D01*
X67893Y212706D01*
X67815Y212721D01*
X67736Y212723D01*
X67657Y212713D01*
X67581Y212690D01*
X67510Y212655D01*
X67234Y212509D01*
X66943Y212392D01*
X66642Y212304D01*
X66335Y212245D01*
X66023Y212216D01*
X65710D01*
X65398Y212245D01*
X65090Y212304D01*
X65008Y212329D01*
Y218695D01*
X65090Y218719D01*
X65398Y218778D01*
X65710Y218808D01*
X66023D01*
X66335Y218778D01*
X66642Y218719D01*
X66943Y218631D01*
X67234Y218515D01*
X67512Y218372D01*
X67583Y218337D01*
X67658Y218315D01*
X67736Y218304D01*
X67815Y218307D01*
X67892Y218321D01*
X67966Y218347D01*
X68035Y218385D01*
X68098Y218433D01*
X68152Y218490D01*
X68196Y218555D01*
X68230Y218626D01*
X68252Y218702D01*
X68263Y218780D01*
X68260Y218858D01*
X68246Y218936D01*
X68220Y219010D01*
X68182Y219079D01*
X68134Y219141D01*
X68077Y219195D01*
X68011Y219239D01*
X67650Y219430D01*
X67271Y219581D01*
X66878Y219696D01*
X66477Y219773D01*
X66070Y219812D01*
X65662D01*
X65255Y219773D01*
X65008Y219726D01*
Y221298D01*
X65255Y221251D01*
X65662Y221212D01*
X66070D01*
X66477Y221251D01*
X66878Y221328D01*
X67271Y221443D01*
X67650Y221594D01*
X68013Y221781D01*
X68079Y221825D01*
X68137Y221880D01*
X68185Y221943D01*
X68223Y222012D01*
X68250Y222087D01*
X68264Y222165D01*
X68266Y222244D01*
X68256Y222323D01*
X68234Y222399D01*
X68200Y222470D01*
X68155Y222536D01*
X68100Y222593D01*
X68037Y222642D01*
X67968Y222680D01*
X67893Y222706D01*
X67815Y222721D01*
X67736Y222723D01*
X67657Y222713D01*
X67581Y222690D01*
X67510Y222655D01*
X67234Y222509D01*
X66943Y222392D01*
X66642Y222304D01*
X66335Y222245D01*
X66023Y222216D01*
X65710D01*
X65398Y222245D01*
X65090Y222304D01*
X65008Y222329D01*
Y228695D01*
X65090Y228719D01*
X65398Y228778D01*
X65710Y228808D01*
X66023D01*
X66335Y228778D01*
X66642Y228719D01*
X66943Y228631D01*
X67234Y228515D01*
X67512Y228372D01*
X67583Y228337D01*
X67658Y228315D01*
X67736Y228304D01*
X67815Y228307D01*
X67892Y228321D01*
X67966Y228347D01*
X68035Y228385D01*
X68098Y228433D01*
X68152Y228490D01*
X68196Y228555D01*
X68230Y228626D01*
X68252Y228702D01*
X68263Y228780D01*
X68260Y228858D01*
X68246Y228936D01*
X68220Y229010D01*
X68182Y229079D01*
X68134Y229141D01*
X68077Y229195D01*
X68011Y229239D01*
X67650Y229430D01*
X67271Y229581D01*
X66878Y229696D01*
X66477Y229773D01*
X66070Y229812D01*
X65662D01*
X65255Y229773D01*
X65008Y229726D01*
Y231212D01*
X68166D01*
X68245Y231216D01*
X68321Y231235D01*
X68394Y231265D01*
X68461Y231306D01*
X68521Y231357D01*
X68572Y231417D01*
X68613Y231484D01*
X68643Y231557D01*
X68662Y231633D01*
X68668Y231712D01*
X68662Y231790D01*
X68643Y231867D01*
X68613Y231940D01*
X68572Y232007D01*
X68521Y232066D01*
X68461Y232118D01*
X68394Y232159D01*
X68321Y232189D01*
X68245Y232207D01*
X68166Y232212D01*
X65008D01*
Y238812D01*
X68166D01*
X68245Y238816D01*
X68321Y238835D01*
X68394Y238865D01*
X68461Y238906D01*
X68521Y238957D01*
X68572Y239017D01*
X68613Y239084D01*
X68643Y239157D01*
X68662Y239233D01*
X68668Y239312D01*
X68662Y239390D01*
X68643Y239467D01*
X68613Y239540D01*
X68572Y239607D01*
X68521Y239666D01*
X68461Y239718D01*
X68394Y239759D01*
X68321Y239789D01*
X68245Y239807D01*
X68166Y239812D01*
X65008D01*
Y243579D01*
X69666D01*
Y238313D01*
X69588Y238307D01*
X69511Y238289D01*
X69438Y238259D01*
X69371Y238218D01*
X69311Y238166D01*
X69260Y238107D01*
X69219Y238040D01*
X69189Y237967D01*
X69171Y237890D01*
X69166Y237812D01*
Y233212D01*
X69171Y233133D01*
X69189Y233057D01*
X69219Y232984D01*
X69260Y232917D01*
X69311Y232857D01*
X69371Y232806D01*
X69438Y232765D01*
X69511Y232735D01*
X69588Y232716D01*
X69666Y232710D01*
Y227525D01*
X69597Y227659D01*
X69553Y227725D01*
X69498Y227782D01*
X69435Y227831D01*
X69366Y227869D01*
X69291Y227895D01*
X69213Y227910D01*
X69134Y227912D01*
X69055Y227902D01*
X68979Y227879D01*
X68908Y227845D01*
X68842Y227800D01*
X68785Y227746D01*
X68736Y227683D01*
X68698Y227613D01*
X68672Y227539D01*
X68657Y227461D01*
X68655Y227382D01*
X68665Y227303D01*
X68688Y227227D01*
X68723Y227156D01*
X68869Y226879D01*
X68986Y226588D01*
X69074Y226288D01*
X69133Y225980D01*
X69162Y225668D01*
Y225355D01*
X69133Y225043D01*
X69074Y224736D01*
X68986Y224435D01*
X68869Y224144D01*
X68726Y223866D01*
X68691Y223795D01*
X68669Y223720D01*
X68659Y223642D01*
X68661Y223563D01*
X68675Y223486D01*
X68702Y223412D01*
X68739Y223343D01*
X68787Y223280D01*
X68845Y223226D01*
X68909Y223182D01*
X68981Y223148D01*
X69056Y223126D01*
X69134Y223115D01*
X69213Y223118D01*
X69290Y223132D01*
X69364Y223158D01*
X69433Y223196D01*
X69496Y223244D01*
X69550Y223301D01*
X69593Y223367D01*
X69666Y223505D01*
Y217525D01*
X69597Y217659D01*
X69553Y217725D01*
X69498Y217782D01*
X69435Y217831D01*
X69366Y217869D01*
X69291Y217895D01*
X69213Y217910D01*
X69134Y217912D01*
X69055Y217902D01*
X68979Y217879D01*
X68908Y217845D01*
X68842Y217800D01*
X68785Y217746D01*
X68736Y217683D01*
X68698Y217613D01*
X68672Y217539D01*
X68657Y217461D01*
X68655Y217382D01*
X68665Y217303D01*
X68688Y217227D01*
X68723Y217156D01*
X68869Y216879D01*
X68986Y216588D01*
X69074Y216288D01*
X69133Y215980D01*
X69162Y215668D01*
Y215355D01*
X69133Y215043D01*
X69074Y214736D01*
X68986Y214435D01*
X68869Y214144D01*
X68726Y213866D01*
X68691Y213795D01*
X68669Y213720D01*
X68659Y213642D01*
X68661Y213563D01*
X68675Y213486D01*
X68702Y213412D01*
X68739Y213343D01*
X68787Y213280D01*
X68845Y213226D01*
X68909Y213182D01*
X68981Y213148D01*
X69056Y213126D01*
X69134Y213115D01*
X69213Y213118D01*
X69290Y213132D01*
X69364Y213158D01*
X69433Y213196D01*
X69496Y213244D01*
X69550Y213301D01*
X69593Y213367D01*
X69666Y213505D01*
Y207525D01*
X69597Y207659D01*
X69553Y207725D01*
X69498Y207782D01*
X69435Y207831D01*
X69366Y207869D01*
X69291Y207895D01*
X69213Y207910D01*
X69134Y207912D01*
X69055Y207902D01*
X68979Y207879D01*
X68908Y207845D01*
X68842Y207800D01*
X68785Y207746D01*
X68736Y207683D01*
X68698Y207613D01*
X68672Y207539D01*
X68657Y207461D01*
X68655Y207382D01*
X68665Y207303D01*
X68688Y207227D01*
X68723Y207156D01*
X68869Y206879D01*
X68986Y206588D01*
X69074Y206288D01*
X69133Y205980D01*
X69162Y205668D01*
Y205355D01*
X69133Y205043D01*
X69074Y204736D01*
X68986Y204435D01*
X68869Y204144D01*
X68726Y203866D01*
X68691Y203795D01*
X68669Y203720D01*
X68659Y203642D01*
X68661Y203563D01*
X68675Y203486D01*
X68702Y203412D01*
X68739Y203343D01*
X68787Y203280D01*
X68845Y203226D01*
X68909Y203182D01*
X68981Y203148D01*
X69056Y203126D01*
X69134Y203115D01*
X69213Y203118D01*
X69290Y203132D01*
X69364Y203158D01*
X69433Y203196D01*
X69496Y203244D01*
X69550Y203301D01*
X69593Y203367D01*
X69666Y203505D01*
Y201894D01*
G37*
G36*
X80861Y39370D02*X70860D01*
Y42982D01*
X70866Y42981D01*
X71533Y43033D01*
X72184Y43190D01*
X72802Y43446D01*
X73372Y43795D01*
X73881Y44230D01*
X74315Y44738D01*
X74665Y45309D01*
X74921Y45927D01*
X75077Y46577D01*
X75116Y47244D01*
X75077Y47911D01*
X74921Y48561D01*
X74665Y49180D01*
X74315Y49750D01*
X73881Y50259D01*
X73372Y50693D01*
X72802Y51043D01*
X72184Y51299D01*
X71533Y51455D01*
X70866Y51507D01*
X70860Y51507D01*
Y99091D01*
X70886D01*
X70945Y99086D01*
X71180Y99104D01*
X71180Y99104D01*
X71410Y99160D01*
X71628Y99250D01*
X71829Y99373D01*
X72009Y99527D01*
X72047Y99572D01*
X74075Y101599D01*
X74533Y101410D01*
X75191Y101252D01*
X75866Y101199D01*
X76541Y101252D01*
X77199Y101410D01*
X77824Y101669D01*
X78401Y102022D01*
X78916Y102462D01*
X79356Y102977D01*
X79709Y103554D01*
X79968Y104179D01*
X80126Y104837D01*
X80166Y105512D01*
X80126Y106187D01*
X79968Y106845D01*
X79709Y107470D01*
X79356Y108047D01*
X78916Y108562D01*
X78401Y109001D01*
X77824Y109355D01*
X77199Y109614D01*
X76541Y109772D01*
X75866Y109825D01*
X75191Y109772D01*
X74533Y109614D01*
X73908Y109355D01*
X73331Y109001D01*
X72816Y108562D01*
X72377Y108047D01*
X72023Y107470D01*
X71764Y106845D01*
X71606Y106187D01*
X71553Y105512D01*
X71606Y104837D01*
X71764Y104179D01*
X71954Y103721D01*
X70860Y102627D01*
Y109130D01*
X71004D01*
X71063Y109125D01*
X71298Y109144D01*
X71298Y109144D01*
X71528Y109199D01*
X71746Y109289D01*
X71947Y109413D01*
X72127Y109566D01*
X72165Y109611D01*
X74131Y111576D01*
X74533Y111410D01*
X75191Y111252D01*
X75866Y111199D01*
X76541Y111252D01*
X77199Y111410D01*
X77824Y111669D01*
X78401Y112022D01*
X78916Y112462D01*
X79356Y112977D01*
X79709Y113554D01*
X79968Y114179D01*
X80126Y114837D01*
X80166Y115512D01*
X80126Y116187D01*
X79968Y116845D01*
X79709Y117470D01*
X79356Y118047D01*
X78916Y118562D01*
X78401Y119001D01*
X77824Y119355D01*
X77199Y119614D01*
X76541Y119772D01*
X75866Y119825D01*
X75191Y119772D01*
X74533Y119614D01*
X73908Y119355D01*
X73331Y119001D01*
X72816Y118562D01*
X72377Y118047D01*
X72023Y117470D01*
X71764Y116845D01*
X71606Y116187D01*
X71553Y115512D01*
X71606Y114837D01*
X71764Y114179D01*
X71977Y113665D01*
X70860Y112548D01*
Y118968D01*
X70866Y118968D01*
X71101Y118986D01*
X71102Y118986D01*
X71331Y119041D01*
X71549Y119132D01*
X71751Y119255D01*
X71930Y119409D01*
X71968Y119453D01*
X74103Y121588D01*
X74533Y121410D01*
X75191Y121252D01*
X75866Y121199D01*
X76541Y121252D01*
X77199Y121410D01*
X77824Y121669D01*
X78401Y122022D01*
X78916Y122462D01*
X79356Y122977D01*
X79709Y123554D01*
X79968Y124179D01*
X80126Y124837D01*
X80166Y125512D01*
X80126Y126187D01*
X79968Y126845D01*
X79709Y127470D01*
X79356Y128047D01*
X78916Y128562D01*
X78401Y129001D01*
X77824Y129355D01*
X77199Y129614D01*
X76541Y129772D01*
X75866Y129825D01*
X75191Y129772D01*
X74533Y129614D01*
X73908Y129355D01*
X73331Y129001D01*
X72816Y128562D01*
X72377Y128047D01*
X72023Y127470D01*
X71764Y126845D01*
X71606Y126187D01*
X71553Y125512D01*
X71606Y124837D01*
X71764Y124179D01*
X71965Y123693D01*
X70860Y122587D01*
Y129008D01*
X70866Y129007D01*
X71101Y129026D01*
X71102Y129026D01*
X71331Y129081D01*
X71549Y129171D01*
X71751Y129295D01*
X71930Y129448D01*
X71968Y129493D01*
X74075Y131599D01*
X74533Y131410D01*
X75191Y131252D01*
X75866Y131199D01*
X76541Y131252D01*
X77199Y131410D01*
X77824Y131669D01*
X78401Y132022D01*
X78916Y132462D01*
X79356Y132977D01*
X79709Y133554D01*
X79968Y134179D01*
X80126Y134837D01*
X80166Y135512D01*
X80126Y136187D01*
X79968Y136845D01*
X79709Y137470D01*
X79356Y138047D01*
X78916Y138562D01*
X78401Y139001D01*
X77824Y139355D01*
X77199Y139614D01*
X76541Y139772D01*
X75866Y139825D01*
X75191Y139772D01*
X74533Y139614D01*
X73908Y139355D01*
X73331Y139001D01*
X72816Y138562D01*
X72377Y138047D01*
X72023Y137470D01*
X71764Y136845D01*
X71606Y136187D01*
X71553Y135512D01*
X71606Y134837D01*
X71764Y134179D01*
X71954Y133721D01*
X70860Y132627D01*
Y139047D01*
X70866Y139047D01*
X71101Y139065D01*
X71102Y139065D01*
X71331Y139120D01*
X71549Y139211D01*
X71751Y139334D01*
X71930Y139487D01*
X71968Y139532D01*
X74047Y141611D01*
X74533Y141410D01*
X75191Y141252D01*
X75866Y141199D01*
X76541Y141252D01*
X77199Y141410D01*
X77824Y141669D01*
X78401Y142022D01*
X78916Y142462D01*
X79356Y142977D01*
X79709Y143554D01*
X79968Y144179D01*
X80126Y144837D01*
X80166Y145512D01*
X80126Y146187D01*
X79968Y146845D01*
X79709Y147470D01*
X79356Y148047D01*
X78916Y148562D01*
X78401Y149001D01*
X77824Y149355D01*
X77199Y149614D01*
X76541Y149772D01*
X75866Y149825D01*
X75191Y149772D01*
X74533Y149614D01*
X73908Y149355D01*
X73331Y149001D01*
X72816Y148562D01*
X72377Y148047D01*
X72023Y147470D01*
X71764Y146845D01*
X71606Y146187D01*
X71553Y145512D01*
X71606Y144837D01*
X71764Y144179D01*
X71942Y143749D01*
X70860Y142666D01*
Y149086D01*
X70866Y149086D01*
X71101Y149104D01*
X71102Y149104D01*
X71331Y149160D01*
X71549Y149250D01*
X71751Y149373D01*
X71930Y149527D01*
X71968Y149572D01*
X74019Y151623D01*
X74533Y151410D01*
X75191Y151252D01*
X75866Y151199D01*
X76541Y151252D01*
X77199Y151410D01*
X77824Y151669D01*
X78401Y152022D01*
X78916Y152462D01*
X79356Y152977D01*
X79709Y153554D01*
X79968Y154179D01*
X80126Y154837D01*
X80166Y155512D01*
X80126Y156187D01*
X79968Y156845D01*
X79709Y157470D01*
X79356Y158047D01*
X78916Y158562D01*
X78401Y159001D01*
X77824Y159355D01*
X77199Y159614D01*
X76541Y159772D01*
X75866Y159825D01*
X75191Y159772D01*
X74533Y159614D01*
X73908Y159355D01*
X73331Y159001D01*
X72816Y158562D01*
X72377Y158047D01*
X72023Y157470D01*
X71764Y156845D01*
X71606Y156187D01*
X71553Y155512D01*
X71606Y154837D01*
X71764Y154179D01*
X71931Y153776D01*
X70860Y152705D01*
Y158929D01*
X70866Y158928D01*
X71101Y158947D01*
X71102Y158947D01*
X71331Y159002D01*
X71549Y159092D01*
X71751Y159216D01*
X71930Y159369D01*
X71968Y159414D01*
X74131Y161576D01*
X74533Y161410D01*
X75191Y161252D01*
X75866Y161199D01*
X76541Y161252D01*
X77199Y161410D01*
X77824Y161669D01*
X78401Y162022D01*
X78916Y162462D01*
X79356Y162977D01*
X79709Y163554D01*
X79968Y164179D01*
X80126Y164837D01*
X80166Y165512D01*
X80126Y166187D01*
X79968Y166845D01*
X79709Y167470D01*
X79356Y168047D01*
X78916Y168562D01*
X78401Y169001D01*
X77824Y169355D01*
X77199Y169614D01*
X76541Y169772D01*
X75866Y169825D01*
X75191Y169772D01*
X74533Y169614D01*
X73908Y169355D01*
X73331Y169001D01*
X72816Y168562D01*
X72377Y168047D01*
X72023Y167470D01*
X71764Y166845D01*
X71606Y166187D01*
X71553Y165512D01*
X71606Y164837D01*
X71764Y164179D01*
X71977Y163665D01*
X70860Y162548D01*
Y168983D01*
X70904Y168986D01*
X70905Y168986D01*
X71134Y169041D01*
X71352Y169132D01*
X71554Y169255D01*
X71733Y169409D01*
X71772Y169453D01*
X73964Y171646D01*
X74533Y171410D01*
X75191Y171252D01*
X75866Y171199D01*
X76541Y171252D01*
X77199Y171410D01*
X77824Y171669D01*
X78401Y172022D01*
X78916Y172462D01*
X79356Y172977D01*
X79709Y173554D01*
X79968Y174179D01*
X80126Y174837D01*
X80166Y175512D01*
X80126Y176187D01*
X79968Y176845D01*
X79709Y177470D01*
X79356Y178047D01*
X78916Y178562D01*
X78401Y179001D01*
X77824Y179355D01*
X77199Y179614D01*
X76541Y179772D01*
X75866Y179825D01*
X75191Y179772D01*
X74533Y179614D01*
X73908Y179355D01*
X73331Y179001D01*
X72816Y178562D01*
X72377Y178047D01*
X72023Y177470D01*
X71764Y176845D01*
X71606Y176187D01*
X71553Y175512D01*
X71606Y174837D01*
X71764Y174179D01*
X71908Y173832D01*
X70860Y172784D01*
Y179008D01*
X70866Y179007D01*
X71101Y179026D01*
X71102Y179026D01*
X71331Y179081D01*
X71549Y179171D01*
X71751Y179295D01*
X71930Y179448D01*
X71968Y179493D01*
X74075Y181599D01*
X74533Y181410D01*
X75191Y181252D01*
X75866Y181199D01*
X76541Y181252D01*
X77199Y181410D01*
X77824Y181669D01*
X78401Y182022D01*
X78916Y182462D01*
X79356Y182977D01*
X79709Y183554D01*
X79968Y184179D01*
X80126Y184837D01*
X80166Y185512D01*
X80126Y186187D01*
X79968Y186845D01*
X79709Y187470D01*
X79356Y188047D01*
X78916Y188562D01*
X78401Y189001D01*
X77824Y189355D01*
X77199Y189614D01*
X76541Y189772D01*
X75866Y189825D01*
X75191Y189772D01*
X74533Y189614D01*
X73908Y189355D01*
X73331Y189001D01*
X72816Y188562D01*
X72377Y188047D01*
X72023Y187470D01*
X71764Y186845D01*
X71606Y186187D01*
X71553Y185512D01*
X71606Y184837D01*
X71764Y184179D01*
X71954Y183721D01*
X70860Y182627D01*
Y189047D01*
X70866Y189047D01*
X71101Y189065D01*
X71102Y189065D01*
X71331Y189120D01*
X71549Y189211D01*
X71751Y189334D01*
X71930Y189487D01*
X71968Y189532D01*
X74047Y191611D01*
X74533Y191410D01*
X75191Y191252D01*
X75866Y191199D01*
X76541Y191252D01*
X77199Y191410D01*
X77824Y191669D01*
X78401Y192022D01*
X78916Y192462D01*
X79356Y192977D01*
X79709Y193554D01*
X79968Y194179D01*
X80126Y194837D01*
X80166Y195512D01*
X80126Y196187D01*
X79968Y196845D01*
X79709Y197470D01*
X79356Y198047D01*
X78916Y198562D01*
X78401Y199001D01*
X77824Y199355D01*
X77199Y199614D01*
X76541Y199772D01*
X75866Y199825D01*
X75191Y199772D01*
X74533Y199614D01*
X73908Y199355D01*
X73331Y199001D01*
X72816Y198562D01*
X72377Y198047D01*
X72023Y197470D01*
X71764Y196845D01*
X71606Y196187D01*
X71553Y195512D01*
X71606Y194837D01*
X71764Y194179D01*
X71942Y193749D01*
X70860Y192666D01*
Y198898D01*
X70983Y198908D01*
X70983Y198908D01*
X71213Y198963D01*
X71431Y199053D01*
X71632Y199176D01*
X71812Y199330D01*
X71850Y199375D01*
X74075Y201599D01*
X74533Y201410D01*
X75191Y201252D01*
X75866Y201199D01*
X76541Y201252D01*
X77199Y201410D01*
X77824Y201669D01*
X78401Y202022D01*
X78916Y202462D01*
X79356Y202977D01*
X79530Y203262D01*
X80861D01*
Y97722D01*
X79555D01*
X79356Y98047D01*
X78916Y98562D01*
X78401Y99001D01*
X77824Y99355D01*
X77199Y99614D01*
X76541Y99772D01*
X75866Y99825D01*
X75191Y99772D01*
X74533Y99614D01*
X73908Y99355D01*
X73331Y99001D01*
X72816Y98562D01*
X72377Y98047D01*
X72023Y97470D01*
X71764Y96845D01*
X71606Y96187D01*
X71553Y95512D01*
X71606Y94837D01*
X71764Y94179D01*
X72023Y93554D01*
X72377Y92977D01*
X72816Y92462D01*
X73331Y92022D01*
X73616Y91847D01*
Y89176D01*
X73331Y89001D01*
X72816Y88562D01*
X72377Y88047D01*
X72023Y87470D01*
X71764Y86845D01*
X71606Y86187D01*
X71553Y85512D01*
X71606Y84837D01*
X71764Y84179D01*
X72023Y83554D01*
X72377Y82977D01*
X72816Y82462D01*
X73331Y82022D01*
X73616Y81847D01*
Y79176D01*
X73331Y79001D01*
X72816Y78562D01*
X72377Y78047D01*
X72023Y77470D01*
X71764Y76845D01*
X71606Y76187D01*
X71553Y75512D01*
X71606Y74837D01*
X71764Y74179D01*
X72023Y73554D01*
X72377Y72977D01*
X72816Y72462D01*
X73331Y72022D01*
X73908Y71669D01*
X74533Y71410D01*
X75191Y71252D01*
X75866Y71199D01*
X76541Y71252D01*
X77199Y71410D01*
X77824Y71669D01*
X78401Y72022D01*
X78916Y72462D01*
X79356Y72977D01*
X79709Y73554D01*
X79968Y74179D01*
X80126Y74837D01*
X80166Y75512D01*
X80126Y76187D01*
X79968Y76845D01*
X79709Y77470D01*
X79356Y78047D01*
X78916Y78562D01*
X78401Y79001D01*
X78116Y79176D01*
Y81847D01*
X78401Y82022D01*
X78916Y82462D01*
X79356Y82977D01*
X79709Y83554D01*
X79968Y84179D01*
X80126Y84837D01*
X80166Y85512D01*
X80126Y86187D01*
X79968Y86845D01*
X79709Y87470D01*
X79356Y88047D01*
X78916Y88562D01*
X78401Y89001D01*
X78116Y89176D01*
Y91847D01*
X78401Y92022D01*
X78916Y92462D01*
X79356Y92977D01*
X79506Y93222D01*
X80861D01*
Y39370D01*
G37*
G36*
X70860Y192666D02*X70245Y192051D01*
X69411D01*
Y193184D01*
X69433Y193196D01*
X69496Y193244D01*
X69550Y193301D01*
X69593Y193367D01*
X69784Y193728D01*
X69935Y194107D01*
X70050Y194499D01*
X70127Y194901D01*
X70166Y195308D01*
Y195716D01*
X70127Y196123D01*
X70050Y196524D01*
X69935Y196916D01*
X69784Y197296D01*
X69597Y197659D01*
X69553Y197725D01*
X69498Y197782D01*
X69435Y197831D01*
X69411Y197844D01*
Y198894D01*
X70689D01*
X70748Y198889D01*
X70860Y198898D01*
Y192666D01*
G37*
G36*
X69411Y192051D02*X68237D01*
X68250Y192087D01*
X68264Y192165D01*
X68266Y192244D01*
X68256Y192323D01*
X68234Y192399D01*
X68200Y192470D01*
X68155Y192536D01*
X68100Y192593D01*
X68037Y192642D01*
X67968Y192680D01*
X67893Y192706D01*
X67815Y192721D01*
X67736Y192723D01*
X67657Y192713D01*
X67581Y192690D01*
X67510Y192655D01*
X67234Y192509D01*
X66943Y192392D01*
X66642Y192304D01*
X66335Y192245D01*
X66023Y192216D01*
X65710D01*
X65398Y192245D01*
X65090Y192304D01*
X65008Y192329D01*
Y198695D01*
X65090Y198719D01*
X65398Y198778D01*
X65710Y198808D01*
X66023D01*
X66335Y198778D01*
X66642Y198719D01*
X66943Y198631D01*
X67234Y198515D01*
X67512Y198372D01*
X67583Y198337D01*
X67658Y198315D01*
X67736Y198304D01*
X67815Y198307D01*
X67892Y198321D01*
X67966Y198347D01*
X68035Y198385D01*
X68098Y198433D01*
X68152Y198490D01*
X68196Y198555D01*
X68230Y198626D01*
X68252Y198702D01*
X68263Y198780D01*
X68260Y198858D01*
X68254Y198894D01*
X69411D01*
Y197844D01*
X69366Y197869D01*
X69291Y197895D01*
X69213Y197910D01*
X69134Y197912D01*
X69055Y197902D01*
X68979Y197879D01*
X68908Y197845D01*
X68842Y197800D01*
X68785Y197746D01*
X68736Y197683D01*
X68698Y197613D01*
X68672Y197539D01*
X68657Y197461D01*
X68655Y197382D01*
X68665Y197303D01*
X68688Y197227D01*
X68723Y197156D01*
X68869Y196879D01*
X68986Y196588D01*
X69074Y196288D01*
X69133Y195980D01*
X69162Y195668D01*
Y195355D01*
X69133Y195043D01*
X69074Y194736D01*
X68986Y194435D01*
X68869Y194144D01*
X68726Y193866D01*
X68691Y193795D01*
X68669Y193720D01*
X68659Y193642D01*
X68661Y193563D01*
X68675Y193486D01*
X68702Y193412D01*
X68739Y193343D01*
X68787Y193280D01*
X68845Y193226D01*
X68909Y193182D01*
X68981Y193148D01*
X69056Y193126D01*
X69134Y193115D01*
X69213Y193118D01*
X69290Y193132D01*
X69364Y193158D01*
X69411Y193184D01*
Y192051D01*
G37*
G36*
X70860Y182627D02*X70245Y182012D01*
X69411D01*
Y183184D01*
X69433Y183196D01*
X69496Y183244D01*
X69550Y183301D01*
X69593Y183367D01*
X69784Y183728D01*
X69935Y184107D01*
X70050Y184499D01*
X70127Y184901D01*
X70166Y185308D01*
Y185716D01*
X70127Y186123D01*
X70050Y186524D01*
X69935Y186916D01*
X69784Y187296D01*
X69597Y187659D01*
X69553Y187725D01*
X69498Y187782D01*
X69435Y187831D01*
X69411Y187844D01*
Y189051D01*
X70807D01*
X70860Y189047D01*
Y182627D01*
G37*
G36*
X69411Y182012D02*X68223D01*
X68223Y182012D01*
X68250Y182087D01*
X68264Y182165D01*
X68266Y182244D01*
X68256Y182323D01*
X68234Y182399D01*
X68200Y182470D01*
X68155Y182536D01*
X68100Y182593D01*
X68037Y182642D01*
X67968Y182680D01*
X67893Y182706D01*
X67815Y182721D01*
X67736Y182723D01*
X67657Y182713D01*
X67581Y182690D01*
X67510Y182655D01*
X67234Y182509D01*
X66943Y182392D01*
X66642Y182304D01*
X66335Y182245D01*
X66023Y182216D01*
X65710D01*
X65398Y182245D01*
X65090Y182304D01*
X65008Y182329D01*
Y188695D01*
X65090Y188719D01*
X65398Y188778D01*
X65710Y188808D01*
X66023D01*
X66335Y188778D01*
X66642Y188719D01*
X66943Y188631D01*
X67234Y188515D01*
X67512Y188372D01*
X67583Y188337D01*
X67658Y188315D01*
X67736Y188304D01*
X67815Y188307D01*
X67892Y188321D01*
X67966Y188347D01*
X68035Y188385D01*
X68098Y188433D01*
X68152Y188490D01*
X68196Y188555D01*
X68230Y188626D01*
X68252Y188702D01*
X68263Y188780D01*
X68260Y188858D01*
X68246Y188936D01*
X68220Y189010D01*
X68197Y189051D01*
X69411D01*
Y187844D01*
X69366Y187869D01*
X69291Y187895D01*
X69213Y187910D01*
X69134Y187912D01*
X69055Y187902D01*
X68979Y187879D01*
X68908Y187845D01*
X68842Y187800D01*
X68785Y187746D01*
X68736Y187683D01*
X68698Y187613D01*
X68672Y187539D01*
X68657Y187461D01*
X68655Y187382D01*
X68665Y187303D01*
X68688Y187227D01*
X68723Y187156D01*
X68869Y186879D01*
X68986Y186588D01*
X69074Y186288D01*
X69133Y185980D01*
X69162Y185668D01*
Y185355D01*
X69133Y185043D01*
X69074Y184736D01*
X68986Y184435D01*
X68869Y184144D01*
X68726Y183866D01*
X68691Y183795D01*
X68669Y183720D01*
X68659Y183642D01*
X68661Y183563D01*
X68675Y183486D01*
X68702Y183412D01*
X68739Y183343D01*
X68787Y183280D01*
X68845Y183226D01*
X68909Y183182D01*
X68981Y183148D01*
X69056Y183126D01*
X69134Y183115D01*
X69213Y183118D01*
X69290Y183132D01*
X69364Y183158D01*
X69411Y183184D01*
Y182012D01*
G37*
G36*
X70860Y172784D02*X70048Y171972D01*
X69411D01*
Y173184D01*
X69433Y173196D01*
X69496Y173244D01*
X69550Y173301D01*
X69593Y173367D01*
X69784Y173728D01*
X69935Y174107D01*
X70050Y174499D01*
X70127Y174901D01*
X70166Y175308D01*
Y175716D01*
X70127Y176123D01*
X70050Y176524D01*
X69935Y176916D01*
X69784Y177296D01*
X69597Y177659D01*
X69553Y177725D01*
X69498Y177782D01*
X69435Y177831D01*
X69411Y177844D01*
Y179012D01*
X70807D01*
X70860Y179008D01*
Y172784D01*
G37*
G36*
X69411Y171972D02*X68201D01*
X68223Y172012D01*
X68250Y172087D01*
X68264Y172165D01*
X68266Y172244D01*
X68256Y172323D01*
X68234Y172399D01*
X68200Y172470D01*
X68155Y172536D01*
X68100Y172593D01*
X68037Y172642D01*
X67968Y172680D01*
X67893Y172706D01*
X67815Y172721D01*
X67736Y172723D01*
X67657Y172713D01*
X67581Y172690D01*
X67510Y172655D01*
X67234Y172509D01*
X66943Y172392D01*
X66642Y172304D01*
X66335Y172245D01*
X66023Y172216D01*
X65710D01*
X65398Y172245D01*
X65090Y172304D01*
X65008Y172329D01*
Y178695D01*
X65090Y178719D01*
X65398Y178778D01*
X65710Y178808D01*
X66023D01*
X66335Y178778D01*
X66642Y178719D01*
X66943Y178631D01*
X67234Y178515D01*
X67512Y178372D01*
X67583Y178337D01*
X67658Y178315D01*
X67736Y178304D01*
X67815Y178307D01*
X67892Y178321D01*
X67966Y178347D01*
X68035Y178385D01*
X68098Y178433D01*
X68152Y178490D01*
X68196Y178555D01*
X68230Y178626D01*
X68252Y178702D01*
X68263Y178780D01*
X68260Y178858D01*
X68246Y178936D01*
X68220Y179010D01*
X68219Y179012D01*
X69411D01*
Y177844D01*
X69366Y177869D01*
X69291Y177895D01*
X69213Y177910D01*
X69134Y177912D01*
X69055Y177902D01*
X68979Y177879D01*
X68908Y177845D01*
X68842Y177800D01*
X68785Y177746D01*
X68736Y177683D01*
X68698Y177613D01*
X68672Y177539D01*
X68657Y177461D01*
X68655Y177382D01*
X68665Y177303D01*
X68688Y177227D01*
X68723Y177156D01*
X68869Y176879D01*
X68986Y176588D01*
X69074Y176288D01*
X69133Y175980D01*
X69162Y175668D01*
Y175355D01*
X69133Y175043D01*
X69074Y174736D01*
X68986Y174435D01*
X68869Y174144D01*
X68726Y173866D01*
X68691Y173795D01*
X68669Y173720D01*
X68659Y173642D01*
X68661Y173563D01*
X68675Y173486D01*
X68702Y173412D01*
X68739Y173343D01*
X68787Y173280D01*
X68845Y173226D01*
X68909Y173182D01*
X68981Y173148D01*
X69056Y173126D01*
X69134Y173115D01*
X69213Y173118D01*
X69290Y173132D01*
X69364Y173158D01*
X69411Y173184D01*
Y171972D01*
G37*
G36*
X70860Y162548D02*X70245Y161933D01*
X69411D01*
Y163184D01*
X69433Y163196D01*
X69496Y163244D01*
X69550Y163301D01*
X69593Y163367D01*
X69784Y163728D01*
X69935Y164107D01*
X70050Y164499D01*
X70127Y164901D01*
X70166Y165308D01*
Y165716D01*
X70127Y166123D01*
X70050Y166524D01*
X69935Y166916D01*
X69784Y167296D01*
X69597Y167659D01*
X69553Y167725D01*
X69498Y167782D01*
X69435Y167831D01*
X69411Y167844D01*
Y168972D01*
X70611D01*
X70669Y168968D01*
X70860Y168983D01*
Y162548D01*
G37*
G36*
X69411Y161933D02*X68178D01*
X68185Y161943D01*
X68223Y162012D01*
X68250Y162087D01*
X68264Y162165D01*
X68266Y162244D01*
X68256Y162323D01*
X68234Y162399D01*
X68200Y162470D01*
X68155Y162536D01*
X68100Y162593D01*
X68037Y162642D01*
X67968Y162680D01*
X67893Y162706D01*
X67815Y162721D01*
X67736Y162723D01*
X67657Y162713D01*
X67581Y162690D01*
X67510Y162655D01*
X67234Y162509D01*
X66943Y162392D01*
X66642Y162304D01*
X66335Y162245D01*
X66023Y162216D01*
X65710D01*
X65398Y162245D01*
X65090Y162304D01*
X65008Y162329D01*
Y168695D01*
X65090Y168719D01*
X65398Y168778D01*
X65710Y168808D01*
X66023D01*
X66335Y168778D01*
X66642Y168719D01*
X66943Y168631D01*
X67234Y168515D01*
X67512Y168372D01*
X67583Y168337D01*
X67658Y168315D01*
X67736Y168304D01*
X67815Y168307D01*
X67892Y168321D01*
X67966Y168347D01*
X68035Y168385D01*
X68098Y168433D01*
X68152Y168490D01*
X68196Y168555D01*
X68230Y168626D01*
X68252Y168702D01*
X68263Y168780D01*
X68260Y168858D01*
X68246Y168936D01*
X68233Y168972D01*
X69411D01*
Y167844D01*
X69366Y167869D01*
X69291Y167895D01*
X69213Y167910D01*
X69134Y167912D01*
X69055Y167902D01*
X68979Y167879D01*
X68908Y167845D01*
X68842Y167800D01*
X68785Y167746D01*
X68736Y167683D01*
X68698Y167613D01*
X68672Y167539D01*
X68657Y167461D01*
X68655Y167382D01*
X68665Y167303D01*
X68688Y167227D01*
X68723Y167156D01*
X68869Y166879D01*
X68986Y166588D01*
X69074Y166288D01*
X69133Y165980D01*
X69162Y165668D01*
Y165355D01*
X69133Y165043D01*
X69074Y164736D01*
X68986Y164435D01*
X68869Y164144D01*
X68726Y163866D01*
X68691Y163795D01*
X68669Y163720D01*
X68659Y163642D01*
X68661Y163563D01*
X68675Y163486D01*
X68702Y163412D01*
X68739Y163343D01*
X68787Y163280D01*
X68845Y163226D01*
X68909Y163182D01*
X68981Y163148D01*
X69056Y163126D01*
X69134Y163115D01*
X69213Y163118D01*
X69290Y163132D01*
X69364Y163158D01*
X69411Y163184D01*
Y161933D01*
G37*
G36*
X70860Y152705D02*X70245Y152091D01*
X69411D01*
Y153184D01*
X69433Y153196D01*
X69496Y153244D01*
X69550Y153301D01*
X69593Y153367D01*
X69784Y153728D01*
X69935Y154107D01*
X70050Y154499D01*
X70127Y154901D01*
X70166Y155308D01*
Y155716D01*
X70127Y156123D01*
X70050Y156524D01*
X69935Y156916D01*
X69784Y157296D01*
X69597Y157659D01*
X69553Y157725D01*
X69498Y157782D01*
X69435Y157831D01*
X69411Y157844D01*
Y158933D01*
X70807D01*
X70860Y158929D01*
Y152705D01*
G37*
G36*
X69411Y152091D02*X68250D01*
X68264Y152165D01*
X68266Y152244D01*
X68256Y152323D01*
X68234Y152399D01*
X68200Y152470D01*
X68155Y152536D01*
X68100Y152593D01*
X68037Y152642D01*
X67968Y152680D01*
X67893Y152706D01*
X67815Y152721D01*
X67736Y152723D01*
X67657Y152713D01*
X67581Y152690D01*
X67510Y152655D01*
X67234Y152509D01*
X66943Y152392D01*
X66642Y152304D01*
X66335Y152245D01*
X66023Y152216D01*
X65710D01*
X65398Y152245D01*
X65090Y152304D01*
X65008Y152329D01*
Y158695D01*
X65090Y158719D01*
X65398Y158778D01*
X65710Y158808D01*
X66023D01*
X66335Y158778D01*
X66642Y158719D01*
X66943Y158631D01*
X67234Y158515D01*
X67512Y158372D01*
X67583Y158337D01*
X67658Y158315D01*
X67736Y158304D01*
X67815Y158307D01*
X67892Y158321D01*
X67966Y158347D01*
X68035Y158385D01*
X68098Y158433D01*
X68152Y158490D01*
X68196Y158555D01*
X68230Y158626D01*
X68252Y158702D01*
X68263Y158780D01*
X68260Y158858D01*
X68246Y158933D01*
X69411D01*
Y157844D01*
X69366Y157869D01*
X69291Y157895D01*
X69213Y157910D01*
X69134Y157912D01*
X69055Y157902D01*
X68979Y157879D01*
X68908Y157845D01*
X68842Y157800D01*
X68785Y157746D01*
X68736Y157683D01*
X68698Y157613D01*
X68672Y157539D01*
X68657Y157461D01*
X68655Y157382D01*
X68665Y157303D01*
X68688Y157227D01*
X68723Y157156D01*
X68869Y156879D01*
X68986Y156588D01*
X69074Y156288D01*
X69133Y155980D01*
X69162Y155668D01*
Y155355D01*
X69133Y155043D01*
X69074Y154736D01*
X68986Y154435D01*
X68869Y154144D01*
X68726Y153866D01*
X68691Y153795D01*
X68669Y153720D01*
X68659Y153642D01*
X68661Y153563D01*
X68675Y153486D01*
X68702Y153412D01*
X68739Y153343D01*
X68787Y153280D01*
X68845Y153226D01*
X68909Y153182D01*
X68981Y153148D01*
X69056Y153126D01*
X69134Y153115D01*
X69213Y153118D01*
X69290Y153132D01*
X69364Y153158D01*
X69411Y153184D01*
Y152091D01*
G37*
G36*
X70860Y142666D02*X70245Y142051D01*
X69411D01*
Y143184D01*
X69433Y143196D01*
X69496Y143244D01*
X69550Y143301D01*
X69593Y143367D01*
X69784Y143728D01*
X69935Y144107D01*
X70050Y144499D01*
X70127Y144901D01*
X70166Y145308D01*
Y145716D01*
X70127Y146123D01*
X70050Y146524D01*
X69935Y146916D01*
X69784Y147296D01*
X69597Y147659D01*
X69553Y147725D01*
X69498Y147782D01*
X69435Y147831D01*
X69411Y147844D01*
Y149091D01*
X70807D01*
X70860Y149086D01*
Y142666D01*
G37*
G36*
X69411Y142051D02*X68237D01*
X68250Y142087D01*
X68264Y142165D01*
X68266Y142244D01*
X68256Y142323D01*
X68234Y142399D01*
X68200Y142470D01*
X68155Y142536D01*
X68100Y142593D01*
X68037Y142642D01*
X67968Y142680D01*
X67893Y142706D01*
X67815Y142721D01*
X67736Y142723D01*
X67657Y142713D01*
X67581Y142690D01*
X67510Y142655D01*
X67234Y142509D01*
X66943Y142392D01*
X66642Y142304D01*
X66335Y142245D01*
X66023Y142216D01*
X65710D01*
X65398Y142245D01*
X65090Y142304D01*
X65008Y142329D01*
Y148695D01*
X65090Y148719D01*
X65398Y148778D01*
X65710Y148808D01*
X66023D01*
X66335Y148778D01*
X66642Y148719D01*
X66943Y148631D01*
X67234Y148515D01*
X67512Y148372D01*
X67583Y148337D01*
X67658Y148315D01*
X67736Y148304D01*
X67815Y148307D01*
X67892Y148321D01*
X67966Y148347D01*
X68035Y148385D01*
X68098Y148433D01*
X68152Y148490D01*
X68196Y148555D01*
X68230Y148626D01*
X68252Y148702D01*
X68263Y148780D01*
X68260Y148858D01*
X68246Y148936D01*
X68220Y149010D01*
X68182Y149079D01*
X68173Y149091D01*
X69411D01*
Y147844D01*
X69366Y147869D01*
X69291Y147895D01*
X69213Y147910D01*
X69134Y147912D01*
X69055Y147902D01*
X68979Y147879D01*
X68908Y147845D01*
X68842Y147800D01*
X68785Y147746D01*
X68736Y147683D01*
X68698Y147613D01*
X68672Y147539D01*
X68657Y147461D01*
X68655Y147382D01*
X68665Y147303D01*
X68688Y147227D01*
X68723Y147156D01*
X68869Y146879D01*
X68986Y146588D01*
X69074Y146288D01*
X69133Y145980D01*
X69162Y145668D01*
Y145355D01*
X69133Y145043D01*
X69074Y144736D01*
X68986Y144435D01*
X68869Y144144D01*
X68726Y143866D01*
X68691Y143795D01*
X68669Y143720D01*
X68659Y143642D01*
X68661Y143563D01*
X68675Y143486D01*
X68702Y143412D01*
X68739Y143343D01*
X68787Y143280D01*
X68845Y143226D01*
X68909Y143182D01*
X68981Y143148D01*
X69056Y143126D01*
X69134Y143115D01*
X69213Y143118D01*
X69290Y143132D01*
X69364Y143158D01*
X69411Y143184D01*
Y142051D01*
G37*
G36*
X70860Y132627D02*X70245Y132012D01*
X69411D01*
Y133184D01*
X69433Y133196D01*
X69496Y133244D01*
X69550Y133301D01*
X69593Y133367D01*
X69784Y133728D01*
X69935Y134107D01*
X70050Y134499D01*
X70127Y134901D01*
X70166Y135308D01*
Y135716D01*
X70127Y136123D01*
X70050Y136524D01*
X69935Y136916D01*
X69784Y137296D01*
X69597Y137659D01*
X69553Y137725D01*
X69498Y137782D01*
X69435Y137831D01*
X69411Y137844D01*
Y139051D01*
X70807D01*
X70860Y139047D01*
Y132627D01*
G37*
G36*
X69411Y132012D02*X68223D01*
X68223Y132012D01*
X68250Y132087D01*
X68264Y132165D01*
X68266Y132244D01*
X68256Y132323D01*
X68234Y132399D01*
X68200Y132470D01*
X68155Y132536D01*
X68100Y132593D01*
X68037Y132642D01*
X67968Y132680D01*
X67893Y132706D01*
X67815Y132721D01*
X67736Y132723D01*
X67657Y132713D01*
X67581Y132690D01*
X67510Y132655D01*
X67234Y132509D01*
X66943Y132392D01*
X66642Y132304D01*
X66335Y132245D01*
X66023Y132216D01*
X65710D01*
X65398Y132245D01*
X65090Y132304D01*
X65008Y132329D01*
Y138695D01*
X65090Y138719D01*
X65398Y138778D01*
X65710Y138808D01*
X66023D01*
X66335Y138778D01*
X66642Y138719D01*
X66943Y138631D01*
X67234Y138515D01*
X67512Y138372D01*
X67583Y138337D01*
X67658Y138315D01*
X67736Y138304D01*
X67815Y138307D01*
X67892Y138321D01*
X67966Y138347D01*
X68035Y138385D01*
X68098Y138433D01*
X68152Y138490D01*
X68196Y138555D01*
X68230Y138626D01*
X68252Y138702D01*
X68263Y138780D01*
X68260Y138858D01*
X68246Y138936D01*
X68220Y139010D01*
X68197Y139051D01*
X69411D01*
Y137844D01*
X69366Y137869D01*
X69291Y137895D01*
X69213Y137910D01*
X69134Y137912D01*
X69055Y137902D01*
X68979Y137879D01*
X68908Y137845D01*
X68842Y137800D01*
X68785Y137746D01*
X68736Y137683D01*
X68698Y137613D01*
X68672Y137539D01*
X68657Y137461D01*
X68655Y137382D01*
X68665Y137303D01*
X68688Y137227D01*
X68723Y137156D01*
X68869Y136879D01*
X68986Y136588D01*
X69074Y136288D01*
X69133Y135980D01*
X69162Y135668D01*
Y135355D01*
X69133Y135043D01*
X69074Y134736D01*
X68986Y134435D01*
X68869Y134144D01*
X68726Y133866D01*
X68691Y133795D01*
X68669Y133720D01*
X68659Y133642D01*
X68661Y133563D01*
X68675Y133486D01*
X68702Y133412D01*
X68739Y133343D01*
X68787Y133280D01*
X68845Y133226D01*
X68909Y133182D01*
X68981Y133148D01*
X69056Y133126D01*
X69134Y133115D01*
X69213Y133118D01*
X69290Y133132D01*
X69364Y133158D01*
X69411Y133184D01*
Y132012D01*
G37*
G36*
X70860Y122587D02*X70245Y121972D01*
X69411D01*
Y123184D01*
X69433Y123196D01*
X69496Y123244D01*
X69550Y123301D01*
X69593Y123367D01*
X69784Y123728D01*
X69935Y124107D01*
X70050Y124499D01*
X70127Y124901D01*
X70166Y125308D01*
Y125716D01*
X70127Y126123D01*
X70050Y126524D01*
X69935Y126916D01*
X69784Y127296D01*
X69597Y127659D01*
X69553Y127725D01*
X69498Y127782D01*
X69435Y127831D01*
X69411Y127844D01*
Y129012D01*
X70807D01*
X70860Y129008D01*
Y122587D01*
G37*
G36*
X69411Y121972D02*X68201D01*
X68223Y122012D01*
X68250Y122087D01*
X68264Y122165D01*
X68266Y122244D01*
X68256Y122323D01*
X68234Y122399D01*
X68200Y122470D01*
X68155Y122536D01*
X68100Y122593D01*
X68037Y122642D01*
X67968Y122680D01*
X67893Y122706D01*
X67815Y122721D01*
X67736Y122723D01*
X67657Y122713D01*
X67581Y122690D01*
X67510Y122655D01*
X67234Y122509D01*
X66943Y122392D01*
X66642Y122304D01*
X66335Y122245D01*
X66023Y122216D01*
X65710D01*
X65398Y122245D01*
X65090Y122304D01*
X65008Y122329D01*
Y128695D01*
X65090Y128719D01*
X65398Y128778D01*
X65710Y128808D01*
X66023D01*
X66335Y128778D01*
X66642Y128719D01*
X66943Y128631D01*
X67234Y128515D01*
X67512Y128372D01*
X67583Y128337D01*
X67658Y128315D01*
X67736Y128304D01*
X67815Y128307D01*
X67892Y128321D01*
X67966Y128347D01*
X68035Y128385D01*
X68098Y128433D01*
X68152Y128490D01*
X68196Y128555D01*
X68230Y128626D01*
X68252Y128702D01*
X68263Y128780D01*
X68260Y128858D01*
X68246Y128936D01*
X68220Y129010D01*
X68219Y129012D01*
X69411D01*
Y127844D01*
X69366Y127869D01*
X69291Y127895D01*
X69213Y127910D01*
X69134Y127912D01*
X69055Y127902D01*
X68979Y127879D01*
X68908Y127845D01*
X68842Y127800D01*
X68785Y127746D01*
X68736Y127683D01*
X68698Y127613D01*
X68672Y127539D01*
X68657Y127461D01*
X68655Y127382D01*
X68665Y127303D01*
X68688Y127227D01*
X68723Y127156D01*
X68869Y126879D01*
X68986Y126588D01*
X69074Y126288D01*
X69133Y125980D01*
X69162Y125668D01*
Y125355D01*
X69133Y125043D01*
X69074Y124736D01*
X68986Y124435D01*
X68869Y124144D01*
X68726Y123866D01*
X68691Y123795D01*
X68669Y123720D01*
X68659Y123642D01*
X68661Y123563D01*
X68675Y123486D01*
X68702Y123412D01*
X68739Y123343D01*
X68787Y123280D01*
X68845Y123226D01*
X68909Y123182D01*
X68981Y123148D01*
X69056Y123126D01*
X69134Y123115D01*
X69213Y123118D01*
X69290Y123132D01*
X69364Y123158D01*
X69411Y123184D01*
Y121972D01*
G37*
G36*
X70860Y112548D02*X70442Y112130D01*
X69411D01*
Y113184D01*
X69433Y113196D01*
X69496Y113244D01*
X69550Y113301D01*
X69593Y113367D01*
X69784Y113728D01*
X69935Y114107D01*
X70050Y114499D01*
X70127Y114901D01*
X70166Y115308D01*
Y115716D01*
X70127Y116123D01*
X70050Y116524D01*
X69935Y116916D01*
X69784Y117296D01*
X69597Y117659D01*
X69553Y117725D01*
X69498Y117782D01*
X69435Y117831D01*
X69411Y117844D01*
Y118972D01*
X70807D01*
X70860Y118968D01*
Y112548D01*
G37*
G36*
X69411Y112130D02*X68258D01*
X68264Y112165D01*
X68266Y112244D01*
X68256Y112323D01*
X68234Y112399D01*
X68200Y112470D01*
X68155Y112536D01*
X68100Y112593D01*
X68037Y112642D01*
X67968Y112680D01*
X67893Y112706D01*
X67815Y112721D01*
X67736Y112723D01*
X67657Y112713D01*
X67581Y112690D01*
X67510Y112655D01*
X67234Y112509D01*
X66943Y112392D01*
X66642Y112304D01*
X66335Y112245D01*
X66023Y112216D01*
X65710D01*
X65398Y112245D01*
X65090Y112304D01*
X65008Y112329D01*
Y118695D01*
X65090Y118719D01*
X65398Y118778D01*
X65710Y118808D01*
X66023D01*
X66335Y118778D01*
X66642Y118719D01*
X66943Y118631D01*
X67234Y118515D01*
X67512Y118372D01*
X67583Y118337D01*
X67658Y118315D01*
X67736Y118304D01*
X67815Y118307D01*
X67892Y118321D01*
X67966Y118347D01*
X68035Y118385D01*
X68098Y118433D01*
X68152Y118490D01*
X68196Y118555D01*
X68230Y118626D01*
X68252Y118702D01*
X68263Y118780D01*
X68260Y118858D01*
X68246Y118936D01*
X68233Y118972D01*
X69411D01*
Y117844D01*
X69366Y117869D01*
X69291Y117895D01*
X69213Y117910D01*
X69134Y117912D01*
X69055Y117902D01*
X68979Y117879D01*
X68908Y117845D01*
X68842Y117800D01*
X68785Y117746D01*
X68736Y117683D01*
X68698Y117613D01*
X68672Y117539D01*
X68657Y117461D01*
X68655Y117382D01*
X68665Y117303D01*
X68688Y117227D01*
X68723Y117156D01*
X68869Y116879D01*
X68986Y116588D01*
X69074Y116288D01*
X69133Y115980D01*
X69162Y115668D01*
Y115355D01*
X69133Y115043D01*
X69074Y114736D01*
X68986Y114435D01*
X68869Y114144D01*
X68726Y113866D01*
X68691Y113795D01*
X68669Y113720D01*
X68659Y113642D01*
X68661Y113563D01*
X68675Y113486D01*
X68702Y113412D01*
X68739Y113343D01*
X68787Y113280D01*
X68845Y113226D01*
X68909Y113182D01*
X68981Y113148D01*
X69056Y113126D01*
X69134Y113115D01*
X69213Y113118D01*
X69290Y113132D01*
X69364Y113158D01*
X69411Y113184D01*
Y112130D01*
G37*
G36*
X70860Y102627D02*X70324Y102091D01*
X69411D01*
Y103184D01*
X69433Y103196D01*
X69496Y103244D01*
X69550Y103301D01*
X69593Y103367D01*
X69784Y103728D01*
X69935Y104107D01*
X70050Y104499D01*
X70127Y104901D01*
X70166Y105308D01*
Y105716D01*
X70127Y106123D01*
X70050Y106524D01*
X69935Y106916D01*
X69784Y107296D01*
X69597Y107659D01*
X69553Y107725D01*
X69498Y107782D01*
X69435Y107831D01*
X69411Y107844D01*
Y109130D01*
X70860D01*
Y102627D01*
G37*
G36*
X69411Y102091D02*X68250D01*
X68264Y102165D01*
X68266Y102244D01*
X68256Y102323D01*
X68234Y102399D01*
X68200Y102470D01*
X68155Y102536D01*
X68100Y102593D01*
X68037Y102642D01*
X67968Y102680D01*
X67893Y102706D01*
X67815Y102721D01*
X67736Y102723D01*
X67657Y102713D01*
X67581Y102690D01*
X67510Y102655D01*
X67234Y102509D01*
X66943Y102392D01*
X66642Y102304D01*
X66335Y102245D01*
X66023Y102216D01*
X65710D01*
X65398Y102245D01*
X65090Y102304D01*
X65008Y102329D01*
Y108695D01*
X65090Y108719D01*
X65398Y108778D01*
X65710Y108808D01*
X66023D01*
X66335Y108778D01*
X66642Y108719D01*
X66943Y108631D01*
X67234Y108515D01*
X67512Y108372D01*
X67583Y108337D01*
X67658Y108315D01*
X67736Y108304D01*
X67815Y108307D01*
X67892Y108321D01*
X67966Y108347D01*
X68035Y108385D01*
X68098Y108433D01*
X68152Y108490D01*
X68196Y108555D01*
X68230Y108626D01*
X68252Y108702D01*
X68263Y108780D01*
X68260Y108858D01*
X68246Y108936D01*
X68220Y109010D01*
X68182Y109079D01*
X68143Y109130D01*
X69411D01*
Y107844D01*
X69366Y107869D01*
X69291Y107895D01*
X69213Y107910D01*
X69134Y107912D01*
X69055Y107902D01*
X68979Y107879D01*
X68908Y107845D01*
X68842Y107800D01*
X68785Y107746D01*
X68736Y107683D01*
X68698Y107613D01*
X68672Y107539D01*
X68657Y107461D01*
X68655Y107382D01*
X68665Y107303D01*
X68688Y107227D01*
X68723Y107156D01*
X68869Y106879D01*
X68986Y106588D01*
X69074Y106288D01*
X69133Y105980D01*
X69162Y105668D01*
Y105355D01*
X69133Y105043D01*
X69074Y104736D01*
X68986Y104435D01*
X68869Y104144D01*
X68726Y103866D01*
X68691Y103795D01*
X68669Y103720D01*
X68659Y103642D01*
X68661Y103563D01*
X68675Y103486D01*
X68702Y103412D01*
X68739Y103343D01*
X68787Y103280D01*
X68845Y103226D01*
X68909Y103182D01*
X68981Y103148D01*
X69056Y103126D01*
X69134Y103115D01*
X69213Y103118D01*
X69290Y103132D01*
X69364Y103158D01*
X69411Y103184D01*
Y102091D01*
G37*
G36*
Y99091D02*X70860D01*
Y51507D01*
X70199Y51455D01*
X69549Y51299D01*
X69411Y51241D01*
Y73184D01*
X69433Y73196D01*
X69496Y73244D01*
X69550Y73301D01*
X69593Y73367D01*
X69784Y73728D01*
X69935Y74107D01*
X70050Y74499D01*
X70127Y74901D01*
X70166Y75308D01*
Y75716D01*
X70127Y76123D01*
X70050Y76524D01*
X69935Y76916D01*
X69784Y77296D01*
X69597Y77659D01*
X69553Y77725D01*
X69498Y77782D01*
X69435Y77831D01*
X69411Y77844D01*
Y83184D01*
X69433Y83196D01*
X69496Y83244D01*
X69550Y83301D01*
X69593Y83367D01*
X69784Y83728D01*
X69935Y84107D01*
X70050Y84499D01*
X70127Y84901D01*
X70166Y85308D01*
Y85716D01*
X70127Y86123D01*
X70050Y86524D01*
X69935Y86916D01*
X69784Y87296D01*
X69597Y87659D01*
X69553Y87725D01*
X69498Y87782D01*
X69435Y87831D01*
X69411Y87844D01*
Y93184D01*
X69433Y93196D01*
X69496Y93244D01*
X69550Y93301D01*
X69593Y93367D01*
X69784Y93728D01*
X69935Y94107D01*
X70050Y94499D01*
X70127Y94901D01*
X70166Y95308D01*
Y95716D01*
X70127Y96123D01*
X70050Y96524D01*
X69935Y96916D01*
X69784Y97296D01*
X69597Y97659D01*
X69553Y97725D01*
X69498Y97782D01*
X69435Y97831D01*
X69411Y97844D01*
Y99091D01*
G37*
G36*
X70860Y39370D02*X69411D01*
Y43247D01*
X69549Y43190D01*
X70199Y43033D01*
X70860Y42982D01*
Y39370D01*
G37*
G36*
X69411D02*X65008D01*
Y71298D01*
X65255Y71251D01*
X65662Y71212D01*
X66070D01*
X66477Y71251D01*
X66878Y71328D01*
X67271Y71443D01*
X67650Y71594D01*
X68013Y71781D01*
X68079Y71825D01*
X68137Y71880D01*
X68185Y71943D01*
X68223Y72012D01*
X68250Y72087D01*
X68264Y72165D01*
X68266Y72244D01*
X68256Y72323D01*
X68234Y72399D01*
X68200Y72470D01*
X68155Y72536D01*
X68100Y72593D01*
X68037Y72642D01*
X67968Y72680D01*
X67893Y72706D01*
X67815Y72721D01*
X67736Y72723D01*
X67657Y72713D01*
X67581Y72690D01*
X67510Y72655D01*
X67234Y72509D01*
X66943Y72392D01*
X66642Y72304D01*
X66335Y72245D01*
X66023Y72216D01*
X65710D01*
X65398Y72245D01*
X65090Y72304D01*
X65008Y72329D01*
Y78695D01*
X65090Y78719D01*
X65398Y78778D01*
X65710Y78808D01*
X66023D01*
X66335Y78778D01*
X66642Y78719D01*
X66943Y78631D01*
X67234Y78515D01*
X67512Y78372D01*
X67583Y78337D01*
X67658Y78315D01*
X67736Y78304D01*
X67815Y78307D01*
X67892Y78321D01*
X67966Y78347D01*
X68035Y78385D01*
X68098Y78433D01*
X68152Y78490D01*
X68196Y78555D01*
X68230Y78626D01*
X68252Y78702D01*
X68263Y78780D01*
X68260Y78858D01*
X68246Y78936D01*
X68220Y79010D01*
X68182Y79079D01*
X68134Y79141D01*
X68077Y79195D01*
X68011Y79239D01*
X67650Y79430D01*
X67271Y79581D01*
X66878Y79696D01*
X66477Y79773D01*
X66070Y79812D01*
X65662D01*
X65255Y79773D01*
X65008Y79726D01*
Y81298D01*
X65255Y81251D01*
X65662Y81212D01*
X66070D01*
X66477Y81251D01*
X66878Y81328D01*
X67271Y81443D01*
X67650Y81594D01*
X68013Y81781D01*
X68079Y81825D01*
X68137Y81880D01*
X68185Y81943D01*
X68223Y82012D01*
X68250Y82087D01*
X68264Y82165D01*
X68266Y82244D01*
X68256Y82323D01*
X68234Y82399D01*
X68200Y82470D01*
X68155Y82536D01*
X68100Y82593D01*
X68037Y82642D01*
X67968Y82680D01*
X67893Y82706D01*
X67815Y82721D01*
X67736Y82723D01*
X67657Y82713D01*
X67581Y82690D01*
X67510Y82655D01*
X67234Y82509D01*
X66943Y82392D01*
X66642Y82304D01*
X66335Y82245D01*
X66023Y82216D01*
X65710D01*
X65398Y82245D01*
X65090Y82304D01*
X65008Y82329D01*
Y88695D01*
X65090Y88719D01*
X65398Y88778D01*
X65710Y88808D01*
X66023D01*
X66335Y88778D01*
X66642Y88719D01*
X66943Y88631D01*
X67234Y88515D01*
X67512Y88372D01*
X67583Y88337D01*
X67658Y88315D01*
X67736Y88304D01*
X67815Y88307D01*
X67892Y88321D01*
X67966Y88347D01*
X68035Y88385D01*
X68098Y88433D01*
X68152Y88490D01*
X68196Y88555D01*
X68230Y88626D01*
X68252Y88702D01*
X68263Y88780D01*
X68260Y88858D01*
X68246Y88936D01*
X68220Y89010D01*
X68182Y89079D01*
X68134Y89141D01*
X68077Y89195D01*
X68011Y89239D01*
X67650Y89430D01*
X67271Y89581D01*
X66878Y89696D01*
X66477Y89773D01*
X66070Y89812D01*
X65662D01*
X65255Y89773D01*
X65008Y89726D01*
Y91298D01*
X65255Y91251D01*
X65662Y91212D01*
X66070D01*
X66477Y91251D01*
X66878Y91328D01*
X67271Y91443D01*
X67650Y91594D01*
X68013Y91781D01*
X68079Y91825D01*
X68137Y91880D01*
X68185Y91943D01*
X68223Y92012D01*
X68250Y92087D01*
X68264Y92165D01*
X68266Y92244D01*
X68256Y92323D01*
X68234Y92399D01*
X68200Y92470D01*
X68155Y92536D01*
X68100Y92593D01*
X68037Y92642D01*
X67968Y92680D01*
X67893Y92706D01*
X67815Y92721D01*
X67736Y92723D01*
X67657Y92713D01*
X67581Y92690D01*
X67510Y92655D01*
X67234Y92509D01*
X66943Y92392D01*
X66642Y92304D01*
X66335Y92245D01*
X66023Y92216D01*
X65710D01*
X65398Y92245D01*
X65090Y92304D01*
X65008Y92329D01*
Y98695D01*
X65090Y98719D01*
X65398Y98778D01*
X65710Y98808D01*
X66023D01*
X66335Y98778D01*
X66642Y98719D01*
X66943Y98631D01*
X67234Y98515D01*
X67512Y98372D01*
X67583Y98337D01*
X67658Y98315D01*
X67736Y98304D01*
X67815Y98307D01*
X67892Y98321D01*
X67966Y98347D01*
X68035Y98385D01*
X68098Y98433D01*
X68152Y98490D01*
X68196Y98555D01*
X68230Y98626D01*
X68252Y98702D01*
X68263Y98780D01*
X68260Y98858D01*
X68246Y98936D01*
X68220Y99010D01*
X68182Y99079D01*
X68173Y99091D01*
X69411D01*
Y97844D01*
X69366Y97869D01*
X69291Y97895D01*
X69213Y97910D01*
X69134Y97912D01*
X69055Y97902D01*
X68979Y97879D01*
X68908Y97845D01*
X68842Y97800D01*
X68785Y97746D01*
X68736Y97683D01*
X68698Y97613D01*
X68672Y97539D01*
X68657Y97461D01*
X68655Y97382D01*
X68665Y97303D01*
X68688Y97227D01*
X68723Y97156D01*
X68869Y96879D01*
X68986Y96588D01*
X69074Y96288D01*
X69133Y95980D01*
X69162Y95668D01*
Y95355D01*
X69133Y95043D01*
X69074Y94736D01*
X68986Y94435D01*
X68869Y94144D01*
X68726Y93866D01*
X68691Y93795D01*
X68669Y93720D01*
X68659Y93642D01*
X68661Y93563D01*
X68675Y93486D01*
X68702Y93412D01*
X68739Y93343D01*
X68787Y93280D01*
X68845Y93226D01*
X68909Y93182D01*
X68981Y93148D01*
X69056Y93126D01*
X69134Y93115D01*
X69213Y93118D01*
X69290Y93132D01*
X69364Y93158D01*
X69411Y93184D01*
Y87844D01*
X69366Y87869D01*
X69291Y87895D01*
X69213Y87910D01*
X69134Y87912D01*
X69055Y87902D01*
X68979Y87879D01*
X68908Y87845D01*
X68842Y87800D01*
X68785Y87746D01*
X68736Y87683D01*
X68698Y87613D01*
X68672Y87539D01*
X68657Y87461D01*
X68655Y87382D01*
X68665Y87303D01*
X68688Y87227D01*
X68723Y87156D01*
X68869Y86879D01*
X68986Y86588D01*
X69074Y86288D01*
X69133Y85980D01*
X69162Y85668D01*
Y85355D01*
X69133Y85043D01*
X69074Y84736D01*
X68986Y84435D01*
X68869Y84144D01*
X68726Y83866D01*
X68691Y83795D01*
X68669Y83720D01*
X68659Y83642D01*
X68661Y83563D01*
X68675Y83486D01*
X68702Y83412D01*
X68739Y83343D01*
X68787Y83280D01*
X68845Y83226D01*
X68909Y83182D01*
X68981Y83148D01*
X69056Y83126D01*
X69134Y83115D01*
X69213Y83118D01*
X69290Y83132D01*
X69364Y83158D01*
X69411Y83184D01*
Y77844D01*
X69366Y77869D01*
X69291Y77895D01*
X69213Y77910D01*
X69134Y77912D01*
X69055Y77902D01*
X68979Y77879D01*
X68908Y77845D01*
X68842Y77800D01*
X68785Y77746D01*
X68736Y77683D01*
X68698Y77613D01*
X68672Y77539D01*
X68657Y77461D01*
X68655Y77382D01*
X68665Y77303D01*
X68688Y77227D01*
X68723Y77156D01*
X68869Y76879D01*
X68986Y76588D01*
X69074Y76288D01*
X69133Y75980D01*
X69162Y75668D01*
Y75355D01*
X69133Y75043D01*
X69074Y74736D01*
X68986Y74435D01*
X68869Y74144D01*
X68726Y73866D01*
X68691Y73795D01*
X68669Y73720D01*
X68659Y73642D01*
X68661Y73563D01*
X68675Y73486D01*
X68702Y73412D01*
X68739Y73343D01*
X68787Y73280D01*
X68845Y73226D01*
X68909Y73182D01*
X68981Y73148D01*
X69056Y73126D01*
X69134Y73115D01*
X69213Y73118D01*
X69290Y73132D01*
X69364Y73158D01*
X69411Y73184D01*
Y51241D01*
X68931Y51043D01*
X68360Y50693D01*
X67852Y50259D01*
X67417Y49750D01*
X67068Y49180D01*
X66812Y48561D01*
X66656Y47911D01*
X66603Y47244D01*
X66656Y46577D01*
X66812Y45927D01*
X67068Y45309D01*
X67417Y44738D01*
X67852Y44230D01*
X68360Y43795D01*
X68931Y43446D01*
X69411Y43247D01*
Y39370D01*
G37*
G36*
X74367Y413386D02*X128619D01*
Y409012D01*
X127638Y409993D01*
X127580Y410060D01*
X127311Y410290D01*
X127311Y410290D01*
X127196Y410361D01*
X127009Y410476D01*
X126778Y410571D01*
X126682Y410611D01*
X126337Y410694D01*
X125984Y410722D01*
X125896Y410715D01*
X97529D01*
X97441Y410722D01*
X97088Y410694D01*
X96744Y410611D01*
X96416Y410476D01*
X96114Y410290D01*
X96114Y410290D01*
X95845Y410060D01*
X95788Y409993D01*
X86666Y400872D01*
X74367D01*
Y403216D01*
X74398Y403233D01*
X74460Y403282D01*
X74514Y403339D01*
X74557Y403405D01*
X74743Y403760D01*
X74891Y404133D01*
X75003Y404518D01*
X75078Y404912D01*
X75116Y405311D01*
Y405712D01*
X75078Y406112D01*
X75003Y406506D01*
X74891Y406891D01*
X74743Y407264D01*
X74561Y407621D01*
X74517Y407687D01*
X74463Y407745D01*
X74400Y407793D01*
X74367Y407811D01*
Y413386D01*
G37*
G36*
X70868D02*X74367D01*
Y407811D01*
X74331Y407831D01*
X74256Y407858D01*
X74178Y407873D01*
X74099Y407876D01*
X74020Y407866D01*
X73944Y407843D01*
X73872Y407810D01*
X73807Y407765D01*
X73749Y407711D01*
X73700Y407648D01*
X73662Y407579D01*
X73636Y407504D01*
X73621Y407426D01*
X73618Y407347D01*
X73628Y407268D01*
X73650Y407192D01*
X73685Y407121D01*
X73828Y406850D01*
X73941Y406565D01*
X74026Y406271D01*
X74084Y405970D01*
X74113Y405665D01*
Y405359D01*
X74084Y405054D01*
X74026Y404753D01*
X73941Y404458D01*
X73828Y404173D01*
X73689Y403901D01*
X73654Y403830D01*
X73632Y403755D01*
X73622Y403676D01*
X73624Y403598D01*
X73639Y403520D01*
X73666Y403446D01*
X73704Y403377D01*
X73752Y403315D01*
X73809Y403261D01*
X73874Y403217D01*
X73945Y403184D01*
X74021Y403162D01*
X74099Y403152D01*
X74178Y403154D01*
X74255Y403169D01*
X74329Y403195D01*
X74367Y403216D01*
Y400872D01*
X70868D01*
Y401262D01*
X71067D01*
X71466Y401300D01*
X71860Y401375D01*
X72245Y401487D01*
X72618Y401635D01*
X72976Y401817D01*
X73041Y401861D01*
X73099Y401915D01*
X73148Y401978D01*
X73186Y402047D01*
X73213Y402122D01*
X73227Y402200D01*
X73230Y402279D01*
X73220Y402358D01*
X73198Y402434D01*
X73164Y402506D01*
X73119Y402571D01*
X73065Y402629D01*
X73003Y402677D01*
X72933Y402716D01*
X72858Y402742D01*
X72781Y402757D01*
X72701Y402760D01*
X72623Y402750D01*
X72547Y402728D01*
X72476Y402692D01*
X72204Y402550D01*
X71920Y402437D01*
X71625Y402352D01*
X71324Y402294D01*
X71019Y402265D01*
X70868D01*
Y408758D01*
X71019D01*
X71324Y408729D01*
X71625Y408672D01*
X71920Y408586D01*
X72204Y408473D01*
X72477Y408334D01*
X72548Y408299D01*
X72623Y408277D01*
X72702Y408268D01*
X72780Y408270D01*
X72857Y408285D01*
X72932Y408311D01*
X73001Y408349D01*
X73063Y408397D01*
X73117Y408455D01*
X73161Y408520D01*
X73194Y408591D01*
X73216Y408667D01*
X73226Y408745D01*
X73224Y408823D01*
X73209Y408901D01*
X73182Y408975D01*
X73145Y409044D01*
X73096Y409106D01*
X73039Y409160D01*
X72973Y409203D01*
X72618Y409389D01*
X72245Y409537D01*
X71860Y409649D01*
X71466Y409724D01*
X71067Y409762D01*
X70868D01*
Y413386D01*
G37*
G36*
X67365D02*X70868D01*
Y409762D01*
X70666D01*
X70266Y409724D01*
X69872Y409649D01*
X69487Y409537D01*
X69114Y409389D01*
X68757Y409207D01*
X68691Y409163D01*
X68633Y409108D01*
X68585Y409046D01*
X68546Y408976D01*
X68520Y408902D01*
X68505Y408824D01*
X68502Y408745D01*
X68512Y408666D01*
X68534Y408590D01*
X68568Y408518D01*
X68613Y408452D01*
X68667Y408395D01*
X68730Y408346D01*
X68799Y408308D01*
X68874Y408281D01*
X68952Y408266D01*
X69031Y408264D01*
X69110Y408274D01*
X69186Y408296D01*
X69257Y408331D01*
X69528Y408473D01*
X69813Y408586D01*
X70107Y408672D01*
X70408Y408729D01*
X70713Y408758D01*
X70868D01*
Y402265D01*
X70713D01*
X70408Y402294D01*
X70107Y402352D01*
X69813Y402437D01*
X69528Y402550D01*
X69255Y402689D01*
X69184Y402724D01*
X69109Y402746D01*
X69031Y402756D01*
X68952Y402754D01*
X68875Y402739D01*
X68801Y402712D01*
X68732Y402674D01*
X68670Y402626D01*
X68616Y402569D01*
X68571Y402504D01*
X68538Y402433D01*
X68516Y402357D01*
X68506Y402279D01*
X68508Y402200D01*
X68523Y402123D01*
X68550Y402049D01*
X68588Y401980D01*
X68636Y401918D01*
X68693Y401864D01*
X68759Y401821D01*
X69114Y401635D01*
X69487Y401487D01*
X69872Y401375D01*
X70266Y401300D01*
X70666Y401262D01*
X70868D01*
Y400872D01*
X67365D01*
Y403212D01*
X67402Y403192D01*
X67476Y403165D01*
X67554Y403151D01*
X67633Y403148D01*
X67712Y403158D01*
X67788Y403180D01*
X67860Y403214D01*
X67925Y403259D01*
X67983Y403313D01*
X68032Y403375D01*
X68070Y403445D01*
X68097Y403520D01*
X68112Y403597D01*
X68114Y403677D01*
X68104Y403755D01*
X68082Y403831D01*
X68047Y403902D01*
X67904Y404173D01*
X67792Y404458D01*
X67706Y404753D01*
X67649Y405054D01*
X67620Y405359D01*
Y405665D01*
X67649Y405970D01*
X67706Y406271D01*
X67792Y406565D01*
X67904Y406850D01*
X68044Y407123D01*
X68079Y407194D01*
X68101Y407269D01*
X68110Y407347D01*
X68108Y407426D01*
X68093Y407503D01*
X68067Y407577D01*
X68029Y407646D01*
X67981Y407708D01*
X67923Y407762D01*
X67858Y407807D01*
X67787Y407840D01*
X67711Y407862D01*
X67633Y407872D01*
X67555Y407870D01*
X67477Y407855D01*
X67403Y407828D01*
X67365Y407807D01*
Y413386D01*
G37*
G36*
X65008D02*X67365D01*
Y407807D01*
X67334Y407790D01*
X67272Y407742D01*
X67218Y407685D01*
X67175Y407619D01*
X66989Y407264D01*
X66841Y406891D01*
X66729Y406506D01*
X66654Y406112D01*
X66616Y405712D01*
Y405311D01*
X66654Y404912D01*
X66729Y404518D01*
X66841Y404133D01*
X66989Y403760D01*
X67171Y403402D01*
X67215Y403337D01*
X67270Y403279D01*
X67332Y403230D01*
X67365Y403212D01*
Y400872D01*
X65008D01*
Y413386D01*
G37*
G36*
X57302Y357651D02*X52131Y352480D01*
X52086Y352442D01*
X51932Y352262D01*
X51809Y352061D01*
X51719Y351843D01*
X51664Y351613D01*
X51663Y351613D01*
X51645Y351378D01*
X51650Y351319D01*
Y349047D01*
X50560Y347957D01*
X50141D01*
X50141Y347959D01*
X49834Y348700D01*
X49414Y349385D01*
X48893Y349995D01*
X48283Y350517D01*
X47598Y350936D01*
X46856Y351243D01*
X46296Y351378D01*
X46856Y351513D01*
X47598Y351820D01*
X48283Y352239D01*
X48893Y352761D01*
X49414Y353371D01*
X49834Y354055D01*
X50141Y354797D01*
X50141Y354799D01*
X51122D01*
X51181Y354795D01*
X51416Y354813D01*
X51416Y354813D01*
X51646Y354868D01*
X51864Y354959D01*
X52066Y355082D01*
X52245Y355235D01*
X52283Y355280D01*
X56137Y359134D01*
X56182Y359172D01*
X56335Y359352D01*
X56335Y359352D01*
X56459Y359553D01*
X56549Y359771D01*
X56604Y360001D01*
X56623Y360236D01*
X56618Y360295D01*
Y362568D01*
X57708Y363657D01*
X65008D01*
Y360752D01*
X64673D01*
X64442Y361310D01*
X64113Y361847D01*
X63704Y362326D01*
X63225Y362735D01*
X62689Y363064D01*
X62107Y363305D01*
X61495Y363452D01*
X60867Y363501D01*
X60239Y363452D01*
X59627Y363305D01*
X59045Y363064D01*
X58509Y362735D01*
X58030Y362326D01*
X57621Y361847D01*
X57292Y361310D01*
X57051Y360728D01*
X56904Y360116D01*
X56855Y359489D01*
X56904Y358861D01*
X57051Y358249D01*
X57292Y357667D01*
X57302Y357651D01*
G37*
G36*
X65008Y202329D02*X64790Y202392D01*
X64499Y202509D01*
X64220Y202652D01*
X64150Y202687D01*
X64074Y202709D01*
X63996Y202719D01*
X63918Y202717D01*
X63840Y202703D01*
X63766Y202676D01*
X63697Y202639D01*
X63635Y202591D01*
X63580Y202533D01*
X63536Y202469D01*
X63502Y202397D01*
X63480Y202322D01*
X63470Y202244D01*
X63472Y202165D01*
X63486Y202088D01*
X63513Y202014D01*
X63550Y201945D01*
X63590Y201894D01*
X63051D01*
X62992Y201898D01*
X62757Y201880D01*
X62527Y201825D01*
X62309Y201734D01*
X62108Y201611D01*
X62108Y201611D01*
X62066Y201575D01*
Y203499D01*
X62135Y203364D01*
X62180Y203299D01*
X62234Y203241D01*
X62297Y203193D01*
X62367Y203155D01*
X62441Y203128D01*
X62519Y203114D01*
X62598Y203112D01*
X62677Y203122D01*
X62753Y203144D01*
X62825Y203178D01*
X62890Y203223D01*
X62948Y203278D01*
X62996Y203341D01*
X63034Y203410D01*
X63061Y203485D01*
X63075Y203563D01*
X63077Y203642D01*
X63067Y203721D01*
X63045Y203797D01*
X63009Y203868D01*
X62863Y204144D01*
X62747Y204435D01*
X62659Y204736D01*
X62600Y205043D01*
X62570Y205355D01*
Y205668D01*
X62600Y205980D01*
X62659Y206288D01*
X62747Y206588D01*
X62863Y206879D01*
X63006Y207158D01*
X63041Y207228D01*
X63063Y207304D01*
X63074Y207382D01*
X63071Y207460D01*
X63057Y207538D01*
X63031Y207612D01*
X62993Y207681D01*
X62945Y207743D01*
X62888Y207798D01*
X62823Y207842D01*
X62752Y207876D01*
X62676Y207898D01*
X62598Y207908D01*
X62520Y207906D01*
X62442Y207892D01*
X62368Y207865D01*
X62299Y207828D01*
X62237Y207780D01*
X62182Y207722D01*
X62139Y207657D01*
X62066Y207518D01*
Y213499D01*
X62135Y213364D01*
X62180Y213299D01*
X62234Y213241D01*
X62297Y213193D01*
X62367Y213155D01*
X62441Y213128D01*
X62519Y213114D01*
X62598Y213112D01*
X62677Y213122D01*
X62753Y213144D01*
X62825Y213178D01*
X62890Y213223D01*
X62948Y213278D01*
X62996Y213341D01*
X63034Y213410D01*
X63061Y213485D01*
X63075Y213563D01*
X63077Y213642D01*
X63067Y213721D01*
X63045Y213797D01*
X63009Y213868D01*
X62863Y214144D01*
X62747Y214435D01*
X62659Y214736D01*
X62600Y215043D01*
X62570Y215355D01*
Y215668D01*
X62600Y215980D01*
X62659Y216288D01*
X62747Y216588D01*
X62863Y216879D01*
X63006Y217158D01*
X63041Y217228D01*
X63063Y217304D01*
X63074Y217382D01*
X63071Y217460D01*
X63057Y217538D01*
X63031Y217612D01*
X62993Y217681D01*
X62945Y217743D01*
X62888Y217798D01*
X62823Y217842D01*
X62752Y217876D01*
X62676Y217898D01*
X62598Y217908D01*
X62520Y217906D01*
X62442Y217892D01*
X62368Y217865D01*
X62299Y217828D01*
X62237Y217780D01*
X62182Y217722D01*
X62139Y217657D01*
X62066Y217518D01*
Y223499D01*
X62135Y223364D01*
X62180Y223299D01*
X62234Y223241D01*
X62297Y223193D01*
X62367Y223155D01*
X62441Y223128D01*
X62519Y223114D01*
X62598Y223112D01*
X62677Y223122D01*
X62753Y223144D01*
X62825Y223178D01*
X62890Y223223D01*
X62948Y223278D01*
X62996Y223341D01*
X63034Y223410D01*
X63061Y223485D01*
X63075Y223563D01*
X63077Y223642D01*
X63067Y223721D01*
X63045Y223797D01*
X63009Y223868D01*
X62863Y224144D01*
X62747Y224435D01*
X62659Y224736D01*
X62600Y225043D01*
X62570Y225355D01*
Y225668D01*
X62600Y225980D01*
X62659Y226288D01*
X62747Y226588D01*
X62863Y226879D01*
X63006Y227158D01*
X63041Y227228D01*
X63063Y227304D01*
X63074Y227382D01*
X63071Y227460D01*
X63057Y227538D01*
X63031Y227612D01*
X62993Y227681D01*
X62945Y227743D01*
X62888Y227798D01*
X62823Y227842D01*
X62752Y227876D01*
X62676Y227898D01*
X62598Y227908D01*
X62520Y227906D01*
X62442Y227892D01*
X62368Y227865D01*
X62299Y227828D01*
X62237Y227780D01*
X62182Y227722D01*
X62139Y227657D01*
X62066Y227518D01*
Y232710D01*
X62145Y232716D01*
X62221Y232735D01*
X62294Y232765D01*
X62361Y232806D01*
X62421Y232857D01*
X62472Y232917D01*
X62513Y232984D01*
X62543Y233057D01*
X62562Y233133D01*
X62566Y233212D01*
Y237812D01*
X62562Y237890D01*
X62543Y237967D01*
X62513Y238040D01*
X62472Y238107D01*
X62421Y238166D01*
X62361Y238218D01*
X62294Y238259D01*
X62221Y238289D01*
X62145Y238307D01*
X62066Y238313D01*
Y243579D01*
X65008D01*
Y239812D01*
X63566D01*
X63488Y239807D01*
X63411Y239789D01*
X63338Y239759D01*
X63271Y239718D01*
X63211Y239666D01*
X63160Y239607D01*
X63119Y239540D01*
X63089Y239467D01*
X63071Y239390D01*
X63065Y239312D01*
X63071Y239233D01*
X63089Y239157D01*
X63119Y239084D01*
X63160Y239017D01*
X63211Y238957D01*
X63271Y238906D01*
X63338Y238865D01*
X63411Y238835D01*
X63488Y238816D01*
X63566Y238812D01*
X65008D01*
Y232212D01*
X63566D01*
X63488Y232207D01*
X63411Y232189D01*
X63338Y232159D01*
X63271Y232118D01*
X63211Y232066D01*
X63160Y232007D01*
X63119Y231940D01*
X63089Y231867D01*
X63071Y231790D01*
X63065Y231712D01*
X63071Y231633D01*
X63089Y231557D01*
X63119Y231484D01*
X63160Y231417D01*
X63211Y231357D01*
X63271Y231306D01*
X63338Y231265D01*
X63411Y231235D01*
X63488Y231216D01*
X63566Y231212D01*
X65008D01*
Y229726D01*
X64854Y229696D01*
X64462Y229581D01*
X64082Y229430D01*
X63719Y229243D01*
X63653Y229198D01*
X63596Y229144D01*
X63547Y229081D01*
X63509Y229011D01*
X63483Y228937D01*
X63468Y228859D01*
X63466Y228780D01*
X63476Y228701D01*
X63499Y228625D01*
X63533Y228553D01*
X63578Y228488D01*
X63632Y228430D01*
X63695Y228382D01*
X63764Y228344D01*
X63839Y228317D01*
X63917Y228303D01*
X63996Y228301D01*
X64075Y228311D01*
X64151Y228333D01*
X64222Y228369D01*
X64499Y228515D01*
X64790Y228631D01*
X65008Y228695D01*
Y222329D01*
X64790Y222392D01*
X64499Y222509D01*
X64220Y222652D01*
X64150Y222687D01*
X64074Y222709D01*
X63996Y222719D01*
X63918Y222717D01*
X63840Y222703D01*
X63766Y222676D01*
X63697Y222639D01*
X63635Y222591D01*
X63580Y222533D01*
X63536Y222469D01*
X63502Y222397D01*
X63480Y222322D01*
X63470Y222244D01*
X63472Y222165D01*
X63486Y222088D01*
X63513Y222014D01*
X63550Y221945D01*
X63598Y221882D01*
X63656Y221828D01*
X63721Y221785D01*
X64082Y221594D01*
X64462Y221443D01*
X64854Y221328D01*
X65008Y221298D01*
Y219726D01*
X64854Y219696D01*
X64462Y219581D01*
X64082Y219430D01*
X63719Y219243D01*
X63653Y219198D01*
X63596Y219144D01*
X63547Y219081D01*
X63509Y219011D01*
X63483Y218937D01*
X63468Y218859D01*
X63466Y218780D01*
X63476Y218701D01*
X63499Y218625D01*
X63533Y218553D01*
X63578Y218488D01*
X63632Y218430D01*
X63695Y218382D01*
X63764Y218344D01*
X63839Y218317D01*
X63917Y218303D01*
X63996Y218301D01*
X64075Y218311D01*
X64151Y218333D01*
X64222Y218369D01*
X64499Y218515D01*
X64790Y218631D01*
X65008Y218695D01*
Y212329D01*
X64790Y212392D01*
X64499Y212509D01*
X64220Y212652D01*
X64150Y212687D01*
X64074Y212709D01*
X63996Y212719D01*
X63918Y212717D01*
X63840Y212703D01*
X63766Y212676D01*
X63697Y212639D01*
X63635Y212591D01*
X63580Y212533D01*
X63536Y212469D01*
X63502Y212397D01*
X63480Y212322D01*
X63470Y212244D01*
X63472Y212165D01*
X63486Y212088D01*
X63513Y212014D01*
X63550Y211945D01*
X63598Y211882D01*
X63656Y211828D01*
X63721Y211785D01*
X64082Y211594D01*
X64462Y211443D01*
X64854Y211328D01*
X65008Y211298D01*
Y209726D01*
X64854Y209696D01*
X64462Y209581D01*
X64082Y209430D01*
X63719Y209243D01*
X63653Y209198D01*
X63596Y209144D01*
X63547Y209081D01*
X63509Y209011D01*
X63483Y208937D01*
X63468Y208859D01*
X63466Y208780D01*
X63476Y208701D01*
X63499Y208625D01*
X63533Y208553D01*
X63578Y208488D01*
X63632Y208430D01*
X63695Y208382D01*
X63764Y208344D01*
X63839Y208317D01*
X63917Y208303D01*
X63996Y208301D01*
X64075Y208311D01*
X64151Y208333D01*
X64222Y208369D01*
X64499Y208515D01*
X64790Y208631D01*
X65008Y208695D01*
Y202329D01*
G37*
G36*
X62066Y201575D02*X61928Y201458D01*
X61890Y201413D01*
X54099Y193622D01*
X54054Y193584D01*
X53901Y193404D01*
X53777Y193203D01*
X53687Y192985D01*
X53632Y192755D01*
X53632Y192755D01*
X53613Y192520D01*
X53618Y192461D01*
Y179755D01*
X51741Y177878D01*
X50160D01*
X50141Y177959D01*
X49834Y178700D01*
X49414Y179385D01*
X48893Y179995D01*
X48283Y180517D01*
X47598Y180936D01*
X46856Y181243D01*
X46296Y181378D01*
X46856Y181513D01*
X47598Y181820D01*
X48283Y182239D01*
X48893Y182761D01*
X49414Y183371D01*
X49834Y184055D01*
X50141Y184797D01*
X50328Y185578D01*
X50376Y186378D01*
X50328Y187178D01*
X50141Y187959D01*
X49834Y188700D01*
X49414Y189385D01*
X48893Y189995D01*
X48283Y190517D01*
X47598Y190936D01*
X46856Y191243D01*
X46296Y191378D01*
X46856Y191513D01*
X47598Y191820D01*
X48283Y192239D01*
X48893Y192761D01*
X49414Y193371D01*
X49834Y194055D01*
X50141Y194797D01*
X50328Y195578D01*
X50376Y196378D01*
X50328Y197178D01*
X50141Y197959D01*
X49834Y198700D01*
X49414Y199385D01*
X48893Y199995D01*
X48283Y200517D01*
X47598Y200936D01*
X46856Y201243D01*
X46296Y201378D01*
X46856Y201513D01*
X47598Y201820D01*
X48283Y202239D01*
X48893Y202761D01*
X49414Y203371D01*
X49834Y204055D01*
X50141Y204797D01*
X50236Y205193D01*
X51122D01*
X51181Y205188D01*
X51416Y205207D01*
X51416Y205207D01*
X51646Y205262D01*
X51864Y205352D01*
X52066Y205476D01*
X52245Y205629D01*
X52283Y205674D01*
X54169Y207559D01*
X54214Y207597D01*
X54367Y207777D01*
X54367Y207777D01*
X54490Y207978D01*
X54581Y208196D01*
X54636Y208426D01*
X54654Y208661D01*
X54650Y208720D01*
Y242489D01*
X55739Y243579D01*
X62066D01*
Y238313D01*
X61988Y238307D01*
X61911Y238289D01*
X61838Y238259D01*
X61771Y238218D01*
X61711Y238166D01*
X61660Y238107D01*
X61619Y238040D01*
X61589Y237967D01*
X61571Y237890D01*
X61566Y237812D01*
Y233212D01*
X61571Y233133D01*
X61589Y233057D01*
X61619Y232984D01*
X61660Y232917D01*
X61711Y232857D01*
X61771Y232806D01*
X61838Y232765D01*
X61911Y232735D01*
X61988Y232716D01*
X62066Y232710D01*
Y227518D01*
X61948Y227296D01*
X61797Y226916D01*
X61682Y226524D01*
X61605Y226123D01*
X61566Y225716D01*
Y225308D01*
X61605Y224901D01*
X61682Y224499D01*
X61797Y224107D01*
X61948Y223728D01*
X62066Y223499D01*
Y217518D01*
X61948Y217296D01*
X61797Y216916D01*
X61682Y216524D01*
X61605Y216123D01*
X61566Y215716D01*
Y215308D01*
X61605Y214901D01*
X61682Y214499D01*
X61797Y214107D01*
X61948Y213728D01*
X62066Y213499D01*
Y207518D01*
X61948Y207296D01*
X61797Y206916D01*
X61682Y206524D01*
X61605Y206123D01*
X61566Y205716D01*
Y205308D01*
X61605Y204901D01*
X61682Y204499D01*
X61797Y204107D01*
X61948Y203728D01*
X62066Y203499D01*
Y201575D01*
G37*
G36*
X65008Y192329D02*X64790Y192392D01*
X64499Y192509D01*
X64220Y192652D01*
X64150Y192687D01*
X64074Y192709D01*
X63996Y192719D01*
X63918Y192717D01*
X63840Y192703D01*
X63766Y192676D01*
X63697Y192639D01*
X63635Y192591D01*
X63580Y192533D01*
X63536Y192469D01*
X63502Y192397D01*
X63480Y192322D01*
X63470Y192244D01*
X63470Y192223D01*
X63424Y192234D01*
X63189Y192253D01*
X62954Y192234D01*
X62724Y192179D01*
X62506Y192089D01*
X62305Y191965D01*
X62128Y191809D01*
X61973Y191653D01*
X61928Y191615D01*
X61890Y191570D01*
X56618Y186298D01*
Y191898D01*
X61904Y197184D01*
X61797Y196916D01*
X61682Y196524D01*
X61605Y196123D01*
X61566Y195716D01*
Y195308D01*
X61605Y194901D01*
X61682Y194499D01*
X61797Y194107D01*
X61948Y193728D01*
X62135Y193364D01*
X62180Y193299D01*
X62234Y193241D01*
X62297Y193193D01*
X62367Y193155D01*
X62441Y193128D01*
X62519Y193114D01*
X62598Y193112D01*
X62677Y193122D01*
X62753Y193144D01*
X62825Y193178D01*
X62890Y193223D01*
X62948Y193278D01*
X62996Y193341D01*
X63034Y193410D01*
X63061Y193485D01*
X63075Y193563D01*
X63077Y193642D01*
X63067Y193721D01*
X63045Y193797D01*
X63009Y193868D01*
X62863Y194144D01*
X62747Y194435D01*
X62659Y194736D01*
X62600Y195043D01*
X62570Y195355D01*
Y195668D01*
X62600Y195980D01*
X62659Y196288D01*
X62747Y196588D01*
X62863Y196879D01*
X63006Y197158D01*
X63041Y197228D01*
X63063Y197304D01*
X63074Y197382D01*
X63071Y197460D01*
X63057Y197538D01*
X63031Y197612D01*
X62993Y197681D01*
X62945Y197743D01*
X62888Y197798D01*
X62823Y197842D01*
X62752Y197876D01*
X62676Y197898D01*
X62625Y197905D01*
X63470Y198750D01*
X63476Y198701D01*
X63499Y198625D01*
X63533Y198553D01*
X63578Y198488D01*
X63632Y198430D01*
X63695Y198382D01*
X63764Y198344D01*
X63839Y198317D01*
X63917Y198303D01*
X63996Y198301D01*
X64075Y198311D01*
X64151Y198333D01*
X64222Y198369D01*
X64499Y198515D01*
X64790Y198631D01*
X65008Y198695D01*
Y192329D01*
G37*
G36*
Y182329D02*X64790Y182392D01*
X64499Y182509D01*
X64220Y182652D01*
X64150Y182687D01*
X64074Y182709D01*
X63996Y182719D01*
X63918Y182717D01*
X63840Y182703D01*
X63766Y182676D01*
X63697Y182639D01*
X63635Y182591D01*
X63580Y182533D01*
X63536Y182469D01*
X63502Y182397D01*
X63480Y182322D01*
X63470Y182244D01*
X63472Y182165D01*
X63486Y182088D01*
X63513Y182014D01*
X63514Y182012D01*
X63051D01*
X62992Y182016D01*
X62757Y181998D01*
X62527Y181943D01*
X62309Y181852D01*
X62108Y181729D01*
X62108Y181729D01*
X61928Y181576D01*
X61890Y181531D01*
X58587Y178228D01*
Y184024D01*
X62050Y187488D01*
X61948Y187296D01*
X61797Y186916D01*
X61682Y186524D01*
X61605Y186123D01*
X61566Y185716D01*
Y185308D01*
X61605Y184901D01*
X61682Y184499D01*
X61797Y184107D01*
X61948Y183728D01*
X62135Y183364D01*
X62180Y183299D01*
X62234Y183241D01*
X62297Y183193D01*
X62367Y183155D01*
X62441Y183128D01*
X62519Y183114D01*
X62598Y183112D01*
X62677Y183122D01*
X62753Y183144D01*
X62825Y183178D01*
X62890Y183223D01*
X62948Y183278D01*
X62996Y183341D01*
X63034Y183410D01*
X63061Y183485D01*
X63075Y183563D01*
X63077Y183642D01*
X63067Y183721D01*
X63045Y183797D01*
X63009Y183868D01*
X62863Y184144D01*
X62747Y184435D01*
X62659Y184736D01*
X62600Y185043D01*
X62570Y185355D01*
Y185668D01*
X62600Y185980D01*
X62659Y186288D01*
X62747Y186588D01*
X62863Y186879D01*
X63006Y187158D01*
X63041Y187228D01*
X63063Y187304D01*
X63074Y187382D01*
X63071Y187460D01*
X63057Y187538D01*
X63031Y187612D01*
X62993Y187681D01*
X62945Y187743D01*
X62888Y187798D01*
X62823Y187842D01*
X62752Y187876D01*
X62676Y187898D01*
X62598Y187908D01*
X62520Y187906D01*
X62457Y187894D01*
X63479Y188917D01*
X63468Y188859D01*
X63466Y188780D01*
X63476Y188701D01*
X63499Y188625D01*
X63533Y188553D01*
X63578Y188488D01*
X63632Y188430D01*
X63695Y188382D01*
X63764Y188344D01*
X63839Y188317D01*
X63917Y188303D01*
X63996Y188301D01*
X64075Y188311D01*
X64151Y188333D01*
X64222Y188369D01*
X64499Y188515D01*
X64790Y188631D01*
X65008Y188695D01*
Y182329D01*
G37*
G36*
Y172329D02*X64790Y172392D01*
X64499Y172509D01*
X64220Y172652D01*
X64150Y172687D01*
X64074Y172709D01*
X63996Y172719D01*
X63918Y172717D01*
X63840Y172703D01*
X63766Y172676D01*
X63697Y172639D01*
X63635Y172591D01*
X63580Y172533D01*
X63536Y172469D01*
X63502Y172397D01*
X63480Y172322D01*
X63470Y172244D01*
X63472Y172165D01*
X63486Y172088D01*
X63513Y172014D01*
X63535Y171972D01*
X63248D01*
X63189Y171977D01*
X62954Y171959D01*
X62724Y171903D01*
X62506Y171813D01*
X62305Y171690D01*
X62304Y171690D01*
X62125Y171536D01*
X62087Y171492D01*
X54650Y164054D01*
Y164733D01*
X60074Y170158D01*
X60119Y170196D01*
X60272Y170375D01*
X60272Y170375D01*
X60396Y170577D01*
X60486Y170795D01*
X60541Y171024D01*
X60560Y171260D01*
X60555Y171319D01*
Y175953D01*
X62006Y177404D01*
X61948Y177296D01*
X61797Y176916D01*
X61682Y176524D01*
X61605Y176123D01*
X61566Y175716D01*
Y175308D01*
X61605Y174901D01*
X61682Y174499D01*
X61797Y174107D01*
X61948Y173728D01*
X62135Y173364D01*
X62180Y173299D01*
X62234Y173241D01*
X62297Y173193D01*
X62367Y173155D01*
X62441Y173128D01*
X62519Y173114D01*
X62598Y173112D01*
X62677Y173122D01*
X62753Y173144D01*
X62825Y173178D01*
X62890Y173223D01*
X62948Y173278D01*
X62996Y173341D01*
X63034Y173410D01*
X63061Y173485D01*
X63075Y173563D01*
X63077Y173642D01*
X63067Y173721D01*
X63045Y173797D01*
X63009Y173868D01*
X62863Y174144D01*
X62747Y174435D01*
X62659Y174736D01*
X62600Y175043D01*
X62570Y175355D01*
Y175668D01*
X62600Y175980D01*
X62659Y176288D01*
X62747Y176588D01*
X62863Y176879D01*
X63006Y177158D01*
X63041Y177228D01*
X63063Y177304D01*
X63074Y177382D01*
X63071Y177460D01*
X63057Y177538D01*
X63031Y177612D01*
X62993Y177681D01*
X62945Y177743D01*
X62888Y177798D01*
X62823Y177842D01*
X62752Y177876D01*
X62676Y177898D01*
X62598Y177908D01*
X62520Y177906D01*
X62505Y177903D01*
X63470Y178868D01*
X63468Y178859D01*
X63466Y178780D01*
X63476Y178701D01*
X63499Y178625D01*
X63533Y178553D01*
X63578Y178488D01*
X63632Y178430D01*
X63695Y178382D01*
X63764Y178344D01*
X63839Y178317D01*
X63917Y178303D01*
X63996Y178301D01*
X64075Y178311D01*
X64151Y178333D01*
X64222Y178369D01*
X64499Y178515D01*
X64790Y178631D01*
X65008Y178695D01*
Y172329D01*
G37*
G36*
Y162329D02*X64790Y162392D01*
X64499Y162509D01*
X64220Y162652D01*
X64150Y162687D01*
X64074Y162709D01*
X63996Y162719D01*
X63918Y162717D01*
X63840Y162703D01*
X63766Y162676D01*
X63697Y162639D01*
X63635Y162591D01*
X63580Y162533D01*
X63536Y162469D01*
X63502Y162397D01*
X63480Y162322D01*
X63470Y162244D01*
X63472Y162165D01*
X63486Y162088D01*
X63513Y162014D01*
X63550Y161945D01*
X63559Y161933D01*
X63051D01*
X62992Y161938D01*
X62757Y161919D01*
X62527Y161864D01*
X62309Y161774D01*
X62108Y161650D01*
X62108Y161650D01*
X61928Y161497D01*
X61890Y161452D01*
X56618Y156180D01*
Y161780D01*
X61825Y166987D01*
X61797Y166916D01*
X61682Y166524D01*
X61605Y166123D01*
X61566Y165716D01*
Y165308D01*
X61605Y164901D01*
X61682Y164499D01*
X61797Y164107D01*
X61948Y163728D01*
X62135Y163364D01*
X62180Y163299D01*
X62234Y163241D01*
X62297Y163193D01*
X62367Y163155D01*
X62441Y163128D01*
X62519Y163114D01*
X62598Y163112D01*
X62677Y163122D01*
X62753Y163144D01*
X62825Y163178D01*
X62890Y163223D01*
X62948Y163278D01*
X62996Y163341D01*
X63034Y163410D01*
X63061Y163485D01*
X63075Y163563D01*
X63077Y163642D01*
X63067Y163721D01*
X63045Y163797D01*
X63009Y163868D01*
X62863Y164144D01*
X62747Y164435D01*
X62659Y164736D01*
X62600Y165043D01*
X62570Y165355D01*
Y165668D01*
X62600Y165980D01*
X62659Y166288D01*
X62747Y166588D01*
X62863Y166879D01*
X63006Y167158D01*
X63041Y167228D01*
X63063Y167304D01*
X63074Y167382D01*
X63071Y167460D01*
X63057Y167538D01*
X63031Y167612D01*
X62993Y167681D01*
X62945Y167743D01*
X62888Y167798D01*
X62823Y167842D01*
X62752Y167876D01*
X62722Y167884D01*
X63490Y168653D01*
X63499Y168625D01*
X63533Y168553D01*
X63578Y168488D01*
X63632Y168430D01*
X63695Y168382D01*
X63764Y168344D01*
X63839Y168317D01*
X63917Y168303D01*
X63996Y168301D01*
X64075Y168311D01*
X64151Y168333D01*
X64222Y168369D01*
X64499Y168515D01*
X64790Y168631D01*
X65008Y168695D01*
Y162329D01*
G37*
G36*
Y152329D02*X64790Y152392D01*
X64499Y152509D01*
X64220Y152652D01*
X64150Y152687D01*
X64074Y152709D01*
X63996Y152719D01*
X63918Y152717D01*
X63840Y152703D01*
X63766Y152676D01*
X63697Y152639D01*
X63635Y152591D01*
X63580Y152533D01*
X63536Y152469D01*
X63502Y152397D01*
X63480Y152322D01*
X63470Y152244D01*
X63472Y152165D01*
X63486Y152091D01*
X63051D01*
X62992Y152095D01*
X62757Y152077D01*
X62527Y152022D01*
X62309Y151931D01*
X62108Y151808D01*
X62108Y151808D01*
X61928Y151654D01*
X61890Y151610D01*
X58587Y148306D01*
Y153906D01*
X61930Y157249D01*
X61797Y156916D01*
X61682Y156524D01*
X61605Y156123D01*
X61566Y155716D01*
Y155308D01*
X61605Y154901D01*
X61682Y154499D01*
X61797Y154107D01*
X61948Y153728D01*
X62135Y153364D01*
X62180Y153299D01*
X62234Y153241D01*
X62297Y153193D01*
X62367Y153155D01*
X62441Y153128D01*
X62519Y153114D01*
X62598Y153112D01*
X62677Y153122D01*
X62753Y153144D01*
X62825Y153178D01*
X62890Y153223D01*
X62948Y153278D01*
X62996Y153341D01*
X63034Y153410D01*
X63061Y153485D01*
X63075Y153563D01*
X63077Y153642D01*
X63067Y153721D01*
X63045Y153797D01*
X63009Y153868D01*
X62863Y154144D01*
X62747Y154435D01*
X62659Y154736D01*
X62600Y155043D01*
X62570Y155355D01*
Y155668D01*
X62600Y155980D01*
X62659Y156288D01*
X62747Y156588D01*
X62863Y156879D01*
X63006Y157158D01*
X63041Y157228D01*
X63063Y157304D01*
X63074Y157382D01*
X63071Y157460D01*
X63057Y157538D01*
X63031Y157612D01*
X62993Y157681D01*
X62945Y157743D01*
X62888Y157798D01*
X62823Y157842D01*
X62752Y157876D01*
X62676Y157898D01*
X62598Y157908D01*
X62588Y157908D01*
X63466Y158786D01*
X63466Y158780D01*
X63476Y158701D01*
X63499Y158625D01*
X63533Y158553D01*
X63578Y158488D01*
X63632Y158430D01*
X63695Y158382D01*
X63764Y158344D01*
X63839Y158317D01*
X63917Y158303D01*
X63996Y158301D01*
X64075Y158311D01*
X64151Y158333D01*
X64222Y158369D01*
X64499Y158515D01*
X64790Y158631D01*
X65008Y158695D01*
Y152329D01*
G37*
G36*
Y142329D02*X64790Y142392D01*
X64499Y142509D01*
X64220Y142652D01*
X64150Y142687D01*
X64074Y142709D01*
X63996Y142719D01*
X63918Y142717D01*
X63840Y142703D01*
X63766Y142676D01*
X63697Y142639D01*
X63635Y142591D01*
X63580Y142533D01*
X63536Y142469D01*
X63502Y142397D01*
X63480Y142322D01*
X63470Y142244D01*
X63472Y142165D01*
X63486Y142088D01*
X63499Y142051D01*
X63051D01*
X62992Y142056D01*
X62757Y142037D01*
X62527Y141982D01*
X62309Y141892D01*
X62108Y141768D01*
X62108Y141768D01*
X61928Y141615D01*
X61890Y141570D01*
X60555Y140235D01*
Y146032D01*
X62094Y147571D01*
X61948Y147296D01*
X61797Y146916D01*
X61682Y146524D01*
X61605Y146123D01*
X61566Y145716D01*
Y145308D01*
X61605Y144901D01*
X61682Y144499D01*
X61797Y144107D01*
X61948Y143728D01*
X62135Y143364D01*
X62180Y143299D01*
X62234Y143241D01*
X62297Y143193D01*
X62367Y143155D01*
X62441Y143128D01*
X62519Y143114D01*
X62598Y143112D01*
X62677Y143122D01*
X62753Y143144D01*
X62825Y143178D01*
X62890Y143223D01*
X62948Y143278D01*
X62996Y143341D01*
X63034Y143410D01*
X63061Y143485D01*
X63075Y143563D01*
X63077Y143642D01*
X63067Y143721D01*
X63045Y143797D01*
X63009Y143868D01*
X62863Y144144D01*
X62747Y144435D01*
X62659Y144736D01*
X62600Y145043D01*
X62570Y145355D01*
Y145668D01*
X62600Y145980D01*
X62659Y146288D01*
X62747Y146588D01*
X62863Y146879D01*
X63006Y147158D01*
X63041Y147228D01*
X63063Y147304D01*
X63074Y147382D01*
X63071Y147460D01*
X63057Y147538D01*
X63031Y147612D01*
X62993Y147681D01*
X62945Y147743D01*
X62888Y147798D01*
X62823Y147842D01*
X62752Y147876D01*
X62676Y147898D01*
X62598Y147908D01*
X62520Y147906D01*
X62442Y147892D01*
X62399Y147876D01*
X63496Y148973D01*
X63483Y148937D01*
X63468Y148859D01*
X63466Y148780D01*
X63476Y148701D01*
X63499Y148625D01*
X63533Y148553D01*
X63578Y148488D01*
X63632Y148430D01*
X63695Y148382D01*
X63764Y148344D01*
X63839Y148317D01*
X63917Y148303D01*
X63996Y148301D01*
X64075Y148311D01*
X64151Y148333D01*
X64222Y148369D01*
X64499Y148515D01*
X64790Y148631D01*
X65008Y148695D01*
Y142329D01*
G37*
G36*
Y132329D02*X64790Y132392D01*
X64499Y132509D01*
X64220Y132652D01*
X64150Y132687D01*
X64074Y132709D01*
X63996Y132719D01*
X63918Y132717D01*
X63840Y132703D01*
X63766Y132676D01*
X63697Y132639D01*
X63635Y132591D01*
X63580Y132533D01*
X63536Y132469D01*
X63502Y132397D01*
X63480Y132322D01*
X63470Y132244D01*
X63472Y132165D01*
X63486Y132088D01*
X63513Y132014D01*
X63514Y132012D01*
X63051D01*
X62992Y132016D01*
X62757Y131998D01*
X62720Y131989D01*
Y133135D01*
X62753Y133144D01*
X62825Y133178D01*
X62890Y133223D01*
X62948Y133278D01*
X62996Y133341D01*
X63034Y133410D01*
X63061Y133485D01*
X63075Y133563D01*
X63077Y133642D01*
X63067Y133721D01*
X63045Y133797D01*
X63009Y133868D01*
X62863Y134144D01*
X62747Y134435D01*
X62720Y134525D01*
Y136499D01*
X62747Y136588D01*
X62863Y136879D01*
X63006Y137158D01*
X63041Y137228D01*
X63063Y137304D01*
X63074Y137382D01*
X63071Y137460D01*
X63057Y137538D01*
X63031Y137612D01*
X62993Y137681D01*
X62945Y137743D01*
X62888Y137798D01*
X62823Y137842D01*
X62752Y137876D01*
X62720Y137885D01*
Y138158D01*
X63479Y138917D01*
X63468Y138859D01*
X63466Y138780D01*
X63476Y138701D01*
X63499Y138625D01*
X63533Y138553D01*
X63578Y138488D01*
X63632Y138430D01*
X63695Y138382D01*
X63764Y138344D01*
X63839Y138317D01*
X63917Y138303D01*
X63996Y138301D01*
X64075Y138311D01*
X64151Y138333D01*
X64222Y138369D01*
X64499Y138515D01*
X64790Y138631D01*
X65008Y138695D01*
Y132329D01*
G37*
G36*
Y122329D02*X64790Y122392D01*
X64499Y122509D01*
X64220Y122652D01*
X64150Y122687D01*
X64074Y122709D01*
X63996Y122719D01*
X63918Y122717D01*
X63840Y122703D01*
X63766Y122676D01*
X63697Y122639D01*
X63635Y122591D01*
X63580Y122533D01*
X63536Y122469D01*
X63502Y122397D01*
X63480Y122322D01*
X63470Y122244D01*
X63472Y122165D01*
X63486Y122088D01*
X63513Y122014D01*
X63535Y121972D01*
X63051D01*
X62992Y121977D01*
X62757Y121959D01*
X62527Y121903D01*
X62309Y121813D01*
X62108Y121690D01*
X62108Y121690D01*
X61928Y121536D01*
X61890Y121492D01*
X56618Y116220D01*
Y122016D01*
X62006Y127404D01*
X61948Y127296D01*
X61797Y126916D01*
X61682Y126524D01*
X61605Y126123D01*
X61566Y125716D01*
Y125308D01*
X61605Y124901D01*
X61682Y124499D01*
X61797Y124107D01*
X61948Y123728D01*
X62135Y123364D01*
X62180Y123299D01*
X62234Y123241D01*
X62297Y123193D01*
X62367Y123155D01*
X62441Y123128D01*
X62519Y123114D01*
X62598Y123112D01*
X62677Y123122D01*
X62753Y123144D01*
X62825Y123178D01*
X62890Y123223D01*
X62948Y123278D01*
X62996Y123341D01*
X63034Y123410D01*
X63061Y123485D01*
X63075Y123563D01*
X63077Y123642D01*
X63067Y123721D01*
X63045Y123797D01*
X63009Y123868D01*
X62863Y124144D01*
X62747Y124435D01*
X62659Y124736D01*
X62600Y125043D01*
X62570Y125355D01*
Y125668D01*
X62600Y125980D01*
X62659Y126288D01*
X62747Y126588D01*
X62863Y126879D01*
X63006Y127158D01*
X63041Y127228D01*
X63063Y127304D01*
X63074Y127382D01*
X63071Y127460D01*
X63057Y127538D01*
X63031Y127612D01*
X62993Y127681D01*
X62945Y127743D01*
X62888Y127798D01*
X62823Y127842D01*
X62752Y127876D01*
X62676Y127898D01*
X62598Y127908D01*
X62520Y127906D01*
X62505Y127903D01*
X63470Y128868D01*
X63468Y128859D01*
X63466Y128780D01*
X63476Y128701D01*
X63499Y128625D01*
X63533Y128553D01*
X63578Y128488D01*
X63632Y128430D01*
X63695Y128382D01*
X63764Y128344D01*
X63839Y128317D01*
X63917Y128303D01*
X63996Y128301D01*
X64075Y128311D01*
X64151Y128333D01*
X64222Y128369D01*
X64499Y128515D01*
X64790Y128631D01*
X65008Y128695D01*
Y122329D01*
G37*
G36*
Y112329D02*X64790Y112392D01*
X64499Y112509D01*
X64220Y112652D01*
X64150Y112687D01*
X64074Y112709D01*
X63996Y112719D01*
X63918Y112717D01*
X63840Y112703D01*
X63766Y112676D01*
X63697Y112639D01*
X63635Y112591D01*
X63580Y112533D01*
X63536Y112469D01*
X63502Y112397D01*
X63480Y112322D01*
X63470Y112244D01*
X63472Y112165D01*
X63478Y112130D01*
X63051D01*
X62992Y112135D01*
X62757Y112116D01*
X62527Y112061D01*
X62309Y111971D01*
X62108Y111847D01*
X62108Y111847D01*
X61928Y111694D01*
X61890Y111649D01*
X58587Y108346D01*
Y113946D01*
X61961Y117320D01*
X61948Y117296D01*
X61797Y116916D01*
X61682Y116524D01*
X61605Y116123D01*
X61566Y115716D01*
Y115308D01*
X61605Y114901D01*
X61682Y114499D01*
X61797Y114107D01*
X61948Y113728D01*
X62135Y113364D01*
X62180Y113299D01*
X62234Y113241D01*
X62297Y113193D01*
X62367Y113155D01*
X62441Y113128D01*
X62519Y113114D01*
X62598Y113112D01*
X62677Y113122D01*
X62753Y113144D01*
X62825Y113178D01*
X62890Y113223D01*
X62948Y113278D01*
X62996Y113341D01*
X63034Y113410D01*
X63061Y113485D01*
X63075Y113563D01*
X63077Y113642D01*
X63067Y113721D01*
X63045Y113797D01*
X63009Y113868D01*
X62863Y114144D01*
X62747Y114435D01*
X62659Y114736D01*
X62600Y115043D01*
X62570Y115355D01*
Y115668D01*
X62600Y115980D01*
X62659Y116288D01*
X62747Y116588D01*
X62863Y116879D01*
X63006Y117158D01*
X63041Y117228D01*
X63063Y117304D01*
X63074Y117382D01*
X63071Y117460D01*
X63057Y117538D01*
X63031Y117612D01*
X62993Y117681D01*
X62945Y117743D01*
X62888Y117798D01*
X62823Y117842D01*
X62752Y117876D01*
X62676Y117898D01*
X62598Y117908D01*
X62548Y117907D01*
X63467Y118826D01*
X63466Y118780D01*
X63476Y118701D01*
X63499Y118625D01*
X63533Y118553D01*
X63578Y118488D01*
X63632Y118430D01*
X63695Y118382D01*
X63764Y118344D01*
X63839Y118317D01*
X63917Y118303D01*
X63996Y118301D01*
X64075Y118311D01*
X64151Y118333D01*
X64222Y118369D01*
X64499Y118515D01*
X64790Y118631D01*
X65008Y118695D01*
Y112329D01*
G37*
G36*
Y102329D02*X64790Y102392D01*
X64499Y102509D01*
X64220Y102652D01*
X64150Y102687D01*
X64074Y102709D01*
X63996Y102719D01*
X63918Y102717D01*
X63840Y102703D01*
X63766Y102676D01*
X63697Y102639D01*
X63635Y102591D01*
X63580Y102533D01*
X63536Y102469D01*
X63502Y102397D01*
X63480Y102322D01*
X63470Y102244D01*
X63472Y102165D01*
X63486Y102091D01*
X63051D01*
X62992Y102095D01*
X62757Y102077D01*
X62527Y102022D01*
X62309Y101931D01*
X62108Y101808D01*
X62108Y101808D01*
X61928Y101654D01*
X61890Y101610D01*
X60555Y100275D01*
Y106072D01*
X62138Y107655D01*
X61948Y107296D01*
X61797Y106916D01*
X61682Y106524D01*
X61605Y106123D01*
X61566Y105716D01*
Y105308D01*
X61605Y104901D01*
X61682Y104499D01*
X61797Y104107D01*
X61948Y103728D01*
X62135Y103364D01*
X62180Y103299D01*
X62234Y103241D01*
X62297Y103193D01*
X62367Y103155D01*
X62441Y103128D01*
X62519Y103114D01*
X62598Y103112D01*
X62677Y103122D01*
X62753Y103144D01*
X62825Y103178D01*
X62890Y103223D01*
X62948Y103278D01*
X62996Y103341D01*
X63034Y103410D01*
X63061Y103485D01*
X63075Y103563D01*
X63077Y103642D01*
X63067Y103721D01*
X63045Y103797D01*
X63009Y103868D01*
X62863Y104144D01*
X62747Y104435D01*
X62659Y104736D01*
X62600Y105043D01*
X62570Y105355D01*
Y105668D01*
X62600Y105980D01*
X62659Y106288D01*
X62747Y106588D01*
X62863Y106879D01*
X63006Y107158D01*
X63041Y107228D01*
X63063Y107304D01*
X63074Y107382D01*
X63071Y107460D01*
X63057Y107538D01*
X63031Y107612D01*
X62993Y107681D01*
X62945Y107743D01*
X62888Y107798D01*
X62823Y107842D01*
X62752Y107876D01*
X62676Y107898D01*
X62598Y107908D01*
X62520Y107906D01*
X62442Y107892D01*
X62368Y107865D01*
X62326Y107842D01*
X63526Y109043D01*
X63509Y109011D01*
X63483Y108937D01*
X63468Y108859D01*
X63466Y108780D01*
X63476Y108701D01*
X63499Y108625D01*
X63533Y108553D01*
X63578Y108488D01*
X63632Y108430D01*
X63695Y108382D01*
X63764Y108344D01*
X63839Y108317D01*
X63917Y108303D01*
X63996Y108301D01*
X64075Y108311D01*
X64151Y108333D01*
X64222Y108369D01*
X64499Y108515D01*
X64790Y108631D01*
X65008Y108695D01*
Y102329D01*
G37*
G36*
X50126Y294760D02*X58996D01*
X59055Y294755D01*
X59290Y294774D01*
X59290Y294774D01*
X59520Y294829D01*
X59738Y294919D01*
X59940Y295043D01*
X60119Y295196D01*
X60157Y295241D01*
X65008Y300091D01*
Y246579D01*
X55177D01*
X55118Y246583D01*
X54883Y246565D01*
X54653Y246510D01*
X54435Y246419D01*
X54234Y246296D01*
X54234Y246296D01*
X54054Y246143D01*
X54016Y246098D01*
X52131Y244212D01*
X52086Y244174D01*
X51932Y243995D01*
X51809Y243793D01*
X51719Y243575D01*
X51664Y243346D01*
X51663Y243345D01*
X51645Y243110D01*
X51650Y243052D01*
Y209283D01*
X50560Y208193D01*
X50044D01*
X49834Y208700D01*
X49414Y209385D01*
X48893Y209995D01*
X48283Y210517D01*
X47598Y210936D01*
X46856Y211243D01*
X46296Y211378D01*
X46856Y211513D01*
X47598Y211820D01*
X48283Y212239D01*
X48893Y212761D01*
X49414Y213371D01*
X49834Y214055D01*
X50141Y214797D01*
X50328Y215578D01*
X50376Y216378D01*
X50328Y217178D01*
X50141Y217959D01*
X49834Y218700D01*
X49414Y219385D01*
X48893Y219995D01*
X48283Y220517D01*
X47598Y220936D01*
X46856Y221243D01*
X46673Y221287D01*
X49111Y221292D01*
X49341Y221347D01*
X49559Y221437D01*
X49760Y221561D01*
X49940Y221714D01*
X50093Y221894D01*
X50216Y222095D01*
X50307Y222313D01*
X50362Y222543D01*
X50376Y222778D01*
X50362Y230213D01*
X50307Y230443D01*
X50216Y230661D01*
X50093Y230862D01*
X49940Y231042D01*
X49760Y231195D01*
X49559Y231319D01*
X49341Y231409D01*
X49111Y231464D01*
X48876Y231478D01*
X46695Y231474D01*
X46856Y231513D01*
X47598Y231820D01*
X48283Y232239D01*
X48893Y232761D01*
X49414Y233371D01*
X49834Y234055D01*
X50141Y234797D01*
X50328Y235578D01*
X50376Y236378D01*
X50328Y237178D01*
X50141Y237959D01*
X49834Y238700D01*
X49414Y239385D01*
X48893Y239995D01*
X48283Y240517D01*
X47598Y240936D01*
X46856Y241243D01*
X46296Y241378D01*
X46856Y241513D01*
X47598Y241820D01*
X48283Y242239D01*
X48893Y242761D01*
X49414Y243371D01*
X49834Y244055D01*
X50141Y244797D01*
X50328Y245578D01*
X50376Y246378D01*
X50328Y247178D01*
X50141Y247959D01*
X49834Y248700D01*
X49414Y249385D01*
X48893Y249995D01*
X48283Y250517D01*
X47598Y250936D01*
X46856Y251243D01*
X46296Y251378D01*
X46856Y251513D01*
X47598Y251820D01*
X48283Y252239D01*
X48893Y252761D01*
X49414Y253371D01*
X49834Y254055D01*
X50141Y254797D01*
X50328Y255578D01*
X50376Y256378D01*
X50328Y257178D01*
X50141Y257959D01*
X49834Y258700D01*
X49414Y259385D01*
X48893Y259995D01*
X48283Y260517D01*
X47598Y260936D01*
X46856Y261243D01*
X46296Y261378D01*
X46856Y261513D01*
X47598Y261820D01*
X48283Y262239D01*
X48893Y262761D01*
X49414Y263371D01*
X49834Y264055D01*
X50141Y264797D01*
X50328Y265578D01*
X50376Y266378D01*
X50328Y267178D01*
X50141Y267959D01*
X49834Y268700D01*
X49414Y269385D01*
X48893Y269995D01*
X48283Y270517D01*
X47598Y270936D01*
X46856Y271243D01*
X46296Y271378D01*
X46856Y271513D01*
X47598Y271820D01*
X48283Y272239D01*
X48893Y272761D01*
X49414Y273371D01*
X49834Y274055D01*
X50141Y274797D01*
X50328Y275578D01*
X50376Y276378D01*
X50328Y277178D01*
X50141Y277959D01*
X49834Y278700D01*
X49414Y279385D01*
X48893Y279995D01*
X48283Y280517D01*
X47598Y280936D01*
X46856Y281243D01*
X46296Y281378D01*
X46856Y281513D01*
X47598Y281820D01*
X48283Y282239D01*
X48893Y282761D01*
X49414Y283371D01*
X49834Y284055D01*
X50141Y284797D01*
X50328Y285578D01*
X50376Y286378D01*
X50328Y287178D01*
X50141Y287959D01*
X49834Y288700D01*
X49414Y289385D01*
X48893Y289995D01*
X48283Y290517D01*
X47598Y290936D01*
X46856Y291243D01*
X46296Y291378D01*
X46856Y291513D01*
X47598Y291820D01*
X48283Y292239D01*
X48893Y292761D01*
X49414Y293371D01*
X49834Y294055D01*
X50126Y294760D01*
G37*
G36*
X62322Y77988D02*X62364Y78057D01*
X62455Y78275D01*
X62510Y78505D01*
X62528Y78740D01*
X62524Y78799D01*
Y83114D01*
X62598Y83112D01*
X62677Y83122D01*
X62753Y83144D01*
X62825Y83178D01*
X62890Y83223D01*
X62948Y83278D01*
X62996Y83341D01*
X63034Y83410D01*
X63061Y83485D01*
X63075Y83563D01*
X63077Y83642D01*
X63067Y83721D01*
X63045Y83797D01*
X63009Y83868D01*
X62863Y84144D01*
X62747Y84435D01*
X62659Y84736D01*
X62600Y85043D01*
X62570Y85355D01*
Y85668D01*
X62600Y85980D01*
X62659Y86288D01*
X62747Y86588D01*
X62863Y86879D01*
X63006Y87158D01*
X63041Y87228D01*
X63063Y87304D01*
X63074Y87382D01*
X63071Y87460D01*
X63057Y87538D01*
X63031Y87612D01*
X62993Y87681D01*
X62945Y87743D01*
X62888Y87798D01*
X62823Y87842D01*
X62752Y87876D01*
X62676Y87898D01*
X62598Y87908D01*
X62524Y87906D01*
Y93114D01*
X62598Y93112D01*
X62677Y93122D01*
X62753Y93144D01*
X62825Y93178D01*
X62890Y93223D01*
X62948Y93278D01*
X62996Y93341D01*
X63034Y93410D01*
X63061Y93485D01*
X63075Y93563D01*
X63077Y93642D01*
X63067Y93721D01*
X63045Y93797D01*
X63009Y93868D01*
X62863Y94144D01*
X62747Y94435D01*
X62659Y94736D01*
X62600Y95043D01*
X62570Y95355D01*
Y95668D01*
X62600Y95980D01*
X62659Y96288D01*
X62747Y96588D01*
X62863Y96879D01*
X63006Y97158D01*
X63041Y97228D01*
X63063Y97304D01*
X63074Y97382D01*
X63071Y97460D01*
X63057Y97538D01*
X63031Y97612D01*
X62993Y97681D01*
X62945Y97743D01*
X62888Y97798D01*
X62823Y97842D01*
X62752Y97876D01*
X62676Y97898D01*
X62598Y97908D01*
X62524Y97906D01*
Y98001D01*
X63496Y98973D01*
X63483Y98937D01*
X63468Y98859D01*
X63466Y98780D01*
X63476Y98701D01*
X63499Y98625D01*
X63533Y98553D01*
X63578Y98488D01*
X63632Y98430D01*
X63695Y98382D01*
X63764Y98344D01*
X63839Y98317D01*
X63917Y98303D01*
X63996Y98301D01*
X64075Y98311D01*
X64151Y98333D01*
X64222Y98369D01*
X64499Y98515D01*
X64790Y98631D01*
X65008Y98695D01*
Y92329D01*
X64790Y92392D01*
X64499Y92509D01*
X64220Y92652D01*
X64150Y92687D01*
X64074Y92709D01*
X63996Y92719D01*
X63918Y92717D01*
X63840Y92703D01*
X63766Y92676D01*
X63697Y92639D01*
X63635Y92591D01*
X63580Y92533D01*
X63536Y92469D01*
X63502Y92397D01*
X63480Y92322D01*
X63470Y92244D01*
X63472Y92165D01*
X63486Y92088D01*
X63513Y92014D01*
X63550Y91945D01*
X63598Y91882D01*
X63656Y91828D01*
X63721Y91785D01*
X64082Y91594D01*
X64462Y91443D01*
X64854Y91328D01*
X65008Y91298D01*
Y89726D01*
X64854Y89696D01*
X64462Y89581D01*
X64082Y89430D01*
X63719Y89243D01*
X63653Y89198D01*
X63596Y89144D01*
X63547Y89081D01*
X63509Y89011D01*
X63483Y88937D01*
X63468Y88859D01*
X63466Y88780D01*
X63476Y88701D01*
X63499Y88625D01*
X63533Y88553D01*
X63578Y88488D01*
X63632Y88430D01*
X63695Y88382D01*
X63764Y88344D01*
X63839Y88317D01*
X63917Y88303D01*
X63996Y88301D01*
X64075Y88311D01*
X64151Y88333D01*
X64222Y88369D01*
X64499Y88515D01*
X64790Y88631D01*
X65008Y88695D01*
Y82329D01*
X64790Y82392D01*
X64499Y82509D01*
X64220Y82652D01*
X64150Y82687D01*
X64074Y82709D01*
X63996Y82719D01*
X63918Y82717D01*
X63840Y82703D01*
X63766Y82676D01*
X63697Y82639D01*
X63635Y82591D01*
X63580Y82533D01*
X63536Y82469D01*
X63502Y82397D01*
X63480Y82322D01*
X63470Y82244D01*
X63472Y82165D01*
X63486Y82088D01*
X63513Y82014D01*
X63550Y81945D01*
X63598Y81882D01*
X63656Y81828D01*
X63721Y81785D01*
X64082Y81594D01*
X64462Y81443D01*
X64854Y81328D01*
X65008Y81298D01*
Y79726D01*
X64854Y79696D01*
X64462Y79581D01*
X64082Y79430D01*
X63719Y79243D01*
X63653Y79198D01*
X63596Y79144D01*
X63547Y79081D01*
X63509Y79011D01*
X63483Y78937D01*
X63468Y78859D01*
X63466Y78780D01*
X63476Y78701D01*
X63499Y78625D01*
X63533Y78553D01*
X63578Y78488D01*
X63632Y78430D01*
X63695Y78382D01*
X63764Y78344D01*
X63839Y78317D01*
X63917Y78303D01*
X63996Y78301D01*
X64075Y78311D01*
X64151Y78333D01*
X64222Y78369D01*
X64499Y78515D01*
X64790Y78631D01*
X65008Y78695D01*
Y72329D01*
X64790Y72392D01*
X64499Y72509D01*
X64220Y72652D01*
X64150Y72687D01*
X64074Y72709D01*
X63996Y72719D01*
X63918Y72717D01*
X63840Y72703D01*
X63766Y72676D01*
X63697Y72639D01*
X63635Y72591D01*
X63580Y72533D01*
X63536Y72469D01*
X63502Y72397D01*
X63480Y72322D01*
X63470Y72244D01*
X63472Y72165D01*
X63486Y72088D01*
X63513Y72014D01*
X63550Y71945D01*
X63598Y71882D01*
X63656Y71828D01*
X63721Y71785D01*
X64082Y71594D01*
X64462Y71443D01*
X64854Y71328D01*
X65008Y71298D01*
Y39370D01*
X62322D01*
Y73179D01*
X62367Y73155D01*
X62441Y73128D01*
X62519Y73114D01*
X62598Y73112D01*
X62677Y73122D01*
X62753Y73144D01*
X62825Y73178D01*
X62890Y73223D01*
X62948Y73278D01*
X62996Y73341D01*
X63034Y73410D01*
X63061Y73485D01*
X63075Y73563D01*
X63077Y73642D01*
X63067Y73721D01*
X63045Y73797D01*
X63009Y73868D01*
X62863Y74144D01*
X62747Y74435D01*
X62659Y74736D01*
X62600Y75043D01*
X62570Y75355D01*
Y75668D01*
X62600Y75980D01*
X62659Y76288D01*
X62747Y76588D01*
X62863Y76879D01*
X63006Y77158D01*
X63041Y77228D01*
X63063Y77304D01*
X63074Y77382D01*
X63071Y77460D01*
X63057Y77538D01*
X63031Y77612D01*
X62993Y77681D01*
X62945Y77743D01*
X62888Y77798D01*
X62823Y77842D01*
X62752Y77876D01*
X62676Y77898D01*
X62598Y77908D01*
X62520Y77906D01*
X62442Y77892D01*
X62368Y77865D01*
X62322Y77840D01*
Y77988D01*
G37*
G36*
X49418Y73376D02*X49834Y74055D01*
X50141Y74797D01*
X50160Y74878D01*
X58603D01*
X58661Y74873D01*
X58897Y74892D01*
X58897Y74892D01*
X59126Y74947D01*
X59345Y75037D01*
X59546Y75161D01*
X59725Y75314D01*
X59764Y75359D01*
X62043Y77638D01*
X62088Y77676D01*
X62241Y77856D01*
X62241Y77856D01*
X62322Y77988D01*
Y77840D01*
X62299Y77828D01*
X62237Y77780D01*
X62182Y77722D01*
X62139Y77657D01*
X61948Y77296D01*
X61797Y76916D01*
X61682Y76524D01*
X61605Y76123D01*
X61566Y75716D01*
Y75308D01*
X61605Y74901D01*
X61682Y74499D01*
X61797Y74107D01*
X61948Y73728D01*
X62135Y73364D01*
X62180Y73299D01*
X62234Y73241D01*
X62297Y73193D01*
X62322Y73179D01*
Y39370D01*
X49418D01*
Y73376D01*
G37*
G36*
Y333376D02*X49834Y334055D01*
X50141Y334797D01*
X50328Y335578D01*
X50376Y336378D01*
X50328Y337178D01*
X50141Y337959D01*
X49834Y338700D01*
X49418Y339379D01*
Y343376D01*
X49834Y344055D01*
X50141Y344797D01*
X50179Y344957D01*
X51122D01*
X51181Y344952D01*
X51416Y344971D01*
X51416Y344971D01*
X51646Y345026D01*
X51864Y345116D01*
X52066Y345239D01*
X52245Y345393D01*
X52283Y345438D01*
X54169Y347323D01*
X54214Y347361D01*
X54367Y347541D01*
X54367Y347541D01*
X54490Y347742D01*
X54581Y347960D01*
X54636Y348190D01*
X54654Y348425D01*
X54650Y348484D01*
Y350757D01*
X59584Y355691D01*
X59627Y355673D01*
X60239Y355526D01*
X60867Y355476D01*
X61495Y355526D01*
X62107Y355673D01*
X62689Y355914D01*
X63225Y356243D01*
X63704Y356651D01*
X64113Y357130D01*
X64442Y357667D01*
X64477Y357752D01*
X65008D01*
Y342626D01*
X64865Y342768D01*
X64858Y347646D01*
X64821Y347799D01*
X64761Y347944D01*
X64679Y348078D01*
X64576Y348198D01*
X64457Y348300D01*
X64322Y348382D01*
X64177Y348443D01*
X64024Y348479D01*
X63867Y348489D01*
X57710Y348479D01*
X57557Y348443D01*
X57412Y348382D01*
X57277Y348300D01*
X57158Y348198D01*
X57055Y348078D01*
X56973Y347944D01*
X56913Y347799D01*
X56876Y347646D01*
X56867Y347489D01*
X56876Y341332D01*
X56913Y341179D01*
X56973Y341033D01*
X57055Y340899D01*
X57158Y340779D01*
X57277Y340677D01*
X57412Y340595D01*
X57557Y340535D01*
X57710Y340498D01*
X57867Y340489D01*
X62894Y340496D01*
X65008Y338383D01*
Y304334D01*
X58434Y297760D01*
X50189D01*
X50141Y297959D01*
X49834Y298700D01*
X49418Y299379D01*
Y303376D01*
X49834Y304055D01*
X50060Y304602D01*
X58012D01*
X58071Y304598D01*
X58306Y304616D01*
X58306Y304616D01*
X58536Y304671D01*
X58754Y304762D01*
X58955Y304885D01*
X59135Y305038D01*
X59173Y305083D01*
X62043Y307953D01*
X62088Y307991D01*
X62241Y308171D01*
X62241Y308171D01*
X62364Y308372D01*
X62455Y308590D01*
X62510Y308820D01*
X62528Y309055D01*
X62524Y309114D01*
Y325845D01*
X62689Y325914D01*
X63225Y326243D01*
X63704Y326651D01*
X64113Y327130D01*
X64442Y327667D01*
X64683Y328249D01*
X64830Y328861D01*
X64867Y329489D01*
X64830Y330116D01*
X64683Y330728D01*
X64442Y331310D01*
X64113Y331847D01*
X63704Y332326D01*
X63225Y332735D01*
X62689Y333064D01*
X62107Y333305D01*
X61495Y333452D01*
X60867Y333501D01*
X60239Y333452D01*
X59627Y333305D01*
X59045Y333064D01*
X58509Y332735D01*
X58030Y332326D01*
X57621Y331847D01*
X57292Y331310D01*
X57051Y330728D01*
X56904Y330116D01*
X56855Y329489D01*
X56904Y328861D01*
X57051Y328249D01*
X57292Y327667D01*
X57621Y327130D01*
X58030Y326651D01*
X58509Y326243D01*
X59045Y325914D01*
X59524Y325715D01*
Y319002D01*
X59348Y319288D01*
X58940Y319766D01*
X58461Y320175D01*
X57924Y320504D01*
X57342Y320745D01*
X56730Y320892D01*
X56102Y320941D01*
X55475Y320892D01*
X54862Y320745D01*
X54281Y320504D01*
X53744Y320175D01*
X53265Y319766D01*
X52856Y319288D01*
X52790Y319179D01*
X49540D01*
X49418Y319379D01*
Y323802D01*
X49465Y323815D01*
X49572Y323863D01*
X49671Y323928D01*
X49758Y324007D01*
X49832Y324100D01*
X49889Y324203D01*
X50067Y324616D01*
X50203Y325044D01*
X50301Y325483D01*
X50361Y325929D01*
X50381Y326378D01*
X50361Y326827D01*
X50301Y327273D01*
X50203Y327712D01*
X50067Y328140D01*
X49893Y328555D01*
X49835Y328658D01*
X49761Y328751D01*
X49673Y328831D01*
X49574Y328896D01*
X49466Y328944D01*
X49418Y328957D01*
Y333376D01*
G37*
G36*
Y413386D02*X65008D01*
Y400872D01*
X49418D01*
Y413386D01*
G37*
G36*
Y299379D02*X49414Y299385D01*
X48893Y299995D01*
X48283Y300517D01*
X47598Y300936D01*
X46856Y301243D01*
X46296Y301378D01*
X46856Y301513D01*
X47598Y301820D01*
X48283Y302239D01*
X48893Y302761D01*
X49414Y303371D01*
X49418Y303376D01*
Y299379D01*
G37*
G36*
Y339379D02*X49414Y339385D01*
X48893Y339995D01*
X48283Y340517D01*
X47598Y340936D01*
X46856Y341243D01*
X46296Y341378D01*
X46856Y341513D01*
X47598Y341820D01*
X48283Y342239D01*
X48893Y342761D01*
X49414Y343371D01*
X49418Y343376D01*
Y339379D01*
G37*
G36*
X41134Y73376D02*X41137Y73371D01*
X41658Y72761D01*
X42269Y72239D01*
X42953Y71820D01*
X43695Y71513D01*
X44475Y71325D01*
X45276Y71262D01*
X46076Y71325D01*
X46856Y71513D01*
X47598Y71820D01*
X48283Y72239D01*
X48893Y72761D01*
X49414Y73371D01*
X49418Y73376D01*
Y39370D01*
X41134D01*
Y73376D01*
G37*
G36*
Y83376D02*X41137Y83371D01*
X41658Y82761D01*
X42269Y82239D01*
X42953Y81820D01*
X43695Y81513D01*
X44256Y81378D01*
X43695Y81243D01*
X42953Y80936D01*
X42269Y80517D01*
X41658Y79995D01*
X41137Y79385D01*
X41134Y79379D01*
Y83376D01*
G37*
G36*
Y93376D02*X41137Y93371D01*
X41658Y92761D01*
X42269Y92239D01*
X42953Y91820D01*
X43695Y91513D01*
X44256Y91378D01*
X43695Y91243D01*
X42953Y90936D01*
X42269Y90517D01*
X41658Y89995D01*
X41137Y89385D01*
X41134Y89379D01*
Y93376D01*
G37*
G36*
Y103376D02*X41137Y103371D01*
X41658Y102761D01*
X42269Y102239D01*
X42953Y101820D01*
X43695Y101513D01*
X44256Y101378D01*
X43695Y101243D01*
X42953Y100936D01*
X42269Y100517D01*
X41658Y99995D01*
X41137Y99385D01*
X41134Y99379D01*
Y103376D01*
G37*
G36*
Y113376D02*X41137Y113371D01*
X41658Y112761D01*
X42269Y112239D01*
X42953Y111820D01*
X43695Y111513D01*
X44256Y111378D01*
X43695Y111243D01*
X42953Y110936D01*
X42269Y110517D01*
X41658Y109995D01*
X41137Y109385D01*
X41134Y109379D01*
Y113376D01*
G37*
G36*
Y123376D02*X41137Y123371D01*
X41658Y122761D01*
X42269Y122239D01*
X42953Y121820D01*
X43695Y121513D01*
X44256Y121378D01*
X43695Y121243D01*
X42953Y120936D01*
X42269Y120517D01*
X41658Y119995D01*
X41137Y119385D01*
X41134Y119379D01*
Y123376D01*
G37*
G36*
Y133376D02*X41137Y133371D01*
X41658Y132761D01*
X42269Y132239D01*
X42953Y131820D01*
X43695Y131513D01*
X44256Y131378D01*
X43695Y131243D01*
X42953Y130936D01*
X42269Y130517D01*
X41658Y129995D01*
X41137Y129385D01*
X41134Y129379D01*
Y133376D01*
G37*
G36*
Y143376D02*X41137Y143371D01*
X41658Y142761D01*
X42269Y142239D01*
X42953Y141820D01*
X43695Y141513D01*
X44256Y141378D01*
X43695Y141243D01*
X42953Y140936D01*
X42269Y140517D01*
X41658Y139995D01*
X41137Y139385D01*
X41134Y139379D01*
Y143376D01*
G37*
G36*
Y153376D02*X41137Y153371D01*
X41658Y152761D01*
X42269Y152239D01*
X42953Y151820D01*
X43695Y151513D01*
X44256Y151378D01*
X43695Y151243D01*
X42953Y150936D01*
X42269Y150517D01*
X41658Y149995D01*
X41137Y149385D01*
X41134Y149379D01*
Y153376D01*
G37*
G36*
Y163376D02*X41137Y163371D01*
X41658Y162761D01*
X42269Y162239D01*
X42953Y161820D01*
X43695Y161513D01*
X44256Y161378D01*
X43695Y161243D01*
X42953Y160936D01*
X42269Y160517D01*
X41658Y159995D01*
X41137Y159385D01*
X41134Y159379D01*
Y163376D01*
G37*
G36*
Y173376D02*X41137Y173371D01*
X41658Y172761D01*
X42269Y172239D01*
X42953Y171820D01*
X43695Y171513D01*
X44256Y171378D01*
X43695Y171243D01*
X42953Y170936D01*
X42269Y170517D01*
X41658Y169995D01*
X41137Y169385D01*
X41134Y169379D01*
Y173376D01*
G37*
G36*
Y183376D02*X41137Y183371D01*
X41658Y182761D01*
X42269Y182239D01*
X42953Y181820D01*
X43695Y181513D01*
X44256Y181378D01*
X43695Y181243D01*
X42953Y180936D01*
X42269Y180517D01*
X41658Y179995D01*
X41137Y179385D01*
X41134Y179379D01*
Y183376D01*
G37*
G36*
Y193376D02*X41137Y193371D01*
X41658Y192761D01*
X42269Y192239D01*
X42953Y191820D01*
X43695Y191513D01*
X44256Y191378D01*
X43695Y191243D01*
X42953Y190936D01*
X42269Y190517D01*
X41658Y189995D01*
X41137Y189385D01*
X41134Y189379D01*
Y193376D01*
G37*
G36*
Y203376D02*X41137Y203371D01*
X41658Y202761D01*
X42269Y202239D01*
X42953Y201820D01*
X43695Y201513D01*
X44256Y201378D01*
X43695Y201243D01*
X42953Y200936D01*
X42269Y200517D01*
X41658Y199995D01*
X41137Y199385D01*
X41134Y199379D01*
Y203376D01*
G37*
G36*
Y213376D02*X41137Y213371D01*
X41658Y212761D01*
X42269Y212239D01*
X42953Y211820D01*
X43695Y211513D01*
X44256Y211378D01*
X43695Y211243D01*
X42953Y210936D01*
X42269Y210517D01*
X41658Y209995D01*
X41137Y209385D01*
X41134Y209379D01*
Y213376D01*
G37*
G36*
Y221379D02*X41211Y221347D01*
X41440Y221292D01*
X41676Y221278D01*
X43856Y221282D01*
X43695Y221243D01*
X42953Y220936D01*
X42269Y220517D01*
X41658Y219995D01*
X41137Y219385D01*
X41134Y219379D01*
Y221379D01*
G37*
G36*
Y233376D02*X41137Y233371D01*
X41658Y232761D01*
X42269Y232239D01*
X42953Y231820D01*
X43695Y231513D01*
X43878Y231469D01*
X41440Y231464D01*
X41211Y231409D01*
X41134Y231377D01*
Y233376D01*
G37*
G36*
Y243376D02*X41137Y243371D01*
X41658Y242761D01*
X42269Y242239D01*
X42953Y241820D01*
X43695Y241513D01*
X44256Y241378D01*
X43695Y241243D01*
X42953Y240936D01*
X42269Y240517D01*
X41658Y239995D01*
X41137Y239385D01*
X41134Y239379D01*
Y243376D01*
G37*
G36*
Y253376D02*X41137Y253371D01*
X41658Y252761D01*
X42269Y252239D01*
X42953Y251820D01*
X43695Y251513D01*
X44256Y251378D01*
X43695Y251243D01*
X42953Y250936D01*
X42269Y250517D01*
X41658Y249995D01*
X41137Y249385D01*
X41134Y249379D01*
Y253376D01*
G37*
G36*
Y263376D02*X41137Y263371D01*
X41658Y262761D01*
X42269Y262239D01*
X42953Y261820D01*
X43695Y261513D01*
X44256Y261378D01*
X43695Y261243D01*
X42953Y260936D01*
X42269Y260517D01*
X41658Y259995D01*
X41137Y259385D01*
X41134Y259379D01*
Y263376D01*
G37*
G36*
Y273376D02*X41137Y273371D01*
X41658Y272761D01*
X42269Y272239D01*
X42953Y271820D01*
X43695Y271513D01*
X44256Y271378D01*
X43695Y271243D01*
X42953Y270936D01*
X42269Y270517D01*
X41658Y269995D01*
X41137Y269385D01*
X41134Y269379D01*
Y273376D01*
G37*
G36*
Y283376D02*X41137Y283371D01*
X41658Y282761D01*
X42269Y282239D01*
X42953Y281820D01*
X43695Y281513D01*
X44256Y281378D01*
X43695Y281243D01*
X42953Y280936D01*
X42269Y280517D01*
X41658Y279995D01*
X41137Y279385D01*
X41134Y279379D01*
Y283376D01*
G37*
G36*
Y293376D02*X41137Y293371D01*
X41658Y292761D01*
X42269Y292239D01*
X42953Y291820D01*
X43695Y291513D01*
X44256Y291378D01*
X43695Y291243D01*
X42953Y290936D01*
X42269Y290517D01*
X41658Y289995D01*
X41137Y289385D01*
X41134Y289379D01*
Y293376D01*
G37*
G36*
Y303376D02*X41137Y303371D01*
X41658Y302761D01*
X42269Y302239D01*
X42953Y301820D01*
X43695Y301513D01*
X44256Y301378D01*
X43695Y301243D01*
X42953Y300936D01*
X42269Y300517D01*
X41658Y299995D01*
X41137Y299385D01*
X41134Y299379D01*
Y303376D01*
G37*
G36*
Y313376D02*X41137Y313371D01*
X41658Y312761D01*
X42269Y312239D01*
X42953Y311820D01*
X43695Y311513D01*
X44256Y311378D01*
X43695Y311243D01*
X42953Y310936D01*
X42269Y310517D01*
X41658Y309995D01*
X41137Y309385D01*
X41134Y309379D01*
Y313376D01*
G37*
G36*
Y333376D02*X41137Y333371D01*
X41658Y332761D01*
X42269Y332239D01*
X42953Y331820D01*
X43695Y331513D01*
X44260Y331377D01*
X43942Y331306D01*
X43513Y331169D01*
X43099Y330995D01*
X42995Y330937D01*
X42903Y330863D01*
X42823Y330775D01*
X42758Y330676D01*
X42709Y330568D01*
X42678Y330454D01*
X42665Y330336D01*
X42671Y330217D01*
X42695Y330101D01*
X42737Y329990D01*
X42796Y329887D01*
X42870Y329795D01*
X42958Y329715D01*
X43057Y329650D01*
X43165Y329601D01*
X43279Y329570D01*
X43397Y329557D01*
X43516Y329563D01*
X43632Y329587D01*
X43742Y329631D01*
X44033Y329757D01*
X44335Y329853D01*
X44644Y329922D01*
X44959Y329964D01*
X45276Y329978D01*
X45592Y329964D01*
X45907Y329922D01*
X46216Y329853D01*
X46518Y329757D01*
X46811Y329634D01*
X46920Y329590D01*
X47036Y329566D01*
X47154Y329561D01*
X47271Y329573D01*
X47385Y329605D01*
X47493Y329653D01*
X47591Y329718D01*
X47679Y329797D01*
X47753Y329889D01*
X47811Y329992D01*
X47853Y330102D01*
X47877Y330218D01*
X47883Y330336D01*
X47870Y330453D01*
X47839Y330567D01*
X47790Y330674D01*
X47725Y330773D01*
X47646Y330861D01*
X47554Y330934D01*
X47451Y330991D01*
X47038Y331169D01*
X46609Y331306D01*
X46291Y331377D01*
X46856Y331513D01*
X47598Y331820D01*
X48283Y332239D01*
X48893Y332761D01*
X49414Y333371D01*
X49418Y333376D01*
Y328957D01*
X49351Y328976D01*
X49233Y328988D01*
X49115Y328983D01*
X48999Y328959D01*
X48888Y328917D01*
X48785Y328858D01*
X48692Y328784D01*
X48613Y328696D01*
X48548Y328597D01*
X48499Y328489D01*
X48468Y328374D01*
X48455Y328256D01*
X48460Y328138D01*
X48485Y328022D01*
X48529Y327912D01*
X48654Y327621D01*
X48751Y327319D01*
X48820Y327009D01*
X48862Y326695D01*
X48876Y326378D01*
X48862Y326061D01*
X48820Y325747D01*
X48751Y325437D01*
X48654Y325135D01*
X48532Y324843D01*
X48488Y324733D01*
X48464Y324618D01*
X48458Y324500D01*
X48471Y324382D01*
X48502Y324269D01*
X48551Y324161D01*
X48615Y324062D01*
X48695Y323975D01*
X48787Y323901D01*
X48889Y323842D01*
X49000Y323801D01*
X49115Y323777D01*
X49233Y323771D01*
X49351Y323784D01*
X49418Y323802D01*
Y319379D01*
X49414Y319385D01*
X48893Y319995D01*
X48283Y320517D01*
X47598Y320936D01*
X46856Y321243D01*
X46291Y321379D01*
X46609Y321450D01*
X47038Y321587D01*
X47453Y321760D01*
X47556Y321819D01*
X47648Y321893D01*
X47728Y321981D01*
X47793Y322080D01*
X47842Y322188D01*
X47873Y322302D01*
X47886Y322420D01*
X47880Y322539D01*
X47856Y322655D01*
X47814Y322766D01*
X47755Y322869D01*
X47681Y322961D01*
X47593Y323041D01*
X47494Y323106D01*
X47386Y323155D01*
X47272Y323186D01*
X47154Y323199D01*
X47035Y323193D01*
X46919Y323169D01*
X46809Y323125D01*
X46518Y322999D01*
X46216Y322903D01*
X45907Y322834D01*
X45592Y322792D01*
X45276Y322778D01*
X44959Y322792D01*
X44644Y322834D01*
X44335Y322903D01*
X44033Y322999D01*
X43740Y323122D01*
X43631Y323166D01*
X43515Y323190D01*
X43397Y323195D01*
X43280Y323182D01*
X43166Y323151D01*
X43059Y323103D01*
X42960Y323038D01*
X42872Y322959D01*
X42799Y322867D01*
X42740Y322764D01*
X42698Y322654D01*
X42674Y322538D01*
X42669Y322420D01*
X42681Y322303D01*
X42712Y322189D01*
X42761Y322081D01*
X42826Y321983D01*
X42905Y321895D01*
X42997Y321821D01*
X43101Y321765D01*
X43513Y321587D01*
X43942Y321450D01*
X44260Y321379D01*
X43695Y321243D01*
X42953Y320936D01*
X42269Y320517D01*
X41658Y319995D01*
X41137Y319385D01*
X41134Y319379D01*
Y323798D01*
X41200Y323780D01*
X41318Y323767D01*
X41436Y323773D01*
X41552Y323797D01*
X41663Y323839D01*
X41766Y323898D01*
X41859Y323972D01*
X41939Y324060D01*
X42004Y324159D01*
X42052Y324267D01*
X42084Y324382D01*
X42096Y324500D01*
X42091Y324618D01*
X42067Y324734D01*
X42023Y324844D01*
X41897Y325135D01*
X41801Y325437D01*
X41731Y325747D01*
X41690Y326061D01*
X41676Y326378D01*
X41690Y326695D01*
X41731Y327009D01*
X41801Y327319D01*
X41897Y327621D01*
X42019Y327913D01*
X42063Y328023D01*
X42087Y328138D01*
X42093Y328256D01*
X42080Y328373D01*
X42049Y328487D01*
X42001Y328595D01*
X41936Y328694D01*
X41856Y328781D01*
X41764Y328855D01*
X41662Y328914D01*
X41551Y328955D01*
X41436Y328979D01*
X41318Y328985D01*
X41201Y328972D01*
X41134Y328954D01*
Y333376D01*
G37*
G36*
Y343376D02*X41137Y343371D01*
X41658Y342761D01*
X42269Y342239D01*
X42953Y341820D01*
X43695Y341513D01*
X44256Y341378D01*
X43695Y341243D01*
X42953Y340936D01*
X42269Y340517D01*
X41658Y339995D01*
X41137Y339385D01*
X41134Y339379D01*
Y343376D01*
G37*
G36*
Y353376D02*X41137Y353371D01*
X41658Y352761D01*
X42269Y352239D01*
X42953Y351820D01*
X43695Y351513D01*
X44256Y351378D01*
X43695Y351243D01*
X42953Y350936D01*
X42269Y350517D01*
X41658Y349995D01*
X41137Y349385D01*
X41134Y349379D01*
Y353376D01*
G37*
G36*
Y363376D02*X41137Y363371D01*
X41658Y362761D01*
X42269Y362239D01*
X42953Y361820D01*
X43695Y361513D01*
X44256Y361378D01*
X43695Y361243D01*
X42953Y360936D01*
X42269Y360517D01*
X41658Y359995D01*
X41137Y359385D01*
X41134Y359379D01*
Y363376D01*
G37*
G36*
Y373376D02*X41137Y373371D01*
X41658Y372761D01*
X42269Y372239D01*
X42953Y371820D01*
X43695Y371513D01*
X44256Y371378D01*
X43695Y371243D01*
X42953Y370936D01*
X42269Y370517D01*
X41658Y369995D01*
X41137Y369385D01*
X41134Y369379D01*
Y373376D01*
G37*
G36*
Y413386D02*X49418D01*
Y400872D01*
X49301D01*
X49213Y400879D01*
X48860Y400851D01*
X48515Y400769D01*
X48188Y400633D01*
X47886Y400448D01*
X47886Y400448D01*
X47617Y400218D01*
X47559Y400151D01*
X43747Y396338D01*
X43680Y396281D01*
X43450Y396012D01*
X43265Y395710D01*
X43129Y395382D01*
X43046Y395038D01*
X43046Y395038D01*
X43019Y394685D01*
X43026Y394597D01*
Y380966D01*
X42953Y380936D01*
X42269Y380517D01*
X41658Y379995D01*
X41137Y379385D01*
X41134Y379379D01*
Y413386D01*
G37*
G36*
X39370D02*X41134D01*
Y379379D01*
X40717Y378700D01*
X40410Y377959D01*
X40223Y377178D01*
X40160Y376378D01*
X40223Y375578D01*
X40410Y374797D01*
X40717Y374055D01*
X41134Y373376D01*
Y369379D01*
X40717Y368700D01*
X40410Y367959D01*
X40223Y367178D01*
X40160Y366378D01*
X40223Y365578D01*
X40410Y364797D01*
X40717Y364055D01*
X41134Y363376D01*
Y359379D01*
X40717Y358700D01*
X40410Y357959D01*
X40223Y357178D01*
X40160Y356378D01*
X40223Y355578D01*
X40410Y354797D01*
X40717Y354055D01*
X41134Y353376D01*
Y349379D01*
X40717Y348700D01*
X40410Y347959D01*
X40223Y347178D01*
X40160Y346378D01*
X40223Y345578D01*
X40410Y344797D01*
X40717Y344055D01*
X41134Y343376D01*
Y339379D01*
X40717Y338700D01*
X40410Y337959D01*
X40223Y337178D01*
X40160Y336378D01*
X40223Y335578D01*
X40410Y334797D01*
X40717Y334055D01*
X41134Y333376D01*
Y328954D01*
X41087Y328941D01*
X40979Y328893D01*
X40880Y328828D01*
X40793Y328748D01*
X40719Y328656D01*
X40663Y328553D01*
X40484Y328140D01*
X40348Y327712D01*
X40250Y327273D01*
X40190Y326827D01*
X40171Y326378D01*
X40190Y325929D01*
X40250Y325483D01*
X40348Y325044D01*
X40484Y324616D01*
X40658Y324201D01*
X40716Y324098D01*
X40790Y324005D01*
X40878Y323925D01*
X40977Y323860D01*
X41085Y323812D01*
X41134Y323798D01*
Y319379D01*
X40717Y318700D01*
X40410Y317959D01*
X40223Y317178D01*
X40160Y316378D01*
X40223Y315578D01*
X40410Y314797D01*
X40717Y314055D01*
X41134Y313376D01*
Y309379D01*
X40717Y308700D01*
X40410Y307959D01*
X40223Y307178D01*
X40160Y306378D01*
X40223Y305578D01*
X40410Y304797D01*
X40717Y304055D01*
X41134Y303376D01*
Y299379D01*
X40717Y298700D01*
X40410Y297959D01*
X40223Y297178D01*
X40160Y296378D01*
X40223Y295578D01*
X40410Y294797D01*
X40717Y294055D01*
X41134Y293376D01*
Y289379D01*
X40717Y288700D01*
X40410Y287959D01*
X40223Y287178D01*
X40160Y286378D01*
X40223Y285578D01*
X40410Y284797D01*
X40717Y284055D01*
X41134Y283376D01*
Y279379D01*
X40717Y278700D01*
X40410Y277959D01*
X40223Y277178D01*
X40160Y276378D01*
X40223Y275578D01*
X40410Y274797D01*
X40717Y274055D01*
X41134Y273376D01*
Y269379D01*
X40717Y268700D01*
X40410Y267959D01*
X40223Y267178D01*
X40160Y266378D01*
X40223Y265578D01*
X40410Y264797D01*
X40717Y264055D01*
X41134Y263376D01*
Y259379D01*
X40717Y258700D01*
X40410Y257959D01*
X40223Y257178D01*
X40160Y256378D01*
X40223Y255578D01*
X40410Y254797D01*
X40717Y254055D01*
X41134Y253376D01*
Y249379D01*
X40717Y248700D01*
X40410Y247959D01*
X40223Y247178D01*
X40160Y246378D01*
X40223Y245578D01*
X40410Y244797D01*
X40717Y244055D01*
X41134Y243376D01*
Y239379D01*
X40717Y238700D01*
X40410Y237959D01*
X40223Y237178D01*
X40160Y236378D01*
X40223Y235578D01*
X40410Y234797D01*
X40717Y234055D01*
X41134Y233376D01*
Y231377D01*
X40993Y231319D01*
X40791Y231195D01*
X40612Y231042D01*
X40458Y230862D01*
X40335Y230661D01*
X40245Y230443D01*
X40189Y230213D01*
X40176Y229978D01*
X40189Y222543D01*
X40245Y222313D01*
X40335Y222095D01*
X40458Y221894D01*
X40612Y221714D01*
X40791Y221561D01*
X40993Y221437D01*
X41134Y221379D01*
Y219379D01*
X40717Y218700D01*
X40410Y217959D01*
X40223Y217178D01*
X40160Y216378D01*
X40223Y215578D01*
X40410Y214797D01*
X40717Y214055D01*
X41134Y213376D01*
Y209379D01*
X40717Y208700D01*
X40410Y207959D01*
X40223Y207178D01*
X40160Y206378D01*
X40223Y205578D01*
X40410Y204797D01*
X40717Y204055D01*
X41134Y203376D01*
Y199379D01*
X40717Y198700D01*
X40410Y197959D01*
X40223Y197178D01*
X40160Y196378D01*
X40223Y195578D01*
X40410Y194797D01*
X40717Y194055D01*
X41134Y193376D01*
Y189379D01*
X40717Y188700D01*
X40410Y187959D01*
X40223Y187178D01*
X40160Y186378D01*
X40223Y185578D01*
X40410Y184797D01*
X40717Y184055D01*
X41134Y183376D01*
Y179379D01*
X40717Y178700D01*
X40410Y177959D01*
X40223Y177178D01*
X40160Y176378D01*
X40223Y175578D01*
X40410Y174797D01*
X40717Y174055D01*
X41134Y173376D01*
Y169379D01*
X40717Y168700D01*
X40410Y167959D01*
X40223Y167178D01*
X40160Y166378D01*
X40223Y165578D01*
X40410Y164797D01*
X40717Y164055D01*
X41134Y163376D01*
Y159379D01*
X40717Y158700D01*
X40410Y157959D01*
X40223Y157178D01*
X40160Y156378D01*
X40223Y155578D01*
X40410Y154797D01*
X40717Y154055D01*
X41134Y153376D01*
Y149379D01*
X40717Y148700D01*
X40410Y147959D01*
X40223Y147178D01*
X40160Y146378D01*
X40223Y145578D01*
X40410Y144797D01*
X40717Y144055D01*
X41134Y143376D01*
Y139379D01*
X40717Y138700D01*
X40410Y137959D01*
X40223Y137178D01*
X40160Y136378D01*
X40223Y135578D01*
X40410Y134797D01*
X40717Y134055D01*
X41134Y133376D01*
Y129379D01*
X40717Y128700D01*
X40410Y127959D01*
X40223Y127178D01*
X40160Y126378D01*
X40223Y125578D01*
X40410Y124797D01*
X40717Y124055D01*
X41134Y123376D01*
Y119379D01*
X40717Y118700D01*
X40410Y117959D01*
X40223Y117178D01*
X40160Y116378D01*
X40223Y115578D01*
X40410Y114797D01*
X40717Y114055D01*
X41134Y113376D01*
Y109379D01*
X40717Y108700D01*
X40410Y107959D01*
X40223Y107178D01*
X40160Y106378D01*
X40223Y105578D01*
X40410Y104797D01*
X40717Y104055D01*
X41134Y103376D01*
Y99379D01*
X40717Y98700D01*
X40410Y97959D01*
X40223Y97178D01*
X40160Y96378D01*
X40223Y95578D01*
X40410Y94797D01*
X40717Y94055D01*
X41134Y93376D01*
Y89379D01*
X40717Y88700D01*
X40410Y87959D01*
X40223Y87178D01*
X40160Y86378D01*
X40223Y85578D01*
X40410Y84797D01*
X40717Y84055D01*
X41134Y83376D01*
Y79379D01*
X40717Y78700D01*
X40410Y77959D01*
X40223Y77178D01*
X40160Y76378D01*
X40223Y75578D01*
X40410Y74797D01*
X40717Y74055D01*
X41134Y73376D01*
Y39370D01*
X39370D01*
Y413386D01*
G37*
G54D31*X104331Y163386D02*X110236Y169291D01*
X167323D02*X169291Y167323D01*
Y160670D01*
G54D32*X149831Y157670D02*X155512Y151989D01*
X185039D01*
G54D31*X110236Y169291D02*X167323D01*
G54D32*X185039Y151989D02*X190945Y158465D01*
G54D31*X104331Y112205D02*X108268Y108268D01*
X149606D01*
X104331Y145827D02*Y163386D01*
Y125827D02*Y112205D01*
G54D32*X45276Y306102D02*X58071D01*
X61024Y309055D01*
X45276Y296260D02*X59055D01*
X66929Y304134D01*
X61024Y309055D02*Y329724D01*
X66929Y304134D02*Y338583D01*
X61024Y344488D01*
X45276Y346457D02*X51181D01*
X53150Y348425D01*
Y351378D01*
G54D31*X56102Y316929D02*X45276D01*
X94488Y339567D02*Y294291D01*
G54D32*X61024Y359252D02*X80709D01*
X57087Y365157D02*X146654D01*
X149606Y362205D01*
Y358268D01*
X153543Y354331D01*
X184055D01*
X190945Y347441D01*
G54D31*X146654Y344488D02*X130906D01*
X80709D02*X89567D01*
X94488Y339567D01*
X130906Y344488D02*X127953Y341535D01*
Y329724D01*
G54D32*X105315Y344488D02*Y313976D01*
X112205Y307087D01*
X124606D01*
X45276Y356299D02*X51181D01*
G54D31*X45276Y375984D02*Y394685D01*
X49213Y398622D02*X45276Y394685D01*
X52165Y366142D02*X45276D01*
G54D32*X51181Y356299D02*X55118Y360236D01*
X53150Y351378D02*X61024Y359252D01*
X55118Y360236D02*Y363189D01*
X57087Y365157D01*
G54D31*Y371063D02*X52165Y366142D01*
X57087Y371063D02*X91535D01*
X87598Y398622D02*X49213D01*
X97441Y408465D02*X87598Y398622D01*
X135827D02*X125984Y408465D01*
X97441D02*X125984D01*
X153543Y398622D02*X135827D01*
X159449Y392717D02*X153543Y398622D01*
X159449Y392717D02*Y360236D01*
X75866Y75512D02*Y95512D01*
X87598Y98425D02*X84646Y95472D01*
X75945D01*
X75866Y95551D01*
G54D32*Y105512D02*X70945Y100591D01*
X61024Y98622D02*Y78740D01*
X58661Y76378D01*
X45276D01*
X59055Y88386D02*X57087Y86417D01*
X45276D01*
X55118Y96457D02*X45276D01*
X53150Y106299D02*X45276D01*
G54D31*X87598Y202756D02*Y98425D01*
G54D32*X75787Y145472D02*X70866Y140551D01*
X75787Y155512D02*X70866Y150591D01*
X75787Y165354D02*X70866Y160433D01*
Y150591D02*X62992D01*
X70866Y160433D02*X62992D01*
X75787Y175591D02*X70669Y170472D01*
X63189D01*
X75787Y185433D02*X70866Y180512D01*
X62992D01*
X75984Y195669D02*X70866Y190551D01*
X62992D01*
X70945Y100591D02*X62992D01*
X61024Y98622D01*
X62992Y110630D02*X59055Y106693D01*
Y88386D01*
X57087Y114567D02*Y98425D01*
X55118Y96457D01*
Y122638D02*Y108268D01*
X53150Y106299D01*
X62992Y120472D02*X57087Y114567D01*
X53150Y123622D02*Y120079D01*
X49409Y116339D01*
X45276D01*
X62992Y130512D02*X55118Y122638D01*
X61220Y131693D02*X53150Y123622D01*
X59055Y133858D02*X51575Y126378D01*
X45276D01*
X54724Y136417D02*X45276D01*
X52953Y146457D02*X45276D01*
X50000Y156299D02*X45276D01*
X75984Y115551D02*X71063Y110630D01*
X62992D01*
X75787Y125394D02*X70866Y120472D01*
X62992D01*
X75787Y135433D02*X70866Y130512D01*
X62992D01*
X70866Y140551D02*X62992D01*
X61220Y138780D01*
Y131693D01*
X62992Y150591D02*X59055Y146654D01*
Y133858D01*
X62992Y160433D02*X57087Y154528D01*
X63189Y170472D02*X55118Y162402D01*
X59055Y171260D02*X53150Y165354D01*
Y159449D01*
X57087Y154528D02*Y138780D01*
X54724Y136417D01*
X55118Y162402D02*Y148622D01*
X52953Y146457D01*
X53150Y159449D02*X50000Y156299D01*
X62992Y180512D02*X59055Y176575D01*
Y171260D01*
X63189Y190748D02*X57087Y184646D01*
X55118Y179134D02*X52362Y176378D01*
X45276D01*
X190945Y158465D02*Y347441D01*
X159449Y344488D02*X170276D01*
X174213Y340551D01*
Y307480D01*
X174606Y307087D01*
G54D31*X146654Y344488D02*X152559Y350394D01*
X176181D01*
X184606Y288386D02*Y341969D01*
Y342087D02*X184488D01*
X176181Y350394D01*
X94488Y294291D02*X100394Y288386D01*
X114606D01*
X75866Y205512D02*Y225512D01*
Y205512D02*X84843D01*
X87598Y202756D01*
G54D32*X75787Y235433D02*Y243110D01*
X75866Y205512D02*X70748Y200394D01*
X62992D01*
X75787Y243110D02*X73819Y245079D01*
X55118D01*
X53150Y243110D01*
Y208661D01*
X51181Y206693D01*
X45276D01*
X57087Y184646D02*Y177165D01*
X53150Y173228D01*
Y169488D01*
X50000Y166339D01*
X45276D01*
X62992Y200394D02*X55118Y192520D01*
Y179134D01*
G54D33*X70866Y405512D03*
G54D30*G36*
X57867Y347489D02*Y341489D01*
X63867D01*
Y347489D01*
X57867D01*
G37*
G54D34*X60867Y359489D03*
X80867Y344489D03*
Y359489D03*
G54D33*X149606Y405512D03*
G54D34*X80867Y329489D03*
G54D30*G36*
X136607Y347489D02*Y341489D01*
X142607D01*
Y347489D01*
X136607D01*
G37*
G54D34*X139607Y359489D03*
Y329489D03*
X159607Y344489D03*
Y359489D03*
G54D30*G36*
X111487Y348239D02*Y340739D01*
X118987D01*
Y348239D01*
X111487D01*
G37*
G54D35*X105237Y344489D03*
G54D30*G36*
X121606Y310087D02*Y304087D01*
X127606D01*
Y310087D01*
X121606D01*
G37*
G54D34*X159607Y329489D03*
X174606Y307087D03*
G54D30*G36*
X181606Y291386D02*Y285386D01*
X187606D01*
Y291386D01*
X181606D01*
G37*
G54D34*X114606Y288386D03*
X60867Y329489D03*
G54D36*X45276Y376378D03*
Y366378D03*
Y356378D03*
Y346378D03*
Y336378D03*
Y326378D03*
Y316378D03*
Y306378D03*
Y296378D03*
Y286378D03*
Y276378D03*
Y266378D03*
Y256378D03*
Y246378D03*
Y236378D03*
G54D30*G36*
X41676Y229978D02*Y222778D01*
X48876D01*
Y229978D01*
X41676D01*
G37*
G54D33*X70866Y47244D03*
X149606D03*
G54D37*X174607Y83268D03*
G54D38*X75866Y85512D03*
Y75512D03*
G54D36*X45276Y216378D03*
Y206378D03*
Y196378D03*
Y186378D03*
Y176378D03*
Y166378D03*
Y156378D03*
Y146378D03*
Y136378D03*
Y126378D03*
Y116378D03*
Y106378D03*
Y96378D03*
Y86378D03*
Y76378D03*
G54D30*G36*
X62566Y238812D02*Y232212D01*
X69166D01*
Y238812D01*
X62566D01*
G37*
G54D38*X75866Y235512D03*
X65866Y225512D03*
Y215512D03*
Y205512D03*
X75866Y225512D03*
Y215512D03*
Y205512D03*
Y195512D03*
Y185512D03*
Y175512D03*
X65866Y195512D03*
Y185512D03*
Y175512D03*
X75866Y165512D03*
Y155512D03*
X65866Y165512D03*
Y155512D03*
Y145512D03*
Y135512D03*
Y125512D03*
Y115512D03*
Y105512D03*
Y95512D03*
X75866D03*
X65866Y85512D03*
Y75512D03*
G54D39*X149607Y108268D03*
G54D37*X174607Y133268D03*
X124607D03*
G54D30*G36*
X101831Y128327D02*Y123327D01*
X106831D01*
Y128327D01*
X101831D01*
G37*
G54D40*X104331Y145827D03*
G54D38*X75866Y145512D03*
Y135512D03*
Y125512D03*
Y115512D03*
Y105512D03*
G54D41*X169606Y161378D03*
X149606Y158378D03*
X129606Y161378D03*
G54D34*X127953Y329724D03*
X91535Y371063D03*
X56102Y316929D03*
G54D42*G54D43*G54D44*G54D43*G54D45*G54D43*G54D46*G54D43*G54D46*G54D43*G54D44*G54D47*G54D45*G54D46*G54D45*G54D38*G54D47*G54D48*G54D45*G54D49*M02*
