G04 start of page 12 for group -3984 idx -3984 *
G04 Title: 26.007.01.01.01, fab *
G04 Creator: pcb 4.1.2 *
G04 CreationDate: Fri Aug 10 20:06:25 2018 UTC *
G04 For: bert *
G04 Format: Gerber/RS-274X *
G04 PCB-Dimensions (mil): 2600.00 1150.00 *
G04 PCB-Coordinate-Origin: lower left *
%MOIN*%
%FSLAX25Y25*%
%LNFAB*%
%ADD47C,0.0100*%
%ADD46C,0.0060*%
%ADD45C,0.0001*%
G54D45*G36*
X231300Y109266D02*X234266Y106300D01*
X233700Y105734D01*
X230734Y108700D01*
X231300Y109266D01*
G37*
G36*
X230734Y106300D02*X233700Y109266D01*
X234266Y108700D01*
X231300Y105734D01*
X230734Y106300D01*
G37*
G36*
X133800Y19266D02*X136766Y16300D01*
X136200Y15734D01*
X133234Y18700D01*
X133800Y19266D01*
G37*
G36*
X133234Y16300D02*X136200Y19266D01*
X136766Y18700D01*
X133800Y15734D01*
X133234Y16300D01*
G37*
G36*
X101300Y109266D02*X104266Y106300D01*
X103700Y105734D01*
X100734Y108700D01*
X101300Y109266D01*
G37*
G36*
X100734Y106300D02*X103700Y109266D01*
X104266Y108700D01*
X101300Y105734D01*
X100734Y106300D01*
G37*
G36*
X13800Y143016D02*X16766Y140050D01*
X16200Y139484D01*
X13234Y142450D01*
X13800Y143016D01*
G37*
G36*
X13234Y140050D02*X16200Y143016D01*
X16766Y142450D01*
X13800Y139484D01*
X13234Y140050D01*
G37*
G54D46*X135000Y143500D02*Y142750D01*
X136500Y141250D01*
X138000Y142750D01*
Y143500D02*Y142750D01*
X136500Y141250D02*Y137500D01*
X139800Y140500D02*X142050D01*
X139800Y137500D02*X142800D01*
X139800Y143500D02*Y137500D01*
Y143500D02*X142800D01*
X147600D02*X148350Y142750D01*
X145350Y143500D02*X147600D01*
X144600Y142750D02*X145350Y143500D01*
X144600Y142750D02*Y141250D01*
X145350Y140500D01*
X147600D01*
X148350Y139750D01*
Y138250D01*
X147600Y137500D02*X148350Y138250D01*
X145350Y137500D02*X147600D01*
X144600Y138250D02*X145350Y137500D01*
X98000Y142750D02*X98750Y143500D01*
X100250D01*
X101000Y142750D01*
Y138250D01*
X100250Y137500D02*X101000Y138250D01*
X98750Y137500D02*X100250D01*
X98000Y138250D02*X98750Y137500D01*
Y140500D02*X101000D01*
X45000Y138250D02*X45750Y137500D01*
X45000Y142750D02*Y138250D01*
Y142750D02*X45750Y143500D01*
X47250D01*
X48000Y142750D01*
Y138250D01*
X47250Y137500D02*X48000Y138250D01*
X45750Y137500D02*X47250D01*
X45000Y139000D02*X48000Y142000D01*
X49800Y137500D02*X50550D01*
X52350Y138250D02*X53100Y137500D01*
X52350Y142750D02*Y138250D01*
Y142750D02*X53100Y143500D01*
X54600D01*
X55350Y142750D01*
Y138250D01*
X54600Y137500D02*X55350Y138250D01*
X53100Y137500D02*X54600D01*
X52350Y139000D02*X55350Y142000D01*
X57150Y140500D02*X60150Y143500D01*
X57150Y140500D02*X60900D01*
X60150Y143500D02*Y137500D01*
X64950Y143500D02*X65700Y142750D01*
X63450Y143500D02*X64950D01*
X62700Y142750D02*X63450Y143500D01*
X62700Y142750D02*Y138250D01*
X63450Y137500D01*
X64950Y140500D02*X65700Y139750D01*
X62700Y140500D02*X64950D01*
X63450Y137500D02*X64950D01*
X65700Y138250D01*
Y139750D02*Y138250D01*
X5000Y6600D02*Y3400D01*
X3400Y5000D02*X6600D01*
X15000Y6600D02*Y3400D01*
X13400Y5000D02*X16600D01*
X25000Y6600D02*Y3400D01*
X23400Y5000D02*X26600D01*
X35000Y6600D02*Y3400D01*
X33400Y5000D02*X36600D01*
X45000Y6600D02*Y3400D01*
X43400Y5000D02*X46600D01*
X55000Y6600D02*Y3400D01*
X53400Y5000D02*X56600D01*
X65000Y6600D02*Y3400D01*
X63400Y5000D02*X66600D01*
X75000Y6600D02*Y3400D01*
X73400Y5000D02*X76600D01*
X15000Y157850D02*Y154650D01*
X13400Y156250D02*X16600D01*
X135000Y158500D02*Y157750D01*
X136500Y156250D01*
X138000Y157750D01*
Y158500D02*Y157750D01*
X136500Y156250D02*Y152500D01*
X139800Y155500D02*X142050D01*
X139800Y152500D02*X142800D01*
X139800Y158500D02*Y152500D01*
Y158500D02*X142800D01*
X147600D02*X148350Y157750D01*
X145350Y158500D02*X147600D01*
X144600Y157750D02*X145350Y158500D01*
X144600Y157750D02*Y156250D01*
X145350Y155500D01*
X147600D01*
X148350Y154750D01*
Y153250D01*
X147600Y152500D02*X148350Y153250D01*
X145350Y152500D02*X147600D01*
X144600Y153250D02*X145350Y152500D01*
X98000Y153250D02*X98750Y152500D01*
X98000Y154750D02*Y153250D01*
Y154750D02*X98750Y155500D01*
X100250D01*
X101000Y154750D01*
Y153250D01*
X100250Y152500D02*X101000Y153250D01*
X98750Y152500D02*X100250D01*
X98000Y156250D02*X98750Y155500D01*
X98000Y157750D02*Y156250D01*
Y157750D02*X98750Y158500D01*
X100250D01*
X101000Y157750D01*
Y156250D01*
X100250Y155500D02*X101000Y156250D01*
X45000Y153250D02*X45750Y152500D01*
X45000Y157750D02*Y153250D01*
Y157750D02*X45750Y158500D01*
X47250D01*
X48000Y157750D01*
Y153250D01*
X47250Y152500D02*X48000Y153250D01*
X45750Y152500D02*X47250D01*
X45000Y154000D02*X48000Y157000D01*
X49800Y152500D02*X50550D01*
X52350Y153250D02*X53100Y152500D01*
X52350Y157750D02*Y153250D01*
Y157750D02*X53100Y158500D01*
X54600D01*
X55350Y157750D01*
Y153250D01*
X54600Y152500D02*X55350Y153250D01*
X53100Y152500D02*X54600D01*
X52350Y154000D02*X55350Y157000D01*
X57150Y157750D02*X57900Y158500D01*
X59400D01*
X60150Y157750D01*
Y153250D01*
X59400Y152500D02*X60150Y153250D01*
X57900Y152500D02*X59400D01*
X57150Y153250D02*X57900Y152500D01*
Y155500D02*X60150D01*
X61950Y153250D02*X62700Y152500D01*
X61950Y154750D02*Y153250D01*
Y154750D02*X62700Y155500D01*
X64200D01*
X64950Y154750D01*
Y153250D01*
X64200Y152500D02*X64950Y153250D01*
X62700Y152500D02*X64200D01*
X61950Y156250D02*X62700Y155500D01*
X61950Y157750D02*Y156250D01*
Y157750D02*X62700Y158500D01*
X64200D01*
X64950Y157750D01*
Y156250D01*
X64200Y155500D02*X64950Y156250D01*
X25000Y57500D02*Y55900D01*
Y57500D02*X26387Y58300D01*
X25000Y57500D02*X23613Y58300D01*
X62500Y57500D02*Y55900D01*
Y57500D02*X63887Y58300D01*
X62500Y57500D02*X61113Y58300D01*
X65000Y27500D02*Y25900D01*
Y27500D02*X66387Y28300D01*
X65000Y27500D02*X63613Y28300D01*
X62500Y80000D02*Y78400D01*
Y80000D02*X63887Y80800D01*
X62500Y80000D02*X61113Y80800D01*
X102500Y80000D02*Y78400D01*
Y80000D02*X103887Y80800D01*
X102500Y80000D02*X101113Y80800D01*
X25000Y80000D02*Y78400D01*
Y80000D02*X26387Y80800D01*
X25000Y80000D02*X23613Y80800D01*
X72500Y40000D02*Y38400D01*
Y40000D02*X73887Y40800D01*
X72500Y40000D02*X71113Y40800D01*
X35000Y40000D02*Y38400D01*
Y40000D02*X36387Y40800D01*
X35000Y40000D02*X33613Y40800D01*
X112500Y40000D02*Y38400D01*
Y40000D02*X113887Y40800D01*
X112500Y40000D02*X111113Y40800D01*
X122500Y42500D02*Y40900D01*
Y42500D02*X123887Y43300D01*
X122500Y42500D02*X121113Y43300D01*
X80000Y47500D02*Y45900D01*
Y47500D02*X81387Y48300D01*
X80000Y47500D02*X78613Y48300D01*
X67500Y62500D02*Y60900D01*
Y62500D02*X68887Y63300D01*
X67500Y62500D02*X66113Y63300D01*
X45000Y20000D02*Y18400D01*
Y20000D02*X46387Y20800D01*
X45000Y20000D02*X43613Y20800D01*
X10000Y102500D02*Y100900D01*
Y102500D02*X11387Y103300D01*
X10000Y102500D02*X8613Y103300D01*
X122500Y102500D02*Y100900D01*
Y102500D02*X123887Y103300D01*
X122500Y102500D02*X121113Y103300D01*
X95000Y102500D02*Y100900D01*
Y102500D02*X96387Y103300D01*
X95000Y102500D02*X93613Y103300D01*
X155000Y57500D02*Y55900D01*
Y57500D02*X156387Y58300D01*
X155000Y57500D02*X153613Y58300D01*
X192500Y57500D02*Y55900D01*
Y57500D02*X193887Y58300D01*
X192500Y57500D02*X191113Y58300D01*
X130000Y27500D02*Y25900D01*
Y27500D02*X131387Y28300D01*
X130000Y27500D02*X128613Y28300D01*
X192500Y80000D02*Y78400D01*
Y80000D02*X193887Y80800D01*
X192500Y80000D02*X191113Y80800D01*
X232500Y80000D02*Y78400D01*
Y80000D02*X233887Y80800D01*
X232500Y80000D02*X231113Y80800D01*
X155000Y80000D02*Y78400D01*
Y80000D02*X156387Y80800D01*
X155000Y80000D02*X153613Y80800D01*
X202500Y40000D02*Y38400D01*
Y40000D02*X203887Y40800D01*
X202500Y40000D02*X201113Y40800D01*
X165000Y40000D02*Y38400D01*
Y40000D02*X166387Y40800D01*
X165000Y40000D02*X163613Y40800D01*
X242500Y40000D02*Y38400D01*
Y40000D02*X243887Y40800D01*
X242500Y40000D02*X241113Y40800D01*
X252500Y42500D02*Y40900D01*
Y42500D02*X253887Y43300D01*
X252500Y42500D02*X251113Y43300D01*
X210000Y47500D02*Y45900D01*
Y47500D02*X211387Y48300D01*
X210000Y47500D02*X208613Y48300D01*
X197500Y62500D02*Y60900D01*
Y62500D02*X198887Y63300D01*
X197500Y62500D02*X196113Y63300D01*
X175000Y27500D02*Y25900D01*
Y27500D02*X176387Y28300D01*
X175000Y27500D02*X173613Y28300D01*
X140000Y102500D02*Y100900D01*
Y102500D02*X141387Y103300D01*
X140000Y102500D02*X138613Y103300D01*
X252500Y87500D02*Y85900D01*
Y87500D02*X253887Y88300D01*
X252500Y87500D02*X251113Y88300D01*
X225000Y102500D02*Y100900D01*
Y102500D02*X226387Y103300D01*
X225000Y102500D02*X223613Y103300D01*
X15000Y171250D02*Y169650D01*
Y171250D02*X16387Y172050D01*
X15000Y171250D02*X13613Y172050D01*
X135000Y173500D02*Y172750D01*
X136500Y171250D01*
X138000Y172750D01*
Y173500D02*Y172750D01*
X136500Y171250D02*Y167500D01*
X139800Y170500D02*X142050D01*
X139800Y167500D02*X142800D01*
X139800Y173500D02*Y167500D01*
Y173500D02*X142800D01*
X147600D02*X148350Y172750D01*
X145350Y173500D02*X147600D01*
X144600Y172750D02*X145350Y173500D01*
X144600Y172750D02*Y171250D01*
X145350Y170500D01*
X147600D01*
X148350Y169750D01*
Y168250D01*
X147600Y167500D02*X148350Y168250D01*
X145350Y167500D02*X147600D01*
X144600Y168250D02*X145350Y167500D01*
X98000Y172750D02*X98750Y173500D01*
X100250D01*
X101000Y172750D01*
Y168250D01*
X100250Y167500D02*X101000Y168250D01*
X98750Y167500D02*X100250D01*
X98000Y168250D02*X98750Y167500D01*
Y170500D02*X101000D01*
X102800Y172750D02*X103550Y173500D01*
X105800D01*
X106550Y172750D01*
Y171250D01*
X102800Y167500D02*X106550Y171250D01*
X102800Y167500D02*X106550D01*
X45000Y168250D02*X45750Y167500D01*
X45000Y172750D02*Y168250D01*
Y172750D02*X45750Y173500D01*
X47250D01*
X48000Y172750D01*
Y168250D01*
X47250Y167500D02*X48000Y168250D01*
X45750Y167500D02*X47250D01*
X45000Y169000D02*X48000Y172000D01*
X49800Y167500D02*X50550D01*
X52350Y168250D02*X53100Y167500D01*
X52350Y172750D02*Y168250D01*
Y172750D02*X53100Y173500D01*
X54600D01*
X55350Y172750D01*
Y168250D01*
X54600Y167500D02*X55350Y168250D01*
X53100Y167500D02*X54600D01*
X52350Y169000D02*X55350Y172000D01*
X57150Y172750D02*X57900Y173500D01*
X60150D01*
X60900Y172750D01*
Y171250D01*
X57150Y167500D02*X60900Y171250D01*
X57150Y167500D02*X60900D01*
X62700Y168250D02*X63450Y167500D01*
X62700Y172750D02*Y168250D01*
Y172750D02*X63450Y173500D01*
X64950D01*
X65700Y172750D01*
Y168250D01*
X64950Y167500D02*X65700Y168250D01*
X63450Y167500D02*X64950D01*
X62700Y169000D02*X65700Y172000D01*
X3000Y188500D02*X3750Y187750D01*
X750Y188500D02*X3000D01*
X0Y187750D02*X750Y188500D01*
X0Y187750D02*Y186250D01*
X750Y185500D01*
X3000D01*
X3750Y184750D01*
Y183250D01*
X3000Y182500D02*X3750Y183250D01*
X750Y182500D02*X3000D01*
X0Y183250D02*X750Y182500D01*
X5550Y185500D02*Y183250D01*
X6300Y182500D01*
X8550Y185500D02*Y181000D01*
X7800Y180250D02*X8550Y181000D01*
X6300Y180250D02*X7800D01*
X5550Y181000D02*X6300Y180250D01*
Y182500D02*X7800D01*
X8550Y183250D01*
X11100Y184750D02*Y182500D01*
Y184750D02*X11850Y185500D01*
X12600D01*
X13350Y184750D01*
Y182500D01*
Y184750D02*X14100Y185500D01*
X14850D01*
X15600Y184750D01*
Y182500D01*
X10350Y185500D02*X11100Y184750D01*
X17400Y188500D02*Y182500D01*
Y183250D02*X18150Y182500D01*
X19650D01*
X20400Y183250D01*
Y184750D02*Y183250D01*
X19650Y185500D02*X20400Y184750D01*
X18150Y185500D02*X19650D01*
X17400Y184750D02*X18150Y185500D01*
X22200Y184750D02*Y183250D01*
Y184750D02*X22950Y185500D01*
X24450D01*
X25200Y184750D01*
Y183250D01*
X24450Y182500D02*X25200Y183250D01*
X22950Y182500D02*X24450D01*
X22200Y183250D02*X22950Y182500D01*
X27000Y188500D02*Y183250D01*
X27750Y182500D01*
X0Y179250D02*X29250D01*
X41750Y188500D02*Y182500D01*
X44000Y188500D02*X44750Y187750D01*
Y183250D01*
X44000Y182500D02*X44750Y183250D01*
X41000Y182500D02*X44000D01*
X41000Y188500D02*X44000D01*
X46550Y187000D02*Y186250D01*
Y184750D02*Y182500D01*
X50300Y185500D02*X51050Y184750D01*
X48800Y185500D02*X50300D01*
X48050Y184750D02*X48800Y185500D01*
X48050Y184750D02*Y183250D01*
X48800Y182500D01*
X51050Y185500D02*Y183250D01*
X51800Y182500D01*
X48800D02*X50300D01*
X51050Y183250D01*
X54350Y184750D02*Y182500D01*
Y184750D02*X55100Y185500D01*
X55850D01*
X56600Y184750D01*
Y182500D01*
Y184750D02*X57350Y185500D01*
X58100D01*
X58850Y184750D01*
Y182500D01*
X53600Y185500D02*X54350Y184750D01*
X60650Y182500D02*X61400D01*
X65900Y183250D02*X66650Y182500D01*
X65900Y187750D02*X66650Y188500D01*
X65900Y187750D02*Y183250D01*
X68450Y188500D02*X69950D01*
X69200D02*Y182500D01*
X68450D02*X69950D01*
X72500Y184750D02*Y182500D01*
Y184750D02*X73250Y185500D01*
X74000D01*
X74750Y184750D01*
Y182500D01*
X71750Y185500D02*X72500Y184750D01*
X77300Y185500D02*X79550D01*
X76550Y184750D02*X77300Y185500D01*
X76550Y184750D02*Y183250D01*
X77300Y182500D01*
X79550D01*
X81350Y188500D02*Y182500D01*
Y184750D02*X82100Y185500D01*
X83600D01*
X84350Y184750D01*
Y182500D01*
X86150Y188500D02*X86900Y187750D01*
Y183250D01*
X86150Y182500D02*X86900Y183250D01*
X41000Y179250D02*X88700D01*
X95750Y182500D02*X98000D01*
X95000Y183250D02*X95750Y182500D01*
X95000Y187750D02*Y183250D01*
Y187750D02*X95750Y188500D01*
X98000D01*
X99800Y184750D02*Y183250D01*
Y184750D02*X100550Y185500D01*
X102050D01*
X102800Y184750D01*
Y183250D01*
X102050Y182500D02*X102800Y183250D01*
X100550Y182500D02*X102050D01*
X99800Y183250D02*X100550Y182500D01*
X104600Y185500D02*Y183250D01*
X105350Y182500D01*
X106850D01*
X107600Y183250D01*
Y185500D02*Y183250D01*
X110150Y184750D02*Y182500D01*
Y184750D02*X110900Y185500D01*
X111650D01*
X112400Y184750D01*
Y182500D01*
X109400Y185500D02*X110150Y184750D01*
X114950Y188500D02*Y183250D01*
X115700Y182500D01*
X114200Y186250D02*X115700D01*
X95000Y179250D02*X117200D01*
X130750Y188500D02*Y182500D01*
X130000Y188500D02*X133000D01*
X133750Y187750D01*
Y186250D01*
X133000Y185500D02*X133750Y186250D01*
X130750Y185500D02*X133000D01*
X135550Y188500D02*Y183250D01*
X136300Y182500D01*
X140050Y185500D02*X140800Y184750D01*
X138550Y185500D02*X140050D01*
X137800Y184750D02*X138550Y185500D01*
X137800Y184750D02*Y183250D01*
X138550Y182500D01*
X140800Y185500D02*Y183250D01*
X141550Y182500D01*
X138550D02*X140050D01*
X140800Y183250D01*
X144100Y188500D02*Y183250D01*
X144850Y182500D01*
X143350Y186250D02*X144850D01*
X147100Y182500D02*X149350D01*
X146350Y183250D02*X147100Y182500D01*
X146350Y184750D02*Y183250D01*
Y184750D02*X147100Y185500D01*
X148600D01*
X149350Y184750D01*
X146350Y184000D02*X149350D01*
Y184750D02*Y184000D01*
X154150Y188500D02*Y182500D01*
X153400D02*X154150Y183250D01*
X151900Y182500D02*X153400D01*
X151150Y183250D02*X151900Y182500D01*
X151150Y184750D02*Y183250D01*
Y184750D02*X151900Y185500D01*
X153400D01*
X154150Y184750D01*
X157450Y185500D02*Y184750D01*
Y183250D02*Y182500D01*
X155950Y187750D02*Y187000D01*
Y187750D02*X156700Y188500D01*
X158200D01*
X158950Y187750D01*
Y187000D01*
X157450Y185500D02*X158950Y187000D01*
X130000Y179250D02*X160750D01*
X0Y203500D02*X3000D01*
X1500D02*Y197500D01*
X4800Y203500D02*Y197500D01*
Y199750D02*X5550Y200500D01*
X7050D01*
X7800Y199750D01*
Y197500D01*
X10350D02*X12600D01*
X9600Y198250D02*X10350Y197500D01*
X9600Y199750D02*Y198250D01*
Y199750D02*X10350Y200500D01*
X11850D01*
X12600Y199750D01*
X9600Y199000D02*X12600D01*
Y199750D02*Y199000D01*
X15150Y199750D02*Y197500D01*
Y199750D02*X15900Y200500D01*
X17400D01*
X14400D02*X15150Y199750D01*
X19950Y197500D02*X22200D01*
X19200Y198250D02*X19950Y197500D01*
X19200Y199750D02*Y198250D01*
Y199750D02*X19950Y200500D01*
X21450D01*
X22200Y199750D01*
X19200Y199000D02*X22200D01*
Y199750D02*Y199000D01*
X28950Y200500D02*X29700Y199750D01*
X27450Y200500D02*X28950D01*
X26700Y199750D02*X27450Y200500D01*
X26700Y199750D02*Y198250D01*
X27450Y197500D01*
X29700Y200500D02*Y198250D01*
X30450Y197500D01*
X27450D02*X28950D01*
X29700Y198250D01*
X33000Y199750D02*Y197500D01*
Y199750D02*X33750Y200500D01*
X35250D01*
X32250D02*X33000Y199750D01*
X37800Y197500D02*X40050D01*
X37050Y198250D02*X37800Y197500D01*
X37050Y199750D02*Y198250D01*
Y199750D02*X37800Y200500D01*
X39300D01*
X40050Y199750D01*
X37050Y199000D02*X40050D01*
Y199750D02*Y199000D01*
X44550Y202750D02*X45300Y203500D01*
X46800D01*
X47550Y202750D01*
Y198250D01*
X46800Y197500D02*X47550Y198250D01*
X45300Y197500D02*X46800D01*
X44550Y198250D02*X45300Y197500D01*
Y200500D02*X47550D01*
X55050Y203500D02*Y197500D01*
X54300D02*X55050Y198250D01*
X52800Y197500D02*X54300D01*
X52050Y198250D02*X52800Y197500D01*
X52050Y199750D02*Y198250D01*
Y199750D02*X52800Y200500D01*
X54300D01*
X55050Y199750D01*
X56850Y202000D02*Y201250D01*
Y199750D02*Y197500D01*
X59100Y202750D02*Y197500D01*
Y202750D02*X59850Y203500D01*
X60600D01*
X58350Y200500D02*X59850D01*
X62850Y202750D02*Y197500D01*
Y202750D02*X63600Y203500D01*
X64350D01*
X62100Y200500D02*X63600D01*
X66600Y197500D02*X68850D01*
X65850Y198250D02*X66600Y197500D01*
X65850Y199750D02*Y198250D01*
Y199750D02*X66600Y200500D01*
X68100D01*
X68850Y199750D01*
X65850Y199000D02*X68850D01*
Y199750D02*Y199000D01*
X71400Y199750D02*Y197500D01*
Y199750D02*X72150Y200500D01*
X73650D01*
X70650D02*X71400Y199750D01*
X76200Y197500D02*X78450D01*
X75450Y198250D02*X76200Y197500D01*
X75450Y199750D02*Y198250D01*
Y199750D02*X76200Y200500D01*
X77700D01*
X78450Y199750D01*
X75450Y199000D02*X78450D01*
Y199750D02*Y199000D01*
X81000Y199750D02*Y197500D01*
Y199750D02*X81750Y200500D01*
X82500D01*
X83250Y199750D01*
Y197500D01*
X80250Y200500D02*X81000Y199750D01*
X85800Y203500D02*Y198250D01*
X86550Y197500D01*
X85050Y201250D02*X86550D01*
X93750Y203500D02*Y197500D01*
X93000D02*X93750Y198250D01*
X91500Y197500D02*X93000D01*
X90750Y198250D02*X91500Y197500D01*
X90750Y199750D02*Y198250D01*
Y199750D02*X91500Y200500D01*
X93000D01*
X93750Y199750D01*
X96300D02*Y197500D01*
Y199750D02*X97050Y200500D01*
X98550D01*
X95550D02*X96300Y199750D01*
X100350Y202000D02*Y201250D01*
Y199750D02*Y197500D01*
X101850Y203500D02*Y198250D01*
X102600Y197500D01*
X104100Y203500D02*Y198250D01*
X104850Y197500D01*
X109800D02*X112050D01*
X112800Y198250D01*
X112050Y199000D02*X112800Y198250D01*
X109800Y199000D02*X112050D01*
X109050Y199750D02*X109800Y199000D01*
X109050Y199750D02*X109800Y200500D01*
X112050D01*
X112800Y199750D01*
X109050Y198250D02*X109800Y197500D01*
X114600Y202000D02*Y201250D01*
Y199750D02*Y197500D01*
X116100Y200500D02*X119100D01*
X116100Y197500D02*X119100Y200500D01*
X116100Y197500D02*X119100D01*
X121650D02*X123900D01*
X120900Y198250D02*X121650Y197500D01*
X120900Y199750D02*Y198250D01*
Y199750D02*X121650Y200500D01*
X123150D01*
X123900Y199750D01*
X120900Y199000D02*X123900D01*
Y199750D02*Y199000D01*
X126450Y197500D02*X128700D01*
X129450Y198250D01*
X128700Y199000D02*X129450Y198250D01*
X126450Y199000D02*X128700D01*
X125700Y199750D02*X126450Y199000D01*
X125700Y199750D02*X126450Y200500D01*
X128700D01*
X129450Y199750D01*
X125700Y198250D02*X126450Y197500D01*
X133950Y200500D02*Y198250D01*
X134700Y197500D01*
X136200D01*
X136950Y198250D01*
Y200500D02*Y198250D01*
X139500Y197500D02*X141750D01*
X142500Y198250D01*
X141750Y199000D02*X142500Y198250D01*
X139500Y199000D02*X141750D01*
X138750Y199750D02*X139500Y199000D01*
X138750Y199750D02*X139500Y200500D01*
X141750D01*
X142500Y199750D01*
X138750Y198250D02*X139500Y197500D01*
X145050D02*X147300D01*
X144300Y198250D02*X145050Y197500D01*
X144300Y199750D02*Y198250D01*
Y199750D02*X145050Y200500D01*
X146550D01*
X147300Y199750D01*
X144300Y199000D02*X147300D01*
Y199750D02*Y199000D01*
X152100Y203500D02*Y197500D01*
X151350D02*X152100Y198250D01*
X149850Y197500D02*X151350D01*
X149100Y198250D02*X149850Y197500D01*
X149100Y199750D02*Y198250D01*
Y199750D02*X149850Y200500D01*
X151350D01*
X152100Y199750D01*
X156600Y202000D02*Y201250D01*
Y199750D02*Y197500D01*
X158850Y199750D02*Y197500D01*
Y199750D02*X159600Y200500D01*
X160350D01*
X161100Y199750D01*
Y197500D01*
X158100Y200500D02*X158850Y199750D01*
X166350Y203500D02*Y198250D01*
X167100Y197500D01*
X165600Y201250D02*X167100D01*
X168600Y203500D02*Y197500D01*
Y199750D02*X169350Y200500D01*
X170850D01*
X171600Y199750D01*
Y197500D01*
X173400Y202000D02*Y201250D01*
Y199750D02*Y197500D01*
X175650D02*X177900D01*
X178650Y198250D01*
X177900Y199000D02*X178650Y198250D01*
X175650Y199000D02*X177900D01*
X174900Y199750D02*X175650Y199000D01*
X174900Y199750D02*X175650Y200500D01*
X177900D01*
X178650Y199750D01*
X174900Y198250D02*X175650Y197500D01*
X183150Y203500D02*Y198250D01*
X183900Y197500D01*
X187650Y200500D02*X188400Y199750D01*
X186150Y200500D02*X187650D01*
X185400Y199750D02*X186150Y200500D01*
X185400Y199750D02*Y198250D01*
X186150Y197500D01*
X188400Y200500D02*Y198250D01*
X189150Y197500D01*
X186150D02*X187650D01*
X188400Y198250D01*
X190950Y200500D02*Y198250D01*
X191700Y197500D01*
X193950Y200500D02*Y196000D01*
X193200Y195250D02*X193950Y196000D01*
X191700Y195250D02*X193200D01*
X190950Y196000D02*X191700Y195250D01*
Y197500D02*X193200D01*
X193950Y198250D01*
X195750Y199750D02*Y198250D01*
Y199750D02*X196500Y200500D01*
X198000D01*
X198750Y199750D01*
Y198250D01*
X198000Y197500D02*X198750Y198250D01*
X196500Y197500D02*X198000D01*
X195750Y198250D02*X196500Y197500D01*
X200550Y200500D02*Y198250D01*
X201300Y197500D01*
X202800D01*
X203550Y198250D01*
Y200500D02*Y198250D01*
X206100Y203500D02*Y198250D01*
X206850Y197500D01*
X205350Y201250D02*X206850D01*
X208350Y196000D02*X209850Y197500D01*
X214350Y200500D02*X217350Y203500D01*
X214350Y200500D02*X218100D01*
X217350Y203500D02*Y197500D01*
X219900Y202750D02*X220650Y203500D01*
X222150D01*
X222900Y202750D01*
Y198250D01*
X222150Y197500D02*X222900Y198250D01*
X220650Y197500D02*X222150D01*
X219900Y198250D02*X220650Y197500D01*
Y200500D02*X222900D01*
X227400Y203500D02*Y197500D01*
Y199750D02*X228150Y200500D01*
X229650D01*
X230400Y199750D01*
Y197500D01*
X232200Y199750D02*Y198250D01*
Y199750D02*X232950Y200500D01*
X234450D01*
X235200Y199750D01*
Y198250D01*
X234450Y197500D02*X235200Y198250D01*
X232950Y197500D02*X234450D01*
X232200Y198250D02*X232950Y197500D01*
X237000Y203500D02*Y198250D01*
X237750Y197500D01*
X240000D02*X242250D01*
X239250Y198250D02*X240000Y197500D01*
X239250Y199750D02*Y198250D01*
Y199750D02*X240000Y200500D01*
X241500D01*
X242250Y199750D01*
X239250Y199000D02*X242250D01*
Y199750D02*Y199000D01*
X244800Y197500D02*X247050D01*
X247800Y198250D01*
X247050Y199000D02*X247800Y198250D01*
X244800Y199000D02*X247050D01*
X244050Y199750D02*X244800Y199000D01*
X244050Y199750D02*X244800Y200500D01*
X247050D01*
X247800Y199750D01*
X244050Y198250D02*X244800Y197500D01*
X253050Y203500D02*Y198250D01*
X253800Y197500D01*
X252300Y201250D02*X253800D01*
X255300Y199750D02*Y198250D01*
Y199750D02*X256050Y200500D01*
X257550D01*
X258300Y199750D01*
Y198250D01*
X257550Y197500D02*X258300Y198250D01*
X256050Y197500D02*X257550D01*
X255300Y198250D02*X256050Y197500D01*
X260850Y203500D02*Y198250D01*
X261600Y197500D01*
X260100Y201250D02*X261600D01*
X265350Y200500D02*X266100Y199750D01*
X263850Y200500D02*X265350D01*
X263100Y199750D02*X263850Y200500D01*
X263100Y199750D02*Y198250D01*
X263850Y197500D01*
X266100Y200500D02*Y198250D01*
X266850Y197500D01*
X263850D02*X265350D01*
X266100Y198250D01*
X268650Y203500D02*Y198250D01*
X269400Y197500D01*
G54D47*X0Y115000D02*Y0D01*
X260000D01*
Y115000D01*
X0D01*
G54D46*X43675Y-9500D02*X46675D01*
X47425Y-8750D01*
Y-7250D02*Y-8750D01*
X46675Y-6500D02*X47425Y-7250D01*
X44425Y-6500D02*X46675D01*
X44425Y-3500D02*Y-9500D01*
X43675Y-3500D02*X46675D01*
X47425Y-4250D01*
Y-5750D01*
X46675Y-6500D02*X47425Y-5750D01*
X49225Y-7250D02*Y-8750D01*
Y-7250D02*X49975Y-6500D01*
X51475D01*
X52225Y-7250D01*
Y-8750D01*
X51475Y-9500D02*X52225Y-8750D01*
X49975Y-9500D02*X51475D01*
X49225Y-8750D02*X49975Y-9500D01*
X56275Y-6500D02*X57025Y-7250D01*
X54775Y-6500D02*X56275D01*
X54025Y-7250D02*X54775Y-6500D01*
X54025Y-7250D02*Y-8750D01*
X54775Y-9500D01*
X57025Y-6500D02*Y-8750D01*
X57775Y-9500D01*
X54775D02*X56275D01*
X57025Y-8750D01*
X60325Y-7250D02*Y-9500D01*
Y-7250D02*X61075Y-6500D01*
X62575D01*
X59575D02*X60325Y-7250D01*
X67375Y-3500D02*Y-9500D01*
X66625D02*X67375Y-8750D01*
X65125Y-9500D02*X66625D01*
X64375Y-8750D02*X65125Y-9500D01*
X64375Y-7250D02*Y-8750D01*
Y-7250D02*X65125Y-6500D01*
X66625D01*
X67375Y-7250D01*
X71875D02*Y-8750D01*
Y-7250D02*X72625Y-6500D01*
X74125D01*
X74875Y-7250D01*
Y-8750D01*
X74125Y-9500D02*X74875Y-8750D01*
X72625Y-9500D02*X74125D01*
X71875Y-8750D02*X72625Y-9500D01*
X76675Y-6500D02*Y-8750D01*
X77425Y-9500D01*
X78925D01*
X79675Y-8750D01*
Y-6500D02*Y-8750D01*
X82225Y-3500D02*Y-8750D01*
X82975Y-9500D01*
X81475Y-5750D02*X82975D01*
X84475Y-3500D02*Y-8750D01*
X85225Y-9500D01*
X86725Y-5000D02*Y-5750D01*
Y-7250D02*Y-9500D01*
X88975Y-7250D02*Y-9500D01*
Y-7250D02*X89725Y-6500D01*
X90475D01*
X91225Y-7250D01*
Y-9500D01*
X88225Y-6500D02*X88975Y-7250D01*
X93775Y-9500D02*X96025D01*
X93025Y-8750D02*X93775Y-9500D01*
X93025Y-7250D02*Y-8750D01*
Y-7250D02*X93775Y-6500D01*
X95275D01*
X96025Y-7250D01*
X93025Y-8000D02*X96025D01*
Y-7250D02*Y-8000D01*
X100525Y-5000D02*Y-5750D01*
Y-7250D02*Y-9500D01*
X102775D02*X105025D01*
X105775Y-8750D01*
X105025Y-8000D02*X105775Y-8750D01*
X102775Y-8000D02*X105025D01*
X102025Y-7250D02*X102775Y-8000D01*
X102025Y-7250D02*X102775Y-6500D01*
X105025D01*
X105775Y-7250D01*
X102025Y-8750D02*X102775Y-9500D01*
X111025Y-3500D02*Y-8750D01*
X111775Y-9500D01*
X110275Y-5750D02*X111775D01*
X113275Y-3500D02*Y-9500D01*
Y-7250D02*X114025Y-6500D01*
X115525D01*
X116275Y-7250D01*
Y-9500D01*
X118825D02*X121075D01*
X118075Y-8750D02*X118825Y-9500D01*
X118075Y-7250D02*Y-8750D01*
Y-7250D02*X118825Y-6500D01*
X120325D01*
X121075Y-7250D01*
X118075Y-8000D02*X121075D01*
Y-7250D02*Y-8000D01*
X126325Y-6500D02*X128575D01*
X125575Y-7250D02*X126325Y-6500D01*
X125575Y-7250D02*Y-8750D01*
X126325Y-9500D01*
X128575D01*
X131125D02*X133375D01*
X130375Y-8750D02*X131125Y-9500D01*
X130375Y-7250D02*Y-8750D01*
Y-7250D02*X131125Y-6500D01*
X132625D01*
X133375Y-7250D01*
X130375Y-8000D02*X133375D01*
Y-7250D02*Y-8000D01*
X135925Y-7250D02*Y-9500D01*
Y-7250D02*X136675Y-6500D01*
X137425D01*
X138175Y-7250D01*
Y-9500D01*
X135175Y-6500D02*X135925Y-7250D01*
X140725Y-3500D02*Y-8750D01*
X141475Y-9500D01*
X139975Y-5750D02*X141475D01*
X143725Y-9500D02*X145975D01*
X142975Y-8750D02*X143725Y-9500D01*
X142975Y-7250D02*Y-8750D01*
Y-7250D02*X143725Y-6500D01*
X145225D01*
X145975Y-7250D01*
X142975Y-8000D02*X145975D01*
Y-7250D02*Y-8000D01*
X148525Y-7250D02*Y-9500D01*
Y-7250D02*X149275Y-6500D01*
X150775D01*
X147775D02*X148525Y-7250D01*
X152575Y-3500D02*Y-8750D01*
X153325Y-9500D01*
X154825Y-5000D02*Y-5750D01*
Y-7250D02*Y-9500D01*
X157075Y-7250D02*Y-9500D01*
Y-7250D02*X157825Y-6500D01*
X158575D01*
X159325Y-7250D01*
Y-9500D01*
X156325Y-6500D02*X157075Y-7250D01*
X161875Y-9500D02*X164125D01*
X161125Y-8750D02*X161875Y-9500D01*
X161125Y-7250D02*Y-8750D01*
Y-7250D02*X161875Y-6500D01*
X163375D01*
X164125Y-7250D01*
X161125Y-8000D02*X164125D01*
Y-7250D02*Y-8000D01*
X168625Y-7250D02*Y-8750D01*
Y-7250D02*X169375Y-6500D01*
X170875D01*
X171625Y-7250D01*
Y-8750D01*
X170875Y-9500D02*X171625Y-8750D01*
X169375Y-9500D02*X170875D01*
X168625Y-8750D02*X169375Y-9500D01*
X174175Y-4250D02*Y-9500D01*
Y-4250D02*X174925Y-3500D01*
X175675D01*
X173425Y-6500D02*X174925D01*
X180625Y-3500D02*Y-8750D01*
X181375Y-9500D01*
X179875Y-5750D02*X181375D01*
X182875Y-3500D02*Y-9500D01*
Y-7250D02*X183625Y-6500D01*
X185125D01*
X185875Y-7250D01*
Y-9500D01*
X187675Y-5000D02*Y-5750D01*
Y-7250D02*Y-9500D01*
X189925D02*X192175D01*
X192925Y-8750D01*
X192175Y-8000D02*X192925Y-8750D01*
X189925Y-8000D02*X192175D01*
X189175Y-7250D02*X189925Y-8000D01*
X189175Y-7250D02*X189925Y-6500D01*
X192175D01*
X192925Y-7250D01*
X189175Y-8750D02*X189925Y-9500D01*
X198175Y-7250D02*Y-11750D01*
X197425Y-6500D02*X198175Y-7250D01*
X198925Y-6500D01*
X200425D01*
X201175Y-7250D01*
Y-8750D01*
X200425Y-9500D02*X201175Y-8750D01*
X198925Y-9500D02*X200425D01*
X198175Y-8750D02*X198925Y-9500D01*
X205225Y-6500D02*X205975Y-7250D01*
X203725Y-6500D02*X205225D01*
X202975Y-7250D02*X203725Y-6500D01*
X202975Y-7250D02*Y-8750D01*
X203725Y-9500D01*
X205975Y-6500D02*Y-8750D01*
X206725Y-9500D01*
X203725D02*X205225D01*
X205975Y-8750D01*
X209275Y-3500D02*Y-8750D01*
X210025Y-9500D01*
X208525Y-5750D02*X210025D01*
X211525Y-3500D02*Y-9500D01*
Y-7250D02*X212275Y-6500D01*
X213775D01*
X214525Y-7250D01*
Y-9500D01*
X200750Y143500D02*Y137500D01*
X203000Y143500D02*X203750Y142750D01*
Y138250D01*
X203000Y137500D02*X203750Y138250D01*
X200000Y137500D02*X203000D01*
X200000Y143500D02*X203000D01*
X207800Y140500D02*X208550Y139750D01*
X206300Y140500D02*X207800D01*
X205550Y139750D02*X206300Y140500D01*
X205550Y139750D02*Y138250D01*
X206300Y137500D01*
X208550Y140500D02*Y138250D01*
X209300Y137500D01*
X206300D02*X207800D01*
X208550Y138250D01*
X211850Y143500D02*Y138250D01*
X212600Y137500D01*
X211100Y141250D02*X212600D01*
X214850Y137500D02*X217100D01*
X214100Y138250D02*X214850Y137500D01*
X214100Y139750D02*Y138250D01*
Y139750D02*X214850Y140500D01*
X216350D01*
X217100Y139750D01*
X214100Y139000D02*X217100D01*
Y139750D02*Y139000D01*
X218900Y141250D02*X219650D01*
X218900Y139750D02*X219650D01*
X224150Y143500D02*Y137500D01*
Y143500D02*X227150D01*
X224150Y140500D02*X226400D01*
X229700Y139750D02*Y137500D01*
Y139750D02*X230450Y140500D01*
X231950D01*
X228950D02*X229700Y139750D01*
X233750Y142000D02*Y141250D01*
Y139750D02*Y137500D01*
X237950Y142750D02*Y137500D01*
Y142750D02*X238700Y143500D01*
X240950D01*
X241700Y142750D01*
Y137500D01*
X237950Y140500D02*X241700D01*
X243500D02*Y138250D01*
X244250Y137500D01*
X245750D01*
X246500Y138250D01*
Y140500D02*Y138250D01*
X250550Y140500D02*X251300Y139750D01*
X249050Y140500D02*X250550D01*
X248300Y139750D02*X249050Y140500D01*
X248300Y139750D02*Y138250D01*
X249050Y137500D01*
X250550D01*
X251300Y138250D01*
X248300Y136000D02*X249050Y135250D01*
X250550D01*
X251300Y136000D01*
Y140500D02*Y136000D01*
X256550Y137500D02*X258050D01*
X257300Y143500D02*Y137500D01*
X255800Y142000D02*X257300Y143500D01*
X259850Y138250D02*X260600Y137500D01*
X259850Y142750D02*Y138250D01*
Y142750D02*X260600Y143500D01*
X262100D01*
X262850Y142750D01*
Y138250D01*
X262100Y137500D02*X262850Y138250D01*
X260600Y137500D02*X262100D01*
X259850Y139000D02*X262850Y142000D01*
X267350Y142750D02*X268100Y143500D01*
X270350D01*
X271100Y142750D01*
Y141250D01*
X267350Y137500D02*X271100Y141250D01*
X267350Y137500D02*X271100D01*
X272900Y138250D02*X273650Y137500D01*
X272900Y142750D02*Y138250D01*
Y142750D02*X273650Y143500D01*
X275150D01*
X275900Y142750D01*
Y138250D01*
X275150Y137500D02*X275900Y138250D01*
X273650Y137500D02*X275150D01*
X272900Y139000D02*X275900Y142000D01*
X277700Y141250D02*X278450D01*
X277700Y139750D02*X278450D01*
X280250Y138250D02*X281000Y137500D01*
X280250Y142750D02*Y138250D01*
Y142750D02*X281000Y143500D01*
X282500D01*
X283250Y142750D01*
Y138250D01*
X282500Y137500D02*X283250Y138250D01*
X281000Y137500D02*X282500D01*
X280250Y139000D02*X283250Y142000D01*
X287300Y143500D02*X288050Y142750D01*
X285800Y143500D02*X287300D01*
X285050Y142750D02*X285800Y143500D01*
X285050Y142750D02*Y138250D01*
X285800Y137500D01*
X287300Y140500D02*X288050Y139750D01*
X285050Y140500D02*X287300D01*
X285800Y137500D02*X287300D01*
X288050Y138250D01*
Y139750D02*Y138250D01*
X289850Y141250D02*X290600D01*
X289850Y139750D02*X290600D01*
X292400Y142750D02*X293150Y143500D01*
X295400D01*
X296150Y142750D01*
Y141250D01*
X292400Y137500D02*X296150Y141250D01*
X292400Y137500D02*X296150D01*
X297950Y143500D02*X300950D01*
X297950D02*Y140500D01*
X298700Y141250D01*
X300200D01*
X300950Y140500D01*
Y138250D01*
X300200Y137500D02*X300950Y138250D01*
X298700Y137500D02*X300200D01*
X297950Y138250D02*X298700Y137500D01*
X305450Y142750D02*X306200Y143500D01*
X308450D01*
X309200Y142750D01*
Y141250D01*
X305450Y137500D02*X309200Y141250D01*
X305450Y137500D02*X309200D01*
X311000Y138250D02*X311750Y137500D01*
X311000Y142750D02*Y138250D01*
Y142750D02*X311750Y143500D01*
X313250D01*
X314000Y142750D01*
Y138250D01*
X313250Y137500D02*X314000Y138250D01*
X311750Y137500D02*X313250D01*
X311000Y139000D02*X314000Y142000D01*
X316550Y137500D02*X318050D01*
X317300Y143500D02*Y137500D01*
X315800Y142000D02*X317300Y143500D01*
X319850Y138250D02*X320600Y137500D01*
X319850Y139750D02*Y138250D01*
Y139750D02*X320600Y140500D01*
X322100D01*
X322850Y139750D01*
Y138250D01*
X322100Y137500D02*X322850Y138250D01*
X320600Y137500D02*X322100D01*
X319850Y141250D02*X320600Y140500D01*
X319850Y142750D02*Y141250D01*
Y142750D02*X320600Y143500D01*
X322100D01*
X322850Y142750D01*
Y141250D01*
X322100Y140500D02*X322850Y141250D01*
X327350Y143500D02*Y138250D01*
X328100Y137500D01*
X329600D01*
X330350Y138250D01*
Y143500D02*Y138250D01*
X332150Y143500D02*X335150D01*
X333650D02*Y137500D01*
X337700D02*X339950D01*
X336950Y138250D02*X337700Y137500D01*
X336950Y142750D02*Y138250D01*
Y142750D02*X337700Y143500D01*
X339950D01*
X200000Y157750D02*Y152500D01*
Y157750D02*X200750Y158500D01*
X203000D01*
X203750Y157750D01*
Y152500D01*
X200000Y155500D02*X203750D01*
X205550D02*Y153250D01*
X206300Y152500D01*
X207800D01*
X208550Y153250D01*
Y155500D02*Y153250D01*
X211100Y158500D02*Y153250D01*
X211850Y152500D01*
X210350Y156250D02*X211850D01*
X213350Y158500D02*Y152500D01*
Y154750D02*X214100Y155500D01*
X215600D01*
X216350Y154750D01*
Y152500D01*
X218150Y154750D02*Y153250D01*
Y154750D02*X218900Y155500D01*
X220400D01*
X221150Y154750D01*
Y153250D01*
X220400Y152500D02*X221150Y153250D01*
X218900Y152500D02*X220400D01*
X218150Y153250D02*X218900Y152500D01*
X223700Y154750D02*Y152500D01*
Y154750D02*X224450Y155500D01*
X225950D01*
X222950D02*X223700Y154750D01*
X227750Y156250D02*X228500D01*
X227750Y154750D02*X228500D01*
X233000Y152500D02*X236000D01*
X236750Y153250D01*
Y154750D02*Y153250D01*
X236000Y155500D02*X236750Y154750D01*
X233750Y155500D02*X236000D01*
X233750Y158500D02*Y152500D01*
X233000Y158500D02*X236000D01*
X236750Y157750D01*
Y156250D01*
X236000Y155500D02*X236750Y156250D01*
X239300Y152500D02*X241550D01*
X238550Y153250D02*X239300Y152500D01*
X238550Y154750D02*Y153250D01*
Y154750D02*X239300Y155500D01*
X240800D01*
X241550Y154750D01*
X238550Y154000D02*X241550D01*
Y154750D02*Y154000D01*
X244100Y154750D02*Y152500D01*
Y154750D02*X244850Y155500D01*
X246350D01*
X243350D02*X244100Y154750D01*
X248900Y158500D02*Y153250D01*
X249650Y152500D01*
X248150Y156250D02*X249650D01*
X253850Y158500D02*X256850D01*
X255350D02*Y152500D01*
X258650Y157000D02*Y156250D01*
Y154750D02*Y152500D01*
X260900Y154750D02*Y152500D01*
Y154750D02*X261650Y155500D01*
X262400D01*
X263150Y154750D01*
Y152500D01*
Y154750D02*X263900Y155500D01*
X264650D01*
X265400Y154750D01*
Y152500D01*
X260150Y155500D02*X260900Y154750D01*
X267950D02*Y152500D01*
Y154750D02*X268700Y155500D01*
X269450D01*
X270200Y154750D01*
Y152500D01*
Y154750D02*X270950Y155500D01*
X271700D01*
X272450Y154750D01*
Y152500D01*
X267200Y155500D02*X267950Y154750D01*
X275000Y152500D02*X277250D01*
X274250Y153250D02*X275000Y152500D01*
X274250Y154750D02*Y153250D01*
Y154750D02*X275000Y155500D01*
X276500D01*
X277250Y154750D01*
X274250Y154000D02*X277250D01*
Y154750D02*Y154000D01*
X279800Y154750D02*Y152500D01*
Y154750D02*X280550Y155500D01*
X282050D01*
X279050D02*X279800Y154750D01*
X284600D02*Y152500D01*
Y154750D02*X285350Y155500D01*
X286100D01*
X286850Y154750D01*
Y152500D01*
Y154750D02*X287600Y155500D01*
X288350D01*
X289100Y154750D01*
Y152500D01*
X283850Y155500D02*X284600Y154750D01*
X293150Y155500D02*X293900Y154750D01*
X291650Y155500D02*X293150D01*
X290900Y154750D02*X291650Y155500D01*
X290900Y154750D02*Y153250D01*
X291650Y152500D01*
X293900Y155500D02*Y153250D01*
X294650Y152500D01*
X291650D02*X293150D01*
X293900Y153250D01*
X297200Y154750D02*Y152500D01*
Y154750D02*X297950Y155500D01*
X298700D01*
X299450Y154750D01*
Y152500D01*
X296450Y155500D02*X297200Y154750D01*
X200000Y173500D02*X203000D01*
X201500D02*Y167500D01*
X204800Y172000D02*Y171250D01*
Y169750D02*Y167500D01*
X207050Y173500D02*Y168250D01*
X207800Y167500D01*
X206300Y171250D02*X207800D01*
X209300Y173500D02*Y168250D01*
X210050Y167500D01*
X212300D02*X214550D01*
X211550Y168250D02*X212300Y167500D01*
X211550Y169750D02*Y168250D01*
Y169750D02*X212300Y170500D01*
X213800D01*
X214550Y169750D01*
X211550Y169000D02*X214550D01*
Y169750D02*Y169000D01*
X216350Y171250D02*X217100D01*
X216350Y169750D02*X217100D01*
X221600Y172750D02*X222350Y173500D01*
X224600D01*
X225350Y172750D01*
Y171250D01*
X221600Y167500D02*X225350Y171250D01*
X221600Y167500D02*X225350D01*
X229400Y173500D02*X230150Y172750D01*
X227900Y173500D02*X229400D01*
X227150Y172750D02*X227900Y173500D01*
X227150Y172750D02*Y168250D01*
X227900Y167500D01*
X229400Y170500D02*X230150Y169750D01*
X227150Y170500D02*X229400D01*
X227900Y167500D02*X229400D01*
X230150Y168250D01*
Y169750D02*Y168250D01*
X231950Y167500D02*X232700D01*
X234500Y168250D02*X235250Y167500D01*
X234500Y172750D02*Y168250D01*
Y172750D02*X235250Y173500D01*
X236750D01*
X237500Y172750D01*
Y168250D01*
X236750Y167500D02*X237500Y168250D01*
X235250Y167500D02*X236750D01*
X234500Y169000D02*X237500Y172000D01*
X239300Y168250D02*X240050Y167500D01*
X239300Y172750D02*Y168250D01*
Y172750D02*X240050Y173500D01*
X241550D01*
X242300Y172750D01*
Y168250D01*
X241550Y167500D02*X242300Y168250D01*
X240050Y167500D02*X241550D01*
X239300Y169000D02*X242300Y172000D01*
X244100Y167500D02*X247850Y171250D01*
Y173500D02*Y171250D01*
X244100Y173500D02*X247850D01*
X249650Y167500D02*X250400D01*
X252200Y168250D02*X252950Y167500D01*
X252200Y172750D02*Y168250D01*
Y172750D02*X252950Y173500D01*
X254450D01*
X255200Y172750D01*
Y168250D01*
X254450Y167500D02*X255200Y168250D01*
X252950Y167500D02*X254450D01*
X252200Y169000D02*X255200Y172000D01*
X257750Y167500D02*X259250D01*
X258500Y173500D02*Y167500D01*
X257000Y172000D02*X258500Y173500D01*
X261050Y167500D02*X261800D01*
X263600Y168250D02*X264350Y167500D01*
X263600Y172750D02*Y168250D01*
Y172750D02*X264350Y173500D01*
X265850D01*
X266600Y172750D01*
Y168250D01*
X265850Y167500D02*X266600Y168250D01*
X264350Y167500D02*X265850D01*
X263600Y169000D02*X266600Y172000D01*
X269150Y167500D02*X270650D01*
X269900Y173500D02*Y167500D01*
X268400Y172000D02*X269900Y173500D01*
X272450Y167500D02*X273200D01*
X275000Y168250D02*X275750Y167500D01*
X275000Y172750D02*Y168250D01*
Y172750D02*X275750Y173500D01*
X277250D01*
X278000Y172750D01*
Y168250D01*
X277250Y167500D02*X278000Y168250D01*
X275750Y167500D02*X277250D01*
X275000Y169000D02*X278000Y172000D01*
X280550Y167500D02*X282050D01*
X281300Y173500D02*Y167500D01*
X279800Y172000D02*X281300Y173500D01*
X286550Y170500D02*X289550D01*
X294050Y173500D02*Y167500D01*
Y173500D02*X297050D01*
X294050Y170500D02*X296300D01*
X301100D02*X301850Y169750D01*
X299600Y170500D02*X301100D01*
X298850Y169750D02*X299600Y170500D01*
X298850Y169750D02*Y168250D01*
X299600Y167500D01*
X301850Y170500D02*Y168250D01*
X302600Y167500D01*
X299600D02*X301100D01*
X301850Y168250D01*
X304400Y173500D02*Y167500D01*
Y168250D02*X305150Y167500D01*
X306650D01*
X307400Y168250D01*
Y169750D02*Y168250D01*
X306650Y170500D02*X307400Y169750D01*
X305150Y170500D02*X306650D01*
X304400Y169750D02*X305150Y170500D01*
X309950Y169750D02*Y167500D01*
Y169750D02*X310700Y170500D01*
X312200D01*
X309200D02*X309950Y169750D01*
X314000Y172000D02*Y171250D01*
Y169750D02*Y167500D01*
X316250Y170500D02*X318500D01*
X315500Y169750D02*X316250Y170500D01*
X315500Y169750D02*Y168250D01*
X316250Y167500D01*
X318500D01*
X322550Y170500D02*X323300Y169750D01*
X321050Y170500D02*X322550D01*
X320300Y169750D02*X321050Y170500D01*
X320300Y169750D02*Y168250D01*
X321050Y167500D01*
X323300Y170500D02*Y168250D01*
X324050Y167500D01*
X321050D02*X322550D01*
X323300Y168250D01*
X326600Y173500D02*Y168250D01*
X327350Y167500D01*
X325850Y171250D02*X327350D01*
X328850Y172000D02*Y171250D01*
Y169750D02*Y167500D01*
X330350Y169750D02*Y168250D01*
Y169750D02*X331100Y170500D01*
X332600D01*
X333350Y169750D01*
Y168250D01*
X332600Y167500D02*X333350Y168250D01*
X331100Y167500D02*X332600D01*
X330350Y168250D02*X331100Y167500D01*
X335900Y169750D02*Y167500D01*
Y169750D02*X336650Y170500D01*
X337400D01*
X338150Y169750D01*
Y167500D01*
X335150Y170500D02*X335900Y169750D01*
X343400Y173500D02*Y167500D01*
X345650Y173500D02*X346400Y172750D01*
Y168250D01*
X345650Y167500D02*X346400Y168250D01*
X342650Y167500D02*X345650D01*
X342650Y173500D02*X345650D01*
X348950Y169750D02*Y167500D01*
Y169750D02*X349700Y170500D01*
X351200D01*
X348200D02*X348950Y169750D01*
X355250Y170500D02*X356000Y169750D01*
X353750Y170500D02*X355250D01*
X353000Y169750D02*X353750Y170500D01*
X353000Y169750D02*Y168250D01*
X353750Y167500D01*
X356000Y170500D02*Y168250D01*
X356750Y167500D01*
X353750D02*X355250D01*
X356000Y168250D01*
X358550Y170500D02*Y168250D01*
X359300Y167500D01*
X360050D01*
X360800Y168250D01*
Y170500D02*Y168250D01*
X361550Y167500D01*
X362300D01*
X363050Y168250D01*
Y170500D02*Y168250D01*
X364850Y172000D02*Y171250D01*
Y169750D02*Y167500D01*
X367100Y169750D02*Y167500D01*
Y169750D02*X367850Y170500D01*
X368600D01*
X369350Y169750D01*
Y167500D01*
X366350Y170500D02*X367100Y169750D01*
X373400Y170500D02*X374150Y169750D01*
X371900Y170500D02*X373400D01*
X371150Y169750D02*X371900Y170500D01*
X371150Y169750D02*Y168250D01*
X371900Y167500D01*
X373400D01*
X374150Y168250D01*
X371150Y166000D02*X371900Y165250D01*
X373400D01*
X374150Y166000D01*
Y170500D02*Y166000D01*
M02*
