G04 start of page 11 for group -4078 idx -4078 *
G04 Title: 26.002.00.01.01.pcb, bottomsilk *
G04 Creator: pcb 4.2.2 *
G04 CreationDate: Sat Feb 13 13:51:23 2021 UTC *
G04 For: bert *
G04 Format: Gerber/RS-274X *
G04 PCB-Dimensions (mil): 2440.94 4527.56 *
G04 PCB-Coordinate-Origin: lower left *
%MOIN*%
%FSLAX25Y25*%
%LNGBO*%
%ADD156C,0.0046*%
%ADD155C,0.0047*%
%ADD154C,0.0040*%
%ADD153C,0.0046*%
%ADD152C,0.0048*%
%ADD151C,0.0041*%
%ADD150C,0.0041*%
%ADD149C,0.0041*%
%ADD148C,0.0042*%
%ADD147C,0.0042*%
%ADD146C,0.0042*%
%ADD145C,0.0041*%
%ADD144C,0.0043*%
%ADD143C,0.0042*%
%ADD142C,0.0041*%
%ADD141C,0.0042*%
%ADD140C,0.0041*%
%ADD139C,0.0041*%
%ADD138C,0.0041*%
%ADD137C,0.0046*%
%ADD136C,0.0047*%
%ADD135C,0.0043*%
%ADD134C,0.0044*%
%ADD133C,0.0044*%
%ADD132C,0.0043*%
%ADD131C,0.0045*%
%ADD130C,0.0045*%
%ADD129C,0.0045*%
%ADD128C,0.0045*%
%ADD127C,0.0044*%
%ADD126C,0.0043*%
%ADD125C,0.0043*%
%ADD124C,0.0042*%
%ADD123C,0.0043*%
%ADD122C,0.0044*%
%ADD121C,0.0044*%
%ADD120C,0.0044*%
%ADD119C,0.0044*%
%ADD118C,0.0044*%
%ADD117C,0.0044*%
%ADD116C,0.0043*%
%ADD115C,0.0043*%
%ADD114C,0.0043*%
%ADD113C,0.0043*%
%ADD112C,0.0042*%
%ADD111C,0.0042*%
%ADD110C,0.0042*%
%ADD109C,0.0049*%
%ADD108C,0.0080*%
%ADD107C,0.0001*%
G54D107*G36*
X118164Y252394D02*X120741D01*
X120824Y252362D01*
X120871Y252286D01*
X120920Y252047D01*
X120964Y251825D01*
X121355Y249693D01*
X121402Y249605D01*
X121485Y249547D01*
X121588Y249503D01*
X122378Y249232D01*
X123128Y248874D01*
X123134D01*
X123221Y248836D01*
X123318Y248822D01*
X123416Y248853D01*
X125189Y250072D01*
X125380Y250197D01*
X125581Y250333D01*
X125667Y250358D01*
X125749Y250322D01*
X126080Y249992D01*
X126584Y249492D01*
X126742Y249329D01*
X127241Y248831D01*
X127403Y248674D01*
X127571Y248500D01*
X127610Y248415D01*
X127588Y248326D01*
X127452Y248125D01*
X127323Y247935D01*
X126134Y246199D01*
X126102Y246107D01*
X126117Y246010D01*
X126162Y245911D01*
X126845Y244305D01*
X126882Y244214D01*
X126945Y244136D01*
X127035Y244089D01*
X129074Y243708D01*
X129298Y243665D01*
X129541Y243622D01*
X129616Y243575D01*
X129645Y243492D01*
Y240915D01*
X129616Y240826D01*
X129541Y240779D01*
X129298Y240736D01*
X129074Y240693D01*
X127095Y240324D01*
X127007Y240276D01*
X126953Y240193D01*
X126925Y240133D01*
Y240122D01*
X126210Y238349D01*
X126205Y238337D01*
X126188Y238294D01*
X126171Y238193D01*
X126199Y238099D01*
X127328Y236467D01*
X127452Y236276D01*
X127593Y236075D01*
X127612Y235989D01*
X127571Y235907D01*
X127403Y235728D01*
X127241Y235571D01*
X125923Y234253D01*
X125749Y234085D01*
X125667Y234044D01*
X125581Y234062D01*
X125380Y234204D01*
X125189Y234328D01*
X123595Y235425D01*
X123496Y235454D01*
X123399Y235435D01*
X123068Y235251D01*
X122874Y235142D01*
X122527Y234964D01*
X122442Y234958D01*
X122380Y235018D01*
X122234Y235375D01*
X122146Y235582D01*
X120763Y238940D01*
X120675Y239146D01*
X120578Y239379D01*
X120574Y239474D01*
X120627Y239547D01*
X120850Y239678D01*
X120991Y239786D01*
X121527Y240232D01*
X121942Y240796D01*
X122209Y241455D01*
X122303Y242185D01*
X122245Y242760D01*
X122080Y243294D01*
X121817Y243779D01*
X121468Y244201D01*
X121048Y244550D01*
X120564Y244814D01*
X120030Y244979D01*
X119456Y245037D01*
X118881Y244979D01*
X118346Y244814D01*
X117863Y244550D01*
X117441Y244201D01*
X117093Y243779D01*
X116831Y243294D01*
X116666Y242760D01*
X116607Y242185D01*
X116700Y241455D01*
X116967Y240796D01*
X117381Y240232D01*
X117920Y239786D01*
X118056Y239678D01*
X118278Y239547D01*
X118332Y239474D01*
X118327Y239379D01*
X118230Y239146D01*
X118142Y238940D01*
X116759Y235582D01*
X116673Y235375D01*
X116525Y235018D01*
X116464Y234958D01*
X116380Y234964D01*
X116038Y235142D01*
X115837Y235251D01*
X115506Y235435D01*
X115407Y235454D01*
X115310Y235425D01*
X113716Y234328D01*
X113531Y234204D01*
X113325Y234062D01*
X113238Y234044D01*
X113156Y234085D01*
X112982Y234253D01*
X112825Y234415D01*
X112327Y234914D01*
X112164Y235072D01*
X111664Y235571D01*
X111502Y235728D01*
X111334Y235907D01*
X111295Y235989D01*
X111317Y236075D01*
X111453Y236276D01*
X111584Y236467D01*
X112706Y238099D01*
X112734Y238193D01*
X112717Y238294D01*
X112695Y238354D01*
X111985Y240128D01*
X111952Y240193D01*
X111898Y240276D01*
X111812Y240324D01*
X109831Y240693D01*
X109609Y240736D01*
X109370Y240779D01*
X109291Y240829D01*
X109262Y240915D01*
Y243492D01*
X109291Y243575D01*
X109370Y243622D01*
X109609Y243671D01*
X109831Y243708D01*
X111871Y244089D01*
X111960Y244136D01*
X112023Y244219D01*
X112060Y244305D01*
X112749Y245911D01*
X112788Y246010D01*
X112805Y246107D01*
X112777Y246199D01*
X111584Y247940D01*
X111453Y248125D01*
X111317Y248326D01*
X111295Y248415D01*
X111334Y248500D01*
X111502Y248674D01*
X111664Y248831D01*
X113156Y250322D01*
X113238Y250358D01*
X113325Y250339D01*
X113531Y250203D01*
X113716Y250072D01*
X115489Y248853D01*
X115587Y248824D01*
X115685Y248842D01*
X115771Y248874D01*
X115782Y248879D01*
X116528Y249233D01*
X117318Y249508D01*
X117421Y249547D01*
X117505Y249605D01*
X117550Y249693D01*
X117948Y251825D01*
X117985Y252047D01*
X118034Y252286D01*
X118081Y252362D01*
X118164Y252394D01*
G37*
G54D108*X194898Y202087D02*X195098Y202487D01*
X195498Y202887D01*
X195898Y203087D01*
X196698D01*
X197098Y202887D01*
X197498Y202487D01*
X197698Y202087D01*
X197898Y201487D01*
Y200487D02*Y201487D01*
Y200487D02*X197698Y199887D01*
X197498Y199487D01*
X197098Y199087D01*
X196698Y198887D01*
X195898D02*X196698D01*
X195898D02*X195498Y199087D01*
X195098Y199487D01*
X194898Y199887D01*
X192698Y201687D02*X193098Y201487D01*
X193498Y201087D01*
X193698Y200487D01*
Y200087D02*Y200487D01*
Y200087D02*X193498Y199487D01*
X193098Y199087D01*
X192698Y198887D01*
X192098D02*X192698D01*
X192098D02*X191698Y199087D01*
X191298Y199487D01*
X191098Y200087D01*
Y200487D01*
X191298Y201087D01*
X191698Y201487D01*
X192098Y201687D01*
X192698D01*
X189898Y197487D02*Y201687D01*
Y201087D02*X189498Y201487D01*
X189098Y201687D01*
X188498D02*X189098D01*
X188498D02*X188098Y201487D01*
X187698Y201087D01*
X187498Y200487D01*
Y200087D02*Y200487D01*
Y200087D02*X187698Y199487D01*
X188098Y199087D01*
X188498Y198887D01*
X189098D01*
X189498Y199087D01*
X189898Y199487D01*
X186098Y201687D02*X184898Y198887D01*
X183698Y201687D02*X184898Y198887D01*
X185298Y198087D01*
X185698Y197687D01*
X186098Y197487D01*
X186298D01*
X182498Y198887D02*Y201687D01*
Y200487D02*X182298Y201087D01*
X181898Y201487D01*
X181498Y201687D01*
X180898D02*X181498D01*
X179698Y203087D02*X179498Y202887D01*
X179298Y203087D01*
X179498Y203287D01*
X179698Y203087D01*
X179498Y198887D02*Y201687D01*
X175698Y198487D02*Y201687D01*
Y198487D02*X175898Y197887D01*
X176098Y197687D01*
X176498Y197487D01*
X177098D01*
X177498Y197687D01*
X175698Y201087D02*X176098Y201487D01*
X176498Y201687D01*
X177098D01*
X177498Y201487D01*
X177898Y201087D01*
X178098Y200487D01*
Y200087D02*Y200487D01*
Y200087D02*X177898Y199487D01*
X177498Y199087D01*
X177098Y198887D01*
X176498D02*X177098D01*
X176498D02*X176098Y199087D01*
X175698Y199487D01*
X174498Y198887D02*Y203087D01*
Y200887D02*X173898Y201487D01*
X173498Y201687D01*
X172898D02*X173498D01*
X172898D02*X172498Y201487D01*
X172298Y200887D01*
Y198887D02*Y200887D01*
X170498Y199687D02*Y203087D01*
Y199687D02*X170298Y199087D01*
X169898Y198887D01*
X169498D02*X169898D01*
X169698Y201687D02*X171098D01*
X165698Y203887D02*X166098Y203487D01*
X166498Y202887D01*
X166898Y202087D01*
X167098Y201087D01*
Y200287D02*Y201087D01*
Y200287D02*X166898Y199287D01*
X166498Y198487D01*
X166098Y197887D01*
X165698Y197487D01*
X161498Y202087D02*X161698Y202487D01*
X162098Y202887D01*
X162498Y203087D01*
X163298D01*
X163698Y202887D01*
X164098Y202487D01*
X164298Y202087D01*
X164498Y201487D01*
Y200487D02*Y201487D01*
Y200487D02*X164298Y199887D01*
X164098Y199487D01*
X163698Y199087D01*
X163298Y198887D01*
X162498D02*X163298D01*
X162498D02*X162098Y199087D01*
X161698Y199487D01*
X161498Y199887D01*
X160298Y203887D02*X159898Y203487D01*
X159498Y202887D01*
X159098Y202087D01*
X158898Y201087D01*
Y200287D02*Y201087D01*
Y200287D02*X159098Y199287D01*
X159498Y198487D01*
X159898Y197887D01*
X160298Y197487D01*
X156298Y202087D02*Y202287D01*
X156098Y202687D01*
X155898Y202887D01*
X155498Y203087D01*
X154698D02*X155498D01*
X154698D02*X154298Y202887D01*
X154098Y202687D01*
X153898Y202287D01*
Y201887D02*Y202287D01*
Y201887D02*X154098Y201487D01*
X154498Y200887D01*
X156498Y198887D01*
X153698D02*X156498D01*
X151298Y203087D02*X151898Y202887D01*
X152298Y202287D01*
X152498Y201287D01*
Y200687D02*Y201287D01*
Y200687D02*X152298Y199687D01*
X151898Y199087D01*
X151298Y198887D01*
X150898D02*X151298D01*
X150898D02*X150298Y199087D01*
X149898Y199687D01*
X149698Y200687D01*
Y201287D01*
X149898Y202287D01*
X150298Y202887D01*
X150898Y203087D01*
X151298D01*
X148298Y202087D02*Y202287D01*
X148098Y202687D01*
X147898Y202887D01*
X147498Y203087D01*
X146698D02*X147498D01*
X146698D02*X146298Y202887D01*
X146098Y202687D01*
X145898Y202287D01*
Y201887D02*Y202287D01*
Y201887D02*X146098Y201487D01*
X146498Y200887D01*
X148498Y198887D01*
X145698D02*X148498D01*
X143298Y203087D02*X143898Y202887D01*
X144298Y202287D01*
X144498Y201287D01*
Y200687D02*Y201287D01*
Y200687D02*X144298Y199687D01*
X143898Y199087D01*
X143298Y198887D01*
X142898D02*X143298D01*
X142898D02*X142298Y199087D01*
X141898Y199687D01*
X141698Y200687D01*
Y201287D01*
X141898Y202287D01*
X142298Y202887D01*
X142898Y203087D01*
X143298D01*
X139298Y198887D02*Y203087D01*
X137498D02*X139298D01*
X137498D02*X136898Y202887D01*
X136698Y202687D01*
X136498Y202287D01*
Y201887D02*Y202287D01*
Y201887D02*X136698Y201487D01*
X136898Y201287D01*
X137498Y201087D01*
X139298D01*
X137498D02*X136898Y200887D01*
X136698Y200687D01*
X136498Y200287D01*
Y199687D02*Y200287D01*
Y199687D02*X136698Y199287D01*
X136898Y199087D01*
X137498Y198887D01*
X139298D01*
X132898Y200487D02*X135298D01*
X132898D02*Y200887D01*
X133098Y201287D01*
X133298Y201487D01*
X133698Y201687D01*
X134298D01*
X134698Y201487D01*
X135098Y201087D01*
X135298Y200487D01*
Y200087D02*Y200487D01*
Y200087D02*X135098Y199487D01*
X134698Y199087D01*
X134298Y198887D01*
X133698D02*X134298D01*
X133698D02*X133298Y199087D01*
X132898Y199487D01*
X131698Y198887D02*Y201687D01*
Y200487D02*X131498Y201087D01*
X131098Y201487D01*
X130698Y201687D01*
X130098D02*X130698D01*
X128298Y199687D02*Y203087D01*
Y199687D02*X128098Y199087D01*
X127698Y198887D01*
X127298D02*X127698D01*
X127498Y201687D02*X128898D01*
X123498Y198887D02*Y203087D01*
X122098D02*X124898D01*
X120898D02*X120698Y202887D01*
X120498Y203087D01*
X120698Y203287D01*
X120898Y203087D01*
X120698Y198887D02*Y201687D01*
X119298Y198887D02*Y201687D01*
Y200887D02*X118698Y201487D01*
X118298Y201687D01*
X117698D02*X118298D01*
X117698D02*X117298Y201487D01*
X117098Y200887D01*
Y198887D02*Y200887D01*
X116498Y201487D01*
X116098Y201687D01*
X115498D02*X116098D01*
X115498D02*X115098Y201487D01*
X114898Y200887D01*
Y198887D02*Y200887D01*
X113698Y198887D02*Y201687D01*
Y200887D02*X113098Y201487D01*
X112698Y201687D01*
X112098D02*X112698D01*
X112098D02*X111698Y201487D01*
X111498Y200887D01*
Y198887D02*Y200887D01*
X110898Y201487D01*
X110498Y201687D01*
X109898D02*X110498D01*
X109898D02*X109498Y201487D01*
X109298Y200887D01*
Y198887D02*Y200887D01*
X105698Y200487D02*X108098D01*
X105698D02*Y200887D01*
X105898Y201287D01*
X106098Y201487D01*
X106498Y201687D01*
X107098D01*
X107498Y201487D01*
X107898Y201087D01*
X108098Y200487D01*
Y200087D02*Y200487D01*
Y200087D02*X107898Y199487D01*
X107498Y199087D01*
X107098Y198887D01*
X106498D02*X107098D01*
X106498D02*X106098Y199087D01*
X105698Y199487D01*
X104498Y198887D02*Y201687D01*
Y200487D02*X104298Y201087D01*
X103898Y201487D01*
X103498Y201687D01*
X102898D02*X103498D01*
X101698Y198887D02*Y201687D01*
Y200887D02*X101098Y201487D01*
X100698Y201687D01*
X100098D02*X100698D01*
X100098D02*X99698Y201487D01*
X99498Y200887D01*
Y198887D02*Y200887D01*
X98898Y201487D01*
X98498Y201687D01*
X97898D02*X98498D01*
X97898D02*X97498Y201487D01*
X97298Y200887D01*
Y198887D02*Y200887D01*
X93698Y198887D02*Y201687D01*
Y201087D02*X94098Y201487D01*
X94498Y201687D01*
X95098D01*
X95498Y201487D01*
X95898Y201087D01*
X96098Y200487D01*
Y200087D02*Y200487D01*
Y200087D02*X95898Y199487D01*
X95498Y199087D01*
X95098Y198887D01*
X94498D02*X95098D01*
X94498D02*X94098Y199087D01*
X93698Y199487D01*
X92498Y198887D02*Y201687D01*
Y200887D02*X91898Y201487D01*
X91498Y201687D01*
X90898D02*X91498D01*
X90898D02*X90498Y201487D01*
X90298Y200887D01*
Y198887D02*Y200887D01*
X197351Y213934D02*Y218134D01*
X194751D02*X197351D01*
X195751Y216134D02*X197351D01*
X193551Y213934D02*Y216734D01*
Y215534D02*X193351Y216134D01*
X192951Y216534D01*
X192551Y216734D01*
X191951D02*X192551D01*
X189751D02*X190151Y216534D01*
X190551Y216134D01*
X190751Y215534D01*
Y215134D02*Y215534D01*
Y215134D02*X190551Y214534D01*
X190151Y214134D01*
X189751Y213934D01*
X189151D02*X189751D01*
X189151D02*X188751Y214134D01*
X188351Y214534D01*
X188151Y215134D01*
Y215534D01*
X188351Y216134D01*
X188751Y216534D01*
X189151Y216734D01*
X189751D01*
X186951Y213934D02*Y216734D01*
Y215934D02*X186351Y216534D01*
X185951Y216734D01*
X185351D02*X185951D01*
X185351D02*X184951Y216534D01*
X184751Y215934D01*
Y213934D02*Y215934D01*
X182951Y214734D02*Y218134D01*
Y214734D02*X182751Y214134D01*
X182351Y213934D01*
X181951D02*X182351D01*
X182151Y216734D02*X183551D01*
X197635Y208830D02*Y209030D01*
X197435Y209430D01*
X197235Y209630D01*
X196835Y209830D01*
X196035D02*X196835D01*
X196035D02*X195635Y209630D01*
X195435Y209430D01*
X195235Y209030D01*
Y208630D02*Y209030D01*
Y208630D02*X195435Y208230D01*
X195835Y207630D01*
X197835Y205630D01*
X195035D02*X197835D01*
X191435Y209230D02*X191635Y209630D01*
X192235Y209830D01*
X192635D01*
X193235Y209630D01*
X193635Y209030D01*
X193835Y208030D01*
Y207030D02*Y208030D01*
Y207030D02*X193635Y206230D01*
X193235Y205830D01*
X192635Y205630D01*
X192435D02*X192635D01*
X192435D02*X191835Y205830D01*
X191435Y206230D01*
X191235Y206830D01*
Y207030D01*
X191435Y207630D01*
X191835Y208030D01*
X192435Y208230D01*
X192635D01*
X193235Y208030D01*
X193635Y207630D01*
X193835Y207030D01*
X189835Y206030D02*X190035Y205830D01*
X189835Y205630D01*
X189635Y205830D01*
X189835Y206030D01*
X187235Y209830D02*X187835Y209630D01*
X188235Y209030D01*
X188435Y208030D01*
Y207430D02*Y208030D01*
Y207430D02*X188235Y206430D01*
X187835Y205830D01*
X187235Y205630D01*
X186835D02*X187235D01*
X186835D02*X186235Y205830D01*
X185835Y206430D01*
X185635Y207430D01*
Y208030D01*
X185835Y209030D01*
X186235Y209630D01*
X186835Y209830D01*
X187235D01*
X183235D02*X183835Y209630D01*
X184235Y209030D01*
X184435Y208030D01*
Y207430D02*Y208030D01*
Y207430D02*X184235Y206430D01*
X183835Y205830D01*
X183235Y205630D01*
X182835D02*X183235D01*
X182835D02*X182235Y205830D01*
X181835Y206430D01*
X181635Y207430D01*
Y208030D01*
X181835Y209030D01*
X182235Y209630D01*
X182835Y209830D01*
X183235D01*
X180235Y208830D02*Y209030D01*
X180035Y209430D01*
X179835Y209630D01*
X179435Y209830D01*
X178635D02*X179435D01*
X178635D02*X178235Y209630D01*
X178035Y209430D01*
X177835Y209030D01*
Y208630D02*Y209030D01*
Y208630D02*X178035Y208230D01*
X178435Y207630D01*
X180435Y205630D01*
X177635D02*X180435D01*
X176235Y206030D02*X176435Y205830D01*
X176235Y205630D01*
X176035Y205830D01*
X176235Y206030D01*
X173635Y209830D02*X174235Y209630D01*
X174635Y209030D01*
X174835Y208030D01*
Y207430D02*Y208030D01*
Y207430D02*X174635Y206430D01*
X174235Y205830D01*
X173635Y205630D01*
X173235D02*X173635D01*
X173235D02*X172635Y205830D01*
X172235Y206430D01*
X172035Y207430D01*
Y208030D01*
X172235Y209030D01*
X172635Y209630D01*
X173235Y209830D01*
X173635D01*
X169635D02*X170235Y209630D01*
X170635Y209030D01*
X170835Y208030D01*
Y207430D02*Y208030D01*
Y207430D02*X170635Y206430D01*
X170235Y205830D01*
X169635Y205630D01*
X169235D02*X169635D01*
X169235D02*X168635Y205830D01*
X168235Y206430D01*
X168035Y207430D01*
Y208030D01*
X168235Y209030D01*
X168635Y209630D01*
X169235Y209830D01*
X169635D01*
X166635Y206030D02*X166835Y205830D01*
X166635Y205630D01*
X166435Y205830D01*
X166635Y206030D01*
X164035Y209830D02*X164635Y209630D01*
X165035Y209030D01*
X165235Y208030D01*
Y207430D02*Y208030D01*
Y207430D02*X165035Y206430D01*
X164635Y205830D01*
X164035Y205630D01*
X163635D02*X164035D01*
X163635D02*X163035Y205830D01*
X162635Y206430D01*
X162435Y207430D01*
Y208030D01*
X162635Y209030D01*
X163035Y209630D01*
X163635Y209830D01*
X164035D01*
X161235Y209030D02*X160835Y209230D01*
X160235Y209830D01*
Y205630D02*Y209830D01*
X158835Y206030D02*X159035Y205830D01*
X158835Y205630D01*
X158635Y205830D01*
X158835Y206030D01*
X156235Y209830D02*X156835Y209630D01*
X157235Y209030D01*
X157435Y208030D01*
Y207430D02*Y208030D01*
Y207430D02*X157235Y206430D01*
X156835Y205830D01*
X156235Y205630D01*
X155835D02*X156235D01*
X155835D02*X155235Y205830D01*
X154835Y206430D01*
X154635Y207430D01*
Y208030D01*
X154835Y209030D01*
X155235Y209630D01*
X155835Y209830D01*
X156235D01*
X153435Y209030D02*X153035Y209230D01*
X152435Y209830D01*
Y205630D02*Y209830D01*
X194835Y224578D02*X195035Y224978D01*
X195435Y225378D01*
X195835Y225578D01*
X196635D01*
X197035Y225378D01*
X197435Y224978D01*
X197635Y224578D01*
X197835Y223978D01*
Y222978D02*Y223978D01*
Y222978D02*X197635Y222378D01*
X197435Y221978D01*
X197035Y221578D01*
X196635Y221378D01*
X195835D02*X196635D01*
X195835D02*X195435Y221578D01*
X195035Y221978D01*
X194835Y222378D01*
X190635Y224578D02*X190835Y224978D01*
X191235Y225378D01*
X191635Y225578D01*
X192435D01*
X192835Y225378D01*
X193235Y224978D01*
X193435Y224578D01*
X193635Y223978D01*
Y222978D02*Y223978D01*
Y222978D02*X193435Y222378D01*
X193235Y221978D01*
X192835Y221578D01*
X192435Y221378D01*
X191635D02*X192435D01*
X191635D02*X191235Y221578D01*
X190835Y221978D01*
X190635Y222378D01*
X185835Y223178D02*X189435D01*
X184635Y221378D02*Y225578D01*
X182835D02*X184635D01*
X182835D02*X182235Y225378D01*
X182035Y225178D01*
X181835Y224778D01*
Y224378D02*Y224778D01*
Y224378D02*X182035Y223978D01*
X182235Y223778D01*
X182835Y223578D01*
X184635D01*
X182835D02*X182235Y223378D01*
X182035Y223178D01*
X181835Y222778D01*
Y222178D02*Y222778D01*
Y222178D02*X182035Y221778D01*
X182235Y221578D01*
X182835Y221378D01*
X184635D01*
X180635Y225578D02*X179035Y223578D01*
Y221378D02*Y223578D01*
X177435Y225578D02*X179035Y223578D01*
X172635Y223178D02*X176235D01*
X168635Y224978D02*X169035Y225378D01*
X169635Y225578D01*
X170435D01*
X171035Y225378D01*
X171435Y224978D01*
Y224578D02*Y224978D01*
Y224578D02*X171235Y224178D01*
X171035Y223978D01*
X170635Y223778D01*
X169435Y223378D01*
X169035Y223178D01*
X168835Y222978D01*
X168635Y222578D01*
Y221978D02*Y222578D01*
Y221978D02*X169035Y221578D01*
X169635Y221378D01*
X170435D01*
X171035Y221578D01*
X171435Y221978D01*
X165835Y225578D02*X167435Y221378D01*
X165835Y225578D02*X164235Y221378D01*
X164835Y222778D02*X166835D01*
X159835Y225578D02*X161835Y222778D01*
X158835D02*X161835D01*
X159835Y221378D02*Y225578D01*
X157435Y221778D02*X157635Y221578D01*
X157435Y221378D01*
X157235Y221578D01*
X157435Y221778D01*
X154835Y225578D02*X155435Y225378D01*
X155835Y224778D01*
X156035Y223778D01*
Y223178D02*Y223778D01*
Y223178D02*X155835Y222178D01*
X155435Y221578D01*
X154835Y221378D01*
X154435D02*X154835D01*
X154435D02*X153835Y221578D01*
X153435Y222178D01*
X153235Y223178D01*
Y223778D01*
X153435Y224778D01*
X153835Y225378D01*
X154435Y225578D01*
X154835D01*
X133443Y230016D02*X133843Y229816D01*
X134243Y229416D01*
X134443Y228816D01*
Y228416D02*Y228816D01*
Y228416D02*X134243Y227816D01*
X133843Y227416D01*
X133443Y227216D01*
X132843D02*X133443D01*
X132843D02*X132443Y227416D01*
X132043Y227816D01*
X131843Y228416D01*
Y228816D01*
X132043Y229416D01*
X132443Y229816D01*
X132843Y230016D01*
X133443D01*
X130643Y225816D02*Y230016D01*
Y229416D02*X130243Y229816D01*
X129843Y230016D01*
X129243D02*X129843D01*
X129243D02*X128843Y229816D01*
X128443Y229416D01*
X128243Y228816D01*
Y228416D02*Y228816D01*
Y228416D02*X128443Y227816D01*
X128843Y227416D01*
X129243Y227216D01*
X129843D01*
X130243Y227416D01*
X130643Y227816D01*
X124643Y228816D02*X127043D01*
X124643D02*Y229216D01*
X124843Y229616D01*
X125043Y229816D01*
X125443Y230016D01*
X126043D01*
X126443Y229816D01*
X126843Y229416D01*
X127043Y228816D01*
Y228416D02*Y228816D01*
Y228416D02*X126843Y227816D01*
X126443Y227416D01*
X126043Y227216D01*
X125443D02*X126043D01*
X125443D02*X125043Y227416D01*
X124643Y227816D01*
X123443Y227216D02*Y230016D01*
Y229216D02*X122843Y229816D01*
X122443Y230016D01*
X121843D02*X122443D01*
X121843D02*X121443Y229816D01*
X121243Y229216D01*
Y227216D02*Y229216D01*
X116643Y229416D02*X116843Y229816D01*
X117443Y230016D01*
X118043D01*
X118643Y229816D01*
X118843Y229416D01*
X118643Y229016D01*
X118243Y228816D01*
X117243Y228616D01*
X116843Y228416D01*
X116643Y228016D01*
Y227816D02*Y228016D01*
Y227816D02*X116843Y227416D01*
X117443Y227216D01*
X118043D01*
X118643Y227416D01*
X118843Y227816D01*
X114443Y230016D02*X114843Y229816D01*
X115243Y229416D01*
X115443Y228816D01*
Y228416D02*Y228816D01*
Y228416D02*X115243Y227816D01*
X114843Y227416D01*
X114443Y227216D01*
X113843D02*X114443D01*
X113843D02*X113443Y227416D01*
X113043Y227816D01*
X112843Y228416D01*
Y228816D01*
X113043Y229416D01*
X113443Y229816D01*
X113843Y230016D01*
X114443D01*
X111643Y228016D02*Y230016D01*
Y228016D02*X111443Y227416D01*
X111043Y227216D01*
X110443D02*X111043D01*
X110443D02*X110043Y227416D01*
X109443Y228016D01*
Y227216D02*Y230016D01*
X108243Y227216D02*Y230016D01*
Y228816D02*X108043Y229416D01*
X107643Y229816D01*
X107243Y230016D01*
X106643D02*X107243D01*
X103043Y229416D02*X103443Y229816D01*
X103843Y230016D01*
X104443D01*
X104843Y229816D01*
X105243Y229416D01*
X105443Y228816D01*
Y228416D02*Y228816D01*
Y228416D02*X105243Y227816D01*
X104843Y227416D01*
X104443Y227216D01*
X103843D02*X104443D01*
X103843D02*X103443Y227416D01*
X103043Y227816D01*
X99443Y228816D02*X101843D01*
X99443D02*Y229216D01*
X99643Y229616D01*
X99843Y229816D01*
X100243Y230016D01*
X100843D01*
X101243Y229816D01*
X101643Y229416D01*
X101843Y228816D01*
Y228416D02*Y228816D01*
Y228416D02*X101643Y227816D01*
X101243Y227416D01*
X100843Y227216D01*
X100243D02*X100843D01*
X100243D02*X99843Y227416D01*
X99443Y227816D01*
X131490Y218358D02*Y222558D01*
Y220358D02*X130890Y220958D01*
X130490Y221158D01*
X129890D02*X130490D01*
X129890D02*X129490Y220958D01*
X129290Y220358D01*
Y218358D02*Y220358D01*
X125690Y218358D02*Y221158D01*
Y220558D02*X126090Y220958D01*
X126490Y221158D01*
X127090D01*
X127490Y220958D01*
X127890Y220558D01*
X128090Y219958D01*
Y219558D02*Y219958D01*
Y219558D02*X127890Y218958D01*
X127490Y218558D01*
X127090Y218358D01*
X126490D02*X127090D01*
X126490D02*X126090Y218558D01*
X125690Y218958D01*
X124490Y218358D02*Y221158D01*
Y219958D02*X124290Y220558D01*
X123890Y220958D01*
X123490Y221158D01*
X122890D02*X123490D01*
X119290Y218358D02*Y222558D01*
Y220558D02*X119690Y220958D01*
X120090Y221158D01*
X120690D01*
X121090Y220958D01*
X121490Y220558D01*
X121690Y219958D01*
Y219558D02*Y219958D01*
Y219558D02*X121490Y218958D01*
X121090Y218558D01*
X120690Y218358D01*
X120090D02*X120690D01*
X120090D02*X119690Y218558D01*
X119290Y218958D01*
X118090Y221158D02*X117290Y218358D01*
X116490Y221158D02*X117290Y218358D01*
X116490Y221158D02*X115690Y218358D01*
X114890Y221158D02*X115690Y218358D01*
X111290D02*Y221158D01*
Y220558D02*X111690Y220958D01*
X112090Y221158D01*
X112690D01*
X113090Y220958D01*
X113490Y220558D01*
X113690Y219958D01*
Y219558D02*Y219958D01*
Y219558D02*X113490Y218958D01*
X113090Y218558D01*
X112690Y218358D01*
X112090D02*X112690D01*
X112090D02*X111690Y218558D01*
X111290Y218958D01*
X110090Y218358D02*Y221158D01*
Y219958D02*X109890Y220558D01*
X109490Y220958D01*
X109090Y221158D01*
X108490D02*X109090D01*
X104890Y219958D02*X107290D01*
X104890D02*Y220358D01*
X105090Y220758D01*
X105290Y220958D01*
X105690Y221158D01*
X106290D01*
X106690Y220958D01*
X107090Y220558D01*
X107290Y219958D01*
Y219558D02*Y219958D01*
Y219558D02*X107090Y218958D01*
X106690Y218558D01*
X106290Y218358D01*
X105690D02*X106290D01*
X105690D02*X105290Y218558D01*
X104890Y218958D01*
G54D109*X198573Y243356D03*
Y228593D03*
G54D110*X198081Y242372D03*
G54D111*Y241880D03*
G54D112*Y241388D03*
G54D113*Y240896D03*
G54D114*Y240404D03*
G54D115*Y239911D03*
G54D116*Y239419D03*
G54D117*Y238927D03*
G54D118*Y238435D03*
G54D119*Y237943D03*
G54D120*Y237451D03*
G54D121*Y236959D03*
G54D122*Y236467D03*
Y235974D03*
G54D121*Y235482D03*
G54D120*Y234990D03*
G54D119*Y234498D03*
G54D118*Y234006D03*
G54D123*Y233514D03*
G54D116*Y233022D03*
G54D110*X197589Y242864D03*
G54D111*Y242372D03*
G54D124*Y241880D03*
G54D125*Y241388D03*
G54D126*Y240896D03*
G54D116*Y240404D03*
G54D117*Y239911D03*
G54D118*Y239419D03*
G54D121*Y238927D03*
G54D127*Y238435D03*
G54D128*Y237943D03*
G54D129*Y237451D03*
G54D130*Y236959D03*
G54D131*Y236467D03*
Y235974D03*
G54D130*Y235482D03*
G54D129*Y234990D03*
G54D128*Y234498D03*
G54D127*Y234006D03*
G54D121*Y233514D03*
G54D118*Y233022D03*
G54D111*X197097Y242864D03*
G54D124*Y242372D03*
G54D125*Y241880D03*
G54D115*Y241388D03*
G54D132*Y240896D03*
G54D133*Y240404D03*
G54D120*Y239911D03*
G54D134*Y239419D03*
G54D129*Y238927D03*
Y233514D03*
G54D134*Y233022D03*
G54D120*Y232530D03*
G54D112*X196605Y242864D03*
G54D125*Y242372D03*
G54D115*Y241880D03*
G54D132*Y241388D03*
G54D118*Y240896D03*
G54D122*Y240404D03*
G54D128*Y239911D03*
Y232530D03*
G54D121*Y232037D03*
G54D113*X196113Y242864D03*
G54D126*Y242372D03*
G54D132*Y241880D03*
G54D118*Y241388D03*
G54D122*Y240896D03*
G54D129*Y240404D03*
G54D135*Y236467D03*
Y235974D03*
G54D129*Y232037D03*
G54D122*Y231545D03*
G54D114*X195621Y242864D03*
G54D116*Y242372D03*
G54D133*Y241880D03*
G54D122*Y241388D03*
G54D129*Y240896D03*
G54D136*Y237943D03*
G54D109*Y237451D03*
Y236959D03*
Y236467D03*
Y235974D03*
Y235482D03*
Y234990D03*
Y234498D03*
G54D129*Y231545D03*
G54D121*Y231053D03*
G54D115*X195129Y242864D03*
G54D117*Y242372D03*
G54D120*Y241880D03*
G54D128*Y241388D03*
G54D122*Y238927D03*
G54D109*Y238435D03*
Y237943D03*
Y237451D03*
Y236959D03*
Y236467D03*
Y235974D03*
Y235482D03*
Y234990D03*
Y234498D03*
Y234006D03*
G54D137*Y233514D03*
G54D128*Y231053D03*
G54D120*Y230561D03*
G54D116*X194636Y242864D03*
G54D119*Y242372D03*
G54D134*Y241880D03*
G54D136*Y239419D03*
G54D109*Y238927D03*
Y238435D03*
Y237943D03*
G54D135*Y237451D03*
G54D138*Y234990D03*
G54D109*Y234498D03*
Y234006D03*
Y233514D03*
G54D136*Y233022D03*
G54D134*Y230561D03*
G54D139*Y230069D03*
G54D117*X194144Y242864D03*
G54D121*Y242372D03*
G54D129*Y241880D03*
G54D137*Y239911D03*
G54D109*Y239419D03*
Y238927D03*
Y238435D03*
G54D135*Y237943D03*
Y234498D03*
G54D109*Y234006D03*
Y233514D03*
Y233022D03*
G54D122*Y232530D03*
G54D129*Y230561D03*
G54D121*Y230069D03*
G54D118*X193652Y242864D03*
G54D134*Y242372D03*
G54D109*Y239911D03*
Y239419D03*
Y238927D03*
Y238435D03*
Y234006D03*
Y233514D03*
Y233022D03*
Y232530D03*
G54D127*Y230069D03*
G54D119*X193160Y242864D03*
G54D128*Y242372D03*
G54D136*Y240404D03*
G54D109*Y239911D03*
Y239419D03*
Y238927D03*
Y238435D03*
G54D137*Y236959D03*
G54D109*Y236467D03*
Y235974D03*
G54D136*Y235482D03*
G54D109*Y234006D03*
Y233514D03*
Y233022D03*
Y232530D03*
G54D136*Y232037D03*
G54D128*Y230069D03*
G54D135*Y229577D03*
G54D120*X192668Y242864D03*
G54D129*Y242372D03*
G54D109*Y240404D03*
Y239911D03*
Y239419D03*
Y238927D03*
Y238435D03*
G54D135*Y236959D03*
G54D109*Y236467D03*
Y235974D03*
G54D122*Y235482D03*
G54D109*Y234006D03*
Y233514D03*
Y233022D03*
Y232530D03*
Y232037D03*
G54D129*Y230069D03*
G54D120*Y229577D03*
G54D121*X192176Y242864D03*
G54D130*Y242372D03*
G54D109*Y240404D03*
Y239911D03*
Y239419D03*
Y238927D03*
Y238435D03*
Y236467D03*
Y235974D03*
Y234006D03*
Y233514D03*
Y233022D03*
Y232530D03*
Y232037D03*
G54D130*Y230069D03*
G54D121*Y229577D03*
G54D122*X191684Y242864D03*
G54D131*Y242372D03*
G54D135*Y240896D03*
G54D109*Y240404D03*
Y239911D03*
Y239419D03*
Y238927D03*
Y238435D03*
Y237943D03*
Y236467D03*
Y235974D03*
Y234498D03*
Y234006D03*
Y233514D03*
Y233022D03*
Y232530D03*
Y232037D03*
G54D135*Y231545D03*
G54D131*Y230069D03*
G54D122*Y229577D03*
X191192Y242864D03*
G54D131*Y242372D03*
G54D135*Y240896D03*
G54D109*Y240404D03*
Y239911D03*
Y239419D03*
Y238927D03*
Y238435D03*
Y237943D03*
G54D138*Y237451D03*
Y234990D03*
G54D109*Y234498D03*
Y234006D03*
Y233514D03*
Y233022D03*
Y232530D03*
Y232037D03*
G54D135*Y231545D03*
G54D131*Y230069D03*
G54D122*Y229577D03*
G54D121*X190699Y242864D03*
G54D130*Y242372D03*
G54D109*Y240404D03*
Y239911D03*
Y239419D03*
Y238927D03*
Y238435D03*
G54D135*Y237943D03*
G54D138*Y234498D03*
G54D109*Y234006D03*
Y233514D03*
Y233022D03*
Y232530D03*
Y232037D03*
G54D130*Y230069D03*
G54D121*Y229577D03*
X190207Y242864D03*
G54D129*Y242372D03*
G54D109*Y240404D03*
Y239911D03*
Y239419D03*
Y238927D03*
Y238435D03*
Y234006D03*
Y233514D03*
Y233022D03*
Y232530D03*
Y232037D03*
G54D129*Y230069D03*
G54D120*Y229577D03*
G54D119*X189715Y242864D03*
G54D128*Y242372D03*
G54D109*Y240404D03*
Y239911D03*
Y239419D03*
Y238927D03*
Y238435D03*
G54D137*Y236959D03*
G54D109*Y236467D03*
Y235974D03*
G54D136*Y235482D03*
G54D109*Y234006D03*
Y233514D03*
Y233022D03*
Y232530D03*
G54D136*Y232037D03*
G54D128*Y230069D03*
G54D135*Y229577D03*
G54D118*X189223Y242864D03*
G54D134*Y242372D03*
G54D109*Y239911D03*
Y239419D03*
Y238927D03*
Y238435D03*
G54D138*Y236959D03*
G54D109*Y236467D03*
Y235974D03*
G54D122*Y235482D03*
G54D109*Y234006D03*
Y233514D03*
Y233022D03*
Y232530D03*
G54D134*Y230069D03*
G54D117*X188731Y242864D03*
G54D121*Y242372D03*
G54D129*Y241880D03*
G54D136*Y239911D03*
G54D109*Y239419D03*
Y238927D03*
Y238435D03*
Y236467D03*
Y235974D03*
Y234006D03*
Y233514D03*
Y233022D03*
G54D137*Y232530D03*
G54D129*Y230561D03*
G54D121*Y230069D03*
G54D132*X188239Y242864D03*
G54D119*Y242372D03*
G54D134*Y241880D03*
G54D136*Y239419D03*
G54D109*Y238927D03*
Y238435D03*
Y237943D03*
Y236467D03*
Y235974D03*
Y234498D03*
Y234006D03*
Y233514D03*
G54D136*Y233022D03*
G54D134*Y230561D03*
G54D140*Y230069D03*
G54D115*X187747Y242864D03*
G54D117*Y242372D03*
G54D121*Y241880D03*
G54D128*Y241388D03*
G54D136*Y238927D03*
G54D109*Y238435D03*
Y237943D03*
Y237451D03*
Y236959D03*
Y236467D03*
Y235974D03*
Y235482D03*
Y234990D03*
Y234498D03*
Y234006D03*
G54D136*Y233514D03*
G54D128*Y231053D03*
G54D120*Y230561D03*
G54D114*X187255Y242864D03*
G54D116*Y242372D03*
G54D118*Y241880D03*
G54D122*Y241388D03*
G54D116*Y240896D03*
G54D109*Y237943D03*
Y237451D03*
Y236959D03*
Y236467D03*
Y235974D03*
Y235482D03*
Y234990D03*
Y234498D03*
G54D129*Y231545D03*
G54D122*Y231053D03*
G54D113*X186762Y242864D03*
G54D115*Y242372D03*
G54D132*Y241880D03*
G54D119*Y241388D03*
G54D127*Y240896D03*
G54D116*Y240404D03*
G54D135*Y236467D03*
Y235974D03*
G54D129*Y232037D03*
G54D127*Y231545D03*
G54D112*X186270Y242864D03*
G54D125*Y242372D03*
G54D115*Y241880D03*
G54D123*Y241388D03*
G54D119*Y240896D03*
G54D122*Y240404D03*
G54D128*Y239911D03*
Y232530D03*
G54D122*Y232037D03*
G54D111*X185778Y242864D03*
G54D124*Y242372D03*
G54D125*Y241880D03*
G54D115*Y241388D03*
G54D132*Y240896D03*
G54D118*Y240404D03*
G54D121*Y239911D03*
G54D134*Y239419D03*
G54D129*Y238927D03*
Y233514D03*
G54D134*Y233022D03*
G54D120*Y232530D03*
G54D110*X185286Y242864D03*
G54D111*Y242372D03*
G54D124*Y241880D03*
G54D125*Y241388D03*
G54D115*Y240896D03*
G54D116*Y240404D03*
G54D117*Y239911D03*
G54D119*Y239419D03*
G54D121*Y238927D03*
G54D134*Y238435D03*
G54D128*Y237943D03*
G54D129*Y237451D03*
G54D130*Y236959D03*
G54D131*Y236467D03*
Y235974D03*
G54D130*Y235482D03*
G54D129*Y234990D03*
G54D128*Y234498D03*
G54D134*Y234006D03*
G54D121*Y233514D03*
G54D119*Y233022D03*
G54D141*X184794Y242864D03*
G54D110*Y242372D03*
G54D111*Y241880D03*
G54D112*Y241388D03*
G54D113*Y240896D03*
G54D114*Y240404D03*
G54D115*Y239911D03*
G54D132*Y239419D03*
G54D117*Y238927D03*
G54D118*Y238435D03*
G54D119*Y237943D03*
G54D121*Y237451D03*
Y236959D03*
G54D122*Y236467D03*
Y235974D03*
G54D121*Y235482D03*
G54D120*Y234990D03*
G54D119*Y234498D03*
G54D118*Y234006D03*
G54D117*Y233514D03*
G54D116*Y233022D03*
G54D142*X184302Y242864D03*
G54D141*Y242372D03*
G54D110*Y241880D03*
G54D111*Y241388D03*
G54D112*Y240896D03*
G54D143*Y240404D03*
G54D125*Y239911D03*
G54D126*Y239419D03*
G54D115*Y238927D03*
G54D116*Y238435D03*
G54D132*Y237943D03*
G54D123*Y237451D03*
G54D117*Y236959D03*
Y236467D03*
Y235974D03*
Y235482D03*
G54D123*Y234990D03*
G54D132*Y234498D03*
G54D144*Y234006D03*
G54D115*Y233514D03*
G54D114*Y233022D03*
G54D145*X183810Y242864D03*
G54D142*Y242372D03*
G54D141*Y241880D03*
G54D146*Y241388D03*
G54D147*Y240896D03*
G54D148*Y240404D03*
G54D112*Y239911D03*
G54D143*Y239419D03*
G54D113*Y238927D03*
G54D125*Y238435D03*
G54D126*Y237943D03*
G54D115*Y237451D03*
Y236959D03*
Y236467D03*
Y235974D03*
Y235482D03*
Y234990D03*
G54D126*Y234498D03*
G54D125*Y234006D03*
G54D113*Y233514D03*
G54D143*Y233022D03*
G54D149*X183318Y242864D03*
G54D145*Y242372D03*
G54D150*Y241880D03*
G54D142*Y241388D03*
G54D141*Y240896D03*
G54D110*Y240404D03*
G54D147*Y239911D03*
G54D111*Y239419D03*
G54D112*Y238927D03*
G54D124*Y238435D03*
G54D143*Y237943D03*
G54D135*Y237451D03*
G54D113*Y236959D03*
Y236467D03*
Y235974D03*
Y235482D03*
G54D135*Y234990D03*
G54D124*Y234498D03*
G54D112*Y234006D03*
Y233514D03*
G54D111*Y233022D03*
G54D139*X182825Y242864D03*
G54D149*Y242372D03*
G54D145*Y241880D03*
G54D150*Y241388D03*
G54D142*Y240896D03*
Y240404D03*
G54D141*Y239911D03*
G54D146*Y239419D03*
G54D110*Y238927D03*
G54D147*Y238435D03*
G54D111*Y237943D03*
G54D148*Y237451D03*
Y236959D03*
Y236467D03*
Y235974D03*
Y235482D03*
Y234990D03*
G54D111*Y234498D03*
G54D147*Y234006D03*
G54D110*Y233514D03*
G54D146*Y233022D03*
G54D139*X182333Y242864D03*
Y242372D03*
G54D140*Y241880D03*
G54D149*Y241388D03*
G54D145*Y240896D03*
G54D150*Y240404D03*
Y239911D03*
G54D142*Y239419D03*
G54D141*Y238927D03*
Y238435D03*
G54D146*Y237943D03*
Y237451D03*
G54D110*Y236959D03*
Y236467D03*
Y235974D03*
Y235482D03*
G54D146*Y234990D03*
Y234498D03*
G54D141*Y234006D03*
Y233514D03*
G54D142*Y233022D03*
G54D151*X181841Y242864D03*
Y242372D03*
G54D139*Y241880D03*
Y241388D03*
G54D140*Y240896D03*
G54D149*Y240404D03*
Y239911D03*
G54D145*Y239419D03*
G54D150*Y238927D03*
Y238435D03*
G54D142*Y237943D03*
Y237451D03*
Y236959D03*
Y236467D03*
Y235974D03*
Y235482D03*
Y234990D03*
Y234498D03*
G54D150*Y234006D03*
Y233514D03*
G54D145*Y233022D03*
G54D138*X181349Y242864D03*
G54D151*Y242372D03*
Y241880D03*
Y241388D03*
G54D139*Y240896D03*
Y240404D03*
Y239911D03*
G54D140*Y239419D03*
G54D149*Y238927D03*
Y238435D03*
Y237943D03*
G54D145*Y237451D03*
Y236959D03*
Y236467D03*
Y235974D03*
Y235482D03*
Y234990D03*
G54D149*Y234498D03*
Y234006D03*
Y233514D03*
G54D140*Y233022D03*
G54D138*X180857Y242864D03*
Y242372D03*
Y241880D03*
G54D151*Y241388D03*
Y240896D03*
Y240404D03*
Y239911D03*
Y239419D03*
G54D139*Y238927D03*
Y238435D03*
Y237943D03*
Y237451D03*
Y236959D03*
Y236467D03*
Y235974D03*
Y235482D03*
Y234990D03*
Y234498D03*
Y234006D03*
Y233514D03*
G54D151*Y233022D03*
G54D138*X180365Y242864D03*
Y242372D03*
Y241880D03*
Y241388D03*
Y240896D03*
Y240404D03*
G54D151*Y239911D03*
Y239419D03*
Y238927D03*
Y238435D03*
Y237943D03*
Y237451D03*
Y236959D03*
Y236467D03*
Y235974D03*
Y235482D03*
Y234990D03*
Y234498D03*
Y234006D03*
Y233514D03*
Y233022D03*
G54D138*X179873Y242864D03*
Y242372D03*
Y241880D03*
Y241388D03*
Y240896D03*
Y240404D03*
Y235974D03*
Y235482D03*
Y234990D03*
Y234498D03*
Y234006D03*
Y233514D03*
Y233022D03*
X179381Y242864D03*
Y242372D03*
Y241880D03*
Y241388D03*
Y234990D03*
Y234498D03*
Y234006D03*
Y233514D03*
Y233022D03*
X178888Y242864D03*
Y242372D03*
Y241880D03*
G54D137*Y239419D03*
G54D109*Y238927D03*
Y238435D03*
Y237943D03*
Y237451D03*
G54D137*Y236959D03*
G54D138*Y234498D03*
Y234006D03*
Y233514D03*
Y233022D03*
X178396Y242864D03*
Y242372D03*
Y241880D03*
G54D131*Y239911D03*
G54D109*Y239419D03*
Y238927D03*
Y238435D03*
Y237943D03*
Y237451D03*
Y236959D03*
Y236467D03*
G54D138*Y234498D03*
Y234006D03*
Y233514D03*
Y233022D03*
G54D109*Y231545D03*
Y231053D03*
Y230561D03*
Y230069D03*
Y229577D03*
G54D138*X177904Y242864D03*
Y242372D03*
G54D109*Y240404D03*
Y239911D03*
Y239419D03*
Y238927D03*
Y238435D03*
Y237943D03*
Y237451D03*
Y236959D03*
Y236467D03*
Y235974D03*
G54D138*Y234006D03*
Y233514D03*
Y233022D03*
G54D109*Y231545D03*
Y230561D03*
Y229577D03*
G54D138*X177412Y242864D03*
Y242372D03*
G54D137*Y240896D03*
G54D109*Y240404D03*
Y239911D03*
Y239419D03*
Y238927D03*
Y238435D03*
Y237943D03*
Y237451D03*
Y236959D03*
Y236467D03*
Y235974D03*
G54D137*Y235482D03*
G54D138*Y234006D03*
Y233514D03*
Y233022D03*
G54D109*Y231545D03*
Y230561D03*
Y229577D03*
G54D138*X176920Y242864D03*
Y242372D03*
G54D109*Y240896D03*
Y240404D03*
Y239911D03*
Y239419D03*
Y236959D03*
Y236467D03*
Y235974D03*
Y235482D03*
G54D138*Y234006D03*
Y233514D03*
Y233022D03*
G54D109*Y231053D03*
Y230069D03*
G54D138*X176428Y242864D03*
Y242372D03*
G54D109*Y240896D03*
Y239419D03*
Y235482D03*
G54D138*Y234006D03*
Y233514D03*
Y233022D03*
X175936Y242864D03*
Y242372D03*
G54D109*Y240896D03*
Y239419D03*
Y235482D03*
G54D138*Y234006D03*
Y233514D03*
Y233022D03*
G54D109*Y231545D03*
G54D138*X175444Y242864D03*
Y242372D03*
G54D109*Y240896D03*
Y240404D03*
Y239911D03*
Y239419D03*
Y236959D03*
Y236467D03*
Y235974D03*
Y235482D03*
G54D138*Y234006D03*
Y233514D03*
Y233022D03*
G54D109*Y231053D03*
G54D138*X174951Y242864D03*
Y242372D03*
G54D137*Y240896D03*
G54D109*Y240404D03*
Y239911D03*
Y239419D03*
Y238927D03*
Y238435D03*
Y237943D03*
Y237451D03*
Y236959D03*
Y236467D03*
Y235974D03*
G54D137*Y235482D03*
G54D138*Y234006D03*
Y233514D03*
Y233022D03*
G54D109*Y230561D03*
Y230069D03*
Y229577D03*
G54D138*X174459Y242864D03*
Y242372D03*
G54D109*Y240404D03*
Y239911D03*
Y239419D03*
Y238927D03*
Y238435D03*
Y237943D03*
Y237451D03*
Y236959D03*
Y236467D03*
Y235974D03*
G54D138*Y234006D03*
Y233514D03*
Y233022D03*
G54D109*Y231053D03*
G54D138*X173967Y242864D03*
Y242372D03*
Y241880D03*
G54D109*Y239911D03*
Y239419D03*
Y238927D03*
Y238435D03*
Y237943D03*
Y237451D03*
Y236959D03*
Y236467D03*
G54D138*Y234498D03*
Y234006D03*
Y233514D03*
Y233022D03*
G54D109*Y231545D03*
G54D138*X173475Y242864D03*
Y242372D03*
Y241880D03*
G54D137*Y239419D03*
G54D109*Y238927D03*
Y238435D03*
Y237943D03*
Y237451D03*
G54D137*Y236959D03*
G54D138*Y234498D03*
Y234006D03*
Y233514D03*
Y233022D03*
X172983Y242864D03*
Y242372D03*
Y241880D03*
Y241388D03*
Y234990D03*
Y234498D03*
Y234006D03*
Y233514D03*
Y233022D03*
X172491Y242864D03*
Y242372D03*
Y241880D03*
Y241388D03*
Y240896D03*
Y240404D03*
Y235974D03*
Y235482D03*
Y234990D03*
Y234498D03*
Y234006D03*
Y233514D03*
Y233022D03*
X171999Y242864D03*
Y242372D03*
Y241880D03*
Y241388D03*
Y240896D03*
Y240404D03*
Y239911D03*
Y239419D03*
Y238927D03*
Y238435D03*
Y237943D03*
Y237451D03*
Y236959D03*
Y236467D03*
Y235974D03*
Y235482D03*
Y234990D03*
Y234498D03*
Y234006D03*
Y233514D03*
Y233022D03*
X171507Y242864D03*
Y242372D03*
Y241880D03*
Y241388D03*
Y240896D03*
Y240404D03*
Y239911D03*
Y239419D03*
Y238927D03*
Y238435D03*
Y237943D03*
Y237451D03*
Y236959D03*
Y236467D03*
Y235974D03*
Y235482D03*
Y234990D03*
Y234498D03*
Y234006D03*
Y233514D03*
Y233022D03*
X171014Y242864D03*
Y242372D03*
Y241880D03*
Y241388D03*
Y240896D03*
Y240404D03*
Y239911D03*
Y239419D03*
Y238927D03*
Y238435D03*
Y237943D03*
Y237451D03*
Y236959D03*
Y236467D03*
Y235974D03*
Y235482D03*
Y234990D03*
Y234498D03*
Y234006D03*
Y233514D03*
Y233022D03*
X170522Y242864D03*
Y242372D03*
Y241880D03*
Y241388D03*
Y240896D03*
Y240404D03*
Y239911D03*
Y239419D03*
Y238927D03*
Y238435D03*
Y237943D03*
Y237451D03*
Y236959D03*
Y236467D03*
Y235974D03*
Y235482D03*
Y234990D03*
Y234498D03*
Y234006D03*
Y233514D03*
Y233022D03*
X170030Y242864D03*
Y242372D03*
Y241880D03*
Y241388D03*
Y240896D03*
Y240404D03*
Y239911D03*
Y239419D03*
Y238927D03*
Y238435D03*
Y237943D03*
Y237451D03*
Y236959D03*
Y236467D03*
Y235974D03*
Y235482D03*
Y234990D03*
Y234498D03*
Y234006D03*
Y233514D03*
Y233022D03*
X169538Y242864D03*
Y242372D03*
Y241880D03*
Y241388D03*
Y240896D03*
Y240404D03*
Y239911D03*
Y239419D03*
Y238927D03*
Y238435D03*
Y237943D03*
Y237451D03*
Y236959D03*
Y236467D03*
Y235974D03*
Y235482D03*
Y234990D03*
Y234498D03*
Y234006D03*
Y233514D03*
Y233022D03*
X169046Y242864D03*
Y242372D03*
Y241880D03*
Y241388D03*
Y240896D03*
Y240404D03*
Y239911D03*
Y239419D03*
Y238927D03*
Y238435D03*
Y237943D03*
Y237451D03*
Y236959D03*
Y236467D03*
Y235974D03*
Y235482D03*
Y234990D03*
Y234498D03*
Y234006D03*
Y233514D03*
Y233022D03*
X168554Y242864D03*
Y242372D03*
Y241880D03*
Y241388D03*
Y240896D03*
Y240404D03*
Y239911D03*
Y239419D03*
Y238927D03*
Y238435D03*
Y237943D03*
Y237451D03*
Y236959D03*
Y236467D03*
Y235974D03*
Y235482D03*
Y234990D03*
Y234498D03*
Y234006D03*
Y233514D03*
Y233022D03*
X168062Y242864D03*
Y242372D03*
Y241880D03*
Y241388D03*
Y240896D03*
Y240404D03*
Y235974D03*
Y235482D03*
Y234990D03*
Y234498D03*
Y234006D03*
Y233514D03*
Y233022D03*
X167569Y242864D03*
Y242372D03*
Y241880D03*
Y241388D03*
Y234990D03*
Y234498D03*
Y234006D03*
Y233514D03*
Y233022D03*
X167077Y242864D03*
Y242372D03*
Y241880D03*
G54D137*Y239419D03*
G54D109*Y238927D03*
Y238435D03*
Y237943D03*
Y237451D03*
G54D137*Y236959D03*
G54D138*Y234498D03*
Y234006D03*
Y233514D03*
Y233022D03*
X166585Y242864D03*
Y242372D03*
Y241880D03*
G54D131*Y239911D03*
G54D109*Y239419D03*
G54D152*Y238927D03*
Y238435D03*
G54D109*Y237943D03*
Y237451D03*
Y236959D03*
Y236467D03*
G54D138*Y234498D03*
Y234006D03*
Y233514D03*
Y233022D03*
G54D109*Y231053D03*
Y229577D03*
G54D138*X166093Y242864D03*
Y242372D03*
G54D109*Y240404D03*
Y239911D03*
G54D132*Y239419D03*
G54D142*Y237943D03*
G54D147*Y237451D03*
G54D109*Y236467D03*
Y235974D03*
G54D138*Y234006D03*
Y233514D03*
Y233022D03*
G54D109*Y231545D03*
Y230561D03*
Y229577D03*
G54D138*X165601Y242864D03*
Y242372D03*
G54D137*Y240896D03*
G54D109*Y240404D03*
Y235974D03*
G54D137*Y235482D03*
G54D138*Y234006D03*
Y233514D03*
Y233022D03*
G54D109*Y231545D03*
Y230561D03*
Y229577D03*
G54D138*X165109Y242864D03*
Y242372D03*
G54D109*Y240896D03*
G54D153*Y240404D03*
G54D135*Y237943D03*
G54D123*Y237451D03*
G54D133*Y235974D03*
G54D109*Y235482D03*
G54D138*Y234006D03*
Y233514D03*
Y233022D03*
G54D109*Y231545D03*
Y230069D03*
G54D138*X164617Y242864D03*
Y242372D03*
G54D109*Y240896D03*
G54D132*Y240404D03*
G54D109*Y238927D03*
Y238435D03*
Y237943D03*
Y237451D03*
G54D154*Y235974D03*
G54D109*Y235482D03*
G54D138*Y234006D03*
Y233514D03*
Y233022D03*
X164125Y242864D03*
Y242372D03*
G54D109*Y240896D03*
G54D132*Y240404D03*
G54D109*Y238927D03*
Y238435D03*
Y237943D03*
Y237451D03*
G54D154*Y235974D03*
G54D109*Y235482D03*
G54D138*Y234006D03*
Y233514D03*
Y233022D03*
G54D109*Y231053D03*
Y230561D03*
Y230069D03*
Y229577D03*
G54D138*X163632Y242864D03*
Y242372D03*
G54D109*Y240896D03*
G54D153*Y240404D03*
Y238435D03*
Y237943D03*
G54D154*Y237451D03*
G54D131*Y235974D03*
G54D109*Y235482D03*
G54D138*Y234006D03*
Y233514D03*
Y233022D03*
G54D109*Y231545D03*
Y230561D03*
G54D138*X163140Y242864D03*
Y242372D03*
G54D137*Y240896D03*
G54D109*Y240404D03*
G54D147*Y239911D03*
G54D109*Y235974D03*
G54D137*Y235482D03*
G54D138*Y234006D03*
Y233514D03*
Y233022D03*
G54D109*Y231545D03*
Y230561D03*
G54D138*X162648Y242864D03*
Y242372D03*
G54D109*Y240404D03*
Y239911D03*
G54D152*Y236467D03*
G54D109*Y235974D03*
G54D138*Y234006D03*
Y233514D03*
Y233022D03*
G54D109*Y231053D03*
Y230561D03*
Y230069D03*
Y229577D03*
G54D138*X162156Y242864D03*
Y242372D03*
Y241880D03*
G54D109*Y239911D03*
Y239419D03*
Y238927D03*
G54D155*Y238435D03*
G54D156*Y237943D03*
G54D109*Y237451D03*
Y236959D03*
Y236467D03*
G54D138*Y234498D03*
Y234006D03*
Y233514D03*
Y233022D03*
X161664Y242864D03*
Y242372D03*
Y241880D03*
G54D137*Y239419D03*
G54D109*Y238927D03*
Y238435D03*
Y237943D03*
Y237451D03*
G54D137*Y236959D03*
G54D138*Y234498D03*
Y234006D03*
Y233514D03*
Y233022D03*
X161172Y242864D03*
Y242372D03*
Y241880D03*
Y241388D03*
Y234990D03*
Y234498D03*
Y234006D03*
Y233514D03*
Y233022D03*
X160680Y242864D03*
Y242372D03*
Y241880D03*
Y241388D03*
Y240896D03*
Y240404D03*
Y235974D03*
Y235482D03*
Y234990D03*
Y234498D03*
Y234006D03*
Y233514D03*
Y233022D03*
X160188Y242864D03*
Y242372D03*
Y241880D03*
Y241388D03*
Y240896D03*
Y240404D03*
Y239911D03*
Y239419D03*
Y238927D03*
Y238435D03*
Y237943D03*
Y237451D03*
Y236959D03*
Y236467D03*
Y235974D03*
Y235482D03*
Y234990D03*
Y234498D03*
Y234006D03*
Y233514D03*
Y233022D03*
X159695Y242864D03*
Y242372D03*
Y241880D03*
Y241388D03*
Y240896D03*
Y240404D03*
Y239911D03*
Y239419D03*
Y238927D03*
Y238435D03*
Y237943D03*
Y237451D03*
Y236959D03*
Y236467D03*
Y235974D03*
Y235482D03*
Y234990D03*
Y234498D03*
Y234006D03*
Y233514D03*
Y233022D03*
X159203Y242864D03*
Y242372D03*
Y241880D03*
Y241388D03*
Y240896D03*
Y240404D03*
Y239911D03*
Y239419D03*
Y238927D03*
Y238435D03*
Y237943D03*
Y237451D03*
Y236959D03*
Y236467D03*
Y235974D03*
Y235482D03*
Y234990D03*
Y234498D03*
Y234006D03*
Y233514D03*
Y233022D03*
X158711Y242864D03*
Y242372D03*
Y241880D03*
Y241388D03*
Y240896D03*
Y240404D03*
Y239911D03*
Y239419D03*
Y238927D03*
Y238435D03*
Y237943D03*
Y237451D03*
Y236959D03*
Y236467D03*
Y235974D03*
Y235482D03*
Y234990D03*
Y234498D03*
Y234006D03*
Y233514D03*
Y233022D03*
X158219Y242864D03*
Y242372D03*
Y241880D03*
Y241388D03*
Y240896D03*
Y240404D03*
Y239911D03*
Y239419D03*
Y238927D03*
Y238435D03*
Y237943D03*
Y237451D03*
Y236959D03*
Y236467D03*
Y235974D03*
Y235482D03*
Y234990D03*
Y234498D03*
Y234006D03*
Y233514D03*
Y233022D03*
X157727Y242864D03*
Y242372D03*
Y241880D03*
Y241388D03*
Y240896D03*
Y240404D03*
Y239911D03*
Y239419D03*
Y238927D03*
Y238435D03*
Y237943D03*
Y237451D03*
Y236959D03*
Y236467D03*
Y235974D03*
Y235482D03*
Y234990D03*
Y234498D03*
Y234006D03*
Y233514D03*
Y233022D03*
X157235Y242864D03*
Y242372D03*
Y241880D03*
Y241388D03*
Y240896D03*
Y240404D03*
Y239911D03*
Y239419D03*
Y238927D03*
Y238435D03*
Y237943D03*
Y237451D03*
Y236959D03*
Y236467D03*
Y235974D03*
Y235482D03*
Y234990D03*
Y234498D03*
Y234006D03*
Y233514D03*
Y233022D03*
X156743Y242864D03*
Y242372D03*
Y241880D03*
Y241388D03*
Y240896D03*
Y240404D03*
Y239911D03*
Y239419D03*
Y238927D03*
Y238435D03*
Y237943D03*
Y237451D03*
Y236959D03*
Y236467D03*
Y235974D03*
Y235482D03*
Y234990D03*
Y234498D03*
Y234006D03*
Y233514D03*
Y233022D03*
X156251Y242372D03*
Y241880D03*
Y241388D03*
Y240896D03*
Y240404D03*
Y239911D03*
Y239419D03*
Y238927D03*
Y238435D03*
Y237943D03*
Y237451D03*
Y236959D03*
Y236467D03*
Y235974D03*
Y235482D03*
Y234990D03*
Y234498D03*
Y234006D03*
Y233514D03*
Y233022D03*
G54D109*X155758Y243356D03*
Y228593D03*
M02*
