G04 start of page 10 for group -4079 idx -4079 *
G04 Title: 26.003.00.01.01.pcb, topsilk *
G04 Creator: pcb 4.1.2 *
G04 CreationDate: Fri Aug 10 20:06:22 2018 UTC *
G04 For: bert *
G04 Format: Gerber/RS-274X *
G04 PCB-Dimensions (mil): 6896.06 4633.86 *
G04 PCB-Coordinate-Origin: lower left *
%MOIN*%
%FSLAX25Y25*%
%LNGTO*%
%ADD100C,0.0000*%
%ADD99C,0.0120*%
%ADD98C,0.0080*%
%ADD97C,0.0100*%
G54D97*X61181Y443543D02*X232441D01*
X67480Y437244D02*X232441D01*
Y443543D02*Y437244D01*
X10000Y453386D02*X640000D01*
G54D98*X105000Y388386D02*X365000D01*
Y363386D01*
Y328386D02*Y303386D01*
Y268386D02*Y243386D01*
Y208386D02*Y183386D01*
Y148386D02*Y123386D01*
G54D97*X640000Y453386D02*Y60886D01*
G54D98*X365000Y363386D02*X185000D01*
X105000Y328386D02*X365000D01*
Y303386D02*X185000D01*
X105000Y268386D02*X365000D01*
Y243386D02*X185000D01*
X105000Y208386D02*X365000D01*
Y183386D02*X185000D01*
G54D97*X10000Y60886D02*Y453386D01*
G54D98*X105000Y148386D02*X365000D01*
Y123386D02*X185000D01*
G54D97*X640000Y60886D02*X10000D01*
X232441Y69528D02*Y75827D01*
X61181Y69528D02*X232441D01*
X67480Y75827D02*X232441D01*
X67480Y443543D02*Y69528D01*
X61181Y443543D02*Y69528D01*
G54D98*X105000Y373386D02*Y388386D01*
Y313386D02*Y328386D01*
Y253386D02*Y268386D01*
Y193386D02*Y208386D01*
Y133386D02*Y148386D01*
X392500Y157886D02*X393000Y158386D01*
X394500D01*
X395000Y157886D01*
Y156886D01*
X392500Y154386D02*X395000Y156886D01*
X392500Y154386D02*X395000D01*
X397700Y158386D02*X398200Y157886D01*
X396700Y158386D02*X397700D01*
X396200Y157886D02*X396700Y158386D01*
X396200Y157886D02*Y154886D01*
X396700Y154386D01*
X397700Y156386D02*X398200Y155886D01*
X396200Y156386D02*X397700D01*
X396700Y154386D02*X397700D01*
X398200Y154886D01*
Y155886D02*Y154886D01*
X399400Y154386D02*X399900D01*
X401100Y154886D02*X401600Y154386D01*
X401100Y157886D02*Y154886D01*
Y157886D02*X401600Y158386D01*
X402600D01*
X403100Y157886D01*
Y154886D01*
X402600Y154386D02*X403100Y154886D01*
X401600Y154386D02*X402600D01*
X401100Y155386D02*X403100Y157386D01*
X404300Y154886D02*X404800Y154386D01*
X404300Y157886D02*Y154886D01*
Y157886D02*X404800Y158386D01*
X405800D01*
X406300Y157886D01*
Y154886D01*
X405800Y154386D02*X406300Y154886D01*
X404800Y154386D02*X405800D01*
X404300Y155386D02*X406300Y157386D01*
X407500Y157886D02*X408000Y158386D01*
X409000D01*
X409500Y157886D01*
Y154886D01*
X409000Y154386D02*X409500Y154886D01*
X408000Y154386D02*X409000D01*
X407500Y154886D02*X408000Y154386D01*
Y156386D02*X409500D01*
X410700Y154386D02*X411200D01*
X412400Y154886D02*X412900Y154386D01*
X412400Y157886D02*Y154886D01*
Y157886D02*X412900Y158386D01*
X413900D01*
X414400Y157886D01*
Y154886D01*
X413900Y154386D02*X414400Y154886D01*
X412900Y154386D02*X413900D01*
X412400Y155386D02*X414400Y157386D01*
X415600Y154886D02*X416100Y154386D01*
X415600Y157886D02*Y154886D01*
Y157886D02*X416100Y158386D01*
X417100D01*
X417600Y157886D01*
Y154886D01*
X417100Y154386D02*X417600Y154886D01*
X416100Y154386D02*X417100D01*
X415600Y155386D02*X417600Y157386D01*
X418800Y154386D02*X419300D01*
X420500Y154886D02*X421000Y154386D01*
X420500Y157886D02*Y154886D01*
Y157886D02*X421000Y158386D01*
X422000D01*
X422500Y157886D01*
Y154886D01*
X422000Y154386D02*X422500Y154886D01*
X421000Y154386D02*X422000D01*
X420500Y155386D02*X422500Y157386D01*
X424200Y154386D02*X425200D01*
X424700Y158386D02*Y154386D01*
X423700Y157386D02*X424700Y158386D01*
X426400Y154386D02*X426900D01*
X428100Y154886D02*X428600Y154386D01*
X428100Y157886D02*Y154886D01*
Y157886D02*X428600Y158386D01*
X429600D01*
X430100Y157886D01*
Y154886D01*
X429600Y154386D02*X430100Y154886D01*
X428600Y154386D02*X429600D01*
X428100Y155386D02*X430100Y157386D01*
X431800Y154386D02*X432800D01*
X432300Y158386D02*Y154386D01*
X431300Y157386D02*X432300Y158386D01*
X393000Y146886D02*X394500D01*
X392500Y147386D02*X393000Y146886D01*
X392500Y150386D02*Y147386D01*
Y150386D02*X393000Y150886D01*
X394500D01*
X395700Y148386D02*Y147386D01*
Y148386D02*X396200Y148886D01*
X397200D01*
X397700Y148386D01*
Y147386D01*
X397200Y146886D02*X397700Y147386D01*
X396200Y146886D02*X397200D01*
X395700Y147386D02*X396200Y146886D01*
X399400Y148386D02*Y145386D01*
X398900Y148886D02*X399400Y148386D01*
X399900Y148886D01*
X400900D01*
X401400Y148386D01*
Y147386D01*
X400900Y146886D02*X401400Y147386D01*
X399900Y146886D02*X400900D01*
X399400Y147386D02*X399900Y146886D01*
X402600Y148886D02*Y147386D01*
X403100Y146886D01*
X404600Y148886D02*Y145886D01*
X404100Y145386D02*X404600Y145886D01*
X403100Y145386D02*X404100D01*
X402600Y145886D02*X403100Y145386D01*
Y146886D02*X404100D01*
X404600Y147386D01*
X406300Y148386D02*Y146886D01*
Y148386D02*X406800Y148886D01*
X407800D01*
X405800D02*X406300Y148386D01*
X409000Y149886D02*Y149386D01*
Y148386D02*Y146886D01*
X411500Y148886D02*X412000Y148386D01*
X410500Y148886D02*X411500D01*
X410000Y148386D02*X410500Y148886D01*
X410000Y148386D02*Y147386D01*
X410500Y146886D01*
X411500D01*
X412000Y147386D01*
X410000Y145886D02*X410500Y145386D01*
X411500D01*
X412000Y145886D01*
Y148886D02*Y145886D01*
X413200Y150886D02*Y146886D01*
Y148386D02*X413700Y148886D01*
X414700D01*
X415200Y148386D01*
Y146886D01*
X416900Y150886D02*Y147386D01*
X417400Y146886D01*
X416400Y149386D02*X417400D01*
X420200Y147386D02*X420700Y146886D01*
X420200Y150386D02*X420700Y150886D01*
X420200Y150386D02*Y147386D01*
X422400Y146886D02*X423900D01*
X421900Y147386D02*X422400Y146886D01*
X421900Y150386D02*Y147386D01*
Y150386D02*X422400Y150886D01*
X423900D01*
X425100D02*X425600Y150386D01*
Y147386D01*
X425100Y146886D02*X425600Y147386D01*
X428600Y150386D02*X429100Y150886D01*
X430600D01*
X431100Y150386D01*
Y149386D01*
X428600Y146886D02*X431100Y149386D01*
X428600Y146886D02*X431100D01*
X432300Y147386D02*X432800Y146886D01*
X432300Y150386D02*Y147386D01*
Y150386D02*X432800Y150886D01*
X433800D01*
X434300Y150386D01*
Y147386D01*
X433800Y146886D02*X434300Y147386D01*
X432800Y146886D02*X433800D01*
X432300Y147886D02*X434300Y149886D01*
X436000Y146886D02*X437000D01*
X436500Y150886D02*Y146886D01*
X435500Y149886D02*X436500Y150886D01*
X438200Y147386D02*X438700Y146886D01*
X438200Y148386D02*Y147386D01*
Y148386D02*X438700Y148886D01*
X439700D01*
X440200Y148386D01*
Y147386D01*
X439700Y146886D02*X440200Y147386D01*
X438700Y146886D02*X439700D01*
X438200Y149386D02*X438700Y148886D01*
X438200Y150386D02*Y149386D01*
Y150386D02*X438700Y150886D01*
X439700D01*
X440200Y150386D01*
Y149386D01*
X439700Y148886D02*X440200Y149386D01*
X443200Y146886D02*X445200D01*
X445700Y147386D01*
Y148386D02*Y147386D01*
X445200Y148886D02*X445700Y148386D01*
X443700Y148886D02*X445200D01*
X443700Y150886D02*Y146886D01*
X443200Y150886D02*X445200D01*
X445700Y150386D01*
Y149386D01*
X445200Y148886D02*X445700Y149386D01*
X447400Y146886D02*X448900D01*
X446900Y147386D02*X447400Y146886D01*
X446900Y148386D02*Y147386D01*
Y148386D02*X447400Y148886D01*
X448400D01*
X448900Y148386D01*
X446900Y147886D02*X448900D01*
Y148386D02*Y147886D01*
X450600Y148386D02*Y146886D01*
Y148386D02*X451100Y148886D01*
X452100D01*
X450100D02*X450600Y148386D01*
X453800Y150886D02*Y147386D01*
X454300Y146886D01*
X453300Y149386D02*X454300D01*
X457100Y150886D02*X459100D01*
X458100D02*Y146886D01*
X460300Y149886D02*Y149386D01*
Y148386D02*Y146886D01*
X461800Y148386D02*Y146886D01*
Y148386D02*X462300Y148886D01*
X462800D01*
X463300Y148386D01*
Y146886D01*
Y148386D02*X463800Y148886D01*
X464300D01*
X464800Y148386D01*
Y146886D01*
X461300Y148886D02*X461800Y148386D01*
X466500D02*Y146886D01*
Y148386D02*X467000Y148886D01*
X467500D01*
X468000Y148386D01*
Y146886D01*
Y148386D02*X468500Y148886D01*
X469000D01*
X469500Y148386D01*
Y146886D01*
X466000Y148886D02*X466500Y148386D01*
X471200Y146886D02*X472700D01*
X470700Y147386D02*X471200Y146886D01*
X470700Y148386D02*Y147386D01*
Y148386D02*X471200Y148886D01*
X472200D01*
X472700Y148386D01*
X470700Y147886D02*X472700D01*
Y148386D02*Y147886D01*
X474400Y148386D02*Y146886D01*
Y148386D02*X474900Y148886D01*
X475900D01*
X473900D02*X474400Y148386D01*
X477600D02*Y146886D01*
Y148386D02*X478100Y148886D01*
X478600D01*
X479100Y148386D01*
Y146886D01*
Y148386D02*X479600Y148886D01*
X480100D01*
X480600Y148386D01*
Y146886D01*
X477100Y148886D02*X477600Y148386D01*
X483300Y148886D02*X483800Y148386D01*
X482300Y148886D02*X483300D01*
X481800Y148386D02*X482300Y148886D01*
X481800Y148386D02*Y147386D01*
X482300Y146886D01*
X483800Y148886D02*Y147386D01*
X484300Y146886D01*
X482300D02*X483300D01*
X483800Y147386D01*
X486000Y148386D02*Y146886D01*
Y148386D02*X486500Y148886D01*
X487000D01*
X487500Y148386D01*
Y146886D01*
X485500Y148886D02*X486000Y148386D01*
X392500Y165886D02*Y161886D01*
Y165886D02*X394000Y164386D01*
X395500Y165886D01*
Y161886D01*
X398200Y163886D02*X398700Y163386D01*
X397200Y163886D02*X398200D01*
X396700Y163386D02*X397200Y163886D01*
X396700Y163386D02*Y162386D01*
X397200Y161886D01*
X398700Y163886D02*Y162386D01*
X399200Y161886D01*
X397200D02*X398200D01*
X398700Y162386D01*
X400400Y164886D02*Y164386D01*
Y163386D02*Y161886D01*
X401900Y163386D02*Y161886D01*
Y163386D02*X402400Y163886D01*
X402900D01*
X403400Y163386D01*
Y161886D01*
X401400Y163886D02*X401900Y163386D01*
X406400Y165886D02*Y161886D01*
Y162386D02*X406900Y161886D01*
X407900D01*
X408400Y162386D01*
Y163386D02*Y162386D01*
X407900Y163886D02*X408400Y163386D01*
X406900Y163886D02*X407900D01*
X406400Y163386D02*X406900Y163886D01*
X409600Y163386D02*Y162386D01*
Y163386D02*X410100Y163886D01*
X411100D01*
X411600Y163386D01*
Y162386D01*
X411100Y161886D02*X411600Y162386D01*
X410100Y161886D02*X411100D01*
X409600Y162386D02*X410100Y161886D01*
X414300Y163886D02*X414800Y163386D01*
X413300Y163886D02*X414300D01*
X412800Y163386D02*X413300Y163886D01*
X412800Y163386D02*Y162386D01*
X413300Y161886D01*
X414800Y163886D02*Y162386D01*
X415300Y161886D01*
X413300D02*X414300D01*
X414800Y162386D01*
X417000Y163386D02*Y161886D01*
Y163386D02*X417500Y163886D01*
X418500D01*
X416500D02*X417000Y163386D01*
X421700Y165886D02*Y161886D01*
X421200D02*X421700Y162386D01*
X420200Y161886D02*X421200D01*
X419700Y162386D02*X420200Y161886D01*
X419700Y163386D02*Y162386D01*
Y163386D02*X420200Y163886D01*
X421200D01*
X421700Y163386D01*
G54D97*X565669Y390827D02*X573543D01*
X569606Y394764D02*Y386890D01*
G54D99*Y398701D02*G75*G03X569606Y398701I0J19685D01*G01*
G54D97*X463100Y413886D02*X486900D01*
X463100Y422886D02*X486900D01*
Y413886D01*
X463100Y422886D02*Y413886D01*
X486900Y418386D02*X495300D01*
X454700D02*X463100D01*
Y393886D02*X486900D01*
X463100Y402886D02*X486900D01*
Y393886D01*
X463100Y402886D02*Y393886D01*
X486900Y398386D02*X495300D01*
X463100D02*X454700D01*
X528400Y428386D02*X535300D01*
X504700D02*X511600D01*
X528400Y432086D02*Y424686D01*
X511600Y432086D02*Y424686D01*
X528400D01*
X511600Y432086D02*X528400D01*
X527900D02*Y424686D01*
X527400Y432086D02*Y424686D01*
X526900Y432086D02*Y424686D01*
X526400Y432086D02*Y424686D01*
G54D100*X543700Y433086D02*Y423686D01*
X496300Y433086D02*Y423686D01*
X543700D01*
X496300Y433086D02*X543700D01*
G54D97*X468400Y428386D02*X475300D01*
X444700D02*X451600D01*
X468400Y432086D02*Y424686D01*
X451600Y432086D02*Y424686D01*
X468400D01*
X451600Y432086D02*X468400D01*
X467900D02*Y424686D01*
X467400Y432086D02*Y424686D01*
X466900Y432086D02*Y424686D01*
X466400Y432086D02*Y424686D01*
G54D100*X483700Y433086D02*Y423686D01*
X436300Y433086D02*Y423686D01*
X483700D01*
X436300Y433086D02*X483700D01*
G54D97*X561063Y103602D02*X568937D01*
X565000Y107539D02*Y99665D01*
Y95728D02*G75*G03X565000Y95728I0J-9843D01*G01*
X576063Y100670D02*X583937D01*
X580000Y104607D02*Y96733D01*
Y108544D02*G75*G03X580000Y108544I0J9843D01*G01*
X607242Y100237D02*X639132D01*
X607242D02*Y78190D01*
X639132D01*
X607242Y412836D02*X639132D01*
X607242Y434883D02*Y412836D01*
Y434883D02*X639132D01*
X612360Y108899D02*X626140D01*
X602518Y118741D02*X626140D01*
X625746Y148269D02*X626140Y147875D01*
X612360Y148269D02*X625746D01*
X602518Y354961D02*X626139D01*
X612360Y364804D02*X626140D01*
X612360Y384489D02*X626140D01*
X602518Y394332D02*X626140D01*
X602518Y138426D02*X626140D01*
X612360Y128584D02*X626140D01*
X602518Y177796D02*X626140D01*
X612360Y167954D02*X626140D01*
X602518Y158111D02*X626140D01*
X612360Y207324D02*X626140D01*
X602518Y197481D02*X626140D01*
X612360Y187639D02*X626140D01*
X602518Y236852D02*X626140D01*
X612360Y227009D02*X626140D01*
X602518Y217167D02*X626140D01*
X612360Y266379D02*X626140D01*
X602518Y256537D02*X626140D01*
X612360Y246694D02*X626140D01*
X612360Y286064D02*X626140D01*
X602518Y335276D02*X626139D01*
X626140Y335277D01*
X612360Y345119D02*X626140D01*
X626139Y354961D02*X626140Y354962D01*
X602518Y295906D02*X626139D01*
X626140Y295907D01*
X612360Y305749D02*X626140D01*
X626139Y315591D02*X626140Y315592D01*
X626139Y276221D02*X626140Y276222D01*
X602518Y315591D02*X626139D01*
X612360Y325434D02*X626140D01*
X602518Y276221D02*X626139D01*
X612360Y404174D02*X626140D01*
X602518Y374647D02*X626140D01*
Y412836D02*Y100237D01*
X639132Y434883D02*Y78190D01*
X590000Y256486D02*Y248086D01*
Y288686D02*Y280286D01*
X585500Y256486D02*X594500D01*
X585500Y280286D02*X594500D01*
X585500D02*Y256486D01*
X594500Y280286D02*Y256486D01*
X573858Y343386D02*G75*G03X573858Y343386I-8858J0D01*G01*
X569700Y281586D02*X580300D01*
X569700Y282086D02*X580300D01*
X569700Y282586D02*X580300D01*
X569700Y283086D02*X580300D01*
X569700Y283586D02*Y263186D01*
X580300Y283586D02*Y263186D01*
X569700D02*X580300D01*
X569700Y283586D02*X580300D01*
X575000Y263186D02*Y258086D01*
Y288686D02*Y283586D01*
X506142Y303386D02*G75*G03X506142Y303386I8858J0D01*G01*
X540000Y358386D02*X555000D01*
X515000D02*X530000D01*
X555000Y318386D02*Y358386D01*
X515000Y318386D02*X555000D01*
X515000Y358386D02*Y318386D01*
X530000Y358386D02*G75*G03X540000Y358386I5000J0D01*G01*
X458100Y348886D02*X481900D01*
X458100Y357886D02*X481900D01*
Y348886D01*
X458100Y357886D02*Y348886D01*
X481900Y353386D02*X490300D01*
X449700D02*X458100D01*
Y328886D02*X481900D01*
X458100Y337886D02*X481900D01*
Y328886D01*
X458100Y337886D02*Y328886D01*
X481900Y333386D02*X490300D01*
X449700D02*X458100D01*
X463100Y378886D02*X486900D01*
X463100Y387886D02*X486900D01*
Y378886D01*
X463100Y387886D02*Y378886D01*
X486900Y383386D02*X495300D01*
X463100D02*X454700D01*
X371378Y404606D02*X390000D01*
X400000D02*X418622D01*
X371378Y422165D02*Y404606D01*
X381378Y432165D02*X408622D01*
X418622Y422165D02*Y404606D01*
G54D100*X370000Y403386D02*X420000D01*
X370000Y433386D02*Y403386D01*
Y433386D02*X420000D01*
Y403386D01*
G54D97*X498100Y366386D02*X521900D01*
X498100Y375386D02*X521900D01*
Y366386D01*
X498100Y375386D02*Y366386D01*
X521900Y370886D02*X530300D01*
X489700D02*X498100D01*
X185000Y373386D02*Y363386D01*
X105000Y373386D02*X185000D01*
X105000Y363386D02*X185000D01*
X115000Y373386D02*Y363386D01*
X105000Y373386D02*Y363386D01*
X50000Y100886D02*X60000D01*
Y410886D02*Y100886D01*
X50000Y410886D02*Y100886D01*
Y400886D02*X60000D01*
X50000Y410886D02*X60000D01*
X153858Y173386D02*G75*G03X153858Y173386I-8858J0D01*G01*
Y353386D02*G75*G03X153858Y353386I-8858J0D01*G01*
Y293386D02*G75*G03X153858Y293386I-8858J0D01*G01*
Y233386D02*G75*G03X153858Y233386I-8858J0D01*G01*
Y113386D02*G75*G03X153858Y113386I-8858J0D01*G01*
X133858Y173386D02*G75*G03X133858Y173386I-8858J0D01*G01*
Y353386D02*G75*G03X133858Y353386I-8858J0D01*G01*
Y293386D02*G75*G03X133858Y293386I-8858J0D01*G01*
Y233386D02*G75*G03X133858Y233386I-8858J0D01*G01*
Y113386D02*G75*G03X133858Y113386I-8858J0D01*G01*
X185000Y313386D02*Y303386D01*
X105000Y313386D02*X185000D01*
X105000Y303386D02*X185000D01*
X115000Y313386D02*Y303386D01*
X105000Y313386D02*Y303386D01*
X185000Y253386D02*Y243386D01*
X105000Y253386D02*X185000D01*
X105000Y243386D02*X185000D01*
X115000Y253386D02*Y243386D01*
X105000Y253386D02*Y243386D01*
X185000Y193386D02*Y183386D01*
X105000Y193386D02*X185000D01*
X105000Y183386D02*X185000D01*
X115000Y193386D02*Y183386D01*
X105000Y193386D02*Y183386D01*
X185000Y133386D02*Y123386D01*
X105000Y133386D02*X185000D01*
X105000Y123386D02*X185000D01*
X115000Y133386D02*Y123386D01*
X105000Y133386D02*Y123386D01*
G54D98*X578000Y84386D02*X579500D01*
X577500Y84886D02*X578000Y84386D01*
X577500Y87886D02*Y84886D01*
Y87886D02*X578000Y88386D01*
X579500D01*
X580700Y87886D02*X581200Y88386D01*
X582200D01*
X582700Y87886D01*
Y84886D01*
X582200Y84386D02*X582700Y84886D01*
X581200Y84386D02*X582200D01*
X580700Y84886D02*X581200Y84386D01*
Y86386D02*X582700D01*
X584400Y84386D02*X585400D01*
X584900Y88386D02*Y84386D01*
X583900Y87386D02*X584900Y88386D01*
X586600Y86386D02*X588600Y88386D01*
X586600Y86386D02*X589100D01*
X588600Y88386D02*Y84386D01*
X555500Y116886D02*X557000D01*
X555000Y117386D02*X555500Y116886D01*
X555000Y120386D02*Y117386D01*
Y120386D02*X555500Y120886D01*
X557000D01*
X558200Y120386D02*X558700Y120886D01*
X559700D01*
X560200Y120386D01*
Y117386D01*
X559700Y116886D02*X560200Y117386D01*
X558700Y116886D02*X559700D01*
X558200Y117386D02*X558700Y116886D01*
Y118886D02*X560200D01*
X561900Y116886D02*X562900D01*
X562400Y120886D02*Y116886D01*
X561400Y119886D02*X562400Y120886D01*
X564100Y120386D02*X564600Y120886D01*
X565600D01*
X566100Y120386D01*
Y117386D01*
X565600Y116886D02*X566100Y117386D01*
X564600Y116886D02*X565600D01*
X564100Y117386D02*X564600Y116886D01*
Y118886D02*X566100D01*
X347000Y100886D02*X347500Y100386D01*
X345500Y100886D02*X347000D01*
X345000Y100386D02*X345500Y100886D01*
X345000Y100386D02*Y97386D01*
X345500Y96886D01*
X347000D01*
X347500Y97386D01*
Y98386D02*Y97386D01*
X347000Y98886D02*X347500Y98386D01*
X346000Y98886D02*X347000D01*
X348700Y100886D02*Y96886D01*
Y100886D02*Y100386D01*
X351200Y97886D01*
Y100886D02*Y96886D01*
X352900Y100886D02*Y96886D01*
X354400Y100886D02*X354900Y100386D01*
Y97386D01*
X354400Y96886D02*X354900Y97386D01*
X352400Y96886D02*X354400D01*
X352400Y100886D02*X354400D01*
X2500Y86886D02*X4500D01*
X5000Y87386D01*
Y88386D02*Y87386D01*
X4500Y88886D02*X5000Y88386D01*
X3000Y88886D02*X4500D01*
X3000Y90886D02*Y86886D01*
X2500Y90886D02*X4500D01*
X5000Y90386D01*
Y89386D01*
X4500Y88886D02*X5000Y89386D01*
X157000Y111886D02*X158500D01*
X156500Y112386D02*X157000Y111886D01*
X156500Y115386D02*Y112386D01*
Y115386D02*X157000Y115886D01*
X158500D01*
X159700Y115386D02*X160200Y115886D01*
X161200D01*
X161700Y115386D01*
Y112386D01*
X161200Y111886D02*X161700Y112386D01*
X160200Y111886D02*X161200D01*
X159700Y112386D02*X160200Y111886D01*
Y113886D02*X161700D01*
X163400Y111886D02*X164400D01*
X163900Y115886D02*Y111886D01*
X162900Y114886D02*X163900Y115886D01*
X165600Y112386D02*X166100Y111886D01*
X165600Y115386D02*Y112386D01*
Y115386D02*X166100Y115886D01*
X167100D01*
X167600Y115386D01*
Y112386D01*
X167100Y111886D02*X167600Y112386D01*
X166100Y111886D02*X167100D01*
X165600Y112886D02*X167600Y114886D01*
X103000Y111886D02*X104500D01*
X102500Y112386D02*X103000Y111886D01*
X102500Y115386D02*Y112386D01*
Y115386D02*X103000Y115886D01*
X104500D01*
X105700Y115386D02*X106200Y115886D01*
X107200D01*
X107700Y115386D01*
Y112386D01*
X107200Y111886D02*X107700Y112386D01*
X106200Y111886D02*X107200D01*
X105700Y112386D02*X106200Y111886D01*
Y113886D02*X107700D01*
X109400Y111886D02*X110400D01*
X109900Y115886D02*Y111886D01*
X108900Y114886D02*X109900Y115886D01*
X112100Y111886D02*X113100D01*
X112600Y115886D02*Y111886D01*
X111600Y114886D02*X112600Y115886D01*
X459000Y364386D02*X461000D01*
X461500Y363886D01*
Y362886D01*
X461000Y362386D02*X461500Y362886D01*
X459500Y362386D02*X461000D01*
X459500Y364386D02*Y360386D01*
Y362386D02*X461500Y360386D01*
X462700Y363886D02*X463200Y364386D01*
X464200D01*
X464700Y363886D01*
Y360886D01*
X464200Y360386D02*X464700Y360886D01*
X463200Y360386D02*X464200D01*
X462700Y360886D02*X463200Y360386D01*
Y362386D02*X464700D01*
X465900Y360886D02*X466400Y360386D01*
X465900Y363886D02*Y360886D01*
Y363886D02*X466400Y364386D01*
X467400D01*
X467900Y363886D01*
Y360886D01*
X467400Y360386D02*X467900Y360886D01*
X466400Y360386D02*X467400D01*
X465900Y361386D02*X467900Y363386D01*
X469100Y362386D02*X471100Y364386D01*
X469100Y362386D02*X471600D01*
X471100Y364386D02*Y360386D01*
X505000Y385886D02*X507000D01*
X507500Y385386D01*
Y384386D01*
X507000Y383886D02*X507500Y384386D01*
X505500Y383886D02*X507000D01*
X505500Y385886D02*Y381886D01*
Y383886D02*X507500Y381886D01*
X508700Y385386D02*X509200Y385886D01*
X510200D01*
X510700Y385386D01*
Y382386D01*
X510200Y381886D02*X510700Y382386D01*
X509200Y381886D02*X510200D01*
X508700Y382386D02*X509200Y381886D01*
Y383886D02*X510700D01*
X511900Y382386D02*X512400Y381886D01*
X511900Y385386D02*Y382386D01*
Y385386D02*X512400Y385886D01*
X513400D01*
X513900Y385386D01*
Y382386D01*
X513400Y381886D02*X513900Y382386D01*
X512400Y381886D02*X513400D01*
X511900Y382886D02*X513900Y384886D01*
X515100Y385886D02*X517100D01*
X515100D02*Y383886D01*
X515600Y384386D01*
X516600D01*
X517100Y383886D01*
Y382386D01*
X516600Y381886D02*X517100Y382386D01*
X515600Y381886D02*X516600D01*
X515100Y382386D02*X515600Y381886D01*
X505000Y400886D02*X507000D01*
X507500Y400386D01*
Y399386D01*
X507000Y398886D02*X507500Y399386D01*
X505500Y398886D02*X507000D01*
X505500Y400886D02*Y396886D01*
Y398886D02*X507500Y396886D01*
X508700Y400386D02*X509200Y400886D01*
X510200D01*
X510700Y400386D01*
Y397386D01*
X510200Y396886D02*X510700Y397386D01*
X509200Y396886D02*X510200D01*
X508700Y397386D02*X509200Y396886D01*
Y398886D02*X510700D01*
X511900Y397386D02*X512400Y396886D01*
X511900Y400386D02*Y397386D01*
Y400386D02*X512400Y400886D01*
X513400D01*
X513900Y400386D01*
Y397386D01*
X513400Y396886D02*X513900Y397386D01*
X512400Y396886D02*X513400D01*
X511900Y397886D02*X513900Y399886D01*
X516600Y400886D02*X517100Y400386D01*
X515600Y400886D02*X516600D01*
X515100Y400386D02*X515600Y400886D01*
X515100Y400386D02*Y397386D01*
X515600Y396886D01*
X516600Y398886D02*X517100Y398386D01*
X515100Y398886D02*X516600D01*
X515600Y396886D02*X516600D01*
X517100Y397386D01*
Y398386D02*Y397386D01*
X499000Y363886D02*X501000D01*
X501500Y363386D01*
Y362386D01*
X501000Y361886D02*X501500Y362386D01*
X499500Y361886D02*X501000D01*
X499500Y363886D02*Y359886D01*
Y361886D02*X501500Y359886D01*
X502700Y363386D02*X503200Y363886D01*
X504200D01*
X504700Y363386D01*
Y360386D01*
X504200Y359886D02*X504700Y360386D01*
X503200Y359886D02*X504200D01*
X502700Y360386D02*X503200Y359886D01*
Y361886D02*X504700D01*
X505900Y360386D02*X506400Y359886D01*
X505900Y363386D02*Y360386D01*
Y363386D02*X506400Y363886D01*
X507400D01*
X507900Y363386D01*
Y360386D01*
X507400Y359886D02*X507900Y360386D01*
X506400Y359886D02*X507400D01*
X505900Y360886D02*X507900Y362886D01*
X509100Y363386D02*X509600Y363886D01*
X510600D01*
X511100Y363386D01*
Y360386D01*
X510600Y359886D02*X511100Y360386D01*
X509600Y359886D02*X510600D01*
X509100Y360386D02*X509600Y359886D01*
Y361886D02*X511100D01*
X459000Y344886D02*X461000D01*
X461500Y344386D01*
Y343386D01*
X461000Y342886D02*X461500Y343386D01*
X459500Y342886D02*X461000D01*
X459500Y344886D02*Y340886D01*
Y342886D02*X461500Y340886D01*
X462700Y344386D02*X463200Y344886D01*
X464200D01*
X464700Y344386D01*
Y341386D01*
X464200Y340886D02*X464700Y341386D01*
X463200Y340886D02*X464200D01*
X462700Y341386D02*X463200Y340886D01*
Y342886D02*X464700D01*
X465900Y341386D02*X466400Y340886D01*
X465900Y344386D02*Y341386D01*
Y344386D02*X466400Y344886D01*
X467400D01*
X467900Y344386D01*
Y341386D01*
X467400Y340886D02*X467900Y341386D01*
X466400Y340886D02*X467400D01*
X465900Y341886D02*X467900Y343886D01*
X469100Y344386D02*X469600Y344886D01*
X471100D01*
X471600Y344386D01*
Y343386D01*
X469100Y340886D02*X471600Y343386D01*
X469100Y340886D02*X471600D01*
X107000Y319886D02*X108500D01*
Y316386D01*
X108000Y315886D02*X108500Y316386D01*
X107500Y315886D02*X108000D01*
X107000Y316386D02*X107500Y315886D01*
X109700Y319386D02*X110200Y319886D01*
X111200D01*
X111700Y319386D01*
Y316386D01*
X111200Y315886D02*X111700Y316386D01*
X110200Y315886D02*X111200D01*
X109700Y316386D02*X110200Y315886D01*
Y317886D02*X111700D01*
X112900Y316386D02*X113400Y315886D01*
X112900Y319386D02*Y316386D01*
Y319386D02*X113400Y319886D01*
X114400D01*
X114900Y319386D01*
Y316386D01*
X114400Y315886D02*X114900Y316386D01*
X113400Y315886D02*X114400D01*
X112900Y316886D02*X114900Y318886D01*
X116100Y319386D02*X116600Y319886D01*
X118100D01*
X118600Y319386D01*
Y318386D01*
X116100Y315886D02*X118600Y318386D01*
X116100Y315886D02*X118600D01*
X107000Y259886D02*X108500D01*
Y256386D01*
X108000Y255886D02*X108500Y256386D01*
X107500Y255886D02*X108000D01*
X107000Y256386D02*X107500Y255886D01*
X109700Y259386D02*X110200Y259886D01*
X111200D01*
X111700Y259386D01*
Y256386D01*
X111200Y255886D02*X111700Y256386D01*
X110200Y255886D02*X111200D01*
X109700Y256386D02*X110200Y255886D01*
Y257886D02*X111700D01*
X112900Y256386D02*X113400Y255886D01*
X112900Y259386D02*Y256386D01*
Y259386D02*X113400Y259886D01*
X114400D01*
X114900Y259386D01*
Y256386D01*
X114400Y255886D02*X114900Y256386D01*
X113400Y255886D02*X114400D01*
X112900Y256886D02*X114900Y258886D01*
X116100Y259386D02*X116600Y259886D01*
X117600D01*
X118100Y259386D01*
Y256386D01*
X117600Y255886D02*X118100Y256386D01*
X116600Y255886D02*X117600D01*
X116100Y256386D02*X116600Y255886D01*
Y257886D02*X118100D01*
X107000Y199886D02*X108500D01*
Y196386D01*
X108000Y195886D02*X108500Y196386D01*
X107500Y195886D02*X108000D01*
X107000Y196386D02*X107500Y195886D01*
X109700Y199386D02*X110200Y199886D01*
X111200D01*
X111700Y199386D01*
Y196386D01*
X111200Y195886D02*X111700Y196386D01*
X110200Y195886D02*X111200D01*
X109700Y196386D02*X110200Y195886D01*
Y197886D02*X111700D01*
X112900Y196386D02*X113400Y195886D01*
X112900Y199386D02*Y196386D01*
Y199386D02*X113400Y199886D01*
X114400D01*
X114900Y199386D01*
Y196386D01*
X114400Y195886D02*X114900Y196386D01*
X113400Y195886D02*X114400D01*
X112900Y196886D02*X114900Y198886D01*
X116100Y197886D02*X118100Y199886D01*
X116100Y197886D02*X118600D01*
X118100Y199886D02*Y195886D01*
X107000Y139886D02*X108500D01*
Y136386D01*
X108000Y135886D02*X108500Y136386D01*
X107500Y135886D02*X108000D01*
X107000Y136386D02*X107500Y135886D01*
X109700Y139386D02*X110200Y139886D01*
X111200D01*
X111700Y139386D01*
Y136386D01*
X111200Y135886D02*X111700Y136386D01*
X110200Y135886D02*X111200D01*
X109700Y136386D02*X110200Y135886D01*
Y137886D02*X111700D01*
X112900Y136386D02*X113400Y135886D01*
X112900Y139386D02*Y136386D01*
Y139386D02*X113400Y139886D01*
X114400D01*
X114900Y139386D01*
Y136386D01*
X114400Y135886D02*X114900Y136386D01*
X113400Y135886D02*X114400D01*
X112900Y136886D02*X114900Y138886D01*
X116100Y139886D02*X118100D01*
X116100D02*Y137886D01*
X116600Y138386D01*
X117600D01*
X118100Y137886D01*
Y136386D01*
X117600Y135886D02*X118100Y136386D01*
X116600Y135886D02*X117600D01*
X116100Y136386D02*X116600Y135886D01*
X588000Y431886D02*X589500D01*
X587500Y432386D02*X588000Y431886D01*
X587500Y435386D02*Y432386D01*
Y435386D02*X588000Y435886D01*
X589500D01*
X590700Y435386D02*X591200Y435886D01*
X592200D01*
X592700Y435386D01*
Y432386D01*
X592200Y431886D02*X592700Y432386D01*
X591200Y431886D02*X592200D01*
X590700Y432386D02*X591200Y431886D01*
Y433886D02*X592700D01*
X594400Y431886D02*X595400D01*
X594900Y435886D02*Y431886D01*
X593900Y434886D02*X594900Y435886D01*
X596600Y435386D02*X597100Y435886D01*
X598600D01*
X599100Y435386D01*
Y434386D01*
X596600Y431886D02*X599100Y434386D01*
X596600Y431886D02*X599100D01*
X505000Y420886D02*X507000D01*
X507500Y420386D01*
Y419386D01*
X507000Y418886D02*X507500Y419386D01*
X505500Y418886D02*X507000D01*
X505500Y420886D02*Y416886D01*
Y418886D02*X507500Y416886D01*
X508700Y420386D02*X509200Y420886D01*
X510200D01*
X510700Y420386D01*
Y417386D01*
X510200Y416886D02*X510700Y417386D01*
X509200Y416886D02*X510200D01*
X508700Y417386D02*X509200Y416886D01*
Y418886D02*X510700D01*
X511900Y417386D02*X512400Y416886D01*
X511900Y420386D02*Y417386D01*
Y420386D02*X512400Y420886D01*
X513400D01*
X513900Y420386D01*
Y417386D01*
X513400Y416886D02*X513900Y417386D01*
X512400Y416886D02*X513400D01*
X511900Y417886D02*X513900Y419886D01*
X515100Y416886D02*X517100Y418886D01*
Y420386D02*Y418886D01*
X516600Y420886D02*X517100Y420386D01*
X515600Y420886D02*X516600D01*
X515100Y420386D02*X515600Y420886D01*
X515100Y420386D02*Y419386D01*
X515600Y418886D01*
X517100D01*
X600000Y401386D02*X604000D01*
X600000Y402886D02*Y400886D01*
Y402886D02*X600500Y403386D01*
X601500D01*
X602000Y402886D02*X601500Y403386D01*
X602000Y402886D02*Y401386D01*
X600500Y404586D02*X600000Y405086D01*
Y406086D02*Y405086D01*
Y406086D02*X600500Y406586D01*
X603500D01*
X604000Y406086D02*X603500Y406586D01*
X604000Y406086D02*Y405086D01*
X603500Y404586D02*X604000Y405086D01*
X602000Y406586D02*Y405086D01*
X603500Y407786D02*X604000Y408286D01*
X600500Y407786D02*X603500D01*
X600500D02*X600000Y408286D01*
Y409286D02*Y408286D01*
Y409286D02*X600500Y409786D01*
X603500D01*
X604000Y409286D02*X603500Y409786D01*
X604000Y409286D02*Y408286D01*
X603000Y407786D02*X601000Y409786D01*
X603500Y410986D02*X604000Y411486D01*
X600500Y410986D02*X603500D01*
X600500D02*X600000Y411486D01*
Y412486D02*Y411486D01*
Y412486D02*X600500Y412986D01*
X603500D01*
X604000Y412486D02*X603500Y412986D01*
X604000Y412486D02*Y411486D01*
X603000Y410986D02*X601000Y412986D01*
X323000Y459386D02*X324500D01*
X322500Y459886D02*X323000Y459386D01*
X322500Y462886D02*Y459886D01*
Y462886D02*X323000Y463386D01*
X324500D01*
X577000Y341386D02*X578500D01*
X576500Y341886D02*X577000Y341386D01*
X576500Y344886D02*Y341886D01*
Y344886D02*X577000Y345386D01*
X578500D01*
X579700Y344886D02*X580200Y345386D01*
X581200D01*
X581700Y344886D01*
Y341886D01*
X581200Y341386D02*X581700Y341886D01*
X580200Y341386D02*X581200D01*
X579700Y341886D02*X580200Y341386D01*
Y343386D02*X581700D01*
X583400Y341386D02*X584400D01*
X583900Y345386D02*Y341386D01*
X582900Y344386D02*X583900Y345386D01*
X585600D02*X587600D01*
X585600D02*Y343386D01*
X586100Y343886D01*
X587100D01*
X587600Y343386D01*
Y341886D01*
X587100Y341386D02*X587600Y341886D01*
X586100Y341386D02*X587100D01*
X585600Y341886D02*X586100Y341386D01*
X563000Y264886D02*X567000D01*
X563000Y266386D02*X563500Y266886D01*
X566500D01*
X567000Y266386D02*X566500Y266886D01*
X567000Y266386D02*Y264386D01*
X563000Y266386D02*Y264386D01*
X563500Y268086D02*X563000Y268586D01*
Y269586D02*Y268586D01*
Y269586D02*X563500Y270086D01*
X566500D01*
X567000Y269586D02*X566500Y270086D01*
X567000Y269586D02*Y268586D01*
X566500Y268086D02*X567000Y268586D01*
X565000Y270086D02*Y268586D01*
X566500Y271286D02*X567000Y271786D01*
X563500Y271286D02*X566500D01*
X563500D02*X563000Y271786D01*
Y272786D02*Y271786D01*
Y272786D02*X563500Y273286D01*
X566500D01*
X567000Y272786D02*X566500Y273286D01*
X567000Y272786D02*Y271786D01*
X566000Y271286D02*X564000Y273286D01*
X567000Y275986D02*Y274986D01*
X563000Y275486D02*X567000D01*
X564000Y274486D02*X563000Y275486D01*
X528000Y301886D02*X529500D01*
X527500Y302386D02*X528000Y301886D01*
X527500Y305386D02*Y302386D01*
Y305386D02*X528000Y305886D01*
X529500D01*
X530700Y305386D02*X531200Y305886D01*
X532200D01*
X532700Y305386D01*
Y302386D01*
X532200Y301886D02*X532700Y302386D01*
X531200Y301886D02*X532200D01*
X530700Y302386D02*X531200Y301886D01*
Y303886D02*X532700D01*
X534400Y301886D02*X535400D01*
X534900Y305886D02*Y301886D01*
X533900Y304886D02*X534900Y305886D01*
X538100D02*X538600Y305386D01*
X537100Y305886D02*X538100D01*
X536600Y305386D02*X537100Y305886D01*
X536600Y305386D02*Y302386D01*
X537100Y301886D01*
X538100Y303886D02*X538600Y303386D01*
X536600Y303886D02*X538100D01*
X537100Y301886D02*X538100D01*
X538600Y302386D01*
Y303386D02*Y302386D01*
X542500Y364886D02*Y361386D01*
X543000Y360886D01*
X544000D01*
X544500Y361386D01*
Y364886D02*Y361386D01*
X545700Y364386D02*X546200Y364886D01*
X547200D01*
X547700Y364386D01*
Y361386D01*
X547200Y360886D02*X547700Y361386D01*
X546200Y360886D02*X547200D01*
X545700Y361386D02*X546200Y360886D01*
Y362886D02*X547700D01*
X548900Y361386D02*X549400Y360886D01*
X548900Y364386D02*Y361386D01*
Y364386D02*X549400Y364886D01*
X550400D01*
X550900Y364386D01*
Y361386D01*
X550400Y360886D02*X550900Y361386D01*
X549400Y360886D02*X550400D01*
X548900Y361886D02*X550900Y363886D01*
X552600Y360886D02*X553600D01*
X553100Y364886D02*Y360886D01*
X552100Y363886D02*X553100Y364886D01*
X371000Y439386D02*X373000D01*
X373500Y438886D01*
Y437886D01*
X373000Y437386D02*X373500Y437886D01*
X371500Y437386D02*X373000D01*
X371500Y439386D02*Y435386D01*
Y437386D02*X373500Y435386D01*
X374700Y438886D02*X375200Y439386D01*
X376200D01*
X376700Y438886D01*
Y435886D01*
X376200Y435386D02*X376700Y435886D01*
X375200Y435386D02*X376200D01*
X374700Y435886D02*X375200Y435386D01*
Y437386D02*X376700D01*
X378400Y435386D02*X379400D01*
X378900Y439386D02*Y435386D01*
X377900Y438386D02*X378900Y439386D01*
X380600Y435886D02*X381100Y435386D01*
X380600Y438886D02*Y435886D01*
Y438886D02*X381100Y439386D01*
X382100D01*
X382600Y438886D01*
Y435886D01*
X382100Y435386D02*X382600Y435886D01*
X381100Y435386D02*X382100D01*
X380600Y436386D02*X382600Y438386D01*
X588000Y300886D02*Y298886D01*
Y300886D02*X588500Y301386D01*
X589500D01*
X590000Y300886D02*X589500Y301386D01*
X590000Y300886D02*Y299386D01*
X588000D02*X592000D01*
X590000D02*X592000Y301386D01*
X588500Y302586D02*X588000Y303086D01*
Y304086D02*Y303086D01*
Y304086D02*X588500Y304586D01*
X591500D01*
X592000Y304086D02*X591500Y304586D01*
X592000Y304086D02*Y303086D01*
X591500Y302586D02*X592000Y303086D01*
X590000Y304586D02*Y303086D01*
X591500Y305786D02*X592000Y306286D01*
X588500Y305786D02*X591500D01*
X588500D02*X588000Y306286D01*
Y307286D02*Y306286D01*
Y307286D02*X588500Y307786D01*
X591500D01*
X592000Y307286D02*X591500Y307786D01*
X592000Y307286D02*Y306286D01*
X591000Y305786D02*X589000Y307786D01*
X591500Y308986D02*X592000Y309486D01*
X590500Y308986D02*X591500D01*
X590500D02*X590000Y309486D01*
Y310486D02*Y309486D01*
Y310486D02*X590500Y310986D01*
X591500D01*
X592000Y310486D02*X591500Y310986D01*
X592000Y310486D02*Y309486D01*
X589500Y308986D02*X590000Y309486D01*
X588500Y308986D02*X589500D01*
X588500D02*X588000Y309486D01*
Y310486D02*Y309486D01*
Y310486D02*X588500Y310986D01*
X589500D01*
X590000Y310486D02*X589500Y310986D01*
X512500Y438886D02*Y434886D01*
X514000Y438886D02*X514500Y438386D01*
Y435386D01*
X514000Y434886D02*X514500Y435386D01*
X512000Y434886D02*X514000D01*
X512000Y438886D02*X514000D01*
X515700Y438386D02*X516200Y438886D01*
X517200D01*
X517700Y438386D01*
Y435386D01*
X517200Y434886D02*X517700Y435386D01*
X516200Y434886D02*X517200D01*
X515700Y435386D02*X516200Y434886D01*
Y436886D02*X517700D01*
X518900Y435386D02*X519400Y434886D01*
X518900Y438386D02*Y435386D01*
Y438386D02*X519400Y438886D01*
X520400D01*
X520900Y438386D01*
Y435386D01*
X520400Y434886D02*X520900Y435386D01*
X519400Y434886D02*X520400D01*
X518900Y435886D02*X520900Y437886D01*
X522100Y438386D02*X522600Y438886D01*
X523600D01*
X524100Y438386D01*
Y435386D01*
X523600Y434886D02*X524100Y435386D01*
X522600Y434886D02*X523600D01*
X522100Y435386D02*X522600Y434886D01*
Y436886D02*X524100D01*
X453000Y438886D02*Y434886D01*
X454500Y438886D02*X455000Y438386D01*
Y435386D01*
X454500Y434886D02*X455000Y435386D01*
X452500Y434886D02*X454500D01*
X452500Y438886D02*X454500D01*
X456200Y438386D02*X456700Y438886D01*
X457700D01*
X458200Y438386D01*
Y435386D01*
X457700Y434886D02*X458200Y435386D01*
X456700Y434886D02*X457700D01*
X456200Y435386D02*X456700Y434886D01*
Y436886D02*X458200D01*
X459400Y435386D02*X459900Y434886D01*
X459400Y438386D02*Y435386D01*
Y438386D02*X459900Y438886D01*
X460900D01*
X461400Y438386D01*
Y435386D01*
X460900Y434886D02*X461400Y435386D01*
X459900Y434886D02*X460900D01*
X459400Y435886D02*X461400Y437886D01*
X462600Y438386D02*X463100Y438886D01*
X464600D01*
X465100Y438386D01*
Y437386D01*
X462600Y434886D02*X465100Y437386D01*
X462600Y434886D02*X465100D01*
X108000Y460886D02*Y457886D01*
X107500Y461386D02*X108000Y460886D01*
X108500Y461386D01*
X109500D01*
X110000Y460886D01*
Y459886D01*
X109500Y459386D02*X110000Y459886D01*
X108500Y459386D02*X109500D01*
X108000Y459886D02*X108500Y459386D01*
X111700D02*X112700D01*
X112200Y463386D02*Y459386D01*
X111200Y462386D02*X112200Y463386D01*
X101500Y351886D02*X103000D01*
X101000Y352386D02*X101500Y351886D01*
X101000Y355386D02*Y352386D01*
Y355386D02*X101500Y355886D01*
X103000D01*
X104200Y355386D02*X104700Y355886D01*
X105700D01*
X106200Y355386D01*
Y352386D01*
X105700Y351886D02*X106200Y352386D01*
X104700Y351886D02*X105700D01*
X104200Y352386D02*X104700Y351886D01*
Y353886D02*X106200D01*
X107400Y352386D02*X107900Y351886D01*
X107400Y355386D02*Y352386D01*
Y355386D02*X107900Y355886D01*
X108900D01*
X109400Y355386D01*
Y352386D01*
X108900Y351886D02*X109400Y352386D01*
X107900Y351886D02*X108900D01*
X107400Y352886D02*X109400Y354886D01*
X110600Y355386D02*X111100Y355886D01*
X112100D01*
X112600Y355386D01*
Y352386D01*
X112100Y351886D02*X112600Y352386D01*
X111100Y351886D02*X112100D01*
X110600Y352386D02*X111100Y351886D01*
Y353886D02*X112600D01*
X107000Y379886D02*X108500D01*
Y376386D01*
X108000Y375886D02*X108500Y376386D01*
X107500Y375886D02*X108000D01*
X107000Y376386D02*X107500Y375886D01*
X109700Y379386D02*X110200Y379886D01*
X111200D01*
X111700Y379386D01*
Y376386D01*
X111200Y375886D02*X111700Y376386D01*
X110200Y375886D02*X111200D01*
X109700Y376386D02*X110200Y375886D01*
Y377886D02*X111700D01*
X112900Y376386D02*X113400Y375886D01*
X112900Y379386D02*Y376386D01*
Y379386D02*X113400Y379886D01*
X114400D01*
X114900Y379386D01*
Y376386D01*
X114400Y375886D02*X114900Y376386D01*
X113400Y375886D02*X114400D01*
X112900Y376886D02*X114900Y378886D01*
X116600Y375886D02*X117600D01*
X117100Y379886D02*Y375886D01*
X116100Y378886D02*X117100Y379886D01*
X183000Y460886D02*Y457886D01*
X182500Y461386D02*X183000Y460886D01*
X183500Y461386D01*
X184500D01*
X185000Y460886D01*
Y459886D01*
X184500Y459386D02*X185000Y459886D01*
X183500Y459386D02*X184500D01*
X183000Y459886D02*X183500Y459386D01*
X186200Y462886D02*X186700Y463386D01*
X188200D01*
X188700Y462886D01*
Y461886D01*
X186200Y459386D02*X188700Y461886D01*
X186200Y459386D02*X188700D01*
X157000Y171886D02*X158500D01*
X156500Y172386D02*X157000Y171886D01*
X156500Y175386D02*Y172386D01*
Y175386D02*X157000Y175886D01*
X158500D01*
X159700Y175386D02*X160200Y175886D01*
X161200D01*
X161700Y175386D01*
Y172386D01*
X161200Y171886D02*X161700Y172386D01*
X160200Y171886D02*X161200D01*
X159700Y172386D02*X160200Y171886D01*
Y173886D02*X161700D01*
X162900Y172386D02*X163400Y171886D01*
X162900Y175386D02*Y172386D01*
Y175386D02*X163400Y175886D01*
X164400D01*
X164900Y175386D01*
Y172386D01*
X164400Y171886D02*X164900Y172386D01*
X163400Y171886D02*X164400D01*
X162900Y172886D02*X164900Y174886D01*
X166100Y172386D02*X166600Y171886D01*
X166100Y173386D02*Y172386D01*
Y173386D02*X166600Y173886D01*
X167600D01*
X168100Y173386D01*
Y172386D01*
X167600Y171886D02*X168100Y172386D01*
X166600Y171886D02*X167600D01*
X166100Y174386D02*X166600Y173886D01*
X166100Y175386D02*Y174386D01*
Y175386D02*X166600Y175886D01*
X167600D01*
X168100Y175386D01*
Y174386D01*
X167600Y173886D02*X168100Y174386D01*
X157000Y351886D02*X158500D01*
X156500Y352386D02*X157000Y351886D01*
X156500Y355386D02*Y352386D01*
Y355386D02*X157000Y355886D01*
X158500D01*
X159700Y355386D02*X160200Y355886D01*
X161200D01*
X161700Y355386D01*
Y352386D01*
X161200Y351886D02*X161700Y352386D01*
X160200Y351886D02*X161200D01*
X159700Y352386D02*X160200Y351886D01*
Y353886D02*X161700D01*
X162900Y352386D02*X163400Y351886D01*
X162900Y355386D02*Y352386D01*
Y355386D02*X163400Y355886D01*
X164400D01*
X164900Y355386D01*
Y352386D01*
X164400Y351886D02*X164900Y352386D01*
X163400Y351886D02*X164400D01*
X162900Y352886D02*X164900Y354886D01*
X166100Y355386D02*X166600Y355886D01*
X168100D01*
X168600Y355386D01*
Y354386D01*
X166100Y351886D02*X168600Y354386D01*
X166100Y351886D02*X168600D01*
X157000Y291886D02*X158500D01*
X156500Y292386D02*X157000Y291886D01*
X156500Y295386D02*Y292386D01*
Y295386D02*X157000Y295886D01*
X158500D01*
X159700Y295386D02*X160200Y295886D01*
X161200D01*
X161700Y295386D01*
Y292386D01*
X161200Y291886D02*X161700Y292386D01*
X160200Y291886D02*X161200D01*
X159700Y292386D02*X160200Y291886D01*
Y293886D02*X161700D01*
X162900Y292386D02*X163400Y291886D01*
X162900Y295386D02*Y292386D01*
Y295386D02*X163400Y295886D01*
X164400D01*
X164900Y295386D01*
Y292386D01*
X164400Y291886D02*X164900Y292386D01*
X163400Y291886D02*X164400D01*
X162900Y292886D02*X164900Y294886D01*
X166100Y293886D02*X168100Y295886D01*
X166100Y293886D02*X168600D01*
X168100Y295886D02*Y291886D01*
X157000Y231886D02*X158500D01*
X156500Y232386D02*X157000Y231886D01*
X156500Y235386D02*Y232386D01*
Y235386D02*X157000Y235886D01*
X158500D01*
X159700Y235386D02*X160200Y235886D01*
X161200D01*
X161700Y235386D01*
Y232386D01*
X161200Y231886D02*X161700Y232386D01*
X160200Y231886D02*X161200D01*
X159700Y232386D02*X160200Y231886D01*
Y233886D02*X161700D01*
X162900Y232386D02*X163400Y231886D01*
X162900Y235386D02*Y232386D01*
Y235386D02*X163400Y235886D01*
X164400D01*
X164900Y235386D01*
Y232386D01*
X164400Y231886D02*X164900Y232386D01*
X163400Y231886D02*X164400D01*
X162900Y232886D02*X164900Y234886D01*
X167600Y235886D02*X168100Y235386D01*
X166600Y235886D02*X167600D01*
X166100Y235386D02*X166600Y235886D01*
X166100Y235386D02*Y232386D01*
X166600Y231886D01*
X167600Y233886D02*X168100Y233386D01*
X166100Y233886D02*X167600D01*
X166600Y231886D02*X167600D01*
X168100Y232386D01*
Y233386D02*Y232386D01*
X43500Y400386D02*Y398886D01*
Y400386D02*X47000D01*
X47500Y399886D02*X47000Y400386D01*
X47500Y399886D02*Y399386D01*
X47000Y398886D02*X47500Y399386D01*
X44000Y401586D02*X43500Y402086D01*
Y403086D02*Y402086D01*
Y403086D02*X44000Y403586D01*
X47000D01*
X47500Y403086D02*X47000Y403586D01*
X47500Y403086D02*Y402086D01*
X47000Y401586D02*X47500Y402086D01*
X45500Y403586D02*Y402086D01*
X47000Y404786D02*X47500Y405286D01*
X44000Y404786D02*X47000D01*
X44000D02*X43500Y405286D01*
Y406286D02*Y405286D01*
Y406286D02*X44000Y406786D01*
X47000D01*
X47500Y406286D02*X47000Y406786D01*
X47500Y406286D02*Y405286D01*
X46500Y404786D02*X44500Y406786D01*
X47000Y407986D02*X47500Y408486D01*
X44000Y407986D02*X47000D01*
X44000D02*X43500Y408486D01*
Y409486D02*Y408486D01*
Y409486D02*X44000Y409986D01*
X47000D01*
X47500Y409486D02*X47000Y409986D01*
X47500Y409486D02*Y408486D01*
X46500Y407986D02*X44500Y409986D01*
X2500Y425386D02*Y421886D01*
Y425386D02*X3000Y425886D01*
X4500D01*
X5000Y425386D01*
Y421886D01*
X2500Y423886D02*X5000D01*
X105500Y53386D02*Y50386D01*
X105000Y53886D02*X105500Y53386D01*
X106000Y53886D01*
X107000D01*
X107500Y53386D01*
Y52386D01*
X107000Y51886D02*X107500Y52386D01*
X106000Y51886D02*X107000D01*
X105500Y52386D02*X106000Y51886D01*
X108700Y55386D02*X109200Y55886D01*
X110200D01*
X110700Y55386D01*
Y52386D01*
X110200Y51886D02*X110700Y52386D01*
X109200Y51886D02*X110200D01*
X108700Y52386D02*X109200Y51886D01*
Y53886D02*X110700D01*
X101500Y171886D02*X103000D01*
X101000Y172386D02*X101500Y171886D01*
X101000Y175386D02*Y172386D01*
Y175386D02*X101500Y175886D01*
X103000D01*
X104200Y175386D02*X104700Y175886D01*
X105700D01*
X106200Y175386D01*
Y172386D01*
X105700Y171886D02*X106200Y172386D01*
X104700Y171886D02*X105700D01*
X104200Y172386D02*X104700Y171886D01*
Y173886D02*X106200D01*
X107400Y172386D02*X107900Y171886D01*
X107400Y175386D02*Y172386D01*
Y175386D02*X107900Y175886D01*
X108900D01*
X109400Y175386D01*
Y172386D01*
X108900Y171886D02*X109400Y172386D01*
X107900Y171886D02*X108900D01*
X107400Y172886D02*X109400Y174886D01*
X110600Y171886D02*X112600Y173886D01*
Y175386D02*Y173886D01*
X112100Y175886D02*X112600Y175386D01*
X111100Y175886D02*X112100D01*
X110600Y175386D02*X111100Y175886D01*
X110600Y175386D02*Y174386D01*
X111100Y173886D01*
X112600D01*
X101500Y291886D02*X103000D01*
X101000Y292386D02*X101500Y291886D01*
X101000Y295386D02*Y292386D01*
Y295386D02*X101500Y295886D01*
X103000D01*
X104200Y295386D02*X104700Y295886D01*
X105700D01*
X106200Y295386D01*
Y292386D01*
X105700Y291886D02*X106200Y292386D01*
X104700Y291886D02*X105700D01*
X104200Y292386D02*X104700Y291886D01*
Y293886D02*X106200D01*
X107400Y292386D02*X107900Y291886D01*
X107400Y295386D02*Y292386D01*
Y295386D02*X107900Y295886D01*
X108900D01*
X109400Y295386D01*
Y292386D01*
X108900Y291886D02*X109400Y292386D01*
X107900Y291886D02*X108900D01*
X107400Y292886D02*X109400Y294886D01*
X110600Y295886D02*X112600D01*
X110600D02*Y293886D01*
X111100Y294386D01*
X112100D01*
X112600Y293886D01*
Y292386D01*
X112100Y291886D02*X112600Y292386D01*
X111100Y291886D02*X112100D01*
X110600Y292386D02*X111100Y291886D01*
X101500Y231886D02*X103000D01*
X101000Y232386D02*X101500Y231886D01*
X101000Y235386D02*Y232386D01*
Y235386D02*X101500Y235886D01*
X103000D01*
X104200Y235386D02*X104700Y235886D01*
X105700D01*
X106200Y235386D01*
Y232386D01*
X105700Y231886D02*X106200Y232386D01*
X104700Y231886D02*X105700D01*
X104200Y232386D02*X104700Y231886D01*
Y233886D02*X106200D01*
X107400Y232386D02*X107900Y231886D01*
X107400Y235386D02*Y232386D01*
Y235386D02*X107900Y235886D01*
X108900D01*
X109400Y235386D01*
Y232386D01*
X108900Y231886D02*X109400Y232386D01*
X107900Y231886D02*X108900D01*
X107400Y232886D02*X109400Y234886D01*
X110600Y231886D02*X113100Y234386D01*
Y235886D02*Y234386D01*
X110600Y235886D02*X113100D01*
X183000Y53386D02*Y50386D01*
X182500Y53886D02*X183000Y53386D01*
X183500Y53886D01*
X184500D01*
X185000Y53386D01*
Y52386D01*
X184500Y51886D02*X185000Y52386D01*
X183500Y51886D02*X184500D01*
X183000Y52386D02*X183500Y51886D01*
X186200Y53886D02*X188200Y55886D01*
X186200Y53886D02*X188700D01*
X188200Y55886D02*Y51886D01*
M02*
