G04 start of page 3 for group 1 idx 1 *
G04 Title: 26.001.00.01.01.pcb, bottom *
G04 Creator: pcb 4.1.2 *
G04 CreationDate: Fri Aug 10 20:06:22 2018 UTC *
G04 For: bert *
G04 Format: Gerber/RS-274X *
G04 PCB-Dimensions (mil): 3937.01 5905.51 *
G04 PCB-Coordinate-Origin: lower left *
%MOIN*%
%FSLAX25Y25*%
%LNGBL*%
%ADD29C,0.4134*%
%ADD28C,0.4331*%
%ADD27C,0.1457*%
%ADD26C,0.1102*%
%ADD25C,0.4921*%
%ADD24C,0.4331*%
%ADD23C,0.2000*%
%ADD22C,0.2559*%
%ADD21C,0.1968*%
%ADD20C,0.0400*%
%ADD19C,0.0001*%
G54D19*G36*
X178115Y551181D02*X238189D01*
Y47244D01*
X178115D01*
Y158382D01*
X178150Y158379D01*
X181704Y158659D01*
X185172Y159491D01*
X188466Y160856D01*
X191506Y162719D01*
X194217Y165034D01*
X196533Y167746D01*
X198396Y170786D01*
X199761Y174080D01*
X200593Y177548D01*
X200803Y181102D01*
X200593Y184657D01*
X199761Y188124D01*
X198396Y191419D01*
X196533Y194459D01*
X194217Y197170D01*
X191506Y199486D01*
X188466Y201349D01*
X185172Y202714D01*
X181704Y203546D01*
X178150Y203826D01*
X178115Y203823D01*
Y273608D01*
X178149Y273606D01*
X178151D01*
X182169Y273843D01*
X186088Y274784D01*
X189812Y276327D01*
X193248Y278433D01*
X196313Y281050D01*
X198931Y284115D01*
X201037Y287552D01*
X202579Y291275D01*
X203520Y295195D01*
X203836Y299213D01*
X203520Y303231D01*
X202579Y307150D01*
X201037Y310874D01*
X198931Y314310D01*
X196313Y317375D01*
X193248Y319993D01*
X189812Y322099D01*
X186088Y323641D01*
X182169Y324582D01*
X178151Y324819D01*
X178149D01*
X178115Y324817D01*
Y394602D01*
X178150Y394599D01*
X181704Y394879D01*
X185172Y395711D01*
X188466Y397076D01*
X191506Y398939D01*
X194218Y401255D01*
X196534Y403966D01*
X198397Y407006D01*
X199761Y410301D01*
X200594Y413768D01*
X200804Y417323D01*
X200594Y420878D01*
X199761Y424345D01*
X198397Y427639D01*
X196534Y430680D01*
X194218Y433391D01*
X191506Y435707D01*
X188466Y437570D01*
X185172Y438935D01*
X181704Y439767D01*
X178150Y440047D01*
X178115Y440044D01*
Y551181D01*
G37*
G36*
X138767D02*X178115D01*
Y440044D01*
X174595Y439767D01*
X171128Y438935D01*
X167833Y437570D01*
X164793Y435707D01*
X162081Y433391D01*
X159766Y430680D01*
X157902Y427639D01*
X156538Y424345D01*
X155706Y420878D01*
X155426Y417323D01*
X155706Y413768D01*
X156538Y410301D01*
X157902Y407006D01*
X159766Y403966D01*
X162081Y401255D01*
X164793Y398939D01*
X167833Y397076D01*
X171128Y395711D01*
X174595Y394879D01*
X178115Y394602D01*
Y324817D01*
X174131Y324582D01*
X170211Y323641D01*
X166488Y322099D01*
X163051Y319993D01*
X159986Y317375D01*
X157369Y314310D01*
X155263Y310874D01*
X153720Y307150D01*
X152779Y303231D01*
X152463Y299213D01*
X152779Y295195D01*
X153720Y291275D01*
X155263Y287552D01*
X157369Y284115D01*
X159986Y281050D01*
X163051Y278433D01*
X166488Y276327D01*
X170211Y274784D01*
X174131Y273843D01*
X178115Y273608D01*
Y203823D01*
X174595Y203546D01*
X171128Y202714D01*
X167833Y201349D01*
X164793Y199486D01*
X162082Y197170D01*
X159766Y194459D01*
X157903Y191419D01*
X156538Y188124D01*
X155706Y184657D01*
X155426Y181102D01*
X155706Y177548D01*
X156538Y174080D01*
X157903Y170786D01*
X159766Y167746D01*
X162082Y165034D01*
X164793Y162719D01*
X167833Y160856D01*
X171128Y159491D01*
X174595Y158659D01*
X178115Y158382D01*
Y47244D01*
X138767D01*
Y129487D01*
X138780Y129486D01*
X140079Y129589D01*
X141347Y129893D01*
X142552Y130392D01*
X143663Y131073D01*
X144655Y131920D01*
X145502Y132911D01*
X146183Y134023D01*
X146682Y135228D01*
X146986Y136495D01*
X147063Y137795D01*
X146986Y139095D01*
X146682Y140363D01*
X146183Y141568D01*
X145502Y142679D01*
X144655Y143671D01*
X143663Y144517D01*
X142552Y145199D01*
X141347Y145698D01*
X140079Y146002D01*
X138780Y146104D01*
X138767Y146103D01*
Y406290D01*
X138780Y406289D01*
X140506Y406425D01*
X142189Y406829D01*
X143789Y407492D01*
X145265Y408396D01*
X146582Y409521D01*
X147706Y410837D01*
X148611Y412314D01*
X149273Y413913D01*
X149678Y415597D01*
X149780Y417323D01*
X149678Y419049D01*
X149273Y420733D01*
X148611Y422332D01*
X147706Y423808D01*
X146582Y425125D01*
X145265Y426249D01*
X143789Y427154D01*
X142189Y427817D01*
X140506Y428221D01*
X138780Y428357D01*
X138767Y428356D01*
Y452322D01*
X138780Y452321D01*
X140079Y452423D01*
X141347Y452728D01*
X142552Y453227D01*
X143663Y453908D01*
X144655Y454755D01*
X145502Y455746D01*
X146183Y456858D01*
X146682Y458062D01*
X146986Y459330D01*
X147063Y460630D01*
X146986Y461930D01*
X146682Y463198D01*
X146183Y464402D01*
X145502Y465514D01*
X144655Y466505D01*
X143663Y467352D01*
X142552Y468033D01*
X141347Y468532D01*
X140079Y468837D01*
X138780Y468939D01*
X138767Y468938D01*
Y551181D01*
G37*
G36*
X99375D02*X138767D01*
Y468938D01*
X137480Y468837D01*
X136212Y468532D01*
X135007Y468033D01*
X133896Y467352D01*
X132904Y466505D01*
X132057Y465514D01*
X131376Y464402D01*
X130877Y463198D01*
X130573Y461930D01*
X130470Y460630D01*
X130573Y459330D01*
X130877Y458062D01*
X131376Y456858D01*
X132057Y455746D01*
X132904Y454755D01*
X133896Y453908D01*
X135007Y453227D01*
X136212Y452728D01*
X137480Y452423D01*
X138767Y452322D01*
Y428356D01*
X137053Y428221D01*
X135370Y427817D01*
X133770Y427154D01*
X132294Y426249D01*
X130977Y425125D01*
X129853Y423808D01*
X128948Y422332D01*
X128286Y420733D01*
X127881Y419049D01*
X127746Y417323D01*
X127881Y415597D01*
X128286Y413913D01*
X128948Y412314D01*
X129853Y410837D01*
X130977Y409521D01*
X132294Y408396D01*
X133770Y407492D01*
X135370Y406829D01*
X137053Y406425D01*
X138767Y406290D01*
Y146103D01*
X137480Y146002D01*
X136212Y145698D01*
X135007Y145199D01*
X133896Y144517D01*
X132904Y143671D01*
X132057Y142679D01*
X131376Y141568D01*
X130877Y140363D01*
X130573Y139095D01*
X130470Y137795D01*
X130573Y136495D01*
X130877Y135228D01*
X131376Y134023D01*
X132057Y132911D01*
X132904Y131920D01*
X133896Y131073D01*
X135007Y130392D01*
X136212Y129893D01*
X137480Y129589D01*
X138767Y129487D01*
Y47244D01*
X99375D01*
Y394602D01*
X99409Y394599D01*
X102964Y394879D01*
X106432Y395711D01*
X109726Y397076D01*
X112766Y398939D01*
X115478Y401255D01*
X117793Y403966D01*
X119657Y407006D01*
X121021Y410301D01*
X121854Y413768D01*
X122063Y417323D01*
X121854Y420878D01*
X121021Y424345D01*
X119657Y427639D01*
X117793Y430680D01*
X115478Y433391D01*
X112766Y435707D01*
X109726Y437570D01*
X106432Y438935D01*
X102964Y439767D01*
X99409Y440047D01*
X99375Y440044D01*
Y551181D01*
G37*
G36*
X39370D02*X99375D01*
Y440044D01*
X95855Y439767D01*
X92387Y438935D01*
X89093Y437570D01*
X86053Y435707D01*
X83341Y433391D01*
X81025Y430680D01*
X79162Y427639D01*
X77798Y424345D01*
X76965Y420878D01*
X76686Y417323D01*
X76965Y413768D01*
X77798Y410301D01*
X79162Y407006D01*
X81025Y403966D01*
X83341Y401255D01*
X86053Y398939D01*
X89093Y397076D01*
X92387Y395711D01*
X95855Y394879D01*
X99375Y394602D01*
Y47244D01*
X39370D01*
Y551181D01*
G37*
G54D20*X152559Y299213D02*G75*G03X152559Y299213I25591J0D01*G01*
X156496Y417323D02*G75*G03X156496Y417323I21654J0D01*G01*
X77756D02*G75*G03X77756Y417323I21654J0D01*G01*
G54D21*X218504Y539370D03*
X59055D03*
X218504Y59055D03*
X59055D03*
G54D22*X99409Y417323D03*
X178150D03*
G54D23*X138780D03*
G54D24*X99409D03*
X178150D03*
G54D25*X178149Y299213D02*X178151D01*
G54D26*G54D27*G54D26*G54D28*G54D27*G54D22*G54D29*G54D23*M02*
