G04 start of page 10 for group -3984 idx -3984 *
G04 Title: 26.002.00.01.01.pcb, fab *
G04 Creator: pcb 4.1.2 *
G04 CreationDate: Sun Jul 29 08:17:15 2018 UTC *
G04 For: bert *
G04 Format: Gerber/RS-274X *
G04 PCB-Dimensions (mil): 1968.50 3937.01 *
G04 PCB-Coordinate-Origin: lower left *
%MOIN*%
%FSLAX25Y25*%
%LNFAB*%
%ADD72C,0.0100*%
%ADD71C,0.0060*%
%ADD70C,0.0080*%
G54D70*X78309Y37833D02*X83109Y33033D01*
X78309D02*X83109Y37833D01*
X79109Y37033D02*X82309D01*
X79109D02*Y33833D01*
X82309D01*
Y37033D02*Y33833D01*
X78309Y360668D02*X83109Y355868D01*
X78309D02*X83109Y360668D01*
X79109Y359868D02*X82309D01*
X79109D02*Y356668D01*
X82309D01*
Y359868D02*Y356668D01*
X12600Y407351D02*X17400Y402551D01*
X12600D02*X17400Y407351D01*
X13400Y406551D02*X16600D01*
X13400D02*Y403351D01*
X16600D01*
Y406551D02*Y403351D01*
G54D71*X140000Y408701D02*Y402701D01*
Y408701D02*Y407951D01*
X143750Y404201D01*
Y408701D02*Y402701D01*
X145550Y407951D02*Y403451D01*
Y407951D02*X146300Y408701D01*
X147800D01*
X148550Y407951D01*
Y403451D01*
X147800Y402701D02*X148550Y403451D01*
X146300Y402701D02*X147800D01*
X145550Y403451D02*X146300Y402701D01*
X98000Y407951D02*X98750Y408701D01*
X101000D01*
X101750Y407951D01*
Y406451D01*
X98000Y402701D02*X101750Y406451D01*
X98000Y402701D02*X101750D01*
X45000Y403451D02*X45750Y402701D01*
X45000Y407951D02*Y403451D01*
Y407951D02*X45750Y408701D01*
X47250D01*
X48000Y407951D01*
Y403451D01*
X47250Y402701D02*X48000Y403451D01*
X45750Y402701D02*X47250D01*
X45000Y404201D02*X48000Y407201D01*
X49800Y402701D02*X50550D01*
X53100D02*X54600D01*
X53850Y408701D02*Y402701D01*
X52350Y407201D02*X53850Y408701D01*
X56400Y407951D02*X57150Y408701D01*
X59400D01*
X60150Y407951D01*
Y406451D01*
X56400Y402701D02*X60150Y406451D01*
X56400Y402701D02*X60150D01*
X64200Y408701D02*X64950Y407951D01*
X62700Y408701D02*X64200D01*
X61950Y407951D02*X62700Y408701D01*
X61950Y407951D02*Y403451D01*
X62700Y402701D01*
X64200Y405701D02*X64950Y404951D01*
X61950Y405701D02*X64200D01*
X62700Y402701D02*X64200D01*
X64950Y403451D01*
Y404951D02*Y403451D01*
X145079Y56940D02*Y50540D01*
X141879Y53740D02*X148279D01*
X143479Y55340D02*X146679D01*
X143479D02*Y52140D01*
X146679D01*
Y55340D02*Y52140D01*
X145079Y106940D02*Y100540D01*
X141879Y103740D02*X148279D01*
X143479Y105340D02*X146679D01*
X143479D02*Y102140D01*
X146679D01*
Y105340D02*Y102140D01*
X95079Y106940D02*Y100540D01*
X91879Y103740D02*X98279D01*
X93479Y105340D02*X96679D01*
X93479D02*Y102140D01*
X96679D01*
Y105340D02*Y102140D01*
X15000Y423151D02*Y416751D01*
X11800Y419951D02*X18200D01*
X13400Y421551D02*X16600D01*
X13400D02*Y418351D01*
X16600D01*
Y421551D02*Y418351D01*
X135000Y423701D02*Y422951D01*
X136500Y421451D01*
X138000Y422951D01*
Y423701D02*Y422951D01*
X136500Y421451D02*Y417701D01*
X139800Y420701D02*X142050D01*
X139800Y417701D02*X142800D01*
X139800Y423701D02*Y417701D01*
Y423701D02*X142800D01*
X147600D02*X148350Y422951D01*
X145350Y423701D02*X147600D01*
X144600Y422951D02*X145350Y423701D01*
X144600Y422951D02*Y421451D01*
X145350Y420701D01*
X147600D01*
X148350Y419951D01*
Y418451D01*
X147600Y417701D02*X148350Y418451D01*
X145350Y417701D02*X147600D01*
X144600Y418451D02*X145350Y417701D01*
X98000Y422951D02*X98750Y423701D01*
X100250D01*
X101000Y422951D01*
Y418451D01*
X100250Y417701D02*X101000Y418451D01*
X98750Y417701D02*X100250D01*
X98000Y418451D02*X98750Y417701D01*
Y420701D02*X101000D01*
X45000Y418451D02*X45750Y417701D01*
X45000Y422951D02*Y418451D01*
Y422951D02*X45750Y423701D01*
X47250D01*
X48000Y422951D01*
Y418451D01*
X47250Y417701D02*X48000Y418451D01*
X45750Y417701D02*X47250D01*
X45000Y419201D02*X48000Y422201D01*
X49800Y417701D02*X50550D01*
X53100D02*X54600D01*
X53850Y423701D02*Y417701D01*
X52350Y422201D02*X53850Y423701D01*
X57150Y417701D02*X58650D01*
X57900Y423701D02*Y417701D01*
X56400Y422201D02*X57900Y423701D01*
X60450Y418451D02*X61200Y417701D01*
X60450Y422951D02*Y418451D01*
Y422951D02*X61200Y423701D01*
X62700D01*
X63450Y422951D01*
Y418451D01*
X62700Y417701D02*X63450Y418451D01*
X61200Y417701D02*X62700D01*
X60450Y419201D02*X63450Y422201D01*
X120079Y78740D02*Y75540D01*
Y78740D02*X122852Y80340D01*
X120079Y78740D02*X117306Y80340D01*
X118479Y78740D02*G75*G03X121679Y78740I1600J0D01*G01*
G75*G03X118479Y78740I-1600J0D01*G01*
X15000Y434951D02*Y431751D01*
Y434951D02*X17773Y436551D01*
X15000Y434951D02*X12227Y436551D01*
X13400Y434951D02*G75*G03X16600Y434951I1600J0D01*G01*
G75*G03X13400Y434951I-1600J0D01*G01*
X135000Y438701D02*Y437951D01*
X136500Y436451D01*
X138000Y437951D01*
Y438701D02*Y437951D01*
X136500Y436451D02*Y432701D01*
X139800Y435701D02*X142050D01*
X139800Y432701D02*X142800D01*
X139800Y438701D02*Y432701D01*
Y438701D02*X142800D01*
X147600D02*X148350Y437951D01*
X145350Y438701D02*X147600D01*
X144600Y437951D02*X145350Y438701D01*
X144600Y437951D02*Y436451D01*
X145350Y435701D01*
X147600D01*
X148350Y434951D01*
Y433451D01*
X147600Y432701D02*X148350Y433451D01*
X145350Y432701D02*X147600D01*
X144600Y433451D02*X145350Y432701D01*
X98750D02*X100250D01*
X99500Y438701D02*Y432701D01*
X98000Y437201D02*X99500Y438701D01*
X45000Y433451D02*X45750Y432701D01*
X45000Y437951D02*Y433451D01*
Y437951D02*X45750Y438701D01*
X47250D01*
X48000Y437951D01*
Y433451D01*
X47250Y432701D02*X48000Y433451D01*
X45750Y432701D02*X47250D01*
X45000Y434201D02*X48000Y437201D01*
X49800Y432701D02*X50550D01*
X52350Y433451D02*X53100Y432701D01*
X52350Y437951D02*Y433451D01*
Y437951D02*X53100Y438701D01*
X54600D01*
X55350Y437951D01*
Y433451D01*
X54600Y432701D02*X55350Y433451D01*
X53100Y432701D02*X54600D01*
X52350Y434201D02*X55350Y437201D01*
X59400Y438701D02*X60150Y437951D01*
X57900Y438701D02*X59400D01*
X57150Y437951D02*X57900Y438701D01*
X57150Y437951D02*Y433451D01*
X57900Y432701D01*
X59400Y435701D02*X60150Y434951D01*
X57150Y435701D02*X59400D01*
X57900Y432701D02*X59400D01*
X60150Y433451D01*
Y434951D02*Y433451D01*
X64200Y438701D02*X64950Y437951D01*
X62700Y438701D02*X64200D01*
X61950Y437951D02*X62700Y438701D01*
X61950Y437951D02*Y433451D01*
X62700Y432701D01*
X64200Y435701D02*X64950Y434951D01*
X61950Y435701D02*X64200D01*
X62700Y432701D02*X64200D01*
X64950Y433451D01*
Y434951D02*Y433451D01*
X32770Y202112D02*X35970D01*
X32770D02*Y198912D01*
X35970D01*
Y202112D02*Y198912D01*
X42770Y202112D02*X45970D01*
X42770D02*Y198912D01*
X45970D01*
Y202112D02*Y198912D01*
X32770Y192112D02*X35970D01*
X32770D02*Y188912D01*
X35970D01*
Y192112D02*Y188912D01*
X42770Y192112D02*X45970D01*
X42770D02*Y188912D01*
X45970D01*
Y192112D02*Y188912D01*
X32770Y182112D02*X35970D01*
X32770D02*Y178912D01*
X35970D01*
Y182112D02*Y178912D01*
X42770Y182112D02*X45970D01*
X42770D02*Y178912D01*
X45970D01*
Y182112D02*Y178912D01*
X32770Y172112D02*X35970D01*
X32770D02*Y168912D01*
X35970D01*
Y172112D02*Y168912D01*
X42770Y172112D02*X45970D01*
X42770D02*Y168912D01*
X45970D01*
Y172112D02*Y168912D01*
X32770Y162112D02*X35970D01*
X32770D02*Y158912D01*
X35970D01*
Y162112D02*Y158912D01*
X42770Y162112D02*X45970D01*
X42770D02*Y158912D01*
X45970D01*
Y162112D02*Y158912D01*
X32770Y152112D02*X35970D01*
X32770D02*Y148912D01*
X35970D01*
Y152112D02*Y148912D01*
X42770Y152112D02*X45970D01*
X42770D02*Y148912D01*
X45970D01*
Y152112D02*Y148912D01*
X32770Y142112D02*X35970D01*
X32770D02*Y138912D01*
X35970D01*
Y142112D02*Y138912D01*
X42770Y142112D02*X45970D01*
X42770D02*Y138912D01*
X45970D01*
Y142112D02*Y138912D01*
X32770Y132112D02*X35970D01*
X32770D02*Y128912D01*
X35970D01*
Y132112D02*Y128912D01*
X42770Y132112D02*X45970D01*
X42770D02*Y128912D01*
X45970D01*
Y132112D02*Y128912D01*
X32770Y122112D02*X35970D01*
X32770D02*Y118912D01*
X35970D01*
Y122112D02*Y118912D01*
X42770Y122112D02*X45970D01*
X42770D02*Y118912D01*
X45970D01*
Y122112D02*Y118912D01*
X32770Y112112D02*X35970D01*
X32770D02*Y108912D01*
X35970D01*
Y112112D02*Y108912D01*
X42770Y112112D02*X45970D01*
X42770D02*Y108912D01*
X45970D01*
Y112112D02*Y108912D01*
X84109Y316561D02*X87309D01*
X84109D02*Y313361D01*
X87309D01*
Y316561D02*Y313361D01*
X74109Y316561D02*X77309D01*
X74109D02*Y313361D01*
X77309D01*
Y316561D02*Y313361D01*
X13400Y451551D02*X16600D01*
X13400D02*Y448351D01*
X16600D01*
Y451551D02*Y448351D01*
X135000Y453701D02*Y452951D01*
X136500Y451451D01*
X138000Y452951D01*
Y453701D02*Y452951D01*
X136500Y451451D02*Y447701D01*
X139800Y450701D02*X142050D01*
X139800Y447701D02*X142800D01*
X139800Y453701D02*Y447701D01*
Y453701D02*X142800D01*
X147600D02*X148350Y452951D01*
X145350Y453701D02*X147600D01*
X144600Y452951D02*X145350Y453701D01*
X144600Y452951D02*Y451451D01*
X145350Y450701D01*
X147600D01*
X148350Y449951D01*
Y448451D01*
X147600Y447701D02*X148350Y448451D01*
X145350Y447701D02*X147600D01*
X144600Y448451D02*X145350Y447701D01*
X98000Y452951D02*X98750Y453701D01*
X101000D01*
X101750Y452951D01*
Y451451D01*
X98000Y447701D02*X101750Y451451D01*
X98000Y447701D02*X101750D01*
X103550Y452951D02*X104300Y453701D01*
X106550D01*
X107300Y452951D01*
Y451451D01*
X103550Y447701D02*X107300Y451451D01*
X103550Y447701D02*X107300D01*
X45000Y448451D02*X45750Y447701D01*
X45000Y452951D02*Y448451D01*
Y452951D02*X45750Y453701D01*
X47250D01*
X48000Y452951D01*
Y448451D01*
X47250Y447701D02*X48000Y448451D01*
X45750Y447701D02*X47250D01*
X45000Y449201D02*X48000Y452201D01*
X49800Y447701D02*X50550D01*
X52350Y448451D02*X53100Y447701D01*
X52350Y452951D02*Y448451D01*
Y452951D02*X53100Y453701D01*
X54600D01*
X55350Y452951D01*
Y448451D01*
X54600Y447701D02*X55350Y448451D01*
X53100Y447701D02*X54600D01*
X52350Y449201D02*X55350Y452201D01*
X57150Y450701D02*X60150Y453701D01*
X57150Y450701D02*X60900D01*
X60150Y453701D02*Y447701D01*
X64950Y453701D02*X65700Y452951D01*
X63450Y453701D02*X64950D01*
X62700Y452951D02*X63450Y453701D01*
X62700Y452951D02*Y448451D01*
X63450Y447701D01*
X64950Y450701D02*X65700Y449951D01*
X62700Y450701D02*X64950D01*
X63450Y447701D02*X64950D01*
X65700Y448451D01*
Y449951D02*Y448451D01*
X87783Y296811D02*G75*G03X89383Y296811I800J0D01*G01*
G75*G03X87783Y296811I-800J0D01*G01*
Y226811D02*G75*G03X89383Y226811I800J0D01*G01*
G75*G03X87783Y226811I-800J0D01*G01*
X14200Y464951D02*G75*G03X15800Y464951I800J0D01*G01*
G75*G03X14200Y464951I-800J0D01*G01*
X135000Y468701D02*Y467951D01*
X136500Y466451D01*
X138000Y467951D01*
Y468701D02*Y467951D01*
X136500Y466451D02*Y462701D01*
X139800Y465701D02*X142050D01*
X139800Y462701D02*X142800D01*
X139800Y468701D02*Y462701D01*
Y468701D02*X142800D01*
X147600D02*X148350Y467951D01*
X145350Y468701D02*X147600D01*
X144600Y467951D02*X145350Y468701D01*
X144600Y467951D02*Y466451D01*
X145350Y465701D01*
X147600D01*
X148350Y464951D01*
Y463451D01*
X147600Y462701D02*X148350Y463451D01*
X145350Y462701D02*X147600D01*
X144600Y463451D02*X145350Y462701D01*
X98000Y467951D02*X98750Y468701D01*
X101000D01*
X101750Y467951D01*
Y466451D01*
X98000Y462701D02*X101750Y466451D01*
X98000Y462701D02*X101750D01*
X45000Y463451D02*X45750Y462701D01*
X45000Y467951D02*Y463451D01*
Y467951D02*X45750Y468701D01*
X47250D01*
X48000Y467951D01*
Y463451D01*
X47250Y462701D02*X48000Y463451D01*
X45750Y462701D02*X47250D01*
X45000Y464201D02*X48000Y467201D01*
X49800Y462701D02*X50550D01*
X52350Y463451D02*X53100Y462701D01*
X52350Y467951D02*Y463451D01*
Y467951D02*X53100Y468701D01*
X54600D01*
X55350Y467951D01*
Y463451D01*
X54600Y462701D02*X55350Y463451D01*
X53100Y462701D02*X54600D01*
X52350Y464201D02*X55350Y467201D01*
X57150Y465701D02*X60150Y468701D01*
X57150Y465701D02*X60900D01*
X60150Y468701D02*Y462701D01*
X62700Y467951D02*X63450Y468701D01*
X65700D01*
X66450Y467951D01*
Y466451D01*
X62700Y462701D02*X66450Y466451D01*
X62700Y462701D02*X66450D01*
X30139Y316161D02*X32539Y313761D01*
X30139D02*X32539Y316161D01*
X30139Y331161D02*X32539Y328761D01*
X30139D02*X32539Y331161D01*
X30139Y301161D02*X32539Y298761D01*
X30139D02*X32539Y301161D01*
X50139Y316161D02*X52539Y313761D01*
X50139D02*X52539Y316161D01*
X50139Y331161D02*X52539Y328761D01*
X50139D02*X52539Y331161D01*
X50139Y301161D02*X52539Y298761D01*
X50139D02*X52539Y301161D01*
X108879Y316161D02*X111279Y313761D01*
X108879D02*X111279Y316161D01*
X108879Y331161D02*X111279Y328761D01*
X108879D02*X111279Y331161D01*
X108879Y301161D02*X111279Y298761D01*
X108879D02*X111279Y301161D01*
X128879Y316161D02*X131279Y313761D01*
X128879D02*X131279Y316161D01*
X128879Y331161D02*X131279Y328761D01*
X128879D02*X131279Y331161D01*
X128879Y301161D02*X131279Y298761D01*
X128879D02*X131279Y301161D01*
X63761Y297854D02*X66161Y295454D01*
X63761D02*X66161Y297854D01*
X63761Y247854D02*X66161Y245454D01*
X63761D02*X66161Y247854D01*
X118879Y379153D02*X121279Y376753D01*
X118879D02*X121279Y379153D01*
X40139Y16948D02*X42539Y14548D01*
X40139D02*X42539Y16948D01*
X40139Y379153D02*X42539Y376753D01*
X40139D02*X42539Y379153D01*
X118879Y16948D02*X121279Y14548D01*
X118879D02*X121279Y16948D01*
X13800Y481151D02*X16200Y478751D01*
X13800D02*X16200Y481151D01*
X135000Y483701D02*Y482951D01*
X136500Y481451D01*
X138000Y482951D01*
Y483701D02*Y482951D01*
X136500Y481451D02*Y477701D01*
X139800Y480701D02*X142050D01*
X139800Y477701D02*X142800D01*
X139800Y483701D02*Y477701D01*
Y483701D02*X142800D01*
X147600D02*X148350Y482951D01*
X145350Y483701D02*X147600D01*
X144600Y482951D02*X145350Y483701D01*
X144600Y482951D02*Y481451D01*
X145350Y480701D01*
X147600D01*
X148350Y479951D01*
Y478451D01*
X147600Y477701D02*X148350Y478451D01*
X145350Y477701D02*X147600D01*
X144600Y478451D02*X145350Y477701D01*
X98750D02*X100250D01*
X99500Y483701D02*Y477701D01*
X98000Y482201D02*X99500Y483701D01*
X102050Y478451D02*X102800Y477701D01*
X102050Y479951D02*Y478451D01*
Y479951D02*X102800Y480701D01*
X104300D01*
X105050Y479951D01*
Y478451D01*
X104300Y477701D02*X105050Y478451D01*
X102800Y477701D02*X104300D01*
X102050Y481451D02*X102800Y480701D01*
X102050Y482951D02*Y481451D01*
Y482951D02*X102800Y483701D01*
X104300D01*
X105050Y482951D01*
Y481451D01*
X104300Y480701D02*X105050Y481451D01*
X45000Y478451D02*X45750Y477701D01*
X45000Y482951D02*Y478451D01*
Y482951D02*X45750Y483701D01*
X47250D01*
X48000Y482951D01*
Y478451D01*
X47250Y477701D02*X48000Y478451D01*
X45750Y477701D02*X47250D01*
X45000Y479201D02*X48000Y482201D01*
X49800Y477701D02*X50550D01*
X52350Y478451D02*X53100Y477701D01*
X52350Y482951D02*Y478451D01*
Y482951D02*X53100Y483701D01*
X54600D01*
X55350Y482951D01*
Y478451D01*
X54600Y477701D02*X55350Y478451D01*
X53100Y477701D02*X54600D01*
X52350Y479201D02*X55350Y482201D01*
X57150Y480701D02*X60150Y483701D01*
X57150Y480701D02*X60900D01*
X60150Y483701D02*Y477701D01*
X62700Y478451D02*X63450Y477701D01*
X62700Y482951D02*Y478451D01*
Y482951D02*X63450Y483701D01*
X64950D01*
X65700Y482951D01*
Y478451D01*
X64950Y477701D02*X65700Y478451D01*
X63450Y477701D02*X64950D01*
X62700Y479201D02*X65700Y482201D01*
X15748Y346088D02*Y342888D01*
X14148Y344488D02*X17348D01*
X15748Y336246D02*Y333046D01*
X14148Y334646D02*X17348D01*
X15748Y326403D02*Y323203D01*
X14148Y324803D02*X17348D01*
X15748Y316561D02*Y313361D01*
X14148Y314961D02*X17348D01*
X15748Y306718D02*Y303518D01*
X14148Y305118D02*X17348D01*
X15748Y296876D02*Y293676D01*
X14148Y295276D02*X17348D01*
X15748Y287033D02*Y283833D01*
X14148Y285433D02*X17348D01*
X15748Y277191D02*Y273991D01*
X14148Y275591D02*X17348D01*
X15748Y267348D02*Y264148D01*
X14148Y265748D02*X17348D01*
X15748Y257506D02*Y254306D01*
X14148Y255906D02*X17348D01*
X15748Y247663D02*Y244463D01*
X14148Y246063D02*X17348D01*
X15748Y237821D02*Y234621D01*
X14148Y236221D02*X17348D01*
X15748Y227978D02*Y224778D01*
X14148Y226378D02*X17348D01*
X15748Y218136D02*Y214936D01*
X14148Y216536D02*X17348D01*
X15748Y208293D02*Y205093D01*
X14148Y206693D02*X17348D01*
X15748Y198451D02*Y195251D01*
X14148Y196851D02*X17348D01*
X15748Y188608D02*Y185408D01*
X14148Y187008D02*X17348D01*
X15748Y178766D02*Y175566D01*
X14148Y177166D02*X17348D01*
X15748Y168923D02*Y165723D01*
X14148Y167323D02*X17348D01*
X15748Y159081D02*Y155881D01*
X14148Y157481D02*X17348D01*
X15748Y149238D02*Y146038D01*
X14148Y147638D02*X17348D01*
X15748Y139395D02*Y136195D01*
X14148Y137795D02*X17348D01*
X15748Y129553D02*Y126353D01*
X14148Y127953D02*X17348D01*
X15748Y119710D02*Y116510D01*
X14148Y118110D02*X17348D01*
X15748Y109868D02*Y106668D01*
X14148Y108268D02*X17348D01*
X15748Y100025D02*Y96825D01*
X14148Y98425D02*X17348D01*
X15748Y90183D02*Y86983D01*
X14148Y88583D02*X17348D01*
X15748Y80340D02*Y77140D01*
X14148Y78740D02*X17348D01*
X15748Y70498D02*Y67298D01*
X14148Y68898D02*X17348D01*
X15748Y60655D02*Y57455D01*
X14148Y59055D02*X17348D01*
X15748Y50813D02*Y47613D01*
X14148Y49213D02*X17348D01*
X15000Y496551D02*Y493351D01*
X13400Y494951D02*X16600D01*
X135000Y498701D02*Y497951D01*
X136500Y496451D01*
X138000Y497951D01*
Y498701D02*Y497951D01*
X136500Y496451D02*Y492701D01*
X139800Y495701D02*X142050D01*
X139800Y492701D02*X142800D01*
X139800Y498701D02*Y492701D01*
Y498701D02*X142800D01*
X147600D02*X148350Y497951D01*
X145350Y498701D02*X147600D01*
X144600Y497951D02*X145350Y498701D01*
X144600Y497951D02*Y496451D01*
X145350Y495701D01*
X147600D01*
X148350Y494951D01*
Y493451D01*
X147600Y492701D02*X148350Y493451D01*
X145350Y492701D02*X147600D01*
X144600Y493451D02*X145350Y492701D01*
X98000Y497951D02*X98750Y498701D01*
X100250D01*
X101000Y497951D01*
Y493451D01*
X100250Y492701D02*X101000Y493451D01*
X98750Y492701D02*X100250D01*
X98000Y493451D02*X98750Y492701D01*
Y495701D02*X101000D01*
X103550Y492701D02*X105050D01*
X104300Y498701D02*Y492701D01*
X102800Y497201D02*X104300Y498701D01*
X45000Y493451D02*X45750Y492701D01*
X45000Y497951D02*Y493451D01*
Y497951D02*X45750Y498701D01*
X47250D01*
X48000Y497951D01*
Y493451D01*
X47250Y492701D02*X48000Y493451D01*
X45750Y492701D02*X47250D01*
X45000Y494201D02*X48000Y497201D01*
X49800Y492701D02*X50550D01*
X52350Y493451D02*X53100Y492701D01*
X52350Y497951D02*Y493451D01*
Y497951D02*X53100Y498701D01*
X54600D01*
X55350Y497951D01*
Y493451D01*
X54600Y492701D02*X55350Y493451D01*
X53100Y492701D02*X54600D01*
X52350Y494201D02*X55350Y497201D01*
X57150Y497951D02*X57900Y498701D01*
X59400D01*
X60150Y497951D01*
Y493451D01*
X59400Y492701D02*X60150Y493451D01*
X57900Y492701D02*X59400D01*
X57150Y493451D02*X57900Y492701D01*
Y495701D02*X60150D01*
X61950Y498701D02*X64950D01*
X61950D02*Y495701D01*
X62700Y496451D01*
X64200D01*
X64950Y495701D01*
Y493451D01*
X64200Y492701D02*X64950Y493451D01*
X62700Y492701D02*X64200D01*
X61950Y493451D02*X62700Y492701D01*
X120079Y137638D02*Y136038D01*
Y137638D02*X121466Y138438D01*
X120079Y137638D02*X118692Y138438D01*
X120079Y157638D02*Y156038D01*
Y157638D02*X121466Y158438D01*
X120079Y157638D02*X118692Y158438D01*
X15000Y509951D02*Y508351D01*
Y509951D02*X16387Y510751D01*
X15000Y509951D02*X13613Y510751D01*
X135000Y513701D02*Y512951D01*
X136500Y511451D01*
X138000Y512951D01*
Y513701D02*Y512951D01*
X136500Y511451D02*Y507701D01*
X139800Y510701D02*X142050D01*
X139800Y507701D02*X142800D01*
X139800Y513701D02*Y507701D01*
Y513701D02*X142800D01*
X147600D02*X148350Y512951D01*
X145350Y513701D02*X147600D01*
X144600Y512951D02*X145350Y513701D01*
X144600Y512951D02*Y511451D01*
X145350Y510701D01*
X147600D01*
X148350Y509951D01*
Y508451D01*
X147600Y507701D02*X148350Y508451D01*
X145350Y507701D02*X147600D01*
X144600Y508451D02*X145350Y507701D01*
X98000Y512951D02*X98750Y513701D01*
X101000D01*
X101750Y512951D01*
Y511451D01*
X98000Y507701D02*X101750Y511451D01*
X98000Y507701D02*X101750D01*
X45000Y508451D02*X45750Y507701D01*
X45000Y512951D02*Y508451D01*
Y512951D02*X45750Y513701D01*
X47250D01*
X48000Y512951D01*
Y508451D01*
X47250Y507701D02*X48000Y508451D01*
X45750Y507701D02*X47250D01*
X45000Y509201D02*X48000Y512201D01*
X49800Y507701D02*X50550D01*
X52350Y508451D02*X53100Y507701D01*
X52350Y512951D02*Y508451D01*
Y512951D02*X53100Y513701D01*
X54600D01*
X55350Y512951D01*
Y508451D01*
X54600Y507701D02*X55350Y508451D01*
X53100Y507701D02*X54600D01*
X52350Y509201D02*X55350Y512201D01*
X57150Y512951D02*X57900Y513701D01*
X60150D01*
X60900Y512951D01*
Y511451D01*
X57150Y507701D02*X60900Y511451D01*
X57150Y507701D02*X60900D01*
X62700Y508451D02*X63450Y507701D01*
X62700Y512951D02*Y508451D01*
Y512951D02*X63450Y513701D01*
X64950D01*
X65700Y512951D01*
Y508451D01*
X64950Y507701D02*X65700Y508451D01*
X63450Y507701D02*X64950D01*
X62700Y509201D02*X65700Y512201D01*
X3000Y528701D02*X3750Y527951D01*
X750Y528701D02*X3000D01*
X0Y527951D02*X750Y528701D01*
X0Y527951D02*Y526451D01*
X750Y525701D01*
X3000D01*
X3750Y524951D01*
Y523451D01*
X3000Y522701D02*X3750Y523451D01*
X750Y522701D02*X3000D01*
X0Y523451D02*X750Y522701D01*
X5550Y525701D02*Y523451D01*
X6300Y522701D01*
X8550Y525701D02*Y521201D01*
X7800Y520451D02*X8550Y521201D01*
X6300Y520451D02*X7800D01*
X5550Y521201D02*X6300Y520451D01*
Y522701D02*X7800D01*
X8550Y523451D01*
X11100Y524951D02*Y522701D01*
Y524951D02*X11850Y525701D01*
X12600D01*
X13350Y524951D01*
Y522701D01*
Y524951D02*X14100Y525701D01*
X14850D01*
X15600Y524951D01*
Y522701D01*
X10350Y525701D02*X11100Y524951D01*
X17400Y528701D02*Y522701D01*
Y523451D02*X18150Y522701D01*
X19650D01*
X20400Y523451D01*
Y524951D02*Y523451D01*
X19650Y525701D02*X20400Y524951D01*
X18150Y525701D02*X19650D01*
X17400Y524951D02*X18150Y525701D01*
X22200Y524951D02*Y523451D01*
Y524951D02*X22950Y525701D01*
X24450D01*
X25200Y524951D01*
Y523451D01*
X24450Y522701D02*X25200Y523451D01*
X22950Y522701D02*X24450D01*
X22200Y523451D02*X22950Y522701D01*
X27000Y528701D02*Y523451D01*
X27750Y522701D01*
X0Y519451D02*X29250D01*
X41750Y528701D02*Y522701D01*
X44000Y528701D02*X44750Y527951D01*
Y523451D01*
X44000Y522701D02*X44750Y523451D01*
X41000Y522701D02*X44000D01*
X41000Y528701D02*X44000D01*
X46550Y527201D02*Y526451D01*
Y524951D02*Y522701D01*
X50300Y525701D02*X51050Y524951D01*
X48800Y525701D02*X50300D01*
X48050Y524951D02*X48800Y525701D01*
X48050Y524951D02*Y523451D01*
X48800Y522701D01*
X51050Y525701D02*Y523451D01*
X51800Y522701D01*
X48800D02*X50300D01*
X51050Y523451D01*
X54350Y524951D02*Y522701D01*
Y524951D02*X55100Y525701D01*
X55850D01*
X56600Y524951D01*
Y522701D01*
Y524951D02*X57350Y525701D01*
X58100D01*
X58850Y524951D01*
Y522701D01*
X53600Y525701D02*X54350Y524951D01*
X60650Y522701D02*X61400D01*
X65900Y523451D02*X66650Y522701D01*
X65900Y527951D02*X66650Y528701D01*
X65900Y527951D02*Y523451D01*
X68450Y528701D02*X69950D01*
X69200D02*Y522701D01*
X68450D02*X69950D01*
X72500Y524951D02*Y522701D01*
Y524951D02*X73250Y525701D01*
X74000D01*
X74750Y524951D01*
Y522701D01*
X71750Y525701D02*X72500Y524951D01*
X77300Y525701D02*X79550D01*
X76550Y524951D02*X77300Y525701D01*
X76550Y524951D02*Y523451D01*
X77300Y522701D01*
X79550D01*
X81350Y528701D02*Y522701D01*
Y524951D02*X82100Y525701D01*
X83600D01*
X84350Y524951D01*
Y522701D01*
X86150Y528701D02*X86900Y527951D01*
Y523451D01*
X86150Y522701D02*X86900Y523451D01*
X41000Y519451D02*X88700D01*
X95750Y522701D02*X98000D01*
X95000Y523451D02*X95750Y522701D01*
X95000Y527951D02*Y523451D01*
Y527951D02*X95750Y528701D01*
X98000D01*
X99800Y524951D02*Y523451D01*
Y524951D02*X100550Y525701D01*
X102050D01*
X102800Y524951D01*
Y523451D01*
X102050Y522701D02*X102800Y523451D01*
X100550Y522701D02*X102050D01*
X99800Y523451D02*X100550Y522701D01*
X104600Y525701D02*Y523451D01*
X105350Y522701D01*
X106850D01*
X107600Y523451D01*
Y525701D02*Y523451D01*
X110150Y524951D02*Y522701D01*
Y524951D02*X110900Y525701D01*
X111650D01*
X112400Y524951D01*
Y522701D01*
X109400Y525701D02*X110150Y524951D01*
X114950Y528701D02*Y523451D01*
X115700Y522701D01*
X114200Y526451D02*X115700D01*
X95000Y519451D02*X117200D01*
X130750Y528701D02*Y522701D01*
X130000Y528701D02*X133000D01*
X133750Y527951D01*
Y526451D01*
X133000Y525701D02*X133750Y526451D01*
X130750Y525701D02*X133000D01*
X135550Y528701D02*Y523451D01*
X136300Y522701D01*
X140050Y525701D02*X140800Y524951D01*
X138550Y525701D02*X140050D01*
X137800Y524951D02*X138550Y525701D01*
X137800Y524951D02*Y523451D01*
X138550Y522701D01*
X140800Y525701D02*Y523451D01*
X141550Y522701D01*
X138550D02*X140050D01*
X140800Y523451D01*
X144100Y528701D02*Y523451D01*
X144850Y522701D01*
X143350Y526451D02*X144850D01*
X147100Y522701D02*X149350D01*
X146350Y523451D02*X147100Y522701D01*
X146350Y524951D02*Y523451D01*
Y524951D02*X147100Y525701D01*
X148600D01*
X149350Y524951D01*
X146350Y524201D02*X149350D01*
Y524951D02*Y524201D01*
X154150Y528701D02*Y522701D01*
X153400D02*X154150Y523451D01*
X151900Y522701D02*X153400D01*
X151150Y523451D02*X151900Y522701D01*
X151150Y524951D02*Y523451D01*
Y524951D02*X151900Y525701D01*
X153400D01*
X154150Y524951D01*
X157450Y525701D02*Y524951D01*
Y523451D02*Y522701D01*
X155950Y527951D02*Y527201D01*
Y527951D02*X156700Y528701D01*
X158200D01*
X158950Y527951D01*
Y527201D01*
X157450Y525701D02*X158950Y527201D01*
X130000Y519451D02*X160750D01*
X0Y543701D02*X3000D01*
X1500D02*Y537701D01*
X4800Y543701D02*Y537701D01*
Y539951D02*X5550Y540701D01*
X7050D01*
X7800Y539951D01*
Y537701D01*
X10350D02*X12600D01*
X9600Y538451D02*X10350Y537701D01*
X9600Y539951D02*Y538451D01*
Y539951D02*X10350Y540701D01*
X11850D01*
X12600Y539951D01*
X9600Y539201D02*X12600D01*
Y539951D02*Y539201D01*
X15150Y539951D02*Y537701D01*
Y539951D02*X15900Y540701D01*
X17400D01*
X14400D02*X15150Y539951D01*
X19950Y537701D02*X22200D01*
X19200Y538451D02*X19950Y537701D01*
X19200Y539951D02*Y538451D01*
Y539951D02*X19950Y540701D01*
X21450D01*
X22200Y539951D01*
X19200Y539201D02*X22200D01*
Y539951D02*Y539201D01*
X28950Y540701D02*X29700Y539951D01*
X27450Y540701D02*X28950D01*
X26700Y539951D02*X27450Y540701D01*
X26700Y539951D02*Y538451D01*
X27450Y537701D01*
X29700Y540701D02*Y538451D01*
X30450Y537701D01*
X27450D02*X28950D01*
X29700Y538451D01*
X33000Y539951D02*Y537701D01*
Y539951D02*X33750Y540701D01*
X35250D01*
X32250D02*X33000Y539951D01*
X37800Y537701D02*X40050D01*
X37050Y538451D02*X37800Y537701D01*
X37050Y539951D02*Y538451D01*
Y539951D02*X37800Y540701D01*
X39300D01*
X40050Y539951D01*
X37050Y539201D02*X40050D01*
Y539951D02*Y539201D01*
X44550Y538451D02*X45300Y537701D01*
X44550Y539951D02*Y538451D01*
Y539951D02*X45300Y540701D01*
X46800D01*
X47550Y539951D01*
Y538451D01*
X46800Y537701D02*X47550Y538451D01*
X45300Y537701D02*X46800D01*
X44550Y541451D02*X45300Y540701D01*
X44550Y542951D02*Y541451D01*
Y542951D02*X45300Y543701D01*
X46800D01*
X47550Y542951D01*
Y541451D01*
X46800Y540701D02*X47550Y541451D01*
X55050Y543701D02*Y537701D01*
X54300D02*X55050Y538451D01*
X52800Y537701D02*X54300D01*
X52050Y538451D02*X52800Y537701D01*
X52050Y539951D02*Y538451D01*
Y539951D02*X52800Y540701D01*
X54300D01*
X55050Y539951D01*
X56850Y542201D02*Y541451D01*
Y539951D02*Y537701D01*
X59100Y542951D02*Y537701D01*
Y542951D02*X59850Y543701D01*
X60600D01*
X58350Y540701D02*X59850D01*
X62850Y542951D02*Y537701D01*
Y542951D02*X63600Y543701D01*
X64350D01*
X62100Y540701D02*X63600D01*
X66600Y537701D02*X68850D01*
X65850Y538451D02*X66600Y537701D01*
X65850Y539951D02*Y538451D01*
Y539951D02*X66600Y540701D01*
X68100D01*
X68850Y539951D01*
X65850Y539201D02*X68850D01*
Y539951D02*Y539201D01*
X71400Y539951D02*Y537701D01*
Y539951D02*X72150Y540701D01*
X73650D01*
X70650D02*X71400Y539951D01*
X76200Y537701D02*X78450D01*
X75450Y538451D02*X76200Y537701D01*
X75450Y539951D02*Y538451D01*
Y539951D02*X76200Y540701D01*
X77700D01*
X78450Y539951D01*
X75450Y539201D02*X78450D01*
Y539951D02*Y539201D01*
X81000Y539951D02*Y537701D01*
Y539951D02*X81750Y540701D01*
X82500D01*
X83250Y539951D01*
Y537701D01*
X80250Y540701D02*X81000Y539951D01*
X85800Y543701D02*Y538451D01*
X86550Y537701D01*
X85050Y541451D02*X86550D01*
X93750Y543701D02*Y537701D01*
X93000D02*X93750Y538451D01*
X91500Y537701D02*X93000D01*
X90750Y538451D02*X91500Y537701D01*
X90750Y539951D02*Y538451D01*
Y539951D02*X91500Y540701D01*
X93000D01*
X93750Y539951D01*
X96300D02*Y537701D01*
Y539951D02*X97050Y540701D01*
X98550D01*
X95550D02*X96300Y539951D01*
X100350Y542201D02*Y541451D01*
Y539951D02*Y537701D01*
X101850Y543701D02*Y538451D01*
X102600Y537701D01*
X104100Y543701D02*Y538451D01*
X104850Y537701D01*
X109800D02*X112050D01*
X112800Y538451D01*
X112050Y539201D02*X112800Y538451D01*
X109800Y539201D02*X112050D01*
X109050Y539951D02*X109800Y539201D01*
X109050Y539951D02*X109800Y540701D01*
X112050D01*
X112800Y539951D01*
X109050Y538451D02*X109800Y537701D01*
X114600Y542201D02*Y541451D01*
Y539951D02*Y537701D01*
X116100Y540701D02*X119100D01*
X116100Y537701D02*X119100Y540701D01*
X116100Y537701D02*X119100D01*
X121650D02*X123900D01*
X120900Y538451D02*X121650Y537701D01*
X120900Y539951D02*Y538451D01*
Y539951D02*X121650Y540701D01*
X123150D01*
X123900Y539951D01*
X120900Y539201D02*X123900D01*
Y539951D02*Y539201D01*
X126450Y537701D02*X128700D01*
X129450Y538451D01*
X128700Y539201D02*X129450Y538451D01*
X126450Y539201D02*X128700D01*
X125700Y539951D02*X126450Y539201D01*
X125700Y539951D02*X126450Y540701D01*
X128700D01*
X129450Y539951D01*
X125700Y538451D02*X126450Y537701D01*
X133950Y540701D02*Y538451D01*
X134700Y537701D01*
X136200D01*
X136950Y538451D01*
Y540701D02*Y538451D01*
X139500Y537701D02*X141750D01*
X142500Y538451D01*
X141750Y539201D02*X142500Y538451D01*
X139500Y539201D02*X141750D01*
X138750Y539951D02*X139500Y539201D01*
X138750Y539951D02*X139500Y540701D01*
X141750D01*
X142500Y539951D01*
X138750Y538451D02*X139500Y537701D01*
X145050D02*X147300D01*
X144300Y538451D02*X145050Y537701D01*
X144300Y539951D02*Y538451D01*
Y539951D02*X145050Y540701D01*
X146550D01*
X147300Y539951D01*
X144300Y539201D02*X147300D01*
Y539951D02*Y539201D01*
X152100Y543701D02*Y537701D01*
X151350D02*X152100Y538451D01*
X149850Y537701D02*X151350D01*
X149100Y538451D02*X149850Y537701D01*
X149100Y539951D02*Y538451D01*
Y539951D02*X149850Y540701D01*
X151350D01*
X152100Y539951D01*
X156600Y542201D02*Y541451D01*
Y539951D02*Y537701D01*
X158850Y539951D02*Y537701D01*
Y539951D02*X159600Y540701D01*
X160350D01*
X161100Y539951D01*
Y537701D01*
X158100Y540701D02*X158850Y539951D01*
X166350Y543701D02*Y538451D01*
X167100Y537701D01*
X165600Y541451D02*X167100D01*
X168600Y543701D02*Y537701D01*
Y539951D02*X169350Y540701D01*
X170850D01*
X171600Y539951D01*
Y537701D01*
X173400Y542201D02*Y541451D01*
Y539951D02*Y537701D01*
X175650D02*X177900D01*
X178650Y538451D01*
X177900Y539201D02*X178650Y538451D01*
X175650Y539201D02*X177900D01*
X174900Y539951D02*X175650Y539201D01*
X174900Y539951D02*X175650Y540701D01*
X177900D01*
X178650Y539951D01*
X174900Y538451D02*X175650Y537701D01*
X183150Y543701D02*Y538451D01*
X183900Y537701D01*
X187650Y540701D02*X188400Y539951D01*
X186150Y540701D02*X187650D01*
X185400Y539951D02*X186150Y540701D01*
X185400Y539951D02*Y538451D01*
X186150Y537701D01*
X188400Y540701D02*Y538451D01*
X189150Y537701D01*
X186150D02*X187650D01*
X188400Y538451D01*
X190950Y540701D02*Y538451D01*
X191700Y537701D01*
X193950Y540701D02*Y536201D01*
X193200Y535451D02*X193950Y536201D01*
X191700Y535451D02*X193200D01*
X190950Y536201D02*X191700Y535451D01*
Y537701D02*X193200D01*
X193950Y538451D01*
X195750Y539951D02*Y538451D01*
Y539951D02*X196500Y540701D01*
X198000D01*
X198750Y539951D01*
Y538451D01*
X198000Y537701D02*X198750Y538451D01*
X196500Y537701D02*X198000D01*
X195750Y538451D02*X196500Y537701D01*
X200550Y540701D02*Y538451D01*
X201300Y537701D01*
X202800D01*
X203550Y538451D01*
Y540701D02*Y538451D01*
X206100Y543701D02*Y538451D01*
X206850Y537701D01*
X205350Y541451D02*X206850D01*
X208350Y536201D02*X209850Y537701D01*
X214350Y538451D02*X215100Y537701D01*
X214350Y539951D02*Y538451D01*
Y539951D02*X215100Y540701D01*
X216600D01*
X217350Y539951D01*
Y538451D01*
X216600Y537701D02*X217350Y538451D01*
X215100Y537701D02*X216600D01*
X214350Y541451D02*X215100Y540701D01*
X214350Y542951D02*Y541451D01*
Y542951D02*X215100Y543701D01*
X216600D01*
X217350Y542951D01*
Y541451D01*
X216600Y540701D02*X217350Y541451D01*
X219900Y537701D02*X221400D01*
X220650Y543701D02*Y537701D01*
X219150Y542201D02*X220650Y543701D01*
X225900D02*Y537701D01*
Y539951D02*X226650Y540701D01*
X228150D01*
X228900Y539951D01*
Y537701D01*
X230700Y539951D02*Y538451D01*
Y539951D02*X231450Y540701D01*
X232950D01*
X233700Y539951D01*
Y538451D01*
X232950Y537701D02*X233700Y538451D01*
X231450Y537701D02*X232950D01*
X230700Y538451D02*X231450Y537701D01*
X235500Y543701D02*Y538451D01*
X236250Y537701D01*
X238500D02*X240750D01*
X237750Y538451D02*X238500Y537701D01*
X237750Y539951D02*Y538451D01*
Y539951D02*X238500Y540701D01*
X240000D01*
X240750Y539951D01*
X237750Y539201D02*X240750D01*
Y539951D02*Y539201D01*
X243300Y537701D02*X245550D01*
X246300Y538451D01*
X245550Y539201D02*X246300Y538451D01*
X243300Y539201D02*X245550D01*
X242550Y539951D02*X243300Y539201D01*
X242550Y539951D02*X243300Y540701D01*
X245550D01*
X246300Y539951D01*
X242550Y538451D02*X243300Y537701D01*
X251550Y543701D02*Y538451D01*
X252300Y537701D01*
X250800Y541451D02*X252300D01*
X253800Y539951D02*Y538451D01*
Y539951D02*X254550Y540701D01*
X256050D01*
X256800Y539951D01*
Y538451D01*
X256050Y537701D02*X256800Y538451D01*
X254550Y537701D02*X256050D01*
X253800Y538451D02*X254550Y537701D01*
X259350Y543701D02*Y538451D01*
X260100Y537701D01*
X258600Y541451D02*X260100D01*
X263850Y540701D02*X264600Y539951D01*
X262350Y540701D02*X263850D01*
X261600Y539951D02*X262350Y540701D01*
X261600Y539951D02*Y538451D01*
X262350Y537701D01*
X264600Y540701D02*Y538451D01*
X265350Y537701D01*
X262350D02*X263850D01*
X264600Y538451D01*
X267150Y543701D02*Y538451D01*
X267900Y537701D01*
G54D72*X9843Y383858D02*X175197D01*
X9843Y9842D02*Y383858D01*
X175197Y9842D02*X9843D01*
X175197Y383858D02*Y9843D01*
G54D71*X12100Y-8000D02*X15100D01*
X15850Y-7250D01*
Y-5750D02*Y-7250D01*
X15100Y-5000D02*X15850Y-5750D01*
X12850Y-5000D02*X15100D01*
X12850Y-2000D02*Y-8000D01*
X12100Y-2000D02*X15100D01*
X15850Y-2750D01*
Y-4250D01*
X15100Y-5000D02*X15850Y-4250D01*
X17650Y-5750D02*Y-7250D01*
Y-5750D02*X18400Y-5000D01*
X19900D01*
X20650Y-5750D01*
Y-7250D01*
X19900Y-8000D02*X20650Y-7250D01*
X18400Y-8000D02*X19900D01*
X17650Y-7250D02*X18400Y-8000D01*
X24700Y-5000D02*X25450Y-5750D01*
X23200Y-5000D02*X24700D01*
X22450Y-5750D02*X23200Y-5000D01*
X22450Y-5750D02*Y-7250D01*
X23200Y-8000D01*
X25450Y-5000D02*Y-7250D01*
X26200Y-8000D01*
X23200D02*X24700D01*
X25450Y-7250D01*
X28750Y-5750D02*Y-8000D01*
Y-5750D02*X29500Y-5000D01*
X31000D01*
X28000D02*X28750Y-5750D01*
X35800Y-2000D02*Y-8000D01*
X35050D02*X35800Y-7250D01*
X33550Y-8000D02*X35050D01*
X32800Y-7250D02*X33550Y-8000D01*
X32800Y-5750D02*Y-7250D01*
Y-5750D02*X33550Y-5000D01*
X35050D01*
X35800Y-5750D01*
X40300D02*Y-7250D01*
Y-5750D02*X41050Y-5000D01*
X42550D01*
X43300Y-5750D01*
Y-7250D01*
X42550Y-8000D02*X43300Y-7250D01*
X41050Y-8000D02*X42550D01*
X40300Y-7250D02*X41050Y-8000D01*
X45100Y-5000D02*Y-7250D01*
X45850Y-8000D01*
X47350D01*
X48100Y-7250D01*
Y-5000D02*Y-7250D01*
X50650Y-2000D02*Y-7250D01*
X51400Y-8000D01*
X49900Y-4250D02*X51400D01*
X52900Y-2000D02*Y-7250D01*
X53650Y-8000D01*
X55150Y-3500D02*Y-4250D01*
Y-5750D02*Y-8000D01*
X57400Y-5750D02*Y-8000D01*
Y-5750D02*X58150Y-5000D01*
X58900D01*
X59650Y-5750D01*
Y-8000D01*
X56650Y-5000D02*X57400Y-5750D01*
X62200Y-8000D02*X64450D01*
X61450Y-7250D02*X62200Y-8000D01*
X61450Y-5750D02*Y-7250D01*
Y-5750D02*X62200Y-5000D01*
X63700D01*
X64450Y-5750D01*
X61450Y-6500D02*X64450D01*
Y-5750D02*Y-6500D01*
X68950Y-3500D02*Y-4250D01*
Y-5750D02*Y-8000D01*
X71200D02*X73450D01*
X74200Y-7250D01*
X73450Y-6500D02*X74200Y-7250D01*
X71200Y-6500D02*X73450D01*
X70450Y-5750D02*X71200Y-6500D01*
X70450Y-5750D02*X71200Y-5000D01*
X73450D01*
X74200Y-5750D01*
X70450Y-7250D02*X71200Y-8000D01*
X79450Y-2000D02*Y-7250D01*
X80200Y-8000D01*
X78700Y-4250D02*X80200D01*
X81700Y-2000D02*Y-8000D01*
Y-5750D02*X82450Y-5000D01*
X83950D01*
X84700Y-5750D01*
Y-8000D01*
X87250D02*X89500D01*
X86500Y-7250D02*X87250Y-8000D01*
X86500Y-5750D02*Y-7250D01*
Y-5750D02*X87250Y-5000D01*
X88750D01*
X89500Y-5750D01*
X86500Y-6500D02*X89500D01*
Y-5750D02*Y-6500D01*
X94750Y-5000D02*X97000D01*
X94000Y-5750D02*X94750Y-5000D01*
X94000Y-5750D02*Y-7250D01*
X94750Y-8000D01*
X97000D01*
X99550D02*X101800D01*
X98800Y-7250D02*X99550Y-8000D01*
X98800Y-5750D02*Y-7250D01*
Y-5750D02*X99550Y-5000D01*
X101050D01*
X101800Y-5750D01*
X98800Y-6500D02*X101800D01*
Y-5750D02*Y-6500D01*
X104350Y-5750D02*Y-8000D01*
Y-5750D02*X105100Y-5000D01*
X105850D01*
X106600Y-5750D01*
Y-8000D01*
X103600Y-5000D02*X104350Y-5750D01*
X109150Y-2000D02*Y-7250D01*
X109900Y-8000D01*
X108400Y-4250D02*X109900D01*
X112150Y-8000D02*X114400D01*
X111400Y-7250D02*X112150Y-8000D01*
X111400Y-5750D02*Y-7250D01*
Y-5750D02*X112150Y-5000D01*
X113650D01*
X114400Y-5750D01*
X111400Y-6500D02*X114400D01*
Y-5750D02*Y-6500D01*
X116950Y-5750D02*Y-8000D01*
Y-5750D02*X117700Y-5000D01*
X119200D01*
X116200D02*X116950Y-5750D01*
X121000Y-2000D02*Y-7250D01*
X121750Y-8000D01*
X123250Y-3500D02*Y-4250D01*
Y-5750D02*Y-8000D01*
X125500Y-5750D02*Y-8000D01*
Y-5750D02*X126250Y-5000D01*
X127000D01*
X127750Y-5750D01*
Y-8000D01*
X124750Y-5000D02*X125500Y-5750D01*
X130300Y-8000D02*X132550D01*
X129550Y-7250D02*X130300Y-8000D01*
X129550Y-5750D02*Y-7250D01*
Y-5750D02*X130300Y-5000D01*
X131800D01*
X132550Y-5750D01*
X129550Y-6500D02*X132550D01*
Y-5750D02*Y-6500D01*
X137050Y-5750D02*Y-7250D01*
Y-5750D02*X137800Y-5000D01*
X139300D01*
X140050Y-5750D01*
Y-7250D01*
X139300Y-8000D02*X140050Y-7250D01*
X137800Y-8000D02*X139300D01*
X137050Y-7250D02*X137800Y-8000D01*
X142600Y-2750D02*Y-8000D01*
Y-2750D02*X143350Y-2000D01*
X144100D01*
X141850Y-5000D02*X143350D01*
X149050Y-2000D02*Y-7250D01*
X149800Y-8000D01*
X148300Y-4250D02*X149800D01*
X151300Y-2000D02*Y-8000D01*
Y-5750D02*X152050Y-5000D01*
X153550D01*
X154300Y-5750D01*
Y-8000D01*
X156100Y-3500D02*Y-4250D01*
Y-5750D02*Y-8000D01*
X158350D02*X160600D01*
X161350Y-7250D01*
X160600Y-6500D02*X161350Y-7250D01*
X158350Y-6500D02*X160600D01*
X157600Y-5750D02*X158350Y-6500D01*
X157600Y-5750D02*X158350Y-5000D01*
X160600D01*
X161350Y-5750D01*
X157600Y-7250D02*X158350Y-8000D01*
X166600Y-5750D02*Y-10250D01*
X165850Y-5000D02*X166600Y-5750D01*
X167350Y-5000D01*
X168850D01*
X169600Y-5750D01*
Y-7250D01*
X168850Y-8000D02*X169600Y-7250D01*
X167350Y-8000D02*X168850D01*
X166600Y-7250D02*X167350Y-8000D01*
X173650Y-5000D02*X174400Y-5750D01*
X172150Y-5000D02*X173650D01*
X171400Y-5750D02*X172150Y-5000D01*
X171400Y-5750D02*Y-7250D01*
X172150Y-8000D01*
X174400Y-5000D02*Y-7250D01*
X175150Y-8000D01*
X172150D02*X173650D01*
X174400Y-7250D01*
X177700Y-2000D02*Y-7250D01*
X178450Y-8000D01*
X176950Y-4250D02*X178450D01*
X179950Y-2000D02*Y-8000D01*
Y-5750D02*X180700Y-5000D01*
X182200D01*
X182950Y-5750D01*
Y-8000D01*
X200750Y423701D02*Y417701D01*
X203000Y423701D02*X203750Y422951D01*
Y418451D01*
X203000Y417701D02*X203750Y418451D01*
X200000Y417701D02*X203000D01*
X200000Y423701D02*X203000D01*
X207800Y420701D02*X208550Y419951D01*
X206300Y420701D02*X207800D01*
X205550Y419951D02*X206300Y420701D01*
X205550Y419951D02*Y418451D01*
X206300Y417701D01*
X208550Y420701D02*Y418451D01*
X209300Y417701D01*
X206300D02*X207800D01*
X208550Y418451D01*
X211850Y423701D02*Y418451D01*
X212600Y417701D01*
X211100Y421451D02*X212600D01*
X214850Y417701D02*X217100D01*
X214100Y418451D02*X214850Y417701D01*
X214100Y419951D02*Y418451D01*
Y419951D02*X214850Y420701D01*
X216350D01*
X217100Y419951D01*
X214100Y419201D02*X217100D01*
Y419951D02*Y419201D01*
X218900Y421451D02*X219650D01*
X218900Y419951D02*X219650D01*
X227150Y423701D02*X227900Y422951D01*
X224900Y423701D02*X227150D01*
X224150Y422951D02*X224900Y423701D01*
X224150Y422951D02*Y421451D01*
X224900Y420701D01*
X227150D01*
X227900Y419951D01*
Y418451D01*
X227150Y417701D02*X227900Y418451D01*
X224900Y417701D02*X227150D01*
X224150Y418451D02*X224900Y417701D01*
X229700Y420701D02*Y418451D01*
X230450Y417701D01*
X231950D01*
X232700Y418451D01*
Y420701D02*Y418451D01*
X235250Y419951D02*Y417701D01*
Y419951D02*X236000Y420701D01*
X236750D01*
X237500Y419951D01*
Y417701D01*
X234500Y420701D02*X235250Y419951D01*
X242000Y423701D02*X244250D01*
Y418451D01*
X243500Y417701D02*X244250Y418451D01*
X242750Y417701D02*X243500D01*
X242000Y418451D02*X242750Y417701D01*
X246050Y420701D02*Y418451D01*
X246800Y417701D01*
X248300D01*
X249050Y418451D01*
Y420701D02*Y418451D01*
X250850Y423701D02*Y418451D01*
X251600Y417701D01*
X255800Y422951D02*X256550Y423701D01*
X258800D01*
X259550Y422951D01*
Y421451D01*
X255800Y417701D02*X259550Y421451D01*
X255800Y417701D02*X259550D01*
X261350D02*X264350Y420701D01*
Y422951D02*Y420701D01*
X263600Y423701D02*X264350Y422951D01*
X262100Y423701D02*X263600D01*
X261350Y422951D02*X262100Y423701D01*
X261350Y422951D02*Y421451D01*
X262100Y420701D01*
X264350D01*
X268850Y418451D02*X269600Y417701D01*
X268850Y422951D02*Y418451D01*
Y422951D02*X269600Y423701D01*
X271100D01*
X271850Y422951D01*
Y418451D01*
X271100Y417701D02*X271850Y418451D01*
X269600Y417701D02*X271100D01*
X268850Y419201D02*X271850Y422201D01*
X273650Y418451D02*X274400Y417701D01*
X273650Y419951D02*Y418451D01*
Y419951D02*X274400Y420701D01*
X275900D01*
X276650Y419951D01*
Y418451D01*
X275900Y417701D02*X276650Y418451D01*
X274400Y417701D02*X275900D01*
X273650Y421451D02*X274400Y420701D01*
X273650Y422951D02*Y421451D01*
Y422951D02*X274400Y423701D01*
X275900D01*
X276650Y422951D01*
Y421451D01*
X275900Y420701D02*X276650Y421451D01*
X278450D02*X279200D01*
X278450Y419951D02*X279200D01*
X281750Y417701D02*X283250D01*
X282500Y423701D02*Y417701D01*
X281000Y422201D02*X282500Y423701D01*
X285050Y417701D02*X288800Y421451D01*
Y423701D02*Y421451D01*
X285050Y423701D02*X288800D01*
X290600Y421451D02*X291350D01*
X290600Y419951D02*X291350D01*
X293900Y417701D02*X295400D01*
X294650Y423701D02*Y417701D01*
X293150Y422201D02*X294650Y423701D01*
X297200D02*X300200D01*
X297200D02*Y420701D01*
X297950Y421451D01*
X299450D01*
X300200Y420701D01*
Y418451D01*
X299450Y417701D02*X300200Y418451D01*
X297950Y417701D02*X299450D01*
X297200Y418451D02*X297950Y417701D01*
X304700Y422951D02*X305450Y423701D01*
X307700D01*
X308450Y422951D01*
Y421451D01*
X304700Y417701D02*X308450Y421451D01*
X304700Y417701D02*X308450D01*
X310250Y418451D02*X311000Y417701D01*
X310250Y422951D02*Y418451D01*
Y422951D02*X311000Y423701D01*
X312500D01*
X313250Y422951D01*
Y418451D01*
X312500Y417701D02*X313250Y418451D01*
X311000Y417701D02*X312500D01*
X310250Y419201D02*X313250Y422201D01*
X315800Y417701D02*X317300D01*
X316550Y423701D02*Y417701D01*
X315050Y422201D02*X316550Y423701D01*
X319100Y418451D02*X319850Y417701D01*
X319100Y419951D02*Y418451D01*
Y419951D02*X319850Y420701D01*
X321350D01*
X322100Y419951D01*
Y418451D01*
X321350Y417701D02*X322100Y418451D01*
X319850Y417701D02*X321350D01*
X319100Y421451D02*X319850Y420701D01*
X319100Y422951D02*Y421451D01*
Y422951D02*X319850Y423701D01*
X321350D01*
X322100Y422951D01*
Y421451D01*
X321350Y420701D02*X322100Y421451D01*
X326600Y423701D02*Y418451D01*
X327350Y417701D01*
X328850D01*
X329600Y418451D01*
Y423701D02*Y418451D01*
X331400Y423701D02*X334400D01*
X332900D02*Y417701D01*
X336950D02*X339200D01*
X336200Y418451D02*X336950Y417701D01*
X336200Y422951D02*Y418451D01*
Y422951D02*X336950Y423701D01*
X339200D01*
X200000Y437951D02*Y432701D01*
Y437951D02*X200750Y438701D01*
X203000D01*
X203750Y437951D01*
Y432701D01*
X200000Y435701D02*X203750D01*
X205550D02*Y433451D01*
X206300Y432701D01*
X207800D01*
X208550Y433451D01*
Y435701D02*Y433451D01*
X211100Y438701D02*Y433451D01*
X211850Y432701D01*
X210350Y436451D02*X211850D01*
X213350Y438701D02*Y432701D01*
Y434951D02*X214100Y435701D01*
X215600D01*
X216350Y434951D01*
Y432701D01*
X218150Y434951D02*Y433451D01*
Y434951D02*X218900Y435701D01*
X220400D01*
X221150Y434951D01*
Y433451D01*
X220400Y432701D02*X221150Y433451D01*
X218900Y432701D02*X220400D01*
X218150Y433451D02*X218900Y432701D01*
X223700Y434951D02*Y432701D01*
Y434951D02*X224450Y435701D01*
X225950D01*
X222950D02*X223700Y434951D01*
X227750Y436451D02*X228500D01*
X227750Y434951D02*X228500D01*
X233000Y432701D02*X236000D01*
X236750Y433451D01*
Y434951D02*Y433451D01*
X236000Y435701D02*X236750Y434951D01*
X233750Y435701D02*X236000D01*
X233750Y438701D02*Y432701D01*
X233000Y438701D02*X236000D01*
X236750Y437951D01*
Y436451D01*
X236000Y435701D02*X236750Y436451D01*
X239300Y432701D02*X241550D01*
X238550Y433451D02*X239300Y432701D01*
X238550Y434951D02*Y433451D01*
Y434951D02*X239300Y435701D01*
X240800D01*
X241550Y434951D01*
X238550Y434201D02*X241550D01*
Y434951D02*Y434201D01*
X244100Y434951D02*Y432701D01*
Y434951D02*X244850Y435701D01*
X246350D01*
X243350D02*X244100Y434951D01*
X248900Y438701D02*Y433451D01*
X249650Y432701D01*
X248150Y436451D02*X249650D01*
X253850Y438701D02*X256850D01*
X255350D02*Y432701D01*
X258650Y437201D02*Y436451D01*
Y434951D02*Y432701D01*
X260900Y434951D02*Y432701D01*
Y434951D02*X261650Y435701D01*
X262400D01*
X263150Y434951D01*
Y432701D01*
Y434951D02*X263900Y435701D01*
X264650D01*
X265400Y434951D01*
Y432701D01*
X260150Y435701D02*X260900Y434951D01*
X267950D02*Y432701D01*
Y434951D02*X268700Y435701D01*
X269450D01*
X270200Y434951D01*
Y432701D01*
Y434951D02*X270950Y435701D01*
X271700D01*
X272450Y434951D01*
Y432701D01*
X267200Y435701D02*X267950Y434951D01*
X275000Y432701D02*X277250D01*
X274250Y433451D02*X275000Y432701D01*
X274250Y434951D02*Y433451D01*
Y434951D02*X275000Y435701D01*
X276500D01*
X277250Y434951D01*
X274250Y434201D02*X277250D01*
Y434951D02*Y434201D01*
X279800Y434951D02*Y432701D01*
Y434951D02*X280550Y435701D01*
X282050D01*
X279050D02*X279800Y434951D01*
X284600D02*Y432701D01*
Y434951D02*X285350Y435701D01*
X286100D01*
X286850Y434951D01*
Y432701D01*
Y434951D02*X287600Y435701D01*
X288350D01*
X289100Y434951D01*
Y432701D01*
X283850Y435701D02*X284600Y434951D01*
X293150Y435701D02*X293900Y434951D01*
X291650Y435701D02*X293150D01*
X290900Y434951D02*X291650Y435701D01*
X290900Y434951D02*Y433451D01*
X291650Y432701D01*
X293900Y435701D02*Y433451D01*
X294650Y432701D01*
X291650D02*X293150D01*
X293900Y433451D01*
X297200Y434951D02*Y432701D01*
Y434951D02*X297950Y435701D01*
X298700D01*
X299450Y434951D01*
Y432701D01*
X296450Y435701D02*X297200Y434951D01*
X200000Y453701D02*X203000D01*
X201500D02*Y447701D01*
X204800Y452201D02*Y451451D01*
Y449951D02*Y447701D01*
X207050Y453701D02*Y448451D01*
X207800Y447701D01*
X206300Y451451D02*X207800D01*
X209300Y453701D02*Y448451D01*
X210050Y447701D01*
X212300D02*X214550D01*
X211550Y448451D02*X212300Y447701D01*
X211550Y449951D02*Y448451D01*
Y449951D02*X212300Y450701D01*
X213800D01*
X214550Y449951D01*
X211550Y449201D02*X214550D01*
Y449951D02*Y449201D01*
X216350Y451451D02*X217100D01*
X216350Y449951D02*X217100D01*
X221600Y452951D02*X222350Y453701D01*
X224600D01*
X225350Y452951D01*
Y451451D01*
X221600Y447701D02*X225350Y451451D01*
X221600Y447701D02*X225350D01*
X229400Y453701D02*X230150Y452951D01*
X227900Y453701D02*X229400D01*
X227150Y452951D02*X227900Y453701D01*
X227150Y452951D02*Y448451D01*
X227900Y447701D01*
X229400Y450701D02*X230150Y449951D01*
X227150Y450701D02*X229400D01*
X227900Y447701D02*X229400D01*
X230150Y448451D01*
Y449951D02*Y448451D01*
X231950Y447701D02*X232700D01*
X234500Y448451D02*X235250Y447701D01*
X234500Y452951D02*Y448451D01*
Y452951D02*X235250Y453701D01*
X236750D01*
X237500Y452951D01*
Y448451D01*
X236750Y447701D02*X237500Y448451D01*
X235250Y447701D02*X236750D01*
X234500Y449201D02*X237500Y452201D01*
X239300Y448451D02*X240050Y447701D01*
X239300Y452951D02*Y448451D01*
Y452951D02*X240050Y453701D01*
X241550D01*
X242300Y452951D01*
Y448451D01*
X241550Y447701D02*X242300Y448451D01*
X240050Y447701D02*X241550D01*
X239300Y449201D02*X242300Y452201D01*
X244100Y452951D02*X244850Y453701D01*
X247100D01*
X247850Y452951D01*
Y451451D01*
X244100Y447701D02*X247850Y451451D01*
X244100Y447701D02*X247850D01*
X249650D02*X250400D01*
X252200Y448451D02*X252950Y447701D01*
X252200Y452951D02*Y448451D01*
Y452951D02*X252950Y453701D01*
X254450D01*
X255200Y452951D01*
Y448451D01*
X254450Y447701D02*X255200Y448451D01*
X252950Y447701D02*X254450D01*
X252200Y449201D02*X255200Y452201D01*
X257000Y448451D02*X257750Y447701D01*
X257000Y452951D02*Y448451D01*
Y452951D02*X257750Y453701D01*
X259250D01*
X260000Y452951D01*
Y448451D01*
X259250Y447701D02*X260000Y448451D01*
X257750Y447701D02*X259250D01*
X257000Y449201D02*X260000Y452201D01*
X261800Y447701D02*X262550D01*
X264350Y448451D02*X265100Y447701D01*
X264350Y452951D02*Y448451D01*
Y452951D02*X265100Y453701D01*
X266600D01*
X267350Y452951D01*
Y448451D01*
X266600Y447701D02*X267350Y448451D01*
X265100Y447701D02*X266600D01*
X264350Y449201D02*X267350Y452201D01*
X269900Y447701D02*X271400D01*
X270650Y453701D02*Y447701D01*
X269150Y452201D02*X270650Y453701D01*
X273200Y447701D02*X273950D01*
X275750Y448451D02*X276500Y447701D01*
X275750Y452951D02*Y448451D01*
Y452951D02*X276500Y453701D01*
X278000D01*
X278750Y452951D01*
Y448451D01*
X278000Y447701D02*X278750Y448451D01*
X276500Y447701D02*X278000D01*
X275750Y449201D02*X278750Y452201D01*
X281300Y447701D02*X282800D01*
X282050Y453701D02*Y447701D01*
X280550Y452201D02*X282050Y453701D01*
X284600Y447701D02*X285350D01*
X287900Y449951D02*Y445451D01*
X287150Y450701D02*X287900Y449951D01*
X288650Y450701D01*
X290150D01*
X290900Y449951D01*
Y448451D01*
X290150Y447701D02*X290900Y448451D01*
X288650Y447701D02*X290150D01*
X287900Y448451D02*X288650Y447701D01*
X293450Y450701D02*X295700D01*
X292700Y449951D02*X293450Y450701D01*
X292700Y449951D02*Y448451D01*
X293450Y447701D01*
X295700D01*
X297500Y453701D02*Y447701D01*
Y448451D02*X298250Y447701D01*
X299750D01*
X300500Y448451D01*
Y449951D02*Y448451D01*
X299750Y450701D02*X300500Y449951D01*
X298250Y450701D02*X299750D01*
X297500Y449951D02*X298250Y450701D01*
X305000D02*X308000D01*
X312500Y453701D02*Y447701D01*
Y453701D02*X315500D01*
X312500Y450701D02*X314750D01*
X319550D02*X320300Y449951D01*
X318050Y450701D02*X319550D01*
X317300Y449951D02*X318050Y450701D01*
X317300Y449951D02*Y448451D01*
X318050Y447701D01*
X320300Y450701D02*Y448451D01*
X321050Y447701D01*
X318050D02*X319550D01*
X320300Y448451D01*
X322850Y453701D02*Y447701D01*
Y448451D02*X323600Y447701D01*
X325100D01*
X325850Y448451D01*
Y449951D02*Y448451D01*
X325100Y450701D02*X325850Y449951D01*
X323600Y450701D02*X325100D01*
X322850Y449951D02*X323600Y450701D01*
X328400Y449951D02*Y447701D01*
Y449951D02*X329150Y450701D01*
X330650D01*
X327650D02*X328400Y449951D01*
X332450Y452201D02*Y451451D01*
Y449951D02*Y447701D01*
X334700Y450701D02*X336950D01*
X333950Y449951D02*X334700Y450701D01*
X333950Y449951D02*Y448451D01*
X334700Y447701D01*
X336950D01*
X341000Y450701D02*X341750Y449951D01*
X339500Y450701D02*X341000D01*
X338750Y449951D02*X339500Y450701D01*
X338750Y449951D02*Y448451D01*
X339500Y447701D01*
X341750Y450701D02*Y448451D01*
X342500Y447701D01*
X339500D02*X341000D01*
X341750Y448451D01*
X345050Y453701D02*Y448451D01*
X345800Y447701D01*
X344300Y451451D02*X345800D01*
X347300Y452201D02*Y451451D01*
Y449951D02*Y447701D01*
X348800Y449951D02*Y448451D01*
Y449951D02*X349550Y450701D01*
X351050D01*
X351800Y449951D01*
Y448451D01*
X351050Y447701D02*X351800Y448451D01*
X349550Y447701D02*X351050D01*
X348800Y448451D02*X349550Y447701D01*
X354350Y449951D02*Y447701D01*
Y449951D02*X355100Y450701D01*
X355850D01*
X356600Y449951D01*
Y447701D01*
X353600Y450701D02*X354350Y449951D01*
X361850Y453701D02*Y447701D01*
X364100Y453701D02*X364850Y452951D01*
Y448451D01*
X364100Y447701D02*X364850Y448451D01*
X361100Y447701D02*X364100D01*
X361100Y453701D02*X364100D01*
X367400Y449951D02*Y447701D01*
Y449951D02*X368150Y450701D01*
X369650D01*
X366650D02*X367400Y449951D01*
X373700Y450701D02*X374450Y449951D01*
X372200Y450701D02*X373700D01*
X371450Y449951D02*X372200Y450701D01*
X371450Y449951D02*Y448451D01*
X372200Y447701D01*
X374450Y450701D02*Y448451D01*
X375200Y447701D01*
X372200D02*X373700D01*
X374450Y448451D01*
X377000Y450701D02*Y448451D01*
X377750Y447701D01*
X378500D01*
X379250Y448451D01*
Y450701D02*Y448451D01*
X380000Y447701D01*
X380750D01*
X381500Y448451D01*
Y450701D02*Y448451D01*
X383300Y452201D02*Y451451D01*
Y449951D02*Y447701D01*
X385550Y449951D02*Y447701D01*
Y449951D02*X386300Y450701D01*
X387050D01*
X387800Y449951D01*
Y447701D01*
X384800Y450701D02*X385550Y449951D01*
X391850Y450701D02*X392600Y449951D01*
X390350Y450701D02*X391850D01*
X389600Y449951D02*X390350Y450701D01*
X389600Y449951D02*Y448451D01*
X390350Y447701D01*
X391850D01*
X392600Y448451D01*
X389600Y446201D02*X390350Y445451D01*
X391850D01*
X392600Y446201D01*
Y450701D02*Y446201D01*
M02*
