G04 start of page 3 for group 1 idx 1 *
G04 Title: 26.999.00.01.01.pcb, bottom *
G04 Creator: pcb 4.2.2 *
G04 CreationDate: Sat Feb 13 13:51:24 2021 UTC *
G04 For: bert *
G04 Format: Gerber/RS-274X *
G04 PCB-Dimensions (mil): 2165.35 590.55 *
G04 PCB-Coordinate-Origin: lower left *
%MOIN*%
%FSLAX25Y25*%
%LNGBL*%
%ADD17C,0.0280*%
%ADD16C,0.0001*%
%ADD15C,0.0600*%
%ADD14C,0.0100*%
G54D14*X22500Y44055D02*Y39055D01*
X25000Y36555D01*
X32500D01*
X27500Y44055D02*Y39055D01*
X28000Y38555D01*
X32500Y44055D02*X35000D01*
X40000Y49055D01*
X20000Y31555D02*X12500D01*
X10000Y29055D01*
X20000Y34055D02*X15000D01*
X17500Y24055D02*X12500Y19055D01*
X10000D01*
X15000Y34055D02*X10000Y39055D01*
X20000Y36555D02*X16500D01*
X15000Y38055D01*
Y44055D02*X10000Y49055D01*
X28000Y38555D02*X39500D01*
X40000Y39055D01*
X32500Y36555D02*X35500Y33555D01*
X30000Y28555D02*X29000Y29555D01*
X27000D01*
X35500Y33555D02*Y30555D01*
X37000Y29055D01*
X40000D01*
X26500Y32555D02*X31000D01*
X35500Y28055D02*X31000Y32555D01*
X18125Y38555D02*X20500D01*
X17500Y44055D02*Y39055D01*
X18000Y38555D01*
X22500Y24055D02*Y29055D01*
X20000Y31555D01*
X25000Y29055D02*X20000Y34055D01*
X27000Y29555D02*X20000Y36555D01*
X15000Y38055D02*Y44055D01*
X20500Y38555D02*X26500Y32555D01*
X35500Y28055D02*Y20055D01*
X32500Y24055D02*X31500D01*
X35500Y20055D02*X36500Y19055D01*
X40000D01*
X27500Y24055D02*X26000D01*
X25000Y25055D01*
Y29055D01*
X31500Y24055D02*X30000Y25555D01*
Y28555D01*
G54D15*X10000Y19055D03*
X40000D03*
Y29055D03*
Y39055D03*
G54D16*G36*
X7000Y52055D02*Y46055D01*
X13000D01*
Y52055D01*
X7000D01*
G37*
G54D15*X10000Y39055D03*
Y29055D03*
X40000Y49055D03*
G54D16*G36*
X18500Y48555D02*X16500D01*
Y40055D01*
X18500D01*
Y48555D01*
G37*
G36*
X23500D02*X21500D01*
Y40055D01*
X23500D01*
Y48555D01*
G37*
G36*
X28500D02*X26500D01*
Y40055D01*
X28500D01*
Y48555D01*
G37*
G36*
X33500Y28055D02*X31500D01*
Y19555D01*
X33500D01*
Y28055D01*
G37*
G36*
X28500D02*X26500D01*
Y19555D01*
X28500D01*
Y28055D01*
G37*
G36*
X23500D02*X21500D01*
Y19555D01*
X23500D01*
Y28055D01*
G37*
G36*
X18500D02*X16500D01*
Y19555D01*
X18500D01*
Y28055D01*
G37*
G36*
X33500Y48555D02*X31500D01*
Y40055D01*
X33500D01*
Y48555D01*
G37*
G54D17*M02*
