G04 start of page 8 for group -4079 idx -4079 *
G04 Title: 26.999.01.01.01.pcb, topsilk *
G04 Creator: pcb 4.1.2 *
G04 CreationDate: Fri Aug 10 20:06:25 2018 UTC *
G04 For: bert *
G04 Format: Gerber/RS-274X *
G04 PCB-Dimensions (mil): 2165.35 590.55 *
G04 PCB-Coordinate-Origin: lower left *
%MOIN*%
%FSLAX25Y25*%
%LNGTO*%
%ADD26C,0.0100*%
%ADD25C,0.0098*%
%ADD24C,0.0001*%
G54D24*G36*
X77225Y47737D02*X79802D01*
X79885Y47705D01*
X79932Y47629D01*
X79981Y47390D01*
X80025Y47168D01*
X80416Y45036D01*
X80463Y44948D01*
X80546Y44890D01*
X80649Y44846D01*
X81439Y44575D01*
X82189Y44217D01*
X82195D01*
X82282Y44179D01*
X82379Y44165D01*
X82477Y44196D01*
X84250Y45415D01*
X84441Y45540D01*
X84642Y45676D01*
X84728Y45701D01*
X84810Y45665D01*
X85141Y45335D01*
X85645Y44835D01*
X85803Y44672D01*
X86302Y44174D01*
X86464Y44017D01*
X86632Y43843D01*
X86671Y43758D01*
X86649Y43669D01*
X86513Y43468D01*
X86384Y43278D01*
X85195Y41542D01*
X85163Y41450D01*
X85178Y41353D01*
X85223Y41254D01*
X85906Y39648D01*
X85943Y39557D01*
X86006Y39479D01*
X86096Y39432D01*
X88135Y39051D01*
X88359Y39008D01*
X88602Y38965D01*
X88677Y38918D01*
X88706Y38835D01*
Y36258D01*
X88677Y36169D01*
X88602Y36122D01*
X88359Y36079D01*
X88135Y36036D01*
X86156Y35667D01*
X86068Y35619D01*
X86014Y35536D01*
X85986Y35476D01*
Y35465D01*
X85271Y33692D01*
X85266Y33680D01*
X85249Y33637D01*
X85232Y33536D01*
X85260Y33442D01*
X86389Y31810D01*
X86513Y31619D01*
X86654Y31418D01*
X86673Y31332D01*
X86632Y31250D01*
X86464Y31071D01*
X86302Y30914D01*
X84984Y29596D01*
X84810Y29428D01*
X84728Y29387D01*
X84642Y29405D01*
X84441Y29547D01*
X84250Y29671D01*
X82656Y30768D01*
X82557Y30797D01*
X82460Y30778D01*
X82129Y30594D01*
X81935Y30485D01*
X81588Y30307D01*
X81503Y30301D01*
X81441Y30361D01*
X81295Y30718D01*
X81207Y30925D01*
X79824Y34283D01*
X79736Y34489D01*
X79639Y34722D01*
X79635Y34817D01*
X79688Y34890D01*
X79911Y35021D01*
X80052Y35129D01*
X80588Y35575D01*
X81003Y36139D01*
X81270Y36798D01*
X81364Y37528D01*
X81306Y38103D01*
X81141Y38637D01*
X80878Y39122D01*
X80529Y39544D01*
X80109Y39893D01*
X79625Y40157D01*
X79091Y40322D01*
X78517Y40380D01*
X77942Y40322D01*
X77407Y40157D01*
X76924Y39893D01*
X76502Y39544D01*
X76154Y39122D01*
X75892Y38637D01*
X75727Y38103D01*
X75668Y37528D01*
X75761Y36798D01*
X76028Y36139D01*
X76442Y35575D01*
X76981Y35129D01*
X77117Y35021D01*
X77339Y34890D01*
X77393Y34817D01*
X77388Y34722D01*
X77291Y34489D01*
X77203Y34283D01*
X75820Y30925D01*
X75734Y30718D01*
X75586Y30361D01*
X75525Y30301D01*
X75441Y30307D01*
X75099Y30485D01*
X74898Y30594D01*
X74567Y30778D01*
X74468Y30797D01*
X74371Y30768D01*
X72777Y29671D01*
X72592Y29547D01*
X72386Y29405D01*
X72299Y29387D01*
X72217Y29428D01*
X72043Y29596D01*
X71886Y29758D01*
X71388Y30257D01*
X71225Y30415D01*
X70725Y30914D01*
X70563Y31071D01*
X70395Y31250D01*
X70356Y31332D01*
X70378Y31418D01*
X70514Y31619D01*
X70645Y31810D01*
X71767Y33442D01*
X71795Y33536D01*
X71778Y33637D01*
X71756Y33697D01*
X71046Y35471D01*
X71013Y35536D01*
X70959Y35619D01*
X70873Y35667D01*
X68892Y36036D01*
X68670Y36079D01*
X68431Y36122D01*
X68352Y36172D01*
X68323Y36258D01*
Y38835D01*
X68352Y38918D01*
X68431Y38965D01*
X68670Y39014D01*
X68892Y39051D01*
X70932Y39432D01*
X71021Y39479D01*
X71084Y39562D01*
X71121Y39648D01*
X71810Y41254D01*
X71849Y41353D01*
X71866Y41450D01*
X71838Y41542D01*
X70645Y43283D01*
X70514Y43468D01*
X70378Y43669D01*
X70356Y43758D01*
X70395Y43843D01*
X70563Y44017D01*
X70725Y44174D01*
X72217Y45665D01*
X72299Y45701D01*
X72386Y45682D01*
X72592Y45546D01*
X72777Y45415D01*
X74550Y44196D01*
X74648Y44167D01*
X74746Y44185D01*
X74832Y44217D01*
X74843Y44222D01*
X75589Y44576D01*
X76379Y44851D01*
X76482Y44890D01*
X76566Y44948D01*
X76611Y45036D01*
X77009Y47168D01*
X77046Y47390D01*
X77095Y47629D01*
X77142Y47705D01*
X77225Y47737D01*
G37*
G36*
X23725Y44237D02*X26302D01*
X26385Y44205D01*
X26432Y44129D01*
X26481Y43890D01*
X26525Y43668D01*
X26916Y41536D01*
X26963Y41448D01*
X27046Y41390D01*
X27149Y41346D01*
X27939Y41075D01*
X28689Y40717D01*
X28695D01*
X28782Y40679D01*
X28879Y40665D01*
X28977Y40696D01*
X30750Y41915D01*
X30941Y42040D01*
X31142Y42176D01*
X31228Y42201D01*
X31310Y42165D01*
X31641Y41835D01*
X32145Y41335D01*
X32303Y41172D01*
X32802Y40674D01*
X32964Y40517D01*
X33132Y40343D01*
X33171Y40258D01*
X33149Y40169D01*
X33013Y39968D01*
X32884Y39778D01*
X31695Y38042D01*
X31663Y37950D01*
X31678Y37853D01*
X31723Y37754D01*
X32406Y36148D01*
X32443Y36057D01*
X32506Y35979D01*
X32596Y35932D01*
X34635Y35551D01*
X34859Y35508D01*
X35102Y35465D01*
X35177Y35418D01*
X35206Y35335D01*
Y32758D01*
X35177Y32669D01*
X35102Y32622D01*
X34859Y32579D01*
X34635Y32536D01*
X32656Y32167D01*
X32568Y32119D01*
X32514Y32036D01*
X32486Y31976D01*
Y31965D01*
X31771Y30192D01*
X31766Y30180D01*
X31749Y30137D01*
X31732Y30036D01*
X31760Y29942D01*
X32889Y28310D01*
X33013Y28119D01*
X33154Y27918D01*
X33173Y27832D01*
X33132Y27750D01*
X32964Y27571D01*
X32802Y27414D01*
X31484Y26096D01*
X31310Y25928D01*
X31228Y25887D01*
X31142Y25905D01*
X30941Y26047D01*
X30750Y26171D01*
X29156Y27268D01*
X29057Y27297D01*
X28960Y27278D01*
X28629Y27094D01*
X28435Y26985D01*
X28088Y26807D01*
X28003Y26801D01*
X27941Y26861D01*
X27795Y27218D01*
X27707Y27425D01*
X26324Y30783D01*
X26236Y30989D01*
X26139Y31222D01*
X26135Y31317D01*
X26188Y31390D01*
X26411Y31521D01*
X26552Y31629D01*
X27088Y32075D01*
X27503Y32639D01*
X27770Y33298D01*
X27864Y34028D01*
X27806Y34603D01*
X27641Y35137D01*
X27378Y35622D01*
X27029Y36044D01*
X26609Y36393D01*
X26125Y36657D01*
X25591Y36822D01*
X25017Y36880D01*
X24442Y36822D01*
X23907Y36657D01*
X23424Y36393D01*
X23002Y36044D01*
X22654Y35622D01*
X22392Y35137D01*
X22227Y34603D01*
X22168Y34028D01*
X22261Y33298D01*
X22528Y32639D01*
X22942Y32075D01*
X23481Y31629D01*
X23617Y31521D01*
X23839Y31390D01*
X23893Y31317D01*
X23888Y31222D01*
X23791Y30989D01*
X23703Y30783D01*
X22320Y27425D01*
X22234Y27218D01*
X22086Y26861D01*
X22025Y26801D01*
X21941Y26807D01*
X21599Y26985D01*
X21398Y27094D01*
X21067Y27278D01*
X20968Y27297D01*
X20871Y27268D01*
X19277Y26171D01*
X19092Y26047D01*
X18886Y25905D01*
X18799Y25887D01*
X18717Y25928D01*
X18543Y26096D01*
X18386Y26258D01*
X17888Y26757D01*
X17725Y26915D01*
X17225Y27414D01*
X17063Y27571D01*
X16895Y27750D01*
X16856Y27832D01*
X16878Y27918D01*
X17014Y28119D01*
X17145Y28310D01*
X18267Y29942D01*
X18295Y30036D01*
X18278Y30137D01*
X18256Y30197D01*
X17546Y31971D01*
X17513Y32036D01*
X17459Y32119D01*
X17373Y32167D01*
X15392Y32536D01*
X15170Y32579D01*
X14931Y32622D01*
X14852Y32672D01*
X14823Y32758D01*
Y35335D01*
X14852Y35418D01*
X14931Y35465D01*
X15170Y35514D01*
X15392Y35551D01*
X17432Y35932D01*
X17521Y35979D01*
X17584Y36062D01*
X17621Y36148D01*
X18310Y37754D01*
X18349Y37853D01*
X18366Y37950D01*
X18338Y38042D01*
X17145Y39783D01*
X17014Y39968D01*
X16878Y40169D01*
X16856Y40258D01*
X16895Y40343D01*
X17063Y40517D01*
X17225Y40674D01*
X18717Y42165D01*
X18799Y42201D01*
X18886Y42182D01*
X19092Y42046D01*
X19277Y41915D01*
X21050Y40696D01*
X21148Y40667D01*
X21246Y40685D01*
X21332Y40717D01*
X21343Y40722D01*
X22089Y41076D01*
X22879Y41351D01*
X22982Y41390D01*
X23066Y41448D01*
X23111Y41536D01*
X23509Y43668D01*
X23546Y43890D01*
X23595Y44129D01*
X23642Y44205D01*
X23725Y44237D01*
G37*
G54D25*X61748Y25123D02*X61348Y24923D01*
X60948Y24523D01*
X60748Y23923D01*
Y23523D01*
X60948Y22923D01*
X61348Y22523D01*
X61748Y22323D01*
X62348D01*
X62748Y22523D01*
X63148Y22923D01*
X63348Y23523D01*
Y23923D02*Y23523D01*
Y23923D02*X63148Y24523D01*
X62748Y24923D01*
X62348Y25123D01*
X61748D02*X62348D01*
X64548D02*Y20923D01*
Y24523D02*X64948Y24923D01*
X65348Y25123D01*
X65948D01*
X66348Y24923D01*
X66748Y24523D01*
X66948Y23923D01*
Y23523D01*
X66748Y22923D01*
X66348Y22523D01*
X65948Y22323D01*
X65348D02*X65948D01*
X65348D02*X64948Y22523D01*
X64548Y22923D01*
X68148Y23923D02*X70548D01*
Y24323D02*Y23923D01*
Y24323D02*X70348Y24723D01*
X70148Y24923D01*
X69748Y25123D01*
X69148D02*X69748D01*
X69148D02*X68748Y24923D01*
X68348Y24523D01*
X68148Y23923D01*
Y23523D01*
X68348Y22923D01*
X68748Y22523D01*
X69148Y22323D01*
X69748D01*
X70148Y22523D01*
X70548Y22923D01*
X71748Y25123D02*Y22323D01*
Y24323D02*X72348Y24923D01*
X72748Y25123D01*
X73348D01*
X73748Y24923D01*
X73948Y24323D01*
Y22323D01*
X78548Y24523D02*X78348Y24923D01*
X77748Y25123D01*
X77148D02*X77748D01*
X77148D02*X76548Y24923D01*
X76348Y24523D01*
X76548Y24123D01*
X76948Y23923D01*
X77948Y23723D01*
X78348Y23523D01*
X78548Y23123D01*
Y22923D01*
X78348Y22523D01*
X77748Y22323D01*
X77148D02*X77748D01*
X77148D02*X76548Y22523D01*
X76348Y22923D01*
X80748Y25123D02*X80348Y24923D01*
X79948Y24523D01*
X79748Y23923D01*
Y23523D01*
X79948Y22923D01*
X80348Y22523D01*
X80748Y22323D01*
X81348D01*
X81748Y22523D01*
X82148Y22923D01*
X82348Y23523D01*
Y23923D02*Y23523D01*
Y23923D02*X82148Y24523D01*
X81748Y24923D01*
X81348Y25123D01*
X80748D02*X81348D01*
X83548D02*Y23123D01*
X83748Y22523D01*
X84148Y22323D01*
X84748D01*
X85148Y22523D01*
X85748Y23123D01*
Y25123D02*Y22323D01*
X86948Y25123D02*Y22323D01*
Y23923D02*X87148Y24523D01*
X87548Y24923D01*
X87948Y25123D01*
X88548D01*
X92148Y24523D02*X91748Y24923D01*
X91348Y25123D01*
X90748D02*X91348D01*
X90748D02*X90348Y24923D01*
X89948Y24523D01*
X89748Y23923D01*
Y23523D01*
X89948Y22923D01*
X90348Y22523D01*
X90748Y22323D01*
X91348D01*
X91748Y22523D01*
X92148Y22923D01*
X93348Y23923D02*X95748D01*
Y24323D02*Y23923D01*
Y24323D02*X95548Y24723D01*
X95348Y24923D01*
X94948Y25123D01*
X94348D02*X94948D01*
X94348D02*X93948Y24923D01*
X93548Y24523D01*
X93348Y23923D01*
Y23523D01*
X93548Y22923D01*
X93948Y22523D01*
X94348Y22323D01*
X94948D01*
X95348Y22523D01*
X95748Y22923D01*
X65748Y17023D02*Y12823D01*
Y14823D02*X66348Y15423D01*
X66748Y15623D01*
X67348D01*
X67748Y15423D01*
X67948Y14823D01*
Y12823D01*
X71548Y15623D02*Y12823D01*
Y15023D02*X71148Y15423D01*
X70748Y15623D01*
X70148D02*X70748D01*
X70148D02*X69748Y15423D01*
X69348Y15023D01*
X69148Y14423D01*
Y14023D01*
X69348Y13423D01*
X69748Y13023D01*
X70148Y12823D01*
X70748D01*
X71148Y13023D01*
X71548Y13423D01*
X72748Y15623D02*Y12823D01*
Y14423D02*X72948Y15023D01*
X73348Y15423D01*
X73748Y15623D01*
X74348D01*
X77948Y17023D02*Y12823D01*
Y15023D02*X77548Y15423D01*
X77148Y15623D01*
X76548D02*X77148D01*
X76548D02*X76148Y15423D01*
X75748Y15023D01*
X75548Y14423D01*
Y14023D01*
X75748Y13423D01*
X76148Y13023D01*
X76548Y12823D01*
X77148D01*
X77548Y13023D01*
X77948Y13423D01*
X79148Y15623D02*X79948Y12823D01*
X80748Y15623D02*X79948Y12823D01*
X80748Y15623D02*X81548Y12823D01*
X82348Y15623D02*X81548Y12823D01*
X85948Y15623D02*Y12823D01*
Y15023D02*X85548Y15423D01*
X85148Y15623D01*
X84548D02*X85148D01*
X84548D02*X84148Y15423D01*
X83748Y15023D01*
X83548Y14423D01*
Y14023D01*
X83748Y13423D01*
X84148Y13023D01*
X84548Y12823D01*
X85148D01*
X85548Y13023D01*
X85948Y13423D01*
X87148Y15623D02*Y12823D01*
Y14423D02*X87348Y15023D01*
X87748Y15423D01*
X88148Y15623D01*
X88748D01*
X89948Y14423D02*X92348D01*
Y14823D02*Y14423D01*
Y14823D02*X92148Y15223D01*
X91948Y15423D01*
X91548Y15623D01*
X90948D02*X91548D01*
X90948D02*X90548Y15423D01*
X90148Y15023D01*
X89948Y14423D01*
Y14023D01*
X90148Y13423D01*
X90548Y13023D01*
X90948Y12823D01*
X91548D01*
X91948Y13023D01*
X92348Y13423D01*
X109248Y40523D02*X109048Y40923D01*
X108648Y41323D01*
X108248Y41523D01*
X107448D02*X108248D01*
X107448D02*X107048Y41323D01*
X106648Y40923D01*
X106448Y40523D01*
X106248Y39923D01*
Y38923D01*
X106448Y38323D01*
X106648Y37923D01*
X107048Y37523D01*
X107448Y37323D01*
X108248D01*
X108648Y37523D01*
X109048Y37923D01*
X109248Y38323D01*
X112048Y41523D02*X110448Y37323D01*
X112048Y41523D02*X113648Y37323D01*
X111048Y38723D02*X113048D01*
X115248Y41523D02*X117448D01*
X116248Y39923D01*
X116848D01*
X117248Y39723D01*
X117448Y39523D01*
X117648Y38923D01*
Y38523D01*
X117448Y37923D01*
X117048Y37523D01*
X116448Y37323D01*
X115848D02*X116448D01*
X115848D02*X115248Y37523D01*
X115048Y37723D01*
X114848Y38123D01*
X118848Y40723D02*X119248Y40923D01*
X119848Y41523D01*
Y37323D01*
X123048Y41523D02*X121048Y38723D01*
X124048D01*
X123048Y41523D02*Y37323D01*
X126448Y41523D02*X125848Y41323D01*
X125448Y40723D01*
X125248Y39723D01*
Y39123D01*
X125448Y38123D01*
X125848Y37523D01*
X126448Y37323D01*
X126848D01*
X127448Y37523D01*
X127848Y38123D01*
X128048Y39123D01*
Y39723D02*Y39123D01*
Y39723D02*X127848Y40723D01*
X127448Y41323D01*
X126848Y41523D01*
X126448D02*X126848D01*
X129248D02*Y37323D01*
Y41523D02*X130848Y37323D01*
X132448Y41523D02*X130848Y37323D01*
X132448Y41523D02*Y37323D01*
X136448Y41523D02*X133648Y37323D01*
Y41523D02*X136448D01*
X133648Y37323D02*X136448D01*
X138848Y41523D02*Y37323D01*
Y41523D02*X140648D01*
X141248Y41323D01*
X141448Y41123D01*
X141648Y40723D01*
Y40323D01*
X141448Y39923D01*
X141248Y39723D01*
X140648Y39523D01*
X138848D02*X140648D01*
X141248Y39323D01*
X141448Y39123D01*
X141648Y38723D01*
Y38123D01*
X141448Y37723D01*
X141248Y37523D01*
X140648Y37323D01*
X138848D02*X140648D01*
X142848Y40123D02*Y37323D01*
Y38923D02*X143048Y39523D01*
X143448Y39923D01*
X143848Y40123D01*
X144448D01*
X145648Y38923D02*X148048D01*
Y39323D02*Y38923D01*
Y39323D02*X147848Y39723D01*
X147648Y39923D01*
X147248Y40123D01*
X146648D02*X147248D01*
X146648D02*X146248Y39923D01*
X145848Y39523D01*
X145648Y38923D01*
Y38523D01*
X145848Y37923D01*
X146248Y37523D01*
X146648Y37323D01*
X147248D01*
X147648Y37523D01*
X148048Y37923D01*
X151648Y40123D02*Y37323D01*
Y39523D02*X151248Y39923D01*
X150848Y40123D01*
X150248D02*X150848D01*
X150248D02*X149848Y39923D01*
X149448Y39523D01*
X149248Y38923D01*
Y38523D01*
X149448Y37923D01*
X149848Y37523D01*
X150248Y37323D01*
X150848D01*
X151248Y37523D01*
X151648Y37923D01*
X152848Y41523D02*Y37323D01*
X154848Y40123D02*X152848Y38123D01*
X153648Y38923D02*X155048Y37323D01*
X157248Y40123D02*X156848Y39923D01*
X156448Y39523D01*
X156248Y38923D01*
Y38523D01*
X156448Y37923D01*
X156848Y37523D01*
X157248Y37323D01*
X157848D01*
X158248Y37523D01*
X158648Y37923D01*
X158848Y38523D01*
Y38923D02*Y38523D01*
Y38923D02*X158648Y39523D01*
X158248Y39923D01*
X157848Y40123D01*
X157248D02*X157848D01*
X160048D02*Y38123D01*
X160248Y37523D01*
X160648Y37323D01*
X161248D01*
X161648Y37523D01*
X162248Y38123D01*
Y40123D02*Y37323D01*
X164048Y41523D02*Y38123D01*
X164248Y37523D01*
X164648Y37323D01*
X165048D01*
X163448Y40123D02*X164848D01*
X109248Y25023D02*X109048Y25423D01*
X108648Y25823D01*
X108248Y26023D01*
X107448D02*X108248D01*
X107448D02*X107048Y25823D01*
X106648Y25423D01*
X106448Y25023D01*
X106248Y24423D01*
Y23423D01*
X106448Y22823D01*
X106648Y22423D01*
X107048Y22023D01*
X107448Y21823D01*
X108248D01*
X108648Y22023D01*
X109048Y22423D01*
X109248Y22823D01*
X111448Y24623D02*X111048Y24423D01*
X110648Y24023D01*
X110448Y23423D01*
Y23023D01*
X110648Y22423D01*
X111048Y22023D01*
X111448Y21823D01*
X112048D01*
X112448Y22023D01*
X112848Y22423D01*
X113048Y23023D01*
Y23423D02*Y23023D01*
Y23423D02*X112848Y24023D01*
X112448Y24423D01*
X112048Y24623D01*
X111448D02*X112048D01*
X114248D02*Y20423D01*
Y24023D02*X114648Y24423D01*
X115048Y24623D01*
X115648D01*
X116048Y24423D01*
X116448Y24023D01*
X116648Y23423D01*
Y23023D01*
X116448Y22423D01*
X116048Y22023D01*
X115648Y21823D01*
X115048D02*X115648D01*
X115048D02*X114648Y22023D01*
X114248Y22423D01*
X118048Y24623D02*X119248Y21823D01*
X120448Y24623D02*X119248Y21823D01*
X118848Y21023D01*
X118448Y20623D01*
X118048Y20423D01*
X117848D02*X118048D01*
X121648Y24623D02*Y21823D01*
Y23423D02*X121848Y24023D01*
X122248Y24423D01*
X122648Y24623D01*
X123248D01*
X124448Y26023D02*X124648Y25823D01*
X124848Y26023D01*
X124648Y26223D01*
X124448Y26023D01*
X124648Y24623D02*Y21823D01*
X128448Y24623D02*Y21423D01*
X128248Y20823D01*
X128048Y20623D01*
X127648Y20423D01*
X127048D02*X127648D01*
X127048D02*X126648Y20623D01*
X128448Y24023D02*X128048Y24423D01*
X127648Y24623D01*
X127048D02*X127648D01*
X127048D02*X126648Y24423D01*
X126248Y24023D01*
X126048Y23423D01*
Y23023D01*
X126248Y22423D01*
X126648Y22023D01*
X127048Y21823D01*
X127648D01*
X128048Y22023D01*
X128448Y22423D01*
X129648Y26023D02*Y21823D01*
Y23823D02*X130248Y24423D01*
X130648Y24623D01*
X131248D01*
X131648Y24423D01*
X131848Y23823D01*
Y21823D01*
X133648Y26023D02*Y22623D01*
X133848Y22023D01*
X134248Y21823D01*
X134648D01*
X133048Y24623D02*X134448D01*
X138448Y26823D02*X138048Y26423D01*
X137648Y25823D01*
X137248Y25023D01*
X137048Y24023D01*
Y23223D01*
X137248Y22223D01*
X137648Y21423D01*
X138048Y20823D01*
X138448Y20423D01*
X142648Y25023D02*X142448Y25423D01*
X142048Y25823D01*
X141648Y26023D01*
X140848D02*X141648D01*
X140848D02*X140448Y25823D01*
X140048Y25423D01*
X139848Y25023D01*
X139648Y24423D01*
Y23423D01*
X139848Y22823D01*
X140048Y22423D01*
X140448Y22023D01*
X140848Y21823D01*
X141648D01*
X142048Y22023D01*
X142448Y22423D01*
X142648Y22823D01*
X143848Y26823D02*X144248Y26423D01*
X144648Y25823D01*
X145048Y25023D01*
X145248Y24023D01*
Y23223D01*
X145048Y22223D01*
X144648Y21423D01*
X144248Y20823D01*
X143848Y20423D01*
X147848Y25223D02*Y25023D01*
Y25223D02*X148048Y25623D01*
X148248Y25823D01*
X148648Y26023D01*
X149448D01*
X149848Y25823D01*
X150048Y25623D01*
X150248Y25223D01*
Y24823D01*
X150048Y24423D01*
X149648Y23823D01*
X147648Y21823D01*
X150448D01*
X152848Y26023D02*X152248Y25823D01*
X151848Y25223D01*
X151648Y24223D01*
Y23623D01*
X151848Y22623D01*
X152248Y22023D01*
X152848Y21823D01*
X153248D01*
X153848Y22023D01*
X154248Y22623D01*
X154448Y23623D01*
Y24223D02*Y23623D01*
Y24223D02*X154248Y25223D01*
X153848Y25823D01*
X153248Y26023D01*
X152848D02*X153248D01*
X155648Y25223D02*X156048Y25423D01*
X156648Y26023D01*
Y21823D01*
X158848Y26023D02*X158248Y25823D01*
X158048Y25423D01*
Y25023D01*
X158248Y24623D01*
X158648Y24423D01*
X159448Y24223D01*
X160048Y24023D01*
X160448Y23623D01*
X160648Y23223D01*
Y22623D01*
X160448Y22223D01*
X160248Y22023D01*
X159648Y21823D01*
X158848D02*X159648D01*
X158848D02*X158248Y22023D01*
X158048Y22223D01*
X157848Y22623D01*
Y23223D02*Y22623D01*
Y23223D02*X158048Y23623D01*
X158448Y24023D01*
X159048Y24223D01*
X159848Y24423D01*
X160248Y24623D01*
X160448Y25023D01*
Y25423D02*Y25023D01*
Y25423D02*X160248Y25823D01*
X159648Y26023D01*
X158848D02*X159648D01*
X163048D02*Y21823D01*
Y26023D02*X164848D01*
X165448Y25823D01*
X165648Y25623D01*
X165848Y25223D01*
Y24823D01*
X165648Y24423D01*
X165448Y24223D01*
X164848Y24023D01*
X163048D02*X164848D01*
X165448Y23823D01*
X165648Y23623D01*
X165848Y23223D01*
Y22623D01*
X165648Y22223D01*
X165448Y22023D01*
X164848Y21823D01*
X163048D02*X164848D01*
X167048Y23423D02*X169448D01*
Y23823D02*Y23423D01*
Y23823D02*X169248Y24223D01*
X169048Y24423D01*
X168648Y24623D01*
X168048D02*X168648D01*
X168048D02*X167648Y24423D01*
X167248Y24023D01*
X167048Y23423D01*
Y23023D01*
X167248Y22423D01*
X167648Y22023D01*
X168048Y21823D01*
X168648D01*
X169048Y22023D01*
X169448Y22423D01*
X170648Y24623D02*Y21823D01*
Y23423D02*X170848Y24023D01*
X171248Y24423D01*
X171648Y24623D01*
X172248D01*
X174048Y26023D02*Y22623D01*
X174248Y22023D01*
X174648Y21823D01*
X175048D01*
X173448Y24623D02*X174848D01*
X178848Y26023D02*Y21823D01*
X177448Y26023D02*X180248D01*
X181448D02*X181648Y25823D01*
X181848Y26023D01*
X181648Y26223D01*
X181448Y26023D01*
X181648Y24623D02*Y21823D01*
X183048Y24623D02*Y21823D01*
Y23823D02*X183648Y24423D01*
X184048Y24623D01*
X184648D01*
X185048Y24423D01*
X185248Y23823D01*
Y21823D01*
Y23823D02*X185848Y24423D01*
X186248Y24623D01*
X186848D01*
X187248Y24423D01*
X187448Y23823D01*
Y21823D01*
X188648Y24623D02*Y21823D01*
Y23823D02*X189248Y24423D01*
X189648Y24623D01*
X190248D01*
X190648Y24423D01*
X190848Y23823D01*
Y21823D01*
Y23823D02*X191448Y24423D01*
X191848Y24623D01*
X192448D01*
X192848Y24423D01*
X193048Y23823D01*
Y21823D01*
X194248Y23423D02*X196648D01*
Y23823D02*Y23423D01*
Y23823D02*X196448Y24223D01*
X196248Y24423D01*
X195848Y24623D01*
X195248D02*X195848D01*
X195248D02*X194848Y24423D01*
X194448Y24023D01*
X194248Y23423D01*
Y23023D01*
X194448Y22423D01*
X194848Y22023D01*
X195248Y21823D01*
X195848D01*
X196248Y22023D01*
X196648Y22423D01*
X197848Y24623D02*Y21823D01*
Y23423D02*X198048Y24023D01*
X198448Y24423D01*
X198848Y24623D01*
X199448D01*
X200648D02*Y21823D01*
Y23823D02*X201248Y24423D01*
X201648Y24623D01*
X202248D01*
X202648Y24423D01*
X202848Y23823D01*
Y21823D01*
Y23823D02*X203448Y24423D01*
X203848Y24623D01*
X204448D01*
X204848Y24423D01*
X205048Y23823D01*
Y21823D01*
X208648Y24623D02*Y21823D01*
Y24023D02*X208248Y24423D01*
X207848Y24623D01*
X207248D02*X207848D01*
X207248D02*X206848Y24423D01*
X206448Y24023D01*
X206248Y23423D01*
Y23023D01*
X206448Y22423D01*
X206848Y22023D01*
X207248Y21823D01*
X207848D01*
X208248Y22023D01*
X208648Y22423D01*
X209848Y24623D02*Y21823D01*
Y23823D02*X210448Y24423D01*
X210848Y24623D01*
X211448D01*
X211848Y24423D01*
X212048Y23823D01*
Y21823D01*
X106448Y32723D02*Y32523D01*
Y32723D02*X106648Y33123D01*
X106848Y33323D01*
X107248Y33523D01*
X108048D01*
X108448Y33323D01*
X108648Y33123D01*
X108848Y32723D01*
Y32323D01*
X108648Y31923D01*
X108248Y31323D01*
X106248Y29323D01*
X109048D01*
X112648Y32923D02*X112448Y33323D01*
X111848Y33523D01*
X111448D02*X111848D01*
X111448D02*X110848Y33323D01*
X110448Y32723D01*
X110248Y31723D01*
Y30723D01*
X110448Y29923D01*
X110848Y29523D01*
X111448Y29323D01*
X111648D01*
X112248Y29523D01*
X112648Y29923D01*
X112848Y30523D01*
Y30723D02*Y30523D01*
Y30723D02*X112648Y31323D01*
X112248Y31723D01*
X111648Y31923D01*
X111448D02*X111648D01*
X111448D02*X110848Y31723D01*
X110448Y31323D01*
X110248Y30723D01*
X114248Y29723D02*X114048Y29523D01*
X114248Y29323D01*
X114448Y29523D01*
X114248Y29723D01*
X118248Y32123D02*X118048Y31523D01*
X117648Y31123D01*
X117048Y30923D01*
X116848D02*X117048D01*
X116848D02*X116248Y31123D01*
X115848Y31523D01*
X115648Y32123D01*
Y32323D02*Y32123D01*
Y32323D02*X115848Y32923D01*
X116248Y33323D01*
X116848Y33523D01*
X117048D01*
X117648Y33323D01*
X118048Y32923D01*
X118248Y32123D01*
Y31123D01*
X118048Y30123D01*
X117648Y29523D01*
X117048Y29323D01*
X116648D02*X117048D01*
X116648D02*X116048Y29523D01*
X115848Y29923D01*
X122048Y32123D02*X121848Y31523D01*
X121448Y31123D01*
X120848Y30923D01*
X120648D02*X120848D01*
X120648D02*X120048Y31123D01*
X119648Y31523D01*
X119448Y32123D01*
Y32323D02*Y32123D01*
Y32323D02*X119648Y32923D01*
X120048Y33323D01*
X120648Y33523D01*
X120848D01*
X121448Y33323D01*
X121848Y32923D01*
X122048Y32123D01*
Y31123D01*
X121848Y30123D01*
X121448Y29523D01*
X120848Y29323D01*
X120448D02*X120848D01*
X120448D02*X119848Y29523D01*
X119648Y29923D01*
X125848Y32123D02*X125648Y31523D01*
X125248Y31123D01*
X124648Y30923D01*
X124448D02*X124648D01*
X124448D02*X123848Y31123D01*
X123448Y31523D01*
X123248Y32123D01*
Y32323D02*Y32123D01*
Y32323D02*X123448Y32923D01*
X123848Y33323D01*
X124448Y33523D01*
X124648D01*
X125248Y33323D01*
X125648Y32923D01*
X125848Y32123D01*
Y31123D01*
X125648Y30123D01*
X125248Y29523D01*
X124648Y29323D01*
X124248D02*X124648D01*
X124248D02*X123648Y29523D01*
X123448Y29923D01*
X127248Y29723D02*X127048Y29523D01*
X127248Y29323D01*
X127448Y29523D01*
X127248Y29723D01*
X129848Y33523D02*X129248Y33323D01*
X128848Y32723D01*
X128648Y31723D01*
Y31123D01*
X128848Y30123D01*
X129248Y29523D01*
X129848Y29323D01*
X130248D01*
X130848Y29523D01*
X131248Y30123D01*
X131448Y31123D01*
Y31723D02*Y31123D01*
Y31723D02*X131248Y32723D01*
X130848Y33323D01*
X130248Y33523D01*
X129848D02*X130248D01*
X132648Y32723D02*X133048Y32923D01*
X133648Y33523D01*
Y29323D01*
X135048Y29723D02*X134848Y29523D01*
X135048Y29323D01*
X135248Y29523D01*
X135048Y29723D01*
X137648Y33523D02*X137048Y33323D01*
X136648Y32723D01*
X136448Y31723D01*
Y31123D01*
X136648Y30123D01*
X137048Y29523D01*
X137648Y29323D01*
X138048D01*
X138648Y29523D01*
X139048Y30123D01*
X139248Y31123D01*
Y31723D02*Y31123D01*
Y31723D02*X139048Y32723D01*
X138648Y33323D01*
X138048Y33523D01*
X137648D02*X138048D01*
X140448Y32723D02*X140848Y32923D01*
X141448Y33523D01*
Y29323D01*
X142848Y29723D02*X142648Y29523D01*
X142848Y29323D01*
X143048Y29523D01*
X142848Y29723D01*
X145448Y33523D02*X144848Y33323D01*
X144448Y32723D01*
X144248Y31723D01*
Y31123D01*
X144448Y30123D01*
X144848Y29523D01*
X145448Y29323D01*
X145848D01*
X146448Y29523D01*
X146848Y30123D01*
X147048Y31123D01*
Y31723D02*Y31123D01*
Y31723D02*X146848Y32723D01*
X146448Y33323D01*
X145848Y33523D01*
X145448D02*X145848D01*
X148248Y32723D02*X148648Y32923D01*
X149248Y33523D01*
Y29323D01*
G54D26*X35000Y14055D02*X45000D01*
X35000Y24055D02*X45000D01*
Y54055D02*Y14055D01*
X35000Y54055D02*Y14055D01*
Y54055D02*X45000D01*
X5000D02*X15000D01*
X5000Y44055D02*X15000D01*
X5000Y54055D02*Y14055D01*
X15000Y54055D02*Y14055D01*
X5000D02*X15000D01*
G54D25*X39000Y9755D02*Y6555D01*
X38800Y5955D01*
X38600Y5755D01*
X38200Y5555D01*
X37800D02*X38200D01*
X37800D02*X37400Y5755D01*
X37200Y5955D01*
X37000Y6555D01*
Y6955D02*Y6555D01*
X40400Y8955D02*Y8755D01*
Y8955D02*X40600Y9355D01*
X40800Y9555D01*
X41200Y9755D01*
X42000D01*
X42400Y9555D01*
X42600Y9355D01*
X42800Y8955D01*
Y8555D01*
X42600Y8155D01*
X42200Y7555D01*
X40200Y5555D01*
X43000D01*
X9500Y9755D02*Y6555D01*
X9300Y5955D01*
X9100Y5755D01*
X8700Y5555D01*
X8300D02*X8700D01*
X8300D02*X7900Y5755D01*
X7700Y5955D01*
X7500Y6555D01*
Y6955D02*Y6555D01*
X10700Y8955D02*X11100Y9155D01*
X11700Y9755D01*
Y5555D01*
M02*
