G04 start of page 11 for group -3984 idx -3984 *
G04 Title: 26.999.01.01.01.pcb, fab *
G04 Creator: pcb 4.2.2 *
G04 CreationDate: Sat Feb 13 13:51:24 2021 UTC *
G04 For: bert *
G04 Format: Gerber/RS-274X *
G04 PCB-Dimensions (mil): 2165.35 590.55 *
G04 PCB-Coordinate-Origin: lower left *
%MOIN*%
%FSLAX25Y25*%
%LNFAB*%
%ADD34C,0.0100*%
%ADD33C,0.0060*%
%ADD32C,0.0001*%
%ADD31R,0.0080X0.0080*%
G54D31*X40000Y19055D02*Y17455D01*
G54D32*G36*
X39454Y19202D02*X41533Y20401D01*
X41933Y19709D01*
X39853Y18509D01*
X39454Y19202D01*
G37*
G36*
X40147Y18509D02*X38067Y19709D01*
X38467Y20401D01*
X40546Y19202D01*
X40147Y18509D01*
G37*
G54D31*X40000Y29055D02*Y27455D01*
G54D32*G36*
X39454Y29202D02*X41533Y30401D01*
X41933Y29709D01*
X39853Y28509D01*
X39454Y29202D01*
G37*
G36*
X40147Y28509D02*X38067Y29709D01*
X38467Y30401D01*
X40546Y29202D01*
X40147Y28509D01*
G37*
G54D31*X40000Y39055D02*Y37455D01*
G54D32*G36*
X39454Y39202D02*X41533Y40401D01*
X41933Y39709D01*
X39853Y38509D01*
X39454Y39202D01*
G37*
G36*
X40147Y38509D02*X38067Y39709D01*
X38467Y40401D01*
X40546Y39202D01*
X40147Y38509D01*
G37*
G54D31*X40000Y49055D02*Y47455D01*
G54D32*G36*
X39454Y49202D02*X41533Y50401D01*
X41933Y49709D01*
X39853Y48509D01*
X39454Y49202D01*
G37*
G36*
X40147Y48509D02*X38067Y49709D01*
X38467Y50401D01*
X40546Y49202D01*
X40147Y48509D01*
G37*
G54D31*X10000Y49055D02*Y47455D01*
G54D32*G36*
X9454Y49202D02*X11533Y50401D01*
X11933Y49709D01*
X9853Y48509D01*
X9454Y49202D01*
G37*
G36*
X10147Y48509D02*X8067Y49709D01*
X8467Y50401D01*
X10546Y49202D01*
X10147Y48509D01*
G37*
G54D31*X10000Y39055D02*Y37455D01*
G54D32*G36*
X9454Y39202D02*X11533Y40401D01*
X11933Y39709D01*
X9853Y38509D01*
X9454Y39202D01*
G37*
G36*
X10147Y38509D02*X8067Y39709D01*
X8467Y40401D01*
X10546Y39202D01*
X10147Y38509D01*
G37*
G54D31*X10000Y29055D02*Y27455D01*
G54D32*G36*
X9454Y29202D02*X11533Y30401D01*
X11933Y29709D01*
X9853Y28509D01*
X9454Y29202D01*
G37*
G36*
X10147Y28509D02*X8067Y29709D01*
X8467Y30401D01*
X10546Y29202D01*
X10147Y28509D01*
G37*
G54D31*X10000Y19055D02*Y17455D01*
G54D32*G36*
X9454Y19202D02*X11533Y20401D01*
X11933Y19709D01*
X9853Y18509D01*
X9454Y19202D01*
G37*
G36*
X10147Y18509D02*X8067Y19709D01*
X8467Y20401D01*
X10546Y19202D01*
X10147Y18509D01*
G37*
G54D31*X15000Y115305D02*Y113705D01*
G54D32*G36*
X14454Y115452D02*X16533Y116651D01*
X16933Y115959D01*
X14853Y114759D01*
X14454Y115452D01*
G37*
G36*
X15147Y114759D02*X13067Y115959D01*
X13467Y116651D01*
X15546Y115452D01*
X15147Y114759D01*
G37*
G54D33*X135000Y117855D02*X137400Y114855D01*
Y111555D01*
X139800Y117855D02*X137400Y114855D01*
X141600Y117855D02*Y111555D01*
Y117855D02*X145500D01*
X141600Y114855D02*X144000D01*
X141600Y111555D02*X145500D01*
X151500Y116955D02*X150900Y117555D01*
X150000Y117855D01*
X148800D02*X150000D01*
X148800D02*X147900Y117555D01*
X147300Y116955D01*
Y116355D01*
X147600Y115755D01*
X147900Y115455D01*
X148500Y115155D01*
X150300Y114555D01*
X150900Y114255D01*
X151200Y113955D01*
X151500Y113355D01*
Y112455D01*
X150900Y111855D01*
X150000Y111555D01*
X148800D02*X150000D01*
X148800D02*X147900Y111855D01*
X147300Y112455D01*
X99500Y117855D02*X98600Y117555D01*
X98300Y116955D01*
Y116355D01*
X98600Y115755D01*
X99200Y115455D01*
X100400Y115155D01*
X101300Y114855D01*
X101900Y114255D01*
X102200Y113655D01*
Y112755D01*
X101900Y112155D01*
X101600Y111855D01*
X100700Y111555D01*
X99500D02*X100700D01*
X99500D02*X98600Y111855D01*
X98300Y112155D01*
X98000Y112755D01*
Y113655D02*Y112755D01*
Y113655D02*X98300Y114255D01*
X98900Y114855D01*
X99800Y115155D01*
X101000Y115455D01*
X101600Y115755D01*
X101900Y116355D01*
Y116955D02*Y116355D01*
Y116955D02*X101600Y117555D01*
X100700Y117855D01*
X99500D02*X100700D01*
X46800D02*X45900Y117555D01*
X45300Y116655D01*
X45000Y115155D01*
Y114255D01*
X45300Y112755D01*
X45900Y111855D01*
X46800Y111555D01*
X47400D01*
X48300Y111855D01*
X48900Y112755D01*
X49200Y114255D01*
Y115155D02*Y114255D01*
Y115155D02*X48900Y116655D01*
X48300Y117555D01*
X47400Y117855D01*
X46800D02*X47400D01*
X51300Y112155D02*X51000Y111855D01*
X51300Y111555D01*
X51600Y111855D01*
X51300Y112155D01*
X55200Y117855D02*X54300Y117555D01*
X53700Y116655D01*
X53400Y115155D01*
Y114255D01*
X53700Y112755D01*
X54300Y111855D01*
X55200Y111555D01*
X55800D01*
X56700Y111855D01*
X57300Y112755D01*
X57600Y114255D01*
Y115155D02*Y114255D01*
Y115155D02*X57300Y116655D01*
X56700Y117555D01*
X55800Y117855D01*
X55200D02*X55800D01*
X62400D02*X59400Y113655D01*
X63900D01*
X62400Y117855D02*Y111555D01*
X66000Y116655D02*Y116355D01*
Y116655D02*X66300Y117255D01*
X66600Y117555D01*
X67200Y117855D01*
X68400D01*
X69000Y117555D01*
X69300Y117255D01*
X69600Y116655D01*
Y116055D01*
X69300Y115455D01*
X68700Y114555D01*
X65700Y111555D01*
X69900D01*
X4200Y131955D02*X3600Y132555D01*
X2700Y132855D01*
X1500D02*X2700D01*
X1500D02*X600Y132555D01*
X0Y131955D01*
Y131355D01*
X300Y130755D01*
X600Y130455D01*
X1200Y130155D01*
X3000Y129555D01*
X3600Y129255D01*
X3900Y128955D01*
X4200Y128355D01*
Y127455D01*
X3600Y126855D01*
X2700Y126555D01*
X1500D02*X2700D01*
X1500D02*X600Y126855D01*
X0Y127455D01*
X6300Y130755D02*X8100Y126555D01*
X9900Y130755D02*X8100Y126555D01*
X7500Y125355D01*
X6900Y124755D01*
X6300Y124455D01*
X6000D02*X6300D01*
X11700Y130755D02*Y126555D01*
Y129555D02*X12600Y130455D01*
X13200Y130755D01*
X14100D01*
X14700Y130455D01*
X15000Y129555D01*
Y126555D01*
Y129555D02*X15900Y130455D01*
X16500Y130755D01*
X17400D01*
X18000Y130455D01*
X18300Y129555D01*
Y126555D01*
X20100Y132855D02*Y126555D01*
Y129855D02*X20700Y130455D01*
X21300Y130755D01*
X22200D01*
X22800Y130455D01*
X23400Y129855D01*
X23700Y128955D01*
Y128355D01*
X23400Y127455D01*
X22800Y126855D01*
X22200Y126555D01*
X21300D02*X22200D01*
X21300D02*X20700Y126855D01*
X20100Y127455D01*
X27000Y130755D02*X26400Y130455D01*
X25800Y129855D01*
X25500Y128955D01*
Y128355D01*
X25800Y127455D01*
X26400Y126855D01*
X27000Y126555D01*
X27900D01*
X28500Y126855D01*
X29100Y127455D01*
X29400Y128355D01*
Y128955D02*Y128355D01*
Y128955D02*X29100Y129855D01*
X28500Y130455D01*
X27900Y130755D01*
X27000D02*X27900D01*
X31200Y132855D02*Y126555D01*
X0Y123455D02*X33000D01*
X41000Y132855D02*Y126555D01*
Y132855D02*X43100D01*
X44000Y132555D01*
X44600Y131955D01*
X44900Y131355D01*
X45200Y130455D01*
Y128955D01*
X44900Y128055D01*
X44600Y127455D01*
X44000Y126855D01*
X43100Y126555D01*
X41000D02*X43100D01*
X47000Y132855D02*X47300Y132555D01*
X47600Y132855D01*
X47300Y133155D01*
X47000Y132855D01*
X47300Y130755D02*Y126555D01*
X53000Y130755D02*Y126555D01*
Y129855D02*X52400Y130455D01*
X51800Y130755D01*
X50900D02*X51800D01*
X50900D02*X50300Y130455D01*
X49700Y129855D01*
X49400Y128955D01*
Y128355D01*
X49700Y127455D01*
X50300Y126855D01*
X50900Y126555D01*
X51800D01*
X52400Y126855D01*
X53000Y127455D01*
X54800Y130755D02*Y126555D01*
Y129555D02*X55700Y130455D01*
X56300Y130755D01*
X57200D01*
X57800Y130455D01*
X58100Y129555D01*
Y126555D01*
Y129555D02*X59000Y130455D01*
X59600Y130755D01*
X60500D01*
X61100Y130455D01*
X61400Y129555D01*
Y126555D01*
X63500Y127155D02*X63200Y126855D01*
X63500Y126555D01*
X63800Y126855D01*
X63500Y127155D01*
X69500Y134055D02*X68900Y133455D01*
X68300Y132555D01*
X67700Y131355D01*
X67400Y129855D01*
Y128655D01*
X67700Y127155D01*
X68300Y125955D01*
X68900Y125055D01*
X69500Y124455D01*
X71300Y132855D02*Y126555D01*
X73100Y130755D02*Y126555D01*
Y129555D02*X74000Y130455D01*
X74600Y130755D01*
X75500D01*
X76100Y130455D01*
X76400Y129555D01*
Y126555D01*
X81800Y129855D02*X81200Y130455D01*
X80600Y130755D01*
X79700D02*X80600D01*
X79700D02*X79100Y130455D01*
X78500Y129855D01*
X78200Y128955D01*
Y128355D01*
X78500Y127455D01*
X79100Y126855D01*
X79700Y126555D01*
X80600D01*
X81200Y126855D01*
X81800Y127455D01*
X83600Y132855D02*Y126555D01*
Y129555D02*X84500Y130455D01*
X85100Y130755D01*
X86000D01*
X86600Y130455D01*
X86900Y129555D01*
Y126555D01*
X88700Y134055D02*X89300Y133455D01*
X89900Y132555D01*
X90500Y131355D01*
X90800Y129855D01*
Y128655D01*
X90500Y127155D01*
X89900Y125955D01*
X89300Y125055D01*
X88700Y124455D01*
X41000Y123455D02*X92600D01*
X99500Y131355D02*X99200Y131955D01*
X98600Y132555D01*
X98000Y132855D01*
X96800D02*X98000D01*
X96800D02*X96200Y132555D01*
X95600Y131955D01*
X95300Y131355D01*
X95000Y130455D01*
Y128955D01*
X95300Y128055D01*
X95600Y127455D01*
X96200Y126855D01*
X96800Y126555D01*
X98000D01*
X98600Y126855D01*
X99200Y127455D01*
X99500Y128055D01*
X102800Y130755D02*X102200Y130455D01*
X101600Y129855D01*
X101300Y128955D01*
Y128355D01*
X101600Y127455D01*
X102200Y126855D01*
X102800Y126555D01*
X103700D01*
X104300Y126855D01*
X104900Y127455D01*
X105200Y128355D01*
Y128955D02*Y128355D01*
Y128955D02*X104900Y129855D01*
X104300Y130455D01*
X103700Y130755D01*
X102800D02*X103700D01*
X107000D02*Y127755D01*
X107300Y126855D01*
X107900Y126555D01*
X108800D01*
X109400Y126855D01*
X110300Y127755D01*
Y130755D02*Y126555D01*
X112100Y130755D02*Y126555D01*
Y129555D02*X113000Y130455D01*
X113600Y130755D01*
X114500D01*
X115100Y130455D01*
X115400Y129555D01*
Y126555D01*
X118100Y132855D02*Y127755D01*
X118400Y126855D01*
X119000Y126555D01*
X119600D01*
X117200Y130755D02*X119300D01*
X95000Y123455D02*X121400D01*
X130000Y132855D02*Y126555D01*
Y132855D02*X132700D01*
X133600Y132555D01*
X133900Y132255D01*
X134200Y131655D01*
Y130755D01*
X133900Y130155D01*
X133600Y129855D01*
X132700Y129555D01*
X130000D02*X132700D01*
X136000Y132855D02*Y126555D01*
X141400Y130755D02*Y126555D01*
Y129855D02*X140800Y130455D01*
X140200Y130755D01*
X139300D02*X140200D01*
X139300D02*X138700Y130455D01*
X138100Y129855D01*
X137800Y128955D01*
Y128355D01*
X138100Y127455D01*
X138700Y126855D01*
X139300Y126555D01*
X140200D01*
X140800Y126855D01*
X141400Y127455D01*
X144100Y132855D02*Y127755D01*
X144400Y126855D01*
X145000Y126555D01*
X145600D01*
X143200Y130755D02*X145300D01*
X147400Y128955D02*X151000D01*
Y129555D02*Y128955D01*
Y129555D02*X150700Y130155D01*
X150400Y130455D01*
X149800Y130755D01*
X148900D02*X149800D01*
X148900D02*X148300Y130455D01*
X147700Y129855D01*
X147400Y128955D01*
Y128355D01*
X147700Y127455D01*
X148300Y126855D01*
X148900Y126555D01*
X149800D01*
X150400Y126855D01*
X151000Y127455D01*
X156400Y132855D02*Y126555D01*
Y129855D02*X155800Y130455D01*
X155200Y130755D01*
X154300D02*X155200D01*
X154300D02*X153700Y130455D01*
X153100Y129855D01*
X152800Y128955D01*
Y128355D01*
X153100Y127455D01*
X153700Y126855D01*
X154300Y126555D01*
X155200D01*
X155800Y126855D01*
X156400Y127455D01*
X158200Y131655D02*Y131355D01*
Y131655D02*X158500Y132255D01*
X158800Y132555D01*
X159400Y132855D01*
X160600D01*
X161200Y132555D01*
X161500Y132255D01*
X161800Y131655D01*
Y131055D01*
X161500Y130455D01*
X161200Y130155D01*
X160000Y129555D01*
Y128655D01*
Y127155D02*X159700Y126855D01*
X160000Y126555D01*
X160300Y126855D01*
X160000Y127155D01*
X130000Y123455D02*X163600D01*
X2100Y147855D02*Y141555D01*
X0Y147855D02*X4200D01*
X6000D02*Y141555D01*
Y144555D02*X6900Y145455D01*
X7500Y145755D01*
X8400D01*
X9000Y145455D01*
X9300Y144555D01*
Y141555D01*
X11100Y143955D02*X14700D01*
Y144555D02*Y143955D01*
Y144555D02*X14400Y145155D01*
X14100Y145455D01*
X13500Y145755D01*
X12600D02*X13500D01*
X12600D02*X12000Y145455D01*
X11400Y144855D01*
X11100Y143955D01*
Y143355D01*
X11400Y142455D01*
X12000Y141855D01*
X12600Y141555D01*
X13500D01*
X14100Y141855D01*
X14700Y142455D01*
X16500Y145755D02*Y141555D01*
Y143955D02*X16800Y144855D01*
X17400Y145455D01*
X18000Y145755D01*
X18900D01*
X20700Y143955D02*X24300D01*
Y144555D02*Y143955D01*
Y144555D02*X24000Y145155D01*
X23700Y145455D01*
X23100Y145755D01*
X22200D02*X23100D01*
X22200D02*X21600Y145455D01*
X21000Y144855D01*
X20700Y143955D01*
Y143355D01*
X21000Y142455D01*
X21600Y141855D01*
X22200Y141555D01*
X23100D01*
X23700Y141855D01*
X24300Y142455D01*
X31500Y145755D02*Y141555D01*
Y144855D02*X30900Y145455D01*
X30300Y145755D01*
X29400D02*X30300D01*
X29400D02*X28800Y145455D01*
X28200Y144855D01*
X27900Y143955D01*
Y143355D01*
X28200Y142455D01*
X28800Y141855D01*
X29400Y141555D01*
X30300D01*
X30900Y141855D01*
X31500Y142455D01*
X33300Y145755D02*Y141555D01*
Y143955D02*X33600Y144855D01*
X34200Y145455D01*
X34800Y145755D01*
X35700D01*
X37500Y143955D02*X41100D01*
Y144555D02*Y143955D01*
Y144555D02*X40800Y145155D01*
X40500Y145455D01*
X39900Y145755D01*
X39000D02*X39900D01*
X39000D02*X38400Y145455D01*
X37800Y144855D01*
X37500Y143955D01*
Y143355D01*
X37800Y142455D01*
X38400Y141855D01*
X39000Y141555D01*
X39900D01*
X40500Y141855D01*
X41100Y142455D01*
X44700Y146655D02*X45300Y146955D01*
X46200Y147855D01*
Y141555D01*
X53400Y147855D02*Y141555D01*
Y144855D02*X52800Y145455D01*
X52200Y145755D01*
X51300D02*X52200D01*
X51300D02*X50700Y145455D01*
X50100Y144855D01*
X49800Y143955D01*
Y143355D01*
X50100Y142455D01*
X50700Y141855D01*
X51300Y141555D01*
X52200D01*
X52800Y141855D01*
X53400Y142455D01*
X55200Y147855D02*X55500Y147555D01*
X55800Y147855D01*
X55500Y148155D01*
X55200Y147855D01*
X55500Y145755D02*Y141555D01*
X59400Y147855D02*X60000D01*
X59400D02*X58800Y147555D01*
X58500Y146655D01*
Y141555D01*
X57600Y145755D02*X59700D01*
X63600Y147855D02*X64200D01*
X63600D02*X63000Y147555D01*
X62700Y146655D01*
Y141555D01*
X61800Y145755D02*X63900D01*
X66000Y143955D02*X69600D01*
Y144555D02*Y143955D01*
Y144555D02*X69300Y145155D01*
X69000Y145455D01*
X68400Y145755D01*
X67500D02*X68400D01*
X67500D02*X66900Y145455D01*
X66300Y144855D01*
X66000Y143955D01*
Y143355D01*
X66300Y142455D01*
X66900Y141855D01*
X67500Y141555D01*
X68400D01*
X69000Y141855D01*
X69600Y142455D01*
X71400Y145755D02*Y141555D01*
Y143955D02*X71700Y144855D01*
X72300Y145455D01*
X72900Y145755D01*
X73800D01*
X75600Y143955D02*X79200D01*
Y144555D02*Y143955D01*
Y144555D02*X78900Y145155D01*
X78600Y145455D01*
X78000Y145755D01*
X77100D02*X78000D01*
X77100D02*X76500Y145455D01*
X75900Y144855D01*
X75600Y143955D01*
Y143355D01*
X75900Y142455D01*
X76500Y141855D01*
X77100Y141555D01*
X78000D01*
X78600Y141855D01*
X79200Y142455D01*
X81000Y145755D02*Y141555D01*
Y144555D02*X81900Y145455D01*
X82500Y145755D01*
X83400D01*
X84000Y145455D01*
X84300Y144555D01*
Y141555D01*
X87000Y147855D02*Y142755D01*
X87300Y141855D01*
X87900Y141555D01*
X88500D01*
X86100Y145755D02*X88200D01*
X95700Y147855D02*Y141555D01*
Y144855D02*X95100Y145455D01*
X94500Y145755D01*
X93600D02*X94500D01*
X93600D02*X93000Y145455D01*
X92400Y144855D01*
X92100Y143955D01*
Y143355D01*
X92400Y142455D01*
X93000Y141855D01*
X93600Y141555D01*
X94500D01*
X95100Y141855D01*
X95700Y142455D01*
X97500Y145755D02*Y141555D01*
Y143955D02*X97800Y144855D01*
X98400Y145455D01*
X99000Y145755D01*
X99900D01*
X101700Y147855D02*X102000Y147555D01*
X102300Y147855D01*
X102000Y148155D01*
X101700Y147855D01*
X102000Y145755D02*Y141555D01*
X104100Y147855D02*Y141555D01*
X105900Y147855D02*Y141555D01*
X112800Y144855D02*X112500Y145455D01*
X111600Y145755D01*
X110700D02*X111600D01*
X110700D02*X109800Y145455D01*
X109500Y144855D01*
X109800Y144255D01*
X110400Y143955D01*
X111900Y143655D01*
X112500Y143355D01*
X112800Y142755D01*
Y142455D01*
X112500Y141855D01*
X111600Y141555D01*
X110700D02*X111600D01*
X110700D02*X109800Y141855D01*
X109500Y142455D01*
X114600Y147855D02*X114900Y147555D01*
X115200Y147855D01*
X114900Y148155D01*
X114600Y147855D01*
X114900Y145755D02*Y141555D01*
X120300Y145755D02*X117000Y141555D01*
Y145755D02*X120300D01*
X117000Y141555D02*X120300D01*
X122100Y143955D02*X125700D01*
Y144555D02*Y143955D01*
Y144555D02*X125400Y145155D01*
X125100Y145455D01*
X124500Y145755D01*
X123600D02*X124500D01*
X123600D02*X123000Y145455D01*
X122400Y144855D01*
X122100Y143955D01*
Y143355D01*
X122400Y142455D01*
X123000Y141855D01*
X123600Y141555D01*
X124500D01*
X125100Y141855D01*
X125700Y142455D01*
X130800Y144855D02*X130500Y145455D01*
X129600Y145755D01*
X128700D02*X129600D01*
X128700D02*X127800Y145455D01*
X127500Y144855D01*
X127800Y144255D01*
X128400Y143955D01*
X129900Y143655D01*
X130500Y143355D01*
X130800Y142755D01*
Y142455D01*
X130500Y141855D01*
X129600Y141555D01*
X128700D02*X129600D01*
X128700D02*X127800Y141855D01*
X127500Y142455D01*
X134400Y145755D02*Y142755D01*
X134700Y141855D01*
X135300Y141555D01*
X136200D01*
X136800Y141855D01*
X137700Y142755D01*
Y145755D02*Y141555D01*
X142800Y144855D02*X142500Y145455D01*
X141600Y145755D01*
X140700D02*X141600D01*
X140700D02*X139800Y145455D01*
X139500Y144855D01*
X139800Y144255D01*
X140400Y143955D01*
X141900Y143655D01*
X142500Y143355D01*
X142800Y142755D01*
Y142455D01*
X142500Y141855D01*
X141600Y141555D01*
X140700D02*X141600D01*
X140700D02*X139800Y141855D01*
X139500Y142455D01*
X144600Y143955D02*X148200D01*
Y144555D02*Y143955D01*
Y144555D02*X147900Y145155D01*
X147600Y145455D01*
X147000Y145755D01*
X146100D02*X147000D01*
X146100D02*X145500Y145455D01*
X144900Y144855D01*
X144600Y143955D01*
Y143355D01*
X144900Y142455D01*
X145500Y141855D01*
X146100Y141555D01*
X147000D01*
X147600Y141855D01*
X148200Y142455D01*
X153600Y147855D02*Y141555D01*
Y144855D02*X153000Y145455D01*
X152400Y145755D01*
X151500D02*X152400D01*
X151500D02*X150900Y145455D01*
X150300Y144855D01*
X150000Y143955D01*
Y143355D01*
X150300Y142455D01*
X150900Y141855D01*
X151500Y141555D01*
X152400D01*
X153000Y141855D01*
X153600Y142455D01*
X157200Y147855D02*X157500Y147555D01*
X157800Y147855D01*
X157500Y148155D01*
X157200Y147855D01*
X157500Y145755D02*Y141555D01*
X159600Y145755D02*Y141555D01*
Y144555D02*X160500Y145455D01*
X161100Y145755D01*
X162000D01*
X162600Y145455D01*
X162900Y144555D01*
Y141555D01*
X167400Y147855D02*Y142755D01*
X167700Y141855D01*
X168300Y141555D01*
X168900D01*
X166500Y145755D02*X168600D01*
X170700Y147855D02*Y141555D01*
Y144555D02*X171600Y145455D01*
X172200Y145755D01*
X173100D01*
X173700Y145455D01*
X174000Y144555D01*
Y141555D01*
X175800Y147855D02*X176100Y147555D01*
X176400Y147855D01*
X176100Y148155D01*
X175800Y147855D01*
X176100Y145755D02*Y141555D01*
X181500Y144855D02*X181200Y145455D01*
X180300Y145755D01*
X179400D02*X180300D01*
X179400D02*X178500Y145455D01*
X178200Y144855D01*
X178500Y144255D01*
X179100Y143955D01*
X180600Y143655D01*
X181200Y143355D01*
X181500Y142755D01*
Y142455D01*
X181200Y141855D01*
X180300Y141555D01*
X179400D02*X180300D01*
X179400D02*X178500Y141855D01*
X178200Y142455D01*
X185100Y147855D02*Y141555D01*
X190500Y145755D02*Y141555D01*
Y144855D02*X189900Y145455D01*
X189300Y145755D01*
X188400D02*X189300D01*
X188400D02*X187800Y145455D01*
X187200Y144855D01*
X186900Y143955D01*
Y143355D01*
X187200Y142455D01*
X187800Y141855D01*
X188400Y141555D01*
X189300D01*
X189900Y141855D01*
X190500Y142455D01*
X192600Y145755D02*X194400Y141555D01*
X196200Y145755D02*X194400Y141555D01*
X193800Y140355D01*
X193200Y139755D01*
X192600Y139455D01*
X192300D02*X192600D01*
X199500Y145755D02*X198900Y145455D01*
X198300Y144855D01*
X198000Y143955D01*
Y143355D01*
X198300Y142455D01*
X198900Y141855D01*
X199500Y141555D01*
X200400D01*
X201000Y141855D01*
X201600Y142455D01*
X201900Y143355D01*
Y143955D02*Y143355D01*
Y143955D02*X201600Y144855D01*
X201000Y145455D01*
X200400Y145755D01*
X199500D02*X200400D01*
X203700D02*Y142755D01*
X204000Y141855D01*
X204600Y141555D01*
X205500D01*
X206100Y141855D01*
X207000Y142755D01*
Y145755D02*Y141555D01*
X209700Y147855D02*Y142755D01*
X210000Y141855D01*
X210600Y141555D01*
X211200D01*
X208800Y145755D02*X210900D01*
X213600Y141855D02*X213300Y141555D01*
X213000Y141855D01*
X213300Y142155D01*
X213600Y141855D01*
Y141255D01*
X213300Y140655D01*
X213000Y140355D01*
X218700Y147855D02*X217800Y147555D01*
X217500Y146955D01*
Y146355D01*
X217800Y145755D01*
X218400Y145455D01*
X219600Y145155D01*
X220500Y144855D01*
X221100Y144255D01*
X221400Y143655D01*
Y142755D01*
X221100Y142155D01*
X220800Y141855D01*
X219900Y141555D01*
X218700D02*X219900D01*
X218700D02*X217800Y141855D01*
X217500Y142155D01*
X217200Y142755D01*
Y143655D02*Y142755D01*
Y143655D02*X217500Y144255D01*
X218100Y144855D01*
X219000Y145155D01*
X220200Y145455D01*
X220800Y145755D01*
X221100Y146355D01*
Y146955D02*Y146355D01*
Y146955D02*X220800Y147555D01*
X219900Y147855D01*
X218700D02*X219900D01*
X225000D02*Y141555D01*
Y144555D02*X225900Y145455D01*
X226500Y145755D01*
X227400D01*
X228000Y145455D01*
X228300Y144555D01*
Y141555D01*
X231600Y145755D02*X231000Y145455D01*
X230400Y144855D01*
X230100Y143955D01*
Y143355D01*
X230400Y142455D01*
X231000Y141855D01*
X231600Y141555D01*
X232500D01*
X233100Y141855D01*
X233700Y142455D01*
X234000Y143355D01*
Y143955D02*Y143355D01*
Y143955D02*X233700Y144855D01*
X233100Y145455D01*
X232500Y145755D01*
X231600D02*X232500D01*
X235800Y147855D02*Y141555D01*
X237600Y143955D02*X241200D01*
Y144555D02*Y143955D01*
Y144555D02*X240900Y145155D01*
X240600Y145455D01*
X240000Y145755D01*
X239100D02*X240000D01*
X239100D02*X238500Y145455D01*
X237900Y144855D01*
X237600Y143955D01*
Y143355D01*
X237900Y142455D01*
X238500Y141855D01*
X239100Y141555D01*
X240000D01*
X240600Y141855D01*
X241200Y142455D01*
X246300Y144855D02*X246000Y145455D01*
X245100Y145755D01*
X244200D02*X245100D01*
X244200D02*X243300Y145455D01*
X243000Y144855D01*
X243300Y144255D01*
X243900Y143955D01*
X245400Y143655D01*
X246000Y143355D01*
X246300Y142755D01*
Y142455D01*
X246000Y141855D01*
X245100Y141555D01*
X244200D02*X245100D01*
X244200D02*X243300Y141855D01*
X243000Y142455D01*
X250800Y147855D02*Y142755D01*
X251100Y141855D01*
X251700Y141555D01*
X252300D01*
X249900Y145755D02*X252000D01*
X255600D02*X255000Y145455D01*
X254400Y144855D01*
X254100Y143955D01*
Y143355D01*
X254400Y142455D01*
X255000Y141855D01*
X255600Y141555D01*
X256500D01*
X257100Y141855D01*
X257700Y142455D01*
X258000Y143355D01*
Y143955D02*Y143355D01*
Y143955D02*X257700Y144855D01*
X257100Y145455D01*
X256500Y145755D01*
X255600D02*X256500D01*
X260700Y147855D02*Y142755D01*
X261000Y141855D01*
X261600Y141555D01*
X262200D01*
X259800Y145755D02*X261900D01*
X267600D02*Y141555D01*
Y144855D02*X267000Y145455D01*
X266400Y145755D01*
X265500D02*X266400D01*
X265500D02*X264900Y145455D01*
X264300Y144855D01*
X264000Y143955D01*
Y143355D01*
X264300Y142455D01*
X264900Y141855D01*
X265500Y141555D01*
X266400D01*
X267000Y141855D01*
X267600Y142455D01*
X269400Y147855D02*Y141555D01*
G54D34*X5000Y54055D02*X45000D01*
Y14055D01*
X5000D01*
Y54055D01*
G54D33*X17068Y-3200D02*Y-9500D01*
Y-3200D02*X19768D01*
X20668Y-3500D01*
X20968Y-3800D01*
X21268Y-4400D01*
Y-5000D01*
X20968Y-5600D01*
X20668Y-5900D01*
X19768Y-6200D01*
X17068D02*X19768D01*
X20668Y-6500D01*
X20968Y-6800D01*
X21268Y-7400D01*
Y-8300D01*
X20968Y-8900D01*
X20668Y-9200D01*
X19768Y-9500D01*
X17068D02*X19768D01*
X24568Y-5300D02*X23968Y-5600D01*
X23368Y-6200D01*
X23068Y-7100D01*
Y-7700D01*
X23368Y-8600D01*
X23968Y-9200D01*
X24568Y-9500D01*
X25468D01*
X26068Y-9200D01*
X26668Y-8600D01*
X26968Y-7700D01*
Y-7100D02*Y-7700D01*
Y-7100D02*X26668Y-6200D01*
X26068Y-5600D01*
X25468Y-5300D01*
X24568D02*X25468D01*
X32368D02*Y-9500D01*
Y-6200D02*X31768Y-5600D01*
X31168Y-5300D01*
X30268D02*X31168D01*
X30268D02*X29668Y-5600D01*
X29068Y-6200D01*
X28768Y-7100D01*
Y-7700D01*
X29068Y-8600D01*
X29668Y-9200D01*
X30268Y-9500D01*
X31168D01*
X31768Y-9200D01*
X32368Y-8600D01*
X34168Y-5300D02*Y-9500D01*
Y-7100D02*X34468Y-6200D01*
X35068Y-5600D01*
X35668Y-5300D01*
X36568D01*
X41968Y-3200D02*Y-9500D01*
Y-6200D02*X41368Y-5600D01*
X40768Y-5300D01*
X39868D02*X40768D01*
X39868D02*X39268Y-5600D01*
X38668Y-6200D01*
X38368Y-7100D01*
Y-7700D01*
X38668Y-8600D01*
X39268Y-9200D01*
X39868Y-9500D01*
X40768D01*
X41368Y-9200D01*
X41968Y-8600D01*
X47068Y-5300D02*X46468Y-5600D01*
X45868Y-6200D01*
X45568Y-7100D01*
Y-7700D01*
X45868Y-8600D01*
X46468Y-9200D01*
X47068Y-9500D01*
X47968D01*
X48568Y-9200D01*
X49168Y-8600D01*
X49468Y-7700D01*
Y-7100D02*Y-7700D01*
Y-7100D02*X49168Y-6200D01*
X48568Y-5600D01*
X47968Y-5300D01*
X47068D02*X47968D01*
X51268D02*Y-8300D01*
X51568Y-9200D01*
X52168Y-9500D01*
X53068D01*
X53668Y-9200D01*
X54568Y-8300D01*
Y-5300D02*Y-9500D01*
X57268Y-3200D02*Y-8300D01*
X57568Y-9200D01*
X58168Y-9500D01*
X58768D01*
X56368Y-5300D02*X58468D01*
X60568Y-3200D02*Y-9500D01*
X62368Y-3200D02*X62668Y-3500D01*
X62968Y-3200D01*
X62668Y-2900D01*
X62368Y-3200D01*
X62668Y-5300D02*Y-9500D01*
X64768Y-5300D02*Y-9500D01*
Y-6500D02*X65668Y-5600D01*
X66268Y-5300D01*
X67168D01*
X67768Y-5600D01*
X68068Y-6500D01*
Y-9500D01*
X69868Y-7100D02*X73468D01*
Y-6500D02*Y-7100D01*
Y-6500D02*X73168Y-5900D01*
X72868Y-5600D01*
X72268Y-5300D01*
X71368D02*X72268D01*
X71368D02*X70768Y-5600D01*
X70168Y-6200D01*
X69868Y-7100D01*
Y-7700D01*
X70168Y-8600D01*
X70768Y-9200D01*
X71368Y-9500D01*
X72268D01*
X72868Y-9200D01*
X73468Y-8600D01*
X77068Y-3200D02*X77368Y-3500D01*
X77668Y-3200D01*
X77368Y-2900D01*
X77068Y-3200D01*
X77368Y-5300D02*Y-9500D01*
X82768Y-6200D02*X82468Y-5600D01*
X81568Y-5300D01*
X80668D02*X81568D01*
X80668D02*X79768Y-5600D01*
X79468Y-6200D01*
X79768Y-6800D01*
X80368Y-7100D01*
X81868Y-7400D01*
X82468Y-7700D01*
X82768Y-8300D01*
Y-8600D01*
X82468Y-9200D01*
X81568Y-9500D01*
X80668D02*X81568D01*
X80668D02*X79768Y-9200D01*
X79468Y-8600D01*
X87268Y-3200D02*Y-8300D01*
X87568Y-9200D01*
X88168Y-9500D01*
X88768D01*
X86368Y-5300D02*X88468D01*
X90568Y-3200D02*Y-9500D01*
Y-6500D02*X91468Y-5600D01*
X92068Y-5300D01*
X92968D01*
X93568Y-5600D01*
X93868Y-6500D01*
Y-9500D01*
X95668Y-7100D02*X99268D01*
Y-6500D02*Y-7100D01*
Y-6500D02*X98968Y-5900D01*
X98668Y-5600D01*
X98068Y-5300D01*
X97168D02*X98068D01*
X97168D02*X96568Y-5600D01*
X95968Y-6200D01*
X95668Y-7100D01*
Y-7700D01*
X95968Y-8600D01*
X96568Y-9200D01*
X97168Y-9500D01*
X98068D01*
X98668Y-9200D01*
X99268Y-8600D01*
X106468Y-6200D02*X105868Y-5600D01*
X105268Y-5300D01*
X104368D02*X105268D01*
X104368D02*X103768Y-5600D01*
X103168Y-6200D01*
X102868Y-7100D01*
Y-7700D01*
X103168Y-8600D01*
X103768Y-9200D01*
X104368Y-9500D01*
X105268D01*
X105868Y-9200D01*
X106468Y-8600D01*
X108268Y-7100D02*X111868D01*
Y-6500D02*Y-7100D01*
Y-6500D02*X111568Y-5900D01*
X111268Y-5600D01*
X110668Y-5300D01*
X109768D02*X110668D01*
X109768D02*X109168Y-5600D01*
X108568Y-6200D01*
X108268Y-7100D01*
Y-7700D01*
X108568Y-8600D01*
X109168Y-9200D01*
X109768Y-9500D01*
X110668D01*
X111268Y-9200D01*
X111868Y-8600D01*
X113668Y-5300D02*Y-9500D01*
Y-6500D02*X114568Y-5600D01*
X115168Y-5300D01*
X116068D01*
X116668Y-5600D01*
X116968Y-6500D01*
Y-9500D01*
X119668Y-3200D02*Y-8300D01*
X119968Y-9200D01*
X120568Y-9500D01*
X121168D01*
X118768Y-5300D02*X120868D01*
X122968Y-7100D02*X126568D01*
Y-6500D02*Y-7100D01*
Y-6500D02*X126268Y-5900D01*
X125968Y-5600D01*
X125368Y-5300D01*
X124468D02*X125368D01*
X124468D02*X123868Y-5600D01*
X123268Y-6200D01*
X122968Y-7100D01*
Y-7700D01*
X123268Y-8600D01*
X123868Y-9200D01*
X124468Y-9500D01*
X125368D01*
X125968Y-9200D01*
X126568Y-8600D01*
X128368Y-5300D02*Y-9500D01*
Y-7100D02*X128668Y-6200D01*
X129268Y-5600D01*
X129868Y-5300D01*
X130768D01*
X132568Y-3200D02*Y-9500D01*
X134368Y-3200D02*X134668Y-3500D01*
X134968Y-3200D01*
X134668Y-2900D01*
X134368Y-3200D01*
X134668Y-5300D02*Y-9500D01*
X136768Y-5300D02*Y-9500D01*
Y-6500D02*X137668Y-5600D01*
X138268Y-5300D01*
X139168D01*
X139768Y-5600D01*
X140068Y-6500D01*
Y-9500D01*
X141868Y-7100D02*X145468D01*
Y-6500D02*Y-7100D01*
Y-6500D02*X145168Y-5900D01*
X144868Y-5600D01*
X144268Y-5300D01*
X143368D02*X144268D01*
X143368D02*X142768Y-5600D01*
X142168Y-6200D01*
X141868Y-7100D01*
Y-7700D01*
X142168Y-8600D01*
X142768Y-9200D01*
X143368Y-9500D01*
X144268D01*
X144868Y-9200D01*
X145468Y-8600D01*
X150568Y-5300D02*X149968Y-5600D01*
X149368Y-6200D01*
X149068Y-7100D01*
Y-7700D01*
X149368Y-8600D01*
X149968Y-9200D01*
X150568Y-9500D01*
X151468D01*
X152068Y-9200D01*
X152668Y-8600D01*
X152968Y-7700D01*
Y-7100D02*Y-7700D01*
Y-7100D02*X152668Y-6200D01*
X152068Y-5600D01*
X151468Y-5300D01*
X150568D02*X151468D01*
X156568Y-3200D02*X157168D01*
X156568D02*X155968Y-3500D01*
X155668Y-4400D01*
Y-9500D01*
X154768Y-5300D02*X156868D01*
X161668Y-3200D02*Y-8300D01*
X161968Y-9200D01*
X162568Y-9500D01*
X163168D01*
X160768Y-5300D02*X162868D01*
X164968Y-3200D02*Y-9500D01*
Y-6500D02*X165868Y-5600D01*
X166468Y-5300D01*
X167368D01*
X167968Y-5600D01*
X168268Y-6500D01*
Y-9500D01*
X170068Y-3200D02*X170368Y-3500D01*
X170668Y-3200D01*
X170368Y-2900D01*
X170068Y-3200D01*
X170368Y-5300D02*Y-9500D01*
X175768Y-6200D02*X175468Y-5600D01*
X174568Y-5300D01*
X173668D02*X174568D01*
X173668D02*X172768Y-5600D01*
X172468Y-6200D01*
X172768Y-6800D01*
X173368Y-7100D01*
X174868Y-7400D01*
X175468Y-7700D01*
X175768Y-8300D01*
Y-8600D01*
X175468Y-9200D01*
X174568Y-9500D01*
X173668D02*X174568D01*
X173668D02*X172768Y-9200D01*
X172468Y-8600D01*
X179368Y-5300D02*Y-11600D01*
Y-6200D02*X179968Y-5600D01*
X180568Y-5300D01*
X181468D01*
X182068Y-5600D01*
X182668Y-6200D01*
X182968Y-7100D01*
Y-7700D01*
X182668Y-8600D01*
X182068Y-9200D01*
X181468Y-9500D01*
X180568D02*X181468D01*
X180568D02*X179968Y-9200D01*
X179368Y-8600D01*
X188368Y-5300D02*Y-9500D01*
Y-6200D02*X187768Y-5600D01*
X187168Y-5300D01*
X186268D02*X187168D01*
X186268D02*X185668Y-5600D01*
X185068Y-6200D01*
X184768Y-7100D01*
Y-7700D01*
X185068Y-8600D01*
X185668Y-9200D01*
X186268Y-9500D01*
X187168D01*
X187768Y-9200D01*
X188368Y-8600D01*
X191068Y-3200D02*Y-8300D01*
X191368Y-9200D01*
X191968Y-9500D01*
X192568D01*
X190168Y-5300D02*X192268D01*
X194368Y-3200D02*Y-9500D01*
Y-6500D02*X195268Y-5600D01*
X195868Y-5300D01*
X196768D01*
X197368Y-5600D01*
X197668Y-6500D01*
Y-9500D01*
X200000Y87855D02*Y81555D01*
Y87855D02*X202100D01*
X203000Y87555D01*
X203600Y86955D01*
X203900Y86355D01*
X204200Y85455D01*
Y83955D01*
X203900Y83055D01*
X203600Y82455D01*
X203000Y81855D01*
X202100Y81555D01*
X200000D02*X202100D01*
X209600Y85755D02*Y81555D01*
Y84855D02*X209000Y85455D01*
X208400Y85755D01*
X207500D02*X208400D01*
X207500D02*X206900Y85455D01*
X206300Y84855D01*
X206000Y83955D01*
Y83355D01*
X206300Y82455D01*
X206900Y81855D01*
X207500Y81555D01*
X208400D01*
X209000Y81855D01*
X209600Y82455D01*
X212300Y87855D02*Y82755D01*
X212600Y81855D01*
X213200Y81555D01*
X213800D01*
X211400Y85755D02*X213500D01*
X215600Y83955D02*X219200D01*
Y84555D02*Y83955D01*
Y84555D02*X218900Y85155D01*
X218600Y85455D01*
X218000Y85755D01*
X217100D02*X218000D01*
X217100D02*X216500Y85455D01*
X215900Y84855D01*
X215600Y83955D01*
Y83355D01*
X215900Y82455D01*
X216500Y81855D01*
X217100Y81555D01*
X218000D01*
X218600Y81855D01*
X219200Y82455D01*
X221300Y85755D02*X221000Y85455D01*
X221300Y85155D01*
X221600Y85455D01*
X221300Y85755D01*
Y82155D02*X221000Y81855D01*
X221300Y81555D01*
X221600Y81855D01*
X221300Y82155D01*
X229400Y86955D02*X228800Y87555D01*
X227900Y87855D01*
X226700D02*X227900D01*
X226700D02*X225800Y87555D01*
X225200Y86955D01*
Y86355D01*
X225500Y85755D01*
X225800Y85455D01*
X226400Y85155D01*
X228200Y84555D01*
X228800Y84255D01*
X229100Y83955D01*
X229400Y83355D01*
Y82455D01*
X228800Y81855D01*
X227900Y81555D01*
X226700D02*X227900D01*
X226700D02*X225800Y81855D01*
X225200Y82455D01*
X234800Y85755D02*Y81555D01*
Y84855D02*X234200Y85455D01*
X233600Y85755D01*
X232700D02*X233600D01*
X232700D02*X232100Y85455D01*
X231500Y84855D01*
X231200Y83955D01*
Y83355D01*
X231500Y82455D01*
X232100Y81855D01*
X232700Y81555D01*
X233600D01*
X234200Y81855D01*
X234800Y82455D01*
X237500Y87855D02*Y82755D01*
X237800Y81855D01*
X238400Y81555D01*
X239000D01*
X236600Y85755D02*X238700D01*
X242600Y87855D02*Y81555D01*
Y87855D02*X246500D01*
X242600Y84855D02*X245000D01*
X248300Y83955D02*X251900D01*
Y84555D02*Y83955D01*
Y84555D02*X251600Y85155D01*
X251300Y85455D01*
X250700Y85755D01*
X249800D02*X250700D01*
X249800D02*X249200Y85455D01*
X248600Y84855D01*
X248300Y83955D01*
Y83355D01*
X248600Y82455D01*
X249200Y81855D01*
X249800Y81555D01*
X250700D01*
X251300Y81855D01*
X251900Y82455D01*
X253700Y87855D02*Y81555D01*
Y84855D02*X254300Y85455D01*
X254900Y85755D01*
X255800D01*
X256400Y85455D01*
X257000Y84855D01*
X257300Y83955D01*
Y83355D01*
X257000Y82455D01*
X256400Y81855D01*
X255800Y81555D01*
X254900D02*X255800D01*
X254900D02*X254300Y81855D01*
X253700Y82455D01*
X260900Y86655D02*X261500Y86955D01*
X262400Y87855D01*
Y81555D01*
X264800Y87855D02*X268100D01*
X266300Y85455D01*
X267200D01*
X267800Y85155D01*
X268100Y84855D01*
X268400Y83955D01*
Y83355D01*
X268100Y82455D01*
X267500Y81855D01*
X266600Y81555D01*
X265700D02*X266600D01*
X265700D02*X264800Y81855D01*
X264500Y82155D01*
X264200Y82755D01*
X272000Y86655D02*X272600Y86955D01*
X273500Y87855D01*
Y81555D01*
X275900Y87855D02*X279200D01*
X277400Y85455D01*
X278300D01*
X278900Y85155D01*
X279200Y84855D01*
X279500Y83955D01*
Y83355D01*
X279200Y82455D01*
X278600Y81855D01*
X277700Y81555D01*
X276800D02*X277700D01*
X276800D02*X275900Y81855D01*
X275600Y82155D01*
X275300Y82755D01*
X281600Y85755D02*X281300Y85455D01*
X281600Y85155D01*
X281900Y85455D01*
X281600Y85755D01*
Y82155D02*X281300Y81855D01*
X281600Y81555D01*
X281900Y81855D01*
X281600Y82155D01*
X284300Y87855D02*X287300D01*
X284300D02*X284000Y85155D01*
X284300Y85455D01*
X285200Y85755D01*
X286100D01*
X287000Y85455D01*
X287600Y84855D01*
X287900Y83955D01*
Y83355D01*
X287600Y82455D01*
X287000Y81855D01*
X286100Y81555D01*
X285200D02*X286100D01*
X285200D02*X284300Y81855D01*
X284000Y82155D01*
X283700Y82755D01*
X289700Y86655D02*X290300Y86955D01*
X291200Y87855D01*
Y81555D01*
X293300Y85755D02*X293000Y85455D01*
X293300Y85155D01*
X293600Y85455D01*
X293300Y85755D01*
Y82155D02*X293000Y81855D01*
X293300Y81555D01*
X293600Y81855D01*
X293300Y82155D01*
X295700Y86655D02*Y86355D01*
Y86655D02*X296000Y87255D01*
X296300Y87555D01*
X296900Y87855D01*
X298100D01*
X298700Y87555D01*
X299000Y87255D01*
X299300Y86655D01*
Y86055D01*
X299000Y85455D01*
X298400Y84555D01*
X295400Y81555D01*
X299600D01*
X304400Y87855D02*X301400Y83655D01*
X305900D01*
X304400Y87855D02*Y81555D01*
X309800Y86655D02*Y86355D01*
Y86655D02*X310100Y87255D01*
X310400Y87555D01*
X311000Y87855D01*
X312200D01*
X312800Y87555D01*
X313100Y87255D01*
X313400Y86655D01*
Y86055D01*
X313100Y85455D01*
X312500Y84555D01*
X309500Y81555D01*
X313700D01*
X317300Y87855D02*X316400Y87555D01*
X315800Y86655D01*
X315500Y85155D01*
Y84255D01*
X315800Y82755D01*
X316400Y81855D01*
X317300Y81555D01*
X317900D01*
X318800Y81855D01*
X319400Y82755D01*
X319700Y84255D01*
Y85155D02*Y84255D01*
Y85155D02*X319400Y86655D01*
X318800Y87555D01*
X317900Y87855D01*
X317300D02*X317900D01*
X321800Y86655D02*Y86355D01*
Y86655D02*X322100Y87255D01*
X322400Y87555D01*
X323000Y87855D01*
X324200D01*
X324800Y87555D01*
X325100Y87255D01*
X325400Y86655D01*
Y86055D01*
X325100Y85455D01*
X324500Y84555D01*
X321500Y81555D01*
X325700D01*
X327500Y86655D02*X328100Y86955D01*
X329000Y87855D01*
Y81555D01*
X332600Y87855D02*Y83355D01*
X332900Y82455D01*
X333500Y81855D01*
X334400Y81555D01*
X335000D01*
X335900Y81855D01*
X336500Y82455D01*
X336800Y83355D01*
Y87855D02*Y83355D01*
X340700Y87855D02*Y81555D01*
X338600Y87855D02*X342800D01*
X349100Y86355D02*X348800Y86955D01*
X348200Y87555D01*
X347600Y87855D01*
X346400D02*X347600D01*
X346400D02*X345800Y87555D01*
X345200Y86955D01*
X344900Y86355D01*
X344600Y85455D01*
Y83955D01*
X344900Y83055D01*
X345200Y82455D01*
X345800Y81855D01*
X346400Y81555D01*
X347600D01*
X348200Y81855D01*
X348800Y82455D01*
X349100Y83055D01*
X202400Y102855D02*X200000Y96555D01*
X202400Y102855D02*X204800Y96555D01*
X200900Y98655D02*X203900D01*
X206600Y100755D02*Y97755D01*
X206900Y96855D01*
X207500Y96555D01*
X208400D01*
X209000Y96855D01*
X209900Y97755D01*
Y100755D02*Y96555D01*
X212600Y102855D02*Y97755D01*
X212900Y96855D01*
X213500Y96555D01*
X214100D01*
X211700Y100755D02*X213800D01*
X215900Y102855D02*Y96555D01*
Y99555D02*X216800Y100455D01*
X217400Y100755D01*
X218300D01*
X218900Y100455D01*
X219200Y99555D01*
Y96555D01*
X222500Y100755D02*X221900Y100455D01*
X221300Y99855D01*
X221000Y98955D01*
Y98355D01*
X221300Y97455D01*
X221900Y96855D01*
X222500Y96555D01*
X223400D01*
X224000Y96855D01*
X224600Y97455D01*
X224900Y98355D01*
Y98955D02*Y98355D01*
Y98955D02*X224600Y99855D01*
X224000Y100455D01*
X223400Y100755D01*
X222500D02*X223400D01*
X226700D02*Y96555D01*
Y98955D02*X227000Y99855D01*
X227600Y100455D01*
X228200Y100755D01*
X229100D01*
X231200D02*X230900Y100455D01*
X231200Y100155D01*
X231500Y100455D01*
X231200Y100755D01*
Y97155D02*X230900Y96855D01*
X231200Y96555D01*
X231500Y96855D01*
X231200Y97155D01*
X235100Y102855D02*Y96555D01*
Y102855D02*X237800D01*
X238700Y102555D01*
X239000Y102255D01*
X239300Y101655D01*
Y101055D01*
X239000Y100455D01*
X238700Y100155D01*
X237800Y99855D01*
X235100D02*X237800D01*
X238700Y99555D01*
X239000Y99255D01*
X239300Y98655D01*
Y97755D01*
X239000Y97155D01*
X238700Y96855D01*
X237800Y96555D01*
X235100D02*X237800D01*
X241100Y98955D02*X244700D01*
Y99555D02*Y98955D01*
Y99555D02*X244400Y100155D01*
X244100Y100455D01*
X243500Y100755D01*
X242600D02*X243500D01*
X242600D02*X242000Y100455D01*
X241400Y99855D01*
X241100Y98955D01*
Y98355D01*
X241400Y97455D01*
X242000Y96855D01*
X242600Y96555D01*
X243500D01*
X244100Y96855D01*
X244700Y97455D01*
X246500Y100755D02*Y96555D01*
Y98955D02*X246800Y99855D01*
X247400Y100455D01*
X248000Y100755D01*
X248900D01*
X251600Y102855D02*Y97755D01*
X251900Y96855D01*
X252500Y96555D01*
X253100D01*
X250700Y100755D02*X252800D01*
X258800Y102855D02*Y96555D01*
X256700Y102855D02*X260900D01*
X262700D02*X263000Y102555D01*
X263300Y102855D01*
X263000Y103155D01*
X262700Y102855D01*
X263000Y100755D02*Y96555D01*
X265100Y100755D02*Y96555D01*
Y99555D02*X266000Y100455D01*
X266600Y100755D01*
X267500D01*
X268100Y100455D01*
X268400Y99555D01*
Y96555D01*
Y99555D02*X269300Y100455D01*
X269900Y100755D01*
X270800D01*
X271400Y100455D01*
X271700Y99555D01*
Y96555D01*
X273500Y100755D02*Y96555D01*
Y99555D02*X274400Y100455D01*
X275000Y100755D01*
X275900D01*
X276500Y100455D01*
X276800Y99555D01*
Y96555D01*
Y99555D02*X277700Y100455D01*
X278300Y100755D01*
X279200D01*
X279800Y100455D01*
X280100Y99555D01*
Y96555D01*
X281900Y98955D02*X285500D01*
Y99555D02*Y98955D01*
Y99555D02*X285200Y100155D01*
X284900Y100455D01*
X284300Y100755D01*
X283400D02*X284300D01*
X283400D02*X282800Y100455D01*
X282200Y99855D01*
X281900Y98955D01*
Y98355D01*
X282200Y97455D01*
X282800Y96855D01*
X283400Y96555D01*
X284300D01*
X284900Y96855D01*
X285500Y97455D01*
X287300Y100755D02*Y96555D01*
Y98955D02*X287600Y99855D01*
X288200Y100455D01*
X288800Y100755D01*
X289700D01*
X291500D02*Y96555D01*
Y99555D02*X292400Y100455D01*
X293000Y100755D01*
X293900D01*
X294500Y100455D01*
X294800Y99555D01*
Y96555D01*
Y99555D02*X295700Y100455D01*
X296300Y100755D01*
X297200D01*
X297800Y100455D01*
X298100Y99555D01*
Y96555D01*
X303500Y100755D02*Y96555D01*
Y99855D02*X302900Y100455D01*
X302300Y100755D01*
X301400D02*X302300D01*
X301400D02*X300800Y100455D01*
X300200Y99855D01*
X299900Y98955D01*
Y98355D01*
X300200Y97455D01*
X300800Y96855D01*
X301400Y96555D01*
X302300D01*
X302900Y96855D01*
X303500Y97455D01*
X305300Y100755D02*Y96555D01*
Y99555D02*X306200Y100455D01*
X306800Y100755D01*
X307700D01*
X308300Y100455D01*
X308600Y99555D01*
Y96555D01*
X202100Y117855D02*Y111555D01*
X200000Y117855D02*X204200D01*
X206000D02*X206300Y117555D01*
X206600Y117855D01*
X206300Y118155D01*
X206000Y117855D01*
X206300Y115755D02*Y111555D01*
X209300Y117855D02*Y112755D01*
X209600Y111855D01*
X210200Y111555D01*
X210800D01*
X208400Y115755D02*X210500D01*
X212600Y117855D02*Y111555D01*
X214400Y113955D02*X218000D01*
Y114555D02*Y113955D01*
Y114555D02*X217700Y115155D01*
X217400Y115455D01*
X216800Y115755D01*
X215900D02*X216800D01*
X215900D02*X215300Y115455D01*
X214700Y114855D01*
X214400Y113955D01*
Y113355D01*
X214700Y112455D01*
X215300Y111855D01*
X215900Y111555D01*
X216800D01*
X217400Y111855D01*
X218000Y112455D01*
X220100Y115755D02*X219800Y115455D01*
X220100Y115155D01*
X220400Y115455D01*
X220100Y115755D01*
Y112155D02*X219800Y111855D01*
X220100Y111555D01*
X220400Y111855D01*
X220100Y112155D01*
X224300Y116655D02*Y116355D01*
Y116655D02*X224600Y117255D01*
X224900Y117555D01*
X225500Y117855D01*
X226700D01*
X227300Y117555D01*
X227600Y117255D01*
X227900Y116655D01*
Y116055D01*
X227600Y115455D01*
X227000Y114555D01*
X224000Y111555D01*
X228200D01*
X233600Y116955D02*X233300Y117555D01*
X232400Y117855D01*
X231800D02*X232400D01*
X231800D02*X230900Y117555D01*
X230300Y116655D01*
X230000Y115155D01*
Y113655D01*
X230300Y112455D01*
X230900Y111855D01*
X231800Y111555D01*
X232100D01*
X233000Y111855D01*
X233600Y112455D01*
X233900Y113355D01*
Y113655D02*Y113355D01*
Y113655D02*X233600Y114555D01*
X233000Y115155D01*
X232100Y115455D01*
X231800D02*X232100D01*
X231800D02*X230900Y115155D01*
X230300Y114555D01*
X230000Y113655D01*
X236000Y112155D02*X235700Y111855D01*
X236000Y111555D01*
X236300Y111855D01*
X236000Y112155D01*
X242000Y115755D02*X241700Y114855D01*
X241100Y114255D01*
X240200Y113955D01*
X239900D02*X240200D01*
X239900D02*X239000Y114255D01*
X238400Y114855D01*
X238100Y115755D01*
Y116055D02*Y115755D01*
Y116055D02*X238400Y116955D01*
X239000Y117555D01*
X239900Y117855D01*
X240200D01*
X241100Y117555D01*
X241700Y116955D01*
X242000Y115755D01*
Y114255D01*
X241700Y112755D01*
X241100Y111855D01*
X240200Y111555D01*
X239600D02*X240200D01*
X239600D02*X238700Y111855D01*
X238400Y112455D01*
X247700Y115755D02*X247400Y114855D01*
X246800Y114255D01*
X245900Y113955D01*
X245600D02*X245900D01*
X245600D02*X244700Y114255D01*
X244100Y114855D01*
X243800Y115755D01*
Y116055D02*Y115755D01*
Y116055D02*X244100Y116955D01*
X244700Y117555D01*
X245600Y117855D01*
X245900D01*
X246800Y117555D01*
X247400Y116955D01*
X247700Y115755D01*
Y114255D01*
X247400Y112755D01*
X246800Y111855D01*
X245900Y111555D01*
X245300D02*X245900D01*
X245300D02*X244400Y111855D01*
X244100Y112455D01*
X253400Y115755D02*X253100Y114855D01*
X252500Y114255D01*
X251600Y113955D01*
X251300D02*X251600D01*
X251300D02*X250400Y114255D01*
X249800Y114855D01*
X249500Y115755D01*
Y116055D02*Y115755D01*
Y116055D02*X249800Y116955D01*
X250400Y117555D01*
X251300Y117855D01*
X251600D01*
X252500Y117555D01*
X253100Y116955D01*
X253400Y115755D01*
Y114255D01*
X253100Y112755D01*
X252500Y111855D01*
X251600Y111555D01*
X251000D02*X251600D01*
X251000D02*X250100Y111855D01*
X249800Y112455D01*
X255500Y112155D02*X255200Y111855D01*
X255500Y111555D01*
X255800Y111855D01*
X255500Y112155D01*
X259400Y117855D02*X258500Y117555D01*
X257900Y116655D01*
X257600Y115155D01*
Y114255D01*
X257900Y112755D01*
X258500Y111855D01*
X259400Y111555D01*
X260000D01*
X260900Y111855D01*
X261500Y112755D01*
X261800Y114255D01*
Y115155D02*Y114255D01*
Y115155D02*X261500Y116655D01*
X260900Y117555D01*
X260000Y117855D01*
X259400D02*X260000D01*
X263600Y116655D02*X264200Y116955D01*
X265100Y117855D01*
Y111555D01*
X267200Y112155D02*X266900Y111855D01*
X267200Y111555D01*
X267500Y111855D01*
X267200Y112155D01*
X271100Y117855D02*X270200Y117555D01*
X269600Y116655D01*
X269300Y115155D01*
Y114255D01*
X269600Y112755D01*
X270200Y111855D01*
X271100Y111555D01*
X271700D01*
X272600Y111855D01*
X273200Y112755D01*
X273500Y114255D01*
Y115155D02*Y114255D01*
Y115155D02*X273200Y116655D01*
X272600Y117555D01*
X271700Y117855D01*
X271100D02*X271700D01*
X275300Y116655D02*X275900Y116955D01*
X276800Y117855D01*
Y111555D01*
X278900Y112155D02*X278600Y111855D01*
X278900Y111555D01*
X279200Y111855D01*
X278900Y112155D01*
X282800Y117855D02*X281900Y117555D01*
X281300Y116655D01*
X281000Y115155D01*
Y114255D01*
X281300Y112755D01*
X281900Y111855D01*
X282800Y111555D01*
X283400D01*
X284300Y111855D01*
X284900Y112755D01*
X285200Y114255D01*
Y115155D02*Y114255D01*
Y115155D02*X284900Y116655D01*
X284300Y117555D01*
X283400Y117855D01*
X282800D02*X283400D01*
X287000Y116655D02*X287600Y116955D01*
X288500Y117855D01*
Y111555D01*
X290600Y112155D02*X290300Y111855D01*
X290600Y111555D01*
X290900Y111855D01*
X290600Y112155D01*
X292700Y115755D02*Y109455D01*
Y114855D02*X293300Y115455D01*
X293900Y115755D01*
X294800D01*
X295400Y115455D01*
X296000Y114855D01*
X296300Y113955D01*
Y113355D01*
X296000Y112455D01*
X295400Y111855D01*
X294800Y111555D01*
X293900D02*X294800D01*
X293900D02*X293300Y111855D01*
X292700Y112455D01*
X301700Y114855D02*X301100Y115455D01*
X300500Y115755D01*
X299600D02*X300500D01*
X299600D02*X299000Y115455D01*
X298400Y114855D01*
X298100Y113955D01*
Y113355D01*
X298400Y112455D01*
X299000Y111855D01*
X299600Y111555D01*
X300500D01*
X301100Y111855D01*
X301700Y112455D01*
X303500Y117855D02*Y111555D01*
Y114855D02*X304100Y115455D01*
X304700Y115755D01*
X305600D01*
X306200Y115455D01*
X306800Y114855D01*
X307100Y113955D01*
Y113355D01*
X306800Y112455D01*
X306200Y111855D01*
X305600Y111555D01*
X304700D02*X305600D01*
X304700D02*X304100Y111855D01*
X303500Y112455D01*
X310700Y114255D02*X316100D01*
X319700Y117855D02*Y111555D01*
Y117855D02*X323600D01*
X319700Y114855D02*X322100D01*
X329000Y115755D02*Y111555D01*
Y114855D02*X328400Y115455D01*
X327800Y115755D01*
X326900D02*X327800D01*
X326900D02*X326300Y115455D01*
X325700Y114855D01*
X325400Y113955D01*
Y113355D01*
X325700Y112455D01*
X326300Y111855D01*
X326900Y111555D01*
X327800D01*
X328400Y111855D01*
X329000Y112455D01*
X330800Y117855D02*Y111555D01*
Y114855D02*X331400Y115455D01*
X332000Y115755D01*
X332900D01*
X333500Y115455D01*
X334100Y114855D01*
X334400Y113955D01*
Y113355D01*
X334100Y112455D01*
X333500Y111855D01*
X332900Y111555D01*
X332000D02*X332900D01*
X332000D02*X331400Y111855D01*
X330800Y112455D01*
X336200Y115755D02*Y111555D01*
Y113955D02*X336500Y114855D01*
X337100Y115455D01*
X337700Y115755D01*
X338600D01*
X340400Y117855D02*X340700Y117555D01*
X341000Y117855D01*
X340700Y118155D01*
X340400Y117855D01*
X340700Y115755D02*Y111555D01*
X346400Y114855D02*X345800Y115455D01*
X345200Y115755D01*
X344300D02*X345200D01*
X344300D02*X343700Y115455D01*
X343100Y114855D01*
X342800Y113955D01*
Y113355D01*
X343100Y112455D01*
X343700Y111855D01*
X344300Y111555D01*
X345200D01*
X345800Y111855D01*
X346400Y112455D01*
X351800Y115755D02*Y111555D01*
Y114855D02*X351200Y115455D01*
X350600Y115755D01*
X349700D02*X350600D01*
X349700D02*X349100Y115455D01*
X348500Y114855D01*
X348200Y113955D01*
Y113355D01*
X348500Y112455D01*
X349100Y111855D01*
X349700Y111555D01*
X350600D01*
X351200Y111855D01*
X351800Y112455D01*
X354500Y117855D02*Y112755D01*
X354800Y111855D01*
X355400Y111555D01*
X356000D01*
X353600Y115755D02*X355700D01*
X357800Y117855D02*X358100Y117555D01*
X358400Y117855D01*
X358100Y118155D01*
X357800Y117855D01*
X358100Y115755D02*Y111555D01*
X361700Y115755D02*X361100Y115455D01*
X360500Y114855D01*
X360200Y113955D01*
Y113355D01*
X360500Y112455D01*
X361100Y111855D01*
X361700Y111555D01*
X362600D01*
X363200Y111855D01*
X363800Y112455D01*
X364100Y113355D01*
Y113955D02*Y113355D01*
Y113955D02*X363800Y114855D01*
X363200Y115455D01*
X362600Y115755D01*
X361700D02*X362600D01*
X365900D02*Y111555D01*
Y114555D02*X366800Y115455D01*
X367400Y115755D01*
X368300D01*
X368900Y115455D01*
X369200Y114555D01*
Y111555D01*
X372800Y117855D02*Y111555D01*
Y117855D02*X374900D01*
X375800Y117555D01*
X376400Y116955D01*
X376700Y116355D01*
X377000Y115455D01*
Y113955D01*
X376700Y113055D01*
X376400Y112455D01*
X375800Y111855D01*
X374900Y111555D01*
X372800D02*X374900D01*
X378800Y115755D02*Y111555D01*
Y113955D02*X379100Y114855D01*
X379700Y115455D01*
X380300Y115755D01*
X381200D01*
X386600D02*Y111555D01*
Y114855D02*X386000Y115455D01*
X385400Y115755D01*
X384500D02*X385400D01*
X384500D02*X383900Y115455D01*
X383300Y114855D01*
X383000Y113955D01*
Y113355D01*
X383300Y112455D01*
X383900Y111855D01*
X384500Y111555D01*
X385400D01*
X386000Y111855D01*
X386600Y112455D01*
X388400Y115755D02*X389600Y111555D01*
X390800Y115755D02*X389600Y111555D01*
X390800Y115755D02*X392000Y111555D01*
X393200Y115755D02*X392000Y111555D01*
X395000Y117855D02*X395300Y117555D01*
X395600Y117855D01*
X395300Y118155D01*
X395000Y117855D01*
X395300Y115755D02*Y111555D01*
X397400Y115755D02*Y111555D01*
Y114555D02*X398300Y115455D01*
X398900Y115755D01*
X399800D01*
X400400Y115455D01*
X400700Y114555D01*
Y111555D01*
X406100Y115755D02*Y110955D01*
X405800Y110055D01*
X405500Y109755D01*
X404900Y109455D01*
X404000D02*X404900D01*
X404000D02*X403400Y109755D01*
X406100Y114855D02*X405500Y115455D01*
X404900Y115755D01*
X404000D02*X404900D01*
X404000D02*X403400Y115455D01*
X402800Y114855D01*
X402500Y113955D01*
Y113355D01*
X402800Y112455D01*
X403400Y111855D01*
X404000Y111555D01*
X404900D01*
X405500Y111855D01*
X406100Y112455D01*
M02*
