G04 start of page 7 for group -4062 idx -4062 *
G04 Title: 26.999.00.01.01.pcb, soldermask *
G04 Creator: pcb 4.1.2 *
G04 CreationDate: Fri Aug 10 20:06:25 2018 UTC *
G04 For: bert *
G04 Format: Gerber/RS-274X *
G04 PCB-Dimensions (mil): 2165.35 590.55 *
G04 PCB-Coordinate-Origin: lower left *
%MOIN*%
%FSLAX25Y25*%
%LNGBS*%
%ADD23C,0.0001*%
%ADD22C,0.0660*%
G54D22*X10000Y19055D03*
X40000D03*
Y29055D03*
Y39055D03*
G54D23*G36*
X6700Y52355D02*Y45755D01*
X13300D01*
Y52355D01*
X6700D01*
G37*
G54D22*X10000Y39055D03*
Y29055D03*
X40000Y49055D03*
G54D23*G36*
X19000D02*X16000D01*
Y39555D01*
X19000D01*
Y49055D01*
G37*
G36*
X24000D02*X21000D01*
Y39555D01*
X24000D01*
Y49055D01*
G37*
G36*
X29000D02*X26000D01*
Y39555D01*
X29000D01*
Y49055D01*
G37*
G36*
X34000Y28555D02*X31000D01*
Y19055D01*
X34000D01*
Y28555D01*
G37*
G36*
X29000D02*X26000D01*
Y19055D01*
X29000D01*
Y28555D01*
G37*
G36*
X24000D02*X21000D01*
Y19055D01*
X24000D01*
Y28555D01*
G37*
G36*
X19000D02*X16000D01*
Y19055D01*
X19000D01*
Y28555D01*
G37*
G36*
X34000Y49055D02*X31000D01*
Y39555D01*
X34000D01*
Y49055D01*
G37*
M02*
